<svg width="135" height="138" viewBox="0 0 135 138" fill="none" xmlns="http://www.w3.org/2000/svg">
<path d="M101.756 19.8134C101.218 19.9796 100.363 54.8183 99.9353 97.5795C99.5126 140.356 100.985 137.988 101.42 137.87C101.958 137.704 101.454 139.773 101.876 96.9963C102.299 54.22 102.191 19.6955 101.756 19.8134Z" fill="#29383E"/>
<path d="M5.33774 68.5617C5.43909 68.6634 25.2191 61.8312 25.2191 61.8312L17.6179 44.3184L0 51.0658L9.69577 56.6604L5.33774 68.5617Z" fill="#C52552"/>
<path d="M14.6112 49.5909V25.7205C14.6112 25.7205 41.908 20.7193 61.5867 21.0075C81.2485 21.3126 101.501 24.5507 101.501 24.5507V47.4548C101.501 47.4548 39.8641 41.928 14.6112 49.5909Z" fill="#C52552"/>
<path d="M14.476 49.608L25.2191 61.9331V47.455C25.2191 47.455 16.2327 48.54 14.476 49.608Z" fill="#8D1235"/>
<path d="M14.6113 25.7205C14.6958 25.7205 14.7465 31.0777 14.6958 37.6726C14.662 44.2675 14.5606 49.6078 14.4762 49.6078C14.3917 49.6078 14.3579 44.2675 14.3917 37.6726C14.4255 31.0777 14.5269 25.7205 14.6113 25.7205Z" fill="#29383E"/>
<path d="M101.501 24.5509C101.586 24.5509 101.687 29.7556 101.704 36.164C101.738 42.5893 101.704 47.777 101.62 47.777C101.518 47.777 101.434 42.5893 101.4 36.164C101.366 29.7556 101.417 24.5509 101.501 24.5509Z" fill="#29383E"/>
<path d="M113.714 26.7208L115.268 28.5517L119.677 26.7208L118.393 24.7881L113.714 26.7208Z" fill="#3F5E69"/>
<path d="M111.704 17.9899C111.704 19.2614 110.674 20.2786 109.407 20.2786C108.14 20.2786 107.126 19.2614 107.126 17.9899C107.126 16.7184 108.14 15.6842 109.407 15.6842C110.674 15.6842 111.704 16.7184 111.704 17.9899Z" fill="#C52552"/>
<path d="M60.4381 52.2356C60.4381 52.8798 59.9314 53.3884 59.2895 53.3884C58.6645 53.3884 58.1409 52.8798 58.1409 52.2356C58.1409 51.6083 58.6645 51.0997 59.2895 51.0997C59.9314 51.0997 60.4381 51.6083 60.4381 52.2356Z" fill="#C52552"/>
<path d="M7.12828 34.9772C7.12828 35.4688 6.73977 35.8587 6.2668 35.8587C5.79384 35.8587 5.40533 35.4688 5.40533 34.9772C5.40533 34.5025 5.79384 34.1125 6.2668 34.1125C6.73977 34.1125 7.12828 34.5025 7.12828 34.9772Z" fill="#C52552"/>
<path d="M3.90186 25.3646L6.46938 25.5341L7.68557 20.4651L5.28696 20.5668L3.90186 25.3646Z" fill="#3F5E69"/>
<path d="M84.0017 65.7644L84.8632 68.1887L89.9644 67.3241L88.934 65.1541L84.0017 65.7644Z" fill="#C52552"/>
<path d="M32.2798 51.744L30.7089 53.7784L34.1716 57.6438L35.4385 55.6094L32.2798 51.744Z" fill="#3F5E69"/>
<path d="M26.1651 12.9696L32.2123 19.1745L40.7256 15.9364L41.0635 18.0556L37.3811 25.6338L40.7763 31.2962L40.4892 32.9916L32.2461 31.6014L27.3813 36.9586L26.2327 36.094L25.2361 29.2618L17.5335 25.2439L17.1957 23.7011L24.9489 21.565L26.1651 12.9696Z" fill="#ED7068"/>
<path d="M27.3813 36.9586L26.2327 36.094L25.2361 29.2618L17.5335 25.2439L17.1957 23.7011L24.9489 21.565L26.1651 12.9696L32.2123 19.1745L40.7256 15.9364L41.0635 18.0556L37.3811 25.6338L40.7763 31.2962L40.4892 32.9916L32.2461 31.6014L27.3813 36.9586Z" fill="#CD6E46"/>
<path d="M26.1651 11.2402L32.2123 17.4282L40.7256 15.9363L36.7392 23.6332L40.7763 31.2961L32.2461 29.8551L26.2327 36.0939L24.9658 27.5155L17.1957 23.701L24.9489 19.8356L26.1651 11.2402Z" fill="#ECCE63"/>
<path d="M88.8834 12.9696L82.8193 19.1745L74.306 15.9364L73.9681 18.0556L77.6674 25.6338L74.2553 31.2962L74.5425 32.9916L82.7855 31.6014L87.6503 36.9586L88.7989 36.094L89.8124 29.2618L97.4981 25.2439L97.8359 23.7011L90.0996 21.565L88.8834 12.9696Z" fill="#ED7068"/>
<path d="M87.6503 36.9586L82.7855 31.6014L74.5425 32.9916L74.2553 31.2962L77.6674 25.6338L73.9681 18.0556L74.306 15.9364L82.8193 19.1745L88.8834 12.9696L90.0996 21.565L97.8359 23.7011L97.4981 25.2439L89.8124 29.2618L88.7989 36.094L87.6503 36.9586Z" fill="#CD6E46"/>
<path d="M88.8835 11.2402L82.8194 17.4282L74.306 15.9363L78.3093 23.6332L74.2554 31.2961L82.7856 29.8551L88.799 36.0939L90.0659 27.5155L97.836 23.701L90.0997 19.8356L88.8835 11.2402Z" fill="#ECCE63"/>
<path d="M57.313 2.11914L62.3636 11.986L73.9681 11.2909L73.5796 14.0204L66.198 21.8529L68.2081 30.0583L67.2115 32.008L57.6847 27.1593L49.7118 31.8384L48.6477 30.3465L49.999 21.6325L42.1444 13.8L42.3302 11.7656L52.5834 12.1216L57.313 2.11914Z" fill="#ED7068"/>
<path d="M67.2115 32.008L57.6847 27.1593L49.7118 31.8384L48.6477 30.3465L49.999 21.6325L42.1444 13.8L42.3302 11.7656L52.5834 12.1216L57.313 2.11914L62.3636 11.986L73.9681 11.2909L73.5796 14.0204L66.198 21.8529L68.2081 30.0583L67.2115 32.008Z" fill="#CD6F46"/>
<path d="M57.9888 0L63.0225 9.86687L73.9682 11.291L66.1812 19.1573L68.2082 30.0584L58.3435 25.0401L48.6478 30.3466L50.3538 19.3947L42.3303 11.7656L53.2423 10.0025L57.9888 0Z" fill="#ECCE63"/>
</svg>
