<svg width="200" height="262" viewBox="0 0 200 262" fill="none" xmlns="http://www.w3.org/2000/svg">
<path d="M200 14H0V0H200V14Z" fill="#E6E6E6"/>
<path d="M4.19617e-05 14H37.3738V0H4.19617e-05V14Z" fill="#C7C6C6"/>
<rect width="200" height="228" transform="matrix(-1 0 0 1 200 34)" fill="white"/>
<rect x="10" y="49" width="180" height="50" rx="3" fill="#0260A2"/>
<path d="M46.644 79.612C45.7587 79.612 44.9747 79.468 44.292 79.18C43.62 78.8813 43.0547 78.476 42.596 77.964C42.1373 77.452 41.7853 76.844 41.54 76.14C41.3053 75.436 41.188 74.668 41.188 73.836C41.188 72.9933 41.3107 72.22 41.556 71.516C41.8013 70.8013 42.1533 70.188 42.612 69.676C43.0813 69.164 43.652 68.764 44.324 68.476C45.0067 68.188 45.7853 68.044 46.66 68.044C47.5347 68.044 48.308 68.188 48.98 68.476C49.6627 68.7533 50.2333 69.148 50.692 69.66C51.1613 70.172 51.5133 70.7853 51.748 71.5C51.9933 72.204 52.116 72.9773 52.116 73.82C52.116 74.652 51.9933 75.4253 51.748 76.14C51.5133 76.844 51.1613 77.452 50.692 77.964C50.2333 78.476 49.6627 78.8813 48.98 79.18C48.2973 79.468 47.5187 79.612 46.644 79.612ZM46.66 69.708C46.052 69.708 45.524 69.82 45.076 70.044C44.6387 70.268 44.2707 70.5667 43.972 70.94C43.6733 71.3133 43.4493 71.7507 43.3 72.252C43.1613 72.7533 43.092 73.276 43.092 73.82C43.092 74.364 43.1613 74.8867 43.3 75.388C43.4493 75.8787 43.668 76.316 43.956 76.7C44.2547 77.084 44.628 77.388 45.076 77.612C45.524 77.836 46.052 77.948 46.66 77.948C47.2573 77.948 47.78 77.8413 48.228 77.628C48.676 77.404 49.044 77.1053 49.332 76.732C49.6307 76.3587 49.8493 75.9267 49.988 75.436C50.1373 74.9347 50.212 74.4013 50.212 73.836C50.212 73.2813 50.1373 72.7587 49.988 72.268C49.8493 71.7667 49.6307 71.3293 49.332 70.956C49.044 70.572 48.676 70.268 48.228 70.044C47.7907 69.82 47.268 69.708 46.66 69.708ZM60.5211 71.068V72.652H57.6731V79.5H55.8651V72.652H53.0171V71.068H60.5211ZM73.1626 68.188V75.692H74.4586V77.324H73.1626V79.5H71.3226V77.324H65.4826V75.996L70.7786 68.188H73.1626ZM67.6266 75.692H71.3226V70.156L67.6266 75.692ZM84.6648 73.836C84.6648 74.7 84.5741 75.4893 84.3928 76.204C84.2221 76.908 83.9501 77.5107 83.5768 78.012C83.2141 78.5133 82.7554 78.9027 82.2008 79.18C81.6461 79.4573 80.9901 79.596 80.2328 79.596C79.4754 79.596 78.8194 79.4627 78.2648 79.196C77.7101 78.9187 77.2514 78.5347 76.8888 78.044C76.5261 77.5533 76.2541 76.9613 76.0728 76.268C75.8914 75.5747 75.8008 74.8013 75.8008 73.948C75.8008 73.0733 75.8861 72.2733 76.0568 71.548C76.2274 70.8227 76.4941 70.1987 76.8568 69.676C77.2194 69.1533 77.6781 68.7533 78.2328 68.476C78.7981 68.188 79.4648 68.044 80.2328 68.044C80.9794 68.044 81.6301 68.1827 82.1848 68.46C82.7394 68.7373 83.1981 69.132 83.5608 69.644C83.9341 70.156 84.2114 70.7693 84.3928 71.484C84.5741 72.188 84.6648 72.972 84.6648 73.836ZM77.6408 73.836C77.6408 74.4227 77.6834 74.9667 77.7688 75.468C77.8541 75.9693 77.9981 76.4067 78.2008 76.78C78.4034 77.1427 78.6701 77.4307 79.0008 77.644C79.3314 77.8467 79.7421 77.948 80.2328 77.948C80.7128 77.948 81.1181 77.8467 81.4488 77.644C81.7794 77.4307 82.0461 77.1427 82.2488 76.78C82.4514 76.4067 82.5954 75.9693 82.6808 75.468C82.7661 74.9667 82.8088 74.4227 82.8088 73.836C82.8088 73.26 82.7661 72.7213 82.6808 72.22C82.5954 71.708 82.4514 71.2707 82.2488 70.908C82.0461 70.5347 81.7794 70.2413 81.4488 70.028C81.1181 69.8147 80.7128 69.708 80.2328 69.708C79.7421 69.708 79.3314 69.8147 79.0008 70.028C78.6701 70.2413 78.4034 70.5347 78.2008 70.908C77.9981 71.2707 77.8541 71.708 77.7688 72.22C77.6834 72.7213 77.6408 73.26 77.6408 73.836ZM99.4929 73.836C99.4929 74.7 99.4022 75.4893 99.2209 76.204C99.0502 76.908 98.7782 77.5107 98.4049 78.012C98.0422 78.5133 97.5835 78.9027 97.0289 79.18C96.4742 79.4573 95.8182 79.596 95.0609 79.596C94.3035 79.596 93.6475 79.4627 93.0929 79.196C92.5382 78.9187 92.0795 78.5347 91.7169 78.044C91.3542 77.5533 91.0822 76.9613 90.9009 76.268C90.7195 75.5747 90.6289 74.8013 90.6289 73.948C90.6289 73.0733 90.7142 72.2733 90.8849 71.548C91.0555 70.8227 91.3222 70.1987 91.6849 69.676C92.0475 69.1533 92.5062 68.7533 93.0609 68.476C93.6262 68.188 94.2929 68.044 95.0609 68.044C95.8075 68.044 96.4582 68.1827 97.0129 68.46C97.5675 68.7373 98.0262 69.132 98.3889 69.644C98.7622 70.156 99.0395 70.7693 99.2209 71.484C99.4022 72.188 99.4929 72.972 99.4929 73.836ZM92.4689 73.836C92.4689 74.4227 92.5115 74.9667 92.5969 75.468C92.6822 75.9693 92.8262 76.4067 93.0289 76.78C93.2315 77.1427 93.4982 77.4307 93.8289 77.644C94.1595 77.8467 94.5702 77.948 95.0609 77.948C95.5409 77.948 95.9462 77.8467 96.2769 77.644C96.6075 77.4307 96.8742 77.1427 97.0769 76.78C97.2795 76.4067 97.4235 75.9693 97.5089 75.468C97.5942 74.9667 97.6369 74.4227 97.6369 73.836C97.6369 73.26 97.5942 72.7213 97.5089 72.22C97.4235 71.708 97.2795 71.2707 97.0769 70.908C96.8742 70.5347 96.6075 70.2413 96.2769 70.028C95.9462 69.8147 95.5409 69.708 95.0609 69.708C94.5702 69.708 94.1595 69.8147 93.8289 70.028C93.4982 70.2413 93.2315 70.5347 93.0289 70.908C92.8262 71.2707 92.6822 71.708 92.5969 72.22C92.5115 72.7213 92.4689 73.26 92.4689 73.836ZM110.009 73.836C110.009 74.7 109.918 75.4893 109.737 76.204C109.566 76.908 109.294 77.5107 108.921 78.012C108.558 78.5133 108.099 78.9027 107.545 79.18C106.99 79.4573 106.334 79.596 105.577 79.596C104.819 79.596 104.163 79.4627 103.609 79.196C103.054 78.9187 102.595 78.5347 102.233 78.044C101.87 77.5533 101.598 76.9613 101.417 76.268C101.235 75.5747 101.145 74.8013 101.145 73.948C101.145 73.0733 101.23 72.2733 101.401 71.548C101.571 70.8227 101.838 70.1987 102.201 69.676C102.563 69.1533 103.022 68.7533 103.577 68.476C104.142 68.188 104.809 68.044 105.577 68.044C106.323 68.044 106.974 68.1827 107.529 68.46C108.083 68.7373 108.542 69.132 108.905 69.644C109.278 70.156 109.555 70.7693 109.737 71.484C109.918 72.188 110.009 72.972 110.009 73.836ZM102.985 73.836C102.985 74.4227 103.027 74.9667 103.113 75.468C103.198 75.9693 103.342 76.4067 103.545 76.78C103.747 77.1427 104.014 77.4307 104.345 77.644C104.675 77.8467 105.086 77.948 105.577 77.948C106.057 77.948 106.462 77.8467 106.793 77.644C107.123 77.4307 107.39 77.1427 107.593 76.78C107.795 76.4067 107.939 75.9693 108.025 75.468C108.11 74.9667 108.153 74.4227 108.153 73.836C108.153 73.26 108.11 72.7213 108.025 72.22C107.939 71.708 107.795 71.2707 107.593 70.908C107.39 70.5347 107.123 70.2413 106.793 70.028C106.462 69.8147 106.057 69.708 105.577 69.708C105.086 69.708 104.675 69.8147 104.345 70.028C104.014 70.2413 103.747 70.5347 103.545 70.908C103.342 71.2707 103.198 71.708 103.113 72.22C103.027 72.7213 102.985 73.26 102.985 73.836ZM120.524 73.836C120.524 74.7 120.433 75.4893 120.252 76.204C120.081 76.908 119.809 77.5107 119.436 78.012C119.073 78.5133 118.615 78.9027 118.06 79.18C117.505 79.4573 116.849 79.596 116.092 79.596C115.335 79.596 114.679 79.4627 114.124 79.196C113.569 78.9187 113.111 78.5347 112.748 78.044C112.385 77.5533 112.113 76.9613 111.932 76.268C111.751 75.5747 111.66 74.8013 111.66 73.948C111.66 73.0733 111.745 72.2733 111.916 71.548C112.087 70.8227 112.353 70.1987 112.716 69.676C113.079 69.1533 113.537 68.7533 114.092 68.476C114.657 68.188 115.324 68.044 116.092 68.044C116.839 68.044 117.489 68.1827 118.044 68.46C118.599 68.7373 119.057 69.132 119.42 69.644C119.793 70.156 120.071 70.7693 120.252 71.484C120.433 72.188 120.524 72.972 120.524 73.836ZM113.5 73.836C113.5 74.4227 113.543 74.9667 113.628 75.468C113.713 75.9693 113.857 76.4067 114.06 76.78C114.263 77.1427 114.529 77.4307 114.86 77.644C115.191 77.8467 115.601 77.948 116.092 77.948C116.572 77.948 116.977 77.8467 117.308 77.644C117.639 77.4307 117.905 77.1427 118.108 76.78C118.311 76.4067 118.455 75.9693 118.54 75.468C118.625 74.9667 118.668 74.4227 118.668 73.836C118.668 73.26 118.625 72.7213 118.54 72.22C118.455 71.708 118.311 71.2707 118.108 70.908C117.905 70.5347 117.639 70.2413 117.308 70.028C116.977 69.8147 116.572 69.708 116.092 69.708C115.601 69.708 115.191 69.8147 114.86 70.028C114.529 70.2413 114.263 70.5347 114.06 70.908C113.857 71.2707 113.713 71.708 113.628 72.22C113.543 72.7213 113.5 73.26 113.5 73.836ZM128.472 82.78H126.648V71.068H128.376L128.472 72.268C128.782 71.8307 129.182 71.5 129.672 71.276C130.174 71.0413 130.696 70.924 131.24 70.924C131.816 70.924 132.334 71.0307 132.792 71.244C133.251 71.4467 133.64 71.7347 133.96 72.108C134.291 72.4813 134.536 72.9347 134.696 73.468C134.867 73.9907 134.952 74.588 134.952 75.26C134.952 75.8893 134.872 76.4707 134.712 77.004C134.552 77.5373 134.312 78.0013 133.992 78.396C133.683 78.78 133.294 79.0787 132.824 79.292C132.366 79.5053 131.806 79.612 131.144 79.612C130.632 79.612 130.142 79.532 129.672 79.372C129.214 79.2013 128.814 78.924 128.472 78.54V82.78ZM130.856 78.028C131.251 78.028 131.592 77.9587 131.88 77.82C132.168 77.6707 132.403 77.4733 132.584 77.228C132.776 76.9827 132.915 76.6947 133 76.364C133.096 76.0333 133.144 75.676 133.144 75.292C133.144 74.908 133.096 74.5507 133 74.22C132.915 73.8787 132.776 73.5853 132.584 73.34C132.403 73.0947 132.163 72.9027 131.864 72.764C131.576 72.6253 131.23 72.556 130.824 72.556C130.462 72.556 130.126 72.6307 129.816 72.78C129.518 72.9293 129.267 73.1267 129.064 73.372C128.862 73.6173 128.707 73.9107 128.6 74.252C128.504 74.5827 128.456 74.924 128.456 75.276C128.456 75.66 128.504 76.0227 128.6 76.364C128.696 76.6947 128.84 76.9827 129.032 77.228C129.235 77.4627 129.486 77.6547 129.784 77.804C130.083 77.9533 130.44 78.028 130.856 78.028ZM142.603 71.068H144.602L142.171 78.156C141.861 79.0307 141.579 79.804 141.323 80.476C141.077 81.148 140.784 81.708 140.443 82.156C140.101 82.604 139.68 82.94 139.179 83.164C138.688 83.3987 138.043 83.516 137.243 83.516H136.971V81.884C137.013 81.884 137.056 81.884 137.099 81.884C137.419 81.884 137.701 81.8467 137.947 81.772C138.203 81.6973 138.432 81.5853 138.635 81.436C138.837 81.2867 139.013 81.0893 139.163 80.844C139.312 80.6093 139.451 80.3373 139.579 80.028L135.755 71.068H137.899L140.523 77.74L142.603 71.068ZM147.151 72.812C147.492 72.3853 147.919 72.0813 148.431 71.9C148.943 71.708 149.46 71.612 149.983 71.612C150.559 71.612 151.071 71.7027 151.519 71.884C151.977 72.0653 152.367 72.3213 152.687 72.652C153.007 72.9827 153.252 73.3827 153.423 73.852C153.593 74.3107 153.679 74.828 153.679 75.404C153.679 76.0227 153.583 76.5933 153.391 77.116C153.209 77.6387 152.937 78.0867 152.575 78.46C152.223 78.8227 151.791 79.1053 151.279 79.308C150.777 79.5107 150.207 79.612 149.567 79.612C148.724 79.6013 148.031 79.4307 147.487 79.1C146.953 78.7693 146.532 78.3427 146.223 77.82C145.913 77.2973 145.7 76.7107 145.583 76.06C145.465 75.3987 145.407 74.732 145.407 74.06C145.407 73.388 145.455 72.7 145.551 71.996C145.657 71.292 145.865 70.668 146.175 70.124C146.431 69.6973 146.724 69.3613 147.055 69.116C147.396 68.86 147.769 68.668 148.175 68.54C148.58 68.4013 149.012 68.3 149.471 68.236C149.929 68.172 150.404 68.108 150.895 68.044C151.268 68.0013 151.647 67.9587 152.031 67.916C152.425 67.8733 152.809 67.788 153.183 67.66V69.404C152.991 69.4893 152.724 69.5587 152.383 69.612C152.041 69.6547 151.679 69.6973 151.295 69.74C150.911 69.772 150.532 69.8093 150.159 69.852C149.785 69.884 149.455 69.9213 149.167 69.964C148.825 70.0173 148.521 70.1347 148.255 70.316C147.999 70.4867 147.791 70.7 147.631 70.956C147.471 71.2013 147.353 71.4893 147.279 71.82C147.204 72.14 147.161 72.4707 147.151 72.812ZM149.615 78.028C149.977 78.028 150.297 77.9587 150.575 77.82C150.863 77.6813 151.103 77.5053 151.295 77.292C151.487 77.068 151.631 76.812 151.727 76.524C151.823 76.2253 151.871 75.916 151.871 75.596C151.871 75.2653 151.817 74.956 151.711 74.668C151.615 74.3693 151.471 74.1187 151.279 73.916C151.097 73.7027 150.873 73.5373 150.607 73.42C150.34 73.3027 150.036 73.244 149.695 73.244C149.343 73.244 149.023 73.3027 148.735 73.42C148.457 73.5267 148.217 73.6867 148.015 73.9C147.823 74.1027 147.668 74.348 147.551 74.636C147.433 74.924 147.369 75.2333 147.359 75.564C147.359 75.884 147.401 76.1933 147.487 76.492C147.572 76.78 147.705 77.036 147.887 77.26C148.079 77.484 148.313 77.6707 148.591 77.82C148.879 77.9587 149.22 78.028 149.615 78.028ZM156.441 77.276C156.783 77.276 157.06 77.3827 157.273 77.596C157.497 77.8093 157.609 78.0973 157.609 78.46C157.609 78.8333 157.497 79.1213 157.273 79.324C157.06 79.5267 156.783 79.628 156.441 79.628C156.1 79.628 155.817 79.5267 155.593 79.324C155.38 79.1213 155.273 78.8333 155.273 78.46C155.273 78.0973 155.38 77.8093 155.593 77.596C155.817 77.3827 156.1 77.276 156.441 77.276Z" fill="white"/>
<path d="M20.9535 158.208C20.3562 158.208 19.8388 158.32 19.4015 158.544C18.9748 158.768 18.6228 159.067 18.3455 159.44C18.0682 159.813 17.8602 160.251 17.7215 160.752C17.5935 161.243 17.5295 161.76 17.5295 162.304C17.5295 162.859 17.5988 163.387 17.7375 163.888C17.8762 164.389 18.0842 164.832 18.3615 165.216C18.6495 165.589 19.0122 165.888 19.4495 166.112C19.8868 166.336 20.4042 166.448 21.0015 166.448C21.7375 166.448 22.3508 166.288 22.8415 165.968C23.3428 165.648 23.6575 165.216 23.7855 164.672H25.6415C25.5562 165.216 25.3748 165.701 25.0975 166.128C24.8308 166.555 24.4948 166.917 24.0895 167.216C23.6842 167.504 23.2148 167.728 22.6815 167.888C22.1482 168.037 21.5775 168.112 20.9695 168.112C20.0842 168.112 19.3055 167.968 18.6335 167.68C17.9722 167.392 17.4175 166.992 16.9695 166.48C16.5215 165.968 16.1855 165.36 15.9615 164.656C15.7375 163.952 15.6255 163.179 15.6255 162.336C15.6255 161.515 15.7375 160.752 15.9615 160.048C16.1962 159.333 16.5375 158.72 16.9855 158.208C17.4335 157.685 17.9882 157.28 18.6495 156.992C19.3215 156.693 20.1002 156.544 20.9855 156.544C22.2335 156.544 23.2628 156.837 24.0735 157.424C24.8842 158.011 25.3748 158.875 25.5455 160.016H23.7215C23.5828 159.461 23.2735 159.024 22.7935 158.704C22.3135 158.373 21.7002 158.208 20.9535 158.208ZM34.0524 159.568V161.152H31.2044V168H29.3964V161.152H26.5484V159.568H34.0524ZM40.5414 166.96C40.264 167.355 39.896 167.648 39.4374 167.84C38.9787 168.021 38.4667 168.112 37.9014 168.112C37.4534 168.112 37.0427 168.059 36.6694 167.952C36.3067 167.845 35.9867 167.685 35.7094 167.472C35.432 167.248 35.2134 166.976 35.0534 166.656C34.8934 166.325 34.8134 165.952 34.8134 165.536C34.8134 165.077 34.904 164.688 35.0854 164.368C35.2667 164.037 35.512 163.771 35.8214 163.568C36.1414 163.365 36.5147 163.216 36.9414 163.12C37.368 163.013 37.816 162.96 38.2854 162.96H40.4454C40.4454 162.341 40.3067 161.861 40.0294 161.52C39.752 161.179 39.2667 161.003 38.5734 160.992C38.168 160.992 37.816 161.061 37.5174 161.2C37.2294 161.339 37.0374 161.568 36.9414 161.888H35.0694C35.1334 161.44 35.2774 161.061 35.5014 160.752C35.736 160.443 36.0134 160.187 36.3334 159.984C36.664 159.781 37.0267 159.637 37.4214 159.552C37.8267 159.467 38.232 159.424 38.6374 159.424C39.16 159.424 39.6454 159.493 40.0934 159.632C40.5414 159.771 40.9307 160.005 41.2614 160.336C41.6347 160.72 41.8854 161.179 42.0134 161.712C42.1414 162.245 42.2054 162.827 42.2054 163.456V168H40.6214L40.5414 166.96ZM40.4454 164.256H38.6854C38.376 164.256 38.0667 164.283 37.7574 164.336C37.448 164.379 37.1814 164.491 36.9574 164.672C36.744 164.843 36.6374 165.093 36.6374 165.424C36.6374 165.829 36.7814 166.139 37.0694 166.352C37.368 166.555 37.7307 166.656 38.1574 166.656C38.488 166.656 38.792 166.613 39.0694 166.528C39.3574 166.443 39.6027 166.304 39.8054 166.112C40.008 165.909 40.1627 165.659 40.2694 165.36C40.3867 165.051 40.4454 164.683 40.4454 164.256ZM45.9879 171.28H44.1639V159.568H45.8919L45.9879 160.768C46.2972 160.331 46.6972 160 47.1879 159.776C47.6892 159.541 48.2119 159.424 48.7559 159.424C49.3319 159.424 49.8492 159.531 50.3079 159.744C50.7665 159.947 51.1559 160.235 51.4759 160.608C51.8065 160.981 52.0519 161.435 52.2119 161.968C52.3825 162.491 52.4679 163.088 52.4679 163.76C52.4679 164.389 52.3879 164.971 52.2279 165.504C52.0679 166.037 51.8279 166.501 51.5079 166.896C51.1985 167.28 50.8092 167.579 50.3399 167.792C49.8812 168.005 49.3212 168.112 48.6599 168.112C48.1479 168.112 47.6572 168.032 47.1879 167.872C46.7292 167.701 46.3292 167.424 45.9879 167.04V171.28ZM48.3719 166.528C48.7665 166.528 49.1079 166.459 49.3959 166.32C49.6839 166.171 49.9185 165.973 50.0999 165.728C50.2919 165.483 50.4305 165.195 50.5159 164.864C50.6119 164.533 50.6599 164.176 50.6599 163.792C50.6599 163.408 50.6119 163.051 50.5159 162.72C50.4305 162.379 50.2919 162.085 50.0999 161.84C49.9185 161.595 49.6785 161.403 49.3799 161.264C49.0919 161.125 48.7452 161.056 48.3399 161.056C47.9772 161.056 47.6412 161.131 47.3319 161.28C47.0332 161.429 46.7825 161.627 46.5799 161.872C46.3772 162.117 46.2225 162.411 46.1159 162.752C46.0199 163.083 45.9719 163.424 45.9719 163.776C45.9719 164.16 46.0199 164.523 46.1159 164.864C46.2119 165.195 46.3559 165.483 46.5479 165.728C46.7505 165.963 47.0012 166.155 47.2999 166.304C47.5985 166.453 47.9559 166.528 48.3719 166.528ZM60.6461 159.568V161.152H57.7981V168H55.9901V161.152H53.1421V159.568H60.6461ZM65.4871 159.424C66.1591 159.424 66.7511 159.531 67.2631 159.744C67.7751 159.957 68.2071 160.256 68.5591 160.64C68.9218 161.013 69.1938 161.467 69.3751 162C69.5565 162.533 69.6471 163.125 69.6471 163.776C69.6471 164.437 69.5565 165.035 69.3751 165.568C69.2045 166.091 68.9431 166.544 68.5911 166.928C68.2391 167.312 67.8018 167.605 67.2791 167.808C66.7671 168.011 66.1698 168.112 65.4871 168.112C64.8151 168.112 64.2231 168.011 63.7111 167.808C63.1991 167.595 62.7671 167.301 62.4151 166.928C62.0738 166.544 61.8125 166.085 61.6311 165.552C61.4605 165.019 61.3751 164.427 61.3751 163.776C61.3751 163.125 61.4605 162.533 61.6311 162C61.8125 161.467 62.0791 161.013 62.4311 160.64C62.7831 160.256 63.2151 159.957 63.7271 159.744C64.2391 159.531 64.8258 159.424 65.4871 159.424ZM65.4871 166.528C65.9031 166.528 66.2551 166.459 66.5431 166.32C66.8418 166.171 67.0818 165.973 67.2631 165.728C67.4551 165.483 67.5938 165.195 67.6791 164.864C67.7751 164.533 67.8231 164.176 67.8231 163.792C67.8231 163.408 67.7751 163.051 67.6791 162.72C67.5938 162.379 67.4551 162.085 67.2631 161.84C67.0818 161.595 66.8418 161.403 66.5431 161.264C66.2551 161.125 65.9031 161.056 65.4871 161.056C65.0818 161.056 64.7298 161.125 64.4311 161.264C64.1431 161.403 63.9031 161.595 63.7111 161.84C63.5298 162.085 63.3911 162.379 63.2951 162.72C63.2098 163.051 63.1671 163.408 63.1671 163.792C63.1671 164.176 63.2098 164.533 63.2951 164.864C63.3911 165.195 63.5298 165.483 63.7111 165.728C63.9031 165.973 64.1431 166.171 64.4311 166.32C64.7298 166.459 65.0818 166.528 65.4871 166.528ZM71.3045 159.568H74.9045C75.2778 159.568 75.6565 159.589 76.0405 159.632C76.4245 159.664 76.7712 159.755 77.0805 159.904C77.4005 160.053 77.6565 160.272 77.8485 160.56C78.0512 160.837 78.1578 161.216 78.1685 161.696C78.1685 162.069 78.0832 162.416 77.9125 162.736C77.7418 163.056 77.4698 163.317 77.0965 163.52C77.6085 163.659 77.9818 163.904 78.2165 164.256C78.4618 164.597 78.5845 165.008 78.5845 165.488C78.5845 165.936 78.4938 166.325 78.3125 166.656C78.1312 166.976 77.8912 167.237 77.5925 167.44C77.2938 167.632 76.9472 167.776 76.5525 167.872C76.1578 167.957 75.7418 168 75.3045 168H71.3045V159.568ZM73.1445 161.088V163.024H74.2485C74.4938 163.024 74.7445 163.024 75.0005 163.024C75.2672 163.013 75.5018 162.976 75.7045 162.912C75.9178 162.848 76.0885 162.747 76.2165 162.608C76.3552 162.469 76.4245 162.272 76.4245 162.016C76.4245 161.792 76.3712 161.621 76.2645 161.504C76.1685 161.376 76.0458 161.28 75.8965 161.216C75.7472 161.152 75.5765 161.115 75.3845 161.104C75.2032 161.093 75.0325 161.088 74.8725 161.088H73.1445ZM75.0005 166.464C75.2138 166.464 75.4218 166.453 75.6245 166.432C75.8378 166.411 76.0245 166.363 76.1845 166.288C76.3552 166.203 76.4938 166.096 76.6005 165.968C76.7072 165.829 76.7605 165.648 76.7605 165.424C76.7605 165.019 76.6325 164.747 76.3765 164.608C76.1312 164.469 75.8272 164.4 75.4645 164.4H73.1445V166.464H75.0005ZM85.7133 166.96C85.4359 167.355 85.0679 167.648 84.6093 167.84C84.1506 168.021 83.6386 168.112 83.0733 168.112C82.6253 168.112 82.2146 168.059 81.8413 167.952C81.4786 167.845 81.1586 167.685 80.8813 167.472C80.6039 167.248 80.3853 166.976 80.2253 166.656C80.0653 166.325 79.9853 165.952 79.9853 165.536C79.9853 165.077 80.0759 164.688 80.2573 164.368C80.4386 164.037 80.6839 163.771 80.9933 163.568C81.3133 163.365 81.6866 163.216 82.1133 163.12C82.5399 163.013 82.9879 162.96 83.4573 162.96H85.6173C85.6173 162.341 85.4786 161.861 85.2013 161.52C84.9239 161.179 84.4386 161.003 83.7453 160.992C83.3399 160.992 82.9879 161.061 82.6893 161.2C82.4013 161.339 82.2093 161.568 82.1133 161.888H80.2413C80.3053 161.44 80.4493 161.061 80.6733 160.752C80.9079 160.443 81.1853 160.187 81.5053 159.984C81.8359 159.781 82.1986 159.637 82.5933 159.552C82.9986 159.467 83.4039 159.424 83.8093 159.424C84.3319 159.424 84.8173 159.493 85.2653 159.632C85.7133 159.771 86.1026 160.005 86.4333 160.336C86.8066 160.72 87.0573 161.179 87.1853 161.712C87.3133 162.245 87.3773 162.827 87.3773 163.456V168H85.7933L85.7133 166.96ZM85.6173 164.256H83.8573C83.5479 164.256 83.2386 164.283 82.9293 164.336C82.6199 164.379 82.3533 164.491 82.1293 164.672C81.9159 164.843 81.8093 165.093 81.8093 165.424C81.8093 165.829 81.9533 166.139 82.2413 166.352C82.5399 166.555 82.9026 166.656 83.3293 166.656C83.6599 166.656 83.9639 166.613 84.2413 166.528C84.5293 166.443 84.7746 166.304 84.9773 166.112C85.1799 165.909 85.3346 165.659 85.4413 165.36C85.5586 165.051 85.6173 164.683 85.6173 164.256ZM96.2478 168H94.4398V165.12H92.9198L90.9518 168H88.8078L91.0958 164.832C90.4451 164.672 89.9491 164.379 89.6078 163.952C89.2771 163.525 89.1118 162.981 89.1118 162.32C89.1118 161.797 89.1971 161.36 89.3678 161.008C89.5491 160.656 89.7944 160.373 90.1038 160.16C90.4238 159.936 90.7864 159.781 91.1918 159.696C91.5971 159.611 92.0344 159.568 92.5038 159.568H96.2478V168ZM94.4398 161.088H92.6318C92.4291 161.088 92.2264 161.104 92.0238 161.136C91.8211 161.157 91.6344 161.216 91.4638 161.312C91.3038 161.397 91.1758 161.52 91.0798 161.68C90.9838 161.84 90.9358 162.032 90.9358 162.256C90.9358 162.288 90.9358 162.315 90.9358 162.336C90.9358 162.613 91.0158 162.848 91.1758 163.04C91.3358 163.232 91.5438 163.371 91.7998 163.456C92.0558 163.531 92.2904 163.579 92.5038 163.6C92.7171 163.611 92.9304 163.616 93.1438 163.616H94.4398V161.088ZM103.339 163.984C103.392 163.259 103.424 162.539 103.435 161.824C103.456 161.099 103.477 160.347 103.499 159.568H109.803V168H107.963V161.152H105.195C105.173 161.675 105.152 162.197 105.131 162.72C105.12 163.232 105.099 163.744 105.067 164.256C105.056 164.448 105.035 164.677 105.003 164.944C104.981 165.2 104.949 165.461 104.907 165.728C104.864 165.984 104.8 166.229 104.715 166.464C104.629 166.688 104.523 166.896 104.395 167.088C104.171 167.408 103.872 167.643 103.499 167.792C103.136 167.931 102.715 168 102.235 168H101.787V166.432C102.107 166.432 102.363 166.357 102.555 166.208C102.757 166.048 102.907 165.851 103.003 165.616C103.109 165.371 103.184 165.109 103.227 164.832C103.28 164.544 103.317 164.261 103.339 163.984ZM113.485 168H111.789V159.568H113.613V165.36L117.901 159.568H119.549V168H117.725V162.32C117.714 162.341 116.301 164.235 113.485 168ZM122.451 162.576C122.483 162.064 122.504 161.568 122.515 161.088C122.526 160.597 122.531 160.091 122.531 159.568H129.027V166.448H130.131V170.464H128.355V168H122.595V170.464H120.819V166.448C121.128 166.448 121.384 166.352 121.587 166.16C121.8 165.957 121.944 165.733 122.019 165.488C122.094 165.317 122.158 165.088 122.211 164.8C122.264 164.501 122.307 164.208 122.339 163.92C122.371 163.632 122.398 163.365 122.419 163.12C122.44 162.875 122.451 162.693 122.451 162.576ZM127.203 161.152H124.195C124.174 161.536 124.158 161.952 124.147 162.4C124.136 162.848 124.12 163.28 124.099 163.696C124.078 163.899 124.056 164.117 124.035 164.352C124.024 164.587 123.998 164.827 123.955 165.072C123.912 165.307 123.854 165.541 123.779 165.776C123.704 166.011 123.603 166.235 123.475 166.448H127.203V161.152ZM132.902 164.4C132.924 164.709 132.988 164.997 133.094 165.264C133.201 165.531 133.345 165.765 133.526 165.968C133.708 166.16 133.932 166.315 134.198 166.432C134.476 166.549 134.796 166.608 135.158 166.608C135.542 166.608 135.894 166.539 136.214 166.4C136.545 166.261 136.785 166.021 136.934 165.68H138.806C138.7 166.107 138.524 166.475 138.278 166.784C138.044 167.093 137.761 167.349 137.43 167.552C137.11 167.744 136.753 167.888 136.358 167.984C135.974 168.069 135.564 168.112 135.126 168.112C134.454 168.112 133.862 168.011 133.35 167.808C132.849 167.605 132.428 167.312 132.086 166.928C131.745 166.544 131.489 166.091 131.318 165.568C131.158 165.035 131.078 164.437 131.078 163.776C131.078 163.136 131.169 162.555 131.35 162.032C131.532 161.499 131.793 161.04 132.134 160.656C132.486 160.272 132.908 159.973 133.398 159.76C133.889 159.536 134.449 159.424 135.078 159.424C135.74 159.424 136.31 159.536 136.79 159.76C137.27 159.973 137.67 160.267 137.99 160.64C138.321 161.013 138.566 161.451 138.726 161.952C138.886 162.453 138.966 162.997 138.966 163.584C138.966 163.861 138.95 164.133 138.918 164.4H132.902ZM137.19 163.024C137.158 162.363 136.95 161.861 136.566 161.52C136.193 161.179 135.702 161.008 135.094 161.008C134.753 161.008 134.454 161.061 134.198 161.168C133.942 161.275 133.724 161.419 133.542 161.6C133.372 161.781 133.233 161.995 133.126 162.24C133.02 162.485 132.95 162.747 132.918 163.024H137.19ZM142.441 171.28H140.617V159.568H142.345L142.441 160.768C142.75 160.331 143.15 160 143.641 159.776C144.142 159.541 144.665 159.424 145.209 159.424C145.785 159.424 146.302 159.531 146.761 159.744C147.22 159.947 147.609 160.235 147.929 160.608C148.26 160.981 148.505 161.435 148.665 161.968C148.836 162.491 148.921 163.088 148.921 163.76C148.921 164.389 148.841 164.971 148.681 165.504C148.521 166.037 148.281 166.501 147.961 166.896C147.652 167.28 147.262 167.579 146.793 167.792C146.334 168.005 145.774 168.112 145.113 168.112C144.601 168.112 144.11 168.032 143.641 167.872C143.182 167.701 142.782 167.424 142.441 167.04V171.28ZM144.825 166.528C145.22 166.528 145.561 166.459 145.849 166.32C146.137 166.171 146.372 165.973 146.553 165.728C146.745 165.483 146.884 165.195 146.969 164.864C147.065 164.533 147.113 164.176 147.113 163.792C147.113 163.408 147.065 163.051 146.969 162.72C146.884 162.379 146.745 162.085 146.553 161.84C146.372 161.595 146.132 161.403 145.833 161.264C145.545 161.125 145.198 161.056 144.793 161.056C144.43 161.056 144.094 161.131 143.785 161.28C143.486 161.429 143.236 161.627 143.033 161.872C142.83 162.117 142.676 162.411 142.569 162.752C142.473 163.083 142.425 163.424 142.425 163.776C142.425 164.16 142.473 164.523 142.569 164.864C142.665 165.195 142.809 165.483 143.001 165.728C143.204 165.963 143.454 166.155 143.753 166.304C144.052 166.453 144.409 166.528 144.825 166.528ZM154.391 168.112C153.72 168.112 153.128 168.011 152.616 167.808C152.114 167.595 151.693 167.301 151.352 166.928C151.021 166.544 150.77 166.091 150.6 165.568C150.44 165.035 150.36 164.448 150.36 163.808C150.36 163.168 150.445 162.581 150.616 162.048C150.797 161.515 151.064 161.056 151.416 160.672C151.768 160.288 152.194 159.984 152.696 159.76C153.197 159.536 153.778 159.424 154.44 159.424C154.909 159.424 155.341 159.477 155.736 159.584C156.141 159.68 156.498 159.845 156.808 160.08C157.117 160.304 157.384 160.592 157.608 160.944C157.832 161.285 157.986 161.701 158.072 162.192H156.184C156.088 161.829 155.88 161.552 155.56 161.36C155.25 161.157 154.866 161.056 154.408 161.056C154.002 161.056 153.656 161.131 153.368 161.28C153.08 161.429 152.845 161.632 152.664 161.888C152.482 162.144 152.349 162.443 152.264 162.784C152.189 163.115 152.152 163.461 152.152 163.824C152.152 164.197 152.194 164.549 152.28 164.88C152.365 165.211 152.498 165.499 152.68 165.744C152.872 165.979 153.112 166.171 153.4 166.32C153.688 166.459 154.034 166.528 154.44 166.528C154.92 166.528 155.314 166.421 155.624 166.208C155.944 165.995 156.146 165.712 156.232 165.36H158.104C158.018 165.84 157.858 166.256 157.624 166.608C157.4 166.96 157.122 167.248 156.792 167.472C156.461 167.696 156.093 167.861 155.688 167.968C155.282 168.064 154.85 168.112 154.391 168.112ZM159.664 168V159.568H161.472V163.008H162.768L164.928 159.568H167.008L164.336 163.584L167.216 168H165.104L162.88 164.592H161.472V168H159.664ZM173.526 166.96C173.248 167.355 172.88 167.648 172.422 167.84C171.963 168.021 171.451 168.112 170.886 168.112C170.438 168.112 170.027 168.059 169.654 167.952C169.291 167.845 168.971 167.685 168.694 167.472C168.416 167.248 168.198 166.976 168.038 166.656C167.878 166.325 167.798 165.952 167.798 165.536C167.798 165.077 167.888 164.688 168.07 164.368C168.251 164.037 168.496 163.771 168.806 163.568C169.126 163.365 169.499 163.216 169.926 163.12C170.352 163.013 170.8 162.96 171.27 162.96H173.43C173.43 162.341 173.291 161.861 173.014 161.52C172.736 161.179 172.251 161.003 171.558 160.992C171.152 160.992 170.8 161.061 170.502 161.2C170.214 161.339 170.022 161.568 169.926 161.888H168.054C168.118 161.44 168.262 161.061 168.486 160.752C168.72 160.443 168.998 160.187 169.318 159.984C169.648 159.781 170.011 159.637 170.406 159.552C170.811 159.467 171.216 159.424 171.622 159.424C172.144 159.424 172.63 159.493 173.078 159.632C173.526 159.771 173.915 160.005 174.246 160.336C174.619 160.72 174.87 161.179 174.998 161.712C175.126 162.245 175.19 162.827 175.19 163.456V168H173.606L173.526 166.96ZM173.43 164.256H171.67C171.36 164.256 171.051 164.283 170.742 164.336C170.432 164.379 170.166 164.491 169.942 164.672C169.728 164.843 169.622 165.093 169.622 165.424C169.622 165.829 169.766 166.139 170.054 166.352C170.352 166.555 170.715 166.656 171.142 166.656C171.472 166.656 171.776 166.613 172.054 166.528C172.342 166.443 172.587 166.304 172.79 166.112C172.992 165.909 173.147 165.659 173.254 165.36C173.371 165.051 173.43 164.683 173.43 164.256ZM184.06 168H182.252V165.12H180.732L178.764 168H176.62L178.908 164.832C178.258 164.672 177.762 164.379 177.42 163.952C177.09 163.525 176.924 162.981 176.924 162.32C176.924 161.797 177.01 161.36 177.18 161.008C177.362 160.656 177.607 160.373 177.916 160.16C178.236 159.936 178.599 159.781 179.004 159.696C179.41 159.611 179.847 159.568 180.316 159.568H184.06V168ZM182.252 161.088H180.444C180.242 161.088 180.039 161.104 179.836 161.136C179.634 161.157 179.447 161.216 179.276 161.312C179.116 161.397 178.988 161.52 178.892 161.68C178.796 161.84 178.748 162.032 178.748 162.256C178.748 162.288 178.748 162.315 178.748 162.336C178.748 162.613 178.828 162.848 178.988 163.04C179.148 163.232 179.356 163.371 179.612 163.456C179.868 163.531 180.103 163.579 180.316 163.6C180.53 163.611 180.743 163.616 180.956 163.616H182.252V161.088ZM68.2029 189V180.568H75.5949V189H73.7709V182.152H70.0269V189H68.2029ZM81.3699 180.424C82.0419 180.424 82.6339 180.531 83.1459 180.744C83.6579 180.957 84.0899 181.256 84.4419 181.64C84.8046 182.013 85.0766 182.467 85.2579 183C85.4393 183.533 85.5299 184.125 85.5299 184.776C85.5299 185.437 85.4393 186.035 85.2579 186.568C85.0873 187.091 84.8259 187.544 84.4739 187.928C84.1219 188.312 83.6846 188.605 83.1619 188.808C82.6499 189.011 82.0526 189.112 81.3699 189.112C80.6979 189.112 80.1059 189.011 79.5939 188.808C79.0819 188.595 78.6499 188.301 78.2979 187.928C77.9566 187.544 77.6953 187.085 77.5139 186.552C77.3433 186.019 77.2579 185.427 77.2579 184.776C77.2579 184.125 77.3433 183.533 77.5139 183C77.6953 182.467 77.9619 182.013 78.3139 181.64C78.6659 181.256 79.0979 180.957 79.6099 180.744C80.1219 180.531 80.7086 180.424 81.3699 180.424ZM81.3699 187.528C81.7859 187.528 82.1379 187.459 82.4259 187.32C82.7246 187.171 82.9646 186.973 83.1459 186.728C83.3379 186.483 83.4766 186.195 83.5619 185.864C83.6579 185.533 83.7059 185.176 83.7059 184.792C83.7059 184.408 83.6579 184.051 83.5619 183.72C83.4766 183.379 83.3379 183.085 83.1459 182.84C82.9646 182.595 82.7246 182.403 82.4259 182.264C82.1379 182.125 81.7859 182.056 81.3699 182.056C80.9646 182.056 80.6126 182.125 80.3139 182.264C80.0259 182.403 79.7859 182.595 79.5939 182.84C79.4126 183.085 79.2739 183.379 79.1779 183.72C79.0926 184.051 79.0499 184.408 79.0499 184.792C79.0499 185.176 79.0926 185.533 79.1779 185.864C79.2739 186.195 79.4126 186.483 79.5939 186.728C79.7859 186.973 80.0259 187.171 80.3139 187.32C80.6126 187.459 80.9646 187.528 81.3699 187.528ZM92.7233 184.488C93.1713 184.637 93.502 184.883 93.7153 185.224C93.9286 185.555 94.0353 185.928 94.0353 186.344C94.0353 186.365 94.0353 186.387 94.0353 186.408C94.0353 186.941 93.9286 187.384 93.7153 187.736C93.502 188.088 93.214 188.371 92.8513 188.584C92.4993 188.787 92.1153 188.925 91.6993 189C91.294 189.075 90.878 189.112 90.4513 189.112C90.0353 189.112 89.6086 189.075 89.1713 189C88.7446 188.915 88.35 188.771 87.9873 188.568C87.6353 188.365 87.342 188.099 87.1073 187.768C86.8726 187.437 86.7393 187.021 86.7073 186.52H88.4673C88.51 186.733 88.6006 186.909 88.7393 187.048C88.8886 187.187 89.0593 187.299 89.2513 187.384C89.4433 187.469 89.646 187.528 89.8593 187.56C90.0726 187.592 90.27 187.608 90.4513 187.608C90.6433 187.608 90.8513 187.597 91.0753 187.576C91.2993 187.544 91.4966 187.491 91.6673 187.416C91.8486 187.331 91.998 187.219 92.1153 187.08C92.2326 186.931 92.2913 186.739 92.2913 186.504C92.2913 186.099 92.1366 185.827 91.8273 185.688C91.5286 185.549 91.15 185.48 90.6913 185.48H89.2833V184.04H90.5473C90.942 184.04 91.278 183.96 91.5553 183.8C91.8326 183.64 91.9713 183.363 91.9713 182.968C91.9713 182.765 91.918 182.6 91.8113 182.472C91.7153 182.333 91.5926 182.227 91.4433 182.152C91.294 182.077 91.1286 182.029 90.9473 182.008C90.766 181.976 90.606 181.96 90.4673 181.96C90.286 181.96 90.0993 181.976 89.9073 182.008C89.7153 182.029 89.534 182.077 89.3633 182.152C89.1926 182.227 89.0486 182.328 88.9313 182.456C88.814 182.584 88.7446 182.749 88.7233 182.952H86.9793C87.022 182.451 87.1553 182.04 87.3793 181.72C87.6033 181.389 87.8806 181.128 88.2113 180.936C88.542 180.744 88.9046 180.611 89.2993 180.536C89.7046 180.461 90.1046 180.424 90.4993 180.424C90.894 180.424 91.278 180.461 91.6513 180.536C92.0353 180.611 92.3873 180.749 92.7073 180.952C93.0273 181.155 93.2726 181.4 93.4433 181.688C93.6246 181.965 93.7153 182.328 93.7153 182.776C93.7153 183.181 93.6193 183.528 93.4273 183.816C93.246 184.104 93.0113 184.328 92.7233 184.488ZM97.3521 189H95.6561V180.568H97.4801V186.36L101.768 180.568H103.416V189H101.592V183.32C101.581 183.341 100.168 185.235 97.3521 189ZM110.894 187.448V180.568H112.718V187.448H113.854V191.464H112.062V189H105.406V180.568H107.214V187.448H110.894ZM116.821 189H115.125V180.568H116.949V186.36L121.237 180.568H122.885V189H121.061V183.32C121.05 183.341 119.637 185.235 116.821 189ZM131.787 189H129.979V186.12H128.459L126.491 189H124.347L126.635 185.832C125.984 185.672 125.488 185.379 125.147 184.952C124.816 184.525 124.651 183.981 124.651 183.32C124.651 182.797 124.736 182.36 124.907 182.008C125.088 181.656 125.333 181.373 125.643 181.16C125.963 180.936 126.325 180.781 126.731 180.696C127.136 180.611 127.573 180.568 128.043 180.568H131.787V189ZM129.979 182.088H128.171C127.968 182.088 127.765 182.104 127.563 182.136C127.36 182.157 127.173 182.216 127.003 182.312C126.843 182.397 126.715 182.52 126.619 182.68C126.523 182.84 126.475 183.032 126.475 183.256C126.475 183.288 126.475 183.315 126.475 183.336C126.475 183.613 126.555 183.848 126.715 184.04C126.875 184.232 127.083 184.371 127.339 184.456C127.595 184.531 127.829 184.579 128.043 184.6C128.256 184.611 128.469 184.616 128.683 184.616H129.979V182.088Z" fill="#0260A2"/>
<path d="M70.834 130.924C71.122 130.684 71.41 130.426 71.698 130.15C71.998 129.874 72.286 129.586 72.562 129.286C72.838 129.01 73.072 128.71 73.264 128.386C73.468 128.062 73.576 127.702 73.588 127.306C73.612 126.67 73.444 126.196 73.084 125.884C72.724 125.572 72.244 125.422 71.644 125.434C71.104 125.446 70.666 125.572 70.33 125.812C70.006 126.052 69.814 126.4 69.754 126.856H67.324C67.348 126.148 67.516 125.536 67.828 125.02C68.152 124.492 68.578 124.072 69.106 123.76C69.49 123.532 69.91 123.37 70.366 123.274C70.822 123.166 71.302 123.112 71.806 123.112C73.162 123.088 74.23 123.448 75.01 124.192C75.346 124.504 75.616 124.894 75.82 125.362C76.024 125.818 76.126 126.358 76.126 126.982C76.126 127.438 76.078 127.87 75.982 128.278C75.886 128.686 75.724 129.064 75.496 129.412C75.352 129.652 75.196 129.874 75.028 130.078C74.872 130.27 74.71 130.45 74.542 130.618C74.386 130.786 74.212 130.954 74.02 131.122C73.84 131.29 73.636 131.476 73.408 131.68C72.964 132.064 72.538 132.418 72.13 132.742C71.734 133.066 71.356 133.384 70.996 133.696H75.982V136H67.414V133.876L70.834 130.924ZM80.9063 130.924C81.1943 130.684 81.4823 130.426 81.7703 130.15C82.0703 129.874 82.3583 129.586 82.6343 129.286C82.9103 129.01 83.1443 128.71 83.3363 128.386C83.5403 128.062 83.6483 127.702 83.6603 127.306C83.6843 126.67 83.5163 126.196 83.1563 125.884C82.7963 125.572 82.3163 125.422 81.7163 125.434C81.1763 125.446 80.7383 125.572 80.4023 125.812C80.0783 126.052 79.8863 126.4 79.8263 126.856H77.3963C77.4203 126.148 77.5883 125.536 77.9003 125.02C78.2243 124.492 78.6503 124.072 79.1783 123.76C79.5623 123.532 79.9823 123.37 80.4383 123.274C80.8943 123.166 81.3743 123.112 81.8783 123.112C83.2343 123.088 84.3023 123.448 85.0823 124.192C85.4183 124.504 85.6883 124.894 85.8923 125.362C86.0963 125.818 86.1983 126.358 86.1983 126.982C86.1983 127.438 86.1503 127.87 86.0543 128.278C85.9583 128.686 85.7963 129.064 85.5683 129.412C85.4243 129.652 85.2683 129.874 85.1003 130.078C84.9443 130.27 84.7823 130.45 84.6143 130.618C84.4583 130.786 84.2843 130.954 84.0923 131.122C83.9123 131.29 83.7083 131.476 83.4803 131.68C83.0363 132.064 82.6103 132.418 82.2023 132.742C81.8063 133.066 81.4283 133.384 81.0683 133.696H86.0543V136H77.4863V133.876L80.9063 130.924ZM99.8864 126.514V128.71H95.2784V136H92.7404V126.514H99.8864ZM105.5 136.144C103.964 136.144 102.782 135.712 101.954 134.848C101.126 133.972 100.712 132.76 100.712 131.212C100.712 130.468 100.82 129.796 101.036 129.196C101.264 128.584 101.576 128.062 101.972 127.63C102.38 127.198 102.878 126.874 103.466 126.658C104.066 126.43 104.744 126.316 105.5 126.316C106.244 126.316 106.91 126.43 107.498 126.658C108.098 126.874 108.602 127.198 109.01 127.63C109.43 128.062 109.748 128.584 109.964 129.196C110.192 129.796 110.306 130.468 110.306 131.212C110.306 132.772 109.886 133.984 109.046 134.848C108.218 135.712 107.036 136.144 105.5 136.144ZM105.5 128.584C104.732 128.584 104.156 128.836 103.772 129.34C103.4 129.844 103.214 130.474 103.214 131.23C103.214 131.998 103.4 132.634 103.772 133.138C104.156 133.642 104.732 133.894 105.5 133.894C106.268 133.894 106.832 133.642 107.192 133.138C107.564 132.634 107.75 131.998 107.75 131.23C107.75 130.474 107.564 129.844 107.192 129.34C106.832 128.836 106.268 128.584 105.5 128.584ZM120.815 126.514V133.804H122.057V138.61H119.519V136H113.525V138.61H110.969V133.804H111.329C111.629 133.804 111.857 133.726 112.013 133.57C112.169 133.402 112.295 133.192 112.391 132.94C112.499 132.652 112.577 132.346 112.625 132.022C112.673 131.698 112.709 131.428 112.733 131.212C112.817 130.408 112.859 129.628 112.859 128.872C112.871 128.104 112.889 127.318 112.913 126.514H120.815ZM118.259 133.804V128.71H115.271C115.271 129.082 115.259 129.46 115.235 129.844C115.223 130.228 115.205 130.612 115.181 130.996C115.157 131.452 115.109 131.938 115.037 132.454C114.965 132.958 114.815 133.408 114.587 133.804H118.259ZM129.267 134.83C128.907 135.31 128.463 135.652 127.935 135.856C127.419 136.06 126.825 136.156 126.153 136.144C125.277 136.12 124.545 135.874 123.957 135.406C123.645 135.142 123.399 134.83 123.219 134.47C123.051 134.098 122.967 133.66 122.967 133.156C122.979 132.64 123.093 132.184 123.309 131.788C123.537 131.38 123.879 131.044 124.335 130.78C124.719 130.576 125.151 130.432 125.631 130.348C126.123 130.264 126.657 130.222 127.233 130.222H129.177C129.213 129.634 129.075 129.196 128.763 128.908C128.463 128.608 128.037 128.452 127.485 128.44C127.305 128.44 127.119 128.452 126.927 128.476C126.735 128.5 126.555 128.548 126.387 128.62C126.231 128.692 126.093 128.794 125.973 128.926C125.865 129.046 125.793 129.196 125.757 129.376H123.147C123.207 128.8 123.363 128.32 123.615 127.936C123.879 127.54 124.209 127.222 124.605 126.982C125.001 126.742 125.439 126.574 125.919 126.478C126.411 126.37 126.915 126.316 127.431 126.316C127.719 126.316 128.013 126.334 128.313 126.37C128.613 126.394 128.907 126.454 129.195 126.55C129.483 126.634 129.753 126.754 130.005 126.91C130.269 127.054 130.515 127.246 130.743 127.486C131.151 127.954 131.403 128.494 131.499 129.106C131.607 129.706 131.655 130.294 131.643 130.87V136H129.321L129.267 134.83ZM129.177 131.806H127.323C127.143 131.806 126.939 131.824 126.711 131.86C126.483 131.896 126.285 131.962 126.117 132.058C125.949 132.154 125.805 132.28 125.685 132.436C125.577 132.592 125.523 132.784 125.523 133.012C125.523 133.204 125.559 133.372 125.631 133.516C125.715 133.66 125.817 133.78 125.937 133.876C126.069 133.972 126.225 134.05 126.405 134.11C126.585 134.158 126.765 134.182 126.945 134.182C127.293 134.194 127.617 134.134 127.917 134.002C128.229 133.87 128.499 133.684 128.727 133.444C128.871 133.252 128.979 133.036 129.051 132.796C129.135 132.544 129.177 132.214 129.177 131.806Z" fill="#0260A2"/>
</svg>
