<svg width="200" height="159" viewBox="0 0 200 159" fill="none" xmlns="http://www.w3.org/2000/svg">
<path d="M200 14H0V0H200V14Z" fill="#E6E6E6"/>
<path d="M4.19617e-05 14H37.3738V0H4.19617e-05V14Z" fill="#C7C6C6"/>
<rect width="200" height="125" transform="matrix(-1 0 0 1 200 34)" fill="white"/>
<rect x="10" y="49" width="180" height="50" rx="3" fill="#0260A2"/>
<path d="M80.8129 69.708C80.2155 69.708 79.6982 69.82 79.2609 70.044C78.8342 70.268 78.4822 70.5667 78.2049 70.94C77.9275 71.3133 77.7195 71.7507 77.5809 72.252C77.4529 72.7427 77.3889 73.26 77.3889 73.804C77.3889 74.3587 77.4582 74.8867 77.5969 75.388C77.7355 75.8893 77.9435 76.332 78.2209 76.716C78.5089 77.0893 78.8715 77.388 79.3089 77.612C79.7462 77.836 80.2635 77.948 80.8609 77.948C81.5969 77.948 82.2102 77.788 82.7009 77.468C83.2022 77.148 83.5169 76.716 83.6449 76.172H85.5009C85.4155 76.716 85.2342 77.2013 84.9569 77.628C84.6902 78.0547 84.3542 78.4173 83.9489 78.716C83.5435 79.004 83.0742 79.228 82.5409 79.388C82.0075 79.5373 81.4369 79.612 80.8289 79.612C79.9435 79.612 79.1649 79.468 78.4929 79.18C77.8315 78.892 77.2769 78.492 76.8289 77.98C76.3809 77.468 76.0449 76.86 75.8209 76.156C75.5969 75.452 75.4849 74.6787 75.4849 73.836C75.4849 73.0147 75.5969 72.252 75.8209 71.548C76.0555 70.8333 76.3969 70.22 76.8449 69.708C77.2929 69.1853 77.8475 68.78 78.5089 68.492C79.1809 68.1933 79.9595 68.044 80.8449 68.044C82.0929 68.044 83.1222 68.3373 83.9329 68.924C84.7435 69.5107 85.2342 70.3747 85.4049 71.516H83.5809C83.4422 70.9613 83.1329 70.524 82.6529 70.204C82.1729 69.8733 81.5595 69.708 80.8129 69.708ZM91.6313 79.5H89.7753V69.852H86.1753V68.188H95.2153V69.852H91.6313V79.5ZM101.251 68.188L105.507 79.5H103.475L102.642 77.212H97.5065L96.6585 79.5H94.6425L98.9305 68.188H101.251ZM102.067 75.548L100.083 70.028L98.0825 75.548H102.067ZM106.906 79.5V68.188H111.05C111.7 68.188 112.282 68.2627 112.794 68.412C113.316 68.5507 113.759 68.7747 114.122 69.084C114.484 69.3933 114.762 69.7933 114.954 70.284C115.156 70.764 115.258 71.34 115.258 72.012C115.258 72.6307 115.156 73.1853 114.954 73.676C114.751 74.1667 114.463 74.5827 114.09 74.924C113.716 75.2547 113.263 75.5107 112.73 75.692C112.207 75.8733 111.62 75.964 110.97 75.964H108.746V79.5H106.906ZM108.746 74.316H110.874C111.226 74.316 111.551 74.2733 111.85 74.188C112.159 74.1027 112.426 73.9693 112.65 73.788C112.874 73.6067 113.05 73.3773 113.178 73.1C113.316 72.8227 113.391 72.492 113.402 72.108C113.402 71.308 113.194 70.732 112.778 70.38C112.372 70.028 111.775 69.852 110.986 69.852H108.746V74.316ZM121.475 79.5H119.619V69.852H116.019V68.188H125.059V69.852H121.475V79.5Z" fill="white"/>
</svg>
