<svg width="200" height="312" viewBox="0 0 200 312" fill="none" xmlns="http://www.w3.org/2000/svg">
<path d="M200 14H0V0H200V14Z" fill="#E6E6E6"/>
<path d="M4.19617e-05 14H37.3738V0H4.19617e-05V14Z" fill="#C7C6C6"/>
<rect width="200" height="278" transform="matrix(-1 0 0 1 200 34)" fill="white"/>
<rect x="10" y="49" width="180" height="50" rx="3" fill="#0260A2"/>
<path d="M47.144 79.612C46.2587 79.612 45.4747 79.468 44.792 79.18C44.12 78.8813 43.5547 78.476 43.096 77.964C42.6373 77.452 42.2853 76.844 42.04 76.14C41.8053 75.436 41.688 74.668 41.688 73.836C41.688 72.9933 41.8107 72.22 42.056 71.516C42.3013 70.8013 42.6533 70.188 43.112 69.676C43.5813 69.164 44.152 68.764 44.824 68.476C45.5067 68.188 46.2853 68.044 47.16 68.044C48.0347 68.044 48.808 68.188 49.48 68.476C50.1627 68.7533 50.7333 69.148 51.192 69.66C51.6613 70.172 52.0133 70.7853 52.248 71.5C52.4933 72.204 52.616 72.9773 52.616 73.82C52.616 74.652 52.4933 75.4253 52.248 76.14C52.0133 76.844 51.6613 77.452 51.192 77.964C50.7333 78.476 50.1627 78.8813 49.48 79.18C48.7973 79.468 48.0187 79.612 47.144 79.612ZM47.16 69.708C46.552 69.708 46.024 69.82 45.576 70.044C45.1387 70.268 44.7707 70.5667 44.472 70.94C44.1733 71.3133 43.9493 71.7507 43.8 72.252C43.6613 72.7533 43.592 73.276 43.592 73.82C43.592 74.364 43.6613 74.8867 43.8 75.388C43.9493 75.8787 44.168 76.316 44.456 76.7C44.7547 77.084 45.128 77.388 45.576 77.612C46.024 77.836 46.552 77.948 47.16 77.948C47.7573 77.948 48.28 77.8413 48.728 77.628C49.176 77.404 49.544 77.1053 49.832 76.732C50.1307 76.3587 50.3493 75.9267 50.488 75.436C50.6373 74.9347 50.712 74.4013 50.712 73.836C50.712 73.2813 50.6373 72.7587 50.488 72.268C50.3493 71.7667 50.1307 71.3293 49.832 70.956C49.544 70.572 49.176 70.268 48.728 70.044C48.2907 69.82 47.768 69.708 47.16 69.708ZM61.0211 71.068V72.652H58.1731V79.5H56.3651V72.652H53.5171V71.068H61.0211ZM67.1993 74.524L67.8073 68.188H74.6233V69.836H69.3593L69.0393 72.78C69.3486 72.5773 69.6793 72.4227 70.0312 72.316C70.3939 72.1987 70.8259 72.14 71.3273 72.14C71.8926 72.14 72.4046 72.2253 72.8633 72.396C73.3219 72.556 73.7166 72.7907 74.0473 73.1C74.3779 73.4093 74.6286 73.788 74.7993 74.236C74.9806 74.684 75.0712 75.1907 75.0712 75.756C75.0712 76.364 74.9646 76.908 74.7513 77.388C74.5379 77.868 74.2446 78.2733 73.8713 78.604C73.4979 78.9347 73.0606 79.1907 72.5593 79.372C72.0579 79.5427 71.5139 79.628 70.9273 79.628C70.4259 79.628 69.9513 79.5693 69.5033 79.452C69.0659 79.3347 68.6659 79.1533 68.3033 78.908C67.9513 78.6627 67.6526 78.348 67.4073 77.964C67.1726 77.5693 67.0179 77.1053 66.9433 76.572H68.7833C68.8473 76.796 68.9486 76.9933 69.0873 77.164C69.2366 77.3347 69.4073 77.4787 69.5993 77.596C69.7913 77.7133 69.9993 77.804 70.2233 77.868C70.4473 77.9213 70.6713 77.948 70.8953 77.948C71.2153 77.948 71.5139 77.9107 71.7913 77.836C72.0686 77.7507 72.3086 77.6227 72.5113 77.452C72.7246 77.2813 72.8899 77.068 73.0073 76.812C73.1246 76.5453 73.1833 76.2253 73.1833 75.852C73.1833 75.1693 72.9806 74.6467 72.5753 74.284C72.1806 73.9213 71.6579 73.74 71.0073 73.74C70.6019 73.74 70.2339 73.8093 69.9033 73.948C69.5726 74.0867 69.2739 74.2787 69.0073 74.524H67.1993ZM77.0274 74.524L77.6354 68.188H84.4514V69.836H79.1874L78.8674 72.78C79.1767 72.5773 79.5074 72.4227 79.8594 72.316C80.222 72.1987 80.654 72.14 81.1554 72.14C81.7207 72.14 82.2327 72.2253 82.6914 72.396C83.15 72.556 83.5447 72.7907 83.8754 73.1C84.206 73.4093 84.4567 73.788 84.6274 74.236C84.8087 74.684 84.8994 75.1907 84.8994 75.756C84.8994 76.364 84.7927 76.908 84.5794 77.388C84.366 77.868 84.0727 78.2733 83.6994 78.604C83.326 78.9347 82.8887 79.1907 82.3874 79.372C81.886 79.5427 81.342 79.628 80.7554 79.628C80.254 79.628 79.7794 79.5693 79.3314 79.452C78.894 79.3347 78.494 79.1533 78.1314 78.908C77.7794 78.6627 77.4807 78.348 77.2354 77.964C77.0007 77.5693 76.846 77.1053 76.7714 76.572H78.6114C78.6754 76.796 78.7767 76.9933 78.9154 77.164C79.0647 77.3347 79.2354 77.4787 79.4274 77.596C79.6194 77.7133 79.8274 77.804 80.0514 77.868C80.2754 77.9213 80.4994 77.948 80.7234 77.948C81.0434 77.948 81.342 77.9107 81.6194 77.836C81.8967 77.7507 82.1367 77.6227 82.3394 77.452C82.5527 77.2813 82.718 77.068 82.8354 76.812C82.9527 76.5453 83.0114 76.2253 83.0114 75.852C83.0114 75.1693 82.8087 74.6467 82.4034 74.284C82.0087 73.9213 81.486 73.74 80.8354 73.74C80.43 73.74 80.062 73.8093 79.7314 73.948C79.4007 74.0867 79.102 74.2787 78.8354 74.524H77.0274ZM99.696 73.836C99.696 74.7 99.6053 75.4893 99.424 76.204C99.2533 76.908 98.9813 77.5107 98.608 78.012C98.2453 78.5133 97.7867 78.9027 97.232 79.18C96.6773 79.4573 96.0213 79.596 95.264 79.596C94.5067 79.596 93.8507 79.4627 93.296 79.196C92.7413 78.9187 92.2827 78.5347 91.92 78.044C91.5573 77.5533 91.2853 76.9613 91.104 76.268C90.9227 75.5747 90.832 74.8013 90.832 73.948C90.832 73.0733 90.9173 72.2733 91.088 71.548C91.2587 70.8227 91.5253 70.1987 91.888 69.676C92.2507 69.1533 92.7093 68.7533 93.264 68.476C93.8293 68.188 94.496 68.044 95.264 68.044C96.0107 68.044 96.6613 68.1827 97.216 68.46C97.7707 68.7373 98.2293 69.132 98.592 69.644C98.9653 70.156 99.2427 70.7693 99.424 71.484C99.6053 72.188 99.696 72.972 99.696 73.836ZM92.672 73.836C92.672 74.4227 92.7147 74.9667 92.8 75.468C92.8853 75.9693 93.0293 76.4067 93.232 76.78C93.4347 77.1427 93.7013 77.4307 94.032 77.644C94.3627 77.8467 94.7733 77.948 95.264 77.948C95.744 77.948 96.1493 77.8467 96.48 77.644C96.8107 77.4307 97.0773 77.1427 97.28 76.78C97.4827 76.4067 97.6267 75.9693 97.712 75.468C97.7973 74.9667 97.84 74.4227 97.84 73.836C97.84 73.26 97.7973 72.7213 97.712 72.22C97.6267 71.708 97.4827 71.2707 97.28 70.908C97.0773 70.5347 96.8107 70.2413 96.48 70.028C96.1493 69.8147 95.744 69.708 95.264 69.708C94.7733 69.708 94.3627 69.8147 94.032 70.028C93.7013 70.2413 93.4347 70.5347 93.232 70.908C93.0293 71.2707 92.8853 71.708 92.8 72.22C92.7147 72.7213 92.672 73.26 92.672 73.836ZM110.212 73.836C110.212 74.7 110.121 75.4893 109.94 76.204C109.769 76.908 109.497 77.5107 109.124 78.012C108.761 78.5133 108.302 78.9027 107.748 79.18C107.193 79.4573 106.537 79.596 105.78 79.596C105.022 79.596 104.366 79.4627 103.812 79.196C103.257 78.9187 102.798 78.5347 102.436 78.044C102.073 77.5533 101.801 76.9613 101.62 76.268C101.438 75.5747 101.348 74.8013 101.348 73.948C101.348 73.0733 101.433 72.2733 101.604 71.548C101.774 70.8227 102.041 70.1987 102.404 69.676C102.766 69.1533 103.225 68.7533 103.78 68.476C104.345 68.188 105.012 68.044 105.78 68.044C106.526 68.044 107.177 68.1827 107.732 68.46C108.286 68.7373 108.745 69.132 109.108 69.644C109.481 70.156 109.758 70.7693 109.94 71.484C110.121 72.188 110.212 72.972 110.212 73.836ZM103.188 73.836C103.188 74.4227 103.23 74.9667 103.316 75.468C103.401 75.9693 103.545 76.4067 103.748 76.78C103.95 77.1427 104.217 77.4307 104.548 77.644C104.878 77.8467 105.289 77.948 105.78 77.948C106.26 77.948 106.665 77.8467 106.996 77.644C107.326 77.4307 107.593 77.1427 107.796 76.78C107.998 76.4067 108.142 75.9693 108.228 75.468C108.313 74.9667 108.356 74.4227 108.356 73.836C108.356 73.26 108.313 72.7213 108.228 72.22C108.142 71.708 107.998 71.2707 107.796 70.908C107.593 70.5347 107.326 70.2413 106.996 70.028C106.665 69.8147 106.26 69.708 105.78 69.708C105.289 69.708 104.878 69.8147 104.548 70.028C104.217 70.2413 103.95 70.5347 103.748 70.908C103.545 71.2707 103.401 71.708 103.316 72.22C103.23 72.7213 103.188 73.26 103.188 73.836ZM120.727 73.836C120.727 74.7 120.637 75.4893 120.455 76.204C120.285 76.908 120.013 77.5107 119.639 78.012C119.277 78.5133 118.818 78.9027 118.263 79.18C117.709 79.4573 117.053 79.596 116.295 79.596C115.538 79.596 114.882 79.4627 114.327 79.196C113.773 78.9187 113.314 78.5347 112.951 78.044C112.589 77.5533 112.317 76.9613 112.135 76.268C111.954 75.5747 111.863 74.8013 111.863 73.948C111.863 73.0733 111.949 72.2733 112.119 71.548C112.29 70.8227 112.557 70.1987 112.919 69.676C113.282 69.1533 113.741 68.7533 114.295 68.476C114.861 68.188 115.527 68.044 116.295 68.044C117.042 68.044 117.693 68.1827 118.247 68.46C118.802 68.7373 119.261 69.132 119.623 69.644C119.997 70.156 120.274 70.7693 120.455 71.484C120.637 72.188 120.727 72.972 120.727 73.836ZM113.703 73.836C113.703 74.4227 113.746 74.9667 113.831 75.468C113.917 75.9693 114.061 76.4067 114.263 76.78C114.466 77.1427 114.733 77.4307 115.063 77.644C115.394 77.8467 115.805 77.948 116.295 77.948C116.775 77.948 117.181 77.8467 117.511 77.644C117.842 77.4307 118.109 77.1427 118.311 76.78C118.514 76.4067 118.658 75.9693 118.743 75.468C118.829 74.9667 118.871 74.4227 118.871 73.836C118.871 73.26 118.829 72.7213 118.743 72.22C118.658 71.708 118.514 71.2707 118.311 70.908C118.109 70.5347 117.842 70.2413 117.511 70.028C117.181 69.8147 116.775 69.708 116.295 69.708C115.805 69.708 115.394 69.8147 115.063 70.028C114.733 70.2413 114.466 70.5347 114.263 70.908C114.061 71.2707 113.917 71.708 113.831 72.22C113.746 72.7213 113.703 73.26 113.703 73.836ZM128.675 82.78H126.851V71.068H128.579L128.675 72.268C128.985 71.8307 129.385 71.5 129.875 71.276C130.377 71.0413 130.899 70.924 131.443 70.924C132.019 70.924 132.537 71.0307 132.995 71.244C133.454 71.4467 133.843 71.7347 134.163 72.108C134.494 72.4813 134.739 72.9347 134.899 73.468C135.07 73.9907 135.155 74.588 135.155 75.26C135.155 75.8893 135.075 76.4707 134.915 77.004C134.755 77.5373 134.515 78.0013 134.195 78.396C133.886 78.78 133.497 79.0787 133.027 79.292C132.569 79.5053 132.009 79.612 131.347 79.612C130.835 79.612 130.345 79.532 129.875 79.372C129.417 79.2013 129.017 78.924 128.675 78.54V82.78ZM131.059 78.028C131.454 78.028 131.795 77.9587 132.083 77.82C132.371 77.6707 132.606 77.4733 132.787 77.228C132.979 76.9827 133.118 76.6947 133.203 76.364C133.299 76.0333 133.347 75.676 133.347 75.292C133.347 74.908 133.299 74.5507 133.203 74.22C133.118 73.8787 132.979 73.5853 132.787 73.34C132.606 73.0947 132.366 72.9027 132.067 72.764C131.779 72.6253 131.433 72.556 131.027 72.556C130.665 72.556 130.329 72.6307 130.019 72.78C129.721 72.9293 129.47 73.1267 129.267 73.372C129.065 73.6173 128.91 73.9107 128.803 74.252C128.707 74.5827 128.659 74.924 128.659 75.276C128.659 75.66 128.707 76.0227 128.803 76.364C128.899 76.6947 129.043 76.9827 129.235 77.228C129.438 77.4627 129.689 77.6547 129.987 77.804C130.286 77.9533 130.643 78.028 131.059 78.028ZM142.806 71.068H144.806L142.374 78.156C142.064 79.0307 141.782 79.804 141.526 80.476C141.28 81.148 140.987 81.708 140.646 82.156C140.304 82.604 139.883 82.94 139.382 83.164C138.891 83.3987 138.246 83.516 137.446 83.516H137.174V81.884C137.216 81.884 137.259 81.884 137.302 81.884C137.622 81.884 137.904 81.8467 138.15 81.772C138.406 81.6973 138.635 81.5853 138.838 81.436C139.04 81.2867 139.216 81.0893 139.366 80.844C139.515 80.6093 139.654 80.3373 139.782 80.028L135.958 71.068H138.102L140.726 77.74L142.806 71.068ZM147.354 72.812C147.695 72.3853 148.122 72.0813 148.634 71.9C149.146 71.708 149.663 71.612 150.186 71.612C150.762 71.612 151.274 71.7027 151.722 71.884C152.181 72.0653 152.57 72.3213 152.89 72.652C153.21 72.9827 153.455 73.3827 153.626 73.852C153.797 74.3107 153.882 74.828 153.882 75.404C153.882 76.0227 153.786 76.5933 153.594 77.116C153.413 77.6387 153.141 78.0867 152.778 78.46C152.426 78.8227 151.994 79.1053 151.482 79.308C150.981 79.5107 150.41 79.612 149.77 79.612C148.927 79.6013 148.234 79.4307 147.69 79.1C147.157 78.7693 146.735 78.3427 146.426 77.82C146.117 77.2973 145.903 76.7107 145.786 76.06C145.669 75.3987 145.61 74.732 145.61 74.06C145.61 73.388 145.658 72.7 145.754 71.996C145.861 71.292 146.069 70.668 146.378 70.124C146.634 69.6973 146.927 69.3613 147.258 69.116C147.599 68.86 147.973 68.668 148.378 68.54C148.783 68.4013 149.215 68.3 149.674 68.236C150.133 68.172 150.607 68.108 151.098 68.044C151.471 68.0013 151.85 67.9587 152.234 67.916C152.629 67.8733 153.013 67.788 153.386 67.66V69.404C153.194 69.4893 152.927 69.5587 152.586 69.612C152.245 69.6547 151.882 69.6973 151.498 69.74C151.114 69.772 150.735 69.8093 150.362 69.852C149.989 69.884 149.658 69.9213 149.37 69.964C149.029 70.0173 148.725 70.1347 148.458 70.316C148.202 70.4867 147.994 70.7 147.834 70.956C147.674 71.2013 147.557 71.4893 147.482 71.82C147.407 72.14 147.365 72.4707 147.354 72.812ZM149.818 78.028C150.181 78.028 150.501 77.9587 150.778 77.82C151.066 77.6813 151.306 77.5053 151.498 77.292C151.69 77.068 151.834 76.812 151.93 76.524C152.026 76.2253 152.074 75.916 152.074 75.596C152.074 75.2653 152.021 74.956 151.914 74.668C151.818 74.3693 151.674 74.1187 151.482 73.916C151.301 73.7027 151.077 73.5373 150.81 73.42C150.543 73.3027 150.239 73.244 149.898 73.244C149.546 73.244 149.226 73.3027 148.938 73.42C148.661 73.5267 148.421 73.6867 148.218 73.9C148.026 74.1027 147.871 74.348 147.754 74.636C147.637 74.924 147.573 75.2333 147.562 75.564C147.562 75.884 147.605 76.1933 147.69 76.492C147.775 76.78 147.909 77.036 148.09 77.26C148.282 77.484 148.517 77.6707 148.794 77.82C149.082 77.9587 149.423 78.028 149.818 78.028ZM156.644 77.276C156.986 77.276 157.263 77.3827 157.476 77.596C157.7 77.8093 157.812 78.0973 157.812 78.46C157.812 78.8333 157.7 79.1213 157.476 79.324C157.263 79.5267 156.986 79.628 156.644 79.628C156.303 79.628 156.02 79.5267 155.796 79.324C155.583 79.1213 155.476 78.8333 155.476 78.46C155.476 78.0973 155.583 77.8093 155.796 77.596C156.02 77.3827 156.303 77.276 156.644 77.276Z" fill="white"/>
<path d="M8.51513 168V156.688H12.6591C13.3098 156.688 13.8911 156.763 14.4031 156.912C14.9258 157.051 15.3685 157.275 15.7311 157.584C16.0938 157.893 16.3711 158.293 16.5631 158.784C16.7658 159.264 16.8671 159.84 16.8671 160.512C16.8671 161.131 16.7658 161.685 16.5631 162.176C16.3605 162.667 16.0725 163.083 15.6991 163.424C15.3258 163.755 14.8725 164.011 14.3391 164.192C13.8165 164.373 13.2298 164.464 12.5791 164.464H10.3551V168H8.51513ZM10.3551 162.816H12.4831C12.8351 162.816 13.1605 162.773 13.4591 162.688C13.7685 162.603 14.0351 162.469 14.2591 162.288C14.4831 162.107 14.6591 161.877 14.7871 161.6C14.9258 161.323 15.0005 160.992 15.0111 160.608C15.0111 159.808 14.8031 159.232 14.3871 158.88C13.9818 158.528 13.3845 158.352 12.5951 158.352H10.3551V162.816ZM24.5244 159.568H26.5244L24.0924 166.656C23.783 167.531 23.5004 168.304 23.2444 168.976C22.999 169.648 22.7057 170.208 22.3644 170.656C22.023 171.104 21.6017 171.44 21.1004 171.664C20.6097 171.899 19.9644 172.016 19.1644 172.016H18.8924V170.384C18.935 170.384 18.9777 170.384 19.0204 170.384C19.3404 170.384 19.623 170.347 19.8684 170.272C20.1244 170.197 20.3537 170.085 20.5564 169.936C20.759 169.787 20.935 169.589 21.0844 169.344C21.2337 169.109 21.3724 168.837 21.5004 168.528L17.6764 159.568H19.8204L22.4444 166.24L24.5244 159.568ZM27.6326 168V159.568H29.4406V163.008H30.7366L32.8966 159.568H34.9766L32.3046 163.584L35.1846 168H33.0726L30.8486 164.592H29.4406V168H27.6326ZM39.8465 159.424C40.5185 159.424 41.1105 159.531 41.6225 159.744C42.1345 159.957 42.5665 160.256 42.9185 160.64C43.2812 161.013 43.5532 161.467 43.7345 162C43.9158 162.533 44.0065 163.125 44.0065 163.776C44.0065 164.437 43.9158 165.035 43.7345 165.568C43.5638 166.091 43.3025 166.544 42.9505 166.928C42.5985 167.312 42.1612 167.605 41.6385 167.808C41.1265 168.011 40.5292 168.112 39.8465 168.112C39.1745 168.112 38.5825 168.011 38.0705 167.808C37.5585 167.595 37.1265 167.301 36.7745 166.928C36.4332 166.544 36.1718 166.085 35.9905 165.552C35.8198 165.019 35.7345 164.427 35.7345 163.776C35.7345 163.125 35.8198 162.533 35.9905 162C36.1718 161.467 36.4385 161.013 36.7905 160.64C37.1425 160.256 37.5745 159.957 38.0865 159.744C38.5985 159.531 39.1852 159.424 39.8465 159.424ZM39.8465 166.528C40.2625 166.528 40.6145 166.459 40.9025 166.32C41.2012 166.171 41.4412 165.973 41.6225 165.728C41.8145 165.483 41.9532 165.195 42.0385 164.864C42.1345 164.533 42.1825 164.176 42.1825 163.792C42.1825 163.408 42.1345 163.051 42.0385 162.72C41.9532 162.379 41.8145 162.085 41.6225 161.84C41.4412 161.595 41.2012 161.403 40.9025 161.264C40.6145 161.125 40.2625 161.056 39.8465 161.056C39.4412 161.056 39.0892 161.125 38.7905 161.264C38.5025 161.403 38.2625 161.595 38.0705 161.84C37.8892 162.085 37.7505 162.379 37.6545 162.72C37.5692 163.051 37.5265 163.408 37.5265 163.792C37.5265 164.176 37.5692 164.533 37.6545 164.864C37.7505 165.195 37.8892 165.483 38.0705 165.728C38.2625 165.973 38.5025 166.171 38.7905 166.32C39.0892 166.459 39.4412 166.528 39.8465 166.528ZM45.6639 159.568H49.2639C49.6372 159.568 50.0159 159.589 50.3999 159.632C50.7839 159.664 51.1305 159.755 51.4399 159.904C51.7599 160.053 52.0159 160.272 52.2079 160.56C52.4105 160.837 52.5172 161.216 52.5279 161.696C52.5279 162.069 52.4425 162.416 52.2719 162.736C52.1012 163.056 51.8292 163.317 51.4559 163.52C51.9679 163.659 52.3412 163.904 52.5759 164.256C52.8212 164.597 52.9439 165.008 52.9439 165.488C52.9439 165.936 52.8532 166.325 52.6719 166.656C52.4905 166.976 52.2505 167.237 51.9519 167.44C51.6532 167.632 51.3065 167.776 50.9119 167.872C50.5172 167.957 50.1012 168 49.6639 168H45.6639V159.568ZM47.5039 161.088V163.024H48.6079C48.8532 163.024 49.1039 163.024 49.3599 163.024C49.6265 163.013 49.8612 162.976 50.0639 162.912C50.2772 162.848 50.4479 162.747 50.5759 162.608C50.7145 162.469 50.7839 162.272 50.7839 162.016C50.7839 161.792 50.7305 161.621 50.6239 161.504C50.5279 161.376 50.4052 161.28 50.2559 161.216C50.1065 161.152 49.9359 161.115 49.7439 161.104C49.5625 161.093 49.3919 161.088 49.2319 161.088H47.5039ZM49.3599 166.464C49.5732 166.464 49.7812 166.453 49.9839 166.432C50.1972 166.411 50.3839 166.363 50.5439 166.288C50.7145 166.203 50.8532 166.096 50.9599 165.968C51.0665 165.829 51.1199 165.648 51.1199 165.424C51.1199 165.019 50.9919 164.747 50.7359 164.608C50.4905 164.469 50.1865 164.4 49.8239 164.4H47.5039V166.464H49.3599ZM58.4246 159.424C59.0966 159.424 59.6886 159.531 60.2006 159.744C60.7126 159.957 61.1446 160.256 61.4966 160.64C61.8593 161.013 62.1313 161.467 62.3126 162C62.494 162.533 62.5846 163.125 62.5846 163.776C62.5846 164.437 62.494 165.035 62.3126 165.568C62.142 166.091 61.8806 166.544 61.5286 166.928C61.1766 167.312 60.7393 167.605 60.2166 167.808C59.7046 168.011 59.1073 168.112 58.4246 168.112C57.7526 168.112 57.1606 168.011 56.6486 167.808C56.1366 167.595 55.7046 167.301 55.3526 166.928C55.0113 166.544 54.75 166.085 54.5686 165.552C54.398 165.019 54.3126 164.427 54.3126 163.776C54.3126 163.125 54.398 162.533 54.5686 162C54.75 161.467 55.0166 161.013 55.3686 160.64C55.7206 160.256 56.1526 159.957 56.6646 159.744C57.1766 159.531 57.7633 159.424 58.4246 159.424ZM58.4246 166.528C58.8406 166.528 59.1926 166.459 59.4806 166.32C59.7793 166.171 60.0193 165.973 60.2006 165.728C60.3926 165.483 60.5313 165.195 60.6166 164.864C60.7126 164.533 60.7606 164.176 60.7606 163.792C60.7606 163.408 60.7126 163.051 60.6166 162.72C60.5313 162.379 60.3926 162.085 60.2006 161.84C60.0193 161.595 59.7793 161.403 59.4806 161.264C59.1926 161.125 58.8406 161.056 58.4246 161.056C58.0193 161.056 57.6673 161.125 57.3686 161.264C57.0806 161.403 56.8406 161.595 56.6486 161.84C56.4673 162.085 56.3286 162.379 56.2326 162.72C56.1473 163.051 56.1046 163.408 56.1046 163.792C56.1046 164.176 56.1473 164.533 56.2326 164.864C56.3286 165.195 56.4673 165.483 56.6486 165.728C56.8406 165.973 57.0806 166.171 57.3686 166.32C57.6673 166.459 58.0193 166.528 58.4246 166.528ZM64.9665 162.576C64.9985 162.064 65.0198 161.568 65.0305 161.088C65.0412 160.597 65.0465 160.091 65.0465 159.568H71.5425V166.448H72.6465V170.464H70.8705V168H65.1105V170.464H63.3345V166.448C63.6438 166.448 63.8998 166.352 64.1025 166.16C64.3158 165.957 64.4598 165.733 64.5345 165.488C64.6092 165.317 64.6732 165.088 64.7265 164.8C64.7798 164.501 64.8225 164.208 64.8545 163.92C64.8865 163.632 64.9132 163.365 64.9345 163.12C64.9558 162.875 64.9665 162.693 64.9665 162.576ZM69.7185 161.152H66.7105C66.6892 161.536 66.6732 161.952 66.6625 162.4C66.6518 162.848 66.6358 163.28 66.6145 163.696C66.5932 163.899 66.5718 164.117 66.5505 164.352C66.5398 164.587 66.5132 164.827 66.4705 165.072C66.4278 165.307 66.3692 165.541 66.2945 165.776C66.2198 166.011 66.1185 166.235 65.9905 166.448H69.7185V161.152ZM75.6099 168H73.9139V159.568H75.7379V165.36L80.0259 159.568H81.6739V168H79.8499V162.32C79.8392 162.341 78.4259 164.235 75.6099 168ZM90.2399 159.568V161.152H87.3919V168H85.5839V161.152H82.7359V159.568H90.2399ZM92.7929 164.4C92.8142 164.709 92.8782 164.997 92.9849 165.264C93.0915 165.531 93.2355 165.765 93.4169 165.968C93.5982 166.16 93.8222 166.315 94.0889 166.432C94.3662 166.549 94.6862 166.608 95.0489 166.608C95.4329 166.608 95.7849 166.539 96.1049 166.4C96.4355 166.261 96.6755 166.021 96.8249 165.68H98.6969C98.5902 166.107 98.4142 166.475 98.1689 166.784C97.9342 167.093 97.6515 167.349 97.3209 167.552C97.0009 167.744 96.6435 167.888 96.2489 167.984C95.8649 168.069 95.4542 168.112 95.0169 168.112C94.3449 168.112 93.7529 168.011 93.2409 167.808C92.7395 167.605 92.3182 167.312 91.9769 166.928C91.6355 166.544 91.3795 166.091 91.2089 165.568C91.0489 165.035 90.9689 164.437 90.9689 163.776C90.9689 163.136 91.0595 162.555 91.2409 162.032C91.4222 161.499 91.6835 161.04 92.0249 160.656C92.3769 160.272 92.7982 159.973 93.2889 159.76C93.7795 159.536 94.3395 159.424 94.9689 159.424C95.6302 159.424 96.2009 159.536 96.6809 159.76C97.1609 159.973 97.5609 160.267 97.8809 160.64C98.2115 161.013 98.4569 161.451 98.6169 161.952C98.7769 162.453 98.8569 162.997 98.8569 163.584C98.8569 163.861 98.8409 164.133 98.8089 164.4H92.7929ZM97.0809 163.024C97.0489 162.363 96.8409 161.861 96.4569 161.52C96.0835 161.179 95.5929 161.008 94.9849 161.008C94.6435 161.008 94.3449 161.061 94.0889 161.168C93.8329 161.275 93.6142 161.419 93.4329 161.6C93.2622 161.781 93.1235 161.995 93.0169 162.24C92.9102 162.485 92.8409 162.747 92.8089 163.024H97.0809ZM101.214 163.984C101.267 163.259 101.299 162.539 101.31 161.824C101.331 161.099 101.352 160.347 101.374 159.568H107.678V168H105.838V161.152H103.07C103.048 161.675 103.027 162.197 103.006 162.72C102.995 163.232 102.974 163.744 102.942 164.256C102.931 164.448 102.91 164.677 102.878 164.944C102.856 165.2 102.824 165.461 102.782 165.728C102.739 165.984 102.675 166.229 102.59 166.464C102.504 166.688 102.398 166.896 102.27 167.088C102.046 167.408 101.747 167.643 101.374 167.792C101.011 167.931 100.59 168 100.11 168H99.6615V166.432C99.9815 166.432 100.238 166.357 100.43 166.208C100.632 166.048 100.782 165.851 100.878 165.616C100.984 165.371 101.059 165.109 101.102 164.832C101.155 164.544 101.192 164.261 101.214 163.984ZM109.664 159.568H111.488V162.416H113.376C113.867 162.416 114.309 162.459 114.704 162.544C115.109 162.619 115.456 162.763 115.744 162.976C116.043 163.189 116.272 163.467 116.432 163.808C116.603 164.149 116.688 164.571 116.688 165.072C116.688 165.637 116.581 166.112 116.368 166.496C116.165 166.869 115.893 167.168 115.552 167.392C115.221 167.616 114.843 167.776 114.416 167.872C113.989 167.957 113.557 168 113.12 168H109.664V159.568ZM112.912 166.48C113.157 166.48 113.397 166.464 113.632 166.432C113.877 166.389 114.085 166.325 114.256 166.24C114.437 166.144 114.581 166.011 114.688 165.84C114.805 165.669 114.869 165.445 114.88 165.168C114.88 164.869 114.816 164.64 114.688 164.48C114.56 164.32 114.4 164.203 114.208 164.128C114.016 164.053 113.803 164.011 113.568 164C113.344 163.989 113.136 163.984 112.944 163.984H111.488V166.464L112.912 166.48ZM122.633 168V159.568H130.025V168H128.201V161.152H124.457V168H122.633ZM133.832 171.28H132.008V159.568H133.736L133.832 160.768C134.141 160.331 134.541 160 135.032 159.776C135.533 159.541 136.056 159.424 136.6 159.424C137.176 159.424 137.693 159.531 138.152 159.744C138.61 159.947 139 160.235 139.32 160.608C139.65 160.981 139.896 161.435 140.056 161.968C140.226 162.491 140.312 163.088 140.312 163.76C140.312 164.389 140.232 164.971 140.072 165.504C139.912 166.037 139.672 166.501 139.352 166.896C139.042 167.28 138.653 167.579 138.184 167.792C137.725 168.005 137.165 168.112 136.504 168.112C135.992 168.112 135.501 168.032 135.032 167.872C134.573 167.701 134.173 167.424 133.832 167.04V171.28ZM136.216 166.528C136.61 166.528 136.952 166.459 137.24 166.32C137.528 166.171 137.762 165.973 137.944 165.728C138.136 165.483 138.274 165.195 138.36 164.864C138.456 164.533 138.504 164.176 138.504 163.792C138.504 163.408 138.456 163.051 138.36 162.72C138.274 162.379 138.136 162.085 137.944 161.84C137.762 161.595 137.522 161.403 137.224 161.264C136.936 161.125 136.589 161.056 136.184 161.056C135.821 161.056 135.485 161.131 135.176 161.28C134.877 161.429 134.626 161.627 134.424 161.872C134.221 162.117 134.066 162.411 133.96 162.752C133.864 163.083 133.816 163.424 133.816 163.776C133.816 164.16 133.864 164.523 133.96 164.864C134.056 165.195 134.2 165.483 134.392 165.728C134.594 165.963 134.845 166.155 135.144 166.304C135.442 166.453 135.8 166.528 136.216 166.528ZM145.706 159.424C146.378 159.424 146.97 159.531 147.482 159.744C147.994 159.957 148.426 160.256 148.778 160.64C149.141 161.013 149.413 161.467 149.594 162C149.775 162.533 149.866 163.125 149.866 163.776C149.866 164.437 149.775 165.035 149.594 165.568C149.423 166.091 149.162 166.544 148.81 166.928C148.458 167.312 148.021 167.605 147.498 167.808C146.986 168.011 146.389 168.112 145.706 168.112C145.034 168.112 144.442 168.011 143.93 167.808C143.418 167.595 142.986 167.301 142.634 166.928C142.293 166.544 142.031 166.085 141.85 165.552C141.679 165.019 141.594 164.427 141.594 163.776C141.594 163.125 141.679 162.533 141.85 162C142.031 161.467 142.298 161.013 142.65 160.64C143.002 160.256 143.434 159.957 143.946 159.744C144.458 159.531 145.045 159.424 145.706 159.424ZM145.706 166.528C146.122 166.528 146.474 166.459 146.762 166.32C147.061 166.171 147.301 165.973 147.482 165.728C147.674 165.483 147.813 165.195 147.898 164.864C147.994 164.533 148.042 164.176 148.042 163.792C148.042 163.408 147.994 163.051 147.898 162.72C147.813 162.379 147.674 162.085 147.482 161.84C147.301 161.595 147.061 161.403 146.762 161.264C146.474 161.125 146.122 161.056 145.706 161.056C145.301 161.056 144.949 161.125 144.65 161.264C144.362 161.403 144.122 161.595 143.93 161.84C143.749 162.085 143.61 162.379 143.514 162.72C143.429 163.051 143.386 163.408 143.386 163.792C143.386 164.176 143.429 164.533 143.514 164.864C143.61 165.195 143.749 165.483 143.93 165.728C144.122 165.973 144.362 166.171 144.65 166.32C144.949 166.459 145.301 166.528 145.706 166.528ZM153.027 164.4C153.049 164.709 153.113 164.997 153.219 165.264C153.326 165.531 153.47 165.765 153.651 165.968C153.833 166.16 154.057 166.315 154.323 166.432C154.601 166.549 154.921 166.608 155.283 166.608C155.667 166.608 156.019 166.539 156.339 166.4C156.67 166.261 156.91 166.021 157.059 165.68H158.931C158.825 166.107 158.649 166.475 158.403 166.784C158.169 167.093 157.886 167.349 157.555 167.552C157.235 167.744 156.878 167.888 156.483 167.984C156.099 168.069 155.689 168.112 155.251 168.112C154.579 168.112 153.987 168.011 153.475 167.808C152.974 167.605 152.553 167.312 152.211 166.928C151.87 166.544 151.614 166.091 151.443 165.568C151.283 165.035 151.203 164.437 151.203 163.776C151.203 163.136 151.294 162.555 151.475 162.032C151.657 161.499 151.918 161.04 152.259 160.656C152.611 160.272 153.033 159.973 153.523 159.76C154.014 159.536 154.574 159.424 155.203 159.424C155.865 159.424 156.435 159.536 156.915 159.76C157.395 159.973 157.795 160.267 158.115 160.64C158.446 161.013 158.691 161.451 158.851 161.952C159.011 162.453 159.091 162.997 159.091 163.584C159.091 163.861 159.075 164.133 159.043 164.4H153.027ZM157.315 163.024C157.283 162.363 157.075 161.861 156.691 161.52C156.318 161.179 155.827 161.008 155.219 161.008C154.878 161.008 154.579 161.061 154.323 161.168C154.067 161.275 153.849 161.419 153.667 161.6C153.497 161.781 153.358 161.995 153.251 162.24C153.145 162.485 153.075 162.747 153.043 163.024H157.315ZM160.742 168V159.568H162.55V163.008H163.846L166.006 159.568H168.086L165.414 163.584L168.294 168H166.182L163.958 164.592H162.55V168H160.742ZM175.896 159.568V161.152H173.048V168H171.24V161.152H168.392V159.568H175.896ZM182.385 166.96C182.108 167.355 181.74 167.648 181.281 167.84C180.822 168.021 180.31 168.112 179.745 168.112C179.297 168.112 178.886 168.059 178.513 167.952C178.15 167.845 177.83 167.685 177.553 167.472C177.276 167.248 177.057 166.976 176.897 166.656C176.737 166.325 176.657 165.952 176.657 165.536C176.657 165.077 176.748 164.688 176.929 164.368C177.11 164.037 177.356 163.771 177.665 163.568C177.985 163.365 178.358 163.216 178.785 163.12C179.212 163.013 179.66 162.96 180.129 162.96H182.289C182.289 162.341 182.15 161.861 181.873 161.52C181.596 161.179 181.11 161.003 180.417 160.992C180.012 160.992 179.66 161.061 179.361 161.2C179.073 161.339 178.881 161.568 178.785 161.888H176.913C176.977 161.44 177.121 161.061 177.345 160.752C177.58 160.443 177.857 160.187 178.177 159.984C178.508 159.781 178.87 159.637 179.265 159.552C179.67 159.467 180.076 159.424 180.481 159.424C181.004 159.424 181.489 159.493 181.937 159.632C182.385 159.771 182.774 160.005 183.105 160.336C183.478 160.72 183.729 161.179 183.857 161.712C183.985 162.245 184.049 162.827 184.049 163.456V168H182.465L182.385 166.96ZM182.289 164.256H180.529C180.22 164.256 179.91 164.283 179.601 164.336C179.292 164.379 179.025 164.491 178.801 164.672C178.588 164.843 178.481 165.093 178.481 165.424C178.481 165.829 178.625 166.139 178.913 166.352C179.212 166.555 179.574 166.656 180.001 166.656C180.332 166.656 180.636 166.613 180.913 166.528C181.201 166.443 181.446 166.304 181.649 166.112C181.852 165.909 182.006 165.659 182.113 165.36C182.23 165.051 182.289 164.683 182.289 164.256ZM190.44 155.328H192.248L187.352 170.704H185.56L190.44 155.328ZM7.29669 189V180.568H14.6887V189H12.8647V182.152H9.12069V189H7.29669ZM18.1757 185.4C18.197 185.709 18.261 185.997 18.3677 186.264C18.4744 186.531 18.6184 186.765 18.7997 186.968C18.981 187.16 19.205 187.315 19.4717 187.432C19.749 187.549 20.069 187.608 20.4317 187.608C20.8157 187.608 21.1677 187.539 21.4877 187.4C21.8184 187.261 22.0584 187.021 22.2077 186.68H24.0797C23.973 187.107 23.797 187.475 23.5517 187.784C23.317 188.093 23.0344 188.349 22.7037 188.552C22.3837 188.744 22.0264 188.888 21.6317 188.984C21.2477 189.069 20.837 189.112 20.3997 189.112C19.7277 189.112 19.1357 189.011 18.6237 188.808C18.1224 188.605 17.701 188.312 17.3597 187.928C17.0184 187.544 16.7624 187.091 16.5917 186.568C16.4317 186.035 16.3517 185.437 16.3517 184.776C16.3517 184.136 16.4424 183.555 16.6237 183.032C16.805 182.499 17.0664 182.04 17.4077 181.656C17.7597 181.272 18.181 180.973 18.6717 180.76C19.1624 180.536 19.7224 180.424 20.3517 180.424C21.013 180.424 21.5837 180.536 22.0637 180.76C22.5437 180.973 22.9437 181.267 23.2637 181.64C23.5944 182.013 23.8397 182.451 23.9997 182.952C24.1597 183.453 24.2397 183.997 24.2397 184.584C24.2397 184.861 24.2237 185.133 24.1917 185.4H18.1757ZM22.4637 184.024C22.4317 183.363 22.2237 182.861 21.8397 182.52C21.4664 182.179 20.9757 182.008 20.3677 182.008C20.0264 182.008 19.7277 182.061 19.4717 182.168C19.2157 182.275 18.997 182.419 18.8157 182.6C18.645 182.781 18.5064 182.995 18.3997 183.24C18.293 183.485 18.2237 183.747 18.1917 184.024H22.4637ZM27.7144 192.28H25.8904V180.568H27.6184L27.7144 181.768C28.0238 181.331 28.4238 181 28.9144 180.776C29.4158 180.541 29.9384 180.424 30.4824 180.424C31.0584 180.424 31.5758 180.531 32.0344 180.744C32.4931 180.947 32.8824 181.235 33.2024 181.608C33.5331 181.981 33.7784 182.435 33.9384 182.968C34.1091 183.491 34.1944 184.088 34.1944 184.76C34.1944 185.389 34.1144 185.971 33.9544 186.504C33.7944 187.037 33.5544 187.501 33.2344 187.896C32.9251 188.28 32.5358 188.579 32.0664 188.792C31.6078 189.005 31.0478 189.112 30.3864 189.112C29.8744 189.112 29.3838 189.032 28.9144 188.872C28.4558 188.701 28.0558 188.424 27.7144 188.04V192.28ZM30.0984 187.528C30.4931 187.528 30.8344 187.459 31.1224 187.32C31.4104 187.171 31.6451 186.973 31.8264 186.728C32.0184 186.483 32.1571 186.195 32.2424 185.864C32.3384 185.533 32.3864 185.176 32.3864 184.792C32.3864 184.408 32.3384 184.051 32.2424 183.72C32.1571 183.379 32.0184 183.085 31.8264 182.84C31.6451 182.595 31.4051 182.403 31.1064 182.264C30.8184 182.125 30.4718 182.056 30.0664 182.056C29.7038 182.056 29.3678 182.131 29.0584 182.28C28.7598 182.429 28.5091 182.627 28.3064 182.872C28.1038 183.117 27.9491 183.411 27.8424 183.752C27.7464 184.083 27.6984 184.424 27.6984 184.776C27.6984 185.16 27.7464 185.523 27.8424 185.864C27.9384 186.195 28.0824 186.483 28.2744 186.728C28.4771 186.963 28.7278 187.155 29.0264 187.304C29.3251 187.453 29.6824 187.528 30.0984 187.528ZM35.7967 180.568H39.3967C39.77 180.568 40.1487 180.589 40.5327 180.632C40.9167 180.664 41.2634 180.755 41.5727 180.904C41.8927 181.053 42.1487 181.272 42.3407 181.56C42.5434 181.837 42.65 182.216 42.6607 182.696C42.6607 183.069 42.5754 183.416 42.4047 183.736C42.234 184.056 41.962 184.317 41.5887 184.52C42.1007 184.659 42.474 184.904 42.7087 185.256C42.954 185.597 43.0767 186.008 43.0767 186.488C43.0767 186.936 42.986 187.325 42.8047 187.656C42.6234 187.976 42.3834 188.237 42.0847 188.44C41.786 188.632 41.4394 188.776 41.0447 188.872C40.65 188.957 40.234 189 39.7967 189H35.7967V180.568ZM37.6367 182.088V184.024H38.7407C38.986 184.024 39.2367 184.024 39.4927 184.024C39.7594 184.013 39.994 183.976 40.1967 183.912C40.41 183.848 40.5807 183.747 40.7087 183.608C40.8474 183.469 40.9167 183.272 40.9167 183.016C40.9167 182.792 40.8634 182.621 40.7567 182.504C40.6607 182.376 40.538 182.28 40.3887 182.216C40.2394 182.152 40.0687 182.115 39.8767 182.104C39.6954 182.093 39.5247 182.088 39.3647 182.088H37.6367ZM39.4927 187.464C39.706 187.464 39.914 187.453 40.1167 187.432C40.33 187.411 40.5167 187.363 40.6767 187.288C40.8474 187.203 40.986 187.096 41.0927 186.968C41.1994 186.829 41.2527 186.648 41.2527 186.424C41.2527 186.019 41.1247 185.747 40.8687 185.608C40.6234 185.469 40.3194 185.4 39.9567 185.4H37.6367V187.464H39.4927ZM50.2054 187.96C49.9281 188.355 49.5601 188.648 49.1014 188.84C48.6428 189.021 48.1308 189.112 47.5654 189.112C47.1174 189.112 46.7068 189.059 46.3334 188.952C45.9708 188.845 45.6508 188.685 45.3734 188.472C45.0961 188.248 44.8774 187.976 44.7174 187.656C44.5574 187.325 44.4774 186.952 44.4774 186.536C44.4774 186.077 44.5681 185.688 44.7494 185.368C44.9308 185.037 45.1761 184.771 45.4854 184.568C45.8054 184.365 46.1788 184.216 46.6054 184.12C47.0321 184.013 47.4801 183.96 47.9494 183.96H50.1094C50.1094 183.341 49.9708 182.861 49.6934 182.52C49.4161 182.179 48.9308 182.003 48.2374 181.992C47.8321 181.992 47.4801 182.061 47.1814 182.2C46.8934 182.339 46.7014 182.568 46.6054 182.888H44.7334C44.7974 182.44 44.9414 182.061 45.1654 181.752C45.4001 181.443 45.6774 181.187 45.9974 180.984C46.3281 180.781 46.6908 180.637 47.0854 180.552C47.4908 180.467 47.8961 180.424 48.3014 180.424C48.8241 180.424 49.3094 180.493 49.7574 180.632C50.2054 180.771 50.5948 181.005 50.9254 181.336C51.2988 181.72 51.5494 182.179 51.6774 182.712C51.8054 183.245 51.8694 183.827 51.8694 184.456V189H50.2854L50.2054 187.96ZM50.1094 185.256H48.3494C48.0401 185.256 47.7308 185.283 47.4214 185.336C47.1121 185.379 46.8454 185.491 46.6214 185.672C46.4081 185.843 46.3014 186.093 46.3014 186.424C46.3014 186.829 46.4454 187.139 46.7334 187.352C47.0321 187.555 47.3948 187.656 47.8214 187.656C48.1521 187.656 48.4561 187.613 48.7334 187.528C49.0214 187.443 49.2668 187.304 49.4694 187.112C49.6721 186.909 49.8268 186.659 49.9334 186.36C50.0508 186.051 50.1094 185.683 50.1094 185.256ZM60.7399 189H58.9319V186.12H57.4119L55.4439 189H53.2999L55.5879 185.832C54.9373 185.672 54.4413 185.379 54.0999 184.952C53.7693 184.525 53.6039 183.981 53.6039 183.32C53.6039 182.797 53.6893 182.36 53.8599 182.008C54.0413 181.656 54.2866 181.373 54.5959 181.16C54.9159 180.936 55.2786 180.781 55.6839 180.696C56.0893 180.611 56.5266 180.568 56.9959 180.568H60.7399V189ZM58.9319 182.088H57.1239C56.9213 182.088 56.7186 182.104 56.5159 182.136C56.3133 182.157 56.1266 182.216 55.9559 182.312C55.7959 182.397 55.6679 182.52 55.5719 182.68C55.4759 182.84 55.4279 183.032 55.4279 183.256C55.4279 183.288 55.4279 183.315 55.4279 183.336C55.4279 183.613 55.5079 183.848 55.6679 184.04C55.8279 184.232 56.0359 184.371 56.2919 184.456C56.5479 184.531 56.7826 184.579 56.9959 184.6C57.2093 184.611 57.4226 184.616 57.6359 184.616H58.9319V182.088ZM73.0947 180.568H75.0947L72.6627 187.656C72.3534 188.531 72.0707 189.304 71.8147 189.976C71.5694 190.648 71.276 191.208 70.9347 191.656C70.5934 192.104 70.172 192.44 69.6707 192.664C69.18 192.899 68.5347 193.016 67.7347 193.016H67.4627V191.384C67.5054 191.384 67.548 191.384 67.5907 191.384C67.9107 191.384 68.1934 191.347 68.4387 191.272C68.6947 191.197 68.924 191.085 69.1267 190.936C69.3294 190.787 69.5054 190.589 69.6547 190.344C69.804 190.109 69.9427 189.837 70.0707 189.528L66.2467 180.568H68.3907L71.0147 187.24L73.0947 180.568ZM76.2029 189V180.568H83.5949V189H81.7709V182.152H78.0269V189H76.2029ZM87.4019 192.28H85.5779V180.568H87.3059L87.4019 181.768C87.7113 181.331 88.1113 181 88.6019 180.776C89.1033 180.541 89.6259 180.424 90.1699 180.424C90.7459 180.424 91.2633 180.531 91.7219 180.744C92.1806 180.947 92.5699 181.235 92.8899 181.608C93.2206 181.981 93.4659 182.435 93.6259 182.968C93.7966 183.491 93.8819 184.088 93.8819 184.76C93.8819 185.389 93.8019 185.971 93.6419 186.504C93.4819 187.037 93.2419 187.501 92.9219 187.896C92.6126 188.28 92.2233 188.579 91.7539 188.792C91.2953 189.005 90.7353 189.112 90.0739 189.112C89.5619 189.112 89.0713 189.032 88.6019 188.872C88.1433 188.701 87.7433 188.424 87.4019 188.04V192.28ZM89.7859 187.528C90.1806 187.528 90.5219 187.459 90.8099 187.32C91.0979 187.171 91.3326 186.973 91.5139 186.728C91.7059 186.483 91.8446 186.195 91.9299 185.864C92.0259 185.533 92.0739 185.176 92.0739 184.792C92.0739 184.408 92.0259 184.051 91.9299 183.72C91.8446 183.379 91.7059 183.085 91.5139 182.84C91.3326 182.595 91.0926 182.403 90.7939 182.264C90.5059 182.125 90.1593 182.056 89.7539 182.056C89.3913 182.056 89.0553 182.131 88.7459 182.28C88.4473 182.429 88.1966 182.627 87.9939 182.872C87.7913 183.117 87.6366 183.411 87.5299 183.752C87.4339 184.083 87.3859 184.424 87.3859 184.776C87.3859 185.16 87.4339 185.523 87.5299 185.864C87.6259 186.195 87.7699 186.483 87.9619 186.728C88.1646 186.963 88.4153 187.155 88.7139 187.304C89.0126 187.453 89.3699 187.528 89.7859 187.528ZM100.924 187.96C100.647 188.355 100.279 188.648 99.8202 188.84C99.3615 189.021 98.8495 189.112 98.2842 189.112C97.8362 189.112 97.4255 189.059 97.0522 188.952C96.6895 188.845 96.3695 188.685 96.0922 188.472C95.8149 188.248 95.5962 187.976 95.4362 187.656C95.2762 187.325 95.1962 186.952 95.1962 186.536C95.1962 186.077 95.2869 185.688 95.4682 185.368C95.6495 185.037 95.8949 184.771 96.2042 184.568C96.5242 184.365 96.8975 184.216 97.3242 184.12C97.7509 184.013 98.1989 183.96 98.6682 183.96H100.828C100.828 183.341 100.69 182.861 100.412 182.52C100.135 182.179 99.6495 182.003 98.9562 181.992C98.5509 181.992 98.1989 182.061 97.9002 182.2C97.6122 182.339 97.4202 182.568 97.3242 182.888H95.4522C95.5162 182.44 95.6602 182.061 95.8842 181.752C96.1189 181.443 96.3962 181.187 96.7162 180.984C97.0469 180.781 97.4095 180.637 97.8042 180.552C98.2095 180.467 98.6149 180.424 99.0202 180.424C99.5429 180.424 100.028 180.493 100.476 180.632C100.924 180.771 101.314 181.005 101.644 181.336C102.018 181.72 102.268 182.179 102.396 182.712C102.524 183.245 102.588 183.827 102.588 184.456V189H101.004L100.924 187.96ZM100.828 185.256H99.0682C98.7589 185.256 98.4495 185.283 98.1402 185.336C97.8309 185.379 97.5642 185.491 97.3402 185.672C97.1269 185.843 97.0202 186.093 97.0202 186.424C97.0202 186.829 97.1642 187.139 97.4522 187.352C97.7509 187.555 98.1135 187.656 98.5402 187.656C98.8709 187.656 99.1749 187.613 99.4522 187.528C99.7402 187.443 99.9855 187.304 100.188 187.112C100.391 186.909 100.546 186.659 100.652 186.36C100.77 186.051 100.828 185.683 100.828 185.256ZM104.547 180.568H108.147C108.52 180.568 108.899 180.589 109.283 180.632C109.667 180.664 110.013 180.755 110.323 180.904C110.643 181.053 110.899 181.272 111.091 181.56C111.293 181.837 111.4 182.216 111.411 182.696C111.411 183.069 111.325 183.416 111.155 183.736C110.984 184.056 110.712 184.317 110.339 184.52C110.851 184.659 111.224 184.904 111.459 185.256C111.704 185.597 111.827 186.008 111.827 186.488C111.827 186.936 111.736 187.325 111.555 187.656C111.373 187.976 111.133 188.237 110.835 188.44C110.536 188.632 110.189 188.776 109.795 188.872C109.4 188.957 108.984 189 108.547 189H104.547V180.568ZM106.387 182.088V184.024H107.491C107.736 184.024 107.987 184.024 108.243 184.024C108.509 184.013 108.744 183.976 108.947 183.912C109.16 183.848 109.331 183.747 109.459 183.608C109.597 183.469 109.667 183.272 109.667 183.016C109.667 182.792 109.613 182.621 109.507 182.504C109.411 182.376 109.288 182.28 109.139 182.216C108.989 182.152 108.819 182.115 108.627 182.104C108.445 182.093 108.275 182.088 108.115 182.088H106.387ZM108.243 187.464C108.456 187.464 108.664 187.453 108.867 187.432C109.08 187.411 109.267 187.363 109.427 187.288C109.597 187.203 109.736 187.096 109.843 186.968C109.949 186.829 110.003 186.648 110.003 186.424C110.003 186.019 109.875 185.747 109.619 185.608C109.373 185.469 109.069 185.4 108.707 185.4H106.387V187.464H108.243ZM114.299 184.984C114.353 184.259 114.385 183.539 114.395 182.824C114.417 182.099 114.438 181.347 114.459 180.568H120.763V189H118.923V182.152H116.155C116.134 182.675 116.113 183.197 116.091 183.72C116.081 184.232 116.059 184.744 116.027 185.256C116.017 185.448 115.995 185.677 115.963 185.944C115.942 186.2 115.91 186.461 115.867 186.728C115.825 186.984 115.761 187.229 115.675 187.464C115.59 187.688 115.483 187.896 115.355 188.088C115.131 188.408 114.833 188.643 114.459 188.792C114.097 188.931 113.675 189 113.195 189H112.747V187.432C113.067 187.432 113.323 187.357 113.515 187.208C113.718 187.048 113.867 186.851 113.963 186.616C114.07 186.371 114.145 186.109 114.187 185.832C114.241 185.544 114.278 185.261 114.299 184.984ZM124.254 185.4C124.275 185.709 124.339 185.997 124.446 186.264C124.552 186.531 124.696 186.765 124.878 186.968C125.059 187.16 125.283 187.315 125.55 187.432C125.827 187.549 126.147 187.608 126.51 187.608C126.894 187.608 127.246 187.539 127.566 187.4C127.896 187.261 128.136 187.021 128.286 186.68H130.158C130.051 187.107 129.875 187.475 129.63 187.784C129.395 188.093 129.112 188.349 128.782 188.552C128.462 188.744 128.104 188.888 127.71 188.984C127.326 189.069 126.915 189.112 126.478 189.112C125.806 189.112 125.214 189.011 124.702 188.808C124.2 188.605 123.779 188.312 123.438 187.928C123.096 187.544 122.84 187.091 122.67 186.568C122.51 186.035 122.43 185.437 122.43 184.776C122.43 184.136 122.52 183.555 122.702 183.032C122.883 182.499 123.144 182.04 123.486 181.656C123.838 181.272 124.259 180.973 124.75 180.76C125.24 180.536 125.8 180.424 126.43 180.424C127.091 180.424 127.662 180.536 128.142 180.76C128.622 180.973 129.022 181.267 129.342 181.64C129.672 182.013 129.918 182.451 130.078 182.952C130.238 183.453 130.318 183.997 130.318 184.584C130.318 184.861 130.302 185.133 130.27 185.4H124.254ZM128.542 184.024C128.51 183.363 128.302 182.861 127.918 182.52C127.544 182.179 127.054 182.008 126.446 182.008C126.104 182.008 125.806 182.061 125.55 182.168C125.294 182.275 125.075 182.419 124.894 182.6C124.723 182.781 124.584 182.995 124.478 183.24C124.371 183.485 124.302 183.747 124.27 184.024H128.542ZM131.969 189V180.568H133.793V184.04H137.537V180.568H139.361V189H137.537V185.624H133.793V189H131.969ZM140.976 180.568H142.8V182.232C142.8 182.659 142.816 183.016 142.848 183.304C142.89 183.592 142.976 183.832 143.104 184.024C143.232 184.205 143.418 184.339 143.664 184.424C143.909 184.499 144.24 184.536 144.656 184.536C144.922 184.536 145.21 184.525 145.52 184.504C145.829 184.472 146.085 184.44 146.288 184.408V180.568H148.096V189H146.288V185.992C146.042 186.035 145.754 186.067 145.424 186.088C145.093 186.109 144.789 186.12 144.512 186.12C144.394 186.12 144.277 186.12 144.16 186.12C143.648 186.109 143.194 186.045 142.8 185.928C142.405 185.8 142.069 185.608 141.792 185.352C141.525 185.085 141.322 184.733 141.184 184.296C141.045 183.859 140.976 183.32 140.976 182.68V180.568ZM151.598 185.4C151.619 185.709 151.683 185.997 151.79 186.264C151.896 186.531 152.04 186.765 152.222 186.968C152.403 187.16 152.627 187.315 152.894 187.432C153.171 187.549 153.491 187.608 153.854 187.608C154.238 187.608 154.59 187.539 154.91 187.4C155.24 187.261 155.48 187.021 155.63 186.68H157.502C157.395 187.107 157.219 187.475 156.974 187.784C156.739 188.093 156.456 188.349 156.126 188.552C155.806 188.744 155.448 188.888 155.054 188.984C154.67 189.069 154.259 189.112 153.822 189.112C153.15 189.112 152.558 189.011 152.046 188.808C151.544 188.605 151.123 188.312 150.782 187.928C150.44 187.544 150.184 187.091 150.014 186.568C149.854 186.035 149.774 185.437 149.774 184.776C149.774 184.136 149.864 183.555 150.046 183.032C150.227 182.499 150.488 182.04 150.83 181.656C151.182 181.272 151.603 180.973 152.094 180.76C152.584 180.536 153.144 180.424 153.774 180.424C154.435 180.424 155.006 180.536 155.486 180.76C155.966 180.973 156.366 181.267 156.686 181.64C157.016 182.013 157.262 182.451 157.422 182.952C157.582 183.453 157.662 183.997 157.662 184.584C157.662 184.861 157.646 185.133 157.614 185.4H151.598ZM155.886 184.024C155.854 183.363 155.646 182.861 155.262 182.52C154.888 182.179 154.398 182.008 153.79 182.008C153.448 182.008 153.15 182.061 152.894 182.168C152.638 182.275 152.419 182.419 152.238 182.6C152.067 182.781 151.928 182.995 151.822 183.24C151.715 183.485 151.646 183.747 151.614 184.024H155.886ZM163.024 189.112C162.352 189.112 161.76 189.011 161.248 188.808C160.747 188.595 160.326 188.301 159.984 187.928C159.654 187.544 159.403 187.091 159.232 186.568C159.072 186.035 158.992 185.448 158.992 184.808C158.992 184.168 159.078 183.581 159.248 183.048C159.43 182.515 159.696 182.056 160.048 181.672C160.4 181.288 160.827 180.984 161.328 180.76C161.83 180.536 162.411 180.424 163.072 180.424C163.542 180.424 163.974 180.477 164.368 180.584C164.774 180.68 165.131 180.845 165.44 181.08C165.75 181.304 166.016 181.592 166.24 181.944C166.464 182.285 166.619 182.701 166.704 183.192H164.816C164.72 182.829 164.512 182.552 164.192 182.36C163.883 182.157 163.499 182.056 163.04 182.056C162.635 182.056 162.288 182.131 162 182.28C161.712 182.429 161.478 182.632 161.296 182.888C161.115 183.144 160.982 183.443 160.896 183.784C160.822 184.115 160.784 184.461 160.784 184.824C160.784 185.197 160.827 185.549 160.912 185.88C160.998 186.211 161.131 186.499 161.312 186.744C161.504 186.979 161.744 187.171 162.032 187.32C162.32 187.459 162.667 187.528 163.072 187.528C163.552 187.528 163.947 187.421 164.256 187.208C164.576 186.995 164.779 186.712 164.864 186.36H166.736C166.651 186.84 166.491 187.256 166.256 187.608C166.032 187.96 165.755 188.248 165.424 188.472C165.094 188.696 164.726 188.861 164.32 188.968C163.915 189.064 163.483 189.112 163.024 189.112ZM168.297 189V180.568H170.105V184.008H171.401L173.561 180.568H175.641L172.969 184.584L175.849 189H173.737L171.513 185.592H170.105V189H168.297ZM182.159 187.96C181.881 188.355 181.513 188.648 181.055 188.84C180.596 189.021 180.084 189.112 179.519 189.112C179.071 189.112 178.66 189.059 178.287 188.952C177.924 188.845 177.604 188.685 177.327 188.472C177.049 188.248 176.831 187.976 176.671 187.656C176.511 187.325 176.431 186.952 176.431 186.536C176.431 186.077 176.521 185.688 176.703 185.368C176.884 185.037 177.129 184.771 177.439 184.568C177.759 184.365 178.132 184.216 178.559 184.12C178.985 184.013 179.433 183.96 179.903 183.96H182.063C182.063 183.341 181.924 182.861 181.647 182.52C181.369 182.179 180.884 182.003 180.191 181.992C179.785 181.992 179.433 182.061 179.135 182.2C178.847 182.339 178.655 182.568 178.559 182.888H176.687C176.751 182.44 176.895 182.061 177.119 181.752C177.353 181.443 177.631 181.187 177.951 180.984C178.281 180.781 178.644 180.637 179.039 180.552C179.444 180.467 179.849 180.424 180.255 180.424C180.777 180.424 181.263 180.493 181.711 180.632C182.159 180.771 182.548 181.005 182.879 181.336C183.252 181.72 183.503 182.179 183.631 182.712C183.759 183.245 183.823 183.827 183.823 184.456V189H182.239L182.159 187.96ZM182.063 185.256H180.303C179.993 185.256 179.684 185.283 179.375 185.336C179.065 185.379 178.799 185.491 178.575 185.672C178.361 185.843 178.255 186.093 178.255 186.424C178.255 186.829 178.399 187.139 178.687 187.352C178.985 187.555 179.348 187.656 179.775 187.656C180.105 187.656 180.409 187.613 180.687 187.528C180.975 187.443 181.22 187.304 181.423 187.112C181.625 186.909 181.78 186.659 181.887 186.36C182.004 186.051 182.063 185.683 182.063 185.256ZM192.693 189H190.885V186.12H189.365L187.397 189H185.253L187.541 185.832C186.89 185.672 186.394 185.379 186.053 184.952C185.722 184.525 185.557 183.981 185.557 183.32C185.557 182.797 185.642 182.36 185.813 182.008C185.994 181.656 186.24 181.373 186.549 181.16C186.869 180.936 187.232 180.781 187.637 180.696C188.042 180.611 188.48 180.568 188.949 180.568H192.693V189ZM190.885 182.088H189.077C188.874 182.088 188.672 182.104 188.469 182.136C188.266 182.157 188.08 182.216 187.909 182.312C187.749 182.397 187.621 182.52 187.525 182.68C187.429 182.84 187.381 183.032 187.381 183.256C187.381 183.288 187.381 183.315 187.381 183.336C187.381 183.613 187.461 183.848 187.621 184.04C187.781 184.232 187.989 184.371 188.245 184.456C188.501 184.531 188.736 184.579 188.949 184.6C189.162 184.611 189.376 184.616 189.589 184.616H190.885V182.088ZM59.0134 204.576C59.0454 204.064 59.0667 203.568 59.0774 203.088C59.088 202.597 59.0934 202.091 59.0934 201.568H65.5894V208.448H66.6934V212.464H64.9174V210H59.1574V212.464H57.3814V208.448C57.6907 208.448 57.9467 208.352 58.1494 208.16C58.3627 207.957 58.5067 207.733 58.5814 207.488C58.656 207.317 58.72 207.088 58.7734 206.8C58.8267 206.501 58.8694 206.208 58.9014 205.92C58.9334 205.632 58.96 205.365 58.9814 205.12C59.0027 204.875 59.0134 204.693 59.0134 204.576ZM63.7654 203.152H60.7574C60.736 203.536 60.72 203.952 60.7094 204.4C60.6987 204.848 60.6827 205.28 60.6614 205.696C60.64 205.899 60.6187 206.117 60.5974 206.352C60.5867 206.587 60.56 206.827 60.5174 207.072C60.4747 207.307 60.416 207.541 60.3414 207.776C60.2667 208.011 60.1654 208.235 60.0374 208.448H63.7654V203.152ZM71.7528 201.424C72.4248 201.424 73.0168 201.531 73.5288 201.744C74.0408 201.957 74.4728 202.256 74.8248 202.64C75.1874 203.013 75.4594 203.467 75.6408 204C75.8221 204.533 75.9128 205.125 75.9128 205.776C75.9128 206.437 75.8221 207.035 75.6408 207.568C75.4701 208.091 75.2088 208.544 74.8568 208.928C74.5048 209.312 74.0674 209.605 73.5448 209.808C73.0328 210.011 72.4354 210.112 71.7528 210.112C71.0808 210.112 70.4888 210.011 69.9768 209.808C69.4648 209.595 69.0328 209.301 68.6808 208.928C68.3394 208.544 68.0781 208.085 67.8968 207.552C67.7261 207.019 67.6408 206.427 67.6408 205.776C67.6408 205.125 67.7261 204.533 67.8968 204C68.0781 203.467 68.3448 203.013 68.6968 202.64C69.0488 202.256 69.4808 201.957 69.9928 201.744C70.5048 201.531 71.0914 201.424 71.7528 201.424ZM71.7528 208.528C72.1688 208.528 72.5208 208.459 72.8088 208.32C73.1074 208.171 73.3474 207.973 73.5288 207.728C73.7208 207.483 73.8594 207.195 73.9448 206.864C74.0408 206.533 74.0888 206.176 74.0888 205.792C74.0888 205.408 74.0408 205.051 73.9448 204.72C73.8594 204.379 73.7208 204.085 73.5288 203.84C73.3474 203.595 73.1074 203.403 72.8088 203.264C72.5208 203.125 72.1688 203.056 71.7528 203.056C71.3474 203.056 70.9954 203.125 70.6968 203.264C70.4088 203.403 70.1688 203.595 69.9768 203.84C69.7954 204.085 69.6568 204.379 69.5608 204.72C69.4754 205.051 69.4328 205.408 69.4328 205.792C69.4328 206.176 69.4754 206.533 69.5608 206.864C69.6568 207.195 69.7954 207.483 69.9768 207.728C70.1688 207.973 70.4088 208.171 70.6968 208.32C70.9954 208.459 71.3474 208.528 71.7528 208.528ZM78.276 205.984C78.3293 205.259 78.3613 204.539 78.372 203.824C78.3933 203.099 78.4147 202.347 78.436 201.568H84.74V210H82.9V203.152H80.132C80.1107 203.675 80.0893 204.197 80.068 204.72C80.0573 205.232 80.036 205.744 80.004 206.256C79.9933 206.448 79.972 206.677 79.94 206.944C79.9187 207.2 79.8867 207.461 79.844 207.728C79.8013 207.984 79.7373 208.229 79.652 208.464C79.5667 208.688 79.46 208.896 79.332 209.088C79.108 209.408 78.8093 209.643 78.436 209.792C78.0733 209.931 77.652 210 77.172 210H76.724V208.432C77.044 208.432 77.3 208.357 77.492 208.208C77.6947 208.048 77.844 207.851 77.94 207.616C78.0467 207.371 78.1213 207.109 78.164 206.832C78.2173 206.544 78.2547 206.261 78.276 205.984ZM91.2864 210V206.592H89.9744L88.0224 210H85.8784L88.5504 205.584L86.1024 201.568H88.1344L90.1024 205.024H91.2864V201.568H93.0944V205.024H94.2784L96.2464 201.568H98.2784L95.8304 205.584L98.5024 210H96.3584L94.4064 206.592H93.0944V210H91.2864ZM99.6326 210V201.568H101.457V205.04H105.201V201.568H107.025V210H105.201V206.624H101.457V210H99.6326ZM112.8 201.424C113.472 201.424 114.064 201.531 114.576 201.744C115.088 201.957 115.52 202.256 115.872 202.64C116.234 203.013 116.506 203.467 116.688 204C116.869 204.533 116.96 205.125 116.96 205.776C116.96 206.437 116.869 207.035 116.688 207.568C116.517 208.091 116.256 208.544 115.904 208.928C115.552 209.312 115.114 209.605 114.592 209.808C114.08 210.011 113.482 210.112 112.8 210.112C112.128 210.112 111.536 210.011 111.024 209.808C110.512 209.595 110.08 209.301 109.728 208.928C109.386 208.544 109.125 208.085 108.944 207.552C108.773 207.019 108.688 206.427 108.688 205.776C108.688 205.125 108.773 204.533 108.944 204C109.125 203.467 109.392 203.013 109.744 202.64C110.096 202.256 110.528 201.957 111.04 201.744C111.552 201.531 112.138 201.424 112.8 201.424ZM112.8 208.528C113.216 208.528 113.568 208.459 113.856 208.32C114.154 208.171 114.394 207.973 114.576 207.728C114.768 207.483 114.906 207.195 114.992 206.864C115.088 206.533 115.136 206.176 115.136 205.792C115.136 205.408 115.088 205.051 114.992 204.72C114.906 204.379 114.768 204.085 114.576 203.84C114.394 203.595 114.154 203.403 113.856 203.264C113.568 203.125 113.216 203.056 112.8 203.056C112.394 203.056 112.042 203.125 111.744 203.264C111.456 203.403 111.216 203.595 111.024 203.84C110.842 204.085 110.704 204.379 110.608 204.72C110.522 205.051 110.48 205.408 110.48 205.792C110.48 206.176 110.522 206.533 110.608 206.864C110.704 207.195 110.842 207.483 111.024 207.728C111.216 207.973 111.456 208.171 111.744 208.32C112.042 208.459 112.394 208.528 112.8 208.528ZM122.329 210.112C121.657 210.112 121.065 210.011 120.553 209.808C120.052 209.595 119.63 209.301 119.289 208.928C118.958 208.544 118.708 208.091 118.537 207.568C118.377 207.035 118.297 206.448 118.297 205.808C118.297 205.168 118.382 204.581 118.553 204.048C118.734 203.515 119.001 203.056 119.353 202.672C119.705 202.288 120.132 201.984 120.633 201.76C121.134 201.536 121.716 201.424 122.377 201.424C122.846 201.424 123.278 201.477 123.673 201.584C124.078 201.68 124.436 201.845 124.745 202.08C125.054 202.304 125.321 202.592 125.545 202.944C125.769 203.285 125.924 203.701 126.009 204.192H124.121C124.025 203.829 123.817 203.552 123.497 203.36C123.188 203.157 122.804 203.056 122.345 203.056C121.94 203.056 121.593 203.131 121.305 203.28C121.017 203.429 120.782 203.632 120.601 203.888C120.42 204.144 120.286 204.443 120.201 204.784C120.126 205.115 120.089 205.461 120.089 205.824C120.089 206.197 120.132 206.549 120.217 206.88C120.302 207.211 120.436 207.499 120.617 207.744C120.809 207.979 121.049 208.171 121.337 208.32C121.625 208.459 121.972 208.528 122.377 208.528C122.857 208.528 123.252 208.421 123.561 208.208C123.881 207.995 124.084 207.712 124.169 207.36H126.041C125.956 207.84 125.796 208.256 125.561 208.608C125.337 208.96 125.06 209.248 124.729 209.472C124.398 209.696 124.03 209.861 123.625 209.968C123.22 210.064 122.788 210.112 122.329 210.112ZM134.177 201.568V203.152H131.329V210H129.521V203.152H126.673V201.568H134.177ZM135.226 201.568H137.05V204.416H138.938C139.429 204.416 139.872 204.459 140.266 204.544C140.672 204.619 141.018 204.763 141.306 204.976C141.605 205.189 141.834 205.467 141.994 205.808C142.165 206.149 142.25 206.571 142.25 207.072C142.25 207.637 142.144 208.112 141.93 208.496C141.728 208.869 141.456 209.168 141.114 209.392C140.784 209.616 140.405 209.776 139.978 209.872C139.552 209.957 139.12 210 138.682 210H135.226V201.568ZM138.474 208.48C138.72 208.48 138.96 208.464 139.194 208.432C139.44 208.389 139.648 208.325 139.818 208.24C140 208.144 140.144 208.011 140.25 207.84C140.368 207.669 140.432 207.445 140.442 207.168C140.442 206.869 140.378 206.64 140.25 206.48C140.122 206.32 139.962 206.203 139.77 206.128C139.578 206.053 139.365 206.011 139.13 206C138.906 205.989 138.698 205.984 138.506 205.984H137.05V208.464L138.474 208.48Z" fill="#0260A2"/>
<path d="M75.834 130.924C76.122 130.684 76.41 130.426 76.698 130.15C76.998 129.874 77.286 129.586 77.562 129.286C77.838 129.01 78.072 128.71 78.264 128.386C78.468 128.062 78.576 127.702 78.588 127.306C78.612 126.67 78.444 126.196 78.084 125.884C77.724 125.572 77.244 125.422 76.644 125.434C76.104 125.446 75.666 125.572 75.33 125.812C75.006 126.052 74.814 126.4 74.754 126.856H72.324C72.348 126.148 72.516 125.536 72.828 125.02C73.152 124.492 73.578 124.072 74.106 123.76C74.49 123.532 74.91 123.37 75.366 123.274C75.822 123.166 76.302 123.112 76.806 123.112C78.162 123.088 79.23 123.448 80.01 124.192C80.346 124.504 80.616 124.894 80.82 125.362C81.024 125.818 81.126 126.358 81.126 126.982C81.126 127.438 81.078 127.87 80.982 128.278C80.886 128.686 80.724 129.064 80.496 129.412C80.352 129.652 80.196 129.874 80.028 130.078C79.872 130.27 79.71 130.45 79.542 130.618C79.386 130.786 79.212 130.954 79.02 131.122C78.84 131.29 78.636 131.476 78.408 131.68C77.964 132.064 77.538 132.418 77.13 132.742C76.734 133.066 76.356 133.384 75.996 133.696H80.982V136H72.414V133.876L75.834 130.924ZM82.8886 130.528L83.6986 123.256H91.4386V125.524H85.8046L85.4446 128.152C85.8526 127.948 86.2366 127.804 86.5966 127.72C86.9686 127.624 87.3946 127.582 87.8746 127.594C88.4986 127.606 89.0626 127.708 89.5666 127.9C90.0826 128.092 90.5206 128.368 90.8806 128.728C91.2406 129.088 91.5166 129.52 91.7086 130.024C91.9006 130.516 91.9966 131.074 91.9966 131.698C91.9966 132.394 91.8766 133.018 91.6366 133.57C91.3966 134.122 91.0666 134.59 90.6466 134.974C90.2026 135.358 89.6986 135.646 89.1346 135.838C88.5826 136.03 87.9466 136.126 87.2266 136.126C85.9186 136.126 84.8746 135.826 84.0946 135.226C83.3146 134.626 82.8526 133.648 82.7086 132.292H85.2826C85.3906 132.808 85.6186 133.18 85.9666 133.408C86.3266 133.636 86.7286 133.762 87.1726 133.786C87.8086 133.81 88.3306 133.66 88.7386 133.336C89.1466 133.012 89.3566 132.502 89.3686 131.806C89.3806 131.122 89.1826 130.606 88.7746 130.258C88.3666 129.91 87.8506 129.748 87.2266 129.772C86.8546 129.784 86.5066 129.856 86.1826 129.988C85.8706 130.12 85.5946 130.3 85.3546 130.528H82.8886ZM107.313 126.514V136H104.775V128.728H102.093C102.069 129.268 102.045 129.808 102.021 130.348C102.009 130.888 101.985 131.434 101.949 131.986C101.925 132.238 101.901 132.502 101.877 132.778C101.853 133.054 101.811 133.336 101.751 133.624C101.703 133.912 101.625 134.182 101.517 134.434C101.421 134.686 101.289 134.914 101.121 135.118C100.809 135.466 100.437 135.7 100.005 135.82C99.5733 135.94 99.1293 136 98.6733 136H97.8273V133.768H98.0793C98.3913 133.768 98.6373 133.702 98.8173 133.57C99.0093 133.426 99.1473 133.24 99.2313 133.012C99.3273 132.772 99.3993 132.514 99.4473 132.238C99.4953 131.95 99.5313 131.656 99.5553 131.356C99.6153 130.6 99.6513 129.826 99.6633 129.034C99.6873 128.242 99.7113 127.402 99.7353 126.514H107.313ZM113.644 134.074C114.004 134.074 114.31 134.02 114.562 133.912C114.826 133.792 115.042 133.6 115.21 133.336H117.874C117.742 133.828 117.538 134.254 117.262 134.614C116.998 134.974 116.674 135.268 116.29 135.496C115.918 135.724 115.504 135.892 115.048 136C114.592 136.096 114.112 136.144 113.608 136.144C112.072 136.144 110.908 135.712 110.116 134.848C109.336 133.984 108.946 132.772 108.946 131.212C108.946 130.504 109.048 129.85 109.252 129.25C109.468 128.65 109.768 128.134 110.152 127.702C110.536 127.258 111.01 126.916 111.574 126.676C112.15 126.436 112.804 126.316 113.536 126.316C114.388 126.316 115.126 126.466 115.75 126.766C116.374 127.066 116.866 127.48 117.226 128.008C117.598 128.524 117.844 129.13 117.964 129.826C118.096 130.522 118.096 131.266 117.964 132.058H111.484C111.532 132.622 111.73 133.102 112.078 133.498C112.426 133.882 112.948 134.074 113.644 134.074ZM115.606 130.312C115.606 130.012 115.552 129.748 115.444 129.52C115.336 129.28 115.192 129.088 115.012 128.944C114.832 128.788 114.616 128.674 114.364 128.602C114.124 128.53 113.872 128.494 113.608 128.494C112.972 128.506 112.474 128.68 112.114 129.016C111.766 129.34 111.562 129.772 111.502 130.312H115.606ZM118.759 128.71V126.514H127.597V128.71H124.429V136H121.891V128.71H118.759Z" fill="#0260A2"/>
</svg>
