<svg width="200" height="212" viewBox="0 0 200 212" fill="none" xmlns="http://www.w3.org/2000/svg">
<path d="M200 14H0V0H200V14Z" fill="#E6E6E6"/>
<path d="M4.19617e-05 14H37.3738V0H4.19617e-05V14Z" fill="#C7C6C6"/>
<rect width="200" height="178" transform="matrix(-1 0 0 1 200 34)" fill="white"/>
<rect x="10" y="49" width="180" height="50" rx="3" fill="#0260A2"/>
<path d="M70.834 130.924C71.122 130.684 71.41 130.426 71.698 130.15C71.998 129.874 72.286 129.586 72.562 129.286C72.838 129.01 73.072 128.71 73.264 128.386C73.468 128.062 73.576 127.702 73.588 127.306C73.612 126.67 73.444 126.196 73.084 125.884C72.724 125.572 72.244 125.422 71.644 125.434C71.104 125.446 70.666 125.572 70.33 125.812C70.006 126.052 69.814 126.4 69.754 126.856H67.324C67.348 126.148 67.516 125.536 67.828 125.02C68.152 124.492 68.578 124.072 69.106 123.76C69.49 123.532 69.91 123.37 70.366 123.274C70.822 123.166 71.302 123.112 71.806 123.112C73.162 123.088 74.23 123.448 75.01 124.192C75.346 124.504 75.616 124.894 75.82 125.362C76.024 125.818 76.126 126.358 76.126 126.982C76.126 127.438 76.078 127.87 75.982 128.278C75.886 128.686 75.724 129.064 75.496 129.412C75.352 129.652 75.196 129.874 75.028 130.078C74.872 130.27 74.71 130.45 74.542 130.618C74.386 130.786 74.212 130.954 74.02 131.122C73.84 131.29 73.636 131.476 73.408 131.68C72.964 132.064 72.538 132.418 72.13 132.742C71.734 133.066 71.356 133.384 70.996 133.696H75.982V136H67.414V133.876L70.834 130.924ZM82.6226 123.094C83.3546 123.094 84.0266 123.22 84.6386 123.472C85.2626 123.724 85.7906 124.12 86.2226 124.66C86.6666 125.188 87.0086 125.86 87.2486 126.676C87.5006 127.492 87.6266 128.464 87.6266 129.592C87.6266 130.732 87.5066 131.71 87.2666 132.526C87.0266 133.342 86.6906 134.014 86.2586 134.542C85.8266 135.07 85.2986 135.46 84.6746 135.712C84.0626 135.964 83.3786 136.09 82.6226 136.09C81.8666 136.09 81.1766 135.964 80.5526 135.712C79.9406 135.46 79.4126 135.07 78.9686 134.542C78.5366 134.014 78.2006 133.342 77.9606 132.526C77.7326 131.71 77.6186 130.732 77.6186 129.592C77.6186 128.464 77.7386 127.492 77.9786 126.676C78.2186 125.86 78.5606 125.188 79.0046 124.66C79.4486 124.12 79.9766 123.724 80.5886 123.472C81.2006 123.22 81.8786 123.094 82.6226 123.094ZM82.6226 133.786C83.3906 133.786 83.9906 133.462 84.4226 132.814C84.8546 132.166 85.0706 131.092 85.0706 129.592C85.0706 128.104 84.8546 127.036 84.4226 126.388C83.9906 125.728 83.3906 125.398 82.6226 125.398C81.8426 125.398 81.2366 125.728 80.8046 126.388C80.3846 127.036 80.1746 128.104 80.1746 129.592C80.1746 131.092 80.3846 132.166 80.8046 132.814C81.2366 133.462 81.8426 133.786 82.6226 133.786ZM102.964 126.514V136H100.426V128.728H97.7437C97.7197 129.268 97.6957 129.808 97.6717 130.348C97.6597 130.888 97.6357 131.434 97.5997 131.986C97.5757 132.238 97.5517 132.502 97.5277 132.778C97.5037 133.054 97.4617 133.336 97.4017 133.624C97.3537 133.912 97.2757 134.182 97.1677 134.434C97.0717 134.686 96.9397 134.914 96.7717 135.118C96.4597 135.466 96.0877 135.7 95.6557 135.82C95.2237 135.94 94.7797 136 94.3237 136H93.4777V133.768H93.7297C94.0417 133.768 94.2877 133.702 94.4677 133.57C94.6597 133.426 94.7977 133.24 94.8817 133.012C94.9777 132.772 95.0497 132.514 95.0977 132.238C95.1457 131.95 95.1817 131.656 95.2057 131.356C95.2657 130.6 95.3017 129.826 95.3137 129.034C95.3377 128.242 95.3617 127.402 95.3857 126.514H102.964ZM109.295 134.074C109.655 134.074 109.961 134.02 110.213 133.912C110.477 133.792 110.693 133.6 110.861 133.336H113.525C113.393 133.828 113.189 134.254 112.913 134.614C112.649 134.974 112.325 135.268 111.941 135.496C111.569 135.724 111.155 135.892 110.699 136C110.243 136.096 109.763 136.144 109.259 136.144C107.723 136.144 106.559 135.712 105.767 134.848C104.987 133.984 104.597 132.772 104.597 131.212C104.597 130.504 104.699 129.85 104.903 129.25C105.119 128.65 105.419 128.134 105.803 127.702C106.187 127.258 106.661 126.916 107.225 126.676C107.801 126.436 108.455 126.316 109.187 126.316C110.039 126.316 110.777 126.466 111.401 126.766C112.025 127.066 112.517 127.48 112.877 128.008C113.249 128.524 113.495 129.13 113.615 129.826C113.747 130.522 113.747 131.266 113.615 132.058H107.135C107.183 132.622 107.381 133.102 107.729 133.498C108.077 133.882 108.599 134.074 109.295 134.074ZM111.257 130.312C111.257 130.012 111.203 129.748 111.095 129.52C110.987 129.28 110.843 129.088 110.663 128.944C110.483 128.788 110.267 128.674 110.015 128.602C109.775 128.53 109.523 128.494 109.259 128.494C108.623 128.506 108.125 128.68 107.765 129.016C107.417 129.34 107.213 129.772 107.153 130.312H111.257ZM114.409 128.71V126.514H123.247V128.71H120.079V136H117.541V128.71H114.409Z" fill="#0260A2"/>
<path d="M48.5971 74.112C47.7118 74.112 46.9278 73.968 46.2451 73.68C45.5731 73.3813 45.0078 72.976 44.5491 72.464C44.0905 71.952 43.7385 71.344 43.4931 70.64C43.2585 69.936 43.1411 69.168 43.1411 68.336C43.1411 67.4933 43.2638 66.72 43.5091 66.016C43.7545 65.3013 44.1065 64.688 44.5651 64.176C45.0345 63.664 45.6051 63.264 46.2771 62.976C46.9598 62.688 47.7385 62.544 48.6131 62.544C49.4878 62.544 50.2611 62.688 50.9331 62.976C51.6158 63.2533 52.1865 63.648 52.6451 64.16C53.1145 64.672 53.4665 65.2853 53.7011 66C53.9465 66.704 54.0691 67.4773 54.0691 68.32C54.0691 69.152 53.9465 69.9253 53.7011 70.64C53.4665 71.344 53.1145 71.952 52.6451 72.464C52.1865 72.976 51.6158 73.3813 50.9331 73.68C50.2505 73.968 49.4718 74.112 48.5971 74.112ZM48.6131 64.208C48.0051 64.208 47.4771 64.32 47.0291 64.544C46.5918 64.768 46.2238 65.0667 45.9251 65.44C45.6265 65.8133 45.4025 66.2507 45.2531 66.752C45.1145 67.2533 45.0451 67.776 45.0451 68.32C45.0451 68.864 45.1145 69.3867 45.2531 69.888C45.4025 70.3787 45.6211 70.816 45.9091 71.2C46.2078 71.584 46.5811 71.888 47.0291 72.112C47.4771 72.336 48.0051 72.448 48.6131 72.448C49.2105 72.448 49.7331 72.3413 50.1811 72.128C50.6291 71.904 50.9971 71.6053 51.2851 71.232C51.5838 70.8587 51.8025 70.4267 51.9411 69.936C52.0905 69.4347 52.1651 68.9013 52.1651 68.336C52.1651 67.7813 52.0905 67.2587 51.9411 66.768C51.8025 66.2667 51.5838 65.8293 51.2851 65.456C50.9971 65.072 50.6291 64.768 50.1811 64.544C49.7438 64.32 49.2211 64.208 48.6131 64.208ZM55.742 74V65.568H63.134V74H61.31V67.152H57.566V74H55.742ZM65.901 69.984C65.9543 69.2587 65.9863 68.5387 65.997 67.824C66.0183 67.0987 66.0397 66.3467 66.061 65.568H72.365V74H70.525V67.152H67.757C67.7357 67.6747 67.7143 68.1973 67.693 68.72C67.6823 69.232 67.661 69.744 67.629 70.256C67.6183 70.448 67.597 70.6773 67.565 70.944C67.5437 71.2 67.5117 71.4613 67.469 71.728C67.4263 71.984 67.3623 72.2293 67.277 72.464C67.1917 72.688 67.085 72.896 66.957 73.088C66.733 73.408 66.4343 73.6427 66.061 73.792C65.6983 73.9307 65.277 74 64.797 74H64.349V72.432C64.669 72.432 64.925 72.3573 65.117 72.208C65.3197 72.048 65.469 71.8507 65.565 71.616C65.6717 71.3707 65.7463 71.1093 65.789 70.832C65.8423 70.544 65.8797 70.2613 65.901 69.984ZM79.7914 72.96C79.514 73.3547 79.146 73.648 78.6874 73.84C78.2287 74.0213 77.7167 74.112 77.1514 74.112C76.7034 74.112 76.2927 74.0587 75.9194 73.952C75.5567 73.8453 75.2367 73.6853 74.9594 73.472C74.682 73.248 74.4634 72.976 74.3034 72.656C74.1434 72.3253 74.0634 71.952 74.0634 71.536C74.0634 71.0773 74.154 70.688 74.3354 70.368C74.5167 70.0373 74.762 69.7707 75.0714 69.568C75.3914 69.3653 75.7647 69.216 76.1914 69.12C76.618 69.0133 77.066 68.96 77.5354 68.96H79.6954C79.6954 68.3413 79.5567 67.8613 79.2794 67.52C79.002 67.1787 78.5167 67.0027 77.8234 66.992C77.418 66.992 77.066 67.0613 76.7674 67.2C76.4794 67.3387 76.2874 67.568 76.1914 67.888H74.3194C74.3834 67.44 74.5274 67.0613 74.7514 66.752C74.986 66.4427 75.2634 66.1867 75.5834 65.984C75.914 65.7813 76.2767 65.6373 76.6714 65.552C77.0767 65.4667 77.482 65.424 77.8874 65.424C78.41 65.424 78.8954 65.4933 79.3434 65.632C79.7914 65.7707 80.1807 66.0053 80.5114 66.336C80.8847 66.72 81.1354 67.1787 81.2634 67.712C81.3914 68.2453 81.4554 68.8267 81.4554 69.456V74H79.8714L79.7914 72.96ZM79.6954 70.256H77.9354C77.626 70.256 77.3167 70.2827 77.0074 70.336C76.698 70.3787 76.4314 70.4907 76.2074 70.672C75.994 70.8427 75.8874 71.0933 75.8874 71.424C75.8874 71.8293 76.0314 72.1387 76.3194 72.352C76.618 72.5547 76.9807 72.656 77.4074 72.656C77.738 72.656 78.042 72.6133 78.3194 72.528C78.6074 72.4427 78.8527 72.304 79.0554 72.112C79.258 71.9093 79.4127 71.6587 79.5194 71.36C79.6367 71.0507 79.6954 70.6827 79.6954 70.256ZM83.0459 65.568H84.8699V67.232C84.8699 67.6587 84.8859 68.016 84.9179 68.304C84.9605 68.592 85.0459 68.832 85.1739 69.024C85.3019 69.2053 85.4885 69.3387 85.7339 69.424C85.9792 69.4987 86.3099 69.536 86.7259 69.536C86.9925 69.536 87.2805 69.5253 87.5899 69.504C87.8992 69.472 88.1552 69.44 88.3579 69.408V65.568H90.1659V74H88.3579V70.992C88.1125 71.0347 87.8245 71.0667 87.4939 71.088C87.1632 71.1093 86.8592 71.12 86.5819 71.12C86.4645 71.12 86.3472 71.12 86.2299 71.12C85.7179 71.1093 85.2645 71.0453 84.8699 70.928C84.4752 70.8 84.1392 70.608 83.8619 70.352C83.5952 70.0853 83.3925 69.7333 83.2539 69.296C83.1152 68.8587 83.0459 68.32 83.0459 67.68V65.568ZM93.8599 74H92.1639V65.568H93.9879V71.36L98.2759 65.568H99.9239V74H98.0999V68.32C98.0892 68.3413 96.6759 70.2347 93.8599 74ZM101.914 65.568H105.514C105.887 65.568 106.266 65.5893 106.65 65.632C107.034 65.664 107.381 65.7547 107.69 65.904C108.01 66.0533 108.266 66.272 108.458 66.56C108.661 66.8373 108.767 67.216 108.778 67.696C108.778 68.0693 108.693 68.416 108.522 68.736C108.351 69.056 108.079 69.3173 107.706 69.52C108.218 69.6587 108.591 69.904 108.826 70.256C109.071 70.5973 109.194 71.008 109.194 71.488C109.194 71.936 109.103 72.3253 108.922 72.656C108.741 72.976 108.501 73.2373 108.202 73.44C107.903 73.632 107.557 73.776 107.162 73.872C106.767 73.9573 106.351 74 105.914 74H101.914V65.568ZM103.754 67.088V69.024H104.858C105.103 69.024 105.354 69.024 105.61 69.024C105.877 69.0133 106.111 68.976 106.314 68.912C106.527 68.848 106.698 68.7467 106.826 68.608C106.965 68.4693 107.034 68.272 107.034 68.016C107.034 67.792 106.981 67.6213 106.874 67.504C106.778 67.376 106.655 67.28 106.506 67.216C106.357 67.152 106.186 67.1147 105.994 67.104C105.813 67.0933 105.642 67.088 105.482 67.088H103.754ZM105.61 72.464C105.823 72.464 106.031 72.4533 106.234 72.432C106.447 72.4107 106.634 72.3627 106.794 72.288C106.965 72.2027 107.103 72.096 107.21 71.968C107.317 71.8293 107.37 71.648 107.37 71.424C107.37 71.0187 107.242 70.7467 106.986 70.608C106.741 70.4693 106.437 70.4 106.074 70.4H103.754V72.464H105.61ZM116.323 72.96C116.045 73.3547 115.677 73.648 115.219 73.84C114.76 74.0213 114.248 74.112 113.683 74.112C113.235 74.112 112.824 74.0587 112.451 73.952C112.088 73.8453 111.768 73.6853 111.491 73.472C111.213 73.248 110.995 72.976 110.835 72.656C110.675 72.3253 110.595 71.952 110.595 71.536C110.595 71.0773 110.685 70.688 110.867 70.368C111.048 70.0373 111.293 69.7707 111.603 69.568C111.923 69.3653 112.296 69.216 112.723 69.12C113.149 69.0133 113.597 68.96 114.067 68.96H116.227C116.227 68.3413 116.088 67.8613 115.811 67.52C115.533 67.1787 115.048 67.0027 114.355 66.992C113.949 66.992 113.597 67.0613 113.299 67.2C113.011 67.3387 112.819 67.568 112.723 67.888H110.851C110.915 67.44 111.059 67.0613 111.283 66.752C111.517 66.4427 111.795 66.1867 112.115 65.984C112.445 65.7813 112.808 65.6373 113.203 65.552C113.608 65.4667 114.013 65.424 114.419 65.424C114.941 65.424 115.427 65.4933 115.875 65.632C116.323 65.7707 116.712 66.0053 117.043 66.336C117.416 66.72 117.667 67.1787 117.795 67.712C117.923 68.2453 117.987 68.8267 117.987 69.456V74H116.403L116.323 72.96ZM116.227 70.256H114.467C114.157 70.256 113.848 70.2827 113.539 70.336C113.229 70.3787 112.963 70.4907 112.739 70.672C112.525 70.8427 112.419 71.0933 112.419 71.424C112.419 71.8293 112.563 72.1387 112.851 72.352C113.149 72.5547 113.512 72.656 113.939 72.656C114.269 72.656 114.573 72.6133 114.851 72.528C115.139 72.4427 115.384 72.304 115.587 72.112C115.789 71.9093 115.944 71.6587 116.051 71.36C116.168 71.0507 116.227 70.6827 116.227 70.256ZM121.449 70.4C121.47 70.7093 121.534 70.9973 121.641 71.264C121.748 71.5307 121.892 71.7653 122.073 71.968C122.254 72.16 122.478 72.3147 122.745 72.432C123.022 72.5493 123.342 72.608 123.705 72.608C124.089 72.608 124.441 72.5387 124.761 72.4C125.092 72.2613 125.332 72.0213 125.481 71.68H127.353C127.246 72.1067 127.07 72.4747 126.825 72.784C126.59 73.0933 126.308 73.3493 125.977 73.552C125.657 73.744 125.3 73.888 124.905 73.984C124.521 74.0693 124.11 74.112 123.673 74.112C123.001 74.112 122.409 74.0107 121.897 73.808C121.396 73.6053 120.974 73.312 120.633 72.928C120.292 72.544 120.036 72.0907 119.865 71.568C119.705 71.0347 119.625 70.4373 119.625 69.776C119.625 69.136 119.716 68.5547 119.897 68.032C120.078 67.4987 120.34 67.04 120.681 66.656C121.033 66.272 121.454 65.9733 121.945 65.76C122.436 65.536 122.996 65.424 123.625 65.424C124.286 65.424 124.857 65.536 125.337 65.76C125.817 65.9733 126.217 66.2667 126.537 66.64C126.868 67.0133 127.113 67.4507 127.273 67.952C127.433 68.4533 127.513 68.9973 127.513 69.584C127.513 69.8613 127.497 70.1333 127.465 70.4H121.449ZM125.737 69.024C125.705 68.3627 125.497 67.8613 125.113 67.52C124.74 67.1787 124.249 67.008 123.641 67.008C123.3 67.008 123.001 67.0613 122.745 67.168C122.489 67.2747 122.27 67.4187 122.089 67.6C121.918 67.7813 121.78 67.9947 121.673 68.24C121.566 68.4853 121.497 68.7467 121.465 69.024H125.737ZM129.164 65.568H131.356L133.9 69.584L136.428 65.568H138.572V74H136.78V67.952L134.108 72.112H133.676L130.956 67.952V74H129.164V65.568ZM146.01 72.96C145.733 73.3547 145.365 73.648 144.906 73.84C144.447 74.0213 143.935 74.112 143.37 74.112C142.922 74.112 142.511 74.0587 142.138 73.952C141.775 73.8453 141.455 73.6853 141.178 73.472C140.901 73.248 140.682 72.976 140.522 72.656C140.362 72.3253 140.282 71.952 140.282 71.536C140.282 71.0773 140.373 70.688 140.554 70.368C140.735 70.0373 140.981 69.7707 141.29 69.568C141.61 69.3653 141.983 69.216 142.41 69.12C142.837 69.0133 143.285 68.96 143.754 68.96H145.914C145.914 68.3413 145.775 67.8613 145.498 67.52C145.221 67.1787 144.735 67.0027 144.042 66.992C143.637 66.992 143.285 67.0613 142.986 67.2C142.698 67.3387 142.506 67.568 142.41 67.888H140.538C140.602 67.44 140.746 67.0613 140.97 66.752C141.205 66.4427 141.482 66.1867 141.802 65.984C142.133 65.7813 142.495 65.6373 142.89 65.552C143.295 65.4667 143.701 65.424 144.106 65.424C144.629 65.424 145.114 65.4933 145.562 65.632C146.01 65.7707 146.399 66.0053 146.73 66.336C147.103 66.72 147.354 67.1787 147.482 67.712C147.61 68.2453 147.674 68.8267 147.674 69.456V74H146.09L146.01 72.96ZM145.914 70.256H144.154C143.845 70.256 143.535 70.2827 143.226 70.336C142.917 70.3787 142.65 70.4907 142.426 70.672C142.213 70.8427 142.106 71.0933 142.106 71.424C142.106 71.8293 142.25 72.1387 142.538 72.352C142.837 72.5547 143.199 72.656 143.626 72.656C143.957 72.656 144.261 72.6133 144.538 72.528C144.826 72.4427 145.071 72.304 145.274 72.112C145.477 71.9093 145.631 71.6587 145.738 71.36C145.855 71.0507 145.914 70.6827 145.914 70.256ZM156.545 74H154.737V71.12H153.217L151.249 74H149.105L151.393 70.832C150.742 70.672 150.246 70.3787 149.905 69.952C149.574 69.5253 149.409 68.9813 149.409 68.32C149.409 67.7973 149.494 67.36 149.665 67.008C149.846 66.656 150.091 66.3733 150.401 66.16C150.721 65.936 151.083 65.7813 151.489 65.696C151.894 65.6107 152.331 65.568 152.801 65.568H156.545V74ZM154.737 67.088H152.929C152.726 67.088 152.523 67.104 152.321 67.136C152.118 67.1573 151.931 67.216 151.761 67.312C151.601 67.3973 151.473 67.52 151.377 67.68C151.281 67.84 151.233 68.032 151.233 68.256C151.233 68.288 151.233 68.3147 151.233 68.336C151.233 68.6133 151.313 68.848 151.473 69.04C151.633 69.232 151.841 69.3707 152.097 69.456C152.353 69.5307 152.587 69.5787 152.801 69.6C153.014 69.6107 153.227 69.616 153.441 69.616H154.737V67.088ZM57.5556 95.112C56.8836 95.112 56.2916 95.0107 55.7796 94.808C55.2782 94.5947 54.8569 94.3013 54.5156 93.928C54.1849 93.544 53.9342 93.0907 53.7636 92.568C53.6036 92.0347 53.5236 91.448 53.5236 90.808C53.5236 90.168 53.6089 89.5813 53.7796 89.048C53.9609 88.5147 54.2276 88.056 54.5796 87.672C54.9316 87.288 55.3582 86.984 55.8596 86.76C56.3609 86.536 56.9422 86.424 57.6036 86.424C58.0729 86.424 58.5049 86.4773 58.8996 86.584C59.3049 86.68 59.6622 86.8453 59.9716 87.08C60.2809 87.304 60.5476 87.592 60.7716 87.944C60.9956 88.2853 61.1502 88.7013 61.2356 89.192H59.3476C59.2516 88.8293 59.0436 88.552 58.7236 88.36C58.4142 88.1573 58.0302 88.056 57.5716 88.056C57.1662 88.056 56.8196 88.1307 56.5316 88.28C56.2436 88.4293 56.0089 88.632 55.8276 88.888C55.6462 89.144 55.5129 89.4427 55.4276 89.784C55.3529 90.1147 55.3156 90.4613 55.3156 90.824C55.3156 91.1973 55.3582 91.5493 55.4436 91.88C55.5289 92.2107 55.6622 92.4987 55.8436 92.744C56.0356 92.9787 56.2756 93.1707 56.5636 93.32C56.8516 93.4587 57.1982 93.528 57.6036 93.528C58.0836 93.528 58.4782 93.4213 58.7876 93.208C59.1076 92.9947 59.3102 92.712 59.3956 92.36H61.2676C61.1822 92.84 61.0222 93.256 60.7876 93.608C60.5636 93.96 60.2862 94.248 59.9556 94.472C59.6249 94.696 59.2569 94.8613 58.8516 94.968C58.4462 95.064 58.0142 95.112 57.5556 95.112ZM69.4039 86.568V88.152H66.5559V95H64.7479V88.152H61.8999V86.568H69.4039ZM75.8929 93.96C75.6156 94.3547 75.2476 94.648 74.7889 94.84C74.3303 95.0213 73.8183 95.112 73.2529 95.112C72.8049 95.112 72.3943 95.0587 72.0209 94.952C71.6583 94.8453 71.3383 94.6853 71.0609 94.472C70.7836 94.248 70.5649 93.976 70.4049 93.656C70.2449 93.3253 70.1649 92.952 70.1649 92.536C70.1649 92.0773 70.2556 91.688 70.4369 91.368C70.6183 91.0373 70.8636 90.7707 71.1729 90.568C71.4929 90.3653 71.8663 90.216 72.2929 90.12C72.7196 90.0133 73.1676 89.96 73.6369 89.96H75.7969C75.7969 89.3413 75.6583 88.8613 75.3809 88.52C75.1036 88.1787 74.6183 88.0027 73.9249 87.992C73.5196 87.992 73.1676 88.0613 72.8689 88.2C72.5809 88.3387 72.3889 88.568 72.2929 88.888H70.4209C70.4849 88.44 70.6289 88.0613 70.8529 87.752C71.0876 87.4427 71.3649 87.1867 71.6849 86.984C72.0156 86.7813 72.3783 86.6373 72.7729 86.552C73.1783 86.4667 73.5836 86.424 73.9889 86.424C74.5116 86.424 74.9969 86.4933 75.4449 86.632C75.8929 86.7707 76.2823 87.0053 76.6129 87.336C76.9863 87.72 77.2369 88.1787 77.3649 88.712C77.4929 89.2453 77.5569 89.8267 77.5569 90.456V95H75.9729L75.8929 93.96ZM75.7969 91.256H74.0369C73.7276 91.256 73.4183 91.2827 73.1089 91.336C72.7996 91.3787 72.5329 91.4907 72.3089 91.672C72.0956 91.8427 71.9889 92.0933 71.9889 92.424C71.9889 92.8293 72.1329 93.1387 72.4209 93.352C72.7196 93.5547 73.0823 93.656 73.5089 93.656C73.8396 93.656 74.1436 93.6133 74.4209 93.528C74.7089 93.4427 74.9543 93.304 75.1569 93.112C75.3596 92.9093 75.5143 92.6587 75.6209 92.36C75.7383 92.0507 75.7969 91.6827 75.7969 91.256ZM84.0754 95V91.592H82.7634L80.8114 95H78.6674L81.3394 90.584L78.8914 86.568H80.9234L82.8914 90.024H84.0754V86.568H85.8834V90.024H87.0674L89.0354 86.568H91.0674L88.6194 90.584L91.2914 95H89.1474L87.1954 91.592H85.8834V95H84.0754ZM94.1177 95H92.4217V86.568H94.2457V92.36L98.5337 86.568H100.182V95H98.3577V89.32C98.347 89.3413 96.9337 91.2347 94.1177 95ZM103.996 98.28H102.172V86.568H103.9L103.996 87.768C104.305 87.3307 104.705 87 105.196 86.776C105.697 86.5413 106.22 86.424 106.764 86.424C107.34 86.424 107.857 86.5307 108.316 86.744C108.774 86.9467 109.164 87.2347 109.484 87.608C109.814 87.9813 110.06 88.4347 110.22 88.968C110.39 89.4907 110.476 90.088 110.476 90.76C110.476 91.3893 110.396 91.9707 110.236 92.504C110.076 93.0373 109.836 93.5013 109.516 93.896C109.206 94.28 108.817 94.5787 108.348 94.792C107.889 95.0053 107.329 95.112 106.668 95.112C106.156 95.112 105.665 95.032 105.196 94.872C104.737 94.7013 104.337 94.424 103.996 94.04V98.28ZM106.38 93.528C106.774 93.528 107.116 93.4587 107.404 93.32C107.692 93.1707 107.926 92.9733 108.108 92.728C108.3 92.4827 108.438 92.1947 108.524 91.864C108.62 91.5333 108.668 91.176 108.668 90.792C108.668 90.408 108.62 90.0507 108.524 89.72C108.438 89.3787 108.3 89.0853 108.108 88.84C107.926 88.5947 107.686 88.4027 107.388 88.264C107.1 88.1253 106.753 88.056 106.348 88.056C105.985 88.056 105.649 88.1307 105.34 88.28C105.041 88.4293 104.79 88.6267 104.588 88.872C104.385 89.1173 104.23 89.4107 104.124 89.752C104.028 90.0827 103.98 90.424 103.98 90.776C103.98 91.16 104.028 91.5227 104.124 91.864C104.22 92.1947 104.364 92.4827 104.556 92.728C104.758 92.9627 105.009 93.1547 105.308 93.304C105.606 93.4533 105.964 93.528 106.38 93.528ZM115.87 86.424C116.542 86.424 117.134 86.5307 117.646 86.744C118.158 86.9573 118.59 87.256 118.942 87.64C119.305 88.0133 119.577 88.4667 119.758 89C119.939 89.5333 120.03 90.1253 120.03 90.776C120.03 91.4373 119.939 92.0347 119.758 92.568C119.587 93.0907 119.326 93.544 118.974 93.928C118.622 94.312 118.185 94.6053 117.662 94.808C117.15 95.0107 116.553 95.112 115.87 95.112C115.198 95.112 114.606 95.0107 114.094 94.808C113.582 94.5947 113.15 94.3013 112.798 93.928C112.457 93.544 112.195 93.0853 112.014 92.552C111.843 92.0187 111.758 91.4267 111.758 90.776C111.758 90.1253 111.843 89.5333 112.014 89C112.195 88.4667 112.462 88.0133 112.814 87.64C113.166 87.256 113.598 86.9573 114.11 86.744C114.622 86.5307 115.209 86.424 115.87 86.424ZM115.87 93.528C116.286 93.528 116.638 93.4587 116.926 93.32C117.225 93.1707 117.465 92.9733 117.646 92.728C117.838 92.4827 117.977 92.1947 118.062 91.864C118.158 91.5333 118.206 91.176 118.206 90.792C118.206 90.408 118.158 90.0507 118.062 89.72C117.977 89.3787 117.838 89.0853 117.646 88.84C117.465 88.5947 117.225 88.4027 116.926 88.264C116.638 88.1253 116.286 88.056 115.87 88.056C115.465 88.056 115.113 88.1253 114.814 88.264C114.526 88.4027 114.286 88.5947 114.094 88.84C113.913 89.0853 113.774 89.3787 113.678 89.72C113.593 90.0507 113.55 90.408 113.55 90.792C113.55 91.176 113.593 91.5333 113.678 91.864C113.774 92.1947 113.913 92.4827 114.094 92.728C114.286 92.9733 114.526 93.1707 114.814 93.32C115.113 93.4587 115.465 93.528 115.87 93.528ZM121.687 86.568H125.287C125.661 86.568 126.039 86.5893 126.423 86.632C126.807 86.664 127.154 86.7547 127.463 86.904C127.783 87.0533 128.039 87.272 128.231 87.56C128.434 87.8373 128.541 88.216 128.551 88.696C128.551 89.0693 128.466 89.416 128.295 89.736C128.125 90.056 127.853 90.3173 127.479 90.52C127.991 90.6587 128.365 90.904 128.599 91.256C128.845 91.5973 128.967 92.008 128.967 92.488C128.967 92.936 128.877 93.3253 128.695 93.656C128.514 93.976 128.274 94.2373 127.975 94.44C127.677 94.632 127.33 94.776 126.935 94.872C126.541 94.9573 126.125 95 125.687 95H121.687V86.568ZM123.527 88.088V90.024H124.631C124.877 90.024 125.127 90.024 125.383 90.024C125.65 90.0133 125.885 89.976 126.087 89.912C126.301 89.848 126.471 89.7467 126.599 89.608C126.738 89.4693 126.807 89.272 126.807 89.016C126.807 88.792 126.754 88.6213 126.647 88.504C126.551 88.376 126.429 88.28 126.279 88.216C126.13 88.152 125.959 88.1147 125.767 88.104C125.586 88.0933 125.415 88.088 125.255 88.088H123.527ZM125.383 93.464C125.597 93.464 125.805 93.4533 126.007 93.432C126.221 93.4107 126.407 93.3627 126.567 93.288C126.738 93.2027 126.877 93.096 126.983 92.968C127.09 92.8293 127.143 92.648 127.143 92.424C127.143 92.0187 127.015 91.7467 126.759 91.608C126.514 91.4693 126.21 91.4 125.847 91.4H123.527V93.464H125.383ZM130.656 95V86.568H132.464V90.008H133.76L135.92 86.568H138L135.328 90.584L138.208 95H136.096L133.872 91.592H132.464V95H130.656ZM144.518 93.96C144.241 94.3547 143.873 94.648 143.414 94.84C142.955 95.0213 142.443 95.112 141.878 95.112C141.43 95.112 141.019 95.0587 140.646 94.952C140.283 94.8453 139.963 94.6853 139.686 94.472C139.409 94.248 139.19 93.976 139.03 93.656C138.87 93.3253 138.79 92.952 138.79 92.536C138.79 92.0773 138.881 91.688 139.062 91.368C139.243 91.0373 139.489 90.7707 139.798 90.568C140.118 90.3653 140.491 90.216 140.918 90.12C141.345 90.0133 141.793 89.96 142.262 89.96H144.422C144.422 89.3413 144.283 88.8613 144.006 88.52C143.729 88.1787 143.243 88.0027 142.55 87.992C142.145 87.992 141.793 88.0613 141.494 88.2C141.206 88.3387 141.014 88.568 140.918 88.888H139.046C139.11 88.44 139.254 88.0613 139.478 87.752C139.713 87.4427 139.99 87.1867 140.31 86.984C140.641 86.7813 141.003 86.6373 141.398 86.552C141.803 86.4667 142.209 86.424 142.614 86.424C143.137 86.424 143.622 86.4933 144.07 86.632C144.518 86.7707 144.907 87.0053 145.238 87.336C145.611 87.72 145.862 88.1787 145.99 88.712C146.118 89.2453 146.182 89.8267 146.182 90.456V95H144.598L144.518 93.96ZM144.422 91.256H142.662C142.353 91.256 142.043 91.2827 141.734 91.336C141.425 91.3787 141.158 91.4907 140.934 91.672C140.721 91.8427 140.614 92.0933 140.614 92.424C140.614 92.8293 140.758 93.1387 141.046 93.352C141.345 93.5547 141.707 93.656 142.134 93.656C142.465 93.656 142.769 93.6133 143.046 93.528C143.334 93.4427 143.579 93.304 143.782 93.112C143.985 92.9093 144.139 92.6587 144.246 92.36C144.363 92.0507 144.422 91.6827 144.422 91.256Z" fill="white"/>
<path d="M46.4379 156.208C45.8405 156.208 45.3232 156.32 44.8859 156.544C44.4592 156.768 44.1072 157.067 43.8299 157.44C43.5525 157.813 43.3445 158.251 43.2059 158.752C43.0779 159.243 43.0139 159.76 43.0139 160.304C43.0139 160.859 43.0832 161.387 43.2219 161.888C43.3605 162.389 43.5685 162.832 43.8459 163.216C44.1339 163.589 44.4965 163.888 44.9339 164.112C45.3712 164.336 45.8885 164.448 46.4859 164.448C47.2219 164.448 47.8352 164.288 48.3259 163.968C48.8272 163.648 49.1419 163.216 49.2699 162.672H51.1259C51.0405 163.216 50.8592 163.701 50.5819 164.128C50.3152 164.555 49.9792 164.917 49.5739 165.216C49.1685 165.504 48.6992 165.728 48.1659 165.888C47.6325 166.037 47.0619 166.112 46.4539 166.112C45.5685 166.112 44.7899 165.968 44.1179 165.68C43.4565 165.392 42.9019 164.992 42.4539 164.48C42.0059 163.968 41.6699 163.36 41.4459 162.656C41.2219 161.952 41.1099 161.179 41.1099 160.336C41.1099 159.515 41.2219 158.752 41.4459 158.048C41.6805 157.333 42.0219 156.72 42.4699 156.208C42.9179 155.685 43.4725 155.28 44.1339 154.992C44.8059 154.693 45.5845 154.544 46.4699 154.544C47.7179 154.544 48.7472 154.837 49.5579 155.424C50.3685 156.011 50.8592 156.875 51.0299 158.016H49.2059C49.0672 157.461 48.7579 157.024 48.2779 156.704C47.7979 156.373 47.1845 156.208 46.4379 156.208ZM59.5368 157.568V159.152H56.6888V166H54.8808V159.152H52.0328V157.568H59.5368ZM66.0258 164.96C65.7484 165.355 65.3804 165.648 64.9218 165.84C64.4631 166.021 63.9511 166.112 63.3858 166.112C62.9378 166.112 62.5271 166.059 62.1538 165.952C61.7911 165.845 61.4711 165.685 61.1938 165.472C60.9164 165.248 60.6978 164.976 60.5378 164.656C60.3778 164.325 60.2978 163.952 60.2978 163.536C60.2978 163.077 60.3884 162.688 60.5698 162.368C60.7511 162.037 60.9964 161.771 61.3058 161.568C61.6258 161.365 61.9991 161.216 62.4258 161.12C62.8524 161.013 63.3004 160.96 63.7698 160.96H65.9298C65.9298 160.341 65.7911 159.861 65.5138 159.52C65.2364 159.179 64.7511 159.003 64.0578 158.992C63.6524 158.992 63.3004 159.061 63.0018 159.2C62.7138 159.339 62.5218 159.568 62.4258 159.888H60.5538C60.6178 159.44 60.7618 159.061 60.9858 158.752C61.2204 158.443 61.4978 158.187 61.8178 157.984C62.1484 157.781 62.5111 157.637 62.9058 157.552C63.3111 157.467 63.7164 157.424 64.1218 157.424C64.6444 157.424 65.1298 157.493 65.5778 157.632C66.0258 157.771 66.4151 158.005 66.7458 158.336C67.1191 158.72 67.3698 159.179 67.4978 159.712C67.6258 160.245 67.6898 160.827 67.6898 161.456V166H66.1058L66.0258 164.96ZM65.9298 162.256H64.1698C63.8604 162.256 63.5511 162.283 63.2418 162.336C62.9324 162.379 62.6658 162.491 62.4418 162.672C62.2284 162.843 62.1218 163.093 62.1218 163.424C62.1218 163.829 62.2658 164.139 62.5538 164.352C62.8524 164.555 63.2151 164.656 63.6418 164.656C63.9724 164.656 64.2764 164.613 64.5538 164.528C64.8418 164.443 65.0871 164.304 65.2898 164.112C65.4924 163.909 65.6471 163.659 65.7538 163.36C65.8711 163.051 65.9298 162.683 65.9298 162.256ZM74.2083 166V162.592H72.8963L70.9443 166H68.8003L71.4723 161.584L69.0243 157.568H71.0563L73.0243 161.024H74.2083V157.568H76.0163V161.024H77.2003L79.1683 157.568H81.2003L78.7523 161.584L81.4243 166H79.2803L77.3283 162.592H76.0163V166H74.2083ZM84.2505 166H82.5545V157.568H84.3785V163.36L88.6665 157.568H90.3145V166H88.4905V160.32C88.4798 160.341 87.0665 162.235 84.2505 166ZM94.1285 169.28H92.3045V157.568H94.0325L94.1285 158.768C94.4378 158.331 94.8378 158 95.3285 157.776C95.8298 157.541 96.3525 157.424 96.8965 157.424C97.4725 157.424 97.9898 157.531 98.4485 157.744C98.9072 157.947 99.2965 158.235 99.6165 158.608C99.9472 158.981 100.193 159.435 100.352 159.968C100.523 160.491 100.609 161.088 100.609 161.76C100.609 162.389 100.529 162.971 100.369 163.504C100.209 164.037 99.9685 164.501 99.6485 164.896C99.3392 165.28 98.9498 165.579 98.4805 165.792C98.0218 166.005 97.4618 166.112 96.8005 166.112C96.2885 166.112 95.7978 166.032 95.3285 165.872C94.8698 165.701 94.4698 165.424 94.1285 165.04V169.28ZM96.5125 164.528C96.9072 164.528 97.2485 164.459 97.5365 164.32C97.8245 164.171 98.0592 163.973 98.2405 163.728C98.4325 163.483 98.5712 163.195 98.6565 162.864C98.7525 162.533 98.8005 162.176 98.8005 161.792C98.8005 161.408 98.7525 161.051 98.6565 160.72C98.5712 160.379 98.4325 160.085 98.2405 159.84C98.0592 159.595 97.8192 159.403 97.5205 159.264C97.2325 159.125 96.8858 159.056 96.4805 159.056C96.1178 159.056 95.7818 159.131 95.4725 159.28C95.1738 159.429 94.9232 159.627 94.7205 159.872C94.5178 160.117 94.3632 160.411 94.2565 160.752C94.1605 161.083 94.1125 161.424 94.1125 161.776C94.1125 162.16 94.1605 162.523 94.2565 162.864C94.3525 163.195 94.4965 163.483 94.6885 163.728C94.8912 163.963 95.1418 164.155 95.4405 164.304C95.7392 164.453 96.0965 164.528 96.5125 164.528ZM106.003 157.424C106.675 157.424 107.267 157.531 107.779 157.744C108.291 157.957 108.723 158.256 109.075 158.64C109.437 159.013 109.709 159.467 109.891 160C110.072 160.533 110.163 161.125 110.163 161.776C110.163 162.437 110.072 163.035 109.891 163.568C109.72 164.091 109.459 164.544 109.107 164.928C108.755 165.312 108.317 165.605 107.795 165.808C107.283 166.011 106.685 166.112 106.003 166.112C105.331 166.112 104.739 166.011 104.227 165.808C103.715 165.595 103.283 165.301 102.931 164.928C102.589 164.544 102.328 164.085 102.147 163.552C101.976 163.019 101.891 162.427 101.891 161.776C101.891 161.125 101.976 160.533 102.147 160C102.328 159.467 102.595 159.013 102.947 158.64C103.299 158.256 103.731 157.957 104.243 157.744C104.755 157.531 105.341 157.424 106.003 157.424ZM106.003 164.528C106.419 164.528 106.771 164.459 107.059 164.32C107.357 164.171 107.597 163.973 107.779 163.728C107.971 163.483 108.109 163.195 108.195 162.864C108.291 162.533 108.339 162.176 108.339 161.792C108.339 161.408 108.291 161.051 108.195 160.72C108.109 160.379 107.971 160.085 107.779 159.84C107.597 159.595 107.357 159.403 107.059 159.264C106.771 159.125 106.419 159.056 106.003 159.056C105.597 159.056 105.245 159.125 104.947 159.264C104.659 159.403 104.419 159.595 104.227 159.84C104.045 160.085 103.907 160.379 103.811 160.72C103.725 161.051 103.683 161.408 103.683 161.792C103.683 162.176 103.725 162.533 103.811 162.864C103.907 163.195 104.045 163.483 104.227 163.728C104.419 163.973 104.659 164.171 104.947 164.32C105.245 164.459 105.597 164.528 106.003 164.528ZM111.82 157.568H115.42C115.793 157.568 116.172 157.589 116.556 157.632C116.94 157.664 117.287 157.755 117.596 157.904C117.916 158.053 118.172 158.272 118.364 158.56C118.567 158.837 118.673 159.216 118.684 159.696C118.684 160.069 118.599 160.416 118.428 160.736C118.257 161.056 117.985 161.317 117.612 161.52C118.124 161.659 118.497 161.904 118.732 162.256C118.977 162.597 119.1 163.008 119.1 163.488C119.1 163.936 119.009 164.325 118.828 164.656C118.647 164.976 118.407 165.237 118.108 165.44C117.809 165.632 117.463 165.776 117.068 165.872C116.673 165.957 116.257 166 115.82 166H111.82V157.568ZM113.66 159.088V161.024H114.764C115.009 161.024 115.26 161.024 115.516 161.024C115.783 161.013 116.017 160.976 116.22 160.912C116.433 160.848 116.604 160.747 116.732 160.608C116.871 160.469 116.94 160.272 116.94 160.016C116.94 159.792 116.887 159.621 116.78 159.504C116.684 159.376 116.561 159.28 116.412 159.216C116.263 159.152 116.092 159.115 115.9 159.104C115.719 159.093 115.548 159.088 115.388 159.088H113.66ZM115.516 164.464C115.729 164.464 115.937 164.453 116.14 164.432C116.353 164.411 116.54 164.363 116.7 164.288C116.871 164.203 117.009 164.096 117.116 163.968C117.223 163.829 117.276 163.648 117.276 163.424C117.276 163.019 117.148 162.747 116.892 162.608C116.647 162.469 116.343 162.4 115.98 162.4H113.66V164.464H115.516ZM120.789 166V157.568H122.597V161.008H123.893L126.053 157.568H128.133L125.461 161.584L128.341 166H126.229L124.005 162.592H122.597V166H120.789ZM134.651 164.96C134.373 165.355 134.005 165.648 133.547 165.84C133.088 166.021 132.576 166.112 132.011 166.112C131.563 166.112 131.152 166.059 130.779 165.952C130.416 165.845 130.096 165.685 129.819 165.472C129.541 165.248 129.323 164.976 129.163 164.656C129.003 164.325 128.923 163.952 128.923 163.536C128.923 163.077 129.013 162.688 129.195 162.368C129.376 162.037 129.621 161.771 129.931 161.568C130.251 161.365 130.624 161.216 131.051 161.12C131.477 161.013 131.925 160.96 132.395 160.96H134.555C134.555 160.341 134.416 159.861 134.139 159.52C133.861 159.179 133.376 159.003 132.683 158.992C132.277 158.992 131.925 159.061 131.627 159.2C131.339 159.339 131.147 159.568 131.051 159.888H129.179C129.243 159.44 129.387 159.061 129.611 158.752C129.845 158.443 130.123 158.187 130.443 157.984C130.773 157.781 131.136 157.637 131.531 157.552C131.936 157.467 132.341 157.424 132.747 157.424C133.269 157.424 133.755 157.493 134.203 157.632C134.651 157.771 135.04 158.005 135.371 158.336C135.744 158.72 135.995 159.179 136.123 159.712C136.251 160.245 136.315 160.827 136.315 161.456V166H134.731L134.651 164.96ZM134.555 162.256H132.795C132.485 162.256 132.176 162.283 131.867 162.336C131.557 162.379 131.291 162.491 131.067 162.672C130.853 162.843 130.747 163.093 130.747 163.424C130.747 163.829 130.891 164.139 131.179 164.352C131.477 164.555 131.84 164.656 132.267 164.656C132.597 164.656 132.901 164.613 133.179 164.528C133.467 164.443 133.712 164.304 133.915 164.112C134.117 163.909 134.272 163.659 134.379 163.36C134.496 163.051 134.555 162.683 134.555 162.256ZM146.298 166.112C145.626 166.112 145.034 166.011 144.522 165.808C144.02 165.595 143.599 165.301 143.258 164.928C142.927 164.544 142.676 164.091 142.506 163.568C142.346 163.035 142.266 162.448 142.266 161.808C142.266 161.168 142.351 160.581 142.522 160.048C142.703 159.515 142.97 159.056 143.322 158.672C143.674 158.288 144.1 157.984 144.602 157.76C145.103 157.536 145.684 157.424 146.346 157.424C146.815 157.424 147.247 157.477 147.642 157.584C148.047 157.68 148.404 157.845 148.714 158.08C149.023 158.304 149.29 158.592 149.514 158.944C149.738 159.285 149.892 159.701 149.978 160.192H148.09C147.994 159.829 147.786 159.552 147.466 159.36C147.156 159.157 146.772 159.056 146.314 159.056C145.908 159.056 145.562 159.131 145.274 159.28C144.986 159.429 144.751 159.632 144.57 159.888C144.388 160.144 144.255 160.443 144.17 160.784C144.095 161.115 144.058 161.461 144.058 161.824C144.058 162.197 144.1 162.549 144.186 162.88C144.271 163.211 144.404 163.499 144.586 163.744C144.778 163.979 145.018 164.171 145.306 164.32C145.594 164.459 145.94 164.528 146.346 164.528C146.826 164.528 147.22 164.421 147.53 164.208C147.85 163.995 148.052 163.712 148.138 163.36H150.01C149.924 163.84 149.764 164.256 149.53 164.608C149.306 164.96 149.028 165.248 148.698 165.472C148.367 165.696 147.999 165.861 147.594 165.968C147.188 166.064 146.756 166.112 146.298 166.112ZM45.6717 187V178.568H47.4957V182.04H51.2397V178.568H53.0637V187H51.2397V183.624H47.4957V187H45.6717ZM60.4867 185.96C60.2094 186.355 59.8414 186.648 59.3827 186.84C58.924 187.021 58.412 187.112 57.8467 187.112C57.3987 187.112 56.988 187.059 56.6147 186.952C56.252 186.845 55.932 186.685 55.6547 186.472C55.3774 186.248 55.1587 185.976 54.9987 185.656C54.8387 185.325 54.7587 184.952 54.7587 184.536C54.7587 184.077 54.8494 183.688 55.0307 183.368C55.212 183.037 55.4574 182.771 55.7667 182.568C56.0867 182.365 56.46 182.216 56.8867 182.12C57.3134 182.013 57.7614 181.96 58.2307 181.96H60.3907C60.3907 181.341 60.252 180.861 59.9747 180.52C59.6974 180.179 59.212 180.003 58.5187 179.992C58.1134 179.992 57.7614 180.061 57.4627 180.2C57.1747 180.339 56.9827 180.568 56.8867 180.888H55.0147C55.0787 180.44 55.2227 180.061 55.4467 179.752C55.6814 179.443 55.9587 179.187 56.2787 178.984C56.6094 178.781 56.972 178.637 57.3667 178.552C57.772 178.467 58.1774 178.424 58.5827 178.424C59.1054 178.424 59.5907 178.493 60.0387 178.632C60.4867 178.771 60.876 179.005 61.2067 179.336C61.58 179.72 61.8307 180.179 61.9587 180.712C62.0867 181.245 62.1507 181.827 62.1507 182.456V187H60.5667L60.4867 185.96ZM60.3907 183.256H58.6307C58.3214 183.256 58.012 183.283 57.7027 183.336C57.3934 183.379 57.1267 183.491 56.9027 183.672C56.6894 183.843 56.5827 184.093 56.5827 184.424C56.5827 184.829 56.7267 185.139 57.0147 185.352C57.3134 185.555 57.676 185.656 58.1027 185.656C58.4334 185.656 58.7374 185.613 59.0147 185.528C59.3027 185.443 59.548 185.304 59.7507 185.112C59.9534 184.909 60.108 184.659 60.2147 184.36C60.332 184.051 60.3907 183.683 60.3907 183.256ZM67.8212 187.112C67.1492 187.112 66.5572 187.011 66.0452 186.808C65.5439 186.595 65.1225 186.301 64.7812 185.928C64.4505 185.544 64.1999 185.091 64.0292 184.568C63.8692 184.035 63.7892 183.448 63.7892 182.808C63.7892 182.168 63.8745 181.581 64.0452 181.048C64.2265 180.515 64.4932 180.056 64.8452 179.672C65.1972 179.288 65.6239 178.984 66.1252 178.76C66.6265 178.536 67.2079 178.424 67.8692 178.424C68.3385 178.424 68.7705 178.477 69.1652 178.584C69.5705 178.68 69.9279 178.845 70.2372 179.08C70.5465 179.304 70.8132 179.592 71.0372 179.944C71.2612 180.285 71.4159 180.701 71.5012 181.192H69.6132C69.5172 180.829 69.3092 180.552 68.9892 180.36C68.6799 180.157 68.2959 180.056 67.8372 180.056C67.4319 180.056 67.0852 180.131 66.7972 180.28C66.5092 180.429 66.2745 180.632 66.0932 180.888C65.9119 181.144 65.7785 181.443 65.6932 181.784C65.6185 182.115 65.5812 182.461 65.5812 182.824C65.5812 183.197 65.6239 183.549 65.7092 183.88C65.7945 184.211 65.9279 184.499 66.1092 184.744C66.3012 184.979 66.5412 185.171 66.8292 185.32C67.1172 185.459 67.4639 185.528 67.8692 185.528C68.3492 185.528 68.7439 185.421 69.0532 185.208C69.3732 184.995 69.5759 184.712 69.6612 184.36H71.5332C71.4479 184.84 71.2879 185.256 71.0532 185.608C70.8292 185.96 70.5519 186.248 70.2212 186.472C69.8905 186.696 69.5225 186.861 69.1172 186.968C68.7119 187.064 68.2799 187.112 67.8212 187.112ZM79.6696 178.568V180.152H76.8216V187H75.0136V180.152H72.1656V178.568H79.6696ZM86.1586 185.96C85.8812 186.355 85.5132 186.648 85.0546 186.84C84.5959 187.021 84.0839 187.112 83.5186 187.112C83.0706 187.112 82.6599 187.059 82.2866 186.952C81.9239 186.845 81.6039 186.685 81.3266 186.472C81.0492 186.248 80.8306 185.976 80.6706 185.656C80.5106 185.325 80.4306 184.952 80.4306 184.536C80.4306 184.077 80.5212 183.688 80.7026 183.368C80.8839 183.037 81.1292 182.771 81.4386 182.568C81.7586 182.365 82.1319 182.216 82.5586 182.12C82.9852 182.013 83.4332 181.96 83.9026 181.96H86.0626C86.0626 181.341 85.9239 180.861 85.6466 180.52C85.3692 180.179 84.8839 180.003 84.1906 179.992C83.7852 179.992 83.4332 180.061 83.1346 180.2C82.8466 180.339 82.6546 180.568 82.5586 180.888H80.6866C80.7506 180.44 80.8946 180.061 81.1186 179.752C81.3532 179.443 81.6306 179.187 81.9506 178.984C82.2812 178.781 82.6439 178.637 83.0386 178.552C83.4439 178.467 83.8492 178.424 84.2546 178.424C84.7772 178.424 85.2626 178.493 85.7106 178.632C86.1586 178.771 86.5479 179.005 86.8786 179.336C87.2519 179.72 87.5026 180.179 87.6306 180.712C87.7586 181.245 87.8226 181.827 87.8226 182.456V187H86.2386L86.1586 185.96ZM86.0626 183.256H84.3026C83.9932 183.256 83.6839 183.283 83.3746 183.336C83.0652 183.379 82.7986 183.491 82.5746 183.672C82.3612 183.843 82.2546 184.093 82.2546 184.424C82.2546 184.829 82.3986 185.139 82.6866 185.352C82.9852 185.555 83.3479 185.656 83.7746 185.656C84.1052 185.656 84.4092 185.613 84.6866 185.528C84.9746 185.443 85.2199 185.304 85.4226 185.112C85.6252 184.909 85.7799 184.659 85.8866 184.36C86.0039 184.051 86.0626 183.683 86.0626 183.256ZM89.7811 178.568H93.3811C93.7544 178.568 94.1331 178.589 94.5171 178.632C94.9011 178.664 95.2477 178.755 95.5571 178.904C95.8771 179.053 96.1331 179.272 96.3251 179.56C96.5277 179.837 96.6344 180.216 96.6451 180.696C96.6451 181.069 96.5597 181.416 96.3891 181.736C96.2184 182.056 95.9464 182.317 95.5731 182.52C96.0851 182.659 96.4584 182.904 96.6931 183.256C96.9384 183.597 97.0611 184.008 97.0611 184.488C97.0611 184.936 96.9704 185.325 96.7891 185.656C96.6077 185.976 96.3677 186.237 96.0691 186.44C95.7704 186.632 95.4237 186.776 95.0291 186.872C94.6344 186.957 94.2184 187 93.7811 187H89.7811V178.568ZM91.6211 180.088V182.024H92.7251C92.9704 182.024 93.2211 182.024 93.4771 182.024C93.7437 182.013 93.9784 181.976 94.1811 181.912C94.3944 181.848 94.5651 181.747 94.6931 181.608C94.8317 181.469 94.9011 181.272 94.9011 181.016C94.9011 180.792 94.8477 180.621 94.7411 180.504C94.6451 180.376 94.5224 180.28 94.3731 180.216C94.2237 180.152 94.0531 180.115 93.8611 180.104C93.6797 180.093 93.5091 180.088 93.3491 180.088H91.6211ZM93.4771 185.464C93.6904 185.464 93.8984 185.453 94.1011 185.432C94.3144 185.411 94.5011 185.363 94.6611 185.288C94.8317 185.203 94.9704 185.096 95.0771 184.968C95.1837 184.829 95.2371 184.648 95.2371 184.424C95.2371 184.019 95.1091 183.747 94.8531 183.608C94.6077 183.469 94.3037 183.4 93.9411 183.4H91.6211V185.464H93.4771ZM98.7498 187V178.568H100.574V182.04H104.318V178.568H106.142V187H104.318V183.624H100.574V187H98.7498ZM109.821 187H108.125V178.568H109.949V184.36L114.237 178.568H115.885V187H114.061V181.32C114.05 181.341 112.637 183.235 109.821 187ZM117.875 187V178.568H119.683V182.008H120.979L123.139 178.568H125.219L122.547 182.584L125.427 187H123.315L121.091 183.592H119.683V187H117.875ZM130.089 178.424C130.761 178.424 131.353 178.531 131.865 178.744C132.377 178.957 132.809 179.256 133.161 179.64C133.523 180.013 133.795 180.467 133.977 181C134.158 181.533 134.249 182.125 134.249 182.776C134.249 183.437 134.158 184.035 133.977 184.568C133.806 185.091 133.545 185.544 133.193 185.928C132.841 186.312 132.403 186.605 131.881 186.808C131.369 187.011 130.771 187.112 130.089 187.112C129.417 187.112 128.825 187.011 128.313 186.808C127.801 186.595 127.369 186.301 127.017 185.928C126.675 185.544 126.414 185.085 126.233 184.552C126.062 184.019 125.977 183.427 125.977 182.776C125.977 182.125 126.062 181.533 126.233 181C126.414 180.467 126.681 180.013 127.033 179.64C127.385 179.256 127.817 178.957 128.329 178.744C128.841 178.531 129.427 178.424 130.089 178.424ZM130.089 185.528C130.505 185.528 130.857 185.459 131.145 185.32C131.443 185.171 131.683 184.973 131.865 184.728C132.057 184.483 132.195 184.195 132.281 183.864C132.377 183.533 132.425 183.176 132.425 182.792C132.425 182.408 132.377 182.051 132.281 181.72C132.195 181.379 132.057 181.085 131.865 180.84C131.683 180.595 131.443 180.403 131.145 180.264C130.857 180.125 130.505 180.056 130.089 180.056C129.683 180.056 129.331 180.125 129.033 180.264C128.745 180.403 128.505 180.595 128.313 180.84C128.131 181.085 127.993 181.379 127.897 181.72C127.811 182.051 127.769 182.408 127.769 182.792C127.769 183.176 127.811 183.533 127.897 183.864C127.993 184.195 128.131 184.483 128.313 184.728C128.505 184.973 128.745 185.171 129.033 185.32C129.331 185.459 129.683 185.528 130.089 185.528ZM135.906 178.568H138.098L140.642 182.584L143.17 178.568H145.314V187H143.522V180.952L140.85 185.112H140.418L137.698 180.952V187H135.906V178.568Z" fill="#0260A2"/>
</svg>
