<svg width="200" height="362" viewBox="0 0 200 362" fill="none" xmlns="http://www.w3.org/2000/svg">
<path d="M200 14H0V0H200V14Z" fill="#E6E6E6"/>
<path d="M4.19617e-05 14H37.3738V0H4.19617e-05V14Z" fill="#C7C6C6"/>
<rect width="200" height="328" transform="matrix(-1 0 0 1 200 34)" fill="white"/>
<rect x="10" y="49" width="180" height="50" rx="3" fill="#0260A2"/>
<path d="M47.144 79.612C46.2587 79.612 45.4747 79.468 44.792 79.18C44.12 78.8813 43.5547 78.476 43.096 77.964C42.6373 77.452 42.2853 76.844 42.04 76.14C41.8053 75.436 41.688 74.668 41.688 73.836C41.688 72.9933 41.8107 72.22 42.056 71.516C42.3013 70.8013 42.6533 70.188 43.112 69.676C43.5813 69.164 44.152 68.764 44.824 68.476C45.5067 68.188 46.2853 68.044 47.16 68.044C48.0347 68.044 48.808 68.188 49.48 68.476C50.1627 68.7533 50.7333 69.148 51.192 69.66C51.6613 70.172 52.0133 70.7853 52.248 71.5C52.4933 72.204 52.616 72.9773 52.616 73.82C52.616 74.652 52.4933 75.4253 52.248 76.14C52.0133 76.844 51.6613 77.452 51.192 77.964C50.7333 78.476 50.1627 78.8813 49.48 79.18C48.7973 79.468 48.0187 79.612 47.144 79.612ZM47.16 69.708C46.552 69.708 46.024 69.82 45.576 70.044C45.1387 70.268 44.7707 70.5667 44.472 70.94C44.1733 71.3133 43.9493 71.7507 43.8 72.252C43.6613 72.7533 43.592 73.276 43.592 73.82C43.592 74.364 43.6613 74.8867 43.8 75.388C43.9493 75.8787 44.168 76.316 44.456 76.7C44.7547 77.084 45.128 77.388 45.576 77.612C46.024 77.836 46.552 77.948 47.16 77.948C47.7573 77.948 48.28 77.8413 48.728 77.628C49.176 77.404 49.544 77.1053 49.832 76.732C50.1307 76.3587 50.3493 75.9267 50.488 75.436C50.6373 74.9347 50.712 74.4013 50.712 73.836C50.712 73.2813 50.6373 72.7587 50.488 72.268C50.3493 71.7667 50.1307 71.3293 49.832 70.956C49.544 70.572 49.176 70.268 48.728 70.044C48.2907 69.82 47.768 69.708 47.16 69.708ZM61.0211 71.068V72.652H58.1731V79.5H56.3651V72.652H53.5171V71.068H61.0211ZM74.4946 76.332C74.4946 76.9507 74.372 77.4733 74.1266 77.9C73.892 78.316 73.5773 78.652 73.1826 78.908C72.7986 79.164 72.3613 79.3507 71.8706 79.468C71.38 79.5747 70.8786 79.628 70.3666 79.628C69.844 79.628 69.332 79.5693 68.8306 79.452C68.34 79.3347 67.8973 79.148 67.5026 78.892C67.1186 78.6253 66.8093 78.284 66.5746 77.868C66.34 77.452 66.2226 76.94 66.2226 76.332C66.2226 75.6813 66.3666 75.116 66.6546 74.636C66.9533 74.156 67.4226 73.7933 68.0626 73.548C67.7853 73.4093 67.5506 73.244 67.3586 73.052C67.1773 72.86 67.028 72.6573 66.9106 72.444C66.804 72.22 66.724 71.9907 66.6706 71.756C66.628 71.5213 66.6066 71.2973 66.6066 71.084C66.6066 70.54 66.708 70.076 66.9106 69.692C67.124 69.308 67.4066 68.9933 67.7586 68.748C68.1106 68.5027 68.5106 68.3267 68.9586 68.22C69.4173 68.1027 69.892 68.044 70.3826 68.044C70.8626 68.044 71.3266 68.1027 71.7746 68.22C72.2333 68.3267 72.6333 68.5027 72.9746 68.748C73.3266 68.9933 73.604 69.308 73.8066 69.692C74.02 70.076 74.1266 70.54 74.1266 71.084C74.1266 71.2973 74.1 71.5213 74.0466 71.756C73.9933 71.9907 73.908 72.2147 73.7906 72.428C73.684 72.6413 73.5346 72.844 73.3426 73.036C73.1506 73.228 72.9213 73.388 72.6546 73.516C73.2946 73.7613 73.7586 74.1293 74.0466 74.62C74.3453 75.1107 74.4946 75.6813 74.4946 76.332ZM70.3666 69.676C70.1106 69.676 69.8653 69.708 69.6306 69.772C69.396 69.8253 69.188 69.916 69.0066 70.044C68.836 70.172 68.6973 70.3427 68.5906 70.556C68.4946 70.7587 68.4466 71.004 68.4466 71.292C68.4466 71.868 68.628 72.2947 68.9906 72.572C69.364 72.8387 69.8226 72.972 70.3666 72.972C70.6226 72.972 70.868 72.94 71.1026 72.876C71.3373 72.812 71.54 72.716 71.7106 72.588C71.8813 72.4493 72.0146 72.2787 72.1106 72.076C72.2173 71.8733 72.2706 71.6333 72.2706 71.356C72.2706 71.0573 72.2173 70.8013 72.1106 70.588C72.0146 70.3747 71.8813 70.1987 71.7106 70.06C71.54 69.9213 71.3373 69.8253 71.1026 69.772C70.868 69.708 70.6226 69.676 70.3666 69.676ZM70.3506 74.46C70.0626 74.46 69.78 74.492 69.5026 74.556C69.236 74.62 68.996 74.7213 68.7826 74.86C68.5693 74.9987 68.3986 75.18 68.2706 75.404C68.1426 75.628 68.0786 75.9 68.0786 76.22C68.0786 76.572 68.1533 76.8653 68.3026 77.1C68.452 77.324 68.6386 77.5053 68.8626 77.644C69.0866 77.772 69.332 77.8627 69.5986 77.916C69.8653 77.9693 70.1213 77.996 70.3666 77.996C70.612 77.996 70.868 77.9693 71.1346 77.916C71.4013 77.8627 71.6413 77.772 71.8546 77.644C72.0786 77.5053 72.26 77.324 72.3986 77.1C72.548 76.8653 72.6226 76.572 72.6226 76.22C72.6226 75.9 72.5586 75.628 72.4306 75.404C72.3026 75.18 72.132 74.9987 71.9186 74.86C71.7053 74.7213 71.46 74.62 71.1826 74.556C70.916 74.492 70.6386 74.46 70.3506 74.46ZM85.0241 73.836C85.0241 74.7 84.9335 75.4893 84.7521 76.204C84.5815 76.908 84.3095 77.5107 83.9361 78.012C83.5735 78.5133 83.1148 78.9027 82.5601 79.18C82.0055 79.4573 81.3495 79.596 80.5921 79.596C79.8348 79.596 79.1788 79.4627 78.6241 79.196C78.0695 78.9187 77.6108 78.5347 77.2481 78.044C76.8855 77.5533 76.6135 76.9613 76.4321 76.268C76.2508 75.5747 76.1601 74.8013 76.1601 73.948C76.1601 73.0733 76.2455 72.2733 76.4161 71.548C76.5868 70.8227 76.8535 70.1987 77.2161 69.676C77.5788 69.1533 78.0375 68.7533 78.5921 68.476C79.1575 68.188 79.8241 68.044 80.5921 68.044C81.3388 68.044 81.9895 68.1827 82.5441 68.46C83.0988 68.7373 83.5575 69.132 83.9201 69.644C84.2935 70.156 84.5708 70.7693 84.7521 71.484C84.9335 72.188 85.0241 72.972 85.0241 73.836ZM78.0001 73.836C78.0001 74.4227 78.0428 74.9667 78.1281 75.468C78.2135 75.9693 78.3575 76.4067 78.5601 76.78C78.7628 77.1427 79.0295 77.4307 79.3601 77.644C79.6908 77.8467 80.1015 77.948 80.5921 77.948C81.0721 77.948 81.4775 77.8467 81.8081 77.644C82.1388 77.4307 82.4055 77.1427 82.6081 76.78C82.8108 76.4067 82.9548 75.9693 83.0401 75.468C83.1255 74.9667 83.1681 74.4227 83.1681 73.836C83.1681 73.26 83.1255 72.7213 83.0401 72.22C82.9548 71.708 82.8108 71.2707 82.6081 70.908C82.4055 70.5347 82.1388 70.2413 81.8081 70.028C81.4775 69.8147 81.0721 69.708 80.5921 69.708C80.1015 69.708 79.6908 69.8147 79.3601 70.028C79.0295 70.2413 78.7628 70.5347 78.5601 70.908C78.3575 71.2707 78.2135 71.708 78.1281 72.22C78.0428 72.7213 78.0001 73.26 78.0001 73.836ZM99.8523 73.836C99.8523 74.7 99.7616 75.4893 99.5803 76.204C99.4096 76.908 99.1376 77.5107 98.7643 78.012C98.4016 78.5133 97.9429 78.9027 97.3883 79.18C96.8336 79.4573 96.1776 79.596 95.4203 79.596C94.6629 79.596 94.0069 79.4627 93.4523 79.196C92.8976 78.9187 92.4389 78.5347 92.0763 78.044C91.7136 77.5533 91.4416 76.9613 91.2603 76.268C91.0789 75.5747 90.9883 74.8013 90.9883 73.948C90.9883 73.0733 91.0736 72.2733 91.2443 71.548C91.4149 70.8227 91.6816 70.1987 92.0443 69.676C92.4069 69.1533 92.8656 68.7533 93.4203 68.476C93.9856 68.188 94.6523 68.044 95.4203 68.044C96.1669 68.044 96.8176 68.1827 97.3723 68.46C97.9269 68.7373 98.3856 69.132 98.7483 69.644C99.1216 70.156 99.3989 70.7693 99.5803 71.484C99.7616 72.188 99.8523 72.972 99.8523 73.836ZM92.8283 73.836C92.8283 74.4227 92.8709 74.9667 92.9563 75.468C93.0416 75.9693 93.1856 76.4067 93.3883 76.78C93.5909 77.1427 93.8576 77.4307 94.1883 77.644C94.5189 77.8467 94.9296 77.948 95.4203 77.948C95.9003 77.948 96.3056 77.8467 96.6363 77.644C96.9669 77.4307 97.2336 77.1427 97.4363 76.78C97.6389 76.4067 97.7829 75.9693 97.8683 75.468C97.9536 74.9667 97.9963 74.4227 97.9963 73.836C97.9963 73.26 97.9536 72.7213 97.8683 72.22C97.7829 71.708 97.6389 71.2707 97.4363 70.908C97.2336 70.5347 96.9669 70.2413 96.6363 70.028C96.3056 69.8147 95.9003 69.708 95.4203 69.708C94.9296 69.708 94.5189 69.8147 94.1883 70.028C93.8576 70.2413 93.5909 70.5347 93.3883 70.908C93.1856 71.2707 93.0416 71.708 92.9563 72.22C92.8709 72.7213 92.8283 73.26 92.8283 73.836ZM110.368 73.836C110.368 74.7 110.277 75.4893 110.096 76.204C109.925 76.908 109.653 77.5107 109.28 78.012C108.917 78.5133 108.459 78.9027 107.904 79.18C107.349 79.4573 106.693 79.596 105.936 79.596C105.179 79.596 104.523 79.4627 103.968 79.196C103.413 78.9187 102.955 78.5347 102.592 78.044C102.229 77.5533 101.957 76.9613 101.776 76.268C101.595 75.5747 101.504 74.8013 101.504 73.948C101.504 73.0733 101.589 72.2733 101.76 71.548C101.931 70.8227 102.197 70.1987 102.56 69.676C102.923 69.1533 103.381 68.7533 103.936 68.476C104.501 68.188 105.168 68.044 105.936 68.044C106.683 68.044 107.333 68.1827 107.888 68.46C108.443 68.7373 108.901 69.132 109.264 69.644C109.637 70.156 109.915 70.7693 110.096 71.484C110.277 72.188 110.368 72.972 110.368 73.836ZM103.344 73.836C103.344 74.4227 103.387 74.9667 103.472 75.468C103.557 75.9693 103.701 76.4067 103.904 76.78C104.107 77.1427 104.373 77.4307 104.704 77.644C105.035 77.8467 105.445 77.948 105.936 77.948C106.416 77.948 106.821 77.8467 107.152 77.644C107.483 77.4307 107.749 77.1427 107.952 76.78C108.155 76.4067 108.299 75.9693 108.384 75.468C108.469 74.9667 108.512 74.4227 108.512 73.836C108.512 73.26 108.469 72.7213 108.384 72.22C108.299 71.708 108.155 71.2707 107.952 70.908C107.749 70.5347 107.483 70.2413 107.152 70.028C106.821 69.8147 106.416 69.708 105.936 69.708C105.445 69.708 105.035 69.8147 104.704 70.028C104.373 70.2413 104.107 70.5347 103.904 70.908C103.701 71.2707 103.557 71.708 103.472 72.22C103.387 72.7213 103.344 73.26 103.344 73.836ZM120.884 73.836C120.884 74.7 120.793 75.4893 120.612 76.204C120.441 76.908 120.169 77.5107 119.796 78.012C119.433 78.5133 118.974 78.9027 118.42 79.18C117.865 79.4573 117.209 79.596 116.452 79.596C115.694 79.596 115.038 79.4627 114.484 79.196C113.929 78.9187 113.47 78.5347 113.108 78.044C112.745 77.5533 112.473 76.9613 112.292 76.268C112.11 75.5747 112.02 74.8013 112.02 73.948C112.02 73.0733 112.105 72.2733 112.276 71.548C112.446 70.8227 112.713 70.1987 113.076 69.676C113.438 69.1533 113.897 68.7533 114.452 68.476C115.017 68.188 115.684 68.044 116.452 68.044C117.198 68.044 117.849 68.1827 118.404 68.46C118.958 68.7373 119.417 69.132 119.78 69.644C120.153 70.156 120.43 70.7693 120.612 71.484C120.793 72.188 120.884 72.972 120.884 73.836ZM113.86 73.836C113.86 74.4227 113.902 74.9667 113.988 75.468C114.073 75.9693 114.217 76.4067 114.42 76.78C114.622 77.1427 114.889 77.4307 115.22 77.644C115.55 77.8467 115.961 77.948 116.452 77.948C116.932 77.948 117.337 77.8467 117.668 77.644C117.998 77.4307 118.265 77.1427 118.468 76.78C118.67 76.4067 118.814 75.9693 118.9 75.468C118.985 74.9667 119.028 74.4227 119.028 73.836C119.028 73.26 118.985 72.7213 118.9 72.22C118.814 71.708 118.67 71.2707 118.468 70.908C118.265 70.5347 117.998 70.2413 117.668 70.028C117.337 69.8147 116.932 69.708 116.452 69.708C115.961 69.708 115.55 69.8147 115.22 70.028C114.889 70.2413 114.622 70.5347 114.42 70.908C114.217 71.2707 114.073 71.708 113.988 72.22C113.902 72.7213 113.86 73.26 113.86 73.836ZM128.832 82.78H127.008V71.068H128.736L128.832 72.268C129.141 71.8307 129.541 71.5 130.032 71.276C130.533 71.0413 131.056 70.924 131.6 70.924C132.176 70.924 132.693 71.0307 133.152 71.244C133.61 71.4467 134 71.7347 134.32 72.108C134.65 72.4813 134.896 72.9347 135.056 73.468C135.226 73.9907 135.312 74.588 135.312 75.26C135.312 75.8893 135.232 76.4707 135.072 77.004C134.912 77.5373 134.672 78.0013 134.352 78.396C134.042 78.78 133.653 79.0787 133.184 79.292C132.725 79.5053 132.165 79.612 131.504 79.612C130.992 79.612 130.501 79.532 130.032 79.372C129.573 79.2013 129.173 78.924 128.832 78.54V82.78ZM131.216 78.028C131.61 78.028 131.952 77.9587 132.24 77.82C132.528 77.6707 132.762 77.4733 132.944 77.228C133.136 76.9827 133.274 76.6947 133.36 76.364C133.456 76.0333 133.504 75.676 133.504 75.292C133.504 74.908 133.456 74.5507 133.36 74.22C133.274 73.8787 133.136 73.5853 132.944 73.34C132.762 73.0947 132.522 72.9027 132.224 72.764C131.936 72.6253 131.589 72.556 131.184 72.556C130.821 72.556 130.485 72.6307 130.176 72.78C129.877 72.9293 129.626 73.1267 129.424 73.372C129.221 73.6173 129.066 73.9107 128.96 74.252C128.864 74.5827 128.816 74.924 128.816 75.276C128.816 75.66 128.864 76.0227 128.96 76.364C129.056 76.6947 129.2 76.9827 129.392 77.228C129.594 77.4627 129.845 77.6547 130.144 77.804C130.442 77.9533 130.8 78.028 131.216 78.028ZM142.962 71.068H144.962L142.53 78.156C142.221 79.0307 141.938 79.804 141.682 80.476C141.437 81.148 141.143 81.708 140.802 82.156C140.461 82.604 140.039 82.94 139.538 83.164C139.047 83.3987 138.402 83.516 137.602 83.516H137.33V81.884C137.373 81.884 137.415 81.884 137.458 81.884C137.778 81.884 138.061 81.8467 138.306 81.772C138.562 81.6973 138.791 81.5853 138.994 81.436C139.197 81.2867 139.373 81.0893 139.522 80.844C139.671 80.6093 139.81 80.3373 139.938 80.028L136.114 71.068H138.258L140.882 77.74L142.962 71.068ZM147.51 72.812C147.851 72.3853 148.278 72.0813 148.79 71.9C149.302 71.708 149.819 71.612 150.342 71.612C150.918 71.612 151.43 71.7027 151.878 71.884C152.337 72.0653 152.726 72.3213 153.046 72.652C153.366 72.9827 153.611 73.3827 153.782 73.852C153.953 74.3107 154.038 74.828 154.038 75.404C154.038 76.0227 153.942 76.5933 153.75 77.116C153.569 77.6387 153.297 78.0867 152.934 78.46C152.582 78.8227 152.15 79.1053 151.638 79.308C151.137 79.5107 150.566 79.612 149.926 79.612C149.083 79.6013 148.39 79.4307 147.846 79.1C147.313 78.7693 146.891 78.3427 146.582 77.82C146.273 77.2973 146.059 76.7107 145.942 76.06C145.825 75.3987 145.766 74.732 145.766 74.06C145.766 73.388 145.814 72.7 145.91 71.996C146.017 71.292 146.225 70.668 146.534 70.124C146.79 69.6973 147.083 69.3613 147.414 69.116C147.755 68.86 148.129 68.668 148.534 68.54C148.939 68.4013 149.371 68.3 149.83 68.236C150.289 68.172 150.763 68.108 151.254 68.044C151.627 68.0013 152.006 67.9587 152.39 67.916C152.785 67.8733 153.169 67.788 153.542 67.66V69.404C153.35 69.4893 153.083 69.5587 152.742 69.612C152.401 69.6547 152.038 69.6973 151.654 69.74C151.27 69.772 150.891 69.8093 150.518 69.852C150.145 69.884 149.814 69.9213 149.526 69.964C149.185 70.0173 148.881 70.1347 148.614 70.316C148.358 70.4867 148.15 70.7 147.99 70.956C147.83 71.2013 147.713 71.4893 147.638 71.82C147.563 72.14 147.521 72.4707 147.51 72.812ZM149.974 78.028C150.337 78.028 150.657 77.9587 150.934 77.82C151.222 77.6813 151.462 77.5053 151.654 77.292C151.846 77.068 151.99 76.812 152.086 76.524C152.182 76.2253 152.23 75.916 152.23 75.596C152.23 75.2653 152.177 74.956 152.07 74.668C151.974 74.3693 151.83 74.1187 151.638 73.916C151.457 73.7027 151.233 73.5373 150.966 73.42C150.699 73.3027 150.395 73.244 150.054 73.244C149.702 73.244 149.382 73.3027 149.094 73.42C148.817 73.5267 148.577 73.6867 148.374 73.9C148.182 74.1027 148.027 74.348 147.91 74.636C147.793 74.924 147.729 75.2333 147.718 75.564C147.718 75.884 147.761 76.1933 147.846 76.492C147.931 76.78 148.065 77.036 148.246 77.26C148.438 77.484 148.673 77.6707 148.95 77.82C149.238 77.9587 149.579 78.028 149.974 78.028ZM156.801 77.276C157.142 77.276 157.419 77.3827 157.633 77.596C157.857 77.8093 157.969 78.0973 157.969 78.46C157.969 78.8333 157.857 79.1213 157.633 79.324C157.419 79.5267 157.142 79.628 156.801 79.628C156.459 79.628 156.177 79.5267 155.953 79.324C155.739 79.1213 155.633 78.8333 155.633 78.46C155.633 78.0973 155.739 77.8093 155.953 77.596C156.177 77.3827 156.459 77.276 156.801 77.276Z" fill="white"/>
<path d="M21.5609 168H19.7049V158.352H16.1049V156.688H25.1449V158.352H21.5609V168ZM31.1206 168.112C30.2352 168.112 29.4512 167.968 28.7686 167.68C28.0966 167.381 27.5312 166.976 27.0726 166.464C26.6139 165.952 26.2619 165.344 26.0166 164.64C25.7819 163.936 25.6646 163.168 25.6646 162.336C25.6646 161.493 25.7872 160.72 26.0326 160.016C26.2779 159.301 26.6299 158.688 27.0886 158.176C27.5579 157.664 28.1286 157.264 28.8006 156.976C29.4832 156.688 30.2619 156.544 31.1366 156.544C32.0112 156.544 32.7846 156.688 33.4566 156.976C34.1392 157.253 34.7099 157.648 35.1686 158.16C35.6379 158.672 35.9899 159.285 36.2246 160C36.4699 160.704 36.5926 161.477 36.5926 162.32C36.5926 163.152 36.4699 163.925 36.2246 164.64C35.9899 165.344 35.6379 165.952 35.1686 166.464C34.7099 166.976 34.1392 167.381 33.4566 167.68C32.7739 167.968 31.9952 168.112 31.1206 168.112ZM31.1366 158.208C30.5286 158.208 30.0006 158.32 29.5526 158.544C29.1152 158.768 28.7472 159.067 28.4486 159.44C28.1499 159.813 27.9259 160.251 27.7766 160.752C27.6379 161.253 27.5686 161.776 27.5686 162.32C27.5686 162.864 27.6379 163.387 27.7766 163.888C27.9259 164.379 28.1446 164.816 28.4326 165.2C28.7312 165.584 29.1046 165.888 29.5526 166.112C30.0006 166.336 30.5286 166.448 31.1366 166.448C31.7339 166.448 32.2566 166.341 32.7046 166.128C33.1526 165.904 33.5206 165.605 33.8086 165.232C34.1072 164.859 34.3259 164.427 34.4646 163.936C34.6139 163.435 34.6886 162.901 34.6886 162.336C34.6886 161.781 34.6139 161.259 34.4646 160.768C34.3259 160.267 34.1072 159.829 33.8086 159.456C33.5206 159.072 33.1526 158.768 32.7046 158.544C32.2672 158.32 31.7446 158.208 31.1366 158.208ZM47.7694 168H45.9134V158.352H40.4414V168H38.5854V156.688H47.7694V168ZM50.1899 161.632H55.2939V163.2H50.1899V161.632ZM63.4384 159.568H65.4384L63.0064 166.656C62.6971 167.531 62.4144 168.304 62.1584 168.976C61.9131 169.648 61.6198 170.208 61.2784 170.656C60.9371 171.104 60.5158 171.44 60.0144 171.664C59.5238 171.899 58.8784 172.016 58.0784 172.016H57.8064V170.384C57.8491 170.384 57.8918 170.384 57.9344 170.384C58.2544 170.384 58.5371 170.347 58.7824 170.272C59.0384 170.197 59.2678 170.085 59.4704 169.936C59.6731 169.787 59.8491 169.589 59.9984 169.344C60.1478 169.109 60.2864 168.837 60.4144 168.528L56.5904 159.568H58.7344L61.3584 166.24L63.4384 159.568ZM66.5467 168V159.568H73.9387V168H72.1147V161.152H68.3707V168H66.5467ZM77.7457 171.28H75.9217V159.568H77.6497L77.7457 160.768C78.055 160.331 78.455 160 78.9457 159.776C79.447 159.541 79.9697 159.424 80.5137 159.424C81.0897 159.424 81.607 159.531 82.0657 159.744C82.5244 159.947 82.9137 160.235 83.2337 160.608C83.5644 160.981 83.8097 161.435 83.9697 161.968C84.1404 162.491 84.2257 163.088 84.2257 163.76C84.2257 164.389 84.1457 164.971 83.9857 165.504C83.8257 166.037 83.5857 166.501 83.2657 166.896C82.9564 167.28 82.567 167.579 82.0977 167.792C81.639 168.005 81.079 168.112 80.4177 168.112C79.9057 168.112 79.415 168.032 78.9457 167.872C78.487 167.701 78.087 167.424 77.7457 167.04V171.28ZM80.1297 166.528C80.5244 166.528 80.8657 166.459 81.1537 166.32C81.4417 166.171 81.6764 165.973 81.8577 165.728C82.0497 165.483 82.1884 165.195 82.2737 164.864C82.3697 164.533 82.4177 164.176 82.4177 163.792C82.4177 163.408 82.3697 163.051 82.2737 162.72C82.1884 162.379 82.0497 162.085 81.8577 161.84C81.6764 161.595 81.4364 161.403 81.1377 161.264C80.8497 161.125 80.503 161.056 80.0977 161.056C79.735 161.056 79.399 161.131 79.0897 161.28C78.791 161.429 78.5404 161.627 78.3377 161.872C78.135 162.117 77.9804 162.411 77.8737 162.752C77.7777 163.083 77.7297 163.424 77.7297 163.776C77.7297 164.16 77.7777 164.523 77.8737 164.864C77.9697 165.195 78.1137 165.483 78.3057 165.728C78.5084 165.963 78.759 166.155 79.0577 166.304C79.3564 166.453 79.7137 166.528 80.1297 166.528ZM91.2679 166.96C90.9906 167.355 90.6226 167.648 90.1639 167.84C89.7053 168.021 89.1933 168.112 88.6279 168.112C88.1799 168.112 87.7693 168.059 87.3959 167.952C87.0333 167.845 86.7133 167.685 86.4359 167.472C86.1586 167.248 85.9399 166.976 85.7799 166.656C85.6199 166.325 85.5399 165.952 85.5399 165.536C85.5399 165.077 85.6306 164.688 85.8119 164.368C85.9933 164.037 86.2386 163.771 86.5479 163.568C86.8679 163.365 87.2413 163.216 87.6679 163.12C88.0946 163.013 88.5426 162.96 89.0119 162.96H91.1719C91.1719 162.341 91.0333 161.861 90.7559 161.52C90.4786 161.179 89.9933 161.003 89.2999 160.992C88.8946 160.992 88.5426 161.061 88.2439 161.2C87.9559 161.339 87.7639 161.568 87.6679 161.888H85.7959C85.8599 161.44 86.0039 161.061 86.2279 160.752C86.4626 160.443 86.7399 160.187 87.0599 159.984C87.3906 159.781 87.7533 159.637 88.1479 159.552C88.5533 159.467 88.9586 159.424 89.3639 159.424C89.8866 159.424 90.3719 159.493 90.8199 159.632C91.2679 159.771 91.6573 160.005 91.9879 160.336C92.3613 160.72 92.6119 161.179 92.7399 161.712C92.8679 162.245 92.9319 162.827 92.9319 163.456V168H91.3479L91.2679 166.96ZM91.1719 164.256H89.4119C89.1026 164.256 88.7933 164.283 88.4839 164.336C88.1746 164.379 87.9079 164.491 87.6839 164.672C87.4706 164.843 87.3639 165.093 87.3639 165.424C87.3639 165.829 87.5079 166.139 87.7959 166.352C88.0946 166.555 88.4573 166.656 88.8839 166.656C89.2146 166.656 89.5186 166.613 89.7959 166.528C90.0839 166.443 90.3293 166.304 90.5319 166.112C90.7346 165.909 90.8893 165.659 90.9959 165.36C91.1133 165.051 91.1719 164.683 91.1719 164.256ZM94.8904 159.568H98.4904C98.8638 159.568 99.2424 159.589 99.6264 159.632C100.01 159.664 100.357 159.755 100.666 159.904C100.986 160.053 101.242 160.272 101.434 160.56C101.637 160.837 101.744 161.216 101.754 161.696C101.754 162.069 101.669 162.416 101.498 162.736C101.328 163.056 101.056 163.317 100.682 163.52C101.194 163.659 101.568 163.904 101.802 164.256C102.048 164.597 102.17 165.008 102.17 165.488C102.17 165.936 102.08 166.325 101.898 166.656C101.717 166.976 101.477 167.237 101.178 167.44C100.88 167.632 100.533 167.776 100.138 167.872C99.7438 167.957 99.3278 168 98.8904 168H94.8904V159.568ZM96.7304 161.088V163.024H97.8344C98.0798 163.024 98.3304 163.024 98.5864 163.024C98.8531 163.013 99.0878 162.976 99.2904 162.912C99.5038 162.848 99.6744 162.747 99.8024 162.608C99.9411 162.469 100.01 162.272 100.01 162.016C100.01 161.792 99.9571 161.621 99.8504 161.504C99.7544 161.376 99.6318 161.28 99.4824 161.216C99.3331 161.152 99.1624 161.115 98.9704 161.104C98.7891 161.093 98.6184 161.088 98.4584 161.088H96.7304ZM98.5864 166.464C98.7998 166.464 99.0078 166.453 99.2104 166.432C99.4238 166.411 99.6104 166.363 99.7704 166.288C99.9411 166.203 100.08 166.096 100.186 165.968C100.293 165.829 100.346 165.648 100.346 165.424C100.346 165.019 100.218 164.747 99.9624 164.608C99.7171 164.469 99.4131 164.4 99.0504 164.4H96.7304V166.464H98.5864ZM104.643 163.984C104.697 163.259 104.729 162.539 104.739 161.824C104.761 161.099 104.782 160.347 104.803 159.568H111.107V168H109.267V161.152H106.499C106.478 161.675 106.457 162.197 106.435 162.72C106.425 163.232 106.403 163.744 106.371 164.256C106.361 164.448 106.339 164.677 106.307 164.944C106.286 165.2 106.254 165.461 106.211 165.728C106.169 165.984 106.105 166.229 106.019 166.464C105.934 166.688 105.827 166.896 105.699 167.088C105.475 167.408 105.177 167.643 104.803 167.792C104.441 167.931 104.019 168 103.539 168H103.091V166.432C103.411 166.432 103.667 166.357 103.859 166.208C104.062 166.048 104.211 165.851 104.307 165.616C104.414 165.371 104.489 165.109 104.531 164.832C104.585 164.544 104.622 164.261 104.643 163.984ZM114.598 164.4C114.619 164.709 114.683 164.997 114.79 165.264C114.896 165.531 115.04 165.765 115.222 165.968C115.403 166.16 115.627 166.315 115.894 166.432C116.171 166.549 116.491 166.608 116.854 166.608C117.238 166.608 117.59 166.539 117.91 166.4C118.24 166.261 118.48 166.021 118.63 165.68H120.502C120.395 166.107 120.219 166.475 119.974 166.784C119.739 167.093 119.456 167.349 119.126 167.552C118.806 167.744 118.448 167.888 118.054 167.984C117.67 168.069 117.259 168.112 116.822 168.112C116.15 168.112 115.558 168.011 115.046 167.808C114.544 167.605 114.123 167.312 113.782 166.928C113.44 166.544 113.184 166.091 113.014 165.568C112.854 165.035 112.774 164.437 112.774 163.776C112.774 163.136 112.864 162.555 113.046 162.032C113.227 161.499 113.488 161.04 113.83 160.656C114.182 160.272 114.603 159.973 115.094 159.76C115.584 159.536 116.144 159.424 116.774 159.424C117.435 159.424 118.006 159.536 118.486 159.76C118.966 159.973 119.366 160.267 119.686 160.64C120.016 161.013 120.262 161.451 120.422 161.952C120.582 162.453 120.662 162.997 120.662 163.584C120.662 163.861 120.646 164.133 120.614 164.4H114.598ZM118.886 163.024C118.854 162.363 118.646 161.861 118.262 161.52C117.888 161.179 117.398 161.008 116.79 161.008C116.448 161.008 116.15 161.061 115.894 161.168C115.638 161.275 115.419 161.419 115.238 161.6C115.067 161.781 114.928 161.995 114.822 162.24C114.715 162.485 114.646 162.747 114.614 163.024H118.886ZM122.312 168V159.568H124.136V163.04H127.88V159.568H129.704V168H127.88V164.624H124.136V168H122.312ZM131.319 159.568H133.143V161.232C133.143 161.659 133.159 162.016 133.191 162.304C133.234 162.592 133.319 162.832 133.447 163.024C133.575 163.205 133.762 163.339 134.007 163.424C134.253 163.499 134.583 163.536 134.999 163.536C135.266 163.536 135.554 163.525 135.863 163.504C136.173 163.472 136.429 163.44 136.631 163.408V159.568H138.439V168H136.631V164.992C136.386 165.035 136.098 165.067 135.767 165.088C135.437 165.109 135.133 165.12 134.855 165.12C134.738 165.12 134.621 165.12 134.503 165.12C133.991 165.109 133.538 165.045 133.143 164.928C132.749 164.8 132.413 164.608 132.135 164.352C131.869 164.085 131.666 163.733 131.527 163.296C131.389 162.859 131.319 162.32 131.319 161.68V159.568ZM141.941 164.4C141.963 164.709 142.027 164.997 142.133 165.264C142.24 165.531 142.384 165.765 142.565 165.968C142.747 166.16 142.971 166.315 143.237 166.432C143.515 166.549 143.835 166.608 144.197 166.608C144.581 166.608 144.933 166.539 145.253 166.4C145.584 166.261 145.824 166.021 145.973 165.68H147.845C147.739 166.107 147.563 166.475 147.317 166.784C147.083 167.093 146.8 167.349 146.469 167.552C146.149 167.744 145.792 167.888 145.397 167.984C145.013 168.069 144.603 168.112 144.165 168.112C143.493 168.112 142.901 168.011 142.389 167.808C141.888 167.605 141.467 167.312 141.125 166.928C140.784 166.544 140.528 166.091 140.357 165.568C140.197 165.035 140.117 164.437 140.117 163.776C140.117 163.136 140.208 162.555 140.389 162.032C140.571 161.499 140.832 161.04 141.173 160.656C141.525 160.272 141.947 159.973 142.437 159.76C142.928 159.536 143.488 159.424 144.117 159.424C144.779 159.424 145.349 159.536 145.829 159.76C146.309 159.973 146.709 160.267 147.029 160.64C147.36 161.013 147.605 161.451 147.765 161.952C147.925 162.453 148.005 162.997 148.005 163.584C148.005 163.861 147.989 164.133 147.957 164.4H141.941ZM146.229 163.024C146.197 162.363 145.989 161.861 145.605 161.52C145.232 161.179 144.741 161.008 144.133 161.008C143.792 161.008 143.493 161.061 143.237 161.168C142.981 161.275 142.763 161.419 142.581 161.6C142.411 161.781 142.272 161.995 142.165 162.24C142.059 162.485 141.989 162.747 141.957 163.024H146.229ZM153.368 168.112C152.696 168.112 152.104 168.011 151.592 167.808C151.091 167.595 150.669 167.301 150.328 166.928C149.997 166.544 149.747 166.091 149.576 165.568C149.416 165.035 149.336 164.448 149.336 163.808C149.336 163.168 149.421 162.581 149.592 162.048C149.773 161.515 150.04 161.056 150.392 160.672C150.744 160.288 151.171 159.984 151.672 159.76C152.173 159.536 152.755 159.424 153.416 159.424C153.885 159.424 154.317 159.477 154.712 159.584C155.117 159.68 155.475 159.845 155.784 160.08C156.093 160.304 156.36 160.592 156.584 160.944C156.808 161.285 156.963 161.701 157.048 162.192H155.16C155.064 161.829 154.856 161.552 154.536 161.36C154.227 161.157 153.843 161.056 153.384 161.056C152.979 161.056 152.632 161.131 152.344 161.28C152.056 161.429 151.821 161.632 151.64 161.888C151.459 162.144 151.325 162.443 151.24 162.784C151.165 163.115 151.128 163.461 151.128 163.824C151.128 164.197 151.171 164.549 151.256 164.88C151.341 165.211 151.475 165.499 151.656 165.744C151.848 165.979 152.088 166.171 152.376 166.32C152.664 166.459 153.011 166.528 153.416 166.528C153.896 166.528 154.291 166.421 154.6 166.208C154.92 165.995 155.123 165.712 155.208 165.36H157.08C156.995 165.84 156.835 166.256 156.6 166.608C156.376 166.96 156.099 167.248 155.768 167.472C155.437 167.696 155.069 167.861 154.664 167.968C154.259 168.064 153.827 168.112 153.368 168.112ZM158.64 168V159.568H160.448V163.008H161.744L163.904 159.568H165.984L163.312 163.584L166.192 168H164.08L161.856 164.592H160.448V168H158.64ZM172.502 166.96C172.225 167.355 171.857 167.648 171.398 167.84C170.94 168.021 170.428 168.112 169.862 168.112C169.414 168.112 169.004 168.059 168.63 167.952C168.268 167.845 167.948 167.685 167.67 167.472C167.393 167.248 167.174 166.976 167.014 166.656C166.854 166.325 166.774 165.952 166.774 165.536C166.774 165.077 166.865 164.688 167.046 164.368C167.228 164.037 167.473 163.771 167.782 163.568C168.102 163.365 168.476 163.216 168.902 163.12C169.329 163.013 169.777 162.96 170.246 162.96H172.406C172.406 162.341 172.268 161.861 171.99 161.52C171.713 161.179 171.228 161.003 170.534 160.992C170.129 160.992 169.777 161.061 169.478 161.2C169.19 161.339 168.998 161.568 168.902 161.888H167.03C167.094 161.44 167.238 161.061 167.462 160.752C167.697 160.443 167.974 160.187 168.294 159.984C168.625 159.781 168.988 159.637 169.382 159.552C169.788 159.467 170.193 159.424 170.598 159.424C171.121 159.424 171.606 159.493 172.054 159.632C172.502 159.771 172.892 160.005 173.222 160.336C173.596 160.72 173.846 161.179 173.974 161.712C174.102 162.245 174.166 162.827 174.166 163.456V168H172.582L172.502 166.96ZM172.406 164.256H170.646C170.337 164.256 170.028 164.283 169.718 164.336C169.409 164.379 169.142 164.491 168.918 164.672C168.705 164.843 168.598 165.093 168.598 165.424C168.598 165.829 168.742 166.139 169.03 166.352C169.329 166.555 169.692 166.656 170.118 166.656C170.449 166.656 170.753 166.613 171.03 166.528C171.318 166.443 171.564 166.304 171.766 166.112C171.969 165.909 172.124 165.659 172.23 165.36C172.348 165.051 172.406 164.683 172.406 164.256ZM183.037 168H181.229V165.12H179.709L177.741 168H175.597L177.885 164.832C177.234 164.672 176.738 164.379 176.397 163.952C176.066 163.525 175.901 162.981 175.901 162.32C175.901 161.797 175.986 161.36 176.157 161.008C176.338 160.656 176.583 160.373 176.893 160.16C177.213 159.936 177.575 159.781 177.981 159.696C178.386 159.611 178.823 159.568 179.293 159.568H183.037V168ZM181.229 161.088H179.421C179.218 161.088 179.015 161.104 178.813 161.136C178.61 161.157 178.423 161.216 178.253 161.312C178.093 161.397 177.965 161.52 177.869 161.68C177.773 161.84 177.725 162.032 177.725 162.256C177.725 162.288 177.725 162.315 177.725 162.336C177.725 162.613 177.805 162.848 177.965 163.04C178.125 163.232 178.333 163.371 178.589 163.456C178.845 163.531 179.079 163.579 179.293 163.6C179.506 163.611 179.719 163.616 179.933 163.616H181.229V161.088ZM59.0134 183.576C59.0454 183.064 59.0667 182.568 59.0774 182.088C59.088 181.597 59.0934 181.091 59.0934 180.568H65.5894V187.448H66.6934V191.464H64.9174V189H59.1574V191.464H57.3814V187.448C57.6907 187.448 57.9467 187.352 58.1494 187.16C58.3627 186.957 58.5067 186.733 58.5814 186.488C58.656 186.317 58.72 186.088 58.7734 185.8C58.8267 185.501 58.8694 185.208 58.9014 184.92C58.9334 184.632 58.96 184.365 58.9814 184.12C59.0027 183.875 59.0134 183.693 59.0134 183.576ZM63.7654 182.152H60.7574C60.736 182.536 60.72 182.952 60.7094 183.4C60.6987 183.848 60.6827 184.28 60.6614 184.696C60.64 184.899 60.6187 185.117 60.5974 185.352C60.5867 185.587 60.56 185.827 60.5174 186.072C60.4747 186.307 60.416 186.541 60.3414 186.776C60.2667 187.011 60.1654 187.235 60.0374 187.448H63.7654V182.152ZM71.7528 180.424C72.4248 180.424 73.0168 180.531 73.5288 180.744C74.0408 180.957 74.4728 181.256 74.8248 181.64C75.1874 182.013 75.4594 182.467 75.6408 183C75.8221 183.533 75.9128 184.125 75.9128 184.776C75.9128 185.437 75.8221 186.035 75.6408 186.568C75.4701 187.091 75.2088 187.544 74.8568 187.928C74.5048 188.312 74.0674 188.605 73.5448 188.808C73.0328 189.011 72.4354 189.112 71.7528 189.112C71.0808 189.112 70.4888 189.011 69.9768 188.808C69.4648 188.595 69.0328 188.301 68.6808 187.928C68.3394 187.544 68.0781 187.085 67.8968 186.552C67.7261 186.019 67.6408 185.427 67.6408 184.776C67.6408 184.125 67.7261 183.533 67.8968 183C68.0781 182.467 68.3448 182.013 68.6968 181.64C69.0488 181.256 69.4808 180.957 69.9928 180.744C70.5048 180.531 71.0914 180.424 71.7528 180.424ZM71.7528 187.528C72.1688 187.528 72.5208 187.459 72.8088 187.32C73.1074 187.171 73.3474 186.973 73.5288 186.728C73.7208 186.483 73.8594 186.195 73.9448 185.864C74.0408 185.533 74.0888 185.176 74.0888 184.792C74.0888 184.408 74.0408 184.051 73.9448 183.72C73.8594 183.379 73.7208 183.085 73.5288 182.84C73.3474 182.595 73.1074 182.403 72.8088 182.264C72.5208 182.125 72.1688 182.056 71.7528 182.056C71.3474 182.056 70.9954 182.125 70.6968 182.264C70.4088 182.403 70.1688 182.595 69.9768 182.84C69.7954 183.085 69.6568 183.379 69.5608 183.72C69.4754 184.051 69.4328 184.408 69.4328 184.792C69.4328 185.176 69.4754 185.533 69.5608 185.864C69.6568 186.195 69.7954 186.483 69.9768 186.728C70.1688 186.973 70.4088 187.171 70.6968 187.32C70.9954 187.459 71.3474 187.528 71.7528 187.528ZM78.276 184.984C78.3293 184.259 78.3613 183.539 78.372 182.824C78.3933 182.099 78.4147 181.347 78.436 180.568H84.74V189H82.9V182.152H80.132C80.1107 182.675 80.0893 183.197 80.068 183.72C80.0573 184.232 80.036 184.744 80.004 185.256C79.9933 185.448 79.972 185.677 79.94 185.944C79.9187 186.2 79.8867 186.461 79.844 186.728C79.8013 186.984 79.7373 187.229 79.652 187.464C79.5667 187.688 79.46 187.896 79.332 188.088C79.108 188.408 78.8093 188.643 78.436 188.792C78.0733 188.931 77.652 189 77.172 189H76.724V187.432C77.044 187.432 77.3 187.357 77.492 187.208C77.6947 187.048 77.844 186.851 77.94 186.616C78.0467 186.371 78.1213 186.109 78.164 185.832C78.2173 185.544 78.2547 185.261 78.276 184.984ZM91.2864 189V185.592H89.9744L88.0224 189H85.8784L88.5504 184.584L86.1024 180.568H88.1344L90.1024 184.024H91.2864V180.568H93.0944V184.024H94.2784L96.2464 180.568H98.2784L95.8304 184.584L98.5024 189H96.3584L94.4064 185.592H93.0944V189H91.2864ZM99.6326 189V180.568H101.457V184.04H105.201V180.568H107.025V189H105.201V185.624H101.457V189H99.6326ZM112.8 180.424C113.472 180.424 114.064 180.531 114.576 180.744C115.088 180.957 115.52 181.256 115.872 181.64C116.234 182.013 116.506 182.467 116.688 183C116.869 183.533 116.96 184.125 116.96 184.776C116.96 185.437 116.869 186.035 116.688 186.568C116.517 187.091 116.256 187.544 115.904 187.928C115.552 188.312 115.114 188.605 114.592 188.808C114.08 189.011 113.482 189.112 112.8 189.112C112.128 189.112 111.536 189.011 111.024 188.808C110.512 188.595 110.08 188.301 109.728 187.928C109.386 187.544 109.125 187.085 108.944 186.552C108.773 186.019 108.688 185.427 108.688 184.776C108.688 184.125 108.773 183.533 108.944 183C109.125 182.467 109.392 182.013 109.744 181.64C110.096 181.256 110.528 180.957 111.04 180.744C111.552 180.531 112.138 180.424 112.8 180.424ZM112.8 187.528C113.216 187.528 113.568 187.459 113.856 187.32C114.154 187.171 114.394 186.973 114.576 186.728C114.768 186.483 114.906 186.195 114.992 185.864C115.088 185.533 115.136 185.176 115.136 184.792C115.136 184.408 115.088 184.051 114.992 183.72C114.906 183.379 114.768 183.085 114.576 182.84C114.394 182.595 114.154 182.403 113.856 182.264C113.568 182.125 113.216 182.056 112.8 182.056C112.394 182.056 112.042 182.125 111.744 182.264C111.456 182.403 111.216 182.595 111.024 182.84C110.842 183.085 110.704 183.379 110.608 183.72C110.522 184.051 110.48 184.408 110.48 184.792C110.48 185.176 110.522 185.533 110.608 185.864C110.704 186.195 110.842 186.483 111.024 186.728C111.216 186.973 111.456 187.171 111.744 187.32C112.042 187.459 112.394 187.528 112.8 187.528ZM122.329 189.112C121.657 189.112 121.065 189.011 120.553 188.808C120.052 188.595 119.63 188.301 119.289 187.928C118.958 187.544 118.708 187.091 118.537 186.568C118.377 186.035 118.297 185.448 118.297 184.808C118.297 184.168 118.382 183.581 118.553 183.048C118.734 182.515 119.001 182.056 119.353 181.672C119.705 181.288 120.132 180.984 120.633 180.76C121.134 180.536 121.716 180.424 122.377 180.424C122.846 180.424 123.278 180.477 123.673 180.584C124.078 180.68 124.436 180.845 124.745 181.08C125.054 181.304 125.321 181.592 125.545 181.944C125.769 182.285 125.924 182.701 126.009 183.192H124.121C124.025 182.829 123.817 182.552 123.497 182.36C123.188 182.157 122.804 182.056 122.345 182.056C121.94 182.056 121.593 182.131 121.305 182.28C121.017 182.429 120.782 182.632 120.601 182.888C120.42 183.144 120.286 183.443 120.201 183.784C120.126 184.115 120.089 184.461 120.089 184.824C120.089 185.197 120.132 185.549 120.217 185.88C120.302 186.211 120.436 186.499 120.617 186.744C120.809 186.979 121.049 187.171 121.337 187.32C121.625 187.459 121.972 187.528 122.377 187.528C122.857 187.528 123.252 187.421 123.561 187.208C123.881 186.995 124.084 186.712 124.169 186.36H126.041C125.956 186.84 125.796 187.256 125.561 187.608C125.337 187.96 125.06 188.248 124.729 188.472C124.398 188.696 124.03 188.861 123.625 188.968C123.22 189.064 122.788 189.112 122.329 189.112ZM134.177 180.568V182.152H131.329V189H129.521V182.152H126.673V180.568H134.177ZM135.226 180.568H137.05V183.416H138.938C139.429 183.416 139.872 183.459 140.266 183.544C140.672 183.619 141.018 183.763 141.306 183.976C141.605 184.189 141.834 184.467 141.994 184.808C142.165 185.149 142.25 185.571 142.25 186.072C142.25 186.637 142.144 187.112 141.93 187.496C141.728 187.869 141.456 188.168 141.114 188.392C140.784 188.616 140.405 188.776 139.978 188.872C139.552 188.957 139.12 189 138.682 189H135.226V180.568ZM138.474 187.48C138.72 187.48 138.96 187.464 139.194 187.432C139.44 187.389 139.648 187.325 139.818 187.24C140 187.144 140.144 187.011 140.25 186.84C140.368 186.669 140.432 186.445 140.442 186.168C140.442 185.869 140.378 185.64 140.25 185.48C140.122 185.32 139.962 185.203 139.77 185.128C139.578 185.053 139.365 185.011 139.13 185C138.906 184.989 138.698 184.984 138.506 184.984H137.05V187.464L138.474 187.48Z" fill="#0260A2"/>
<path d="M75.834 130.924C76.122 130.684 76.41 130.426 76.698 130.15C76.998 129.874 77.286 129.586 77.562 129.286C77.838 129.01 78.072 128.71 78.264 128.386C78.468 128.062 78.576 127.702 78.588 127.306C78.612 126.67 78.444 126.196 78.084 125.884C77.724 125.572 77.244 125.422 76.644 125.434C76.104 125.446 75.666 125.572 75.33 125.812C75.006 126.052 74.814 126.4 74.754 126.856H72.324C72.348 126.148 72.516 125.536 72.828 125.02C73.152 124.492 73.578 124.072 74.106 123.76C74.49 123.532 74.91 123.37 75.366 123.274C75.822 123.166 76.302 123.112 76.806 123.112C78.162 123.088 79.23 123.448 80.01 124.192C80.346 124.504 80.616 124.894 80.82 125.362C81.024 125.818 81.126 126.358 81.126 126.982C81.126 127.438 81.078 127.87 80.982 128.278C80.886 128.686 80.724 129.064 80.496 129.412C80.352 129.652 80.196 129.874 80.028 130.078C79.872 130.27 79.71 130.45 79.542 130.618C79.386 130.786 79.212 130.954 79.02 131.122C78.84 131.29 78.636 131.476 78.408 131.68C77.964 132.064 77.538 132.418 77.13 132.742C76.734 133.066 76.356 133.384 75.996 133.696H80.982V136H72.414V133.876L75.834 130.924ZM92.1046 132.418C92.0806 133.078 91.9306 133.648 91.6546 134.128C91.3906 134.596 91.0366 134.98 90.5926 135.28C90.1606 135.58 89.6626 135.802 89.0986 135.946C88.5466 136.078 87.9766 136.144 87.3886 136.144C86.7886 136.144 86.2066 136.078 85.6426 135.946C85.0906 135.802 84.5926 135.58 84.1486 135.28C83.7166 134.98 83.3626 134.596 83.0866 134.128C82.8106 133.66 82.6606 133.09 82.6366 132.418C82.6126 131.674 82.7566 131.014 83.0686 130.438C83.3926 129.862 83.9266 129.436 84.6706 129.16C84.1546 128.896 83.7646 128.524 83.5006 128.044C83.2366 127.564 83.1046 127.066 83.1046 126.55C83.1046 125.926 83.2186 125.398 83.4466 124.966C83.6866 124.522 84.0046 124.162 84.4006 123.886C84.7966 123.598 85.2526 123.394 85.7686 123.274C86.2966 123.154 86.8426 123.094 87.4066 123.094C87.9706 123.094 88.5046 123.16 89.0086 123.292C89.5246 123.424 89.9746 123.628 90.3586 123.904C90.7546 124.18 91.0666 124.534 91.2946 124.966C91.5226 125.398 91.6366 125.926 91.6366 126.55C91.6366 127.066 91.4986 127.564 91.2226 128.044C90.9586 128.524 90.5746 128.896 90.0706 129.16C90.8146 129.436 91.3426 129.862 91.6546 130.438C91.9786 131.014 92.1286 131.674 92.1046 132.418ZM87.3706 125.326C87.1306 125.326 86.9026 125.356 86.6866 125.416C86.4826 125.476 86.2966 125.572 86.1286 125.704C85.9726 125.824 85.8466 125.986 85.7506 126.19C85.6666 126.382 85.6246 126.61 85.6246 126.874C85.6366 127.414 85.8046 127.816 86.1286 128.08C86.4526 128.332 86.8666 128.458 87.3706 128.458C87.8746 128.458 88.2826 128.332 88.5946 128.08C88.9186 127.816 89.0866 127.414 89.0986 126.874C89.0986 126.61 89.0506 126.382 88.9546 126.19C88.8706 125.986 88.7506 125.824 88.5946 125.704C88.4386 125.572 88.2526 125.476 88.0366 125.416C87.8206 125.356 87.5986 125.326 87.3706 125.326ZM89.5126 132.148C89.5126 131.824 89.4526 131.554 89.3326 131.338C89.2126 131.122 89.0506 130.948 88.8466 130.816C88.6426 130.672 88.4086 130.57 88.1446 130.51C87.8926 130.438 87.6286 130.402 87.3526 130.402C87.0886 130.402 86.8246 130.438 86.5606 130.51C86.3086 130.57 86.0806 130.672 85.8766 130.816C85.6846 130.948 85.5226 131.128 85.3906 131.356C85.2706 131.572 85.2106 131.836 85.2106 132.148C85.2106 132.472 85.2706 132.748 85.3906 132.976C85.5226 133.192 85.6906 133.372 85.8946 133.516C86.0986 133.648 86.3266 133.744 86.5786 133.804C86.8426 133.864 87.1066 133.894 87.3706 133.894C87.6346 133.894 87.8926 133.864 88.1446 133.804C88.4086 133.744 88.6366 133.648 88.8286 133.516C89.0326 133.372 89.1946 133.192 89.3146 132.976C89.4466 132.748 89.5126 132.472 89.5126 132.148ZM107.489 126.514V136H104.951V128.728H102.269C102.245 129.268 102.221 129.808 102.197 130.348C102.185 130.888 102.161 131.434 102.125 131.986C102.101 132.238 102.077 132.502 102.053 132.778C102.029 133.054 101.987 133.336 101.927 133.624C101.879 133.912 101.801 134.182 101.693 134.434C101.597 134.686 101.465 134.914 101.297 135.118C100.985 135.466 100.613 135.7 100.181 135.82C99.7491 135.94 99.3051 136 98.8491 136H98.0031V133.768H98.2551C98.5671 133.768 98.8131 133.702 98.9931 133.57C99.1851 133.426 99.3231 133.24 99.4071 133.012C99.5031 132.772 99.5751 132.514 99.6231 132.238C99.6711 131.95 99.7071 131.656 99.7311 131.356C99.7911 130.6 99.8271 129.826 99.8391 129.034C99.8631 128.242 99.8871 127.402 99.9111 126.514H107.489ZM113.82 134.074C114.18 134.074 114.486 134.02 114.738 133.912C115.002 133.792 115.218 133.6 115.386 133.336H118.05C117.918 133.828 117.714 134.254 117.438 134.614C117.174 134.974 116.85 135.268 116.466 135.496C116.094 135.724 115.68 135.892 115.224 136C114.768 136.096 114.288 136.144 113.784 136.144C112.248 136.144 111.084 135.712 110.292 134.848C109.512 133.984 109.122 132.772 109.122 131.212C109.122 130.504 109.224 129.85 109.428 129.25C109.644 128.65 109.944 128.134 110.328 127.702C110.712 127.258 111.186 126.916 111.75 126.676C112.326 126.436 112.98 126.316 113.712 126.316C114.564 126.316 115.302 126.466 115.926 126.766C116.55 127.066 117.042 127.48 117.402 128.008C117.774 128.524 118.02 129.13 118.14 129.826C118.272 130.522 118.272 131.266 118.14 132.058H111.66C111.708 132.622 111.906 133.102 112.254 133.498C112.602 133.882 113.124 134.074 113.82 134.074ZM115.782 130.312C115.782 130.012 115.728 129.748 115.62 129.52C115.512 129.28 115.368 129.088 115.188 128.944C115.008 128.788 114.792 128.674 114.54 128.602C114.3 128.53 114.048 128.494 113.784 128.494C113.148 128.506 112.65 128.68 112.29 129.016C111.942 129.34 111.738 129.772 111.678 130.312H115.782ZM118.935 128.71V126.514H127.773V128.71H124.605V136H122.067V128.71H118.935Z" fill="#0260A2"/>
</svg>
