<svg width="62" height="62" viewBox="0 0 62 62" fill="none" xmlns="http://www.w3.org/2000/svg">
<path fill-rule="evenodd" clip-rule="evenodd" d="M14.3555 48.7002V15.0535C14.6968 14.7913 15.8752 13.6737 16.1268 13.5688C16.4606 13.9834 17.421 14.6976 17.8533 15.0935C18.0563 15.2783 18.1809 15.4731 18.5745 15.4718C18.9046 15.4706 19.1537 15.2408 19.2995 15.096C19.4925 14.9062 19.6943 14.7501 19.8886 14.5853L20.4691 14.0658C20.6609 13.9159 20.8652 13.6625 21.0944 13.5688C21.2452 13.7611 21.442 13.9197 21.635 14.0758L22.8184 15.0935C23.359 15.5892 23.6991 15.6417 24.2609 15.091C24.4228 14.9324 24.6719 14.7401 24.855 14.5853L26.0608 13.5688C26.3573 13.9484 27.3812 14.7226 27.7848 15.0935C28.3204 15.5855 28.6717 15.6404 29.226 15.0922C29.3867 14.9336 29.6396 14.7413 29.8214 14.5853C30.0656 14.378 30.7308 13.6887 31.0285 13.5688C31.3312 13.9584 32.3439 14.7201 32.75 15.0922C33.2881 15.5842 33.6406 15.6392 34.1924 15.0922C34.3531 14.9336 34.6035 14.7413 34.7866 14.5853C34.9983 14.4067 35.159 14.2356 35.3696 14.0683C35.4779 13.9821 35.539 13.9072 35.6461 13.8185C35.7657 13.7186 35.8566 13.6237 35.9936 13.5688C36.1605 13.7823 36.3686 13.9384 36.5853 14.1107C36.7061 14.2056 36.7647 14.2856 36.888 14.3792L37.4971 14.9137C37.6665 15.061 37.6752 14.9848 37.6752 15.2908L37.6715 46.3951C37.6715 46.9632 37.7388 48.2095 37.6566 48.6965C36.3287 48.7651 34.8202 48.7014 33.4712 48.7014C32.0511 48.7014 30.6286 48.7064 29.2086 48.7002C28.4799 48.6965 28.0501 49.2084 28.3254 49.7903C28.5907 50.3485 29.3095 50.2199 29.9996 50.2199H36.371C37.0213 50.2199 37.8521 50.2661 38.4787 50.2174C38.7702 50.1949 39.0081 50.0263 39.1152 49.8066C39.2647 49.5044 39.1837 47.0894 39.1837 46.6585L39.185 14.8075C39.185 14.3792 39.0791 14.2718 38.8536 14.082L36.5828 12.0878C36.396 11.938 36.1942 11.7344 35.8279 11.8006C35.5352 11.8531 35.3683 12.0416 35.1889 12.2127L33.4712 13.6874C33.0614 13.3977 32.7014 12.9869 32.2965 12.6835C32.167 12.5861 32.1421 12.5386 32.0188 12.4337C31.0384 11.5996 31.0011 11.5396 30.0021 12.39L28.8162 13.4452C28.7078 13.5376 28.6107 13.5938 28.506 13.6874C28.2071 13.4776 27.9281 13.1867 27.6328 12.9532C27.233 12.6398 26.5317 11.8056 26.0409 11.7894C25.5663 11.7731 25.083 12.3863 24.7317 12.6585C24.5287 12.8158 24.3543 13.0169 24.1525 13.1767L23.5396 13.6887C23.3466 13.5576 23.1385 13.3703 22.948 13.2004C22.7449 13.0206 22.5655 12.8395 22.3637 12.6847C22.2429 12.5923 22.2043 12.5361 22.086 12.435C21.1056 11.5996 21.072 11.5396 20.0693 12.3888C19.9472 12.4912 19.8862 12.5598 19.7666 12.6585L18.5745 13.6887L17.1669 12.4774C15.8092 11.19 15.864 11.8256 13.7912 13.5401L13.2356 14.0371C13.0339 14.2031 12.8669 14.3168 12.8445 14.7189C12.8071 15.3794 12.8433 16.1611 12.8433 16.8354V48.7739C12.8433 49.3558 12.7486 50.13 13.5246 50.2136C14.059 50.2723 21.2414 50.2199 22.0025 50.2199C22.6777 50.2199 23.4325 50.3498 23.6991 49.8141C24.0105 49.1897 23.516 48.6989 22.8832 48.7002C20.0406 48.7027 17.1981 48.7052 14.3555 48.7002Z" fill="#0260A2"/>
<path fill-rule="evenodd" clip-rule="evenodd" d="M25.8802 48.7174C24.8687 48.9434 25.1913 50.4219 26.1966 50.2009C26.5578 50.121 26.8543 49.7364 26.7571 49.2881C26.6824 48.9434 26.3236 48.6188 25.8802 48.7174Z" fill="#0260A2"/>
<path fill-rule="evenodd" clip-rule="evenodd" d="M16.1083 44.5693C15.3398 44.8441 15.4481 45.9979 16.3313 46.0416C17.1945 46.0853 18.1811 46.0428 19.058 46.0428C19.7793 46.0428 24.1602 46.1127 24.4716 46.0041C25.1854 45.7569 25.1555 44.6018 24.2462 44.5294C23.4427 44.4644 22.3528 44.5256 21.5182 44.5256C20.7932 44.5256 16.4247 44.4569 16.1083 44.5693Z" fill="#0260A2"/>
<path fill-rule="evenodd" clip-rule="evenodd" d="M16.1193 41.5377C15.3495 41.7837 15.4442 42.91 16.2875 43.0099C16.7783 43.0674 20.8665 43.0212 21.7384 43.0212C22.2491 43.0212 24.0765 43.0836 24.4415 42.9787C25.1826 42.7639 25.1777 41.5827 24.2447 41.4928C23.4773 41.4191 22.3276 41.4865 21.5179 41.4865C20.6971 41.4865 16.5615 41.3954 16.1193 41.5377Z" fill="#0260A2"/>
<path fill-rule="evenodd" clip-rule="evenodd" d="M16.1255 38.5018C15.3071 38.7803 15.4877 39.8904 16.2874 39.9753C16.7931 40.029 20.8515 39.9815 21.7384 39.9815C22.2341 39.9815 24.1001 40.0427 24.4439 39.9428C25.2162 39.7218 25.1278 38.5068 24.2458 38.4643C23.3776 38.4244 22.3986 38.4643 21.5179 38.4643C20.7879 38.4643 16.4481 38.3919 16.1255 38.5018Z" fill="#0260A2"/>
<path fill-rule="evenodd" clip-rule="evenodd" d="M16.1391 35.4711C15.2597 35.7832 15.5113 36.8909 16.3309 36.9408C17.1742 36.992 18.1944 36.9421 19.0577 36.9421C19.8237 36.9421 24.1013 37.0245 24.4825 36.8971C25.1937 36.6611 25.1327 35.4873 24.2445 35.4261C23.4149 35.3712 22.3723 35.4249 21.5178 35.4249C20.7816 35.4249 16.4655 35.3549 16.1391 35.4711Z" fill="#0260A2"/>
<path fill-rule="evenodd" clip-rule="evenodd" d="M27.0251 35.4626C26.203 35.7224 26.3562 36.8649 27.1846 36.9386C27.8148 36.9948 31.6564 36.9424 32.6367 36.9424C33.1126 36.9424 35.0259 36.9998 35.3423 36.9049C36.0847 36.6814 36.0025 35.4801 35.143 35.4264C34.3009 35.3752 33.2783 35.4252 32.4163 35.4252C31.639 35.4252 27.4075 35.3403 27.0251 35.4626Z" fill="#0260A2"/>
<path fill-rule="evenodd" clip-rule="evenodd" d="M16.1643 32.418C15.321 32.6652 15.463 33.7903 16.2614 33.9027C16.6825 33.9614 20.8815 33.9127 21.695 33.9127C22.187 33.9127 24.099 33.9701 24.4154 33.8777C25.2189 33.6442 25.103 32.4867 24.3245 32.3967C23.8811 32.3468 19.7218 32.393 18.8823 32.393C18.4289 32.393 16.4308 32.3393 16.1643 32.418Z" fill="#0260A2"/>
<path fill-rule="evenodd" clip-rule="evenodd" d="M27.0373 32.4319C26.1915 32.7029 26.3534 33.8342 27.1955 33.9091C27.832 33.9653 31.6536 33.9129 32.6365 33.9129C33.1459 33.9129 34.9683 33.9728 35.3133 33.8779C36.1131 33.6569 36.0034 32.4469 35.1415 32.3932C34.3019 32.3407 33.2767 32.3932 32.416 32.3932C31.6362 32.3932 27.4197 32.3083 27.0373 32.4319Z" fill="#0260A2"/>
<path fill-rule="evenodd" clip-rule="evenodd" d="M27.065 29.3786C26.2055 29.6221 26.3475 30.7772 27.1534 30.8671C27.623 30.9196 31.7349 30.8734 32.5919 30.8734C33.0889 30.8734 34.9375 30.937 35.2813 30.8496C36.1171 30.6373 36.0037 29.4511 35.1816 29.3587C34.707 29.3062 30.5976 29.3537 29.7356 29.3537C29.276 29.3537 27.349 29.2987 27.065 29.3786Z" fill="#0260A2"/>
<path fill-rule="evenodd" clip-rule="evenodd" d="M16.173 29.3823C15.316 29.6109 15.4705 30.7759 16.2577 30.8671C16.6987 30.9183 20.8579 30.8733 21.695 30.8733C22.1882 30.8733 24.0953 30.9333 24.4204 30.8446C25.1952 30.6323 25.1217 29.471 24.322 29.3624C23.8985 29.3049 19.7007 29.3536 18.8823 29.3536C18.3753 29.3536 16.5118 29.2912 16.173 29.3823Z" fill="#0260A2"/>
<path fill-rule="evenodd" clip-rule="evenodd" d="M19.7928 17.717C19.0678 17.8119 18.5596 17.9567 17.9941 18.2802C17.5544 18.5324 17.0038 18.952 16.6912 19.3528C15.9948 20.2469 15.4443 21.4094 15.6274 22.9216C15.9201 25.3491 18.0601 27.3533 20.8142 27.0499C23.2408 26.7827 25.2213 24.5999 24.9411 21.859C24.7019 19.5126 22.4984 17.3636 19.7928 17.717ZM19.875 19.2329C18.0825 19.5151 16.8905 21.0685 17.1408 22.8043C17.3713 24.4076 18.8249 25.7825 20.6922 25.5327C22.3028 25.3167 23.673 23.832 23.4251 21.9714C23.2146 20.378 21.7236 18.942 19.875 19.2329Z" fill="#0260A2"/>
<path fill-rule="evenodd" clip-rule="evenodd" d="M19.515 21.6117C19.1463 21.6417 18.0614 21.4381 18.0688 22.3859C18.0726 22.7318 18.2868 22.9678 18.5098 23.069C18.7951 23.1988 19.1924 23.0964 19.5225 23.1526C19.5225 23.4498 19.4851 23.9356 19.601 24.1766C19.8725 24.7372 20.6884 24.7397 20.9687 24.1691C21.0908 23.9206 21.036 23.4311 21.036 23.1351C21.452 23.1351 22.4884 23.2962 22.4971 22.3859C22.5046 21.4793 21.4769 21.618 21.0534 21.6192C21.0098 21.3607 21.2502 20.1595 20.2861 20.1582C19.3394 20.1582 19.5437 21.2546 19.515 21.6117Z" fill="#0260A2"/>
<path fill-rule="evenodd" clip-rule="evenodd" d="M30.6872 17.7171C29.1202 17.9244 28.3803 18.5001 27.6042 19.3242C26.812 20.1671 26.3636 21.6418 26.508 22.8993C26.7871 25.3206 28.9445 27.351 31.6713 27.0538C34.0965 26.7878 36.102 24.6375 35.8292 21.8629C35.5963 19.4878 33.3367 17.3637 30.6872 17.7171ZM30.7657 19.2331C29.0056 19.5265 27.7774 20.9975 28.029 22.8206C28.2507 24.4252 29.7368 25.7713 31.589 25.5316C33.1897 25.3231 34.5263 23.8421 34.3145 21.9902C34.1351 20.4268 32.6067 18.9259 30.7657 19.2331Z" fill="#0260A2"/>
<path fill-rule="evenodd" clip-rule="evenodd" d="M29.4539 21.6843C29.0466 21.8616 28.8597 22.21 28.9905 22.6058C29.1275 23.0241 29.4091 23.1378 29.9559 23.1365C30.4442 23.134 32.6203 23.189 32.9018 23.0916C33.4425 22.9055 33.5807 22.0951 33.0264 21.7305C32.6702 21.4957 29.6445 21.6019 29.4539 21.6843Z" fill="#0260A2"/>
<path fill-rule="evenodd" clip-rule="evenodd" d="M44.0466 11.8142C43.1285 11.9403 42.6191 12.3574 42.2653 12.9206C41.792 13.6723 41.9078 14.4565 41.9078 15.4255C41.9078 24.9569 41.9439 34.5383 41.9078 44.0598C41.9053 44.819 42.2964 45.2286 42.7673 46.0615L44.86 49.6915C45.0394 50.0187 45.281 50.2959 45.7556 50.2035C46.1629 50.1261 46.2887 49.7914 46.4743 49.473L49.0802 44.9501C49.3755 44.4532 49.3082 44.3458 49.3082 43.7077V15.0734C49.3082 14.0781 49.3281 13.3576 48.7962 12.7045C48.3889 12.2038 47.7698 11.7992 46.8754 11.7855C46.1056 11.773 44.7404 11.718 44.0466 11.8142ZM45.5999 47.8984L46.4245 46.5173C46.6687 46.104 47.0274 45.5408 47.2155 45.1212L43.9943 45.125L45.5999 47.8984ZM43.4213 16.1173L47.7972 16.1385C47.7972 15.5841 47.8807 14.1281 47.6714 13.746C47.3388 13.1391 46.3834 13.3114 45.5999 13.3114C44.7479 13.3114 43.8797 13.1378 43.5396 13.7585C43.3191 14.1593 43.4175 15.5604 43.4213 16.1173ZM43.42 43.5866L44.8239 43.5915C44.8998 43.3418 44.8525 35.9631 44.8525 35.0291C44.8525 34.2099 44.6034 32.8763 45.5999 32.8713C46.6126 32.8651 46.3647 34.1725 46.3647 34.9854C46.3647 35.6822 46.3286 43.2831 46.3797 43.5866L47.7686 43.5915C47.8583 43.2981 47.7972 17.9017 47.7972 17.6657L46.3635 17.6807L46.366 27.4082C46.3672 27.864 46.2476 28.3372 45.6871 28.3772C45.1863 28.4121 44.8525 28.0725 44.8525 27.5842V17.6657L43.42 17.6682V43.5866Z" fill="#0260A2"/>
<path fill-rule="evenodd" clip-rule="evenodd" d="M45.386 29.9068C44.402 30.2353 44.8965 31.6426 45.8419 31.3504C46.75 31.0706 46.3589 29.5834 45.386 29.9068Z" fill="#0260A2"/>
<rect x="1" y="1" width="60" height="60" rx="30" stroke="#0260A2" stroke-width="2"/>
</svg>
