<svg width="60" height="60" viewBox="0 0 60 60" fill="none" xmlns="http://www.w3.org/2000/svg">
<path fill-rule="evenodd" clip-rule="evenodd" d="M25.2733 47.7273H15.6358C14.5338 47.7273 13.6364 46.8351 13.6364 45.7396V40.1708C13.6364 39.0741 14.5338 38.1819 15.6358 38.1819H25.2733C26.3753 38.1819 27.2727 39.0741 27.2727 40.1708V45.7384C27.2727 46.8351 26.3753 47.7273 25.2733 47.7273ZM15.6358 39.0913C15.0383 39.0913 14.5512 39.5756 14.5512 40.1708V45.7384C14.5512 46.3336 15.0383 46.8167 15.6358 46.8167H25.2733C25.8708 46.8167 26.3579 46.3336 26.3579 45.7384V40.1708C26.3579 39.5756 25.8708 39.0913 25.2733 39.0913H15.6358Z" fill="#0260A2"/>
<path fill-rule="evenodd" clip-rule="evenodd" d="M23.7911 45.0001H22.5726C22.1555 45.0001 21.8182 44.6952 21.8182 44.3183C21.8182 43.9414 22.1555 43.6365 22.5726 43.6365H23.7911C24.2081 43.6365 24.5454 43.9414 24.5454 44.3183C24.5454 44.6952 24.2081 45.0001 23.7911 45.0001Z" fill="#0260A2"/>
<path fill-rule="evenodd" clip-rule="evenodd" d="M20.0766 45.0001H16.7416C16.5326 45.0001 16.3636 44.6952 16.3636 44.3183C16.3636 43.9414 16.5326 43.6365 16.7416 43.6365H20.0766C20.2855 43.6365 20.4545 43.9414 20.4545 44.3183C20.4545 44.6952 20.2855 45.0001 20.0766 45.0001Z" fill="#0260A2"/>
<path fill-rule="evenodd" clip-rule="evenodd" d="M36.4172 43.6363H29.0373C28.8157 43.6363 28.6364 43.3315 28.6364 42.9545C28.6364 42.5776 28.8157 42.2727 29.0373 42.2727H36.4172C36.6389 42.2727 36.8182 42.5776 36.8182 42.9545C36.8182 43.3315 36.6389 43.6363 36.4172 43.6363Z" fill="#0260A2"/>
<path fill-rule="evenodd" clip-rule="evenodd" d="M24.1009 42.2728H16.8081C16.5624 42.2728 16.3636 41.9679 16.3636 41.591C16.3636 41.2141 16.5624 40.9092 16.8081 40.9092H24.1009C24.3467 40.9092 24.5455 41.2141 24.5455 41.591C24.5455 41.9679 24.3467 42.2728 24.1009 42.2728Z" fill="#0260A2"/>
<path fill-rule="evenodd" clip-rule="evenodd" d="M42.9534 47.7273C40.3228 47.7273 38.1818 45.5852 38.1818 42.9523C38.1818 40.3217 40.3228 38.1819 42.9534 38.1819C45.5851 38.1819 47.7273 40.3217 47.7273 42.9523C47.7273 45.5852 45.5851 47.7273 42.9534 47.7273ZM42.9534 39.0241C40.7862 39.0241 39.0241 40.7862 39.0241 42.9523C39.0241 45.1207 40.7873 46.8851 42.9534 46.8851C45.1207 46.8851 46.885 45.1207 46.885 42.9523C46.885 40.7862 45.1218 39.0241 42.9534 39.0241Z" fill="#0260A2"/>
<path fill-rule="evenodd" clip-rule="evenodd" d="M42.7107 45.0001C42.544 45.0001 42.3756 44.9395 42.2479 44.8182L41.1006 43.7285C40.8453 43.486 40.8453 43.0936 41.1006 42.8511C41.3559 42.6085 41.7691 42.6085 42.0262 42.8511L42.7107 43.5012L45.2465 41.0911C45.5036 40.8485 45.9168 40.8485 46.1721 41.0911C46.4275 41.3353 46.4275 41.7277 46.1721 41.9702L43.1735 44.8182C43.0459 44.9411 42.8774 45.0001 42.7107 45.0001Z" fill="#0260A2"/>
<path fill-rule="evenodd" clip-rule="evenodd" d="M19.7727 36.8181C19.3958 36.8181 19.0909 36.6101 19.0909 36.353V34.5559C19.0909 34.2988 19.3958 34.0908 19.7727 34.0908C20.1497 34.0908 20.4545 34.2988 20.4545 34.5559V36.353C20.4545 36.6089 20.1497 36.8181 19.7727 36.8181Z" fill="#0260A2"/>
<path fill-rule="evenodd" clip-rule="evenodd" d="M25.2733 34.0909H15.6358C14.5338 34.0909 13.6364 33.1986 13.6364 32.1029V26.5334C13.6364 25.4377 14.5338 24.5454 15.6358 24.5454H25.2733C26.3753 24.5454 27.2727 25.4377 27.2727 26.5334V32.1029C27.2727 33.1986 26.3753 34.0909 25.2733 34.0909ZM15.6358 25.455C15.0383 25.455 14.5512 25.9393 14.5512 26.5334V32.1029C14.5512 32.6969 15.0383 33.1813 15.6358 33.1813H25.2733C25.8708 33.1813 26.3579 32.6969 26.3579 32.1029V26.5334C26.3579 25.9393 25.8708 25.455 25.2733 25.455H15.6358Z" fill="#0260A2"/>
<path fill-rule="evenodd" clip-rule="evenodd" d="M23.7911 31.3636H22.5726C22.1555 31.3636 21.8182 31.0588 21.8182 30.6818C21.8182 30.3049 22.1555 30 22.5726 30H23.7911C24.2081 30 24.5454 30.3049 24.5454 30.6818C24.5454 31.0588 24.2081 31.3636 23.7911 31.3636Z" fill="#0260A2"/>
<path fill-rule="evenodd" clip-rule="evenodd" d="M20.0766 31.3636H16.7416C16.5326 31.3636 16.3636 31.0588 16.3636 30.6818C16.3636 30.3049 16.5326 30 16.7416 30H20.0766C20.2855 30 20.4545 30.3049 20.4545 30.6818C20.4545 31.0588 20.2855 31.3636 20.0766 31.3636Z" fill="#0260A2"/>
<path fill-rule="evenodd" clip-rule="evenodd" d="M24.1009 28.6363H16.8081C16.5624 28.6363 16.3636 28.3315 16.3636 27.9545C16.3636 27.5776 16.5624 27.2727 16.8081 27.2727H24.1009C24.3467 27.2727 24.5455 27.5776 24.5455 27.9545C24.5455 28.3315 24.3467 28.6363 24.1009 28.6363Z" fill="#0260A2"/>
<path fill-rule="evenodd" clip-rule="evenodd" d="M19.7727 24.5455C19.3958 24.5455 19.0909 24.2336 19.0909 23.8479V21.1522C19.0909 20.7665 19.3958 20.4546 19.7727 20.4546C20.1497 20.4546 20.4545 20.7665 20.4545 21.1522V23.8479C20.4545 24.2317 20.1497 24.5455 19.7727 24.5455Z" fill="#0260A2"/>
<path fill-rule="evenodd" clip-rule="evenodd" d="M43.1604 34.3099C42.0023 34.3099 39.5241 34.1058 37.9212 32.5113C35.8207 30.4204 36.1276 26.822 36.142 26.6704C36.1624 26.4592 36.3302 26.2909 36.5424 26.2718C36.6959 26.2599 40.3058 25.9567 42.4051 28.0465C44.5092 30.1423 44.2071 33.7359 44.1927 33.8874C44.1735 34.0987 44.0057 34.267 43.7934 34.2861C43.7563 34.2896 43.5237 34.3099 43.1604 34.3099ZM37.0076 27.1335C36.9932 28.0597 37.1071 30.455 38.5458 31.8883C39.9881 33.3241 42.3943 33.4458 43.3271 33.4256C43.3403 32.4982 43.2216 30.1053 41.7793 28.6695C40.337 27.2326 37.9332 27.124 37.0076 27.1323V27.1335Z" fill="#0260A2"/>
<path fill-rule="evenodd" clip-rule="evenodd" d="M44.3835 34.3096C44.0203 34.3096 43.7865 34.2893 43.7505 34.2857C43.5383 34.2666 43.3705 34.0983 43.3513 33.8871C43.3369 33.7355 43.0336 30.142 45.1389 28.0462C47.2393 25.9552 50.8481 26.2584 51.0015 26.2715C51.2137 26.2906 51.3816 26.4589 51.402 26.6701C51.4152 26.8217 51.7233 30.42 49.6228 32.511C48.0198 34.1055 45.5417 34.3096 44.3835 34.3096ZM44.2157 33.4252C45.1472 33.4467 47.5547 33.3238 48.997 31.888C50.4369 30.4558 50.5519 28.0617 50.5364 27.1332C49.6096 27.1153 47.2034 27.237 45.7647 28.6692C44.3164 30.1097 44.2013 32.4991 44.2157 33.4252Z" fill="#0260A2"/>
<path fill-rule="evenodd" clip-rule="evenodd" d="M43.1604 25.755C42.0023 25.755 39.5241 25.5509 37.9212 23.9552C35.8207 21.8642 36.1276 18.2671 36.142 18.1143C36.1624 17.9031 36.3302 17.736 36.5424 17.7169C36.6959 17.7038 40.3058 17.4018 42.4051 19.4916C44.5092 21.5862 44.2071 25.1809 44.1927 25.3325C44.1735 25.5437 44.0057 25.7108 43.7934 25.7311C43.7563 25.7347 43.5237 25.755 43.1604 25.755ZM37.0076 18.5774C36.9932 19.5047 37.1071 21.9 38.5458 23.3322C39.9941 24.7728 42.3955 24.879 43.3271 24.8706C43.3403 23.9445 43.2228 21.5504 41.7793 20.1146C40.3358 18.6777 37.9344 18.5679 37.0076 18.5774Z" fill="#0260A2"/>
<path fill-rule="evenodd" clip-rule="evenodd" d="M44.3823 25.7549C44.0203 25.7549 43.7865 25.7346 43.7505 25.731C43.5383 25.7119 43.3705 25.5437 43.3513 25.3324C43.3369 25.1808 43.0336 21.5861 45.1389 19.4915C47.2381 17.4005 50.8481 17.7037 51.0015 17.7168C51.2137 17.7359 51.3816 17.903 51.402 18.1142C51.4152 18.267 51.7233 21.8642 49.6228 23.9551C48.0198 25.5508 45.5405 25.7549 44.3823 25.7549ZM44.2169 24.8693C45.1436 24.886 47.5547 24.7691 48.997 23.3321C50.4369 21.9 50.5519 19.5058 50.5364 18.5785C49.6096 18.557 47.2034 18.6811 45.7647 20.1145C44.3212 21.5503 44.2037 23.9432 44.2169 24.8693Z" fill="#0260A2"/>
<path fill-rule="evenodd" clip-rule="evenodd" d="M43.7913 38.141C43.5468 38.141 43.3489 37.9441 43.3489 37.7006V25.2932C43.3489 25.0497 43.5468 24.8528 43.7913 24.8528C44.0359 24.8528 44.2337 25.0497 44.2337 25.2932V37.7006C44.2337 37.9441 44.0359 38.141 43.7913 38.141Z" fill="#0260A2"/>
<path fill-rule="evenodd" clip-rule="evenodd" d="M25.2733 20.4546H15.6358C14.5338 20.4546 13.6364 19.5623 13.6364 18.4667V12.8971C13.6364 11.8015 14.5338 10.9092 15.6358 10.9092H25.2733C26.3753 10.9092 27.2727 11.8015 27.2727 12.8971V18.4667C27.2727 19.5623 26.3765 20.4546 25.2733 20.4546ZM15.6358 11.8187C15.0383 11.8187 14.5512 12.3031 14.5512 12.8971V18.4667C14.5512 19.0607 15.0383 19.5451 15.6358 19.5451H25.2733C25.8708 19.5451 26.3579 19.0607 26.3579 18.4667V12.8971C26.3579 12.3031 25.8708 11.8187 25.2733 11.8187H15.6358Z" fill="#0260A2"/>
<path fill-rule="evenodd" clip-rule="evenodd" d="M23.7916 17.7272H22.572C22.1553 17.7272 21.8182 17.4223 21.8182 17.0453C21.8182 16.6684 22.1553 16.3635 22.572 16.3635H23.7916C24.2084 16.3635 24.5454 16.6684 24.5454 17.0453C24.5454 17.4223 24.2084 17.7272 23.7916 17.7272Z" fill="#0260A2"/>
<path fill-rule="evenodd" clip-rule="evenodd" d="M20.0767 17.7272H16.7415C16.5326 17.7272 16.3636 17.4223 16.3636 17.0453C16.3636 16.6684 16.5326 16.3635 16.7415 16.3635H20.0767C20.2856 16.3635 20.4545 16.6684 20.4545 17.0453C20.4545 17.4223 20.2856 17.7272 20.0767 17.7272Z" fill="#0260A2"/>
<path fill-rule="evenodd" clip-rule="evenodd" d="M24.101 15.0001H16.8081C16.5624 15.0001 16.3636 14.6952 16.3636 14.3183C16.3636 13.9414 16.5624 13.6365 16.8081 13.6365H24.101C24.3467 13.6365 24.5455 13.9414 24.5455 14.3183C24.5455 14.6952 24.3467 15.0001 24.101 15.0001Z" fill="#0260A2"/>
<rect x="1" y="1" width="58" height="58" rx="29" stroke="#0260A2" stroke-width="2"/>
</svg>
