<svg width="60" height="60" viewBox="0 0 60 60" fill="none" xmlns="http://www.w3.org/2000/svg">
<path fill-rule="evenodd" clip-rule="evenodd" d="M38.6521 44.0313H37.4119V27.9629C37.4119 26.0099 37.8129 26.28 33.6683 26.28C29.5416 26.28 29.9235 26.0124 29.9235 27.9186V44.0313H28.6846V33.5862C28.6846 30.8634 29.0142 30.9141 27.0983 30.9141H22.8848C20.8719 30.9141 21.2091 30.7898 21.2091 33.4962V44.0313H19.9689L19.9702 35.8361C19.9702 34.2318 19.7671 34.6211 16.2254 34.6211C15.6123 34.6211 13.3669 34.5412 12.9365 34.6439C12.4295 34.7657 12.4716 35.2261 12.4716 35.7917V44.0301C9.11252 44.0352 9.56593 43.5494 9.56593 46.4524C9.56593 47.8855 9.54039 47.713 10.9696 47.713L16.3633 47.7143C17.2446 47.7117 17.3314 46.498 16.1807 46.5044C14.3798 46.5145 12.5751 46.5057 10.7729 46.5057V45.2755H47.848V46.5044L20.3482 46.5057C19.6981 46.5057 18.799 46.3573 18.541 46.8176C18.3621 47.1372 18.4937 47.4353 18.6891 47.6052C18.896 47.7853 19.3545 47.713 19.6687 47.713H47.2145C49.4139 47.713 49.0716 47.9755 49.0716 45.3287C49.0716 43.784 49.1674 44.0364 46.1263 44.0301V36.4664C46.1263 35.7676 46.3716 34.5095 45.4928 34.5298C44.6639 34.5501 44.8747 35.6509 44.8747 36.4207V44.0313H39.9037V24.4474H44.8747V31.9223C44.8734 32.4296 44.844 32.8925 45.2617 33.0498C45.7061 33.2172 46.0982 32.9255 46.1263 32.5083C46.157 32.0416 46.1263 31.4582 46.1263 30.9775C46.1263 30.3612 46.1876 23.8057 46.0778 23.5571C45.899 23.1488 45.4009 23.202 44.904 23.202C44.1696 23.202 39.2651 23.1234 38.9611 23.2769C38.5818 23.4696 38.6508 23.9452 38.6508 24.455L38.6521 44.0313ZM13.7258 44.0313H13.7782H18.6712H18.7172V35.8652H18.4452H14.1869H13.9596H13.7258V44.0313ZM22.4812 44.0288H27.4125L27.4112 32.1785L22.522 32.1798H22.4812V44.0288ZM31.1752 44.0313H36.1602L36.1589 27.5317H31.1944L31.1752 44.0313Z" fill="#0260A2"/>
<path fill-rule="evenodd" clip-rule="evenodd" d="M36.5326 8.88408V11.3193C36.5338 11.8196 36.8436 12.0149 37.307 12.0149C37.7951 12.0162 38.2833 12.0136 38.7702 12.0136C38.6587 12.238 34.4002 16.6676 33.8898 17.2273C33.606 17.5388 33.663 17.4609 33.134 17.4596C32.1118 17.4569 28.8383 17.3724 28.3179 17.5665C27.8694 17.7341 27.5237 18.0944 27.2363 18.4733L20.6633 26.1235C20.2024 26.1459 19.0737 26.0271 18.7589 26.2489C18.3067 26.567 18.4219 27.4249 19.1579 27.4249H20.8219C21.2878 27.4249 21.32 27.2203 21.5269 26.9973L24.5377 23.51C24.6678 23.3754 24.7112 23.3424 24.819 23.2025L26.7171 21.0115C27.1186 20.5653 28.3563 18.959 28.6562 18.8151C28.9151 18.6897 32.5442 18.7557 33.134 18.7557C34.3606 18.7557 34.1624 18.7953 34.8066 18.1103L40.4863 12.0347C40.6696 11.838 40.9397 11.6889 40.8666 11.2322C40.8134 10.9088 40.5507 10.7174 40.21 10.7174H37.7493V9.43844H42.2754C44.0806 9.43844 43.7845 9.30777 43.7845 12.63V15.8598H42.5827L42.5839 13.2385C42.5839 12.7963 42.3299 12.4848 41.8864 12.5442C41.5927 12.5825 41.2607 13.0273 41.0971 13.2002L34.7819 19.9106C34.4758 20.1205 33.8935 20.0347 33.4859 20.0347C33.0931 20.0347 29.4962 20.003 29.2868 20.0506C29.0043 20.1165 28.474 20.8359 28.2362 21.1316L21.8255 28.535C21.5591 28.7989 20.9755 28.7052 20.5642 28.7052H13.5068V27.4249C13.9565 27.4249 16.5597 27.5173 16.8224 27.3246C17.2796 26.992 17.1792 26.1301 16.3887 26.1301H12.9604C12.4933 26.1301 12.2727 26.4125 12.2727 26.9101V29.2042C12.2727 29.7308 12.4933 30.0001 13.005 30.0001H21.3547C22.0002 30.0001 22.4933 29.7097 22.7882 29.3731L24.7595 27.0725C25.1176 26.724 26.3553 25.156 26.7382 24.7798L29.6858 21.3309C31.1714 21.3309 32.6582 21.3282 34.145 21.3309C34.9937 21.3335 35.2998 21.1844 35.7495 20.7066L41.3672 14.7999C41.3672 15.3253 41.361 15.8532 41.366 16.3772C41.3709 16.8603 41.5927 17.1547 42.0561 17.1547H44.3433C44.7596 17.1547 45 16.9012 45 16.4696V10.0548C45.0012 9.08735 44.2603 8.18188 43.3744 8.18188H37.0889C36.7172 8.18188 36.5326 8.48283 36.5326 8.88408Z" fill="#0260A2"/>
<rect x="1" y="1" width="58" height="58" rx="29" stroke="#0260A2" stroke-width="2"/>
</svg>
