<svg width="60" height="60" viewBox="0 0 60 60" fill="none" xmlns="http://www.w3.org/2000/svg">
<path fill-rule="evenodd" clip-rule="evenodd" d="M44.7845 12.2368H44.1436C43.7911 12.2368 43.5026 12.5331 43.5026 12.8952V16.8439H23.641V18.1606H43.5026V41.1936C43.5026 41.5556 43.7911 41.8519 44.1436 41.8519H44.7845C46.3343 41.8519 47.988 42.5425 47.988 44.484C47.988 46.3003 46.6675 47.7745 45.0404 47.7745H13.3897V24.0831H12.1079V48.4328C12.1079 48.7948 12.3964 49.0911 12.7488 49.0911H45.0404C47.3724 49.0911 49.2686 47.0244 49.2686 44.484V17.5023C49.2686 14.4486 47.3857 12.2368 44.7845 12.2368ZM47.988 41.5817C47.2058 40.9171 46.0978 40.5353 44.7845 40.5353V13.5535C46.6675 13.5535 47.988 15.1789 47.988 17.5023V41.5817Z" fill="#0260A2"/>
<path fill-rule="evenodd" clip-rule="evenodd" d="M12.6596 22.8395L13.2619 22.6411C13.6011 22.832 13.9535 22.9833 14.3253 23.0961L14.6137 23.6689C14.7091 23.8586 14.8889 23.9912 15.1002 24.0173C15.4212 24.0632 15.6964 24.083 15.9584 24.083C16.2215 24.083 16.4907 24.0632 16.8178 24.0173C17.023 23.9912 17.2076 23.8586 17.3042 23.6689L17.5927 23.0961C17.9645 22.9833 18.3169 22.832 18.6561 22.6411L19.2584 22.8395C19.4575 22.9052 19.6748 22.8655 19.8414 22.7341C20.2964 22.3783 20.7068 21.9567 21.0593 21.4831C21.1872 21.312 21.2258 21.0889 21.1619 20.8843L20.9687 20.2656C21.1546 19.9173 21.3019 19.5552 21.4117 19.1734L21.9682 18.8771C22.154 18.7791 22.282 18.5944 22.3085 18.3774C22.3532 18.0476 22.3725 17.765 22.3725 17.4959C22.3725 17.2257 22.3532 16.9492 22.3085 16.6132C22.282 16.4024 22.154 16.2115 21.9682 16.1136L21.4117 15.8172C21.3019 15.4354 21.1546 15.0734 20.9687 14.725L21.1619 14.1063C21.2258 13.9017 21.1872 13.6786 21.0593 13.5075C20.7129 13.0401 20.3025 12.6186 19.8414 12.2565C19.6748 12.1251 19.4575 12.0854 19.2584 12.1512L18.6561 12.3495C18.3169 12.1586 17.9645 12.0073 17.5927 11.8945L17.3042 11.323C17.2076 11.132 17.029 10.9994 16.8178 10.9733C16.1708 10.8878 15.7471 10.8878 15.1002 10.9733C14.895 10.9994 14.7091 11.132 14.6137 11.323L14.3253 11.8945C13.9535 12.0073 13.6011 12.1586 13.2619 12.3495L12.6596 12.1512C12.4604 12.0854 12.2431 12.1251 12.0766 12.2565C11.6215 12.6124 11.2111 13.0339 10.8587 13.5075C10.7307 13.6786 10.6921 13.9017 10.7561 14.1063L10.9492 14.725C10.7633 15.0734 10.6149 15.4354 10.5062 15.8172L9.94859 16.1136C9.76271 16.2115 9.63476 16.3962 9.60941 16.6132C9.56475 16.943 9.54544 17.2257 9.54544 17.4959C9.54544 17.765 9.56475 18.0414 9.60941 18.3774C9.63476 18.5882 9.76271 18.7791 9.94859 18.8771L10.5062 19.1734C10.6149 19.5552 10.7633 19.9173 10.9492 20.2656L10.7561 20.8843C10.6921 21.0889 10.7307 21.312 10.8587 21.4831C11.2051 21.9505 11.6155 22.3721 12.0766 22.7341C12.2431 22.8655 12.4604 22.9052 12.6596 22.8395ZM12.1985 19.8516C11.9607 19.4561 11.7881 19.0221 11.6795 18.5684C11.6336 18.3836 11.5129 18.2262 11.3524 18.1406L10.8466 17.8704C10.8333 17.7389 10.8333 17.6137 10.8333 17.5021C10.8333 17.3905 10.8333 17.2653 10.8466 17.1339L11.3524 16.8636C11.5189 16.7781 11.6408 16.6206 11.6795 16.4359C11.7881 15.9821 11.9607 15.5544 12.1985 15.1527C12.2938 14.9878 12.3192 14.7907 12.2625 14.606L12.0886 14.053C12.2492 13.8621 12.4218 13.691 12.6016 13.5273L13.14 13.7046C13.3198 13.7641 13.5117 13.7381 13.6711 13.6389C14.0561 13.3959 14.4786 13.2174 14.9215 13.1058C15.1002 13.0599 15.2547 12.9347 15.338 12.7698L15.5999 12.2503C15.857 12.2305 16.061 12.2305 16.3241 12.2503L16.5872 12.7698C16.6705 12.9409 16.8238 13.0661 17.0037 13.1058C17.4454 13.2174 17.8619 13.3959 18.2529 13.6389C18.4123 13.7381 18.6054 13.7641 18.784 13.7046L19.3224 13.5273C19.5082 13.691 19.6748 13.8695 19.8353 14.053L19.6627 14.606C19.6048 14.7907 19.6301 14.9878 19.7267 15.1527C19.9633 15.547 20.1359 15.9821 20.2457 16.4359C20.2904 16.6206 20.4123 16.7781 20.5716 16.8636L21.0786 17.1339C21.0907 17.2653 21.0907 17.3905 21.0907 17.5021C21.0907 17.6137 21.0907 17.7389 21.0786 17.8704L20.5716 18.1406C20.4051 18.2262 20.2832 18.3836 20.2457 18.5684C20.1359 19.0221 19.9633 19.4499 19.7267 19.8516C19.6301 20.0164 19.6048 20.2136 19.6627 20.3971L19.8353 20.95C19.6748 21.1409 19.5022 21.312 19.3224 21.4769L18.784 21.2996C18.6054 21.2401 18.4123 21.2662 18.2529 21.3653C17.8679 21.6083 17.4454 21.7856 17.0037 21.8985C16.8238 21.9443 16.6705 22.0696 16.5872 22.2332L16.3241 22.7539C16.0682 22.7738 15.863 22.7738 15.5999 22.7539L15.338 22.2332C15.2547 22.0621 15.1002 21.9381 14.9215 21.8985C14.4786 21.7856 14.0621 21.6083 13.6711 21.3653C13.5117 21.2662 13.3198 21.2401 13.14 21.2996L12.6016 21.4769C12.4158 21.312 12.2492 21.1347 12.0886 20.95L12.2625 20.3971C12.3192 20.2136 12.2938 20.0164 12.1985 19.8516Z" fill="#0260A2"/>
<path fill-rule="evenodd" clip-rule="evenodd" d="M15.9523 20.3845C17.4961 20.3845 18.7586 19.0938 18.7586 17.5019C18.7586 15.9088 17.5033 14.6194 15.9523 14.6194C14.4025 14.6194 13.146 15.9088 13.146 17.5019C13.146 19.0938 14.4025 20.3845 15.9523 20.3845ZM15.9523 15.9423C16.7912 15.9423 17.4768 16.6465 17.4768 17.5081C17.4768 18.371 16.7912 19.074 15.9523 19.074C15.1134 19.074 14.4278 18.371 14.4278 17.5081C14.4278 16.6465 15.1134 15.9423 15.9523 15.9423Z" fill="#0260A2"/>
<path fill-rule="evenodd" clip-rule="evenodd" d="M35.1731 20.1343H23.6411V21.4509H34.5333V22.7664H21.7183V24.083H35.1731C35.5255 24.083 35.814 23.7867 35.814 23.4247V20.7926C35.814 20.4306 35.5255 20.1343 35.1731 20.1343Z" fill="#0260A2"/>
<path fill-rule="evenodd" clip-rule="evenodd" d="M33.8923 38.5614V45.1423C33.8923 45.5043 34.1808 45.8006 34.5332 45.8006H40.9401C41.2926 45.8006 41.5798 45.5043 41.5798 45.1423V38.5614C41.5798 38.1994 41.2926 37.9031 40.9401 37.9031H34.5332C34.1808 37.9031 33.8923 38.1994 33.8923 38.5614ZM35.1729 39.2197H40.2992V44.4839H35.1729V39.2197Z" fill="#0260A2"/>
<path fill-rule="evenodd" clip-rule="evenodd" d="M37.7368 28.0315H40.2993C40.6517 28.0315 40.9402 27.7352 40.9402 27.3732V22.109C40.9402 21.747 40.6517 21.4507 40.2993 21.4507H37.7368C37.3843 21.4507 37.0958 21.747 37.0958 22.1078V27.3732C37.0958 27.7352 37.3843 28.0315 37.7368 28.0315ZM38.3765 22.7661H39.6583V26.7149H38.3765V22.7661Z" fill="#0260A2"/>
<path fill-rule="evenodd" clip-rule="evenodd" d="M37.0958 35.928C37.0958 36.2901 37.3843 36.5864 37.7368 36.5864H40.2993C40.6517 36.5864 40.9402 36.2901 40.9402 35.928V30.0055C40.9402 29.6435 40.6517 29.3472 40.2993 29.3472H37.7368C37.3843 29.3472 37.0958 29.6435 37.0958 30.0055V35.928ZM38.3765 30.6638H39.6583V35.2709H38.3765V30.6638Z" fill="#0260A2"/>
<path fill-rule="evenodd" clip-rule="evenodd" d="M32.6104 38.5613V36.5863H34.5332C34.8857 36.5863 35.1729 36.29 35.1729 35.9279V26.715C35.1729 26.353 34.8857 26.0566 34.5332 26.0566H23.641C23.2886 26.0566 23.0001 26.353 23.0001 26.715V38.5613C23.0001 38.9233 23.2886 39.2196 23.641 39.2196H31.9695C32.3219 39.2196 32.6104 38.9233 32.6104 38.5613ZM31.3298 35.9279V37.9029H24.2819V27.3733H33.8923V35.2708H31.9695C31.617 35.2708 31.3298 35.5672 31.3298 35.9279Z" fill="#0260A2"/>
<path fill-rule="evenodd" clip-rule="evenodd" d="M15.9523 45.1422C15.9523 45.5042 16.2408 45.8005 16.5932 45.8005H31.3298C31.6811 45.8005 31.9696 45.5042 31.9696 45.1422V41.8518C31.9696 41.4898 31.6811 41.1934 31.3298 41.1934H21.0786V31.3222C21.0786 30.9601 20.7901 30.6638 20.4376 30.6638H16.5932C16.2408 30.6638 15.9523 30.9601 15.9523 31.3222V45.1422ZM17.2342 31.9805H19.7967V41.8518C19.7967 42.2138 20.0852 42.5101 20.4376 42.5101H30.6889V44.4839H17.2342V31.9805Z" fill="#0260A2"/>
<path fill-rule="evenodd" clip-rule="evenodd" d="M15.9523 26.0568V28.6901C15.9523 29.0521 16.2408 29.3472 16.5932 29.3472H20.4376C20.7901 29.3472 21.0786 29.0521 21.0786 28.6901V25.3997H19.7967V28.0318H17.2342V26.0568H15.9523Z" fill="#0260A2"/>
<rect x="1" y="1" width="58" height="58" rx="29" stroke="#0260A2" stroke-width="2"/>
</svg>
