<svg width="60" height="60" viewBox="0 0 60 60" fill="none" xmlns="http://www.w3.org/2000/svg">
<path fill-rule="evenodd" clip-rule="evenodd" d="M15.2216 33.6383C14.4959 33.9165 16.0943 35.6018 16.2632 35.7751C16.7606 36.2886 17.5926 36.8228 18.4747 37.1106C20.6503 37.8229 22.5616 37.144 23.9285 36.0231C24.4165 35.6225 25.4112 34.4666 25.4566 33.9769C25.5082 33.4268 24.5291 33.6113 24.0818 33.6113C22.6804 33.6113 15.4296 33.5572 15.2216 33.6383Z" fill="#0260A2"/>
<path fill-rule="evenodd" clip-rule="evenodd" d="M28.5877 39.7448H29.9937V20.9363H28.5861L28.5877 39.7448Z" fill="#0260A2"/>
<path fill-rule="evenodd" clip-rule="evenodd" d="M28.2264 5.52241C26.1228 5.72751 25.1312 5.7752 23.0432 6.38095C20.2107 7.20293 17.2657 8.62271 15.0213 10.4241L13.8013 11.4321C12.841 12.192 11.2097 14.049 10.4731 15.0093C3.86037 23.625 3.7634 36.0627 10.2964 44.7881C10.8219 45.4908 11.79 46.6594 12.3843 47.2683L13.9452 48.7342C15.8127 50.3861 18.2135 51.8091 20.5423 52.7869C26.764 55.4007 34.3339 55.0811 40.3414 51.9601C41.7193 51.2447 42.9455 50.4513 44.0434 49.6182C44.3453 49.3909 44.5971 49.1842 44.8645 48.9536L45.6763 48.227C45.8139 48.0919 45.9328 48.0172 46.072 47.8789C51.1269 42.8945 54.0063 36.1868 53.5981 28.7381C53.401 25.1386 52.4798 21.8332 51.0769 19.0175C50.3746 17.6072 49.6176 16.3703 48.7824 15.2478C48.1146 14.3511 47.4561 13.58 46.6819 12.7787C44.3265 10.3446 41.7005 8.57819 38.5349 7.24586C35.79 6.09 31.5797 5.19648 28.2264 5.52241ZM27.9011 7.20452C23.1855 7.49706 18.3636 9.58937 14.9947 12.5911C14.7413 12.8153 14.4801 13.0458 14.2315 13.2636L12.8348 14.7343C12.3828 15.224 11.9855 15.7439 11.5757 16.2908C8.27875 20.7043 6.83828 25.9367 7.13858 31.681C7.30749 34.9276 8.33819 38.0135 9.60192 40.5637C10.556 42.4875 12.2248 44.769 13.7763 46.3351C14.929 47.4973 16.3147 48.5546 17.7052 49.4624C21.5339 51.9665 26.4356 53.1621 31.1934 52.8346C34.531 52.6056 37.3478 51.6215 39.9253 50.3035C41.1203 49.6913 43.1425 48.3288 44.0731 47.4544C44.3078 47.2318 44.5861 46.9853 44.8286 46.7755C45.1977 46.4559 45.8905 45.6578 46.2362 45.3128C46.8352 44.715 48.2084 42.7864 48.6292 42.0694C51.0034 38.0199 52.3594 33.3854 51.9371 28.3629C51.5461 23.7299 49.943 19.3625 47.2716 15.9808C46.5396 15.0538 45.4432 13.7469 44.5564 13.0108C44.0106 12.5577 43.6915 12.2381 43.0284 11.7262C38.696 8.38104 33.53 6.85792 27.9011 7.20452Z" fill="#0260A2"/>
<path fill-rule="evenodd" clip-rule="evenodd" d="M19.5804 20.1479C19.5991 20.4182 16.7995 29.4139 16.2771 31.1914C16.1598 31.5888 15.8423 32.4649 15.822 32.7844L17.3078 32.786L18.0539 30.371C18.3025 29.5283 18.5356 28.7747 18.7827 27.9575C18.9673 27.3502 20.1418 23.3055 20.2889 23.1163L23.212 32.7749L24.7088 32.7892C24.7104 32.5062 21.8075 23.0797 21.4025 21.7235C21.2617 21.2529 21.0068 20.5804 20.9301 20.1177L37.7466 20.1161C37.7012 20.644 34.3651 31.2104 33.9632 32.7733L35.4474 32.7892C35.6054 32.5173 38.2908 23.5074 38.4003 23.102C38.5583 23.3182 40.4789 29.8543 40.6259 30.3392C40.8371 31.0276 41.1045 32.1739 41.3814 32.7781L42.8719 32.7876C42.8265 32.228 39.076 20.4898 39.1088 20.1432C39.675 20.0987 40.1098 20.0987 40.2537 19.5915C40.3992 19.0748 40.0488 18.6693 39.6187 18.6344C38.6177 18.5533 37.2398 18.6328 36.1966 18.6328H22.5551C21.4384 18.6328 20.2341 18.5882 19.1299 18.6312C18.6623 18.6503 18.2947 19.0366 18.423 19.5485C18.5653 20.1193 18.9954 20.0764 19.5804 20.1479Z" fill="#0260A2"/>
<path fill-rule="evenodd" clip-rule="evenodd" d="M33.3437 33.6397C32.6087 33.9433 34.3963 36.4156 36.6392 37.1184C39.1369 37.9006 41.6018 36.926 43.0048 35.123C44.4265 33.2994 43.2566 33.611 42.254 33.611C40.848 33.611 33.5486 33.5554 33.3437 33.6397Z" fill="#0260A2"/>
<path fill-rule="evenodd" clip-rule="evenodd" d="M23.3998 42.9643C22.9337 43.1297 22.7257 43.6925 23.0823 44.1027C23.3982 44.4636 24.0848 44.3602 24.6087 44.3602C25.8412 44.3602 34.7734 44.4334 35.1816 44.311C35.5992 44.1854 35.9073 43.6321 35.5225 43.1837C35.2019 42.8085 34.5685 42.923 33.9835 42.923C32.4054 42.923 23.7047 42.8562 23.3998 42.9643Z" fill="#0260A2"/>
<path fill-rule="evenodd" clip-rule="evenodd" d="M26.1118 42.0871L32.479 42.0855C32.4696 42.0728 32.454 42.0425 32.4477 42.0521C32.443 42.0616 32.4243 42.0266 32.4165 42.0203L30.402 40.6259C30.1924 40.5178 28.4016 40.5194 28.1936 40.6275L26.2057 41.9885C26.1353 42.0521 26.1666 42.0203 26.1118 42.0871Z" fill="#0260A2"/>
<path fill-rule="evenodd" clip-rule="evenodd" d="M28.6079 17.8106H29.978C30.0484 17.1444 30.025 16.3765 29.2961 16.3733C28.5954 16.3717 28.5141 17.1476 28.6079 17.8106Z" fill="#0260A2"/>
<rect x="1" y="1" width="58" height="58" rx="29" stroke="#0260A2" stroke-width="2"/>
</svg>
