<svg width="60" height="60" viewBox="0 0 60 60" fill="none" xmlns="http://www.w3.org/2000/svg">
<path fill-rule="evenodd" clip-rule="evenodd" d="M36.2303 34.2063C36.2597 33.6771 36.7927 32.908 37.0672 32.4245C39.2925 28.5035 41.5324 22.4101 40.6342 17.8857C38.866 8.98663 27.3832 6.30466 22.1816 14.3122C18.8082 19.5031 21.3202 25.9539 23.5062 30.8455L25.1114 33.8341C25.2413 34.2075 25.2793 34.0802 24.9693 34.1828C24.4877 34.3411 17.7164 34.09 17.1748 34.2471C16.605 34.4128 16.4469 35.3154 16.2325 35.8842L12.6949 45.4213C12.4829 45.9889 11.9572 46.8977 12.5356 47.354C13.0221 47.7373 39.4542 47.5271 43.7209 47.5271C50.1332 47.5271 49.73 48.2962 47.9741 43.5023C47.0245 40.9056 46.0883 38.4388 45.1399 35.8508C44.4083 33.8551 44.8225 34.2063 41.5153 34.2063C39.7532 34.2063 37.9911 34.2075 36.2303 34.2063ZM19.5789 46.0334C20.4514 46.0297 25.2425 44.2565 26.0341 43.8262C25.9949 43.2933 21.4488 37.4793 20.7737 36.5729C20.0519 35.6035 20.4073 35.6122 17.9112 35.7173C17.4983 36.3553 16.8488 38.3943 16.5229 39.2697L14.5256 44.6732C13.87 46.4538 13.2647 46.0285 19.5789 46.0334ZM24.8382 45.8863C25.3675 46.183 39.056 46.0544 40.8683 46.0285C40.8425 45.5586 37.7853 41.5585 37.4716 41.3273L24.8382 45.8863ZM39.0645 40.7449C39.1528 41.2358 41.0594 43.5864 41.4699 44.1292C43.0825 46.2597 42.1414 46.0309 45.4364 46.0334C47.8687 46.0346 47.571 46.5639 46.2464 43.0225C45.9327 42.1842 44.9708 39.271 44.5786 38.7516C44.0946 38.7801 39.4481 40.4691 39.0645 40.7449ZM27.5352 43.2228C28.3537 43.1561 40.5754 38.4994 42.9906 37.6586C43.1597 37.6005 43.3459 37.5522 43.5371 37.4694C44.6963 36.9674 43.3974 35.6987 43.2308 35.6987L35.1863 35.7148C34.3763 36.8066 31.7259 41.0812 30.8534 41.4843C30.231 41.6154 29.8768 40.944 29.4333 40.3232C29.0375 39.7693 28.6613 39.3204 28.2765 38.7727C27.9163 38.2583 27.5278 37.7142 27.1688 37.1714C25.9349 35.3092 26.8894 35.6987 22.3985 35.6987C21.6559 35.6987 22.5235 36.5037 23.2256 37.4385C23.7108 38.0839 24.1532 38.6725 24.6519 39.3378C25.1077 39.9461 25.6052 40.6151 26.077 41.2358C26.5426 41.8491 27.1663 42.6058 27.5352 43.2228ZM30.7309 39.4354C31.5004 38.8852 34.6288 33.9169 35.2929 32.61C36.8589 29.5274 37.7191 28.1907 38.7337 24.5826C39.6331 21.385 39.7103 17.8016 38.0426 15.1864C34.3959 9.4701 26.6762 9.89793 23.4217 15.0665C21.5934 17.9698 21.7147 20.9893 22.6411 24.548C23.3849 27.4043 24.7818 30.3472 26.0782 32.5803C26.7877 33.8032 27.4494 35.0088 28.2152 36.1154C28.5963 36.6669 30.1501 39.1535 30.7309 39.4354Z" fill="#0260A2"/>
<path fill-rule="evenodd" clip-rule="evenodd" d="M30.0619 15.1877C23.7881 16.1336 25.2499 25.6955 31.3461 24.8212C33.7183 24.4812 35.7463 22.2159 35.3726 19.3609C35.0638 17.0029 32.8312 14.771 30.0619 15.1877ZM30.0545 16.737C29.0693 16.9583 28.5902 17.3404 28.056 18.0106C26.3723 20.1201 28.181 24.0682 31.4404 23.283C32.9648 22.9158 34.3175 21.2799 33.8838 19.2669C33.537 17.657 31.9967 16.303 30.0545 16.737Z" fill="#0260A2"/>
<rect x="1" y="1" width="58" height="58" rx="29" stroke="#0260A2" stroke-width="2"/>
</svg>
