<svg width="60" height="60" viewBox="0 0 60 60" fill="none" xmlns="http://www.w3.org/2000/svg">
<path fill-rule="evenodd" clip-rule="evenodd" d="M17.8993 42.3115C17.6757 42.7417 17.4268 42.9184 17.2578 43.4924C16.8665 44.8158 17.7157 46.5309 19.6989 46.4405C19.9198 47.5707 20.8462 48.3652 22.1852 48.2666C22.2784 48.9735 22.7429 49.4858 23.1968 49.7722C23.8943 50.2133 24.3961 50.1612 25.204 49.9653C25.5208 51.0147 27.0781 51.8832 28.5023 50.9708C28.7312 50.8229 28.7339 50.8037 28.8923 50.5955C29.7295 50.8708 30.419 51.8476 31.6728 51.8175C32.8202 51.7901 33.6108 50.9393 33.7971 49.9174C34.9099 50.3092 35.98 50.2873 36.7094 49.1749C36.9171 48.8571 37.0901 48.2214 37.0967 48.2063L37.1327 48.1269C38.5063 48.3146 39.6417 47.4419 39.7788 46.1953C41.5557 46.6446 42.8108 45.4035 42.7589 43.9363C42.735 43.2362 42.5127 43.0321 42.2997 42.5814L42.6897 42.3362C43.0784 42.5266 43.6148 43.128 44.7209 42.765C44.9991 42.6732 46.2436 41.9156 46.3966 41.7595C46.9743 41.1718 46.2995 40.1498 45.4929 40.621C45.1175 40.8389 44.0833 41.7238 43.6973 41.2238C43.5842 41.0759 43.31 40.5539 43.2035 40.3676L39.7135 34.3468C39.3661 33.7741 39.0693 33.2289 38.7206 32.6385C38.2228 31.796 38.887 31.6151 39.6324 31.1726C41.782 29.8945 44.1006 28.4191 46.2808 27.0903L49.623 25.0491C49.6936 25.4696 49.6443 35.5866 49.6443 36.5318C49.6443 38.2168 49.7056 38.0442 48.2122 38.9538C47.8408 39.1799 47.3709 39.5785 47.7543 40.1484C48.1256 40.7005 48.5928 40.4484 49.0401 40.1717C49.9119 39.6333 50.5761 39.3388 50.9408 38.2963C51.1058 37.825 51.002 27.1656 51.0153 24.9217C51.022 23.6463 49.7921 23.2339 48.907 23.7531C48.5063 23.9887 48.107 24.249 47.7277 24.4819L38.324 30.2479C37.5413 30.7302 37.0102 31.3809 37.1247 32.3837C37.1314 32.4412 37.158 32.5796 37.1606 32.6207C37.2179 33.581 34.3828 32.1042 33.7585 32.0302C33.0331 31.9425 32.5327 32.1248 31.8898 32.2933C31.4865 32.4001 30.4669 32.7823 30.1461 32.644C29.048 32.1741 28.5116 31.5973 26.7693 32.2741C26.3088 32.4535 25.6393 32.7796 25.1641 32.8823C24.2843 33.0714 23.837 32.5823 23.455 32.4398C23.5123 31.3192 23.0438 30.7315 22.3876 30.3301L16.4711 26.7012C15.1268 25.8779 13.8623 25.1011 12.5419 24.286C11.8125 23.8353 11.159 23.2709 10.3351 23.6572C9.34615 24.1203 9.57376 24.9107 9.57376 26.1313V35.7962C9.57376 36.7852 9.41403 37.9976 9.85327 38.7648C10.2712 39.495 10.8169 39.7073 11.577 40.195C12.2305 40.6156 12.908 41.0142 13.5628 41.4088C14.6543 42.0663 15.7644 43.0266 16.8319 42.8403C17.4242 42.7362 17.5413 42.5266 17.8993 42.3115ZM10.9341 25.0532L10.9327 37.162C10.9314 37.8072 11.0685 38.1182 11.4439 38.3894L15.6659 40.9786C16.8119 41.6567 16.7067 41.5951 17.5147 40.1868C17.9379 39.4511 18.3412 38.7401 18.7698 38.0113L21.8804 32.5987C22.2451 31.9686 21.927 31.7809 21.5277 31.5275L15.2 27.6423C14.81 27.404 11.2455 25.1669 10.9341 25.0532ZM19.993 42.1389C19.5778 42.3143 19.0746 43.1938 18.7951 43.6061C18.3026 44.3308 18.8976 45.1802 19.6683 44.9267C20.0769 44.7925 20.6027 43.8719 20.8662 43.4787C21.4039 42.6746 20.7451 41.8197 19.993 42.1389ZM23.4031 42.6088C22.9985 42.7842 21.7513 44.7582 21.3627 45.3035C20.5987 46.372 21.5969 47.0378 22.2358 46.7254C22.53 46.5816 23.6041 44.9336 23.8637 44.5678C24.0434 44.313 24.5398 43.728 24.5119 43.3253C24.4746 42.7787 23.9542 42.3704 23.4031 42.6088ZM26.0213 44.3966C25.5767 44.5116 25.4063 44.8788 25.0629 45.3815C24.7994 45.7665 23.5881 47.3816 23.5602 47.7255C23.499 48.494 24.4893 49.0913 25.0909 48.1954L26.2848 46.4816C26.4951 46.183 26.9729 45.6131 26.9903 45.25C27.0155 44.7021 26.5484 44.2609 26.0213 44.3966ZM27.721 47.3734C27.3483 47.4529 27.2498 47.6337 27.0794 47.8776C26.9197 48.1077 26.7307 48.3543 26.5909 48.5831C26.185 49.2461 26.7174 50.0133 27.4268 49.8681C27.8235 49.7872 28.3373 48.9735 28.5316 48.6351C28.9149 47.9721 28.3625 47.2364 27.721 47.3734ZM22.8934 33.807C22.6591 34.0331 22.1067 35.1071 21.8844 35.492C21.5464 36.0797 21.2176 36.6441 20.8782 37.2414C20.5521 37.8154 20.2033 38.4114 19.8732 38.9908C19.6749 39.3388 18.9415 40.506 18.8896 40.7937C19.426 40.9594 19.1052 40.8156 19.7575 40.6594C20.6506 40.4457 21.4678 40.7704 22.0242 41.469C22.0894 41.5512 22.1347 41.5992 22.1799 41.6471C24.0141 40.2799 25.6952 41.5731 25.8948 42.9047C26.7906 42.8622 27.5054 43.1869 27.8847 43.6856C28.4078 44.3733 28.5249 44.8925 28.3253 45.9446C29.3808 46.109 30.1248 47.1583 30.0902 48.2995C30.0756 48.7612 29.9132 49.0543 29.7814 49.4037L31.167 50.2338C31.7859 50.6023 32.4754 50.1078 32.3876 49.405C32.2904 48.6269 30.8369 48.2954 30.5308 47.8433C30.3524 47.5803 30.3591 47.2214 30.5308 46.9652C30.9381 46.3528 31.6009 46.8405 32.0508 47.1186C32.518 47.4049 32.9639 47.6762 33.4617 47.9776C33.8118 48.1913 34.5638 48.7694 35.0363 48.6735C35.6486 48.5488 35.9095 47.7132 35.3944 47.2488C35.0124 46.9063 32.116 45.3021 31.9071 45.061C31.726 44.8514 31.6755 44.4733 31.8166 44.1911C31.9257 43.9691 32.2132 43.7801 32.5806 43.8417C32.8401 43.8856 35.7697 45.7295 36.1411 45.9569C36.4685 46.1569 37.2418 46.7433 37.6904 46.6761C38.3066 46.5857 38.6168 45.7747 38.1296 45.2747C37.9246 45.0651 34.4959 43.0129 33.9569 42.6896C33.6813 42.5239 33.4657 42.4417 33.3486 42.1581C33.2035 41.806 33.3552 41.4334 33.5349 41.2855C34.05 40.8635 34.6516 41.4019 35.0656 41.6512L40.001 44.6623C40.6998 45.1062 41.3148 44.6336 41.3254 44.0431C41.3374 43.3869 40.7478 43.1842 40.222 42.8581C39.9917 42.7157 39.7588 42.58 39.5139 42.4307C39.0361 42.1389 38.5742 41.8512 38.1017 41.5731C37.1593 41.017 36.2382 40.432 35.2812 39.8539C34.8154 39.573 32.7123 38.2387 32.4248 38.1346C32.1054 39.5196 29.5858 40.9786 28.493 39.4361C28.083 38.8566 28.2521 37.1359 28.2521 36.3208C28.2521 35.7729 28.2254 35.2441 28.3625 34.7523C28.5116 34.218 28.7472 34.0111 28.9216 33.6385C28.1855 33.4495 28.1163 33.3371 27.3297 33.6385C26.8585 33.8194 26.4312 34.0016 25.9654 34.1769C24.7448 34.6345 23.8237 34.3372 22.8934 33.807ZM29.6736 38.6004C31.4212 38.5826 31.0632 36.7989 31.3826 36.4441C31.9017 35.8633 32.5673 36.4839 33.1263 36.8195L40.3112 41.1923C40.5002 41.3074 40.9341 41.6581 41.1244 41.5882C41.187 41.5663 41.8339 41.1416 41.9057 41.0841L38.4145 35.0016C38.2561 34.729 38.0351 34.3824 37.9073 34.1221C37.3656 34.2605 37.0475 34.4399 36.3647 34.3879C35.771 34.344 35.4476 34.2016 34.9471 34.0002C33.5189 33.4234 33.7359 33.3412 32.1373 33.7509C31.0925 34.0194 30.1408 34.1043 29.7894 35.0139C29.5565 35.6181 29.6736 37.7853 29.6736 38.6004Z" fill="#0260A2"/>
<path fill-rule="evenodd" clip-rule="evenodd" d="M26.5523 12.6102C25.6339 12.6116 23.3419 12.5047 22.6284 12.728C21.6501 13.0321 20.9593 13.9185 20.962 15.2048C20.966 16.6063 20.9673 18.0077 20.962 19.4078C20.9607 19.7845 20.9247 20.027 21.143 20.264C21.2947 20.4284 21.5783 20.5626 21.8844 20.4695C22.518 20.2763 22.3822 19.5886 22.3835 18.8694C22.7828 19.0804 22.9838 19.3078 23.5335 19.4845C24.1804 19.6927 24.4653 19.5845 25.0669 19.6927C25.0655 20.3311 25.0802 20.9613 25.7524 20.9818C26.5004 21.0065 26.5017 20.3503 26.4991 19.6708H34.0779C34.0793 20.3489 34.0699 20.9722 34.786 20.9832C35.0762 20.9873 35.2945 20.8311 35.4116 20.6311C35.5447 20.4037 35.4995 19.964 35.4995 19.6708C36.9197 19.6694 37.2258 19.479 38.2041 18.8639C38.2041 20.2887 38.2001 21.7134 38.2041 23.1381C38.2094 24.919 37.2564 24.5738 35.397 24.5738C34.416 24.5738 23.4284 24.6642 23.0011 24.4971C21.9323 24.0806 22.703 22.6627 22.1772 22.1422C22.0055 21.9723 21.6688 21.8791 21.3853 22.0038C20.8329 22.2476 20.9407 23.0148 20.9633 23.7176C20.982 24.3546 21.2734 24.8861 21.5676 25.2382C22.3516 26.1752 23.5894 26.0478 24.9857 26.0478H35.3464C35.992 26.0478 36.8159 26.093 37.4401 26.0355C38.5728 25.93 39.434 25.0752 39.6004 23.9505C39.6749 23.4436 39.623 16.1419 39.6257 15.4158C39.6336 11.5211 35.6978 12.8801 34.0074 12.5924C33.9794 12.0485 34.062 11.543 33.8903 11.032C33.3059 9.30594 31.5769 9.56349 30.2938 9.56349C29.1132 9.56349 28.2427 9.40594 27.3988 10.021C26.3527 10.7814 26.6694 11.9992 26.5523 12.6102ZM28.0271 12.6006L32.5606 12.6102C32.7083 10.7238 32.1786 11.0485 30.2938 11.0485C28.3585 11.0485 27.8807 10.7389 28.0271 12.6006ZM25.0669 18.1844C25.0669 17.7858 24.9724 16.8803 25.8016 16.894C26.6122 16.9077 26.4991 17.8146 26.4991 18.2077H34.0779C34.0779 17.7899 33.9754 16.9077 34.786 16.8953C35.5341 16.883 35.4995 17.557 35.4995 18.2077C37.5053 18.2132 38.2094 17.0817 38.2055 15.361C38.2028 14.7226 38.0244 14.3199 37.5506 14.1445C37.2777 14.0432 23.3046 14.0473 23.0397 14.1473C22.5699 14.3254 22.3849 14.6624 22.3822 15.3103C22.3809 15.9679 22.3809 16.3748 22.6564 16.92C23.0158 17.6283 23.9249 18.4132 25.0669 18.1844Z" fill="#0260A2"/>
<rect x="1" y="1" width="58" height="58" rx="29" stroke="#0260A2" stroke-width="2"/>
</svg>
