<svg width="60" height="60" viewBox="0 0 60 60" fill="none" xmlns="http://www.w3.org/2000/svg">
<path fill-rule="evenodd" clip-rule="evenodd" d="M31.246 18.5606L32.4764 18.5567C32.4751 19.7659 32.5924 19.4276 32.1079 20.4243C31.8911 20.8701 31.5494 21.4533 31.385 21.9199C31.0739 22.8064 31.1963 25.0731 31.1963 26.1773V32.8752C31.1937 34.192 31.4385 33.4027 30.5906 34.4084C29.2799 35.9624 28.2918 38.5402 28.7967 41.2877C29.7236 46.3254 34.6528 49.165 39.3167 47.7964C41.5939 47.1276 43.2322 45.5128 44.1872 43.7632C45.9442 40.5451 45.3092 36.4082 42.7745 33.8771C42.5412 33.6438 42.6457 33.6917 42.6445 32.9776V29.56C42.9173 29.7881 43.1812 30.3817 44.2038 30.9519C45.9658 31.9356 47.9536 31.3278 47.7062 29.5276C47.6182 28.8912 46.9285 28.1577 46.6416 27.6146C46.1048 26.5934 46.1584 23.8886 45.8141 22.5653C45.6063 21.7644 45.1371 21.2498 44.7406 20.7133C43.7754 19.4082 43.908 19.8488 43.9105 18.5567L45.1396 18.5606C45.2263 18.1679 45.1702 10.1688 45.1702 9.54541H31.2154C31.2154 10.1831 31.1593 18.1588 31.246 18.5606ZM32.5146 13.3959L37.57 13.3881L37.5662 14.6906H32.498V17.2451L43.871 17.2516V10.8609H43.8098H32.5159L32.5146 13.3959ZM33.7667 19.8333C33.7679 20.1301 32.8448 21.8007 32.6523 22.2465C32.3769 22.8802 32.498 24.7919 32.498 25.6188C32.498 26.7813 32.4381 32.0095 32.5095 32.6912L33.6137 32.1041C33.7208 32.0328 33.6927 32.0808 33.7424 31.9628V25.6369L35.0238 25.6188V31.622L36.2542 31.4198L36.2797 25.6265L37.5687 25.6188C37.57 26.6491 37.5279 30.7329 37.584 31.434L38.8182 31.6116L38.8169 25.6188L40.1072 25.6239V31.9628C40.1773 32.1157 40.2271 32.0963 40.4043 32.1767C40.5292 32.2337 40.6223 32.2829 40.7396 32.3451C40.9385 32.4514 41.1961 32.6018 41.3427 32.7016L41.3631 24.7997C40.0396 24.3512 38.8169 22.8738 38.8169 21.0516V19.8125L40.1072 19.8216C40.1059 20.9466 40.0116 21.732 40.5726 22.5653C41.1808 23.4673 41.7418 23.5309 42.5539 23.7991C42.7771 24.9591 43.2463 27.9477 43.6772 28.6968C43.9998 29.2554 44.571 29.7933 45.3755 30.0162C45.6955 30.1043 46.5434 30.2883 46.4108 29.6896C46.3063 29.2126 45.2977 28.6139 45.0376 26.561C44.9203 25.6434 44.8196 24.7699 44.7023 23.8536C44.4996 22.2569 44.2331 22.2011 43.1902 20.8183C43.0818 20.6744 42.9913 20.5591 42.8676 20.3854C42.7477 20.2156 42.619 20.1301 42.619 19.8838V18.558H33.7667V19.8333ZM36.221 32.7547C31.1822 33.3055 28.4193 38.8279 30.8201 43.1864C31.0433 43.5921 31.2651 43.9316 31.5316 44.2388C31.682 44.4112 31.7675 44.5434 31.9192 44.7093C32.0862 44.8933 32.2201 44.9762 32.3999 45.1344C33.606 46.201 35.4688 47.0395 37.6414 46.8036C41.2075 46.4174 44.2981 43.1786 43.8557 39.0223C43.4732 35.4193 40.2526 32.3127 36.221 32.7547Z" fill="#0260A2"/>
<path fill-rule="evenodd" clip-rule="evenodd" d="M15.9806 29.4111C15.4642 28.7709 15.2729 28.4819 14.4824 28.0257C13.9291 27.7082 12.867 27.3777 12.1275 27.5682C11.4301 27.747 10.8436 28.3938 10.915 29.323C10.9673 30.006 11.6532 30.7188 11.9465 31.2632C12.5368 32.3622 12.4539 34.9219 12.8007 36.3358C13.0111 37.1951 13.9597 38.3797 14.5016 39.0704C14.6648 39.2778 14.7145 39.2674 14.7145 39.6225C14.7158 39.8818 14.7119 40.1436 14.7119 40.4041H13.4726L13.4548 49.4529H27.4058L27.4173 40.4157L26.1372 40.4028C26.1372 39.305 26.0199 39.5409 26.4151 38.74C26.6293 38.3045 26.8397 37.8924 27.0514 37.4582C27.5614 36.4123 27.4173 35.2731 27.4173 33.9926C27.4173 33.0828 27.453 25.6436 27.3956 25.2988C27.3344 24.9437 27.1648 24.8621 27.337 24.6106C31.1403 19.0312 26.331 12.2647 20.3232 13.4713C15.4145 14.4563 13.2788 20.1743 15.746 24.1557C16.4396 25.2755 16.029 24.4862 15.9818 25.5153C15.9245 26.7608 15.9831 28.1501 15.9806 29.4111ZM14.7578 42.9702L26.0964 42.9637V41.7454H14.7655L14.7578 42.9702ZM14.7362 48.1504H25.937L26.1155 48.1349V44.3155L25.937 44.2908L25.7866 44.2947H25.5379H14.7374L14.7362 48.1504ZM21.1609 14.6753C19.8859 14.849 19.0966 15.1613 18.1455 15.9234C16.6742 17.1015 15.839 19.0287 16.0265 20.9597C16.3184 23.9743 18.9271 26.5301 22.2013 26.2035C23.3233 26.092 24.4096 25.6527 25.2447 24.9658C26.5771 23.868 27.5945 22.0121 27.3727 19.9035C27.2847 19.0623 27.059 18.3353 26.7046 17.6821C26.5095 17.3218 26.3616 17.1313 26.1461 16.8306C25.1338 15.4257 22.9969 14.4265 21.1609 14.6753ZM17.2709 34.1287C17.7018 34.4112 18.3393 34.5836 18.8837 35.3262C19.3338 35.9392 19.6181 36.4097 19.7571 37.2741C19.8157 37.6357 19.831 38.7931 19.7788 39.1508L18.5267 39.1482C18.4031 37.9325 18.7244 37.4323 18.069 36.4084C17.3461 35.2757 16.1986 35.242 16.1017 35.1603C15.8569 34.9543 15.5496 31.1323 14.828 30.0617C13.9291 28.7294 11.5652 28.329 12.3851 29.5498C12.6095 29.8855 12.8096 30.1849 13.02 30.5283C13.8105 31.8179 13.7123 34.3451 14.0336 35.9379C14.1152 36.3436 14.3741 36.7259 14.5679 36.9735C14.8063 37.2767 15.0307 37.5865 15.2576 37.8949L15.9423 38.8216C16.0762 39.0717 16.0022 40.0321 16.0022 40.4041H24.8558C24.8558 38.5974 24.787 39.099 25.6642 37.3156C25.9357 36.7622 26.1155 36.538 26.1155 35.8213C26.1168 34.7715 26.1525 26.3979 26.104 25.9572C26.0951 25.9676 25.6705 26.289 25.566 26.3577C25.3735 26.4834 25.1223 26.6467 24.8826 26.7322L24.8813 33.3251L23.5897 33.3342V27.2818C23.155 27.3634 22.8158 27.4788 22.3428 27.4969V33.3329L21.0525 33.3316V27.4969C20.5667 27.4775 20.2416 27.3543 19.7966 27.2792V33.3329L18.5153 33.3303V26.8372C18.4655 26.7154 18.4885 26.7621 18.3916 26.6895L17.8867 26.3927C17.7158 26.2877 17.3805 26.0479 17.2798 25.9546L17.2709 34.1287Z" fill="#0260A2"/>
<path fill-rule="evenodd" clip-rule="evenodd" d="M19.7459 21.8629H19.1466V22.879H19.7459V23.8432L20.6282 23.8302V22.879H22.3928V21.8629H20.6282V21.1034H22.542C25.2169 21.1021 25.1838 18.3092 23.9763 17.5134C23.2419 17.03 20.7888 17.1738 19.7472 17.1738L19.7459 21.8629ZM20.6282 20.3413C22.0447 20.3413 23.8412 20.6161 23.8399 19.1231C23.8399 18.6707 23.627 18.3286 23.3529 18.1459C22.95 17.8776 21.2236 17.9566 20.6282 17.9566V20.3413Z" fill="#0260A2"/>
<path fill-rule="evenodd" clip-rule="evenodd" d="M32.4449 43.3897L33.354 44.3215L40.9606 36.5842C40.8739 36.4184 40.2275 35.7703 40.0656 35.6641C39.868 35.7924 32.8848 42.9076 32.4449 43.3897Z" fill="#0260A2"/>
<path fill-rule="evenodd" clip-rule="evenodd" d="M39.3374 40.733C36.8167 41.3292 37.7105 45.1564 40.1381 44.5667C42.5504 43.9822 41.6872 40.177 39.3374 40.733ZM39.5401 42.055C39.1755 42.1898 39.0033 42.4529 39.1219 42.8624C39.2061 43.1566 39.5541 43.3795 39.929 43.2435C40.62 42.9933 40.2796 41.7828 39.5401 42.055Z" fill="#0260A2"/>
<path fill-rule="evenodd" clip-rule="evenodd" d="M31.1262 14.2551L31.1275 13.7392C31.0879 12.7854 30.1585 11.9676 29.1346 12.0363C26.8218 12.1918 26.8294 15.8142 29.1346 15.958C30.1623 16.0216 31.0867 15.2141 31.1262 14.2551ZM29.0288 13.4217C28.2511 13.7807 28.8223 14.9484 29.5465 14.57C30.1546 14.2525 29.804 13.064 29.0288 13.4217Z" fill="#0260A2"/>
<path fill-rule="evenodd" clip-rule="evenodd" d="M33.5043 35.7172C32.9305 35.8546 32.6003 36.0931 32.3122 36.4624C32.0278 36.8266 31.8748 37.4539 32.01 38.0229C32.2267 38.9378 33.1409 39.6986 34.3101 39.4563C35.2141 39.2696 36.0313 38.3365 35.7827 37.174C35.5864 36.2564 34.6429 35.445 33.5043 35.7172ZM33.6522 37.0132C32.9127 37.2958 33.3309 38.4739 34.1265 38.1563C34.8367 37.8725 34.4911 36.6944 33.6522 37.0132Z" fill="#0260A2"/>
<rect x="1" y="1" width="58" height="58" rx="29" stroke="#0260A2" stroke-width="2"/>
</svg>
