<svg width="60" height="60" viewBox="0 0 60 60" fill="none" xmlns="http://www.w3.org/2000/svg">
<path fill-rule="evenodd" clip-rule="evenodd" d="M30.624 53.1818C20.4604 53.2081 11.5556 45.7692 9.4124 35.4704C8.61134 31.6033 8.75827 27.7785 9.89557 24.0035C9.96904 23.7506 9.94502 23.5722 9.78961 23.3529C6.15874 18.0207 8.98715 10.6841 15.1695 9.39021C17.1404 8.97498 19.0462 9.27909 20.8277 10.2441C21.0651 10.3713 21.253 10.3961 21.5073 10.2777C24.9983 8.60216 28.6786 7.91792 32.5059 8.2732C42.3092 9.19576 49.9552 16.5821 51.8696 25.9758C54.2402 37.6036 47.6001 49.0442 36.586 52.3104C34.7381 52.8689 32.5949 53.1745 30.624 53.1818ZM9.6342 18.1903C9.64127 22.3207 12.8398 25.6205 16.8295 25.6205C20.8122 25.6205 24.0178 22.3119 24.0334 18.1903C24.0503 14.0863 20.7712 10.7017 16.8055 10.7178C12.8469 10.7353 9.6342 14.0863 9.6342 18.1903ZM40.7975 39.9049C40.7975 34.1838 40.7975 28.5139 40.7975 22.8455C38.8592 22.8455 36.9463 22.8455 35.0404 22.8455C35.0404 28.549 35.0404 34.2189 35.0404 39.9049C36.9703 39.9049 38.8677 39.9049 40.7975 39.9049ZM39.276 19.9682C39.3579 20.3323 39.4074 20.6949 39.5133 21.0428C39.5458 21.1613 39.7097 21.2958 39.8241 21.3045C40.2819 21.3382 40.7481 21.3133 41.2143 21.3221C42.0394 21.3221 42.2612 21.5502 42.2612 22.3967C42.2612 24.7316 42.2612 27.0767 42.2612 29.4117C42.2612 29.5725 42.2612 29.7333 42.2612 29.9102C45.1631 29.9102 48.0014 29.9102 50.8637 29.9102C50.8707 29.8093 50.8792 29.7245 50.8707 29.6485C50.8227 29.0725 50.7902 28.4979 50.7153 27.9218C50.2915 24.4787 49.0723 21.3557 47.1509 18.5208C46.9954 18.2927 46.8725 18.2327 46.5872 18.3088C45.1475 18.7065 43.6994 19.0954 42.2442 19.4346C41.2793 19.6626 40.2819 19.7986 39.276 19.9682ZM37.5184 18.6392C36.9858 17.2766 36.521 15.9739 35.9644 14.7121C35.3428 13.2998 34.5247 12.0044 33.3973 10.9473C31.6229 9.28786 29.652 9.29664 27.8776 10.9473C26.7487 12.0044 25.9632 13.3158 25.2766 14.7048C25.0887 15.0849 24.9912 15.4314 25.1707 15.8554C25.2851 16.1347 25.3261 16.4563 25.3501 16.7605C25.4165 17.4286 25.456 18.0968 25.5055 18.8C29.4641 19.088 33.4129 19.0456 37.5184 18.6392ZM33.5273 39.9136C33.5273 35.3783 33.5273 30.8927 33.5273 26.3823C31.5974 26.3823 29.6845 26.3823 27.7631 26.3823C27.7631 30.9015 27.7631 35.4032 27.7631 39.9136C29.693 39.9136 31.589 39.9136 33.5273 39.9136ZM10.3123 31.46C10.4593 32.5843 10.5497 33.6604 10.7376 34.7175C11.2858 37.7045 12.4386 40.4297 14.1481 42.9094C14.2696 43.0863 14.3769 43.1623 14.6143 43.079C15.1949 42.8758 15.7911 42.731 16.3633 42.5278C16.4693 42.4942 16.6007 42.3172 16.6092 42.19C16.6416 41.7661 16.6176 41.3435 16.6176 40.921C16.6176 40.1753 16.8536 39.9297 17.5656 39.9224C18.0403 39.9224 18.5065 39.9224 18.9643 39.9224C18.9643 37.0538 18.9643 34.2613 18.9643 31.4512C16.1104 31.46 13.2806 31.46 10.3123 31.46ZM42.2852 39.9224C42.8164 39.9224 43.3151 39.9136 43.8223 39.9224C44.362 39.9297 44.6488 40.2265 44.6573 40.785C44.6643 41.2251 44.6728 41.6564 44.6573 42.0965C44.6488 42.3596 44.7053 42.4942 44.9921 42.5541C45.5078 42.6725 46.022 42.8246 46.5123 43.019C46.84 43.1462 47.0124 43.0702 47.2074 42.7822C49.1952 39.8537 50.372 36.6138 50.7902 33.0756C50.8552 32.5434 50.8637 32.001 50.9046 31.46C47.9929 31.46 45.1475 31.46 42.2937 31.46C42.2852 34.2862 42.2852 37.0699 42.2852 39.9224ZM33.5443 24.85C33.5443 23.9538 33.5443 23.1248 33.5443 22.287C33.5443 21.5838 33.7887 21.3294 34.4838 21.3221C35.2778 21.3221 36.0619 21.3221 36.8559 21.3221C37.2486 21.3221 37.6414 21.3221 38.0497 21.3221C38.0327 21.17 38.0412 21.0677 38.0172 20.9741C37.9508 20.6875 37.8858 20.4083 37.8123 20.1027C33.6093 20.5516 29.4302 20.5603 25.2441 20.2723C24.8104 21.999 24.0009 23.4377 22.8071 24.6468C22.7096 24.7491 22.6107 24.9012 22.5951 25.0372C22.5217 25.6118 22.4722 26.1878 22.4228 26.7551C22.3818 27.2785 22.3663 27.8122 22.3324 28.3458C23.6745 28.3458 24.9573 28.3458 26.2656 28.3458C26.2656 27.4744 26.2656 26.6279 26.2656 25.7814C26.2656 25.0957 26.5114 24.8339 27.174 24.8339C29.1364 24.8339 31.0987 24.8339 33.0611 24.8339C33.208 24.85 33.3564 24.85 33.5443 24.85ZM20.4844 29.8941C20.4844 33.2539 20.4844 36.5714 20.4844 39.8961C22.4228 39.8961 24.3357 39.8961 26.25 39.8961C26.25 36.5538 26.25 33.2364 26.25 29.8941C24.3202 29.8941 22.4143 29.8941 20.4844 29.8941ZM36.7499 44.8378C32.6443 44.8378 28.6136 44.8378 24.5165 44.8378C24.6719 45.2194 24.8019 45.5747 24.9503 45.9139C25.6609 47.5543 26.5029 49.1114 27.7956 50.3469C29.6351 52.1072 31.6638 52.1072 33.4948 50.322C35.0489 48.8161 35.9559 46.895 36.7499 44.8378ZM18.0883 43.2807C26.4789 43.2807 34.82 43.2807 43.1682 43.2807C43.1682 42.655 43.1682 42.0541 43.1682 41.4619C34.7946 41.4619 26.4464 41.4619 18.0883 41.4619C18.0883 42.0804 18.0883 42.6638 18.0883 43.2807ZM34.6886 10.1169C36.8643 12.538 38.0087 15.4227 38.9086 18.4696C41.2962 18.1991 43.6259 17.6918 45.9655 16.9637C42.9309 13.4006 39.211 11.1418 34.6886 10.1169ZM21.0241 26.0431C17.4921 27.8034 14.2215 27.432 11.1628 24.9772C10.7955 25.7141 10.3123 28.8531 10.4183 29.9102C13.2651 29.9102 16.1189 29.9102 19.0052 29.9102C19.0052 29.6909 19.0052 29.4965 19.0052 29.302C19.0137 28.6675 19.2666 28.4043 19.8798 28.3955C20.2075 28.3955 20.5254 28.3955 20.8687 28.3955C20.9266 27.6762 20.9832 27.008 21.0326 26.3311C21.0326 26.2463 21.0241 26.1615 21.0241 26.0431ZM15.2924 44.4153C18.3582 47.9871 22.0625 50.2372 26.397 51.2197C25.7513 50.2285 25.0153 49.2474 24.4261 48.1728C23.837 47.107 23.3962 45.9563 22.8805 44.813C21.164 44.813 19.422 44.813 17.68 44.813C16.9355 44.813 16.8211 44.737 16.5442 44.0264C16.1514 44.1536 15.7502 44.272 15.2924 44.4153ZM34.6646 51.2621C39.211 50.2285 42.9238 47.9696 45.9726 44.4065C45.5148 44.272 45.1235 44.1448 44.6898 44.0176C44.5669 44.7033 44.1416 44.8305 43.5694 44.8218C41.9179 44.7969 40.2734 44.813 38.6218 44.813C38.417 44.813 38.2785 44.8393 38.1966 45.0835C37.3955 47.3263 36.3656 49.4419 34.6646 51.2621ZM22.5372 11.3523C23.1588 12.114 23.707 12.791 24.2057 13.3919C24.9503 12.3173 25.7103 11.2178 26.5199 10.0496C25.1707 10.4985 23.8709 10.921 22.5372 11.3523Z" fill="#0260A2"/>
<path fill-rule="evenodd" clip-rule="evenodd" d="M17.5092 13.8919C18.5392 14.2808 19.1283 14.9914 19.2908 16.0587C19.3897 16.6845 19.0054 17.1582 18.4657 17.0573C18.032 16.9798 17.885 16.6508 17.8441 16.2356C17.8031 15.7868 17.5417 15.5002 17.132 15.3554C16.7237 15.2122 16.3719 15.3394 16.0852 15.6347C15.7913 15.9403 15.6938 16.3292 15.8732 16.7181C15.9707 16.9301 16.1671 17.1333 16.3635 17.2342C16.7393 17.4199 17.1575 17.531 17.5488 17.6655C18.5307 18.0047 19.2173 18.6056 19.2993 19.7475C19.3812 20.882 18.8415 21.8046 17.8271 22.3456C17.7212 22.4055 17.6392 22.5736 17.5982 22.7096C17.5573 22.8368 17.5982 22.9889 17.5898 23.1321C17.5658 23.5561 17.2874 23.8602 16.8947 23.8778C16.5189 23.8939 16.1261 23.5985 16.1586 23.1921C16.2165 22.5999 15.9297 22.388 15.4974 22.1336C14.7444 21.6935 14.4011 20.9405 14.3517 20.0604C14.3276 19.6042 14.63 19.2401 15.0312 19.2065C15.424 19.1729 15.7503 19.5018 15.7913 19.9682C15.8492 20.6788 16.307 21.1013 16.9357 21.0502C17.5078 21.0005 17.885 20.4843 17.8441 19.8235C17.8271 19.4945 17.6392 19.3074 17.3694 19.1977C16.9611 19.0369 16.5514 18.9097 16.1346 18.7664C15.0397 18.3936 14.3686 17.6494 14.3446 16.4301C14.3192 15.3043 14.8504 14.5089 15.8238 14.0104C15.9297 13.9592 16.0032 13.7735 16.0371 13.6288C16.0852 13.427 16.0442 13.2062 16.1021 13.003C16.2081 12.6302 16.4779 12.462 16.8537 12.4957C17.2309 12.5381 17.4428 12.7749 17.4923 13.155C17.5333 13.3919 17.5092 13.6375 17.5092 13.8919Z" fill="#0260A2"/>
<rect x="1" y="1" width="58" height="58" rx="29" stroke="#0260A2" stroke-width="2"/>
</svg>
