<svg width="60" height="60" viewBox="0 0 60 60" fill="none" xmlns="http://www.w3.org/2000/svg">
<path fill-rule="evenodd" clip-rule="evenodd" d="M16.2852 8.252C15.1507 8.45755 14.2514 9.0961 13.8484 10.2513C13.5279 11.1694 13.6659 13.4317 13.6659 14.5512V45.7721C13.6659 47.2876 13.5563 48.5414 14.4908 49.4198C14.7098 49.6253 14.7856 49.7555 15.079 49.9432C15.9918 50.5256 16.8586 50.4379 17.9323 50.4379H40.0002C41.4026 50.4379 42.8265 50.6078 43.8286 49.8638C45.4581 48.6565 45.1362 46.8368 45.1443 44.5443C45.1457 44.151 45.1741 43.8728 44.9429 43.6467C44.7414 43.4508 44.3722 43.4288 44.1396 43.6152C43.5595 44.0797 44.1274 46.612 43.8286 47.7809C43.4229 49.3732 41.8691 49.1649 40.8441 49.1649H18.7748C17.2156 49.1649 15.9458 49.439 15.2102 48.3167C14.8369 47.748 14.9005 47.1588 14.9005 46.4133V12.9494C14.9005 12.3834 14.8424 11.2886 14.9789 10.8103C15.1331 10.2704 15.5428 9.82099 16.0175 9.62093C16.7328 9.31809 19.2941 9.46197 20.2501 9.46197C21.908 9.46197 41.7041 9.39894 42.3127 9.48664C42.9455 9.57845 43.3958 9.97583 43.6365 10.3869C43.98 10.972 43.8975 11.6092 43.8975 12.3629C43.8975 15.2323 43.838 40.9938 43.9138 41.383C44.0382 42.0216 44.9712 42.0147 45.1214 41.3624C45.1971 41.0336 45.1443 14.6047 45.1443 14.6047C45.1443 13.5386 45.2606 11.2105 44.9848 10.354C44.6548 9.32768 43.7542 8.47125 42.6304 8.25885C41.9124 8.1232 25.7377 8.20815 25.0426 8.20815C24.2421 8.20815 16.8884 8.14375 16.2852 8.252Z" fill="#0260A2"/>
<path fill-rule="evenodd" clip-rule="evenodd" d="M41.2633 46.4642C41.1957 46.5081 41.3133 46.493 41.1078 46.519L35.366 46.5177C33.9069 46.5177 18.1568 46.5793 17.5131 46.5026L17.505 19.3187C17.4036 18.628 16.4921 18.6774 16.3285 19.2214C16.2379 19.516 16.2988 43.6332 16.2988 46.2532C16.2988 48.0565 16.1838 47.7701 18.933 47.7701C26.4382 47.7701 34.0286 47.729 41.5283 47.7701C42.4114 47.7756 42.5142 47.5289 42.5114 46.6807C42.5006 42.9823 42.5804 11.7149 42.4871 11.334C42.3357 10.7132 41.5594 10.8763 40.8968 10.8763H18.3015C17.7471 10.8763 16.7842 10.7201 16.4516 11.075C16.1744 11.3723 16.2988 12.5152 16.2988 13.003C16.2988 13.6963 16.2988 14.3911 16.2988 15.0845C16.2988 15.5997 16.1784 16.6973 16.4637 17.0001C16.6625 17.2112 17.5334 17.4386 17.5348 16.3684C17.5375 14.9556 17.5321 13.5429 17.5334 12.1301L41.2646 12.1315L41.2633 46.4642Z" fill="#0260A2"/>
<path fill-rule="evenodd" clip-rule="evenodd" d="M35.3443 21.5575C35.343 22.0289 35.4376 23.7075 35.2781 23.9624C35.1334 24.0939 26.1163 24.0158 24.5166 24.0158C23.8026 24.0158 23.1968 23.9391 22.7221 24.3666C22.2339 24.8065 22.2069 25.1765 22.2069 26.0247C22.2069 26.7783 22.2055 27.5306 22.2069 28.2829C19.9391 28.8584 20.1392 32.2403 22.2069 32.6829C22.2069 33.4174 22.2069 34.1505 22.2069 34.885C22.2069 36.713 22.7451 36.9473 24.4638 36.9473H30.9413C31.589 36.9473 34.9765 36.8349 35.2726 37.0076C35.3944 37.1158 35.3443 37.8668 35.3443 38.1408C35.3443 38.5629 35.343 38.9863 35.3443 39.4097C34.6871 39.7824 34.5586 39.7071 34.1516 40.273C33.0522 41.8036 34.1056 43.8769 35.8961 43.9385C37.8663 44.0071 38.8521 41.742 37.8163 40.3004C37.4268 39.7605 37.2389 39.7482 36.5992 39.4097C36.6019 38.0257 36.8765 36.5102 35.8974 35.8935C35.3835 35.5715 34.6263 35.6853 33.9961 35.6853C32.4437 35.6853 23.9987 35.7634 23.4983 35.6455C23.3739 35.3112 23.4456 33.2324 23.4456 32.6816C25.6133 32.18 25.6092 28.7845 23.4456 28.2829C23.4456 27.7417 23.3455 25.6917 23.4983 25.3669C23.7715 25.1545 26.9845 25.2792 27.6241 25.2792C29.0278 25.2792 30.4328 25.2792 31.8378 25.2792C32.7182 25.2792 35.274 25.4437 35.8663 25.0915C36.3071 24.8298 36.5898 24.416 36.6006 23.6774C36.6114 22.9744 36.5992 22.2618 36.5992 21.5589C36.9292 21.7261 37.1347 22.3441 37.7203 22.1742C38.0665 22.0741 38.4018 21.5671 37.8961 21.0615C35.6188 18.7868 36.3058 18.8142 34.0745 21.0341C33.5539 21.5534 33.8419 22.0385 34.18 22.1618C34.7804 22.3811 35.0198 21.7247 35.3443 21.5575ZM35.8704 40.6183C34.4816 40.8088 34.7885 42.83 36.0935 42.6655C36.6182 42.5998 37.055 42.1119 36.9819 41.5145C36.9197 41.002 36.4261 40.5416 35.8704 40.6183ZM22.7032 29.4627C21.3117 29.6875 21.6687 31.7059 22.9682 31.5086C23.4943 31.4278 23.9026 30.9646 23.8337 30.3521C23.7769 29.8382 23.286 29.3696 22.7032 29.4627Z" fill="#0260A2"/>
<path fill-rule="evenodd" clip-rule="evenodd" d="M35.4485 28.2667C32.5222 29.0067 33.5878 33.3478 36.4492 32.7257C37.5121 32.4941 38.5155 31.3938 38.1747 29.9522C37.9178 28.8656 36.836 27.916 35.4485 28.2667ZM35.7907 29.4767C34.3897 29.7741 34.9036 31.7651 36.1788 31.4965C37.4797 31.2238 37.0753 29.2027 35.7907 29.4767Z" fill="#0260A2"/>
<path fill-rule="evenodd" clip-rule="evenodd" d="M22.3231 39.4127C19.413 40.1184 20.388 44.5144 23.3333 43.8799C24.4002 43.6497 25.3414 42.4877 25.0385 41.1366C24.7924 40.0458 23.6849 39.0811 22.3231 39.4127ZM22.7437 40.6145C21.3603 40.7762 21.6064 42.8029 22.9262 42.6713C23.4725 42.6165 23.8863 42.141 23.839 41.5573C23.7957 41.0146 23.3103 40.5474 22.7437 40.6145Z" fill="#0260A2"/>
<path fill-rule="evenodd" clip-rule="evenodd" d="M19.3035 17.418C18.9951 17.5496 18.7761 17.9086 19.0019 18.3252C19.1858 18.6664 19.5645 18.6307 20.0391 18.6294C21.2805 18.6266 27.6957 18.6965 28.0108 18.5718C28.3056 18.4567 28.5031 18.0511 28.2921 17.6619C28.1095 17.3249 27.7282 17.355 27.2549 17.3564C26.0162 17.3605 19.6118 17.2879 19.3035 17.418Z" fill="#0260A2"/>
<path fill-rule="evenodd" clip-rule="evenodd" d="M19.3143 14.7569C18.8788 14.9528 18.8342 15.3393 19.0005 15.6572C19.1872 16.0107 19.5577 15.9627 20.0391 15.9614C21.2575 15.9586 27.7309 16.0189 28.0162 15.9093C28.2989 15.8011 28.503 15.3722 28.2907 14.9967C28.1136 14.6843 27.7147 14.7089 27.2549 14.7103C26.0852 14.7117 19.536 14.6569 19.3143 14.7569Z" fill="#0260A2"/>
<path fill-rule="evenodd" clip-rule="evenodd" d="M35.0714 16.4479C34.8956 16.8974 33.6799 17.5168 34.3926 18.1526C35.093 18.7747 35.5366 17.5935 36.0221 17.4208C36.1857 17.6319 36.4616 17.884 36.663 18.0923C37.2932 18.7473 38.1343 17.8497 37.542 17.203C37.3392 16.9796 36.9876 16.7425 36.8726 16.4479C37.2526 16.1807 38.1681 15.3722 37.5488 14.8474C37.2094 14.5583 36.8348 14.7392 36.613 14.9598C36.3926 15.1804 36.1641 15.3873 35.9626 15.5956C35.5095 15.1612 34.9646 14.3582 34.3939 14.8461C34.1302 15.0694 34.1018 15.5312 34.3953 15.8025C34.6022 15.9957 34.8604 16.2999 35.0714 16.4479Z" fill="#0260A2"/>
<path fill-rule="evenodd" clip-rule="evenodd" d="M19.297 20.0815C18.7777 20.3048 18.7993 21.0489 19.2861 21.2366C19.5931 21.3545 24.5114 21.3353 24.7345 21.227C25.178 21.0133 25.1794 20.3021 24.7358 20.0938C24.437 19.9527 19.4917 19.9979 19.297 20.0815Z" fill="#0260A2"/>
<rect x="1" y="1" width="58" height="58" rx="29" stroke="#0260A2" stroke-width="2"/>
</svg>
