<svg width="36" height="40" viewBox="0 0 36 40" fill="none" xmlns="http://www.w3.org/2000/svg">
<path fill-rule="evenodd" clip-rule="evenodd" d="M15.705 28.0466L11.1154 24.8413H4.58956L0 28.0466V36.661H15.705V28.0466ZM13.5537 34.7245H2.15137V29.0483L5.30669 26.8447H10.3983L13.5537 29.0483V34.7245Z" fill="#C52552"/>
<path fill-rule="evenodd" clip-rule="evenodd" d="M35.9998 15.5593L19.2909 0H3.80094V13.4224C1.43446 15.5593 1.36275 19.0985 3.65753 21.3022C5.95235 23.5058 9.75311 23.5726 12.1196 21.4357C14.4861 19.2988 14.5578 15.7596 12.263 13.5559C10.6137 12.0201 8.17543 11.4858 5.95235 12.2203V2.00333H16.6375V13.4224L21.5856 17.9633H33.8485V37.9966H5.95235V36.3478H3.80094V40H35.9998V15.5593ZM7.96027 13.8898C10.1117 13.8898 11.761 15.4925 11.761 17.429C11.761 19.4324 10.0399 20.9683 7.96027 20.9683C5.80894 20.9683 4.15951 19.3656 4.15951 17.429C4.15951 16.4274 4.66149 15.4257 5.45037 14.758C6.16751 14.1569 7.02806 13.8898 7.96027 13.8898ZM22.4462 15.9599L18.7889 12.5542V2.404L33.3464 15.9599H22.4462Z" fill="#C52552"/>
</svg>
