<svg width="40" height="40" viewBox="0 0 40 40" fill="none" xmlns="http://www.w3.org/2000/svg">
<path fill-rule="evenodd" clip-rule="evenodd" d="M5.35515 32.6165L3.94109 34.0837L6.43309 36.6573L10.0031 32.9659L8.58905 31.5103L6.43309 33.7345L5.35515 32.6165Z" fill="#C52552"/>
<path fill-rule="evenodd" clip-rule="evenodd" d="M35.6534 28.1802H29.4755L29.4407 28.2034H29.3595L26.682 30.1714H26.7632L25.152 31.3708V39.9997H39.9999V31.3825L35.6534 28.1802ZM37.9832 38.0899H27.1573V32.3606L30.1593 30.1481H34.9927L37.9947 32.3606L37.9832 38.0899Z" fill="#C52552"/>
<path fill-rule="evenodd" clip-rule="evenodd" d="M0 28.1802V39.9997H23.1817V39.9647V38.02H1.99363V30.1481H23.4019L23.9815 29.7172L26.0563 28.1802H0Z" fill="#C52552"/>
<path fill-rule="evenodd" clip-rule="evenodd" d="M5.35515 18.6785L3.94109 20.1458L6.43309 22.7193L10.0031 19.0396L8.58905 17.5723L6.43309 19.7965L5.35515 18.6785Z" fill="#C52552"/>
<path fill-rule="evenodd" clip-rule="evenodd" d="M37.8096 17.1763L37.74 17.0366C37.7168 17.0017 37.7052 16.9667 37.6821 16.9201C37.6589 16.8852 37.6242 16.827 37.6009 16.7804L37.543 16.6756L37.4502 16.5358L37.3807 16.4427L37.2764 16.303L37.2184 16.2215L37.1141 16.0817C37.0909 16.0584 37.0794 16.0352 37.0562 16.0118C37.0098 15.9652 36.975 15.9187 36.9287 15.8721C36.9055 15.8488 36.8939 15.8255 36.8707 15.8139C36.8243 15.7673 36.778 15.7207 36.7316 15.6741C36.7201 15.6509 36.6969 15.6392 36.6852 15.6275C36.6389 15.581 36.581 15.5344 36.5345 15.4878L36.4882 15.4529C36.4303 15.4063 36.3723 15.3481 36.3144 15.3015L36.2796 15.2783C36.2216 15.2317 36.1521 15.1734 36.0825 15.1269L36.0709 15.1152C35.1668 14.4398 34.1005 14.0323 32.9762 13.9623C32.8487 13.9507 32.7212 13.9507 32.5937 13.9507C31.168 13.9507 29.7887 14.4864 28.7108 15.4412C28.5253 15.6043 28.3514 15.7906 28.1891 15.9769C28.0965 16.0817 28.0153 16.1865 27.9342 16.2913L27.9226 16.303C27.8762 16.3612 27.8414 16.4194 27.7951 16.466C27.7255 16.5824 27.6444 16.6756 27.5748 16.7921L27.5516 16.8386C27.5169 16.8969 27.4821 16.9551 27.459 17.0017L27.4474 17.0366C27.3894 17.1414 27.343 17.2346 27.285 17.3394C27.2735 17.3626 27.2619 17.386 27.2503 17.4092C27.2271 17.4558 27.2039 17.514 27.1808 17.5606C27.1692 17.5839 27.1576 17.6189 27.146 17.6421C27.1112 17.7237 27.0764 17.8052 27.0533 17.8983L27.0185 18.0147C27.0069 18.0613 26.9837 18.108 26.9721 18.1545C26.9605 18.2011 26.9373 18.2593 26.9258 18.3059C26.9142 18.3524 26.891 18.434 26.8794 18.4922C26.8678 18.5388 26.8562 18.5854 26.8447 18.6203C26.833 18.6669 26.8214 18.7135 26.8098 18.76C26.7982 18.8299 26.7751 18.9114 26.7635 18.9813C26.7056 19.319 26.6823 19.6567 26.6823 19.9944C26.6823 20.3321 26.7056 20.6698 26.7635 21.0075C26.7982 21.2171 26.8447 21.4267 26.9026 21.6247C26.9026 21.6363 26.9142 21.648 26.9142 21.6596C26.9721 21.8459 27.0301 22.0323 27.0996 22.2186L27.1112 22.2652C27.1344 22.3233 27.1576 22.3816 27.1808 22.4398L27.2039 22.4864C27.2503 22.6029 27.3083 22.7193 27.3662 22.8241V22.8357C27.3894 22.8823 27.4241 22.9406 27.4474 22.9871L27.4821 23.057C27.5053 23.1035 27.5401 23.1501 27.5632 23.1967C27.5748 23.2084 27.5864 23.2316 27.5981 23.2433C27.656 23.3248 27.7023 23.418 27.7603 23.4995L27.8067 23.5693C27.8414 23.6159 27.8646 23.6509 27.8994 23.6975L27.9574 23.7673C28.0269 23.8604 28.108 23.9536 28.1775 24.0352C29.3019 25.3277 30.9014 26.0613 32.5821 26.0613C32.7096 26.0613 32.8371 26.0613 32.9646 26.0497C34.0773 25.9798 35.1552 25.5723 36.0593 24.8969L36.0709 24.8852C36.1405 24.8386 36.1984 24.7804 36.268 24.7338L36.3028 24.7106C36.3607 24.664 36.4187 24.6174 36.4766 24.5592L36.523 24.5242L36.6736 24.3845C36.6968 24.3729 36.7085 24.3495 36.7316 24.3379C36.778 24.2913 36.8243 24.2447 36.8707 24.1982C36.8939 24.1749 36.9055 24.1516 36.9287 24.14C36.975 24.0933 37.0098 24.0468 37.0562 24.0002L37.1141 23.9304C37.1489 23.8838 37.1953 23.8372 37.2184 23.7906L37.2764 23.7091C37.3112 23.6625 37.346 23.6159 37.3807 23.5693L37.4502 23.4762L37.543 23.3364L37.6009 23.2316C37.6242 23.185 37.6589 23.1385 37.6821 23.0919C37.7052 23.0453 37.7284 23.0221 37.74 22.9755L37.8096 22.8357C37.8328 22.8008 37.8443 22.7542 37.8675 22.7193C37.8907 22.6844 37.9139 22.6261 37.9371 22.5795C37.9603 22.533 37.9719 22.498 37.995 22.4515L38.053 22.3117C38.0646 22.2652 38.0878 22.2302 38.0994 22.1836C38.111 22.137 38.1341 22.0904 38.1457 22.0439C38.1573 21.9973 38.1805 21.9507 38.192 21.9041C38.2036 21.8575 38.2269 21.811 38.2385 21.7644C38.2501 21.7178 38.2616 21.6712 38.2732 21.613C38.2848 21.5664 38.2964 21.5198 38.308 21.4733C38.3196 21.4267 38.3311 21.3684 38.3427 21.3219C38.3543 21.2753 38.366 21.2287 38.366 21.1938C38.3776 21.1472 38.3891 21.0773 38.3891 21.0307C38.4007 20.9842 38.4007 20.9492 38.4123 20.9027C38.4239 20.8561 38.4239 20.7863 38.4355 20.728C38.4355 20.6931 38.4471 20.6465 38.4471 20.6115C38.4587 20.5417 38.4587 20.4835 38.4587 20.4136C38.4587 20.3787 38.4587 20.3437 38.4702 20.3088C38.4702 20.204 38.4818 20.1109 38.4818 20.006C38.4818 19.9012 38.4818 19.7964 38.4702 19.7032C38.4702 19.6683 38.4702 19.6334 38.4587 19.5984C38.4587 19.5286 38.4471 19.4587 38.4471 19.4005C38.4471 19.354 38.4355 19.319 38.4355 19.2841C38.4239 19.2258 38.4239 19.1676 38.4123 19.1094C38.4007 19.0395 38.4007 19.0278 38.3891 18.9813C38.3776 18.9347 38.366 18.8649 38.366 18.8183C38.3543 18.7717 38.3427 18.7251 38.3427 18.6901C38.3311 18.6436 38.3196 18.5854 38.308 18.5388C38.2964 18.4922 38.2848 18.4456 38.2732 18.399C38.2616 18.3524 38.2501 18.3059 38.2385 18.2477C38.2269 18.2011 38.2153 18.1545 38.192 18.108C38.1805 18.0613 38.1573 18.0147 38.1457 17.9681C38.1341 17.9216 38.111 17.875 38.0994 17.8284C38.0762 17.7818 38.0646 17.7353 38.053 17.7003L37.995 17.5606C37.9719 17.514 37.9603 17.4791 37.9371 17.4325C37.9139 17.386 37.8907 17.3394 37.8675 17.2928C37.8328 17.2462 37.8212 17.2112 37.8096 17.1763ZM32.6285 24.0352H32.5357C30.3567 24.0118 28.618 22.1836 28.6412 19.9478C28.6644 17.7237 30.4494 15.9303 32.6285 15.9537C34.8075 15.9769 36.5462 17.8052 36.523 20.041C36.4998 22.2418 34.7612 24.0118 32.6285 24.0352Z" fill="#C52552"/>
<path fill-rule="evenodd" clip-rule="evenodd" d="M25.639 24.035H1.99362V15.9535H25.6274C26.0563 15.1966 26.6126 14.5096 27.2617 13.939H0V26.0613H27.2733C26.6242 25.479 26.0679 24.7919 25.639 24.035Z" fill="#C52552"/>
<path fill-rule="evenodd" clip-rule="evenodd" d="M37.879 0H0V12.1223H37.879V0ZM35.8853 10.0961H1.99362V2.02621H35.8853V10.0961Z" fill="#C52552"/>
<path fill-rule="evenodd" clip-rule="evenodd" d="M10.0031 5.00737L8.58905 3.6333L6.43309 5.72936L5.35515 4.68133L3.94109 6.0554L6.43309 8.48916L10.0031 5.00737Z" fill="#C52552"/>
</svg>
