<svg width="40" height="40" viewBox="0 0 40 40" fill="none" xmlns="http://www.w3.org/2000/svg">
<path fill-rule="evenodd" clip-rule="evenodd" d="M39.9336 0.000976562H13.9967V20.0346H24.0132V33.0766H10.7462L5.97011 36.2363V33.0766H1.99004V17.0767H12.0066V15.0599H0V35.1607H3.98007V40.001L11.277 35.0934H25.937V20.0346H28.6567L36.0198 24.875V20.0346H40V0.000976562H39.9336ZM37.9436 18.085H33.9635V21.2447L29.2537 18.085H15.9867V2.01774H37.9436V18.085Z" fill="#C52552"/>
<path fill-rule="evenodd" clip-rule="evenodd" d="M3.91342 24.1353H21.7575V26.2193H3.91342V24.1353Z" fill="#C52552"/>
<path fill-rule="evenodd" clip-rule="evenodd" d="M25.7376 14.0513H27.8604V16.2026H25.7376V14.0513Z" fill="#C52552"/>
<path fill-rule="evenodd" clip-rule="evenodd" d="M26.799 5.98399C27.5951 5.98399 28.2584 6.65625 28.2584 7.46292C28.2584 8.26968 27.5951 8.94194 26.799 8.94194H25.8041V11.8999H27.7941V10.7571C29.6514 10.2193 30.6465 8.26968 30.1158 6.45457C29.5851 4.63946 27.5951 3.56381 25.8041 4.16879C24.3447 4.63937 23.3496 5.98399 23.3496 7.46292H25.3397C25.2733 6.65625 25.9367 5.98399 26.799 5.98399Z" fill="#C52552"/>
</svg>
