<svg width="50" height="42" viewBox="0 0 50 42" fill="none" xmlns="http://www.w3.org/2000/svg">
<path d="M43.58 25.2019L40.6326 22.2799L49.7391 13.3224L49.8 13.2625L49.7393 13.2024L37.4923 1.0609L37.4325 1.00167L37.3724 1.06047L32.45 5.86965L25.7513 6.92939H25.0481L18.3502 5.94041L13.5001 1.06134L13.4401 1.00098L13.3794 1.06073L1.06078 13.2023L1 13.2621L1.06061 13.3222L2.34977 14.6002L2.40977 14.6597L2.46996 14.6005L13.4399 3.79562L16.5408 6.80149L6.91986 16.2694L6.04869 15.4721L5.99029 15.4187L5.93251 15.4728L4.64335 16.6798L4.579 16.7401L4.64199 16.8017L10.1671 22.209L6.9334 25.4149L6.87273 25.4751L6.93374 25.5349L22.6184 40.9426L22.6779 41.001L22.7378 40.9431L25.3991 38.3741L27.7749 40.7294L27.8348 40.7887L27.8949 40.7296L43.5797 25.322L43.6407 25.2621L43.58 25.2019ZM19.3613 14.9664L25.4352 8.94476H25.9013H25.9081L25.9147 8.94374L32.6043 7.88544L42.5396 17.6647L39.294 20.8822L29.8896 11.629L30.4019 11.1211L30.4623 11.0612L30.4019 11.0013L29.1128 9.72323L29.0526 9.66355L28.9924 9.72323L21.5325 17.1189L19.3613 14.9664ZM22.9287 8.6331L16.5308 14.9061L16.4697 14.9661L16.5305 15.0263L21.4007 19.8545L21.4605 19.9138L21.5208 19.8548L28.4797 13.0262L40.8919 25.191L27.9068 37.9939L26.882 36.9779L30.4013 33.5587L30.4633 33.4985L30.4017 33.438L14.6453 17.9593L14.5851 17.9002L14.5251 17.9596L11.5773 20.8821L8.33205 17.6647L18.2672 7.88552L22.9287 8.6331ZM37.4317 3.79562L47.0509 13.2618L43.9498 16.2679L38.495 10.9303L34.3305 6.80174L37.4317 3.79562ZM22.6787 38.2783L9.6932 25.4751L14.5851 20.6946L27.5705 33.4978L22.6787 38.2783Z" fill="#C52552" stroke="#FF0000" stroke-width="0.2"/>
</svg>
