<svg width="61" height="61" viewBox="0 0 61 61" fill="none" xmlns="http://www.w3.org/2000/svg">
<circle cx="30.5" cy="30.5" r="28.5" fill="white" stroke="#F1F1F1" stroke-width="4"/>
<path d="M16 30.9789C16 31.4336 16.1834 31.8696 16.5098 32.1911C16.8362 32.5126 17.2789 32.6932 17.7406 32.6932L40.6951 32.6418L33.1707 40.0526C33.0044 40.2108 32.8718 40.3999 32.7806 40.6091C32.6894 40.8182 32.6414 41.0432 32.6394 41.2708C32.6373 41.4984 32.6814 41.7242 32.7689 41.9349C32.8564 42.1455 32.9857 42.3369 33.1491 42.4979C33.3125 42.6589 33.5068 42.7861 33.7208 42.8723C33.9347 42.9585 34.1639 43.0019 34.395 42.9999C34.6261 42.998 34.8545 42.9507 35.0668 42.8608C35.2792 42.771 35.4713 42.6404 35.6318 42.4766L43.614 34.6149C44.5929 33.6505 45.1429 32.3426 45.1429 30.9789C45.1429 29.6152 44.5929 28.3074 43.614 27.3429L35.6353 19.4812C35.307 19.169 34.8673 18.9962 34.411 19.0001C33.9546 19.004 33.5181 19.1843 33.1953 19.5021C32.8726 19.8199 32.6896 20.2499 32.6856 20.6994C32.6816 21.1489 32.8571 21.5819 33.1741 21.9052L40.5924 29.2132L17.7406 29.2646C17.2789 29.2646 16.8362 29.4453 16.5098 29.7668C16.1834 30.0882 16 30.5243 16 30.9789Z" fill="#0260A2"/>
</svg>
