<svg width="40" height="40" viewBox="0 0 40 40" fill="none" xmlns="http://www.w3.org/2000/svg">
<circle cx="20" cy="20" r="19.5" stroke="#0260A2"/>
<path d="M8 20.3931C8 20.7496 8.14048 21.0915 8.39052 21.3436C8.64057 21.5957 8.97971 21.7373 9.33333 21.7373L26.9173 21.697L21.1533 27.5081C21.026 27.6321 20.9244 27.7805 20.8545 27.9445C20.7847 28.1085 20.7479 28.2849 20.7463 28.4633C20.7448 28.6418 20.7785 28.8188 20.8456 28.984C20.9126 29.1492 21.0116 29.2993 21.1368 29.4255C21.262 29.5518 21.4109 29.6516 21.5747 29.7192C21.7386 29.7867 21.9142 29.8208 22.0912 29.8192C22.2682 29.8177 22.4432 29.7806 22.6059 29.7101C22.7685 29.6397 22.9157 29.5373 23.0387 29.4089L29.1533 23.2442C29.9032 22.488 30.3245 21.4624 30.3245 20.3931C30.3245 19.3238 29.9032 18.2982 29.1533 17.542L23.0413 11.3773C22.7899 11.1325 22.4531 10.997 22.1035 11.0001C21.7539 11.0031 21.4195 11.1445 21.1722 11.3937C20.925 11.6429 20.7848 11.9801 20.7818 12.3326C20.7787 12.685 20.9131 13.0246 21.156 13.2781L26.8387 19.0085L9.33333 19.0489C8.97971 19.0489 8.64057 19.1905 8.39052 19.4426C8.14048 19.6947 8 20.0366 8 20.3931Z" fill="#0260A2"/>
</svg>
