<svg width="40" height="40" viewBox="0 0 40 40" fill="none" xmlns="http://www.w3.org/2000/svg">
<circle cx="20" cy="20" r="19.5" transform="rotate(-180 20 20)" stroke="#0260A2"/>
<path d="M32 20.6069C32 20.2504 31.8595 19.9085 31.6095 19.6564C31.3594 19.4043 31.0203 19.2627 30.6667 19.2627L13.0827 19.303L18.8467 13.4919C18.974 13.3679 19.0756 13.2195 19.1455 13.0555C19.2153 12.8915 19.2521 12.7151 19.2537 12.5367C19.2552 12.3582 19.2215 12.1812 19.1544 12.016C19.0874 11.8508 18.9884 11.7007 18.8632 11.5745C18.738 11.4482 18.5891 11.3484 18.4253 11.2808C18.2614 11.2133 18.0858 11.1792 17.9088 11.1808C17.7318 11.1823 17.5568 11.2194 17.3941 11.2899C17.2315 11.3603 17.0843 11.4627 16.9613 11.5911L10.8467 17.7558C10.0968 18.512 9.67552 19.5376 9.67552 20.6069C9.67552 21.6762 10.0968 22.7018 10.8467 23.458L16.9587 29.6227C17.2101 29.8675 17.5469 30.003 17.8965 29.9999C18.2461 29.9969 18.5805 29.8555 18.8278 29.6063C19.075 29.3571 19.2152 29.0199 19.2182 28.6674C19.2213 28.315 19.0869 27.9754 18.844 27.7219L13.1613 21.9915L30.6667 21.9511C31.0203 21.9511 31.3594 21.8095 31.6095 21.5574C31.8595 21.3053 32 20.9634 32 20.6069Z" fill="#0260A2"/>
</svg>
