<svg width="135" height="152" viewBox="0 0 135 152" fill="none" xmlns="http://www.w3.org/2000/svg">
<path d="M131 71.6076C131 86.5288 128.156 99.1745 122.43 109.545C119.028 115.7 114.938 120.96 110.141 125.343L130.07 150H100.53L89.9892 137.354C82.7203 139.965 74.8936 141.271 66.4721 141.271C54.3325 141.271 43.4012 138.529 33.6783 133.12C23.9555 127.693 16.2404 119.803 10.5517 109.452C4.84436 99.0999 2 86.4915 2 71.6076C2 56.705 4.84436 44.0592 10.5517 33.689C16.2404 23.3374 23.9555 15.4478 33.6783 10.0761C43.4012 4.66717 54.3325 2 66.4721 2C78.5746 2 89.4872 4.66717 99.2287 10.0761C108.989 15.4478 116.704 23.3374 122.43 33.689C128.156 44.0592 131 56.705 131 71.6076ZM55.1319 90.6881H81.5119L89.8405 101.357C91.4207 99.1932 92.7592 96.7312 93.8746 93.9894C96.3843 87.8904 97.6299 80.4297 97.6299 71.6076C97.6299 62.7854 96.3843 55.3248 93.8746 49.2444C91.4021 43.164 87.8327 38.557 83.185 35.4236C78.556 32.2901 72.9788 30.7047 66.4721 30.7047C60.0026 30.7047 54.4626 32.2901 49.7778 35.4236C45.1115 38.557 41.5422 43.164 39.0696 49.2444C36.5971 55.3248 35.3143 62.7854 35.3143 71.6076C35.3143 80.4297 36.5971 87.8904 39.0696 93.9894C41.5422 100.07 45.1115 104.695 49.7778 107.829C54.4626 110.981 60.0026 112.529 66.4721 112.529C68.1639 112.529 69.7812 112.417 71.3428 112.212L55.1319 90.6881Z" stroke="#0260A2" stroke-width="3.99987"/>
</svg>
