<svg width="168" height="289" viewBox="0 0 168 289" fill="none" xmlns="http://www.w3.org/2000/svg">
<path d="M167.116 12H0.115967V0H167.116V12Z" fill="#E6E6E6"/>
<path d="M0.115927 12H31.323V0H0.115927V12Z" fill="#C7C6C6"/>
<rect y="22" width="167" height="267" fill="white"/>
<path d="M54.352 125.872C54.864 125.456 55.3707 125.04 55.872 124.624C56.384 124.197 56.896 123.76 57.408 123.312C58.1333 122.672 58.6133 122.229 58.848 121.984C59.0933 121.739 59.296 121.472 59.456 121.184C59.6267 120.885 59.712 120.571 59.712 120.24C59.712 119.877 59.5947 119.573 59.36 119.328C59.136 119.072 58.784 118.944 58.304 118.944C57.76 118.944 57.3653 119.061 57.12 119.296C56.8853 119.531 56.7413 119.813 56.688 120.144H54.272C54.2933 119.547 54.416 119.024 54.64 118.576C54.864 118.117 55.1627 117.739 55.536 117.44C55.9093 117.141 56.3413 116.917 56.832 116.768C57.3333 116.619 57.8667 116.544 58.432 116.544C58.9547 116.544 59.4507 116.619 59.92 116.768C60.4 116.917 60.816 117.141 61.168 117.44C61.52 117.728 61.7973 118.091 62 118.528C62.2133 118.965 62.32 119.477 62.32 120.064C62.32 120.693 62.1813 121.28 61.904 121.824C61.6373 122.368 61.296 122.859 60.88 123.296C60.464 123.733 60.0107 124.149 59.52 124.544C59.0293 124.928 58.56 125.296 58.112 125.648H62.192V128H54.352V125.872ZM63.8823 123.248C63.9569 122.149 64.0316 121.051 64.1063 119.952C64.1916 118.843 64.2609 117.749 64.3143 116.672H71.6743V119.008H66.5863C66.5649 119.317 66.5383 119.632 66.5063 119.952C66.4849 120.272 66.4583 120.587 66.4263 120.896C66.7676 120.715 67.1036 120.592 67.4343 120.528C67.7756 120.453 68.1116 120.416 68.4423 120.416C69.0289 120.416 69.5516 120.507 70.0103 120.688C70.4689 120.859 70.8529 121.104 71.1623 121.424C71.4823 121.744 71.7223 122.133 71.8823 122.592C72.0423 123.04 72.1223 123.541 72.1223 124.096C72.1223 124.736 72.0103 125.307 71.7863 125.808C71.5729 126.299 71.2743 126.72 70.8903 127.072C70.5169 127.413 70.0689 127.675 69.5463 127.856C69.0236 128.027 68.4583 128.112 67.8503 128.112C66.6663 128.112 65.7116 127.829 64.9863 127.264C64.2609 126.688 63.8289 125.765 63.6903 124.496H66.2343C66.3089 124.837 66.4796 125.125 66.7463 125.36C67.0236 125.584 67.3756 125.707 67.8023 125.728C68.3889 125.728 68.8156 125.584 69.0823 125.296C69.3489 125.008 69.4823 124.64 69.4823 124.192C69.4823 124 69.4449 123.813 69.3703 123.632C69.3063 123.44 69.2049 123.275 69.0663 123.136C68.9276 122.987 68.7569 122.869 68.5543 122.784C68.3623 122.688 68.1329 122.64 67.8663 122.64C67.5249 122.64 67.2156 122.693 66.9383 122.8C66.6609 122.907 66.3996 123.056 66.1543 123.248H63.8823ZM85.8096 119.568V128H83.2976V121.824H81.2016C81.191 122.411 81.175 123.035 81.1536 123.696C81.143 124.357 81.079 125.003 80.9616 125.632C80.8763 126.133 80.7376 126.544 80.5456 126.864C80.3643 127.173 80.1456 127.413 79.8896 127.584C79.6336 127.755 79.3456 127.867 79.0256 127.92C78.7163 127.973 78.3856 128 78.0336 128H77.3616V125.808C77.639 125.808 77.8683 125.733 78.0496 125.584C78.2416 125.435 78.3856 125.243 78.4816 125.008C78.5883 124.763 78.6683 124.475 78.7216 124.144C78.775 123.813 78.8123 123.467 78.8336 123.104C78.855 122.816 78.871 122.496 78.8816 122.144C78.8923 121.781 78.8976 121.445 78.8976 121.136C78.9083 120.827 78.9136 120.539 78.9136 120.272C78.9136 119.995 78.9136 119.76 78.9136 119.568H85.8096ZM91.4875 126.032C91.8182 126.032 92.0955 125.979 92.3195 125.872C92.5435 125.755 92.7088 125.595 92.8155 125.392H95.3755C95.2582 125.883 95.0768 126.299 94.8315 126.64C94.5862 126.981 94.2875 127.264 93.9355 127.488C93.5835 127.712 93.1942 127.877 92.7675 127.984C92.3515 128.08 91.9142 128.128 91.4555 128.128C90.1222 128.128 89.0822 127.749 88.3355 126.992C87.5995 126.224 87.2315 125.141 87.2315 123.744C87.2315 123.125 87.3275 122.549 87.5195 122.016C87.7222 121.483 87.9995 121.024 88.3515 120.64C88.7142 120.245 89.1515 119.941 89.6635 119.728C90.1862 119.504 90.7728 119.392 91.4235 119.392C92.0742 119.392 92.6502 119.493 93.1515 119.696C93.6528 119.899 94.0742 120.187 94.4155 120.56C94.7568 120.933 95.0128 121.376 95.1835 121.888C95.3648 122.4 95.4555 122.955 95.4555 123.552C95.4555 123.723 95.4448 123.888 95.4235 124.048C95.4128 124.197 95.3915 124.363 95.3595 124.544H89.7595C89.8022 124.949 89.9568 125.296 90.2235 125.584C90.5008 125.872 90.9222 126.021 91.4875 126.032ZM93.0395 122.848C93.0395 122.453 92.8955 122.128 92.6075 121.872C92.3302 121.616 91.9462 121.488 91.4555 121.488C90.9115 121.488 90.5062 121.627 90.2395 121.904C89.9728 122.171 89.8235 122.485 89.7915 122.848H93.0395ZM95.936 121.808V119.568H103.92V121.808H101.184V128H98.672V121.808H95.936Z" fill="#0260A2"/>
<rect x="10" y="42" width="147" height="46" rx="3" fill="#0260A2"/>
<path d="M31.2366 70.628C30.3513 70.628 29.578 70.484 28.9166 70.196C28.2553 69.8973 27.7006 69.492 27.2526 68.98C26.8046 68.468 26.4686 67.86 26.2446 67.156C26.0206 66.452 25.9086 65.684 25.9086 64.852C25.9086 64.02 26.0206 63.252 26.2446 62.548C26.4686 61.8333 26.8046 61.22 27.2526 60.708C27.7006 60.196 28.2553 59.796 28.9166 59.508C29.578 59.2093 30.3513 59.06 31.2366 59.06C32.1113 59.06 32.8793 59.2093 33.5406 59.508C34.202 59.796 34.7566 60.196 35.2046 60.708C35.6526 61.22 35.9886 61.8333 36.2126 62.548C36.4366 63.252 36.5486 64.02 36.5486 64.852C36.5486 65.684 36.4366 66.452 36.2126 67.156C35.9886 67.86 35.6526 68.468 35.2046 68.98C34.7566 69.492 34.202 69.8973 33.5406 70.196C32.8793 70.484 32.1113 70.628 31.2366 70.628ZM31.2366 60.324C30.5646 60.324 29.9833 60.4467 29.4926 60.692C29.002 60.9267 28.5966 61.252 28.2766 61.668C27.9566 62.084 27.7166 62.5693 27.5566 63.124C27.3966 63.668 27.3166 64.244 27.3166 64.852C27.3166 65.46 27.3913 66.036 27.5406 66.58C27.7006 67.124 27.9406 67.604 28.2606 68.02C28.5806 68.436 28.986 68.7667 29.4766 69.012C29.978 69.2467 30.5646 69.364 31.2366 69.364C31.9086 69.364 32.49 69.2467 32.9806 69.012C33.4713 68.7667 33.8713 68.4413 34.1806 68.036C34.5006 67.62 34.7353 67.14 34.8846 66.596C35.0446 66.052 35.1246 65.4707 35.1246 64.852C35.1246 64.2333 35.0446 63.652 34.8846 63.108C34.7353 62.5533 34.5006 62.0733 34.1806 61.668C33.8606 61.252 33.4553 60.9267 32.9646 60.692C32.474 60.4467 31.898 60.324 31.2366 60.324ZM44.7648 62.068V63.268H41.8688V70.5H40.5088V63.268H37.6128V62.068H44.7648ZM51.1714 65.412L51.6834 59.188H58.4514V60.468H52.9314L52.6114 64.02C52.8994 63.7853 53.2514 63.5987 53.6674 63.46C54.0834 63.3107 54.5954 63.236 55.2034 63.236C55.7474 63.236 56.2434 63.3213 56.6914 63.492C57.1394 63.6627 57.5234 63.908 57.8434 64.228C58.1634 64.5373 58.4087 64.916 58.5794 65.364C58.7607 65.812 58.8514 66.308 58.8514 66.852C58.8514 67.4493 58.7447 67.9827 58.5314 68.452C58.3287 68.9107 58.046 69.3053 57.6834 69.636C57.3207 69.9667 56.8887 70.2173 56.3874 70.388C55.8967 70.5587 55.3634 70.644 54.7874 70.644C54.318 70.644 53.8647 70.5907 53.4274 70.484C53.0007 70.3773 52.6114 70.2173 52.2594 70.004C51.9074 69.78 51.6087 69.4973 51.3634 69.156C51.118 68.8147 50.9474 68.4093 50.8514 67.94H52.2594C52.3447 68.164 52.4727 68.3667 52.6434 68.548C52.814 68.7187 53.006 68.868 53.2194 68.996C53.4434 69.1133 53.678 69.204 53.9234 69.268C54.1687 69.332 54.414 69.364 54.6594 69.364C55.0434 69.364 55.4007 69.316 55.7314 69.22C56.0727 69.124 56.366 68.98 56.6114 68.788C56.8674 68.5853 57.0647 68.3347 57.2034 68.036C57.342 67.7267 57.4114 67.3587 57.4114 66.932C57.4114 66.1533 57.1767 65.556 56.7074 65.14C56.238 64.724 55.63 64.516 54.8834 64.516C54.4354 64.516 54.0194 64.596 53.6354 64.756C53.262 64.916 52.9207 65.1347 52.6114 65.412H51.1714ZM61.0308 65.412L61.5428 59.188H68.3108V60.468H62.7908L62.4708 64.02C62.7588 63.7853 63.1108 63.5987 63.5268 63.46C63.9428 63.3107 64.4548 63.236 65.0628 63.236C65.6068 63.236 66.1028 63.3213 66.5508 63.492C66.9988 63.6627 67.3828 63.908 67.7028 64.228C68.0228 64.5373 68.2681 64.916 68.4388 65.364C68.6201 65.812 68.7108 66.308 68.7108 66.852C68.7108 67.4493 68.6041 67.9827 68.3908 68.452C68.1881 68.9107 67.9054 69.3053 67.5428 69.636C67.1801 69.9667 66.7481 70.2173 66.2468 70.388C65.7561 70.5587 65.2228 70.644 64.6468 70.644C64.1774 70.644 63.7241 70.5907 63.2868 70.484C62.8601 70.3773 62.4708 70.2173 62.1188 70.004C61.7668 69.78 61.4681 69.4973 61.2228 69.156C60.9774 68.8147 60.8068 68.4093 60.7108 67.94H62.1188C62.2041 68.164 62.3321 68.3667 62.5028 68.548C62.6734 68.7187 62.8654 68.868 63.0788 68.996C63.3028 69.1133 63.5374 69.204 63.7828 69.268C64.0281 69.332 64.2734 69.364 64.5188 69.364C64.9028 69.364 65.2601 69.316 65.5908 69.22C65.9321 69.124 66.2254 68.98 66.4708 68.788C66.7268 68.5853 66.9241 68.3347 67.0628 68.036C67.2014 67.7267 67.2708 67.3587 67.2708 66.932C67.2708 66.1533 67.0361 65.556 66.5668 65.14C66.0974 64.724 65.4894 64.516 64.7428 64.516C64.2948 64.516 63.8788 64.596 63.4948 64.756C63.1214 64.916 62.7801 65.1347 62.4708 65.412H61.0308ZM83.6346 64.852C83.6346 65.5773 83.56 66.2867 83.4106 66.98C83.272 67.6733 83.032 68.292 82.6906 68.836C82.3493 69.3693 81.896 69.8013 81.3306 70.132C80.7653 70.4627 80.0613 70.628 79.2186 70.628C78.3653 70.628 77.656 70.4627 77.0906 70.132C76.5253 69.8013 76.072 69.3693 75.7306 68.836C75.3893 68.292 75.1493 67.684 75.0106 67.012C74.872 66.34 74.8026 65.62 74.8026 64.852C74.8026 64.084 74.872 63.364 75.0106 62.692C75.1493 62.0093 75.3893 61.4013 75.7306 60.868C76.072 60.3347 76.5253 59.9027 77.0906 59.572C77.656 59.2307 78.3653 59.06 79.2186 59.06C80.0613 59.06 80.7653 59.2253 81.3306 59.556C81.896 59.8867 82.3493 60.324 82.6906 60.868C83.032 61.412 83.272 62.0307 83.4106 62.724C83.56 63.4173 83.6346 64.1267 83.6346 64.852ZM76.2266 64.852C76.2266 65.364 76.264 65.8867 76.3386 66.42C76.4133 66.9533 76.5573 67.4387 76.7706 67.876C76.984 68.3133 77.2826 68.6707 77.6666 68.948C78.0613 69.2253 78.5786 69.364 79.2186 69.364C79.848 69.364 80.3546 69.2253 80.7386 68.948C81.1333 68.6707 81.4373 68.3133 81.6506 67.876C81.864 67.4387 82.008 66.9533 82.0826 66.42C82.1573 65.8867 82.1946 65.364 82.1946 64.852C82.1946 64.3507 82.1573 63.8333 82.0826 63.3C82.008 62.7667 81.864 62.2813 81.6506 61.844C81.4373 61.396 81.1333 61.0333 80.7386 60.756C80.3546 60.468 79.848 60.324 79.2186 60.324C78.5786 60.324 78.0613 60.468 77.6666 60.756C77.2826 61.0333 76.984 61.396 76.7706 61.844C76.5573 62.2813 76.4133 62.7667 76.3386 63.3C76.264 63.8333 76.2266 64.3507 76.2266 64.852ZM94.2753 64.852C94.2753 65.5773 94.2006 66.2867 94.0513 66.98C93.9126 67.6733 93.6726 68.292 93.3313 68.836C92.9899 69.3693 92.5366 69.8013 91.9713 70.132C91.4059 70.4627 90.7019 70.628 89.8593 70.628C89.0059 70.628 88.2966 70.4627 87.7313 70.132C87.1659 69.8013 86.7126 69.3693 86.3713 68.836C86.0299 68.292 85.7899 67.684 85.6513 67.012C85.5126 66.34 85.4433 65.62 85.4433 64.852C85.4433 64.084 85.5126 63.364 85.6513 62.692C85.7899 62.0093 86.0299 61.4013 86.3713 60.868C86.7126 60.3347 87.1659 59.9027 87.7313 59.572C88.2966 59.2307 89.0059 59.06 89.8593 59.06C90.7019 59.06 91.4059 59.2253 91.9713 59.556C92.5366 59.8867 92.9899 60.324 93.3313 60.868C93.6726 61.412 93.9126 62.0307 94.0513 62.724C94.2006 63.4173 94.2753 64.1267 94.2753 64.852ZM86.8673 64.852C86.8673 65.364 86.9046 65.8867 86.9793 66.42C87.0539 66.9533 87.1979 67.4387 87.4113 67.876C87.6246 68.3133 87.9233 68.6707 88.3073 68.948C88.7019 69.2253 89.2193 69.364 89.8593 69.364C90.4886 69.364 90.9953 69.2253 91.3793 68.948C91.7739 68.6707 92.0779 68.3133 92.2913 67.876C92.5046 67.4387 92.6486 66.9533 92.7233 66.42C92.7979 65.8867 92.8353 65.364 92.8353 64.852C92.8353 64.3507 92.7979 63.8333 92.7233 63.3C92.6486 62.7667 92.5046 62.2813 92.2913 61.844C92.0779 61.396 91.7739 61.0333 91.3793 60.756C90.9953 60.468 90.4886 60.324 89.8593 60.324C89.2193 60.324 88.7019 60.468 88.3073 60.756C87.9233 61.0333 87.6246 61.396 87.4113 61.844C87.1979 62.2813 87.0539 62.7667 86.9793 63.3C86.9046 63.8333 86.8673 64.3507 86.8673 64.852ZM104.916 64.852C104.916 65.5773 104.841 66.2867 104.692 66.98C104.553 67.6733 104.313 68.292 103.972 68.836C103.631 69.3693 103.177 69.8013 102.612 70.132C102.047 70.4627 101.343 70.628 100.5 70.628C99.6465 70.628 98.9372 70.4627 98.3719 70.132C97.8065 69.8013 97.3532 69.3693 97.0119 68.836C96.6705 68.292 96.4305 67.684 96.2919 67.012C96.1532 66.34 96.0839 65.62 96.0839 64.852C96.0839 64.084 96.1532 63.364 96.2919 62.692C96.4305 62.0093 96.6705 61.4013 97.0119 60.868C97.3532 60.3347 97.8065 59.9027 98.3719 59.572C98.9372 59.2307 99.6465 59.06 100.5 59.06C101.343 59.06 102.047 59.2253 102.612 59.556C103.177 59.8867 103.631 60.324 103.972 60.868C104.313 61.412 104.553 62.0307 104.692 62.724C104.841 63.4173 104.916 64.1267 104.916 64.852ZM97.5079 64.852C97.5079 65.364 97.5452 65.8867 97.6199 66.42C97.6945 66.9533 97.8385 67.4387 98.0519 67.876C98.2652 68.3133 98.5639 68.6707 98.9479 68.948C99.3425 69.2253 99.8599 69.364 100.5 69.364C101.129 69.364 101.636 69.2253 102.02 68.948C102.415 68.6707 102.719 68.3133 102.932 67.876C103.145 67.4387 103.289 66.9533 103.364 66.42C103.439 65.8867 103.476 65.364 103.476 64.852C103.476 64.3507 103.439 63.8333 103.364 63.3C103.289 62.7667 103.145 62.2813 102.932 61.844C102.719 61.396 102.415 61.0333 102.02 60.756C101.636 60.468 101.129 60.324 100.5 60.324C99.8599 60.324 99.3425 60.468 98.9479 60.756C98.5639 61.0333 98.2652 61.396 98.0519 61.844C97.8385 62.2813 97.6945 62.7667 97.6199 63.3C97.5452 63.8333 97.5079 64.3507 97.5079 64.852ZM112.557 73.54H111.197V62.068H112.493L112.557 63.364C112.845 62.9053 113.234 62.564 113.725 62.34C114.226 62.1053 114.765 61.9827 115.341 61.972C115.992 61.972 116.541 62.084 116.989 62.308C117.448 62.5213 117.826 62.8253 118.125 63.22C118.434 63.604 118.664 64.0627 118.813 64.596C118.962 65.1187 119.037 65.684 119.037 66.292C119.037 66.9107 118.962 67.4813 118.813 68.004C118.664 68.5267 118.434 68.98 118.125 69.364C117.816 69.748 117.426 70.052 116.957 70.276C116.488 70.4893 115.928 70.596 115.277 70.596C114.637 70.596 114.093 70.4947 113.645 70.292C113.197 70.0893 112.834 69.8227 112.557 69.492V73.54ZM115.165 69.396C115.624 69.396 116.008 69.316 116.317 69.156C116.637 68.9853 116.893 68.7613 117.085 68.484C117.288 68.196 117.432 67.8653 117.517 67.492C117.613 67.1187 117.666 66.7187 117.677 66.292C117.677 65.8653 117.629 65.4653 117.533 65.092C117.448 64.708 117.304 64.3773 117.101 64.1C116.898 63.8227 116.632 63.604 116.301 63.444C115.981 63.2733 115.592 63.188 115.133 63.188C114.589 63.188 114.12 63.3373 113.725 63.636C113.33 63.924 113.032 64.292 112.829 64.74C112.712 64.9853 112.632 65.2413 112.589 65.508C112.546 65.764 112.525 66.0307 112.525 66.308C112.525 66.628 112.546 66.9267 112.589 67.204C112.632 67.4707 112.712 67.7267 112.829 67.972C113.032 68.3773 113.325 68.7187 113.709 68.996C114.104 69.2627 114.589 69.396 115.165 69.396ZM126.855 62.068H128.391L126.007 68.708C125.879 69.0493 125.74 69.4387 125.591 69.876C125.452 70.3027 125.292 70.7293 125.111 71.156C124.94 71.5933 124.743 72.004 124.519 72.388C124.305 72.772 124.065 73.0813 123.799 73.316C123.404 73.668 123.025 73.8867 122.663 73.972C122.3 74.068 121.889 74.116 121.431 74.116H121.143V72.82C121.527 72.82 121.852 72.7773 122.119 72.692C122.385 72.6173 122.615 72.4947 122.807 72.324C123.009 72.1533 123.18 71.94 123.319 71.684C123.468 71.428 123.617 71.124 123.767 70.772L119.991 62.068H121.591L124.519 69.172L126.855 62.068ZM130.674 63.972C130.834 63.748 131.021 63.5613 131.234 63.412C131.447 63.252 131.677 63.1187 131.922 63.012C132.178 62.9053 132.434 62.8307 132.69 62.788C132.957 62.7347 133.213 62.708 133.458 62.708C134.034 62.708 134.541 62.7987 134.978 62.98C135.426 63.1613 135.799 63.4227 136.098 63.764C136.407 64.0947 136.642 64.4947 136.802 64.964C136.962 65.4333 137.042 65.956 137.042 66.532C137.042 67.108 136.957 67.6467 136.786 68.148C136.615 68.6387 136.365 69.0653 136.034 69.428C135.714 69.7907 135.314 70.0787 134.834 70.292C134.365 70.4947 133.821 70.596 133.202 70.596C132.498 70.596 131.906 70.4733 131.426 70.228C130.946 69.972 130.557 69.636 130.258 69.22C129.97 68.7933 129.757 68.2867 129.618 67.7C129.479 67.1133 129.405 66.5373 129.394 65.972C129.373 65.8013 129.362 65.46 129.362 64.948C129.373 64.4253 129.399 63.956 129.442 63.54C129.485 63.1133 129.554 62.7027 129.65 62.308C129.757 61.9027 129.901 61.5453 130.082 61.236C130.37 60.724 130.733 60.3453 131.17 60.1C131.618 59.8547 132.13 59.684 132.706 59.588C132.887 59.556 133.293 59.4973 133.922 59.412C134.562 59.316 134.999 59.252 135.234 59.22C135.437 59.1987 135.655 59.172 135.89 59.14C136.135 59.0973 136.375 59.0547 136.61 59.012V60.26C136.45 60.3133 136.253 60.3613 136.018 60.404C135.783 60.436 135.517 60.468 135.218 60.5C135.005 60.532 134.781 60.564 134.546 60.596C134.322 60.6173 134.087 60.644 133.842 60.676C133.607 60.6973 133.245 60.7453 132.754 60.82C132.391 60.8733 132.093 60.9747 131.858 61.124C131.634 61.2733 131.437 61.4707 131.266 61.716C131.063 62.0147 130.914 62.3773 130.818 62.804C130.733 63.22 130.685 63.6093 130.674 63.972ZM133.234 69.396C133.629 69.396 133.975 69.3213 134.274 69.172C134.583 69.0227 134.839 68.82 135.042 68.564C135.255 68.308 135.415 68.0093 135.522 67.668C135.629 67.3267 135.682 66.964 135.682 66.58C135.682 66.2067 135.623 65.86 135.506 65.54C135.399 65.2093 135.245 64.9267 135.042 64.692C134.839 64.4467 134.594 64.26 134.306 64.132C134.018 63.9933 133.666 63.924 133.25 63.924C132.866 63.9347 132.525 64.0093 132.226 64.148C131.927 64.2867 131.671 64.484 131.458 64.74C131.245 64.9853 131.085 65.2733 130.978 65.604C130.871 65.924 130.813 66.26 130.802 66.612C130.802 66.9853 130.85 67.3427 130.946 67.684C131.053 68.0147 131.207 68.308 131.41 68.564C131.613 68.82 131.863 69.0227 132.162 69.172C132.471 69.3213 132.829 69.396 133.234 69.396ZM139.829 68.708C140.106 68.708 140.336 68.7987 140.517 68.98C140.698 69.1613 140.789 69.3907 140.789 69.668C140.789 69.9453 140.698 70.1747 140.517 70.356C140.336 70.5373 140.106 70.628 139.829 70.628C139.552 70.628 139.322 70.5373 139.141 70.356C138.96 70.1747 138.869 69.9453 138.869 69.668C138.869 69.3907 138.96 69.1613 139.141 68.98C139.322 68.7987 139.552 68.708 139.829 68.708Z" fill="white"/>
<path d="M29.7495 159V147.688H33.8935C34.5442 147.688 35.1255 147.763 35.6375 147.912C36.1602 148.051 36.6028 148.275 36.9655 148.584C37.3282 148.893 37.6055 149.293 37.7975 149.784C38.0002 150.264 38.1015 150.84 38.1015 151.512C38.1015 152.131 38.0002 152.685 37.7975 153.176C37.5948 153.667 37.3068 154.083 36.9335 154.424C36.5602 154.755 36.1068 155.011 35.5735 155.192C35.0508 155.373 34.4642 155.464 33.8135 155.464H31.5895V159H29.7495ZM31.5895 153.816H33.7175C34.0695 153.816 34.3948 153.773 34.6935 153.688C35.0028 153.603 35.2695 153.469 35.4935 153.288C35.7175 153.107 35.8935 152.877 36.0215 152.6C36.1602 152.323 36.2348 151.992 36.2455 151.608C36.2455 150.808 36.0375 150.232 35.6215 149.88C35.2162 149.528 34.6188 149.352 33.8295 149.352H31.5895V153.816ZM45.7588 150.568H47.7587L45.3268 157.656C45.0174 158.531 44.7348 159.304 44.4788 159.976C44.2334 160.648 43.9401 161.208 43.5988 161.656C43.2574 162.104 42.8361 162.44 42.3348 162.664C41.8441 162.899 41.1988 163.016 40.3988 163.016H40.1268V161.384C40.1694 161.384 40.2121 161.384 40.2548 161.384C40.5748 161.384 40.8574 161.347 41.1028 161.272C41.3588 161.197 41.5881 161.085 41.7908 160.936C41.9934 160.787 42.1694 160.589 42.3188 160.344C42.4681 160.109 42.6068 159.837 42.7348 159.528L38.9108 150.568H41.0548L43.6788 157.24L45.7588 150.568ZM48.867 159V150.568H50.675V154.008H51.971L54.131 150.568H56.211L53.539 154.584L56.419 159H54.307L52.083 155.592H50.675V159H48.867ZM61.0809 150.424C61.7529 150.424 62.3449 150.531 62.8569 150.744C63.3689 150.957 63.8009 151.256 64.1529 151.64C64.5155 152.013 64.7875 152.467 64.9689 153C65.1502 153.533 65.2409 154.125 65.2409 154.776C65.2409 155.437 65.1502 156.035 64.9689 156.568C64.7982 157.091 64.5369 157.544 64.1849 157.928C63.8329 158.312 63.3955 158.605 62.8729 158.808C62.3609 159.011 61.7635 159.112 61.0809 159.112C60.4089 159.112 59.8169 159.011 59.3049 158.808C58.7929 158.595 58.3609 158.301 58.0089 157.928C57.6675 157.544 57.4062 157.085 57.2249 156.552C57.0542 156.019 56.9689 155.427 56.9689 154.776C56.9689 154.125 57.0542 153.533 57.2249 153C57.4062 152.467 57.6729 152.013 58.0249 151.64C58.3769 151.256 58.8089 150.957 59.3209 150.744C59.8329 150.531 60.4195 150.424 61.0809 150.424ZM61.0809 157.528C61.4969 157.528 61.8489 157.459 62.1369 157.32C62.4355 157.171 62.6755 156.973 62.8569 156.728C63.0489 156.483 63.1875 156.195 63.2729 155.864C63.3689 155.533 63.4169 155.176 63.4169 154.792C63.4169 154.408 63.3689 154.051 63.2729 153.72C63.1875 153.379 63.0489 153.085 62.8569 152.84C62.6755 152.595 62.4355 152.403 62.1369 152.264C61.8489 152.125 61.4969 152.056 61.0809 152.056C60.6755 152.056 60.3235 152.125 60.0249 152.264C59.7369 152.403 59.4969 152.595 59.3049 152.84C59.1235 153.085 58.9849 153.379 58.8889 153.72C58.8035 154.051 58.7609 154.408 58.7609 154.792C58.7609 155.176 58.8035 155.533 58.8889 155.864C58.9849 156.195 59.1235 156.483 59.3049 156.728C59.4969 156.973 59.7369 157.171 60.0249 157.32C60.3235 157.459 60.6755 157.528 61.0809 157.528ZM66.8983 150.568H70.4983C70.8716 150.568 71.2503 150.589 71.6343 150.632C72.0183 150.664 72.3649 150.755 72.6743 150.904C72.9943 151.053 73.2503 151.272 73.4423 151.56C73.6449 151.837 73.7516 152.216 73.7623 152.696C73.7623 153.069 73.6769 153.416 73.5063 153.736C73.3356 154.056 73.0636 154.317 72.6903 154.52C73.2023 154.659 73.5756 154.904 73.8103 155.256C74.0556 155.597 74.1783 156.008 74.1783 156.488C74.1783 156.936 74.0876 157.325 73.9062 157.656C73.7249 157.976 73.4849 158.237 73.1863 158.44C72.8876 158.632 72.5409 158.776 72.1463 158.872C71.7516 158.957 71.3356 159 70.8983 159H66.8983V150.568ZM68.7383 152.088V154.024H69.8423C70.0876 154.024 70.3383 154.024 70.5943 154.024C70.8609 154.013 71.0956 153.976 71.2983 153.912C71.5116 153.848 71.6823 153.747 71.8103 153.608C71.9489 153.469 72.0183 153.272 72.0183 153.016C72.0183 152.792 71.9649 152.621 71.8583 152.504C71.7623 152.376 71.6396 152.28 71.4903 152.216C71.3409 152.152 71.1703 152.115 70.9783 152.104C70.7969 152.093 70.6263 152.088 70.4663 152.088H68.7383ZM70.5943 157.464C70.8076 157.464 71.0156 157.453 71.2183 157.432C71.4316 157.411 71.6183 157.363 71.7783 157.288C71.9489 157.203 72.0876 157.096 72.1943 156.968C72.3009 156.829 72.3543 156.648 72.3543 156.424C72.3543 156.019 72.2263 155.747 71.9703 155.608C71.7249 155.469 71.4209 155.4 71.0583 155.4H68.7383V157.464H70.5943ZM79.659 150.424C80.331 150.424 80.923 150.531 81.435 150.744C81.947 150.957 82.379 151.256 82.731 151.64C83.0937 152.013 83.3657 152.467 83.547 153C83.7283 153.533 83.819 154.125 83.819 154.776C83.819 155.437 83.7283 156.035 83.547 156.568C83.3763 157.091 83.115 157.544 82.763 157.928C82.411 158.312 81.9737 158.605 81.451 158.808C80.939 159.011 80.3417 159.112 79.659 159.112C78.987 159.112 78.395 159.011 77.883 158.808C77.371 158.595 76.939 158.301 76.587 157.928C76.2457 157.544 75.9843 157.085 75.803 156.552C75.6323 156.019 75.547 155.427 75.547 154.776C75.547 154.125 75.6323 153.533 75.803 153C75.9843 152.467 76.251 152.013 76.603 151.64C76.955 151.256 77.387 150.957 77.899 150.744C78.411 150.531 78.9977 150.424 79.659 150.424ZM79.659 157.528C80.075 157.528 80.427 157.459 80.715 157.32C81.0137 157.171 81.2537 156.973 81.435 156.728C81.627 156.483 81.7657 156.195 81.851 155.864C81.947 155.533 81.995 155.176 81.995 154.792C81.995 154.408 81.947 154.051 81.851 153.72C81.7657 153.379 81.627 153.085 81.435 152.84C81.2537 152.595 81.0137 152.403 80.715 152.264C80.427 152.125 80.075 152.056 79.659 152.056C79.2537 152.056 78.9017 152.125 78.603 152.264C78.315 152.403 78.075 152.595 77.883 152.84C77.7017 153.085 77.563 153.379 77.467 153.72C77.3817 154.051 77.339 154.408 77.339 154.792C77.339 155.176 77.3817 155.533 77.467 155.864C77.563 156.195 77.7017 156.483 77.883 156.728C78.075 156.973 78.315 157.171 78.603 157.32C78.9017 157.459 79.2537 157.528 79.659 157.528ZM86.2009 153.576C86.2329 153.064 86.2542 152.568 86.2649 152.088C86.2755 151.597 86.2809 151.091 86.2809 150.568H92.7769V157.448H93.8809V161.464H92.1049V159H86.3449V161.464H84.5689V157.448C84.8782 157.448 85.1342 157.352 85.3369 157.16C85.5502 156.957 85.6942 156.733 85.7689 156.488C85.8435 156.317 85.9075 156.088 85.9609 155.8C86.0142 155.501 86.0569 155.208 86.0889 154.92C86.1209 154.632 86.1475 154.365 86.1689 154.12C86.1902 153.875 86.2009 153.693 86.2009 153.576ZM90.9529 152.152H87.9449C87.9235 152.536 87.9075 152.952 87.8969 153.4C87.8862 153.848 87.8702 154.28 87.8489 154.696C87.8275 154.899 87.8062 155.117 87.7849 155.352C87.7742 155.587 87.7475 155.827 87.7049 156.072C87.6622 156.307 87.6035 156.541 87.5289 156.776C87.4542 157.011 87.3529 157.235 87.2249 157.448H90.9529V152.152ZM96.8443 159H95.1483V150.568H96.9723V156.36L101.26 150.568H102.908V159H101.084V153.32C101.074 153.341 99.6603 155.235 96.8443 159ZM111.474 150.568V152.152H108.626V159H106.818V152.152H103.97V150.568H111.474ZM114.027 155.4C114.049 155.709 114.113 155.997 114.219 156.264C114.326 156.531 114.47 156.765 114.651 156.968C114.833 157.16 115.057 157.315 115.323 157.432C115.601 157.549 115.921 157.608 116.283 157.608C116.667 157.608 117.019 157.539 117.339 157.4C117.67 157.261 117.91 157.021 118.059 156.68H119.931C119.825 157.107 119.649 157.475 119.403 157.784C119.169 158.093 118.886 158.349 118.555 158.552C118.235 158.744 117.878 158.888 117.483 158.984C117.099 159.069 116.689 159.112 116.251 159.112C115.579 159.112 114.987 159.011 114.475 158.808C113.974 158.605 113.553 158.312 113.211 157.928C112.87 157.544 112.614 157.091 112.443 156.568C112.283 156.035 112.203 155.437 112.203 154.776C112.203 154.136 112.294 153.555 112.475 153.032C112.657 152.499 112.918 152.04 113.259 151.656C113.611 151.272 114.033 150.973 114.523 150.76C115.014 150.536 115.574 150.424 116.203 150.424C116.865 150.424 117.435 150.536 117.915 150.76C118.395 150.973 118.795 151.267 119.115 151.64C119.446 152.013 119.691 152.451 119.851 152.952C120.011 153.453 120.091 153.997 120.091 154.584C120.091 154.861 120.075 155.133 120.043 155.4H114.027ZM118.315 154.024C118.283 153.363 118.075 152.861 117.691 152.52C117.318 152.179 116.827 152.008 116.219 152.008C115.878 152.008 115.579 152.061 115.323 152.168C115.067 152.275 114.849 152.419 114.667 152.6C114.497 152.781 114.358 152.995 114.251 153.24C114.145 153.485 114.075 153.747 114.043 154.024H118.315ZM122.448 154.984C122.501 154.259 122.533 153.539 122.544 152.824C122.565 152.099 122.587 151.347 122.608 150.568H128.912V159H127.072V152.152H124.304C124.283 152.675 124.261 153.197 124.24 153.72C124.229 154.232 124.208 154.744 124.176 155.256C124.165 155.448 124.144 155.677 124.112 155.944C124.091 156.2 124.059 156.461 124.016 156.728C123.973 156.984 123.909 157.229 123.824 157.464C123.739 157.688 123.632 157.896 123.504 158.088C123.28 158.408 122.981 158.643 122.608 158.792C122.245 158.931 121.824 159 121.344 159H120.896V157.432C121.216 157.432 121.472 157.357 121.664 157.208C121.867 157.048 122.016 156.851 122.112 156.616C122.219 156.371 122.293 156.109 122.336 155.832C122.389 155.544 122.427 155.261 122.448 154.984ZM130.898 150.568H132.722V153.416H134.61C135.101 153.416 135.544 153.459 135.938 153.544C136.344 153.619 136.69 153.763 136.978 153.976C137.277 154.189 137.506 154.467 137.666 154.808C137.837 155.149 137.922 155.571 137.922 156.072C137.922 156.637 137.816 157.112 137.602 157.496C137.4 157.869 137.128 158.168 136.786 158.392C136.456 158.616 136.077 158.776 135.65 158.872C135.224 158.957 134.792 159 134.354 159H130.898V150.568ZM134.146 157.48C134.392 157.48 134.632 157.464 134.866 157.432C135.112 157.389 135.32 157.325 135.49 157.24C135.672 157.144 135.816 157.011 135.922 156.84C136.04 156.669 136.104 156.445 136.114 156.168C136.114 155.869 136.05 155.64 135.922 155.48C135.794 155.32 135.634 155.203 135.442 155.128C135.25 155.053 135.037 155.011 134.802 155C134.578 154.989 134.37 154.984 134.178 154.984H132.722V157.464L134.146 157.48ZM19.0389 180V171.568H26.4309V180H24.6069V173.152H20.8629V180H19.0389ZM30.2379 183.28H28.4139V171.568H30.1419L30.2379 172.768C30.5472 172.331 30.9472 172 31.4379 171.776C31.9392 171.541 32.4619 171.424 33.0059 171.424C33.5819 171.424 34.0992 171.531 34.5579 171.744C35.0165 171.947 35.4059 172.235 35.7259 172.608C36.0565 172.981 36.3019 173.435 36.4619 173.968C36.6325 174.491 36.7179 175.088 36.7179 175.76C36.7179 176.389 36.6379 176.971 36.4779 177.504C36.3179 178.037 36.0779 178.501 35.7579 178.896C35.4485 179.28 35.0592 179.579 34.5899 179.792C34.1312 180.005 33.5712 180.112 32.9099 180.112C32.3979 180.112 31.9072 180.032 31.4379 179.872C30.9792 179.701 30.5792 179.424 30.2379 179.04V183.28ZM32.6219 178.528C33.0165 178.528 33.3579 178.459 33.6459 178.32C33.9339 178.171 34.1685 177.973 34.3499 177.728C34.5419 177.483 34.6805 177.195 34.7659 176.864C34.8619 176.533 34.9099 176.176 34.9099 175.792C34.9099 175.408 34.8619 175.051 34.7659 174.72C34.6805 174.379 34.5419 174.085 34.3499 173.84C34.1685 173.595 33.9285 173.403 33.6299 173.264C33.3419 173.125 32.9952 173.056 32.5899 173.056C32.2272 173.056 31.8912 173.131 31.5819 173.28C31.2832 173.429 31.0325 173.627 30.8299 173.872C30.6272 174.117 30.4725 174.411 30.3659 174.752C30.2699 175.083 30.2219 175.424 30.2219 175.776C30.2219 176.16 30.2699 176.523 30.3659 176.864C30.4619 177.195 30.6059 177.483 30.7979 177.728C31.0005 177.963 31.2512 178.155 31.5499 178.304C31.8485 178.453 32.2059 178.528 32.6219 178.528ZM42.1121 171.424C42.7841 171.424 43.3761 171.531 43.8881 171.744C44.4001 171.957 44.8321 172.256 45.1841 172.64C45.5468 173.013 45.8188 173.467 46.0001 174C46.1815 174.533 46.2721 175.125 46.2721 175.776C46.2721 176.437 46.1815 177.035 46.0001 177.568C45.8295 178.091 45.5681 178.544 45.2161 178.928C44.8641 179.312 44.4268 179.605 43.9041 179.808C43.3921 180.011 42.7948 180.112 42.1121 180.112C41.4401 180.112 40.8481 180.011 40.3361 179.808C39.8241 179.595 39.3921 179.301 39.0401 178.928C38.6988 178.544 38.4375 178.085 38.2561 177.552C38.0855 177.019 38.0001 176.427 38.0001 175.776C38.0001 175.125 38.0855 174.533 38.2561 174C38.4375 173.467 38.7041 173.013 39.0561 172.64C39.4081 172.256 39.8401 171.957 40.3521 171.744C40.8641 171.531 41.4508 171.424 42.1121 171.424ZM42.1121 178.528C42.5281 178.528 42.8801 178.459 43.1681 178.32C43.4668 178.171 43.7068 177.973 43.8881 177.728C44.0801 177.483 44.2188 177.195 44.3041 176.864C44.4001 176.533 44.4481 176.176 44.4481 175.792C44.4481 175.408 44.4001 175.051 44.3041 174.72C44.2188 174.379 44.0801 174.085 43.8881 173.84C43.7068 173.595 43.4668 173.403 43.1681 173.264C42.8801 173.125 42.5281 173.056 42.1121 173.056C41.7068 173.056 41.3548 173.125 41.0561 173.264C40.7681 173.403 40.5281 173.595 40.3361 173.84C40.1548 174.085 40.0161 174.379 39.9201 174.72C39.8348 175.051 39.7921 175.408 39.7921 175.792C39.7921 176.176 39.8348 176.533 39.9201 176.864C40.0161 177.195 40.1548 177.483 40.3361 177.728C40.5281 177.973 40.7681 178.171 41.0561 178.32C41.3548 178.459 41.7068 178.528 42.1121 178.528ZM49.4335 176.4C49.4548 176.709 49.5188 176.997 49.6255 177.264C49.7322 177.531 49.8762 177.765 50.0575 177.968C50.2388 178.16 50.4628 178.315 50.7295 178.432C51.0068 178.549 51.3268 178.608 51.6895 178.608C52.0735 178.608 52.4255 178.539 52.7455 178.4C53.0762 178.261 53.3162 178.021 53.4655 177.68H55.3375C55.2308 178.107 55.0548 178.475 54.8095 178.784C54.5748 179.093 54.2922 179.349 53.9615 179.552C53.6415 179.744 53.2842 179.888 52.8895 179.984C52.5055 180.069 52.0948 180.112 51.6575 180.112C50.9855 180.112 50.3935 180.011 49.8815 179.808C49.3802 179.605 48.9588 179.312 48.6175 178.928C48.2762 178.544 48.0202 178.091 47.8495 177.568C47.6895 177.035 47.6095 176.437 47.6095 175.776C47.6095 175.136 47.7002 174.555 47.8815 174.032C48.0628 173.499 48.3242 173.04 48.6655 172.656C49.0175 172.272 49.4388 171.973 49.9295 171.76C50.4202 171.536 50.9802 171.424 51.6095 171.424C52.2708 171.424 52.8415 171.536 53.3215 171.76C53.8015 171.973 54.2015 172.267 54.5215 172.64C54.8522 173.013 55.0975 173.451 55.2575 173.952C55.4175 174.453 55.4975 174.997 55.4975 175.584C55.4975 175.861 55.4815 176.133 55.4495 176.4H49.4335ZM53.7215 175.024C53.6895 174.363 53.4815 173.861 53.0975 173.52C52.7242 173.179 52.2335 173.008 51.6255 173.008C51.2842 173.008 50.9855 173.061 50.7295 173.168C50.4735 173.275 50.2548 173.419 50.0735 173.6C49.9028 173.781 49.7642 173.995 49.6575 174.24C49.5508 174.485 49.4815 174.747 49.4495 175.024H53.7215ZM57.1483 180V171.568H58.9563V175.008H60.2523L62.4123 171.568H64.4923L61.8203 175.584L64.7003 180H62.5883L60.3643 176.592H58.9563V180H57.1483ZM72.3024 171.568V173.152H69.4544V180H67.6464V173.152H64.7984V171.568H72.3024ZM78.7914 178.96C78.514 179.355 78.146 179.648 77.6874 179.84C77.2287 180.021 76.7167 180.112 76.1514 180.112C75.7034 180.112 75.2927 180.059 74.9194 179.952C74.5567 179.845 74.2367 179.685 73.9594 179.472C73.682 179.248 73.4634 178.976 73.3034 178.656C73.1434 178.325 73.0634 177.952 73.0634 177.536C73.0634 177.077 73.154 176.688 73.3354 176.368C73.5167 176.037 73.762 175.771 74.0714 175.568C74.3914 175.365 74.7647 175.216 75.1914 175.12C75.618 175.013 76.066 174.96 76.5354 174.96H78.6954C78.6954 174.341 78.5567 173.861 78.2794 173.52C78.002 173.179 77.5167 173.003 76.8234 172.992C76.418 172.992 76.066 173.061 75.7674 173.2C75.4794 173.339 75.2874 173.568 75.1914 173.888H73.3194C73.3834 173.44 73.5274 173.061 73.7514 172.752C73.986 172.443 74.2634 172.187 74.5834 171.984C74.914 171.781 75.2767 171.637 75.6714 171.552C76.0767 171.467 76.482 171.424 76.8874 171.424C77.41 171.424 77.8954 171.493 78.3434 171.632C78.7914 171.771 79.1807 172.005 79.5114 172.336C79.8847 172.72 80.1354 173.179 80.2634 173.712C80.3914 174.245 80.4554 174.827 80.4554 175.456V180H78.8714L78.7914 178.96ZM78.6954 176.256H76.9354C76.626 176.256 76.3167 176.283 76.0074 176.336C75.698 176.379 75.4314 176.491 75.2074 176.672C74.994 176.843 74.8874 177.093 74.8874 177.424C74.8874 177.829 75.0314 178.139 75.3194 178.352C75.618 178.555 75.9807 178.656 76.4074 178.656C76.738 178.656 77.042 178.613 77.3194 178.528C77.6074 178.443 77.8527 178.304 78.0554 178.112C78.258 177.909 78.4127 177.659 78.5194 177.36C78.6367 177.051 78.6954 176.683 78.6954 176.256ZM86.8459 167.328H88.6539L83.7579 182.704H81.9659L86.8459 167.328ZM90.1951 180V171.568H97.5871V180H95.7631V173.152H92.0191V180H90.1951ZM101.074 176.4C101.095 176.709 101.159 176.997 101.266 177.264C101.373 177.531 101.517 177.765 101.698 177.968C101.879 178.16 102.103 178.315 102.37 178.432C102.647 178.549 102.967 178.608 103.33 178.608C103.714 178.608 104.066 178.539 104.386 178.4C104.717 178.261 104.957 178.021 105.106 177.68H106.978C106.871 178.107 106.695 178.475 106.45 178.784C106.215 179.093 105.933 179.349 105.602 179.552C105.282 179.744 104.925 179.888 104.53 179.984C104.146 180.069 103.735 180.112 103.298 180.112C102.626 180.112 102.034 180.011 101.522 179.808C101.021 179.605 100.599 179.312 100.258 178.928C99.9168 178.544 99.6608 178.091 99.4901 177.568C99.3301 177.035 99.2501 176.437 99.2501 175.776C99.2501 175.136 99.3408 174.555 99.5221 174.032C99.7035 173.499 99.9648 173.04 100.306 172.656C100.658 172.272 101.079 171.973 101.57 171.76C102.061 171.536 102.621 171.424 103.25 171.424C103.911 171.424 104.482 171.536 104.962 171.76C105.442 171.973 105.842 172.267 106.162 172.64C106.493 173.013 106.738 173.451 106.898 173.952C107.058 174.453 107.138 174.997 107.138 175.584C107.138 175.861 107.122 176.133 107.09 176.4H101.074ZM105.362 175.024C105.33 174.363 105.122 173.861 104.738 173.52C104.365 173.179 103.874 173.008 103.266 173.008C102.925 173.008 102.626 173.061 102.37 173.168C102.114 173.275 101.895 173.419 101.714 173.6C101.543 173.781 101.405 173.995 101.298 174.24C101.191 174.485 101.122 174.747 101.09 175.024H105.362ZM110.613 183.28H108.789V171.568H110.517L110.613 172.768C110.922 172.331 111.322 172 111.813 171.776C112.314 171.541 112.837 171.424 113.381 171.424C113.957 171.424 114.474 171.531 114.933 171.744C115.392 171.947 115.781 172.235 116.101 172.608C116.432 172.981 116.677 173.435 116.837 173.968C117.008 174.491 117.093 175.088 117.093 175.76C117.093 176.389 117.013 176.971 116.853 177.504C116.693 178.037 116.453 178.501 116.133 178.896C115.824 179.28 115.434 179.579 114.965 179.792C114.506 180.005 113.946 180.112 113.285 180.112C112.773 180.112 112.282 180.032 111.813 179.872C111.354 179.701 110.954 179.424 110.613 179.04V183.28ZM112.997 178.528C113.392 178.528 113.733 178.459 114.021 178.32C114.309 178.171 114.544 177.973 114.725 177.728C114.917 177.483 115.056 177.195 115.141 176.864C115.237 176.533 115.285 176.176 115.285 175.792C115.285 175.408 115.237 175.051 115.141 174.72C115.056 174.379 114.917 174.085 114.725 173.84C114.544 173.595 114.304 173.403 114.005 173.264C113.717 173.125 113.37 173.056 112.965 173.056C112.602 173.056 112.266 173.131 111.957 173.28C111.658 173.429 111.408 173.627 111.205 173.872C111.002 174.117 110.848 174.411 110.741 174.752C110.645 175.083 110.597 175.424 110.597 175.776C110.597 176.16 110.645 176.523 110.741 176.864C110.837 177.195 110.981 177.483 111.173 177.728C111.376 177.963 111.626 178.155 111.925 178.304C112.224 178.453 112.581 178.528 112.997 178.528ZM118.695 171.568H122.295C122.668 171.568 123.047 171.589 123.431 171.632C123.815 171.664 124.162 171.755 124.471 171.904C124.791 172.053 125.047 172.272 125.239 172.56C125.442 172.837 125.548 173.216 125.559 173.696C125.559 174.069 125.474 174.416 125.303 174.736C125.132 175.056 124.86 175.317 124.487 175.52C124.999 175.659 125.372 175.904 125.607 176.256C125.852 176.597 125.975 177.008 125.975 177.488C125.975 177.936 125.884 178.325 125.703 178.656C125.522 178.976 125.282 179.237 124.983 179.44C124.684 179.632 124.338 179.776 123.943 179.872C123.548 179.957 123.132 180 122.695 180H118.695V171.568ZM120.535 173.088V175.024H121.639C121.884 175.024 122.135 175.024 122.391 175.024C122.658 175.013 122.892 174.976 123.095 174.912C123.308 174.848 123.479 174.747 123.607 174.608C123.746 174.469 123.815 174.272 123.815 174.016C123.815 173.792 123.762 173.621 123.655 173.504C123.559 173.376 123.436 173.28 123.287 173.216C123.138 173.152 122.967 173.115 122.775 173.104C122.594 173.093 122.423 173.088 122.263 173.088H120.535ZM122.391 178.464C122.604 178.464 122.812 178.453 123.015 178.432C123.228 178.411 123.415 178.363 123.575 178.288C123.746 178.203 123.884 178.096 123.991 177.968C124.098 177.829 124.151 177.648 124.151 177.424C124.151 177.019 124.023 176.747 123.767 176.608C123.522 176.469 123.218 176.4 122.855 176.4H120.535V178.464H122.391ZM133.104 178.96C132.827 179.355 132.459 179.648 132 179.84C131.541 180.021 131.029 180.112 130.464 180.112C130.016 180.112 129.605 180.059 129.232 179.952C128.869 179.845 128.549 179.685 128.272 179.472C127.995 179.248 127.776 178.976 127.616 178.656C127.456 178.325 127.376 177.952 127.376 177.536C127.376 177.077 127.467 176.688 127.648 176.368C127.829 176.037 128.075 175.771 128.384 175.568C128.704 175.365 129.077 175.216 129.504 175.12C129.931 175.013 130.379 174.96 130.848 174.96H133.008C133.008 174.341 132.869 173.861 132.592 173.52C132.315 173.179 131.829 173.003 131.136 172.992C130.731 172.992 130.379 173.061 130.08 173.2C129.792 173.339 129.6 173.568 129.504 173.888H127.632C127.696 173.44 127.84 173.061 128.064 172.752C128.299 172.443 128.576 172.187 128.896 171.984C129.227 171.781 129.589 171.637 129.984 171.552C130.389 171.467 130.795 171.424 131.2 171.424C131.723 171.424 132.208 171.493 132.656 171.632C133.104 171.771 133.493 172.005 133.824 172.336C134.197 172.72 134.448 173.179 134.576 173.712C134.704 174.245 134.768 174.827 134.768 175.456V180H133.184L133.104 178.96ZM133.008 176.256H131.248C130.939 176.256 130.629 176.283 130.32 176.336C130.011 176.379 129.744 176.491 129.52 176.672C129.307 176.843 129.2 177.093 129.2 177.424C129.2 177.829 129.344 178.139 129.632 178.352C129.931 178.555 130.293 178.656 130.72 178.656C131.051 178.656 131.355 178.613 131.632 178.528C131.92 178.443 132.165 178.304 132.368 178.112C132.571 177.909 132.725 177.659 132.832 177.36C132.949 177.051 133.008 176.683 133.008 176.256ZM143.638 180H141.83V177.12H140.31L138.342 180H136.198L138.486 176.832C137.836 176.672 137.34 176.379 136.998 175.952C136.668 175.525 136.502 174.981 136.502 174.32C136.502 173.797 136.588 173.36 136.758 173.008C136.94 172.656 137.185 172.373 137.494 172.16C137.814 171.936 138.177 171.781 138.582 171.696C138.988 171.611 139.425 171.568 139.894 171.568H143.638V180ZM141.83 173.088H140.022C139.82 173.088 139.617 173.104 139.414 173.136C139.212 173.157 139.025 173.216 138.854 173.312C138.694 173.397 138.566 173.52 138.47 173.68C138.374 173.84 138.326 174.032 138.326 174.256C138.326 174.288 138.326 174.315 138.326 174.336C138.326 174.613 138.406 174.848 138.566 175.04C138.726 175.232 138.934 175.371 139.19 175.456C139.446 175.531 139.681 175.579 139.894 175.6C140.108 175.611 140.321 175.616 140.534 175.616H141.83V173.088ZM26.7197 192.568H28.7197L26.2877 199.656C25.9784 200.531 25.6957 201.304 25.4397 201.976C25.1944 202.648 24.901 203.208 24.5597 203.656C24.2184 204.104 23.797 204.44 23.2957 204.664C22.805 204.899 22.1597 205.016 21.3597 205.016H21.0877V203.384C21.1304 203.384 21.173 203.384 21.2157 203.384C21.5357 203.384 21.8184 203.347 22.0637 203.272C22.3197 203.197 22.549 203.085 22.7517 202.936C22.9544 202.787 23.1304 202.589 23.2797 202.344C23.429 202.109 23.5677 201.837 23.6957 201.528L19.8717 192.568H22.0157L24.6397 199.24L26.7197 192.568ZM29.8279 201V192.568H37.2199V201H35.3959V194.152H31.6519V201H29.8279ZM41.0269 204.28H39.2029V192.568H40.9309L41.0269 193.768C41.3363 193.331 41.7363 193 42.2269 192.776C42.7283 192.541 43.2509 192.424 43.7949 192.424C44.3709 192.424 44.8883 192.531 45.3469 192.744C45.8056 192.947 46.1949 193.235 46.5149 193.608C46.8456 193.981 47.0909 194.435 47.2509 194.968C47.4216 195.491 47.5069 196.088 47.5069 196.76C47.5069 197.389 47.4269 197.971 47.2669 198.504C47.1069 199.037 46.8669 199.501 46.5469 199.896C46.2376 200.28 45.8483 200.579 45.3789 200.792C44.9203 201.005 44.3603 201.112 43.6989 201.112C43.1869 201.112 42.6963 201.032 42.2269 200.872C41.7683 200.701 41.3683 200.424 41.0269 200.04V204.28ZM43.4109 199.528C43.8056 199.528 44.1469 199.459 44.4349 199.32C44.7229 199.171 44.9576 198.973 45.1389 198.728C45.3309 198.483 45.4696 198.195 45.5549 197.864C45.6509 197.533 45.6989 197.176 45.6989 196.792C45.6989 196.408 45.6509 196.051 45.5549 195.72C45.4696 195.379 45.3309 195.085 45.1389 194.84C44.9576 194.595 44.7176 194.403 44.4189 194.264C44.1309 194.125 43.7843 194.056 43.3789 194.056C43.0163 194.056 42.6803 194.131 42.3709 194.28C42.0723 194.429 41.8216 194.627 41.6189 194.872C41.4163 195.117 41.2616 195.411 41.1549 195.752C41.0589 196.083 41.0109 196.424 41.0109 196.776C41.0109 197.16 41.0589 197.523 41.1549 197.864C41.2509 198.195 41.3949 198.483 41.5869 198.728C41.7896 198.963 42.0403 199.155 42.3389 199.304C42.6376 199.453 42.9949 199.528 43.4109 199.528ZM54.5492 199.96C54.2719 200.355 53.9039 200.648 53.4452 200.84C52.9865 201.021 52.4745 201.112 51.9092 201.112C51.4612 201.112 51.0505 201.059 50.6772 200.952C50.3145 200.845 49.9945 200.685 49.7172 200.472C49.4399 200.248 49.2212 199.976 49.0612 199.656C48.9012 199.325 48.8212 198.952 48.8212 198.536C48.8212 198.077 48.9119 197.688 49.0932 197.368C49.2745 197.037 49.5199 196.771 49.8292 196.568C50.1492 196.365 50.5225 196.216 50.9492 196.12C51.3759 196.013 51.8239 195.96 52.2932 195.96H54.4532C54.4532 195.341 54.3145 194.861 54.0372 194.52C53.7599 194.179 53.2745 194.003 52.5812 193.992C52.1759 193.992 51.8239 194.061 51.5252 194.2C51.2372 194.339 51.0452 194.568 50.9492 194.888H49.0772C49.1412 194.44 49.2852 194.061 49.5092 193.752C49.7439 193.443 50.0212 193.187 50.3412 192.984C50.6719 192.781 51.0345 192.637 51.4292 192.552C51.8345 192.467 52.2399 192.424 52.6452 192.424C53.1679 192.424 53.6532 192.493 54.1012 192.632C54.5492 192.771 54.9385 193.005 55.2692 193.336C55.6425 193.72 55.8932 194.179 56.0212 194.712C56.1492 195.245 56.2132 195.827 56.2132 196.456V201H54.6292L54.5492 199.96ZM54.4532 197.256H52.6932C52.3839 197.256 52.0745 197.283 51.7652 197.336C51.4559 197.379 51.1892 197.491 50.9652 197.672C50.7519 197.843 50.6452 198.093 50.6452 198.424C50.6452 198.829 50.7892 199.139 51.0772 199.352C51.3759 199.555 51.7385 199.656 52.1652 199.656C52.4959 199.656 52.7999 199.613 53.0772 199.528C53.3652 199.443 53.6105 199.304 53.8132 199.112C54.0159 198.909 54.1705 198.659 54.2772 198.36C54.3945 198.051 54.4532 197.683 54.4532 197.256ZM58.1717 192.568H61.7717C62.145 192.568 62.5237 192.589 62.9077 192.632C63.2917 192.664 63.6384 192.755 63.9477 192.904C64.2677 193.053 64.5237 193.272 64.7157 193.56C64.9184 193.837 65.025 194.216 65.0357 194.696C65.0357 195.069 64.9504 195.416 64.7797 195.736C64.609 196.056 64.337 196.317 63.9637 196.52C64.4757 196.659 64.849 196.904 65.0837 197.256C65.329 197.597 65.4517 198.008 65.4517 198.488C65.4517 198.936 65.361 199.325 65.1797 199.656C64.9984 199.976 64.7584 200.237 64.4597 200.44C64.161 200.632 63.8144 200.776 63.4197 200.872C63.025 200.957 62.609 201 62.1717 201H58.1717V192.568ZM60.0117 194.088V196.024H61.1157C61.361 196.024 61.6117 196.024 61.8677 196.024C62.1344 196.013 62.369 195.976 62.5717 195.912C62.785 195.848 62.9557 195.747 63.0837 195.608C63.2224 195.469 63.2917 195.272 63.2917 195.016C63.2917 194.792 63.2384 194.621 63.1317 194.504C63.0357 194.376 62.913 194.28 62.7637 194.216C62.6144 194.152 62.4437 194.115 62.2517 194.104C62.0704 194.093 61.8997 194.088 61.7397 194.088H60.0117ZM61.8677 199.464C62.081 199.464 62.289 199.453 62.4917 199.432C62.705 199.411 62.8917 199.363 63.0517 199.288C63.2224 199.203 63.361 199.096 63.4677 198.968C63.5744 198.829 63.6277 198.648 63.6277 198.424C63.6277 198.019 63.4997 197.747 63.2437 197.608C62.9984 197.469 62.6944 197.4 62.3317 197.4H60.0117V199.464H61.8677ZM67.9244 196.984C67.9778 196.259 68.0098 195.539 68.0204 194.824C68.0418 194.099 68.0631 193.347 68.0844 192.568H74.3884V201H72.5484V194.152H69.7804C69.7591 194.675 69.7378 195.197 69.7164 195.72C69.7058 196.232 69.6844 196.744 69.6524 197.256C69.6418 197.448 69.6204 197.677 69.5884 197.944C69.5671 198.2 69.5351 198.461 69.4924 198.728C69.4498 198.984 69.3858 199.229 69.3004 199.464C69.2151 199.688 69.1084 199.896 68.9804 200.088C68.7564 200.408 68.4578 200.643 68.0844 200.792C67.7218 200.931 67.3004 201 66.8204 201H66.3724V199.432C66.6924 199.432 66.9484 199.357 67.1404 199.208C67.3431 199.048 67.4924 198.851 67.5884 198.616C67.6951 198.371 67.7698 198.109 67.8124 197.832C67.8658 197.544 67.9031 197.261 67.9244 196.984ZM77.8788 197.4C77.9001 197.709 77.9641 197.997 78.0708 198.264C78.1775 198.531 78.3215 198.765 78.5028 198.968C78.6841 199.16 78.9081 199.315 79.1748 199.432C79.4521 199.549 79.7721 199.608 80.1348 199.608C80.5188 199.608 80.8708 199.539 81.1908 199.4C81.5215 199.261 81.7615 199.021 81.9108 198.68H83.7828C83.6761 199.107 83.5001 199.475 83.2548 199.784C83.0201 200.093 82.7375 200.349 82.4068 200.552C82.0868 200.744 81.7295 200.888 81.3348 200.984C80.9508 201.069 80.5401 201.112 80.1028 201.112C79.4308 201.112 78.8388 201.011 78.3268 200.808C77.8255 200.605 77.4041 200.312 77.0628 199.928C76.7215 199.544 76.4655 199.091 76.2948 198.568C76.1348 198.035 76.0548 197.437 76.0548 196.776C76.0548 196.136 76.1455 195.555 76.3268 195.032C76.5081 194.499 76.7695 194.04 77.1108 193.656C77.4628 193.272 77.8841 192.973 78.3748 192.76C78.8655 192.536 79.4255 192.424 80.0548 192.424C80.7161 192.424 81.2868 192.536 81.7668 192.76C82.2468 192.973 82.6468 193.267 82.9668 193.64C83.2975 194.013 83.5428 194.451 83.7028 194.952C83.8628 195.453 83.9428 195.997 83.9428 196.584C83.9428 196.861 83.9268 197.133 83.8948 197.4H77.8788ZM82.1668 196.024C82.1348 195.363 81.9268 194.861 81.5428 194.52C81.1695 194.179 80.6788 194.008 80.0708 194.008C79.7295 194.008 79.4308 194.061 79.1748 194.168C78.9188 194.275 78.7001 194.419 78.5188 194.6C78.3481 194.781 78.2095 194.995 78.1028 195.24C77.9961 195.485 77.9268 195.747 77.8948 196.024H82.1668ZM85.5936 201V192.568H87.4176V196.04H91.1616V192.568H92.9856V201H91.1616V197.624H87.4176V201H85.5936ZM94.6006 192.568H96.4246V194.232C96.4246 194.659 96.4406 195.016 96.4726 195.304C96.5152 195.592 96.6006 195.832 96.7286 196.024C96.8566 196.205 97.0432 196.339 97.2886 196.424C97.5339 196.499 97.8646 196.536 98.2806 196.536C98.5472 196.536 98.8352 196.525 99.1446 196.504C99.4539 196.472 99.7099 196.44 99.9126 196.408V192.568H101.721V201H99.9126V197.992C99.6672 198.035 99.3792 198.067 99.0486 198.088C98.7179 198.109 98.4139 198.12 98.1366 198.12C98.0192 198.12 97.9019 198.12 97.7846 198.12C97.2726 198.109 96.8192 198.045 96.4246 197.928C96.0299 197.8 95.6939 197.608 95.4166 197.352C95.1499 197.085 94.9472 196.733 94.8086 196.296C94.6699 195.859 94.6006 195.32 94.6006 194.68V192.568ZM105.223 197.4C105.244 197.709 105.308 197.997 105.415 198.264C105.521 198.531 105.665 198.765 105.847 198.968C106.028 199.16 106.252 199.315 106.519 199.432C106.796 199.549 107.116 199.608 107.479 199.608C107.863 199.608 108.215 199.539 108.535 199.4C108.865 199.261 109.105 199.021 109.255 198.68H111.127C111.02 199.107 110.844 199.475 110.599 199.784C110.364 200.093 110.081 200.349 109.751 200.552C109.431 200.744 109.073 200.888 108.679 200.984C108.295 201.069 107.884 201.112 107.447 201.112C106.775 201.112 106.183 201.011 105.671 200.808C105.169 200.605 104.748 200.312 104.407 199.928C104.065 199.544 103.809 199.091 103.639 198.568C103.479 198.035 103.399 197.437 103.399 196.776C103.399 196.136 103.489 195.555 103.671 195.032C103.852 194.499 104.113 194.04 104.455 193.656C104.807 193.272 105.228 192.973 105.719 192.76C106.209 192.536 106.769 192.424 107.399 192.424C108.06 192.424 108.631 192.536 109.111 192.76C109.591 192.973 109.991 193.267 110.311 193.64C110.641 194.013 110.887 194.451 111.047 194.952C111.207 195.453 111.287 195.997 111.287 196.584C111.287 196.861 111.271 197.133 111.239 197.4H105.223ZM109.511 196.024C109.479 195.363 109.271 194.861 108.887 194.52C108.513 194.179 108.023 194.008 107.415 194.008C107.073 194.008 106.775 194.061 106.519 194.168C106.263 194.275 106.044 194.419 105.863 194.6C105.692 194.781 105.553 194.995 105.447 195.24C105.34 195.485 105.271 195.747 105.239 196.024H109.511ZM116.649 201.112C115.977 201.112 115.385 201.011 114.873 200.808C114.372 200.595 113.951 200.301 113.609 199.928C113.279 199.544 113.028 199.091 112.857 198.568C112.697 198.035 112.617 197.448 112.617 196.808C112.617 196.168 112.703 195.581 112.873 195.048C113.055 194.515 113.321 194.056 113.673 193.672C114.025 193.288 114.452 192.984 114.953 192.76C115.455 192.536 116.036 192.424 116.697 192.424C117.167 192.424 117.599 192.477 117.993 192.584C118.399 192.68 118.756 192.845 119.065 193.08C119.375 193.304 119.641 193.592 119.865 193.944C120.089 194.285 120.244 194.701 120.329 195.192H118.441C118.345 194.829 118.137 194.552 117.817 194.36C117.508 194.157 117.124 194.056 116.665 194.056C116.26 194.056 115.913 194.131 115.625 194.28C115.337 194.429 115.103 194.632 114.921 194.888C114.74 195.144 114.607 195.443 114.521 195.784C114.447 196.115 114.409 196.461 114.409 196.824C114.409 197.197 114.452 197.549 114.537 197.88C114.623 198.211 114.756 198.499 114.937 198.744C115.129 198.979 115.369 199.171 115.657 199.32C115.945 199.459 116.292 199.528 116.697 199.528C117.177 199.528 117.572 199.421 117.881 199.208C118.201 198.995 118.404 198.712 118.489 198.36H120.361C120.276 198.84 120.116 199.256 119.881 199.608C119.657 199.96 119.38 200.248 119.049 200.472C118.719 200.696 118.351 200.861 117.945 200.968C117.54 201.064 117.108 201.112 116.649 201.112ZM121.922 201V192.568H123.73V196.008H125.026L127.186 192.568H129.266L126.594 196.584L129.474 201H127.362L125.138 197.592H123.73V201H121.922ZM135.784 199.96C135.506 200.355 135.138 200.648 134.68 200.84C134.221 201.021 133.709 201.112 133.144 201.112C132.696 201.112 132.285 201.059 131.912 200.952C131.549 200.845 131.229 200.685 130.952 200.472C130.674 200.248 130.456 199.976 130.296 199.656C130.136 199.325 130.056 198.952 130.056 198.536C130.056 198.077 130.146 197.688 130.328 197.368C130.509 197.037 130.754 196.771 131.064 196.568C131.384 196.365 131.757 196.216 132.184 196.12C132.61 196.013 133.058 195.96 133.528 195.96H135.688C135.688 195.341 135.549 194.861 135.272 194.52C134.994 194.179 134.509 194.003 133.816 193.992C133.41 193.992 133.058 194.061 132.76 194.2C132.472 194.339 132.28 194.568 132.184 194.888H130.312C130.376 194.44 130.52 194.061 130.744 193.752C130.978 193.443 131.256 193.187 131.576 192.984C131.906 192.781 132.269 192.637 132.664 192.552C133.069 192.467 133.474 192.424 133.88 192.424C134.402 192.424 134.888 192.493 135.336 192.632C135.784 192.771 136.173 193.005 136.504 193.336C136.877 193.72 137.128 194.179 137.256 194.712C137.384 195.245 137.448 195.827 137.448 196.456V201H135.864L135.784 199.96ZM135.688 197.256H133.928C133.618 197.256 133.309 197.283 133 197.336C132.69 197.379 132.424 197.491 132.2 197.672C131.986 197.843 131.88 198.093 131.88 198.424C131.88 198.829 132.024 199.139 132.312 199.352C132.61 199.555 132.973 199.656 133.4 199.656C133.73 199.656 134.034 199.613 134.312 199.528C134.6 199.443 134.845 199.304 135.048 199.112C135.25 198.909 135.405 198.659 135.512 198.36C135.629 198.051 135.688 197.683 135.688 197.256ZM146.318 201H144.51V198.12H142.99L141.022 201H138.878L141.166 197.832C140.515 197.672 140.019 197.379 139.678 196.952C139.347 196.525 139.182 195.981 139.182 195.32C139.182 194.797 139.267 194.36 139.438 194.008C139.619 193.656 139.865 193.373 140.174 193.16C140.494 192.936 140.857 192.781 141.262 192.696C141.667 192.611 142.105 192.568 142.574 192.568H146.318V201ZM144.51 194.088H142.702C142.499 194.088 142.297 194.104 142.094 194.136C141.891 194.157 141.705 194.216 141.534 194.312C141.374 194.397 141.246 194.52 141.15 194.68C141.054 194.84 141.006 195.032 141.006 195.256C141.006 195.288 141.006 195.315 141.006 195.336C141.006 195.613 141.086 195.848 141.246 196.04C141.406 196.232 141.614 196.371 141.87 196.456C142.126 196.531 142.361 196.579 142.574 196.6C142.787 196.611 143.001 196.616 143.214 196.616H144.51V194.088ZM42.5134 216.576C42.5454 216.064 42.5667 215.568 42.5774 215.088C42.588 214.597 42.5934 214.091 42.5934 213.568H49.0894V220.448H50.1934V224.464H48.4174V222H42.6574V224.464H40.8814V220.448C41.1907 220.448 41.4467 220.352 41.6494 220.16C41.8627 219.957 42.0067 219.733 42.0814 219.488C42.156 219.317 42.22 219.088 42.2734 218.8C42.3267 218.501 42.3694 218.208 42.4014 217.92C42.4334 217.632 42.46 217.365 42.4814 217.12C42.5027 216.875 42.5134 216.693 42.5134 216.576ZM47.2654 215.152H44.2574C44.236 215.536 44.22 215.952 44.2094 216.4C44.1987 216.848 44.1827 217.28 44.1614 217.696C44.14 217.899 44.1187 218.117 44.0974 218.352C44.0867 218.587 44.06 218.827 44.0174 219.072C43.9747 219.307 43.916 219.541 43.8414 219.776C43.7667 220.011 43.6654 220.235 43.5374 220.448H47.2654V215.152ZM55.2528 213.424C55.9248 213.424 56.5168 213.531 57.0288 213.744C57.5408 213.957 57.9728 214.256 58.3248 214.64C58.6874 215.013 58.9594 215.467 59.1408 216C59.3221 216.533 59.4128 217.125 59.4128 217.776C59.4128 218.437 59.3221 219.035 59.1408 219.568C58.9701 220.091 58.7088 220.544 58.3568 220.928C58.0048 221.312 57.5674 221.605 57.0448 221.808C56.5328 222.011 55.9354 222.112 55.2528 222.112C54.5808 222.112 53.9888 222.011 53.4768 221.808C52.9648 221.595 52.5328 221.301 52.1808 220.928C51.8394 220.544 51.5781 220.085 51.3968 219.552C51.2261 219.019 51.1408 218.427 51.1408 217.776C51.1408 217.125 51.2261 216.533 51.3968 216C51.5781 215.467 51.8448 215.013 52.1968 214.64C52.5488 214.256 52.9808 213.957 53.4928 213.744C54.0048 213.531 54.5914 213.424 55.2528 213.424ZM55.2528 220.528C55.6688 220.528 56.0208 220.459 56.3088 220.32C56.6074 220.171 56.8474 219.973 57.0288 219.728C57.2208 219.483 57.3594 219.195 57.4448 218.864C57.5408 218.533 57.5888 218.176 57.5888 217.792C57.5888 217.408 57.5408 217.051 57.4448 216.72C57.3594 216.379 57.2208 216.085 57.0288 215.84C56.8474 215.595 56.6074 215.403 56.3088 215.264C56.0208 215.125 55.6688 215.056 55.2528 215.056C54.8474 215.056 54.4954 215.125 54.1968 215.264C53.9088 215.403 53.6688 215.595 53.4768 215.84C53.2954 216.085 53.1568 216.379 53.0608 216.72C52.9754 217.051 52.9328 217.408 52.9328 217.792C52.9328 218.176 52.9754 218.533 53.0608 218.864C53.1568 219.195 53.2954 219.483 53.4768 219.728C53.6688 219.973 53.9088 220.171 54.1968 220.32C54.4954 220.459 54.8474 220.528 55.2528 220.528ZM61.776 217.984C61.8293 217.259 61.8613 216.539 61.872 215.824C61.8933 215.099 61.9147 214.347 61.936 213.568H68.24V222H66.4V215.152H63.632C63.6107 215.675 63.5893 216.197 63.568 216.72C63.5573 217.232 63.536 217.744 63.504 218.256C63.4933 218.448 63.472 218.677 63.44 218.944C63.4187 219.2 63.3867 219.461 63.344 219.728C63.3013 219.984 63.2373 220.229 63.152 220.464C63.0667 220.688 62.96 220.896 62.832 221.088C62.608 221.408 62.3093 221.643 61.936 221.792C61.5733 221.931 61.152 222 60.672 222H60.224V220.432C60.544 220.432 60.8 220.357 60.992 220.208C61.1947 220.048 61.344 219.851 61.44 219.616C61.5467 219.371 61.6213 219.109 61.664 218.832C61.7173 218.544 61.7547 218.261 61.776 217.984ZM74.7864 222V218.592H73.4744L71.5224 222H69.3784L72.0504 217.584L69.6024 213.568H71.6344L73.6024 217.024H74.7864V213.568H76.5944V217.024H77.7784L79.7464 213.568H81.7784L79.3304 217.584L82.0024 222H79.8584L77.9064 218.592H76.5944V222H74.7864ZM83.1326 222V213.568H84.9566V217.04H88.7006V213.568H90.5246V222H88.7006V218.624H84.9566V222H83.1326ZM96.2996 213.424C96.9716 213.424 97.5636 213.531 98.0756 213.744C98.5876 213.957 99.0196 214.256 99.3716 214.64C99.7343 215.013 100.006 215.467 100.188 216C100.369 216.533 100.46 217.125 100.46 217.776C100.46 218.437 100.369 219.035 100.188 219.568C100.017 220.091 99.7556 220.544 99.4036 220.928C99.0516 221.312 98.6143 221.605 98.0916 221.808C97.5796 222.011 96.9823 222.112 96.2996 222.112C95.6276 222.112 95.0356 222.011 94.5236 221.808C94.0116 221.595 93.5796 221.301 93.2276 220.928C92.8863 220.544 92.625 220.085 92.4436 219.552C92.273 219.019 92.1876 218.427 92.1876 217.776C92.1876 217.125 92.273 216.533 92.4436 216C92.625 215.467 92.8916 215.013 93.2436 214.64C93.5956 214.256 94.0276 213.957 94.5396 213.744C95.0516 213.531 95.6383 213.424 96.2996 213.424ZM96.2996 220.528C96.7156 220.528 97.0676 220.459 97.3556 220.32C97.6543 220.171 97.8943 219.973 98.0756 219.728C98.2676 219.483 98.4063 219.195 98.4916 218.864C98.5876 218.533 98.6356 218.176 98.6356 217.792C98.6356 217.408 98.5876 217.051 98.4916 216.72C98.4063 216.379 98.2676 216.085 98.0756 215.84C97.8943 215.595 97.6543 215.403 97.3556 215.264C97.0676 215.125 96.7156 215.056 96.2996 215.056C95.8943 215.056 95.5423 215.125 95.2436 215.264C94.9556 215.403 94.7156 215.595 94.5236 215.84C94.3423 216.085 94.2036 216.379 94.1076 216.72C94.0223 217.051 93.9796 217.408 93.9796 217.792C93.9796 218.176 94.0223 218.533 94.1076 218.864C94.2036 219.195 94.3423 219.483 94.5236 219.728C94.7156 219.973 94.9556 220.171 95.2436 220.32C95.5423 220.459 95.8943 220.528 96.2996 220.528ZM105.829 222.112C105.157 222.112 104.565 222.011 104.053 221.808C103.552 221.595 103.13 221.301 102.789 220.928C102.458 220.544 102.208 220.091 102.037 219.568C101.877 219.035 101.797 218.448 101.797 217.808C101.797 217.168 101.882 216.581 102.053 216.048C102.234 215.515 102.501 215.056 102.853 214.672C103.205 214.288 103.632 213.984 104.133 213.76C104.634 213.536 105.216 213.424 105.877 213.424C106.346 213.424 106.778 213.477 107.173 213.584C107.578 213.68 107.936 213.845 108.245 214.08C108.554 214.304 108.821 214.592 109.045 214.944C109.269 215.285 109.424 215.701 109.509 216.192H107.621C107.525 215.829 107.317 215.552 106.997 215.36C106.688 215.157 106.304 215.056 105.845 215.056C105.44 215.056 105.093 215.131 104.805 215.28C104.517 215.429 104.282 215.632 104.101 215.888C103.92 216.144 103.786 216.443 103.701 216.784C103.626 217.115 103.589 217.461 103.589 217.824C103.589 218.197 103.632 218.549 103.717 218.88C103.802 219.211 103.936 219.499 104.117 219.744C104.309 219.979 104.549 220.171 104.837 220.32C105.125 220.459 105.472 220.528 105.877 220.528C106.357 220.528 106.752 220.421 107.061 220.208C107.381 219.995 107.584 219.712 107.669 219.36H109.541C109.456 219.84 109.296 220.256 109.061 220.608C108.837 220.96 108.56 221.248 108.229 221.472C107.898 221.696 107.53 221.861 107.125 221.968C106.72 222.064 106.288 222.112 105.829 222.112ZM117.677 213.568V215.152H114.829V222H113.021V215.152H110.173V213.568H117.677ZM118.726 213.568H120.55V216.416H122.438C122.929 216.416 123.372 216.459 123.766 216.544C124.172 216.619 124.518 216.763 124.806 216.976C125.105 217.189 125.334 217.467 125.494 217.808C125.665 218.149 125.75 218.571 125.75 219.072C125.75 219.637 125.644 220.112 125.43 220.496C125.228 220.869 124.956 221.168 124.614 221.392C124.284 221.616 123.905 221.776 123.478 221.872C123.052 221.957 122.62 222 122.182 222H118.726V213.568ZM121.974 220.48C122.22 220.48 122.46 220.464 122.694 220.432C122.94 220.389 123.148 220.325 123.318 220.24C123.5 220.144 123.644 220.011 123.75 219.84C123.868 219.669 123.932 219.445 123.942 219.168C123.942 218.869 123.878 218.64 123.75 218.48C123.622 218.32 123.462 218.203 123.27 218.128C123.078 218.053 122.865 218.011 122.63 218C122.406 217.989 122.198 217.984 122.006 217.984H120.55V220.464L121.974 220.48Z" fill="#0C54A0"/>
</svg>
