<svg width="167" height="205" viewBox="0 0 167 205" fill="none" xmlns="http://www.w3.org/2000/svg">
<path d="M167 12H0V0H167V12Z" fill="#E6E6E6"/>
<path d="M-4.00543e-05 12H31.207V0H-4.00543e-05V12Z" fill="#C7C6C6"/>
<rect y="22" width="167" height="183" fill="white"/>
<rect x="10" y="42" width="147" height="46" rx="3" fill="#0260A2"/>
<path d="M55.352 125.872C55.864 125.456 56.3707 125.04 56.872 124.624C57.384 124.197 57.896 123.76 58.408 123.312C59.1333 122.672 59.6133 122.229 59.848 121.984C60.0933 121.739 60.296 121.472 60.456 121.184C60.6267 120.885 60.712 120.571 60.712 120.24C60.712 119.877 60.5947 119.573 60.36 119.328C60.136 119.072 59.784 118.944 59.304 118.944C58.76 118.944 58.3653 119.061 58.12 119.296C57.8853 119.531 57.7413 119.813 57.688 120.144H55.272C55.2933 119.547 55.416 119.024 55.64 118.576C55.864 118.117 56.1627 117.739 56.536 117.44C56.9093 117.141 57.3413 116.917 57.832 116.768C58.3333 116.619 58.8667 116.544 59.432 116.544C59.9547 116.544 60.4507 116.619 60.92 116.768C61.4 116.917 61.816 117.141 62.168 117.44C62.52 117.728 62.7973 118.091 63 118.528C63.2133 118.965 63.32 119.477 63.32 120.064C63.32 120.693 63.1813 121.28 62.904 121.824C62.6373 122.368 62.296 122.859 61.88 123.296C61.464 123.733 61.0107 124.149 60.52 124.544C60.0293 124.928 59.56 125.296 59.112 125.648H63.192V128H55.352V125.872ZM69.2023 116.528C69.9489 116.528 70.6049 116.661 71.1703 116.928C71.7356 117.195 72.2049 117.579 72.5783 118.08C72.9623 118.581 73.2503 119.189 73.4423 119.904C73.6343 120.619 73.7303 121.424 73.7303 122.32C73.7303 123.227 73.6343 124.037 73.4423 124.752C73.2609 125.467 72.9783 126.075 72.5943 126.576C72.2209 127.067 71.7463 127.445 71.1703 127.712C70.6049 127.979 69.9383 128.112 69.1703 128.112C68.4023 128.112 67.7303 127.979 67.1543 127.712C66.5783 127.445 66.1036 127.067 65.7303 126.576C65.3569 126.075 65.0743 125.467 64.8823 124.752C64.7009 124.037 64.6103 123.227 64.6103 122.32C64.6103 121.424 64.7063 120.619 64.8983 119.904C65.0903 119.179 65.3783 118.571 65.7623 118.08C66.1463 117.579 66.6263 117.195 67.2023 116.928C67.7783 116.661 68.4449 116.528 69.2023 116.528ZM69.1703 125.744C69.5543 125.744 69.8743 125.653 70.1303 125.472C70.3969 125.291 70.6049 125.045 70.7543 124.736C70.9036 124.416 71.0103 124.053 71.0743 123.648C71.1383 123.232 71.1703 122.789 71.1703 122.32C71.1703 121.872 71.1383 121.445 71.0743 121.04C71.0209 120.624 70.9143 120.261 70.7543 119.952C70.6049 119.632 70.4023 119.381 70.1463 119.2C69.9009 119.019 69.5863 118.928 69.2023 118.928C68.8076 118.928 68.4769 119.019 68.2103 119.2C67.9543 119.381 67.7463 119.627 67.5863 119.936C67.4369 120.245 67.3303 120.608 67.2663 121.024C67.2023 121.429 67.1703 121.861 67.1703 122.32C67.1703 122.779 67.1969 123.216 67.2503 123.632C67.3143 124.048 67.4209 124.411 67.5703 124.72C67.7303 125.029 67.9383 125.28 68.1943 125.472C68.4503 125.653 68.7756 125.744 69.1703 125.744ZM87.4503 119.568V128H84.9383V121.824H82.8423C82.8316 122.411 82.8156 123.035 82.7943 123.696C82.7836 124.357 82.7196 125.003 82.6023 125.632C82.5169 126.133 82.3783 126.544 82.1863 126.864C82.0049 127.173 81.7863 127.413 81.5303 127.584C81.2743 127.755 80.9863 127.867 80.6663 127.92C80.3569 127.973 80.0263 128 79.6743 128H79.0023V125.808C79.2796 125.808 79.5089 125.733 79.6903 125.584C79.8823 125.435 80.0263 125.243 80.1223 125.008C80.2289 124.763 80.3089 124.475 80.3623 124.144C80.4156 123.813 80.4529 123.467 80.4743 123.104C80.4956 122.816 80.5116 122.496 80.5223 122.144C80.5329 121.781 80.5383 121.445 80.5383 121.136C80.5489 120.827 80.5543 120.539 80.5543 120.272C80.5543 119.995 80.5543 119.76 80.5543 119.568H87.4503ZM93.1281 126.032C93.4588 126.032 93.7361 125.979 93.9601 125.872C94.1841 125.755 94.3495 125.595 94.4561 125.392H97.0161C96.8988 125.883 96.7175 126.299 96.4721 126.64C96.2268 126.981 95.9281 127.264 95.5761 127.488C95.2241 127.712 94.8348 127.877 94.4081 127.984C93.9921 128.08 93.5548 128.128 93.0961 128.128C91.7628 128.128 90.7228 127.749 89.9761 126.992C89.2401 126.224 88.8721 125.141 88.8721 123.744C88.8721 123.125 88.9681 122.549 89.1601 122.016C89.3628 121.483 89.6401 121.024 89.9921 120.64C90.3548 120.245 90.7921 119.941 91.3041 119.728C91.8268 119.504 92.4135 119.392 93.0641 119.392C93.7148 119.392 94.2908 119.493 94.7921 119.696C95.2935 119.899 95.7148 120.187 96.0561 120.56C96.3975 120.933 96.6535 121.376 96.8241 121.888C97.0055 122.4 97.0961 122.955 97.0961 123.552C97.0961 123.723 97.0855 123.888 97.0641 124.048C97.0535 124.197 97.0321 124.363 97.0001 124.544H91.4001C91.4428 124.949 91.5975 125.296 91.8641 125.584C92.1415 125.872 92.5628 126.021 93.1281 126.032ZM94.6801 122.848C94.6801 122.453 94.5361 122.128 94.2481 121.872C93.9708 121.616 93.5868 121.488 93.0961 121.488C92.5521 121.488 92.1468 121.627 91.8801 121.904C91.6135 122.171 91.4641 122.485 91.4321 122.848H94.6801ZM97.5766 121.808V119.568H105.561V121.808H102.825V128H100.313V121.808H97.5766Z" fill="#0260A2"/>
<path d="M33.3226 60.128C32.4372 60.128 31.6639 59.984 31.0026 59.696C30.3412 59.3973 29.7866 58.992 29.3386 58.48C28.8906 57.968 28.5546 57.36 28.3306 56.656C28.1066 55.952 27.9946 55.184 27.9946 54.352C27.9946 53.52 28.1066 52.752 28.3306 52.048C28.5546 51.3333 28.8906 50.72 29.3386 50.208C29.7866 49.696 30.3412 49.296 31.0026 49.008C31.6639 48.7093 32.4372 48.56 33.3226 48.56C34.1972 48.56 34.9652 48.7093 35.6266 49.008C36.2879 49.296 36.8426 49.696 37.2906 50.208C37.7386 50.72 38.0746 51.3333 38.2986 52.048C38.5226 52.752 38.6346 53.52 38.6346 54.352C38.6346 55.184 38.5226 55.952 38.2986 56.656C38.0746 57.36 37.7386 57.968 37.2906 58.48C36.8426 58.992 36.2879 59.3973 35.6266 59.696C34.9652 59.984 34.1972 60.128 33.3226 60.128ZM33.3226 49.824C32.6506 49.824 32.0692 49.9467 31.5786 50.192C31.0879 50.4267 30.6826 50.752 30.3626 51.168C30.0426 51.584 29.8026 52.0693 29.6426 52.624C29.4826 53.168 29.4026 53.744 29.4026 54.352C29.4026 54.96 29.4772 55.536 29.6266 56.08C29.7866 56.624 30.0266 57.104 30.3466 57.52C30.6666 57.936 31.0719 58.2667 31.5626 58.512C32.0639 58.7467 32.6506 58.864 33.3226 58.864C33.9946 58.864 34.5759 58.7467 35.0666 58.512C35.5572 58.2667 35.9572 57.9413 36.2666 57.536C36.5866 57.12 36.8212 56.64 36.9706 56.096C37.1306 55.552 37.2106 54.9707 37.2106 54.352C37.2106 53.7333 37.1306 53.152 36.9706 52.608C36.8212 52.0533 36.5866 51.5733 36.2666 51.168C35.9466 50.752 35.5412 50.4267 35.0506 50.192C34.5599 49.9467 33.9839 49.824 33.3226 49.824ZM40.4704 60V51.568H47.4624V60H46.1024V52.768H41.8304V60H40.4704ZM50.3951 56.048C50.4484 55.28 50.4857 54.5333 50.5071 53.808C50.5391 53.0827 50.5604 52.336 50.5711 51.568H56.4271V60H55.0671V52.768H51.8991L51.7551 56.08C51.7337 56.5067 51.6857 56.9867 51.6111 57.52C51.5364 58.0533 51.3817 58.5387 51.1471 58.976C50.9657 59.2853 50.7204 59.536 50.4111 59.728C50.1017 59.92 49.7444 60.016 49.3391 60.016H48.8431V58.816C49.2697 58.816 49.6111 58.6347 49.8671 58.272C50.0164 58.0587 50.1337 57.7493 50.2191 57.344C50.3044 56.9387 50.3631 56.5067 50.3951 56.048ZM64.1162 58.928C63.9349 59.1733 63.7269 59.3707 63.4922 59.52C63.2575 59.6693 63.0122 59.7867 62.7562 59.872C62.5109 59.9573 62.2602 60.016 62.0042 60.048C61.7589 60.08 61.5135 60.096 61.2682 60.096C60.8735 60.096 60.5002 60.048 60.1482 59.952C59.7962 59.856 59.4762 59.7013 59.1882 59.488C58.9109 59.2747 58.6869 59.008 58.5162 58.688C58.3562 58.368 58.2762 58.0053 58.2762 57.6C58.2762 57.12 58.3615 56.72 58.5322 56.4C58.7135 56.0693 58.9535 55.8027 59.2522 55.6C59.5509 55.3973 59.8922 55.2587 60.2762 55.184C60.6709 55.0987 61.0869 55.056 61.5242 55.056H64.0042C64.0042 54.3413 63.8495 53.776 63.5402 53.36C63.2309 52.9333 62.7082 52.7093 61.9722 52.688C61.5242 52.688 61.1295 52.7627 60.7882 52.912C60.4469 53.0613 60.2122 53.3067 60.0842 53.648H58.6282C58.7029 53.264 58.8522 52.9387 59.0762 52.672C59.3002 52.3947 59.5669 52.1707 59.8762 52C60.1855 51.8187 60.5215 51.6853 60.8842 51.6C61.2469 51.5147 61.6095 51.472 61.9722 51.472C62.6015 51.472 63.1295 51.5787 63.5562 51.792C63.9935 51.9947 64.3455 52.2667 64.6122 52.608C64.8789 52.9387 65.0655 53.344 65.1722 53.824C65.2789 54.304 65.3322 54.8427 65.3322 55.44V60H64.1962L64.1162 58.928ZM62.5162 56.192C62.2602 56.192 61.9615 56.1973 61.6202 56.208C61.2895 56.208 60.9695 56.24 60.6602 56.304C60.3509 56.368 60.1002 56.5013 59.9082 56.704C59.7269 56.9067 59.6362 57.1733 59.6362 57.504C59.6362 57.7493 59.6842 57.9573 59.7802 58.128C59.8762 58.2987 60.0042 58.4427 60.1642 58.56C60.3349 58.6773 60.5269 58.7627 60.7402 58.816C60.9535 58.8693 61.1722 58.896 61.3962 58.896C62.1962 58.896 62.8255 58.704 63.2842 58.32C63.7535 57.9253 63.9935 57.3547 64.0042 56.608V56.192H62.5162ZM67.0712 51.568H68.4312V53.456C68.4312 53.8293 68.4525 54.16 68.4952 54.448C68.5485 54.7253 68.6445 54.96 68.7832 55.152C68.9219 55.344 69.1192 55.4933 69.3752 55.6C69.6312 55.696 69.9672 55.744 70.3832 55.744C70.7032 55.744 71.0392 55.728 71.3912 55.696C71.7539 55.664 72.0899 55.616 72.3992 55.552V51.568H73.7592V60H72.3992V56.752C71.9939 56.8267 71.5992 56.88 71.2152 56.912C70.8419 56.9333 70.5059 56.944 70.2072 56.944C69.6099 56.944 69.1085 56.8747 68.7032 56.736C68.3085 56.5973 67.9885 56.3893 67.7432 56.112C67.4979 55.824 67.3219 55.472 67.2152 55.056C67.1192 54.6293 67.0712 54.128 67.0712 53.552V51.568ZM77.2359 60H75.9079V51.568H77.2679V58.032C77.3426 57.8827 77.4439 57.7227 77.5719 57.552C77.6999 57.3707 77.8013 57.232 77.8759 57.136L81.9559 51.568H83.2999V60H81.9399V53.536C81.8546 53.696 81.7586 53.8507 81.6519 54C81.5559 54.1387 81.4653 54.2613 81.3799 54.368L77.2359 60ZM85.4392 51.568H88.7032C89.2472 51.568 89.7112 51.6053 90.0952 51.68C90.4899 51.7547 90.8205 51.888 91.0872 52.08C91.3219 52.24 91.5032 52.4533 91.6312 52.72C91.7699 52.9867 91.8392 53.3013 91.8392 53.664C91.8392 54.5067 91.4605 55.1093 90.7032 55.472C91.2792 55.6 91.6952 55.8507 91.9512 56.224C92.2072 56.5973 92.3352 57.024 92.3352 57.504C92.3245 57.952 92.2499 58.32 92.1112 58.608C91.9725 58.8853 91.7752 59.1307 91.5192 59.344C91.2739 59.5467 90.9699 59.7067 90.6072 59.824C90.2445 59.9413 89.8339 60 89.3752 60H85.4392V51.568ZM86.8312 52.768V55.168H87.9992C88.2659 55.168 88.5379 55.1627 88.8152 55.152C89.0925 55.1307 89.3379 55.0827 89.5512 55.008C89.8179 54.9227 90.0419 54.784 90.2232 54.592C90.4045 54.4 90.5005 54.1707 90.5112 53.904C90.5112 53.5947 90.4419 53.3707 90.3032 53.232C90.1752 53.0827 90.0152 52.976 89.8232 52.912C89.6312 52.8373 89.4232 52.7947 89.1992 52.784C88.9752 52.7733 88.7672 52.768 88.5752 52.768H86.8312ZM86.8312 58.816H89.0552C89.3005 58.816 89.5352 58.8 89.7592 58.768C89.9939 58.736 90.1965 58.6773 90.3672 58.592C90.5379 58.496 90.6765 58.368 90.7832 58.208C90.8899 58.048 90.9485 57.8453 90.9592 57.6C90.9592 57.28 90.8845 57.0293 90.7352 56.848C90.5859 56.656 90.3832 56.5173 90.1272 56.432C89.9139 56.368 89.6739 56.3307 89.4072 56.32C89.1405 56.3093 88.8632 56.304 88.5752 56.304L86.8312 56.32V58.816ZM99.7412 58.928C99.5599 59.1733 99.3519 59.3707 99.1172 59.52C98.8825 59.6693 98.6372 59.7867 98.3812 59.872C98.1359 59.9573 97.8852 60.016 97.6292 60.048C97.3839 60.08 97.1385 60.096 96.8932 60.096C96.4985 60.096 96.1252 60.048 95.7732 59.952C95.4212 59.856 95.1012 59.7013 94.8132 59.488C94.5359 59.2747 94.3119 59.008 94.1412 58.688C93.9812 58.368 93.9012 58.0053 93.9012 57.6C93.9012 57.12 93.9865 56.72 94.1572 56.4C94.3385 56.0693 94.5785 55.8027 94.8772 55.6C95.1759 55.3973 95.5172 55.2587 95.9012 55.184C96.2959 55.0987 96.7119 55.056 97.1492 55.056H99.6292C99.6292 54.3413 99.4745 53.776 99.1652 53.36C98.8559 52.9333 98.3332 52.7093 97.5972 52.688C97.1492 52.688 96.7545 52.7627 96.4132 52.912C96.0719 53.0613 95.8372 53.3067 95.7092 53.648H94.2532C94.3279 53.264 94.4772 52.9387 94.7012 52.672C94.9252 52.3947 95.1919 52.1707 95.5012 52C95.8105 51.8187 96.1465 51.6853 96.5092 51.6C96.8719 51.5147 97.2345 51.472 97.5972 51.472C98.2265 51.472 98.7545 51.5787 99.1812 51.792C99.6185 51.9947 99.9705 52.2667 100.237 52.608C100.504 52.9387 100.691 53.344 100.797 53.824C100.904 54.304 100.957 54.8427 100.957 55.44V60H99.8212L99.7412 58.928ZM98.1412 56.192C97.8852 56.192 97.5865 56.1973 97.2452 56.208C96.9145 56.208 96.5945 56.24 96.2852 56.304C95.9759 56.368 95.7252 56.5013 95.5332 56.704C95.3519 56.9067 95.2612 57.1733 95.2612 57.504C95.2612 57.7493 95.3092 57.9573 95.4052 58.128C95.5012 58.2987 95.6292 58.4427 95.7892 58.56C95.9599 58.6773 96.1519 58.7627 96.3652 58.816C96.5785 58.8693 96.7972 58.896 97.0212 58.896C97.8212 58.896 98.4505 58.704 98.9092 58.32C99.3785 57.9253 99.6185 57.3547 99.6292 56.608V56.192H98.1412ZM104.12 56.288C104.152 56.6613 104.227 57.008 104.344 57.328C104.472 57.6373 104.643 57.9093 104.856 58.144C105.07 58.3787 105.331 58.5653 105.64 58.704C105.96 58.832 106.328 58.896 106.744 58.896C106.947 58.896 107.155 58.88 107.368 58.848C107.592 58.8053 107.8 58.7413 107.992 58.656C108.184 58.56 108.355 58.4373 108.504 58.288C108.654 58.1387 108.766 57.9573 108.84 57.744H110.232C110.136 58.1493 109.971 58.5013 109.736 58.8C109.512 59.0987 109.24 59.344 108.92 59.536C108.611 59.728 108.264 59.872 107.88 59.968C107.496 60.0533 107.107 60.096 106.712 60.096C106.04 60.096 105.454 59.9893 104.952 59.776C104.462 59.5627 104.051 59.2693 103.72 58.896C103.39 58.512 103.144 58.0587 102.984 57.536C102.824 57.0027 102.744 56.4213 102.744 55.792C102.744 55.1627 102.83 54.5867 103 54.064C103.182 53.5307 103.438 53.072 103.768 52.688C104.099 52.304 104.504 52.0053 104.984 51.792C105.464 51.5787 106.035 51.472 106.696 51.472C107.368 51.472 107.95 51.6053 108.44 51.872C108.931 52.1387 109.326 52.4907 109.624 52.928C109.923 53.3547 110.131 53.8187 110.248 54.32C110.376 54.8213 110.43 55.2853 110.408 55.712C110.408 55.808 110.403 55.904 110.392 56C110.392 56.096 110.387 56.192 110.376 56.288H104.12ZM109.032 55.104C109.011 54.3893 108.787 53.808 108.36 53.36C107.934 52.912 107.363 52.688 106.648 52.688C106.254 52.688 105.907 52.752 105.608 52.88C105.31 53.008 105.059 53.184 104.856 53.408C104.654 53.632 104.494 53.8933 104.376 54.192C104.259 54.48 104.184 54.784 104.152 55.104H109.032ZM112.236 51.568H114.06L116.796 55.792L119.484 51.568H121.276V60H119.932V53.072L116.956 57.84H116.572L113.58 53.072V60H112.236V51.568ZM128.976 58.928C128.794 59.1733 128.586 59.3707 128.352 59.52C128.117 59.6693 127.872 59.7867 127.616 59.872C127.37 59.9573 127.12 60.016 126.864 60.048C126.618 60.08 126.373 60.096 126.128 60.096C125.733 60.096 125.36 60.048 125.008 59.952C124.656 59.856 124.336 59.7013 124.048 59.488C123.77 59.2747 123.546 59.008 123.376 58.688C123.216 58.368 123.136 58.0053 123.136 57.6C123.136 57.12 123.221 56.72 123.392 56.4C123.573 56.0693 123.813 55.8027 124.112 55.6C124.41 55.3973 124.752 55.2587 125.136 55.184C125.53 55.0987 125.946 55.056 126.384 55.056H128.864C128.864 54.3413 128.709 53.776 128.4 53.36C128.09 52.9333 127.568 52.7093 126.832 52.688C126.384 52.688 125.989 52.7627 125.648 52.912C125.306 53.0613 125.072 53.3067 124.944 53.648H123.488C123.562 53.264 123.712 52.9387 123.936 52.672C124.16 52.3947 124.426 52.1707 124.736 52C125.045 51.8187 125.381 51.6853 125.744 51.6C126.106 51.5147 126.469 51.472 126.832 51.472C127.461 51.472 127.989 51.5787 128.416 51.792C128.853 51.9947 129.205 52.2667 129.472 52.608C129.738 52.9387 129.925 53.344 130.032 53.824C130.138 54.304 130.192 54.8427 130.192 55.44V60H129.056L128.976 58.928ZM127.376 56.192C127.12 56.192 126.821 56.1973 126.48 56.208C126.149 56.208 125.829 56.24 125.52 56.304C125.21 56.368 124.96 56.5013 124.768 56.704C124.586 56.9067 124.496 57.1733 124.496 57.504C124.496 57.7493 124.544 57.9573 124.64 58.128C124.736 58.2987 124.864 58.4427 125.024 58.56C125.194 58.6773 125.386 58.7627 125.6 58.816C125.813 58.8693 126.032 58.896 126.256 58.896C127.056 58.896 127.685 58.704 128.144 58.32C128.613 57.9253 128.853 57.3547 128.864 56.608V56.192H127.376ZM138.699 60H137.339V56.88H135.403L133.355 60H131.771L133.963 56.672C133.355 56.5013 132.88 56.224 132.539 55.84C132.197 55.4453 132.016 54.9227 131.995 54.272C131.984 53.7067 132.069 53.2533 132.251 52.912C132.443 52.56 132.693 52.2773 133.003 52.064C133.301 51.8507 133.648 51.7173 134.043 51.664C134.437 51.6 134.859 51.568 135.307 51.568H138.699V60ZM137.339 52.768L135.531 52.752C135.264 52.752 134.992 52.7627 134.715 52.784C134.448 52.8053 134.208 52.8747 133.995 52.992C133.813 53.0987 133.664 53.2533 133.547 53.456C133.44 53.648 133.381 53.8987 133.371 54.208C133.381 54.496 133.451 54.7413 133.579 54.944C133.707 55.136 133.888 55.2907 134.123 55.408C134.432 55.5573 134.773 55.6427 135.147 55.664C135.531 55.6853 135.925 55.696 136.331 55.696H137.339V52.768ZM42.3048 81.096C41.6328 81.096 41.0515 80.9893 40.5608 80.776C40.0701 80.5627 39.6648 80.264 39.3448 79.88C39.0248 79.496 38.7848 79.0427 38.6248 78.52C38.4648 77.9973 38.3848 77.4267 38.3848 76.808C38.3848 76.2107 38.4701 75.6507 38.6408 75.128C38.8115 74.5947 39.0621 74.136 39.3928 73.752C39.7235 73.3573 40.1395 73.048 40.6408 72.824C41.1421 72.5893 41.7501 72.472 42.4648 72.472C42.8915 72.472 43.2701 72.52 43.6008 72.616C43.9315 72.7013 44.2408 72.8453 44.5288 73.048C44.8275 73.24 45.0835 73.496 45.2968 73.816C45.5101 74.136 45.6648 74.5253 45.7608 74.984H44.3688C44.2088 74.5147 43.9528 74.1787 43.6008 73.976C43.2595 73.7733 42.8541 73.6773 42.3848 73.688C41.9261 73.688 41.5208 73.7787 41.1688 73.96C40.8275 74.1307 40.5501 74.36 40.3368 74.648C40.1341 74.936 39.9848 75.272 39.8888 75.656C39.7928 76.0293 39.7448 76.4133 39.7448 76.808C39.7448 77.224 39.7928 77.6187 39.8888 77.992C39.9955 78.3653 40.1501 78.696 40.3528 78.984C40.5661 79.2613 40.8381 79.4853 41.1688 79.656C41.4995 79.816 41.8941 79.896 42.3528 79.896C42.5768 79.896 42.7955 79.8747 43.0088 79.832C43.2328 79.7893 43.4355 79.72 43.6168 79.624C43.8088 79.5173 43.9741 79.3787 44.1128 79.208C44.2515 79.0373 44.3528 78.8293 44.4168 78.584H45.8248C45.7395 79.0213 45.5848 79.4 45.3608 79.72C45.1475 80.0293 44.8808 80.2907 44.5608 80.504C44.2408 80.7067 43.8888 80.856 43.5048 80.952C43.1208 81.048 42.7208 81.096 42.3048 81.096ZM53.7726 72.568V73.768H50.8766V81H49.5166V73.768H46.6206V72.568H53.7726ZM60.5381 79.928C60.3567 80.1733 60.1487 80.3707 59.9141 80.52C59.6794 80.6693 59.4341 80.7867 59.1781 80.872C58.9327 80.9573 58.6821 81.016 58.4261 81.048C58.1807 81.08 57.9354 81.096 57.6901 81.096C57.2954 81.096 56.9221 81.048 56.5701 80.952C56.2181 80.856 55.8981 80.7013 55.6101 80.488C55.3327 80.2747 55.1087 80.008 54.9381 79.688C54.7781 79.368 54.6981 79.0053 54.6981 78.6C54.6981 78.12 54.7834 77.72 54.9541 77.4C55.1354 77.0693 55.3754 76.8027 55.6741 76.6C55.9727 76.3973 56.3141 76.2587 56.6981 76.184C57.0927 76.0987 57.5087 76.056 57.9461 76.056H60.4261C60.4261 75.3413 60.2714 74.776 59.9621 74.36C59.6527 73.9333 59.1301 73.7093 58.3941 73.688C57.9461 73.688 57.5514 73.7627 57.2101 73.912C56.8687 74.0613 56.6341 74.3067 56.5061 74.648H55.0501C55.1247 74.264 55.2741 73.9387 55.4981 73.672C55.7221 73.3947 55.9887 73.1707 56.2981 73C56.6074 72.8187 56.9434 72.6853 57.3061 72.6C57.6687 72.5147 58.0314 72.472 58.3941 72.472C59.0234 72.472 59.5514 72.5787 59.9781 72.792C60.4154 72.9947 60.7674 73.2667 61.0341 73.608C61.3007 73.9387 61.4874 74.344 61.5941 74.824C61.7007 75.304 61.7541 75.8427 61.7541 76.44V81H60.6181L60.5381 79.928ZM58.9381 77.192C58.6821 77.192 58.3834 77.1973 58.0421 77.208C57.7114 77.208 57.3914 77.24 57.0821 77.304C56.7727 77.368 56.5221 77.5013 56.3301 77.704C56.1487 77.9067 56.0581 78.1733 56.0581 78.504C56.0581 78.7493 56.1061 78.9573 56.2021 79.128C56.2981 79.2987 56.4261 79.4427 56.5861 79.56C56.7567 79.6773 56.9487 79.7627 57.1621 79.816C57.3754 79.8693 57.5941 79.896 57.8181 79.896C58.6181 79.896 59.2474 79.704 59.7061 79.32C60.1754 78.9253 60.4154 78.3547 60.4261 77.608V77.192H58.9381ZM68.1971 81V77.368H66.7891L64.5971 81H63.0131L65.7491 76.584L63.2531 72.568H64.7091L66.9331 76.216H68.1971V72.568H69.5571V76.216H70.8211L73.0451 72.568H74.5011L72.0051 76.584L74.7411 81H73.1571L70.9651 77.368H69.5571V81H68.1971ZM77.3609 81H76.0329V72.568H77.3929V79.032C77.4676 78.8827 77.5689 78.7227 77.6969 78.552C77.8249 78.3707 77.9263 78.232 78.0009 78.136L82.0809 72.568H83.4249V81H82.0649V74.536C81.9796 74.696 81.8836 74.8507 81.7769 75C81.6809 75.1387 81.5903 75.2613 81.5049 75.368L77.3609 81ZM86.9242 84.04H85.5642V72.568H86.8602L86.9242 73.864C87.2122 73.4053 87.6015 73.064 88.0922 72.84C88.5935 72.6053 89.1322 72.4827 89.7082 72.472C90.3589 72.472 90.9082 72.584 91.3562 72.808C91.8149 73.0213 92.1935 73.3253 92.4922 73.72C92.8015 74.104 93.0309 74.5627 93.1802 75.096C93.3295 75.6187 93.4042 76.184 93.4042 76.792C93.4042 77.4107 93.3295 77.9813 93.1802 78.504C93.0309 79.0267 92.8015 79.48 92.4922 79.864C92.1829 80.248 91.7935 80.552 91.3242 80.776C90.8549 80.9893 90.2949 81.096 89.6442 81.096C89.0042 81.096 88.4602 80.9947 88.0122 80.792C87.5642 80.5893 87.2015 80.3227 86.9242 79.992V84.04ZM89.5322 79.896C89.9909 79.896 90.3749 79.816 90.6842 79.656C91.0042 79.4853 91.2602 79.2613 91.4522 78.984C91.6549 78.696 91.7989 78.3653 91.8842 77.992C91.9802 77.6187 92.0335 77.2187 92.0442 76.792C92.0442 76.3653 91.9962 75.9653 91.9002 75.592C91.8149 75.208 91.6709 74.8773 91.4682 74.6C91.2655 74.3227 90.9989 74.104 90.6682 73.944C90.3482 73.7733 89.9589 73.688 89.5002 73.688C88.9562 73.688 88.4869 73.8373 88.0922 74.136C87.6975 74.424 87.3989 74.792 87.1962 75.24C87.0789 75.4853 86.9989 75.7413 86.9562 76.008C86.9135 76.264 86.8922 76.5307 86.8922 76.808C86.8922 77.128 86.9135 77.4267 86.9562 77.704C86.9989 77.9707 87.0789 78.2267 87.1962 78.472C87.3989 78.8773 87.6922 79.2187 88.0762 79.496C88.4709 79.7627 88.9562 79.896 89.5322 79.896ZM98.8699 72.472C99.5419 72.472 100.123 72.5787 100.614 72.792C101.105 73.0053 101.515 73.304 101.846 73.688C102.187 74.072 102.438 74.5307 102.598 75.064C102.769 75.5867 102.854 76.1627 102.854 76.792C102.854 77.4213 102.769 78.0027 102.598 78.536C102.438 79.0587 102.187 79.512 101.846 79.896C101.515 80.2693 101.099 80.5627 100.598 80.776C100.097 80.9893 99.5099 81.096 98.8379 81.096C98.1659 81.096 97.5793 80.9893 97.0779 80.776C96.5873 80.5627 96.1713 80.2693 95.8299 79.896C95.4993 79.512 95.2486 79.0587 95.0779 78.536C94.9179 78.0027 94.8379 77.4213 94.8379 76.792C94.8379 76.1627 94.9179 75.5867 95.0779 75.064C95.2486 74.5307 95.4993 74.072 95.8299 73.688C96.1713 73.304 96.5926 73.0053 97.0939 72.792C97.5953 72.5787 98.1873 72.472 98.8699 72.472ZM98.8379 79.896C99.2966 79.896 99.6913 79.816 100.022 79.656C100.363 79.496 100.641 79.2773 100.854 79C101.078 78.712 101.238 78.3813 101.334 78.008C101.441 77.6347 101.494 77.2293 101.494 76.792C101.494 76.3653 101.441 75.9653 101.334 75.592C101.238 75.208 101.078 74.8773 100.854 74.6C100.641 74.312 100.363 74.088 100.022 73.928C99.6913 73.768 99.2966 73.688 98.8379 73.688C98.3793 73.688 97.9846 73.768 97.6539 73.928C97.3233 74.088 97.0459 74.312 96.8219 74.6C96.6086 74.8773 96.4486 75.208 96.3419 75.592C96.2459 75.9653 96.1979 76.3653 96.1979 76.792C96.1979 77.2293 96.2459 77.6347 96.3419 78.008C96.4486 78.3813 96.6086 78.712 96.8219 79C97.0459 79.2773 97.3233 79.496 97.6539 79.656C97.9846 79.816 98.3793 79.896 98.8379 79.896ZM104.674 72.568H107.938C108.482 72.568 108.946 72.6053 109.33 72.68C109.724 72.7547 110.055 72.888 110.322 73.08C110.556 73.24 110.738 73.4533 110.866 73.72C111.004 73.9867 111.074 74.3013 111.074 74.664C111.074 75.5067 110.695 76.1093 109.938 76.472C110.514 76.6 110.93 76.8507 111.186 77.224C111.442 77.5973 111.57 78.024 111.57 78.504C111.559 78.952 111.484 79.32 111.346 79.608C111.207 79.8853 111.01 80.1307 110.754 80.344C110.508 80.5467 110.204 80.7067 109.842 80.824C109.479 80.9413 109.068 81 108.61 81H104.674V72.568ZM106.066 73.768V76.168H107.234C107.5 76.168 107.772 76.1627 108.05 76.152C108.327 76.1307 108.572 76.0827 108.786 76.008C109.052 75.9227 109.276 75.784 109.458 75.592C109.639 75.4 109.735 75.1707 109.746 74.904C109.746 74.5947 109.676 74.3707 109.538 74.232C109.41 74.0827 109.25 73.976 109.058 73.912C108.866 73.8373 108.658 73.7947 108.434 73.784C108.21 73.7733 108.002 73.768 107.81 73.768H106.066ZM106.066 79.816H108.29C108.535 79.816 108.77 79.8 108.994 79.768C109.228 79.736 109.431 79.6773 109.602 79.592C109.772 79.496 109.911 79.368 110.018 79.208C110.124 79.048 110.183 78.8453 110.194 78.6C110.194 78.28 110.119 78.0293 109.97 77.848C109.82 77.656 109.618 77.5173 109.362 77.432C109.148 77.368 108.908 77.3307 108.642 77.32C108.375 77.3093 108.098 77.304 107.81 77.304L106.066 77.32V79.816ZM113.424 81V72.568H114.784V76.2H116.256L118.752 72.568H120.304L117.488 76.584L120.544 81H118.944L116.416 77.384H114.784V81H113.424ZM127.116 79.928C126.935 80.1733 126.727 80.3707 126.492 80.52C126.258 80.6693 126.012 80.7867 125.756 80.872C125.511 80.9573 125.26 81.016 125.004 81.048C124.759 81.08 124.514 81.096 124.268 81.096C123.874 81.096 123.5 81.048 123.148 80.952C122.796 80.856 122.476 80.7013 122.188 80.488C121.911 80.2747 121.687 80.008 121.516 79.688C121.356 79.368 121.276 79.0053 121.276 78.6C121.276 78.12 121.362 77.72 121.532 77.4C121.714 77.0693 121.954 76.8027 122.252 76.6C122.551 76.3973 122.892 76.2587 123.276 76.184C123.671 76.0987 124.087 76.056 124.524 76.056H127.004C127.004 75.3413 126.85 74.776 126.54 74.36C126.231 73.9333 125.708 73.7093 124.972 73.688C124.524 73.688 124.13 73.7627 123.788 73.912C123.447 74.0613 123.212 74.3067 123.084 74.648H121.628C121.703 74.264 121.852 73.9387 122.076 73.672C122.3 73.3947 122.567 73.1707 122.876 73C123.186 72.8187 123.522 72.6853 123.884 72.6C124.247 72.5147 124.61 72.472 124.972 72.472C125.602 72.472 126.13 72.5787 126.556 72.792C126.994 72.9947 127.346 73.2667 127.612 73.608C127.879 73.9387 128.066 74.344 128.172 74.824C128.279 75.304 128.332 75.8427 128.332 76.44V81H127.196L127.116 79.928ZM125.516 77.192C125.26 77.192 124.962 77.1973 124.62 77.208C124.29 77.208 123.97 77.24 123.66 77.304C123.351 77.368 123.1 77.5013 122.908 77.704C122.727 77.9067 122.636 78.1733 122.636 78.504C122.636 78.7493 122.684 78.9573 122.78 79.128C122.876 79.2987 123.004 79.4427 123.164 79.56C123.335 79.6773 123.527 79.7627 123.74 79.816C123.954 79.8693 124.172 79.896 124.396 79.896C125.196 79.896 125.826 79.704 126.284 79.32C126.754 78.9253 126.994 78.3547 127.004 77.608V77.192H125.516Z" fill="white"/>
<path d="M34.4379 149.208C33.8405 149.208 33.3232 149.32 32.8859 149.544C32.4592 149.768 32.1072 150.067 31.8299 150.44C31.5525 150.813 31.3445 151.251 31.2059 151.752C31.0779 152.243 31.0139 152.76 31.0139 153.304C31.0139 153.859 31.0832 154.387 31.2219 154.888C31.3605 155.389 31.5685 155.832 31.8459 156.216C32.1339 156.589 32.4965 156.888 32.9339 157.112C33.3712 157.336 33.8885 157.448 34.4859 157.448C35.2219 157.448 35.8352 157.288 36.3259 156.968C36.8272 156.648 37.1419 156.216 37.2699 155.672H39.1259C39.0405 156.216 38.8592 156.701 38.5819 157.128C38.3152 157.555 37.9792 157.917 37.5739 158.216C37.1685 158.504 36.6992 158.728 36.1659 158.888C35.6325 159.037 35.0619 159.112 34.4539 159.112C33.5685 159.112 32.7899 158.968 32.1179 158.68C31.4565 158.392 30.9019 157.992 30.4539 157.48C30.0059 156.968 29.6699 156.36 29.4459 155.656C29.2219 154.952 29.1099 154.179 29.1099 153.336C29.1099 152.515 29.2219 151.752 29.4459 151.048C29.6805 150.333 30.0219 149.72 30.4699 149.208C30.9179 148.685 31.4725 148.28 32.1339 147.992C32.8059 147.693 33.5845 147.544 34.4699 147.544C35.7179 147.544 36.7472 147.837 37.5579 148.424C38.3685 149.011 38.8592 149.875 39.0299 151.016H37.2059C37.0672 150.461 36.7579 150.024 36.2779 149.704C35.7979 149.373 35.1845 149.208 34.4379 149.208ZM47.5368 150.568V152.152H44.6888V159H42.8808V152.152H40.0328V150.568H47.5368ZM54.0258 157.96C53.7484 158.355 53.3804 158.648 52.9218 158.84C52.4631 159.021 51.9511 159.112 51.3858 159.112C50.9378 159.112 50.5271 159.059 50.1538 158.952C49.7911 158.845 49.4711 158.685 49.1938 158.472C48.9164 158.248 48.6978 157.976 48.5378 157.656C48.3778 157.325 48.2978 156.952 48.2978 156.536C48.2978 156.077 48.3884 155.688 48.5698 155.368C48.7511 155.037 48.9964 154.771 49.3058 154.568C49.6258 154.365 49.9991 154.216 50.4258 154.12C50.8524 154.013 51.3004 153.96 51.7698 153.96H53.9298C53.9298 153.341 53.7911 152.861 53.5138 152.52C53.2364 152.179 52.7511 152.003 52.0578 151.992C51.6524 151.992 51.3004 152.061 51.0018 152.2C50.7138 152.339 50.5218 152.568 50.4258 152.888H48.5538C48.6178 152.44 48.7618 152.061 48.9858 151.752C49.2204 151.443 49.4978 151.187 49.8178 150.984C50.1484 150.781 50.5111 150.637 50.9058 150.552C51.3111 150.467 51.7164 150.424 52.1218 150.424C52.6444 150.424 53.1298 150.493 53.5778 150.632C54.0258 150.771 54.4151 151.005 54.7458 151.336C55.1191 151.72 55.3698 152.179 55.4978 152.712C55.6258 153.245 55.6898 153.827 55.6898 154.456V159H54.1058L54.0258 157.96ZM53.9298 155.256H52.1698C51.8604 155.256 51.5511 155.283 51.2418 155.336C50.9324 155.379 50.6658 155.491 50.4418 155.672C50.2284 155.843 50.1218 156.093 50.1218 156.424C50.1218 156.829 50.2658 157.139 50.5538 157.352C50.8524 157.555 51.2151 157.656 51.6418 157.656C51.9724 157.656 52.2764 157.613 52.5538 157.528C52.8418 157.443 53.0871 157.304 53.2898 157.112C53.4924 156.909 53.6471 156.659 53.7538 156.36C53.8711 156.051 53.9298 155.683 53.9298 155.256ZM62.2083 159V155.592H60.8963L58.9443 159H56.8003L59.4723 154.584L57.0243 150.568H59.0563L61.0243 154.024H62.2083V150.568H64.0163V154.024H65.2003L67.1683 150.568H69.2003L66.7523 154.584L69.4243 159H67.2803L65.3283 155.592H64.0163V159H62.2083ZM72.2505 159H70.5545V150.568H72.3785V156.36L76.6665 150.568H78.3145V159H76.4905V153.32C76.4798 153.341 75.0665 155.235 72.2505 159ZM82.1285 162.28H80.3045V150.568H82.0325L82.1285 151.768C82.4378 151.331 82.8378 151 83.3285 150.776C83.8298 150.541 84.3525 150.424 84.8965 150.424C85.4725 150.424 85.9898 150.531 86.4485 150.744C86.9072 150.947 87.2965 151.235 87.6165 151.608C87.9472 151.981 88.1925 152.435 88.3525 152.968C88.5232 153.491 88.6085 154.088 88.6085 154.76C88.6085 155.389 88.5285 155.971 88.3685 156.504C88.2085 157.037 87.9685 157.501 87.6485 157.896C87.3392 158.28 86.9498 158.579 86.4805 158.792C86.0218 159.005 85.4618 159.112 84.8005 159.112C84.2885 159.112 83.7978 159.032 83.3285 158.872C82.8698 158.701 82.4698 158.424 82.1285 158.04V162.28ZM84.5125 157.528C84.9072 157.528 85.2485 157.459 85.5365 157.32C85.8245 157.171 86.0592 156.973 86.2405 156.728C86.4325 156.483 86.5712 156.195 86.6565 155.864C86.7525 155.533 86.8005 155.176 86.8005 154.792C86.8005 154.408 86.7525 154.051 86.6565 153.72C86.5712 153.379 86.4325 153.085 86.2405 152.84C86.0592 152.595 85.8192 152.403 85.5205 152.264C85.2325 152.125 84.8858 152.056 84.4805 152.056C84.1178 152.056 83.7818 152.131 83.4725 152.28C83.1738 152.429 82.9232 152.627 82.7205 152.872C82.5178 153.117 82.3632 153.411 82.2565 153.752C82.1605 154.083 82.1125 154.424 82.1125 154.776C82.1125 155.16 82.1605 155.523 82.2565 155.864C82.3525 156.195 82.4965 156.483 82.6885 156.728C82.8912 156.963 83.1418 157.155 83.4405 157.304C83.7392 157.453 84.0965 157.528 84.5125 157.528ZM94.0028 150.424C94.6748 150.424 95.2668 150.531 95.7788 150.744C96.2908 150.957 96.7228 151.256 97.0748 151.64C97.4374 152.013 97.7094 152.467 97.8908 153C98.0721 153.533 98.1628 154.125 98.1628 154.776C98.1628 155.437 98.0721 156.035 97.8908 156.568C97.7201 157.091 97.4588 157.544 97.1068 157.928C96.7548 158.312 96.3174 158.605 95.7948 158.808C95.2828 159.011 94.6854 159.112 94.0028 159.112C93.3308 159.112 92.7388 159.011 92.2268 158.808C91.7148 158.595 91.2828 158.301 90.9308 157.928C90.5894 157.544 90.3281 157.085 90.1468 156.552C89.9761 156.019 89.8908 155.427 89.8908 154.776C89.8908 154.125 89.9761 153.533 90.1468 153C90.3281 152.467 90.5948 152.013 90.9468 151.64C91.2988 151.256 91.7308 150.957 92.2428 150.744C92.7548 150.531 93.3414 150.424 94.0028 150.424ZM94.0028 157.528C94.4188 157.528 94.7708 157.459 95.0588 157.32C95.3574 157.171 95.5974 156.973 95.7788 156.728C95.9708 156.483 96.1094 156.195 96.1948 155.864C96.2908 155.533 96.3388 155.176 96.3388 154.792C96.3388 154.408 96.2908 154.051 96.1948 153.72C96.1094 153.379 95.9708 153.085 95.7788 152.84C95.5974 152.595 95.3574 152.403 95.0588 152.264C94.7708 152.125 94.4188 152.056 94.0028 152.056C93.5974 152.056 93.2454 152.125 92.9468 152.264C92.6588 152.403 92.4188 152.595 92.2268 152.84C92.0454 153.085 91.9068 153.379 91.8108 153.72C91.7254 154.051 91.6828 154.408 91.6828 154.792C91.6828 155.176 91.7254 155.533 91.8108 155.864C91.9068 156.195 92.0454 156.483 92.2268 156.728C92.4188 156.973 92.6588 157.171 92.9468 157.32C93.2454 157.459 93.5974 157.528 94.0028 157.528ZM99.8201 150.568H103.42C103.793 150.568 104.172 150.589 104.556 150.632C104.94 150.664 105.287 150.755 105.596 150.904C105.916 151.053 106.172 151.272 106.364 151.56C106.567 151.837 106.673 152.216 106.684 152.696C106.684 153.069 106.599 153.416 106.428 153.736C106.257 154.056 105.985 154.317 105.612 154.52C106.124 154.659 106.497 154.904 106.732 155.256C106.977 155.597 107.1 156.008 107.1 156.488C107.1 156.936 107.009 157.325 106.828 157.656C106.647 157.976 106.407 158.237 106.108 158.44C105.809 158.632 105.463 158.776 105.068 158.872C104.673 158.957 104.257 159 103.82 159H99.8201V150.568ZM101.66 152.088V154.024H102.764C103.009 154.024 103.26 154.024 103.516 154.024C103.783 154.013 104.017 153.976 104.22 153.912C104.433 153.848 104.604 153.747 104.732 153.608C104.871 153.469 104.94 153.272 104.94 153.016C104.94 152.792 104.887 152.621 104.78 152.504C104.684 152.376 104.561 152.28 104.412 152.216C104.263 152.152 104.092 152.115 103.9 152.104C103.719 152.093 103.548 152.088 103.388 152.088H101.66ZM103.516 157.464C103.729 157.464 103.937 157.453 104.14 157.432C104.353 157.411 104.54 157.363 104.7 157.288C104.871 157.203 105.009 157.096 105.116 156.968C105.223 156.829 105.276 156.648 105.276 156.424C105.276 156.019 105.148 155.747 104.892 155.608C104.647 155.469 104.343 155.4 103.98 155.4H101.66V157.464H103.516ZM108.789 159V150.568H110.597V154.008H111.893L114.053 150.568H116.133L113.461 154.584L116.341 159H114.229L112.005 155.592H110.597V159H108.789ZM122.651 157.96C122.373 158.355 122.005 158.648 121.547 158.84C121.088 159.021 120.576 159.112 120.011 159.112C119.563 159.112 119.152 159.059 118.779 158.952C118.416 158.845 118.096 158.685 117.819 158.472C117.541 158.248 117.323 157.976 117.163 157.656C117.003 157.325 116.923 156.952 116.923 156.536C116.923 156.077 117.013 155.688 117.195 155.368C117.376 155.037 117.621 154.771 117.931 154.568C118.251 154.365 118.624 154.216 119.051 154.12C119.477 154.013 119.925 153.96 120.395 153.96H122.555C122.555 153.341 122.416 152.861 122.139 152.52C121.861 152.179 121.376 152.003 120.683 151.992C120.277 151.992 119.925 152.061 119.627 152.2C119.339 152.339 119.147 152.568 119.051 152.888H117.179C117.243 152.44 117.387 152.061 117.611 151.752C117.845 151.443 118.123 151.187 118.443 150.984C118.773 150.781 119.136 150.637 119.531 150.552C119.936 150.467 120.341 150.424 120.747 150.424C121.269 150.424 121.755 150.493 122.203 150.632C122.651 150.771 123.04 151.005 123.371 151.336C123.744 151.72 123.995 152.179 124.123 152.712C124.251 153.245 124.315 153.827 124.315 154.456V159H122.731L122.651 157.96ZM122.555 155.256H120.795C120.485 155.256 120.176 155.283 119.867 155.336C119.557 155.379 119.291 155.491 119.067 155.672C118.853 155.843 118.747 156.093 118.747 156.424C118.747 156.829 118.891 157.139 119.179 157.352C119.477 157.555 119.84 157.656 120.267 157.656C120.597 157.656 120.901 157.613 121.179 157.528C121.467 157.443 121.712 157.304 121.915 157.112C122.117 156.909 122.272 156.659 122.379 156.36C122.496 156.051 122.555 155.683 122.555 155.256ZM134.298 159.112C133.626 159.112 133.034 159.011 132.522 158.808C132.02 158.595 131.599 158.301 131.258 157.928C130.927 157.544 130.676 157.091 130.506 156.568C130.346 156.035 130.266 155.448 130.266 154.808C130.266 154.168 130.351 153.581 130.522 153.048C130.703 152.515 130.97 152.056 131.322 151.672C131.674 151.288 132.1 150.984 132.602 150.76C133.103 150.536 133.684 150.424 134.346 150.424C134.815 150.424 135.247 150.477 135.642 150.584C136.047 150.68 136.404 150.845 136.714 151.08C137.023 151.304 137.29 151.592 137.514 151.944C137.738 152.285 137.892 152.701 137.978 153.192H136.09C135.994 152.829 135.786 152.552 135.466 152.36C135.156 152.157 134.772 152.056 134.314 152.056C133.908 152.056 133.562 152.131 133.274 152.28C132.986 152.429 132.751 152.632 132.57 152.888C132.388 153.144 132.255 153.443 132.17 153.784C132.095 154.115 132.058 154.461 132.058 154.824C132.058 155.197 132.1 155.549 132.186 155.88C132.271 156.211 132.404 156.499 132.586 156.744C132.778 156.979 133.018 157.171 133.306 157.32C133.594 157.459 133.94 157.528 134.346 157.528C134.826 157.528 135.22 157.421 135.53 157.208C135.85 156.995 136.052 156.712 136.138 156.36H138.01C137.924 156.84 137.764 157.256 137.53 157.608C137.306 157.96 137.028 158.248 136.698 158.472C136.367 158.696 135.999 158.861 135.594 158.968C135.188 159.064 134.756 159.112 134.298 159.112ZM33.6717 180V171.568H35.4957V175.04H39.2397V171.568H41.0637V180H39.2397V176.624H35.4957V180H33.6717ZM48.4867 178.96C48.2094 179.355 47.8414 179.648 47.3827 179.84C46.924 180.021 46.412 180.112 45.8467 180.112C45.3987 180.112 44.988 180.059 44.6147 179.952C44.252 179.845 43.932 179.685 43.6547 179.472C43.3774 179.248 43.1587 178.976 42.9987 178.656C42.8387 178.325 42.7587 177.952 42.7587 177.536C42.7587 177.077 42.8494 176.688 43.0307 176.368C43.212 176.037 43.4574 175.771 43.7667 175.568C44.0867 175.365 44.46 175.216 44.8867 175.12C45.3134 175.013 45.7614 174.96 46.2307 174.96H48.3907C48.3907 174.341 48.252 173.861 47.9747 173.52C47.6974 173.179 47.212 173.003 46.5187 172.992C46.1134 172.992 45.7614 173.061 45.4627 173.2C45.1747 173.339 44.9827 173.568 44.8867 173.888H43.0147C43.0787 173.44 43.2227 173.061 43.4467 172.752C43.6814 172.443 43.9587 172.187 44.2787 171.984C44.6094 171.781 44.972 171.637 45.3667 171.552C45.772 171.467 46.1774 171.424 46.5827 171.424C47.1054 171.424 47.5907 171.493 48.0387 171.632C48.4867 171.771 48.876 172.005 49.2067 172.336C49.58 172.72 49.8307 173.179 49.9587 173.712C50.0867 174.245 50.1507 174.827 50.1507 175.456V180H48.5667L48.4867 178.96ZM48.3907 176.256H46.6307C46.3214 176.256 46.012 176.283 45.7027 176.336C45.3934 176.379 45.1267 176.491 44.9027 176.672C44.6894 176.843 44.5827 177.093 44.5827 177.424C44.5827 177.829 44.7267 178.139 45.0147 178.352C45.3134 178.555 45.676 178.656 46.1027 178.656C46.4334 178.656 46.7374 178.613 47.0147 178.528C47.3027 178.443 47.548 178.304 47.7507 178.112C47.9534 177.909 48.108 177.659 48.2147 177.36C48.332 177.051 48.3907 176.683 48.3907 176.256ZM55.8212 180.112C55.1492 180.112 54.5572 180.011 54.0452 179.808C53.5439 179.595 53.1225 179.301 52.7812 178.928C52.4505 178.544 52.1999 178.091 52.0292 177.568C51.8692 177.035 51.7892 176.448 51.7892 175.808C51.7892 175.168 51.8745 174.581 52.0452 174.048C52.2265 173.515 52.4932 173.056 52.8452 172.672C53.1972 172.288 53.6239 171.984 54.1252 171.76C54.6265 171.536 55.2079 171.424 55.8692 171.424C56.3385 171.424 56.7705 171.477 57.1652 171.584C57.5705 171.68 57.9279 171.845 58.2372 172.08C58.5465 172.304 58.8132 172.592 59.0372 172.944C59.2612 173.285 59.4159 173.701 59.5012 174.192H57.6132C57.5172 173.829 57.3092 173.552 56.9892 173.36C56.6799 173.157 56.2959 173.056 55.8372 173.056C55.4319 173.056 55.0852 173.131 54.7972 173.28C54.5092 173.429 54.2745 173.632 54.0932 173.888C53.9119 174.144 53.7785 174.443 53.6932 174.784C53.6185 175.115 53.5812 175.461 53.5812 175.824C53.5812 176.197 53.6239 176.549 53.7092 176.88C53.7945 177.211 53.9279 177.499 54.1092 177.744C54.3012 177.979 54.5412 178.171 54.8292 178.32C55.1172 178.459 55.4639 178.528 55.8692 178.528C56.3492 178.528 56.7439 178.421 57.0532 178.208C57.3732 177.995 57.5759 177.712 57.6612 177.36H59.5332C59.4479 177.84 59.2879 178.256 59.0532 178.608C58.8292 178.96 58.5519 179.248 58.2212 179.472C57.8905 179.696 57.5225 179.861 57.1172 179.968C56.7119 180.064 56.2799 180.112 55.8212 180.112ZM67.6696 171.568V173.152H64.8216V180H63.0136V173.152H60.1656V171.568H67.6696ZM74.1586 178.96C73.8812 179.355 73.5132 179.648 73.0546 179.84C72.5959 180.021 72.0839 180.112 71.5186 180.112C71.0706 180.112 70.6599 180.059 70.2866 179.952C69.9239 179.845 69.6039 179.685 69.3266 179.472C69.0492 179.248 68.8306 178.976 68.6706 178.656C68.5106 178.325 68.4306 177.952 68.4306 177.536C68.4306 177.077 68.5212 176.688 68.7026 176.368C68.8839 176.037 69.1292 175.771 69.4386 175.568C69.7586 175.365 70.1319 175.216 70.5586 175.12C70.9852 175.013 71.4332 174.96 71.9026 174.96H74.0626C74.0626 174.341 73.9239 173.861 73.6466 173.52C73.3692 173.179 72.8839 173.003 72.1906 172.992C71.7852 172.992 71.4332 173.061 71.1346 173.2C70.8466 173.339 70.6546 173.568 70.5586 173.888H68.6866C68.7506 173.44 68.8946 173.061 69.1186 172.752C69.3532 172.443 69.6306 172.187 69.9506 171.984C70.2812 171.781 70.6439 171.637 71.0386 171.552C71.4439 171.467 71.8492 171.424 72.2546 171.424C72.7772 171.424 73.2626 171.493 73.7106 171.632C74.1586 171.771 74.5479 172.005 74.8786 172.336C75.2519 172.72 75.5026 173.179 75.6306 173.712C75.7586 174.245 75.8226 174.827 75.8226 175.456V180H74.2386L74.1586 178.96ZM74.0626 176.256H72.3026C71.9932 176.256 71.6839 176.283 71.3746 176.336C71.0652 176.379 70.7986 176.491 70.5746 176.672C70.3612 176.843 70.2546 177.093 70.2546 177.424C70.2546 177.829 70.3986 178.139 70.6866 178.352C70.9852 178.555 71.3479 178.656 71.7746 178.656C72.1052 178.656 72.4092 178.613 72.6866 178.528C72.9746 178.443 73.2199 178.304 73.4226 178.112C73.6252 177.909 73.7799 177.659 73.8866 177.36C74.0039 177.051 74.0626 176.683 74.0626 176.256ZM77.7811 171.568H81.3811C81.7544 171.568 82.1331 171.589 82.5171 171.632C82.9011 171.664 83.2477 171.755 83.5571 171.904C83.8771 172.053 84.1331 172.272 84.3251 172.56C84.5277 172.837 84.6344 173.216 84.6451 173.696C84.6451 174.069 84.5597 174.416 84.3891 174.736C84.2184 175.056 83.9464 175.317 83.5731 175.52C84.0851 175.659 84.4584 175.904 84.6931 176.256C84.9384 176.597 85.0611 177.008 85.0611 177.488C85.0611 177.936 84.9704 178.325 84.7891 178.656C84.6077 178.976 84.3677 179.237 84.0691 179.44C83.7704 179.632 83.4237 179.776 83.0291 179.872C82.6344 179.957 82.2184 180 81.7811 180H77.7811V171.568ZM79.6211 173.088V175.024H80.7251C80.9704 175.024 81.2211 175.024 81.4771 175.024C81.7437 175.013 81.9784 174.976 82.1811 174.912C82.3944 174.848 82.5651 174.747 82.6931 174.608C82.8317 174.469 82.9011 174.272 82.9011 174.016C82.9011 173.792 82.8477 173.621 82.7411 173.504C82.6451 173.376 82.5224 173.28 82.3731 173.216C82.2237 173.152 82.0531 173.115 81.8611 173.104C81.6797 173.093 81.5091 173.088 81.3491 173.088H79.6211ZM81.4771 178.464C81.6904 178.464 81.8984 178.453 82.1011 178.432C82.3144 178.411 82.5011 178.363 82.6611 178.288C82.8317 178.203 82.9704 178.096 83.0771 177.968C83.1837 177.829 83.2371 177.648 83.2371 177.424C83.2371 177.019 83.1091 176.747 82.8531 176.608C82.6077 176.469 82.3037 176.4 81.9411 176.4H79.6211V178.464H81.4771ZM86.7498 180V171.568H88.5738V175.04H92.3178V171.568H94.1418V180H92.3178V176.624H88.5738V180H86.7498ZM97.8208 180H96.1248V171.568H97.9488V177.36L102.237 171.568H103.885V180H102.061V174.32C102.05 174.341 100.637 176.235 97.8208 180ZM105.875 180V171.568H107.683V175.008H108.979L111.139 171.568H113.219L110.547 175.584L113.427 180H111.315L109.091 176.592H107.683V180H105.875ZM118.089 171.424C118.761 171.424 119.353 171.531 119.865 171.744C120.377 171.957 120.809 172.256 121.161 172.64C121.523 173.013 121.795 173.467 121.977 174C122.158 174.533 122.249 175.125 122.249 175.776C122.249 176.437 122.158 177.035 121.977 177.568C121.806 178.091 121.545 178.544 121.193 178.928C120.841 179.312 120.403 179.605 119.881 179.808C119.369 180.011 118.771 180.112 118.089 180.112C117.417 180.112 116.825 180.011 116.313 179.808C115.801 179.595 115.369 179.301 115.017 178.928C114.675 178.544 114.414 178.085 114.233 177.552C114.062 177.019 113.977 176.427 113.977 175.776C113.977 175.125 114.062 174.533 114.233 174C114.414 173.467 114.681 173.013 115.033 172.64C115.385 172.256 115.817 171.957 116.329 171.744C116.841 171.531 117.427 171.424 118.089 171.424ZM118.089 178.528C118.505 178.528 118.857 178.459 119.145 178.32C119.443 178.171 119.683 177.973 119.865 177.728C120.057 177.483 120.195 177.195 120.281 176.864C120.377 176.533 120.425 176.176 120.425 175.792C120.425 175.408 120.377 175.051 120.281 174.72C120.195 174.379 120.057 174.085 119.865 173.84C119.683 173.595 119.443 173.403 119.145 173.264C118.857 173.125 118.505 173.056 118.089 173.056C117.683 173.056 117.331 173.125 117.033 173.264C116.745 173.403 116.505 173.595 116.313 173.84C116.131 174.085 115.993 174.379 115.897 174.72C115.811 175.051 115.769 175.408 115.769 175.792C115.769 176.176 115.811 176.533 115.897 176.864C115.993 177.195 116.131 177.483 116.313 177.728C116.505 177.973 116.745 178.171 117.033 178.32C117.331 178.459 117.683 178.528 118.089 178.528ZM123.906 171.568H126.098L128.642 175.584L131.17 171.568H133.314V180H131.522V173.952L128.85 178.112H128.418L125.698 173.952V180H123.906V171.568Z" fill="#0C54A0"/>
</svg>
