<svg width="168" height="247" viewBox="0 0 168 247" fill="none" xmlns="http://www.w3.org/2000/svg">
<path d="M167.116 12H0.115967V0H167.116V12Z" fill="#E6E6E6"/>
<path d="M0.115927 12H31.323V0H0.115927V12Z" fill="#C7C6C6"/>
<rect y="22" width="167" height="225" fill="white"/>
<path d="M54.352 125.872C54.864 125.456 55.3707 125.04 55.872 124.624C56.384 124.197 56.896 123.76 57.408 123.312C58.1333 122.672 58.6133 122.229 58.848 121.984C59.0933 121.739 59.296 121.472 59.456 121.184C59.6267 120.885 59.712 120.571 59.712 120.24C59.712 119.877 59.5947 119.573 59.36 119.328C59.136 119.072 58.784 118.944 58.304 118.944C57.76 118.944 57.3653 119.061 57.12 119.296C56.8853 119.531 56.7413 119.813 56.688 120.144H54.272C54.2933 119.547 54.416 119.024 54.64 118.576C54.864 118.117 55.1627 117.739 55.536 117.44C55.9093 117.141 56.3413 116.917 56.832 116.768C57.3333 116.619 57.8667 116.544 58.432 116.544C58.9547 116.544 59.4507 116.619 59.92 116.768C60.4 116.917 60.816 117.141 61.168 117.44C61.52 117.728 61.7973 118.091 62 118.528C62.2133 118.965 62.32 119.477 62.32 120.064C62.32 120.693 62.1813 121.28 61.904 121.824C61.6373 122.368 61.296 122.859 60.88 123.296C60.464 123.733 60.0107 124.149 59.52 124.544C59.0293 124.928 58.56 125.296 58.112 125.648H62.192V128H54.352V125.872ZM63.4926 125.872C64.0046 125.456 64.5113 125.04 65.0126 124.624C65.5246 124.197 66.0366 123.76 66.5486 123.312C67.274 122.672 67.754 122.229 67.9886 121.984C68.234 121.739 68.4366 121.472 68.5966 121.184C68.7673 120.885 68.8526 120.571 68.8526 120.24C68.8526 119.877 68.7353 119.573 68.5006 119.328C68.2766 119.072 67.9246 118.944 67.4446 118.944C66.9006 118.944 66.506 119.061 66.2606 119.296C66.026 119.531 65.882 119.813 65.8286 120.144H63.4126C63.434 119.547 63.5566 119.024 63.7806 118.576C64.0046 118.117 64.3033 117.739 64.6766 117.44C65.05 117.141 65.482 116.917 65.9726 116.768C66.474 116.619 67.0073 116.544 67.5726 116.544C68.0953 116.544 68.5913 116.619 69.0606 116.768C69.5406 116.917 69.9566 117.141 70.3086 117.44C70.6606 117.728 70.938 118.091 71.1406 118.528C71.354 118.965 71.4606 119.477 71.4606 120.064C71.4606 120.693 71.322 121.28 71.0446 121.824C70.778 122.368 70.4366 122.859 70.0206 123.296C69.6046 123.733 69.1513 124.149 68.6606 124.544C68.17 124.928 67.7006 125.296 67.2526 125.648H71.3326V128H63.4926V125.872ZM83.6673 119.568V121.808H79.9233V128H77.4113V119.568H83.6673ZM88.5355 128.128C87.8955 128.128 87.3088 128.032 86.7755 127.84C86.2528 127.648 85.8048 127.365 85.4315 126.992C85.0582 126.619 84.7648 126.16 84.5515 125.616C84.3382 125.072 84.2315 124.448 84.2315 123.744C84.2315 123.072 84.3435 122.469 84.5675 121.936C84.7915 121.392 85.0955 120.933 85.4795 120.56C85.8635 120.176 86.3222 119.888 86.8555 119.696C87.3888 119.493 87.9755 119.392 88.6155 119.392C89.2555 119.392 89.8368 119.493 90.3595 119.696C90.8822 119.888 91.3248 120.176 91.6875 120.56C92.0608 120.933 92.3488 121.392 92.5515 121.936C92.7648 122.469 92.8715 123.072 92.8715 123.744C92.8715 124.448 92.7648 125.072 92.5515 125.616C92.3382 126.16 92.0448 126.619 91.6715 126.992C91.2982 127.365 90.8448 127.648 90.3115 127.84C89.7782 128.032 89.1862 128.128 88.5355 128.128ZM88.5515 121.728C88.2315 121.728 87.9542 121.787 87.7195 121.904C87.4955 122.011 87.3088 122.165 87.1595 122.368C87.0102 122.56 86.8982 122.779 86.8235 123.024C86.7595 123.259 86.7275 123.504 86.7275 123.76C86.7275 124.048 86.7595 124.315 86.8235 124.56C86.8982 124.805 87.0102 125.024 87.1595 125.216C87.3088 125.397 87.4955 125.547 87.7195 125.664C87.9542 125.771 88.2315 125.824 88.5515 125.824C88.8715 125.824 89.1435 125.765 89.3675 125.648C89.6022 125.531 89.7888 125.381 89.9275 125.2C90.0768 125.019 90.1835 124.805 90.2475 124.56C90.3115 124.315 90.3435 124.048 90.3435 123.76C90.3435 123.504 90.3115 123.259 90.2475 123.024C90.1835 122.779 90.0768 122.56 89.9275 122.368C89.7888 122.165 89.6022 122.011 89.3675 121.904C89.1435 121.787 88.8715 121.728 88.5515 121.728ZM102.242 119.568V125.76H103.314V130.272H100.818V128H95.8584V130.272H93.3784V125.792C93.6344 125.792 93.853 125.712 94.0344 125.552C94.2157 125.392 94.365 125.2 94.4824 124.976C94.6104 124.741 94.7064 124.491 94.7704 124.224C94.8344 123.947 94.8824 123.691 94.9144 123.456C94.9997 122.805 95.053 122.155 95.0744 121.504C95.0957 120.853 95.1064 120.208 95.1064 119.568H102.242ZM99.7144 125.76V121.808H97.3464C97.325 122.117 97.309 122.443 97.2984 122.784C97.2984 123.125 97.2824 123.472 97.2504 123.824C97.2184 124.165 97.165 124.501 97.0904 124.832C97.0264 125.152 96.925 125.461 96.7864 125.76H99.7144ZM109.549 128L109.533 126.912C109.341 127.179 109.112 127.403 108.845 127.584C108.589 127.755 108.301 127.888 107.981 127.984C107.672 128.08 107.288 128.128 106.829 128.128C106.456 128.128 106.104 128.08 105.773 127.984C105.453 127.877 105.16 127.712 104.893 127.488C104.626 127.253 104.413 126.971 104.253 126.64C104.104 126.309 104.029 125.92 104.029 125.472C104.029 124.992 104.141 124.571 104.365 124.208C104.589 123.835 104.882 123.552 105.245 123.36C105.608 123.168 106.018 123.04 106.477 122.976C106.946 122.901 107.437 122.864 107.949 122.864H109.453C109.453 122.469 109.336 122.149 109.101 121.904C108.877 121.659 108.541 121.536 108.093 121.536C107.784 121.525 107.496 121.579 107.229 121.696C106.962 121.813 106.802 122 106.749 122.256H104.189C104.253 121.744 104.402 121.307 104.637 120.944C104.872 120.571 105.165 120.272 105.517 120.048C105.88 119.813 106.274 119.648 106.701 119.552C107.138 119.445 107.592 119.392 108.061 119.392C108.818 119.392 109.442 119.499 109.933 119.712C110.424 119.925 110.813 120.219 111.101 120.592C111.4 120.955 111.602 121.387 111.709 121.888C111.826 122.389 111.885 122.912 111.885 123.456V128H109.549ZM109.469 124.432H107.997C107.538 124.432 107.181 124.507 106.925 124.656C106.68 124.805 106.557 125.024 106.557 125.312C106.557 125.589 106.653 125.803 106.845 125.952C107.048 126.101 107.314 126.176 107.645 126.176C107.88 126.176 108.104 126.144 108.317 126.08C108.541 126.005 108.738 125.893 108.909 125.744C109.09 125.595 109.229 125.413 109.325 125.2C109.421 124.976 109.469 124.72 109.469 124.432Z" fill="#0260A2"/>
<rect x="10" y="42" width="147" height="46" rx="3" fill="#0260A2"/>
<path d="M31.0335 70.628C30.1482 70.628 29.3748 70.484 28.7135 70.196C28.0522 69.8973 27.4975 69.492 27.0495 68.98C26.6015 68.468 26.2655 67.86 26.0415 67.156C25.8175 66.452 25.7055 65.684 25.7055 64.852C25.7055 64.02 25.8175 63.252 26.0415 62.548C26.2655 61.8333 26.6015 61.22 27.0495 60.708C27.4975 60.196 28.0522 59.796 28.7135 59.508C29.3748 59.2093 30.1482 59.06 31.0335 59.06C31.9082 59.06 32.6762 59.2093 33.3375 59.508C33.9988 59.796 34.5535 60.196 35.0015 60.708C35.4495 61.22 35.7855 61.8333 36.0095 62.548C36.2335 63.252 36.3455 64.02 36.3455 64.852C36.3455 65.684 36.2335 66.452 36.0095 67.156C35.7855 67.86 35.4495 68.468 35.0015 68.98C34.5535 69.492 33.9988 69.8973 33.3375 70.196C32.6762 70.484 31.9082 70.628 31.0335 70.628ZM31.0335 60.324C30.3615 60.324 29.7802 60.4467 29.2895 60.692C28.7988 60.9267 28.3935 61.252 28.0735 61.668C27.7535 62.084 27.5135 62.5693 27.3535 63.124C27.1935 63.668 27.1135 64.244 27.1135 64.852C27.1135 65.46 27.1882 66.036 27.3375 66.58C27.4975 67.124 27.7375 67.604 28.0575 68.02C28.3775 68.436 28.7828 68.7667 29.2735 69.012C29.7748 69.2467 30.3615 69.364 31.0335 69.364C31.7055 69.364 32.2868 69.2467 32.7775 69.012C33.2682 68.7667 33.6682 68.4413 33.9775 68.036C34.2975 67.62 34.5322 67.14 34.6815 66.596C34.8415 66.052 34.9215 65.4707 34.9215 64.852C34.9215 64.2333 34.8415 63.652 34.6815 63.108C34.5322 62.5533 34.2975 62.0733 33.9775 61.668C33.6575 61.252 33.2522 60.9267 32.7615 60.692C32.2708 60.4467 31.6948 60.324 31.0335 60.324ZM44.5616 62.068V63.268H41.6656V70.5H40.3056V63.268H37.4096V62.068H44.5616ZM57.2236 59.188V66.98H58.5516V68.244H57.2236V70.5H55.8316V68.244H49.6876V67.204L55.2236 59.188H57.2236ZM51.3676 66.98H55.8316V60.452L51.3676 66.98ZM68.8846 64.852C68.8846 65.5773 68.81 66.2867 68.6606 66.98C68.522 67.6733 68.282 68.292 67.9406 68.836C67.5993 69.3693 67.146 69.8013 66.5806 70.132C66.0153 70.4627 65.3113 70.628 64.4686 70.628C63.6153 70.628 62.906 70.4627 62.3406 70.132C61.7753 69.8013 61.322 69.3693 60.9806 68.836C60.6393 68.292 60.3993 67.684 60.2606 67.012C60.122 66.34 60.0526 65.62 60.0526 64.852C60.0526 64.084 60.122 63.364 60.2606 62.692C60.3993 62.0093 60.6393 61.4013 60.9806 60.868C61.322 60.3347 61.7753 59.9027 62.3406 59.572C62.906 59.2307 63.6153 59.06 64.4686 59.06C65.3113 59.06 66.0153 59.2253 66.5806 59.556C67.146 59.8867 67.5993 60.324 67.9406 60.868C68.282 61.412 68.522 62.0307 68.6606 62.724C68.81 63.4173 68.8846 64.1267 68.8846 64.852ZM61.4766 64.852C61.4766 65.364 61.514 65.8867 61.5886 66.42C61.6633 66.9533 61.8073 67.4387 62.0206 67.876C62.234 68.3133 62.5326 68.6707 62.9166 68.948C63.3113 69.2253 63.8286 69.364 64.4686 69.364C65.098 69.364 65.6046 69.2253 65.9886 68.948C66.3833 68.6707 66.6873 68.3133 66.9006 67.876C67.114 67.4387 67.258 66.9533 67.3326 66.42C67.4073 65.8867 67.4446 65.364 67.4446 64.852C67.4446 64.3507 67.4073 63.8333 67.3326 63.3C67.258 62.7667 67.114 62.2813 66.9006 61.844C66.6873 61.396 66.3833 61.0333 65.9886 60.756C65.6046 60.468 65.098 60.324 64.4686 60.324C63.8286 60.324 63.3113 60.468 62.9166 60.756C62.5326 61.0333 62.234 61.396 62.0206 61.844C61.8073 62.2813 61.6633 62.7667 61.5886 63.3C61.514 63.8333 61.4766 64.3507 61.4766 64.852ZM83.8378 64.852C83.8378 65.5773 83.7631 66.2867 83.6138 66.98C83.4751 67.6733 83.2351 68.292 82.8938 68.836C82.5524 69.3693 82.0991 69.8013 81.5338 70.132C80.9684 70.4627 80.2644 70.628 79.4218 70.628C78.5684 70.628 77.8591 70.4627 77.2938 70.132C76.7284 69.8013 76.2751 69.3693 75.9338 68.836C75.5924 68.292 75.3524 67.684 75.2138 67.012C75.0751 66.34 75.0058 65.62 75.0058 64.852C75.0058 64.084 75.0751 63.364 75.2138 62.692C75.3524 62.0093 75.5924 61.4013 75.9338 60.868C76.2751 60.3347 76.7284 59.9027 77.2938 59.572C77.8591 59.2307 78.5684 59.06 79.4218 59.06C80.2644 59.06 80.9684 59.2253 81.5338 59.556C82.0991 59.8867 82.5524 60.324 82.8938 60.868C83.2351 61.412 83.4751 62.0307 83.6138 62.724C83.7631 63.4173 83.8378 64.1267 83.8378 64.852ZM76.4298 64.852C76.4298 65.364 76.4671 65.8867 76.5418 66.42C76.6164 66.9533 76.7604 67.4387 76.9738 67.876C77.1871 68.3133 77.4858 68.6707 77.8698 68.948C78.2644 69.2253 78.7818 69.364 79.4218 69.364C80.0511 69.364 80.5578 69.2253 80.9418 68.948C81.3364 68.6707 81.6404 68.3133 81.8538 67.876C82.0671 67.4387 82.2111 66.9533 82.2858 66.42C82.3604 65.8867 82.3978 65.364 82.3978 64.852C82.3978 64.3507 82.3604 63.8333 82.2858 63.3C82.2111 62.7667 82.0671 62.2813 81.8538 61.844C81.6404 61.396 81.3364 61.0333 80.9418 60.756C80.5578 60.468 80.0511 60.324 79.4218 60.324C78.7818 60.324 78.2644 60.468 77.8698 60.756C77.4858 61.0333 77.1871 61.396 76.9738 61.844C76.7604 62.2813 76.6164 62.7667 76.5418 63.3C76.4671 63.8333 76.4298 64.3507 76.4298 64.852ZM94.4784 64.852C94.4784 65.5773 94.4037 66.2867 94.2544 66.98C94.1157 67.6733 93.8757 68.292 93.5344 68.836C93.193 69.3693 92.7397 69.8013 92.1744 70.132C91.609 70.4627 90.905 70.628 90.0624 70.628C89.209 70.628 88.4997 70.4627 87.9344 70.132C87.369 69.8013 86.9157 69.3693 86.5744 68.836C86.233 68.292 85.993 67.684 85.8544 67.012C85.7157 66.34 85.6464 65.62 85.6464 64.852C85.6464 64.084 85.7157 63.364 85.8544 62.692C85.993 62.0093 86.233 61.4013 86.5744 60.868C86.9157 60.3347 87.369 59.9027 87.9344 59.572C88.4997 59.2307 89.209 59.06 90.0624 59.06C90.905 59.06 91.609 59.2253 92.1744 59.556C92.7397 59.8867 93.193 60.324 93.5344 60.868C93.8757 61.412 94.1157 62.0307 94.2544 62.724C94.4037 63.4173 94.4784 64.1267 94.4784 64.852ZM87.0704 64.852C87.0704 65.364 87.1077 65.8867 87.1824 66.42C87.257 66.9533 87.401 67.4387 87.6144 67.876C87.8277 68.3133 88.1264 68.6707 88.5104 68.948C88.905 69.2253 89.4224 69.364 90.0624 69.364C90.6917 69.364 91.1984 69.2253 91.5824 68.948C91.977 68.6707 92.281 68.3133 92.4944 67.876C92.7077 67.4387 92.8517 66.9533 92.9264 66.42C93.001 65.8867 93.0384 65.364 93.0384 64.852C93.0384 64.3507 93.001 63.8333 92.9264 63.3C92.8517 62.7667 92.7077 62.2813 92.4944 61.844C92.281 61.396 91.977 61.0333 91.5824 60.756C91.1984 60.468 90.6917 60.324 90.0624 60.324C89.4224 60.324 88.905 60.468 88.5104 60.756C88.1264 61.0333 87.8277 61.396 87.6144 61.844C87.401 62.2813 87.257 62.7667 87.1824 63.3C87.1077 63.8333 87.0704 64.3507 87.0704 64.852ZM105.119 64.852C105.119 65.5773 105.044 66.2867 104.895 66.98C104.756 67.6733 104.516 68.292 104.175 68.836C103.834 69.3693 103.38 69.8013 102.815 70.132C102.25 70.4627 101.546 70.628 100.703 70.628C99.8497 70.628 99.1403 70.4627 98.575 70.132C98.0097 69.8013 97.5563 69.3693 97.215 68.836C96.8737 68.292 96.6337 67.684 96.495 67.012C96.3563 66.34 96.287 65.62 96.287 64.852C96.287 64.084 96.3563 63.364 96.495 62.692C96.6337 62.0093 96.8737 61.4013 97.215 60.868C97.5563 60.3347 98.0097 59.9027 98.575 59.572C99.1403 59.2307 99.8497 59.06 100.703 59.06C101.546 59.06 102.25 59.2253 102.815 59.556C103.38 59.8867 103.834 60.324 104.175 60.868C104.516 61.412 104.756 62.0307 104.895 62.724C105.044 63.4173 105.119 64.1267 105.119 64.852ZM97.711 64.852C97.711 65.364 97.7483 65.8867 97.823 66.42C97.8977 66.9533 98.0417 67.4387 98.255 67.876C98.4683 68.3133 98.767 68.6707 99.151 68.948C99.5457 69.2253 100.063 69.364 100.703 69.364C101.332 69.364 101.839 69.2253 102.223 68.948C102.618 68.6707 102.922 68.3133 103.135 67.876C103.348 67.4387 103.492 66.9533 103.567 66.42C103.642 65.8867 103.679 65.364 103.679 64.852C103.679 64.3507 103.642 63.8333 103.567 63.3C103.492 62.7667 103.348 62.2813 103.135 61.844C102.922 61.396 102.618 61.0333 102.223 60.756C101.839 60.468 101.332 60.324 100.703 60.324C100.063 60.324 99.5457 60.468 99.151 60.756C98.767 61.0333 98.4683 61.396 98.255 61.844C98.0417 62.2813 97.8977 62.7667 97.823 63.3C97.7483 63.8333 97.711 64.3507 97.711 64.852ZM112.76 73.54H111.4V62.068H112.696L112.76 63.364C113.048 62.9053 113.437 62.564 113.928 62.34C114.429 62.1053 114.968 61.9827 115.544 61.972C116.195 61.972 116.744 62.084 117.192 62.308C117.651 62.5213 118.029 62.8253 118.328 63.22C118.637 63.604 118.867 64.0627 119.016 64.596C119.165 65.1187 119.24 65.684 119.24 66.292C119.24 66.9107 119.165 67.4813 119.016 68.004C118.867 68.5267 118.637 68.98 118.328 69.364C118.019 69.748 117.629 70.052 117.16 70.276C116.691 70.4893 116.131 70.596 115.48 70.596C114.84 70.596 114.296 70.4947 113.848 70.292C113.4 70.0893 113.037 69.8227 112.76 69.492V73.54ZM115.368 69.396C115.827 69.396 116.211 69.316 116.52 69.156C116.84 68.9853 117.096 68.7613 117.288 68.484C117.491 68.196 117.635 67.8653 117.72 67.492C117.816 67.1187 117.869 66.7187 117.88 66.292C117.88 65.8653 117.832 65.4653 117.736 65.092C117.651 64.708 117.507 64.3773 117.304 64.1C117.101 63.8227 116.835 63.604 116.504 63.444C116.184 63.2733 115.795 63.188 115.336 63.188C114.792 63.188 114.323 63.3373 113.928 63.636C113.533 63.924 113.235 64.292 113.032 64.74C112.915 64.9853 112.835 65.2413 112.792 65.508C112.749 65.764 112.728 66.0307 112.728 66.308C112.728 66.628 112.749 66.9267 112.792 67.204C112.835 67.4707 112.915 67.7267 113.032 67.972C113.235 68.3773 113.528 68.7187 113.912 68.996C114.307 69.2627 114.792 69.396 115.368 69.396ZM127.058 62.068H128.594L126.21 68.708C126.082 69.0493 125.943 69.4387 125.794 69.876C125.655 70.3027 125.495 70.7293 125.314 71.156C125.143 71.5933 124.946 72.004 124.722 72.388C124.509 72.772 124.269 73.0813 124.002 73.316C123.607 73.668 123.229 73.8867 122.866 73.972C122.503 74.068 122.093 74.116 121.634 74.116H121.346V72.82C121.73 72.82 122.055 72.7773 122.322 72.692C122.589 72.6173 122.818 72.4947 123.01 72.324C123.213 72.1533 123.383 71.94 123.522 71.684C123.671 71.428 123.821 71.124 123.97 70.772L120.194 62.068H121.794L124.722 69.172L127.058 62.068ZM130.877 63.972C131.037 63.748 131.224 63.5613 131.437 63.412C131.651 63.252 131.88 63.1187 132.125 63.012C132.381 62.9053 132.637 62.8307 132.893 62.788C133.16 62.7347 133.416 62.708 133.661 62.708C134.237 62.708 134.744 62.7987 135.181 62.98C135.629 63.1613 136.003 63.4227 136.301 63.764C136.611 64.0947 136.845 64.4947 137.005 64.964C137.165 65.4333 137.245 65.956 137.245 66.532C137.245 67.108 137.16 67.6467 136.989 68.148C136.819 68.6387 136.568 69.0653 136.237 69.428C135.917 69.7907 135.517 70.0787 135.037 70.292C134.568 70.4947 134.024 70.596 133.405 70.596C132.701 70.596 132.109 70.4733 131.629 70.228C131.149 69.972 130.76 69.636 130.461 69.22C130.173 68.7933 129.96 68.2867 129.821 67.7C129.683 67.1133 129.608 66.5373 129.597 65.972C129.576 65.8013 129.565 65.46 129.565 64.948C129.576 64.4253 129.603 63.956 129.645 63.54C129.688 63.1133 129.757 62.7027 129.853 62.308C129.96 61.9027 130.104 61.5453 130.285 61.236C130.573 60.724 130.936 60.3453 131.373 60.1C131.821 59.8547 132.333 59.684 132.909 59.588C133.091 59.556 133.496 59.4973 134.125 59.412C134.765 59.316 135.203 59.252 135.437 59.22C135.64 59.1987 135.859 59.172 136.093 59.14C136.339 59.0973 136.579 59.0547 136.813 59.012V60.26C136.653 60.3133 136.456 60.3613 136.221 60.404C135.987 60.436 135.72 60.468 135.421 60.5C135.208 60.532 134.984 60.564 134.749 60.596C134.525 60.6173 134.291 60.644 134.045 60.676C133.811 60.6973 133.448 60.7453 132.957 60.82C132.595 60.8733 132.296 60.9747 132.061 61.124C131.837 61.2733 131.64 61.4707 131.469 61.716C131.267 62.0147 131.117 62.3773 131.021 62.804C130.936 63.22 130.888 63.6093 130.877 63.972ZM133.437 69.396C133.832 69.396 134.179 69.3213 134.477 69.172C134.787 69.0227 135.043 68.82 135.245 68.564C135.459 68.308 135.619 68.0093 135.725 67.668C135.832 67.3267 135.885 66.964 135.885 66.58C135.885 66.2067 135.827 65.86 135.709 65.54C135.603 65.2093 135.448 64.9267 135.245 64.692C135.043 64.4467 134.797 64.26 134.509 64.132C134.221 63.9933 133.869 63.924 133.453 63.924C133.069 63.9347 132.728 64.0093 132.429 64.148C132.131 64.2867 131.875 64.484 131.661 64.74C131.448 64.9853 131.288 65.2733 131.181 65.604C131.075 65.924 131.016 66.26 131.005 66.612C131.005 66.9853 131.053 67.3427 131.149 67.684C131.256 68.0147 131.411 68.308 131.613 68.564C131.816 68.82 132.067 69.0227 132.365 69.172C132.675 69.3213 133.032 69.396 133.437 69.396ZM140.032 68.708C140.309 68.708 140.539 68.7987 140.72 68.98C140.901 69.1613 140.992 69.3907 140.992 69.668C140.992 69.9453 140.901 70.1747 140.72 70.356C140.539 70.5373 140.309 70.628 140.032 70.628C139.755 70.628 139.525 70.5373 139.344 70.356C139.163 70.1747 139.072 69.9453 139.072 69.668C139.072 69.3907 139.163 69.1613 139.344 68.98C139.525 68.7987 139.755 68.708 140.032 68.708Z" fill="white"/>
<path d="M48.3598 149.208C47.7624 149.208 47.2451 149.32 46.8078 149.544C46.3811 149.768 46.0291 150.067 45.7518 150.44C45.4744 150.813 45.2664 151.251 45.1278 151.752C44.9998 152.243 44.9358 152.76 44.9358 153.304C44.9358 153.859 45.0051 154.387 45.1438 154.888C45.2824 155.389 45.4904 155.832 45.7678 156.216C46.0558 156.589 46.4184 156.888 46.8558 157.112C47.2931 157.336 47.8104 157.448 48.4078 157.448C49.1438 157.448 49.7571 157.288 50.2478 156.968C50.7491 156.648 51.0638 156.216 51.1918 155.672H53.0478C52.9624 156.216 52.7811 156.701 52.5038 157.128C52.2371 157.555 51.9011 157.917 51.4958 158.216C51.0904 158.504 50.6211 158.728 50.0878 158.888C49.5544 159.037 48.9838 159.112 48.3758 159.112C47.4904 159.112 46.7118 158.968 46.0398 158.68C45.3784 158.392 44.8238 157.992 44.3758 157.48C43.9278 156.968 43.5918 156.36 43.3678 155.656C43.1438 154.952 43.0318 154.179 43.0318 153.336C43.0318 152.515 43.1438 151.752 43.3678 151.048C43.6024 150.333 43.9438 149.72 44.3918 149.208C44.8398 148.685 45.3944 148.28 46.0558 147.992C46.7278 147.693 47.5064 147.544 48.3918 147.544C49.6398 147.544 50.6691 147.837 51.4798 148.424C52.2904 149.011 52.7811 149.875 52.9518 151.016H51.1278C50.9891 150.461 50.6798 150.024 50.1998 149.704C49.7198 149.373 49.1064 149.208 48.3598 149.208ZM61.4586 150.568V152.152H58.6106V159H56.8026V152.152H53.9546V150.568H61.4586ZM67.9476 157.96C67.6703 158.355 67.3023 158.648 66.8436 158.84C66.385 159.021 65.873 159.112 65.3076 159.112C64.8596 159.112 64.449 159.059 64.0756 158.952C63.713 158.845 63.393 158.685 63.1156 158.472C62.8383 158.248 62.6196 157.976 62.4596 157.656C62.2996 157.325 62.2196 156.952 62.2196 156.536C62.2196 156.077 62.3103 155.688 62.4916 155.368C62.673 155.037 62.9183 154.771 63.2276 154.568C63.5476 154.365 63.921 154.216 64.3476 154.12C64.7743 154.013 65.2223 153.96 65.6916 153.96H67.8516C67.8516 153.341 67.713 152.861 67.4356 152.52C67.1583 152.179 66.673 152.003 65.9796 151.992C65.5743 151.992 65.2223 152.061 64.9236 152.2C64.6356 152.339 64.4436 152.568 64.3476 152.888H62.4756C62.5396 152.44 62.6836 152.061 62.9076 151.752C63.1423 151.443 63.4196 151.187 63.7396 150.984C64.0703 150.781 64.433 150.637 64.8276 150.552C65.233 150.467 65.6383 150.424 66.0436 150.424C66.5663 150.424 67.0516 150.493 67.4996 150.632C67.9476 150.771 68.337 151.005 68.6676 151.336C69.041 151.72 69.2916 152.179 69.4196 152.712C69.5476 153.245 69.6116 153.827 69.6116 154.456V159H68.0276L67.9476 157.96ZM67.8516 155.256H66.0916C65.7823 155.256 65.473 155.283 65.1636 155.336C64.8543 155.379 64.5876 155.491 64.3636 155.672C64.1503 155.843 64.0436 156.093 64.0436 156.424C64.0436 156.829 64.1876 157.139 64.4756 157.352C64.7743 157.555 65.137 157.656 65.5636 157.656C65.8943 157.656 66.1983 157.613 66.4756 157.528C66.7636 157.443 67.009 157.304 67.2116 157.112C67.4143 156.909 67.569 156.659 67.6756 156.36C67.793 156.051 67.8516 155.683 67.8516 155.256ZM73.3941 162.28H71.5701V150.568H73.2981L73.3941 151.768C73.7035 151.331 74.1035 151 74.5941 150.776C75.0955 150.541 75.6181 150.424 76.1621 150.424C76.7381 150.424 77.2555 150.531 77.7141 150.744C78.1728 150.947 78.5621 151.235 78.8821 151.608C79.2128 151.981 79.4581 152.435 79.6181 152.968C79.7888 153.491 79.8741 154.088 79.8741 154.76C79.8741 155.389 79.7941 155.971 79.6341 156.504C79.4741 157.037 79.2341 157.501 78.9141 157.896C78.6048 158.28 78.2155 158.579 77.7461 158.792C77.2875 159.005 76.7275 159.112 76.0661 159.112C75.5541 159.112 75.0635 159.032 74.5941 158.872C74.1355 158.701 73.7355 158.424 73.3941 158.04V162.28ZM75.7781 157.528C76.1728 157.528 76.5141 157.459 76.8021 157.32C77.0901 157.171 77.3248 156.973 77.5061 156.728C77.6981 156.483 77.8368 156.195 77.9221 155.864C78.0181 155.533 78.0661 155.176 78.0661 154.792C78.0661 154.408 78.0181 154.051 77.9221 153.72C77.8368 153.379 77.6981 153.085 77.5061 152.84C77.3248 152.595 77.0848 152.403 76.7861 152.264C76.4981 152.125 76.1515 152.056 75.7461 152.056C75.3835 152.056 75.0475 152.131 74.7381 152.28C74.4395 152.429 74.1888 152.627 73.9861 152.872C73.7835 153.117 73.6288 153.411 73.5221 153.752C73.4261 154.083 73.3781 154.424 73.3781 154.776C73.3781 155.16 73.4261 155.523 73.5221 155.864C73.6181 156.195 73.7621 156.483 73.9541 156.728C74.1568 156.963 74.4075 157.155 74.7061 157.304C75.0048 157.453 75.3621 157.528 75.7781 157.528ZM88.0524 150.568V152.152H85.2044V159H83.3964V152.152H80.5484V150.568H88.0524ZM92.8934 150.424C93.5654 150.424 94.1574 150.531 94.6694 150.744C95.1814 150.957 95.6134 151.256 95.9654 151.64C96.328 152.013 96.6 152.467 96.7814 153C96.9627 153.533 97.0534 154.125 97.0534 154.776C97.0534 155.437 96.9627 156.035 96.7814 156.568C96.6107 157.091 96.3494 157.544 95.9974 157.928C95.6454 158.312 95.208 158.605 94.6854 158.808C94.1734 159.011 93.576 159.112 92.8934 159.112C92.2214 159.112 91.6294 159.011 91.1174 158.808C90.6054 158.595 90.1734 158.301 89.8214 157.928C89.48 157.544 89.2187 157.085 89.0374 156.552C88.8667 156.019 88.7814 155.427 88.7814 154.776C88.7814 154.125 88.8667 153.533 89.0374 153C89.2187 152.467 89.4854 152.013 89.8374 151.64C90.1894 151.256 90.6214 150.957 91.1334 150.744C91.6454 150.531 92.232 150.424 92.8934 150.424ZM92.8934 157.528C93.3094 157.528 93.6614 157.459 93.9494 157.32C94.248 157.171 94.488 156.973 94.6694 156.728C94.8614 156.483 95 156.195 95.0854 155.864C95.1814 155.533 95.2294 155.176 95.2294 154.792C95.2294 154.408 95.1814 154.051 95.0854 153.72C95 153.379 94.8614 153.085 94.6694 152.84C94.488 152.595 94.248 152.403 93.9494 152.264C93.6614 152.125 93.3094 152.056 92.8934 152.056C92.488 152.056 92.136 152.125 91.8374 152.264C91.5494 152.403 91.3094 152.595 91.1174 152.84C90.936 153.085 90.7974 153.379 90.7014 153.72C90.616 154.051 90.5734 154.408 90.5734 154.792C90.5734 155.176 90.616 155.533 90.7014 155.864C90.7974 156.195 90.936 156.483 91.1174 156.728C91.3094 156.973 91.5494 157.171 91.8374 157.32C92.136 157.459 92.488 157.528 92.8934 157.528ZM98.7108 150.568H102.311C102.684 150.568 103.063 150.589 103.447 150.632C103.831 150.664 104.177 150.755 104.487 150.904C104.807 151.053 105.063 151.272 105.255 151.56C105.457 151.837 105.564 152.216 105.575 152.696C105.575 153.069 105.489 153.416 105.319 153.736C105.148 154.056 104.876 154.317 104.503 154.52C105.015 154.659 105.388 154.904 105.623 155.256C105.868 155.597 105.991 156.008 105.991 156.488C105.991 156.936 105.9 157.325 105.719 157.656C105.537 157.976 105.297 158.237 104.999 158.44C104.7 158.632 104.353 158.776 103.959 158.872C103.564 158.957 103.148 159 102.711 159H98.7108V150.568ZM100.551 152.088V154.024H101.655C101.9 154.024 102.151 154.024 102.407 154.024C102.673 154.013 102.908 153.976 103.111 153.912C103.324 153.848 103.495 153.747 103.623 153.608C103.761 153.469 103.831 153.272 103.831 153.016C103.831 152.792 103.777 152.621 103.671 152.504C103.575 152.376 103.452 152.28 103.303 152.216C103.153 152.152 102.983 152.115 102.791 152.104C102.609 152.093 102.439 152.088 102.279 152.088H100.551ZM102.407 157.464C102.62 157.464 102.828 157.453 103.031 157.432C103.244 157.411 103.431 157.363 103.591 157.288C103.761 157.203 103.9 157.096 104.007 156.968C104.113 156.829 104.167 156.648 104.167 156.424C104.167 156.019 104.039 155.747 103.783 155.608C103.537 155.469 103.233 155.4 102.871 155.4H100.551V157.464H102.407ZM113.12 157.96C112.842 158.355 112.474 158.648 112.016 158.84C111.557 159.021 111.045 159.112 110.48 159.112C110.032 159.112 109.621 159.059 109.248 158.952C108.885 158.845 108.565 158.685 108.288 158.472C108.01 158.248 107.792 157.976 107.632 157.656C107.472 157.325 107.392 156.952 107.392 156.536C107.392 156.077 107.482 155.688 107.664 155.368C107.845 155.037 108.09 154.771 108.4 154.568C108.72 154.365 109.093 154.216 109.52 154.12C109.946 154.013 110.394 153.96 110.864 153.96H113.024C113.024 153.341 112.885 152.861 112.608 152.52C112.33 152.179 111.845 152.003 111.152 151.992C110.746 151.992 110.394 152.061 110.096 152.2C109.808 152.339 109.616 152.568 109.52 152.888H107.648C107.712 152.44 107.856 152.061 108.08 151.752C108.314 151.443 108.592 151.187 108.912 150.984C109.242 150.781 109.605 150.637 110 150.552C110.405 150.467 110.81 150.424 111.216 150.424C111.738 150.424 112.224 150.493 112.672 150.632C113.12 150.771 113.509 151.005 113.84 151.336C114.213 151.72 114.464 152.179 114.592 152.712C114.72 153.245 114.784 153.827 114.784 154.456V159H113.2L113.12 157.96ZM113.024 155.256H111.264C110.954 155.256 110.645 155.283 110.336 155.336C110.026 155.379 109.76 155.491 109.536 155.672C109.322 155.843 109.216 156.093 109.216 156.424C109.216 156.829 109.36 157.139 109.648 157.352C109.946 157.555 110.309 157.656 110.736 157.656C111.066 157.656 111.37 157.613 111.648 157.528C111.936 157.443 112.181 157.304 112.384 157.112C112.586 156.909 112.741 156.659 112.848 156.36C112.965 156.051 113.024 155.683 113.024 155.256ZM123.654 159H121.846V156.12H120.326L118.358 159H116.214L118.502 155.832C117.851 155.672 117.355 155.379 117.014 154.952C116.683 154.525 116.518 153.981 116.518 153.32C116.518 152.797 116.603 152.36 116.774 152.008C116.955 151.656 117.201 151.373 117.51 151.16C117.83 150.936 118.193 150.781 118.598 150.696C119.003 150.611 119.441 150.568 119.91 150.568H123.654V159ZM121.846 152.088H120.038C119.835 152.088 119.633 152.104 119.43 152.136C119.227 152.157 119.041 152.216 118.87 152.312C118.71 152.397 118.582 152.52 118.486 152.68C118.39 152.84 118.342 153.032 118.342 153.256C118.342 153.288 118.342 153.315 118.342 153.336C118.342 153.613 118.422 153.848 118.582 154.04C118.742 154.232 118.95 154.371 119.206 154.456C119.462 154.531 119.697 154.579 119.91 154.6C120.123 154.611 120.337 154.616 120.55 154.616H121.846V152.088ZM43.526 175.984C43.5793 175.259 43.6113 174.539 43.622 173.824C43.6433 173.099 43.6647 172.347 43.686 171.568H49.99V180H48.15V173.152H45.382C45.3607 173.675 45.3393 174.197 45.318 174.72C45.3073 175.232 45.286 175.744 45.254 176.256C45.2433 176.448 45.222 176.677 45.19 176.944C45.1687 177.2 45.1367 177.461 45.094 177.728C45.0513 177.984 44.9873 178.229 44.902 178.464C44.8167 178.688 44.71 178.896 44.582 179.088C44.358 179.408 44.0593 179.643 43.686 179.792C43.3233 179.931 42.902 180 42.422 180H41.974V178.432C42.294 178.432 42.55 178.357 42.742 178.208C42.9447 178.048 43.094 177.851 43.19 177.616C43.2967 177.371 43.3713 177.109 43.414 176.832C43.4673 176.544 43.5047 176.261 43.526 175.984ZM53.6724 180H51.9764V171.568H53.8004V177.36L58.0884 171.568H59.7364V180H57.9124V174.32C57.9017 174.341 56.4884 176.235 53.6724 180ZM62.6384 174.576C62.6704 174.064 62.6917 173.568 62.7024 173.088C62.713 172.597 62.7184 172.091 62.7184 171.568H69.2144V178.448H70.3184V182.464H68.5424V180H62.7824V182.464H61.0064V178.448C61.3157 178.448 61.5717 178.352 61.7744 178.16C61.9877 177.957 62.1317 177.733 62.2064 177.488C62.281 177.317 62.345 177.088 62.3984 176.8C62.4517 176.501 62.4944 176.208 62.5264 175.92C62.5584 175.632 62.585 175.365 62.6064 175.12C62.6277 174.875 62.6384 174.693 62.6384 174.576ZM67.3904 173.152H64.3824C64.361 173.536 64.345 173.952 64.3344 174.4C64.3237 174.848 64.3077 175.28 64.2864 175.696C64.265 175.899 64.2437 176.117 64.2224 176.352C64.2117 176.587 64.185 176.827 64.1424 177.072C64.0997 177.307 64.041 177.541 63.9664 177.776C63.8917 178.011 63.7904 178.235 63.6624 178.448H67.3904V173.152ZM73.0898 176.4C73.1111 176.709 73.1751 176.997 73.2818 177.264C73.3884 177.531 73.5324 177.765 73.7138 177.968C73.8951 178.16 74.1191 178.315 74.3858 178.432C74.6631 178.549 74.9831 178.608 75.3458 178.608C75.7298 178.608 76.0818 178.539 76.4018 178.4C76.7324 178.261 76.9724 178.021 77.1218 177.68H78.9938C78.8871 178.107 78.7111 178.475 78.4658 178.784C78.2311 179.093 77.9484 179.349 77.6178 179.552C77.2978 179.744 76.9404 179.888 76.5458 179.984C76.1618 180.069 75.7511 180.112 75.3138 180.112C74.6418 180.112 74.0498 180.011 73.5378 179.808C73.0364 179.605 72.6151 179.312 72.2738 178.928C71.9324 178.544 71.6764 178.091 71.5058 177.568C71.3458 177.035 71.2658 176.437 71.2658 175.776C71.2658 175.136 71.3564 174.555 71.5378 174.032C71.7191 173.499 71.9804 173.04 72.3218 172.656C72.6738 172.272 73.0951 171.973 73.5858 171.76C74.0764 171.536 74.6364 171.424 75.2658 171.424C75.9271 171.424 76.4978 171.536 76.9778 171.76C77.4578 171.973 77.8578 172.267 78.1778 172.64C78.5084 173.013 78.7538 173.451 78.9138 173.952C79.0738 174.453 79.1538 174.997 79.1538 175.584C79.1538 175.861 79.1378 176.133 79.1058 176.4H73.0898ZM77.3778 175.024C77.3458 174.363 77.1378 173.861 76.7538 173.52C76.3804 173.179 75.8898 173.008 75.2818 173.008C74.9404 173.008 74.6418 173.061 74.3858 173.168C74.1298 173.275 73.9111 173.419 73.7298 173.6C73.5591 173.781 73.4204 173.995 73.3138 174.24C73.2071 174.485 73.1378 174.747 73.1058 175.024H77.3778ZM82.6285 183.28H80.8045V171.568H82.5325L82.6285 172.768C82.9378 172.331 83.3378 172 83.8285 171.776C84.3298 171.541 84.8525 171.424 85.3965 171.424C85.9725 171.424 86.4898 171.531 86.9485 171.744C87.4072 171.947 87.7965 172.235 88.1165 172.608C88.4472 172.981 88.6925 173.435 88.8525 173.968C89.0232 174.491 89.1085 175.088 89.1085 175.76C89.1085 176.389 89.0285 176.971 88.8685 177.504C88.7085 178.037 88.4685 178.501 88.1485 178.896C87.8392 179.28 87.4498 179.579 86.9805 179.792C86.5218 180.005 85.9618 180.112 85.3005 180.112C84.7885 180.112 84.2978 180.032 83.8285 179.872C83.3698 179.701 82.9698 179.424 82.6285 179.04V183.28ZM85.0125 178.528C85.4072 178.528 85.7485 178.459 86.0365 178.32C86.3245 178.171 86.5592 177.973 86.7405 177.728C86.9325 177.483 87.0712 177.195 87.1565 176.864C87.2525 176.533 87.3005 176.176 87.3005 175.792C87.3005 175.408 87.2525 175.051 87.1565 174.72C87.0712 174.379 86.9325 174.085 86.7405 173.84C86.5592 173.595 86.3192 173.403 86.0205 173.264C85.7325 173.125 85.3858 173.056 84.9805 173.056C84.6178 173.056 84.2818 173.131 83.9725 173.28C83.6738 173.429 83.4232 173.627 83.2205 173.872C83.0178 174.117 82.8632 174.411 82.7565 174.752C82.6605 175.083 82.6125 175.424 82.6125 175.776C82.6125 176.16 82.6605 176.523 82.7565 176.864C82.8525 177.195 82.9965 177.483 83.1885 177.728C83.3912 177.963 83.6418 178.155 83.9405 178.304C84.2392 178.453 84.5965 178.528 85.0125 178.528ZM94.579 180.112C93.907 180.112 93.315 180.011 92.803 179.808C92.3017 179.595 91.8803 179.301 91.539 178.928C91.2083 178.544 90.9577 178.091 90.787 177.568C90.627 177.035 90.547 176.448 90.547 175.808C90.547 175.168 90.6323 174.581 90.803 174.048C90.9843 173.515 91.251 173.056 91.603 172.672C91.955 172.288 92.3817 171.984 92.883 171.76C93.3843 171.536 93.9657 171.424 94.627 171.424C95.0963 171.424 95.5283 171.477 95.923 171.584C96.3283 171.68 96.6857 171.845 96.995 172.08C97.3043 172.304 97.571 172.592 97.795 172.944C98.019 173.285 98.1737 173.701 98.259 174.192H96.371C96.275 173.829 96.067 173.552 95.747 173.36C95.4377 173.157 95.0537 173.056 94.595 173.056C94.1897 173.056 93.843 173.131 93.555 173.28C93.267 173.429 93.0323 173.632 92.851 173.888C92.6697 174.144 92.5363 174.443 92.451 174.784C92.3763 175.115 92.339 175.461 92.339 175.824C92.339 176.197 92.3817 176.549 92.467 176.88C92.5523 177.211 92.6857 177.499 92.867 177.744C93.059 177.979 93.299 178.171 93.587 178.32C93.875 178.459 94.2217 178.528 94.627 178.528C95.107 178.528 95.5017 178.421 95.811 178.208C96.131 177.995 96.3337 177.712 96.419 177.36H98.291C98.2057 177.84 98.0457 178.256 97.811 178.608C97.587 178.96 97.3097 179.248 96.979 179.472C96.6483 179.696 96.2803 179.861 95.875 179.968C95.4697 180.064 95.0377 180.112 94.579 180.112ZM99.8514 180V171.568H101.659V175.008H102.955L105.115 171.568H107.195L104.523 175.584L107.403 180H105.291L103.067 176.592H101.659V180H99.8514ZM113.713 178.96C113.436 179.355 113.068 179.648 112.609 179.84C112.151 180.021 111.639 180.112 111.073 180.112C110.625 180.112 110.215 180.059 109.841 179.952C109.479 179.845 109.159 179.685 108.881 179.472C108.604 179.248 108.385 178.976 108.225 178.656C108.065 178.325 107.985 177.952 107.985 177.536C107.985 177.077 108.076 176.688 108.257 176.368C108.439 176.037 108.684 175.771 108.993 175.568C109.313 175.365 109.687 175.216 110.113 175.12C110.54 175.013 110.988 174.96 111.457 174.96H113.617C113.617 174.341 113.479 173.861 113.201 173.52C112.924 173.179 112.439 173.003 111.745 172.992C111.34 172.992 110.988 173.061 110.689 173.2C110.401 173.339 110.209 173.568 110.113 173.888H108.241C108.305 173.44 108.449 173.061 108.673 172.752C108.908 172.443 109.185 172.187 109.505 171.984C109.836 171.781 110.199 171.637 110.593 171.552C110.999 171.467 111.404 171.424 111.809 171.424C112.332 171.424 112.817 171.493 113.265 171.632C113.713 171.771 114.103 172.005 114.433 172.336C114.807 172.72 115.057 173.179 115.185 173.712C115.313 174.245 115.377 174.827 115.377 175.456V180H113.793L113.713 178.96ZM113.617 176.256H111.857C111.548 176.256 111.239 176.283 110.929 176.336C110.62 176.379 110.353 176.491 110.129 176.672C109.916 176.843 109.809 177.093 109.809 177.424C109.809 177.829 109.953 178.139 110.241 178.352C110.54 178.555 110.903 178.656 111.329 178.656C111.66 178.656 111.964 178.613 112.241 178.528C112.529 178.443 112.775 178.304 112.977 178.112C113.18 177.909 113.335 177.659 113.441 177.36C113.559 177.051 113.617 176.683 113.617 176.256ZM124.248 180H122.44V177.12H120.92L118.952 180H116.808L119.096 176.832C118.445 176.672 117.949 176.379 117.608 175.952C117.277 175.525 117.112 174.981 117.112 174.32C117.112 173.797 117.197 173.36 117.368 173.008C117.549 172.656 117.794 172.373 118.104 172.16C118.424 171.936 118.786 171.781 119.192 171.696C119.597 171.611 120.034 171.568 120.504 171.568H124.248V180ZM122.44 173.088H120.632C120.429 173.088 120.226 173.104 120.024 173.136C119.821 173.157 119.634 173.216 119.464 173.312C119.304 173.397 119.176 173.52 119.08 173.68C118.984 173.84 118.936 174.032 118.936 174.256C118.936 174.288 118.936 174.315 118.936 174.336C118.936 174.613 119.016 174.848 119.176 175.04C119.336 175.232 119.544 175.371 119.8 175.456C120.056 175.531 120.29 175.579 120.504 175.6C120.717 175.611 120.93 175.616 121.144 175.616H122.44V173.088ZM51.7029 201V192.568H59.0949V201H57.2709V194.152H53.5269V201H51.7029ZM64.8699 192.424C65.5419 192.424 66.1339 192.531 66.6459 192.744C67.1579 192.957 67.5899 193.256 67.9419 193.64C68.3046 194.013 68.5766 194.467 68.7579 195C68.9393 195.533 69.0299 196.125 69.0299 196.776C69.0299 197.437 68.9393 198.035 68.7579 198.568C68.5873 199.091 68.3259 199.544 67.9739 199.928C67.6219 200.312 67.1846 200.605 66.6619 200.808C66.1499 201.011 65.5526 201.112 64.8699 201.112C64.1979 201.112 63.6059 201.011 63.0939 200.808C62.5819 200.595 62.1499 200.301 61.7979 199.928C61.4566 199.544 61.1953 199.085 61.0139 198.552C60.8433 198.019 60.7579 197.427 60.7579 196.776C60.7579 196.125 60.8433 195.533 61.0139 195C61.1953 194.467 61.4619 194.013 61.8139 193.64C62.1659 193.256 62.5979 192.957 63.1099 192.744C63.6219 192.531 64.2086 192.424 64.8699 192.424ZM64.8699 199.528C65.2859 199.528 65.6379 199.459 65.9259 199.32C66.2246 199.171 66.4646 198.973 66.6459 198.728C66.8379 198.483 66.9766 198.195 67.0619 197.864C67.1579 197.533 67.2059 197.176 67.2059 196.792C67.2059 196.408 67.1579 196.051 67.0619 195.72C66.9766 195.379 66.8379 195.085 66.6459 194.84C66.4646 194.595 66.2246 194.403 65.9259 194.264C65.6379 194.125 65.2859 194.056 64.8699 194.056C64.4646 194.056 64.1126 194.125 63.8139 194.264C63.5259 194.403 63.2859 194.595 63.0939 194.84C62.9126 195.085 62.7739 195.379 62.6779 195.72C62.5926 196.051 62.5499 196.408 62.5499 196.792C62.5499 197.176 62.5926 197.533 62.6779 197.864C62.7739 198.195 62.9126 198.483 63.0939 198.728C63.2859 198.973 63.5259 199.171 63.8139 199.32C64.1126 199.459 64.4646 199.528 64.8699 199.528ZM76.2233 196.488C76.6713 196.637 77.002 196.883 77.2153 197.224C77.4286 197.555 77.5353 197.928 77.5353 198.344C77.5353 198.365 77.5353 198.387 77.5353 198.408C77.5353 198.941 77.4286 199.384 77.2153 199.736C77.002 200.088 76.714 200.371 76.3513 200.584C75.9993 200.787 75.6153 200.925 75.1993 201C74.794 201.075 74.378 201.112 73.9513 201.112C73.5353 201.112 73.1086 201.075 72.6713 201C72.2446 200.915 71.85 200.771 71.4873 200.568C71.1353 200.365 70.842 200.099 70.6073 199.768C70.3726 199.437 70.2393 199.021 70.2073 198.52H71.9673C72.01 198.733 72.1006 198.909 72.2393 199.048C72.3886 199.187 72.5593 199.299 72.7513 199.384C72.9433 199.469 73.146 199.528 73.3593 199.56C73.5726 199.592 73.77 199.608 73.9513 199.608C74.1433 199.608 74.3513 199.597 74.5753 199.576C74.7993 199.544 74.9966 199.491 75.1673 199.416C75.3486 199.331 75.498 199.219 75.6153 199.08C75.7326 198.931 75.7913 198.739 75.7913 198.504C75.7913 198.099 75.6366 197.827 75.3273 197.688C75.0286 197.549 74.65 197.48 74.1913 197.48H72.7833V196.04H74.0473C74.442 196.04 74.778 195.96 75.0553 195.8C75.3326 195.64 75.4713 195.363 75.4713 194.968C75.4713 194.765 75.418 194.6 75.3113 194.472C75.2153 194.333 75.0926 194.227 74.9433 194.152C74.794 194.077 74.6286 194.029 74.4473 194.008C74.266 193.976 74.106 193.96 73.9673 193.96C73.786 193.96 73.5993 193.976 73.4073 194.008C73.2153 194.029 73.034 194.077 72.8633 194.152C72.6926 194.227 72.5486 194.328 72.4313 194.456C72.314 194.584 72.2446 194.749 72.2233 194.952H70.4793C70.522 194.451 70.6553 194.04 70.8793 193.72C71.1033 193.389 71.3806 193.128 71.7113 192.936C72.042 192.744 72.4046 192.611 72.7993 192.536C73.2046 192.461 73.6046 192.424 73.9993 192.424C74.394 192.424 74.778 192.461 75.1513 192.536C75.5353 192.611 75.8873 192.749 76.2073 192.952C76.5273 193.155 76.7726 193.4 76.9433 193.688C77.1246 193.965 77.2153 194.328 77.2153 194.776C77.2153 195.181 77.1193 195.528 76.9273 195.816C76.746 196.104 76.5113 196.328 76.2233 196.488ZM80.8521 201H79.1561V192.568H80.9801V198.36L85.2681 192.568H86.9161V201H85.0921V195.32C85.0814 195.341 83.6681 197.235 80.8521 201ZM94.3941 199.448V192.568H96.2181V199.448H97.3541V203.464H95.5621V201H88.9061V192.568H90.7141V199.448H94.3941ZM100.321 201H98.6248V192.568H100.449V198.36L104.737 192.568H106.385V201H104.561V195.32C104.55 195.341 103.137 197.235 100.321 201ZM115.287 201H113.479V198.12H111.959L109.991 201H107.847L110.135 197.832C109.484 197.672 108.988 197.379 108.647 196.952C108.316 196.525 108.151 195.981 108.151 195.32C108.151 194.797 108.236 194.36 108.407 194.008C108.588 193.656 108.833 193.373 109.143 193.16C109.463 192.936 109.825 192.781 110.231 192.696C110.636 192.611 111.073 192.568 111.543 192.568H115.287V201ZM113.479 194.088H111.671C111.468 194.088 111.265 194.104 111.063 194.136C110.86 194.157 110.673 194.216 110.503 194.312C110.343 194.397 110.215 194.52 110.119 194.68C110.023 194.84 109.975 195.032 109.975 195.256C109.975 195.288 109.975 195.315 109.975 195.336C109.975 195.613 110.055 195.848 110.215 196.04C110.375 196.232 110.583 196.371 110.839 196.456C111.095 196.531 111.329 196.579 111.543 196.6C111.756 196.611 111.969 196.616 112.183 196.616H113.479V194.088Z" fill="#0C54A0"/>
</svg>
