<svg width="168" height="328" viewBox="0 0 168 328" fill="none" xmlns="http://www.w3.org/2000/svg">
<path d="M167.116 12H0.115723V0H167.116V12Z" fill="#E6E6E6"/>
<path d="M0.115683 12H31.3228V0H0.115683V12Z" fill="#C7C6C6"/>
<rect y="22" width="167" height="306" fill="white"/>
<path d="M54.352 125.872C54.864 125.456 55.3707 125.04 55.872 124.624C56.384 124.197 56.896 123.76 57.408 123.312C58.1333 122.672 58.6133 122.229 58.848 121.984C59.0933 121.739 59.296 121.472 59.456 121.184C59.6267 120.885 59.712 120.571 59.712 120.24C59.712 119.877 59.5947 119.573 59.36 119.328C59.136 119.072 58.784 118.944 58.304 118.944C57.76 118.944 57.3653 119.061 57.12 119.296C56.8853 119.531 56.7413 119.813 56.688 120.144H54.272C54.2933 119.547 54.416 119.024 54.64 118.576C54.864 118.117 55.1627 117.739 55.536 117.44C55.9093 117.141 56.3413 116.917 56.832 116.768C57.3333 116.619 57.8667 116.544 58.432 116.544C58.9547 116.544 59.4507 116.619 59.92 116.768C60.4 116.917 60.816 117.141 61.168 117.44C61.52 117.728 61.7973 118.091 62 118.528C62.2133 118.965 62.32 119.477 62.32 120.064C62.32 120.693 62.1813 121.28 61.904 121.824C61.6373 122.368 61.296 122.859 60.88 123.296C60.464 123.733 60.0107 124.149 59.52 124.544C59.0293 124.928 58.56 125.296 58.112 125.648H62.192V128H54.352V125.872ZM72.2503 124.704C72.2396 125.323 72.1063 125.851 71.8503 126.288C71.6049 126.715 71.2796 127.067 70.8743 127.344C70.4689 127.611 70.0103 127.808 69.4983 127.936C68.9863 128.064 68.4689 128.128 67.9463 128.128C67.4023 128.128 66.8743 128.064 66.3623 127.936C65.8503 127.808 65.3916 127.611 64.9863 127.344C64.5809 127.067 64.2503 126.709 63.9943 126.272C63.7489 125.835 63.6209 125.301 63.6103 124.672C63.6103 124.032 63.7329 123.477 63.9783 123.008C64.2343 122.528 64.6503 122.16 65.2263 121.904C64.8529 121.659 64.5596 121.344 64.3463 120.96C64.1329 120.565 64.0263 120.144 64.0263 119.696C64.0263 119.109 64.1383 118.619 64.3623 118.224C64.5863 117.819 64.8796 117.493 65.2423 117.248C65.6156 116.992 66.0369 116.811 66.5063 116.704C66.9756 116.587 67.4609 116.528 67.9623 116.528C68.4529 116.528 68.9329 116.587 69.4023 116.704C69.8716 116.811 70.2823 116.992 70.6343 117.248C70.9969 117.504 71.2849 117.835 71.4983 118.24C71.7223 118.635 71.8343 119.12 71.8343 119.696C71.8343 120.144 71.7223 120.571 71.4983 120.976C71.2743 121.371 70.9809 121.68 70.6183 121.904C71.1836 122.149 71.5943 122.512 71.8503 122.992C72.1169 123.461 72.2503 124.032 72.2503 124.704ZM67.9303 118.752C67.4929 118.752 67.1516 118.859 66.9062 119.072C66.6609 119.285 66.5383 119.584 66.5383 119.968C66.5383 120.341 66.6609 120.64 66.9062 120.864C67.1623 121.088 67.5036 121.2 67.9303 121.2C68.3783 121.2 68.7196 121.088 68.9543 120.864C69.1889 120.629 69.3063 120.325 69.3063 119.952C69.3063 119.579 69.1783 119.285 68.9223 119.072C68.6663 118.859 68.3356 118.752 67.9303 118.752ZM69.6423 124.464C69.6423 124.005 69.4769 123.664 69.1463 123.44C68.8156 123.216 68.4049 123.104 67.9143 123.104C67.4236 123.104 67.0129 123.221 66.6823 123.456C66.3516 123.68 66.1863 124.016 66.1863 124.464C66.1863 124.699 66.2289 124.907 66.3143 125.088C66.4103 125.259 66.5383 125.403 66.6983 125.52C66.8583 125.627 67.0449 125.712 67.2583 125.776C67.4716 125.829 67.6956 125.856 67.9303 125.856C68.1649 125.856 68.3836 125.829 68.5863 125.776C68.7996 125.712 68.9809 125.627 69.1303 125.52C69.2903 125.403 69.4129 125.259 69.4983 125.088C69.5943 124.907 69.6423 124.699 69.6423 124.464ZM85.9815 119.568V128H83.4695V121.824H81.3735C81.3628 122.411 81.3468 123.035 81.3255 123.696C81.3148 124.357 81.2508 125.003 81.1335 125.632C81.0482 126.133 80.9095 126.544 80.7175 126.864C80.5362 127.173 80.3175 127.413 80.0615 127.584C79.8055 127.755 79.5175 127.867 79.1975 127.92C78.8882 127.973 78.5575 128 78.2055 128H77.5335V125.808C77.8108 125.808 78.0402 125.733 78.2215 125.584C78.4135 125.435 78.5575 125.243 78.6535 125.008C78.7602 124.763 78.8402 124.475 78.8935 124.144C78.9468 123.813 78.9842 123.467 79.0055 123.104C79.0268 122.816 79.0428 122.496 79.0535 122.144C79.0642 121.781 79.0695 121.445 79.0695 121.136C79.0802 120.827 79.0855 120.539 79.0855 120.272C79.0855 119.995 79.0855 119.76 79.0855 119.568H85.9815ZM91.6594 126.032C91.99 126.032 92.2674 125.979 92.4914 125.872C92.7154 125.755 92.8807 125.595 92.9874 125.392H95.5474C95.43 125.883 95.2487 126.299 95.0034 126.64C94.758 126.981 94.4594 127.264 94.1074 127.488C93.7554 127.712 93.366 127.877 92.9394 127.984C92.5234 128.08 92.086 128.128 91.6274 128.128C90.294 128.128 89.254 127.749 88.5074 126.992C87.7714 126.224 87.4034 125.141 87.4034 123.744C87.4034 123.125 87.4994 122.549 87.6914 122.016C87.894 121.483 88.1714 121.024 88.5234 120.64C88.886 120.245 89.3234 119.941 89.8354 119.728C90.358 119.504 90.9447 119.392 91.5954 119.392C92.246 119.392 92.822 119.493 93.3234 119.696C93.8247 119.899 94.246 120.187 94.5874 120.56C94.9287 120.933 95.1847 121.376 95.3554 121.888C95.5367 122.4 95.6274 122.955 95.6274 123.552C95.6274 123.723 95.6167 123.888 95.5954 124.048C95.5847 124.197 95.5634 124.363 95.5314 124.544H89.9314C89.974 124.949 90.1287 125.296 90.3954 125.584C90.6727 125.872 91.094 126.021 91.6594 126.032ZM93.2114 122.848C93.2114 122.453 93.0674 122.128 92.7794 121.872C92.502 121.616 92.118 121.488 91.6274 121.488C91.0834 121.488 90.678 121.627 90.4114 121.904C90.1447 122.171 89.9954 122.485 89.9634 122.848H93.2114ZM96.1079 121.808V119.568H104.092V121.808H101.356V128H98.8439V121.808H96.1079Z" fill="#0260A2"/>
<rect x="10" y="42" width="147" height="46" rx="3" fill="#0260A2"/>
<path d="M31.1194 70.628C30.2341 70.628 29.4608 70.484 28.7994 70.196C28.1381 69.8973 27.5834 69.492 27.1354 68.98C26.6874 68.468 26.3514 67.86 26.1274 67.156C25.9034 66.452 25.7914 65.684 25.7914 64.852C25.7914 64.02 25.9034 63.252 26.1274 62.548C26.3514 61.8333 26.6874 61.22 27.1354 60.708C27.5834 60.196 28.1381 59.796 28.7994 59.508C29.4608 59.2093 30.2341 59.06 31.1194 59.06C31.9941 59.06 32.7621 59.2093 33.4234 59.508C34.0848 59.796 34.6394 60.196 35.0874 60.708C35.5354 61.22 35.8714 61.8333 36.0954 62.548C36.3194 63.252 36.4314 64.02 36.4314 64.852C36.4314 65.684 36.3194 66.452 36.0954 67.156C35.8714 67.86 35.5354 68.468 35.0874 68.98C34.6394 69.492 34.0848 69.8973 33.4234 70.196C32.7621 70.484 31.9941 70.628 31.1194 70.628ZM31.1194 60.324C30.4474 60.324 29.8661 60.4467 29.3754 60.692C28.8848 60.9267 28.4794 61.252 28.1594 61.668C27.8394 62.084 27.5994 62.5693 27.4394 63.124C27.2794 63.668 27.1994 64.244 27.1994 64.852C27.1994 65.46 27.2741 66.036 27.4234 66.58C27.5834 67.124 27.8234 67.604 28.1434 68.02C28.4634 68.436 28.8688 68.7667 29.3594 69.012C29.8608 69.2467 30.4474 69.364 31.1194 69.364C31.7914 69.364 32.3728 69.2467 32.8634 69.012C33.3541 68.7667 33.7541 68.4413 34.0634 68.036C34.3834 67.62 34.6181 67.14 34.7674 66.596C34.9274 66.052 35.0074 65.4707 35.0074 64.852C35.0074 64.2333 34.9274 63.652 34.7674 63.108C34.6181 62.5533 34.3834 62.0733 34.0634 61.668C33.7434 61.252 33.3381 60.9267 32.8474 60.692C32.3568 60.4467 31.7808 60.324 31.1194 60.324ZM44.6476 62.068V63.268H41.7516V70.5H40.3916V63.268H37.4956V62.068H44.6476ZM58.1416 67.348C58.1416 67.956 58.0242 68.4733 57.7896 68.9C57.5549 69.316 57.2456 69.652 56.8616 69.908C56.4882 70.164 56.0562 70.3507 55.5656 70.468C55.0856 70.5747 54.5896 70.628 54.0776 70.628C53.5656 70.628 53.0642 70.5747 52.5736 70.468C52.0936 70.3507 51.6616 70.164 51.2776 69.908C50.8936 69.652 50.5842 69.316 50.3496 68.9C50.1256 68.4733 50.0136 67.956 50.0136 67.348C50.0136 66.708 50.1789 66.1587 50.5096 65.7C50.8402 65.2307 51.2989 64.884 51.8856 64.66C51.5656 64.5107 51.3042 64.3293 51.1016 64.116C50.8989 63.9027 50.7389 63.6787 50.6216 63.444C50.5149 63.1987 50.4402 62.9587 50.3976 62.724C50.3656 62.4787 50.3496 62.2547 50.3496 62.052C50.3496 61.5293 50.4562 61.0813 50.6696 60.708C50.8829 60.324 51.1602 60.0093 51.5016 59.764C51.8536 59.5187 52.2536 59.3427 52.7016 59.236C53.1496 59.1187 53.6082 59.06 54.0776 59.06C54.5469 59.06 55.0056 59.1187 55.4536 59.236C55.9016 59.3427 56.2962 59.5187 56.6376 59.764C56.9896 60.0093 57.2722 60.324 57.4856 60.708C57.6989 61.0813 57.8056 61.5293 57.8056 62.052C57.8056 62.2547 57.7842 62.4787 57.7416 62.724C57.6989 62.9587 57.6189 63.1933 57.5016 63.428C57.3949 63.652 57.2402 63.8707 57.0376 64.084C56.8349 64.2867 56.5736 64.4627 56.2536 64.612C56.8616 64.836 57.3256 65.188 57.6456 65.668C57.9762 66.148 58.1416 66.708 58.1416 67.348ZM54.0776 60.324C53.7576 60.324 53.4589 60.3613 53.1816 60.436C52.9042 60.5107 52.6589 60.628 52.4456 60.788C52.2429 60.9373 52.0829 61.1347 51.9656 61.38C51.8482 61.6147 51.7896 61.9027 51.7896 62.244C51.7896 62.596 51.8536 62.8893 51.9816 63.124C52.1096 63.3587 52.2802 63.5507 52.4936 63.7C52.7069 63.8493 52.9469 63.9613 53.2136 64.036C53.4909 64.1107 53.7789 64.148 54.0776 64.148C54.3762 64.148 54.6589 64.1107 54.9256 64.036C55.2029 63.9613 55.4429 63.8493 55.6456 63.7C55.8589 63.5507 56.0296 63.3587 56.1576 63.124C56.2856 62.8893 56.3549 62.6173 56.3656 62.308C56.3656 61.9453 56.3016 61.6413 56.1736 61.396C56.0562 61.14 55.8909 60.932 55.6776 60.772C55.4749 60.612 55.2349 60.5 54.9576 60.436C54.6802 60.3613 54.3869 60.324 54.0776 60.324ZM54.0776 65.38C53.7469 65.38 53.4216 65.4173 53.1016 65.492C52.7922 65.556 52.5096 65.668 52.2536 65.828C52.0082 65.988 51.8109 66.196 51.6616 66.452C51.5122 66.6973 51.4376 67.0013 51.4376 67.364C51.4376 67.78 51.5282 68.116 51.7096 68.372C51.8909 68.628 52.1149 68.8307 52.3816 68.98C52.6482 69.1293 52.9309 69.2307 53.2296 69.284C53.5389 69.3373 53.8216 69.364 54.0776 69.364C54.3336 69.364 54.6109 69.3373 54.9096 69.284C55.2189 69.2307 55.5016 69.1293 55.7576 68.98C56.0242 68.8307 56.2482 68.628 56.4296 68.372C56.6109 68.116 56.7016 67.78 56.7016 67.364C56.7016 67.0013 56.6269 66.6973 56.4776 66.452C56.3282 66.196 56.1309 65.988 55.8856 65.828C55.6402 65.668 55.3576 65.556 55.0376 65.492C54.7282 65.4173 54.4082 65.38 54.0776 65.38ZM68.7987 64.852C68.7987 65.5773 68.724 66.2867 68.5747 66.98C68.436 67.6733 68.196 68.292 67.8547 68.836C67.5134 69.3693 67.06 69.8013 66.4947 70.132C65.9294 70.4627 65.2254 70.628 64.3827 70.628C63.5294 70.628 62.82 70.4627 62.2547 70.132C61.6894 69.8013 61.236 69.3693 60.8947 68.836C60.5534 68.292 60.3134 67.684 60.1747 67.012C60.036 66.34 59.9667 65.62 59.9667 64.852C59.9667 64.084 60.036 63.364 60.1747 62.692C60.3134 62.0093 60.5534 61.4013 60.8947 60.868C61.236 60.3347 61.6894 59.9027 62.2547 59.572C62.82 59.2307 63.5294 59.06 64.3827 59.06C65.2254 59.06 65.9294 59.2253 66.4947 59.556C67.06 59.8867 67.5134 60.324 67.8547 60.868C68.196 61.412 68.436 62.0307 68.5747 62.724C68.724 63.4173 68.7987 64.1267 68.7987 64.852ZM61.3907 64.852C61.3907 65.364 61.428 65.8867 61.5027 66.42C61.5774 66.9533 61.7214 67.4387 61.9347 67.876C62.148 68.3133 62.4467 68.6707 62.8307 68.948C63.2254 69.2253 63.7427 69.364 64.3827 69.364C65.012 69.364 65.5187 69.2253 65.9027 68.948C66.2974 68.6707 66.6014 68.3133 66.8147 67.876C67.028 67.4387 67.172 66.9533 67.2467 66.42C67.3214 65.8867 67.3587 65.364 67.3587 64.852C67.3587 64.3507 67.3214 63.8333 67.2467 63.3C67.172 62.7667 67.028 62.2813 66.8147 61.844C66.6014 61.396 66.2974 61.0333 65.9027 60.756C65.5187 60.468 65.012 60.324 64.3827 60.324C63.7427 60.324 63.2254 60.468 62.8307 60.756C62.4467 61.0333 62.148 61.396 61.9347 61.844C61.7214 62.2813 61.5774 62.7667 61.5027 63.3C61.428 63.8333 61.3907 64.3507 61.3907 64.852ZM83.7518 64.852C83.7518 65.5773 83.6771 66.2867 83.5278 66.98C83.3891 67.6733 83.1491 68.292 82.8078 68.836C82.4665 69.3693 82.0131 69.8013 81.4478 70.132C80.8825 70.4627 80.1785 70.628 79.3358 70.628C78.4825 70.628 77.7731 70.4627 77.2078 70.132C76.6425 69.8013 76.1891 69.3693 75.8478 68.836C75.5065 68.292 75.2665 67.684 75.1278 67.012C74.9891 66.34 74.9198 65.62 74.9198 64.852C74.9198 64.084 74.9891 63.364 75.1278 62.692C75.2665 62.0093 75.5065 61.4013 75.8478 60.868C76.1891 60.3347 76.6425 59.9027 77.2078 59.572C77.7731 59.2307 78.4825 59.06 79.3358 59.06C80.1785 59.06 80.8825 59.2253 81.4478 59.556C82.0131 59.8867 82.4665 60.324 82.8078 60.868C83.1491 61.412 83.3891 62.0307 83.5278 62.724C83.6771 63.4173 83.7518 64.1267 83.7518 64.852ZM76.3438 64.852C76.3438 65.364 76.3811 65.8867 76.4558 66.42C76.5305 66.9533 76.6745 67.4387 76.8878 67.876C77.1011 68.3133 77.3998 68.6707 77.7838 68.948C78.1785 69.2253 78.6958 69.364 79.3358 69.364C79.9651 69.364 80.4718 69.2253 80.8558 68.948C81.2505 68.6707 81.5545 68.3133 81.7678 67.876C81.9811 67.4387 82.1251 66.9533 82.1998 66.42C82.2745 65.8867 82.3118 65.364 82.3118 64.852C82.3118 64.3507 82.2745 63.8333 82.1998 63.3C82.1251 62.7667 81.9811 62.2813 81.7678 61.844C81.5545 61.396 81.2505 61.0333 80.8558 60.756C80.4718 60.468 79.9651 60.324 79.3358 60.324C78.6958 60.324 78.1785 60.468 77.7838 60.756C77.3998 61.0333 77.1011 61.396 76.8878 61.844C76.6745 62.2813 76.5305 62.7667 76.4558 63.3C76.3811 63.8333 76.3438 64.3507 76.3438 64.852ZM94.3924 64.852C94.3924 65.5773 94.3178 66.2867 94.1684 66.98C94.0298 67.6733 93.7898 68.292 93.4484 68.836C93.1071 69.3693 92.6538 69.8013 92.0884 70.132C91.5231 70.4627 90.8191 70.628 89.9764 70.628C89.1231 70.628 88.4138 70.4627 87.8484 70.132C87.2831 69.8013 86.8298 69.3693 86.4884 68.836C86.1471 68.292 85.9071 67.684 85.7684 67.012C85.6298 66.34 85.5604 65.62 85.5604 64.852C85.5604 64.084 85.6298 63.364 85.7684 62.692C85.9071 62.0093 86.1471 61.4013 86.4884 60.868C86.8298 60.3347 87.2831 59.9027 87.8484 59.572C88.4138 59.2307 89.1231 59.06 89.9764 59.06C90.8191 59.06 91.5231 59.2253 92.0884 59.556C92.6538 59.8867 93.1071 60.324 93.4484 60.868C93.7898 61.412 94.0298 62.0307 94.1684 62.724C94.3178 63.4173 94.3924 64.1267 94.3924 64.852ZM86.9844 64.852C86.9844 65.364 87.0218 65.8867 87.0964 66.42C87.1711 66.9533 87.3151 67.4387 87.5284 67.876C87.7418 68.3133 88.0404 68.6707 88.4244 68.948C88.8191 69.2253 89.3364 69.364 89.9764 69.364C90.6058 69.364 91.1124 69.2253 91.4964 68.948C91.8911 68.6707 92.1951 68.3133 92.4084 67.876C92.6218 67.4387 92.7658 66.9533 92.8404 66.42C92.9151 65.8867 92.9524 65.364 92.9524 64.852C92.9524 64.3507 92.9151 63.8333 92.8404 63.3C92.7658 62.7667 92.6218 62.2813 92.4084 61.844C92.1951 61.396 91.8911 61.0333 91.4964 60.756C91.1124 60.468 90.6058 60.324 89.9764 60.324C89.3364 60.324 88.8191 60.468 88.4244 60.756C88.0404 61.0333 87.7418 61.396 87.5284 61.844C87.3151 62.2813 87.1711 62.7667 87.0964 63.3C87.0218 63.8333 86.9844 64.3507 86.9844 64.852ZM105.033 64.852C105.033 65.5773 104.958 66.2867 104.809 66.98C104.67 67.6733 104.43 68.292 104.089 68.836C103.748 69.3693 103.294 69.8013 102.729 70.132C102.164 70.4627 101.46 70.628 100.617 70.628C99.7637 70.628 99.0544 70.4627 98.4891 70.132C97.9237 69.8013 97.4704 69.3693 97.1291 68.836C96.7877 68.292 96.5477 67.684 96.4091 67.012C96.2704 66.34 96.2011 65.62 96.2011 64.852C96.2011 64.084 96.2704 63.364 96.4091 62.692C96.5477 62.0093 96.7877 61.4013 97.1291 60.868C97.4704 60.3347 97.9237 59.9027 98.4891 59.572C99.0544 59.2307 99.7637 59.06 100.617 59.06C101.46 59.06 102.164 59.2253 102.729 59.556C103.294 59.8867 103.748 60.324 104.089 60.868C104.43 61.412 104.67 62.0307 104.809 62.724C104.958 63.4173 105.033 64.1267 105.033 64.852ZM97.6251 64.852C97.6251 65.364 97.6624 65.8867 97.7371 66.42C97.8117 66.9533 97.9557 67.4387 98.1691 67.876C98.3824 68.3133 98.6811 68.6707 99.0651 68.948C99.4597 69.2253 99.9771 69.364 100.617 69.364C101.246 69.364 101.753 69.2253 102.137 68.948C102.532 68.6707 102.836 68.3133 103.049 67.876C103.262 67.4387 103.406 66.9533 103.481 66.42C103.556 65.8867 103.593 65.364 103.593 64.852C103.593 64.3507 103.556 63.8333 103.481 63.3C103.406 62.7667 103.262 62.2813 103.049 61.844C102.836 61.396 102.532 61.0333 102.137 60.756C101.753 60.468 101.246 60.324 100.617 60.324C99.9771 60.324 99.4597 60.468 99.0651 60.756C98.6811 61.0333 98.3824 61.396 98.1691 61.844C97.9557 62.2813 97.8117 62.7667 97.7371 63.3C97.6624 63.8333 97.6251 64.3507 97.6251 64.852ZM112.674 73.54H111.314V62.068H112.61L112.674 63.364C112.962 62.9053 113.352 62.564 113.842 62.34C114.344 62.1053 114.882 61.9827 115.458 61.972C116.109 61.972 116.658 62.084 117.106 62.308C117.565 62.5213 117.944 62.8253 118.242 63.22C118.552 63.604 118.781 64.0627 118.93 64.596C119.08 65.1187 119.154 65.684 119.154 66.292C119.154 66.9107 119.08 67.4813 118.93 68.004C118.781 68.5267 118.552 68.98 118.242 69.364C117.933 69.748 117.544 70.052 117.074 70.276C116.605 70.4893 116.045 70.596 115.394 70.596C114.754 70.596 114.21 70.4947 113.762 70.292C113.314 70.0893 112.952 69.8227 112.674 69.492V73.54ZM115.282 69.396C115.741 69.396 116.125 69.316 116.434 69.156C116.754 68.9853 117.01 68.7613 117.202 68.484C117.405 68.196 117.549 67.8653 117.634 67.492C117.73 67.1187 117.784 66.7187 117.794 66.292C117.794 65.8653 117.746 65.4653 117.65 65.092C117.565 64.708 117.421 64.3773 117.218 64.1C117.016 63.8227 116.749 63.604 116.418 63.444C116.098 63.2733 115.709 63.188 115.25 63.188C114.706 63.188 114.237 63.3373 113.842 63.636C113.448 63.924 113.149 64.292 112.946 64.74C112.829 64.9853 112.749 65.2413 112.706 65.508C112.664 65.764 112.642 66.0307 112.642 66.308C112.642 66.628 112.664 66.9267 112.706 67.204C112.749 67.4707 112.829 67.7267 112.946 67.972C113.149 68.3773 113.442 68.7187 113.826 68.996C114.221 69.2627 114.706 69.396 115.282 69.396ZM126.972 62.068H128.508L126.124 68.708C125.996 69.0493 125.857 69.4387 125.708 69.876C125.569 70.3027 125.409 70.7293 125.228 71.156C125.057 71.5933 124.86 72.004 124.636 72.388C124.423 72.772 124.183 73.0813 123.916 73.316C123.521 73.668 123.143 73.8867 122.78 73.972C122.417 74.068 122.007 74.116 121.548 74.116H121.26V72.82C121.644 72.82 121.969 72.7773 122.236 72.692C122.503 72.6173 122.732 72.4947 122.924 72.324C123.127 72.1533 123.297 71.94 123.436 71.684C123.585 71.428 123.735 71.124 123.884 70.772L120.108 62.068H121.708L124.636 69.172L126.972 62.068ZM130.791 63.972C130.951 63.748 131.138 63.5613 131.351 63.412C131.565 63.252 131.794 63.1187 132.039 63.012C132.295 62.9053 132.551 62.8307 132.807 62.788C133.074 62.7347 133.33 62.708 133.575 62.708C134.151 62.708 134.658 62.7987 135.095 62.98C135.543 63.1613 135.917 63.4227 136.215 63.764C136.525 64.0947 136.759 64.4947 136.919 64.964C137.079 65.4333 137.159 65.956 137.159 66.532C137.159 67.108 137.074 67.6467 136.903 68.148C136.733 68.6387 136.482 69.0653 136.151 69.428C135.831 69.7907 135.431 70.0787 134.951 70.292C134.482 70.4947 133.938 70.596 133.319 70.596C132.615 70.596 132.023 70.4733 131.543 70.228C131.063 69.972 130.674 69.636 130.375 69.22C130.087 68.7933 129.874 68.2867 129.735 67.7C129.597 67.1133 129.522 66.5373 129.511 65.972C129.49 65.8013 129.479 65.46 129.479 64.948C129.49 64.4253 129.517 63.956 129.559 63.54C129.602 63.1133 129.671 62.7027 129.767 62.308C129.874 61.9027 130.018 61.5453 130.199 61.236C130.487 60.724 130.85 60.3453 131.287 60.1C131.735 59.8547 132.247 59.684 132.823 59.588C133.005 59.556 133.41 59.4973 134.039 59.412C134.679 59.316 135.117 59.252 135.351 59.22C135.554 59.1987 135.773 59.172 136.007 59.14C136.253 59.0973 136.493 59.0547 136.727 59.012V60.26C136.567 60.3133 136.37 60.3613 136.135 60.404C135.901 60.436 135.634 60.468 135.335 60.5C135.122 60.532 134.898 60.564 134.663 60.596C134.439 60.6173 134.205 60.644 133.959 60.676C133.725 60.6973 133.362 60.7453 132.871 60.82C132.509 60.8733 132.21 60.9747 131.975 61.124C131.751 61.2733 131.554 61.4707 131.383 61.716C131.181 62.0147 131.031 62.3773 130.935 62.804C130.85 63.22 130.802 63.6093 130.791 63.972ZM133.351 69.396C133.746 69.396 134.093 69.3213 134.391 69.172C134.701 69.0227 134.957 68.82 135.159 68.564C135.373 68.308 135.533 68.0093 135.639 67.668C135.746 67.3267 135.799 66.964 135.799 66.58C135.799 66.2067 135.741 65.86 135.623 65.54C135.517 65.2093 135.362 64.9267 135.159 64.692C134.957 64.4467 134.711 64.26 134.423 64.132C134.135 63.9933 133.783 63.924 133.367 63.924C132.983 63.9347 132.642 64.0093 132.343 64.148C132.045 64.2867 131.789 64.484 131.575 64.74C131.362 64.9853 131.202 65.2733 131.095 65.604C130.989 65.924 130.93 66.26 130.919 66.612C130.919 66.9853 130.967 67.3427 131.063 67.684C131.17 68.0147 131.325 68.308 131.527 68.564C131.73 68.82 131.981 69.0227 132.279 69.172C132.589 69.3213 132.946 69.396 133.351 69.396ZM139.946 68.708C140.223 68.708 140.453 68.7987 140.634 68.98C140.815 69.1613 140.906 69.3907 140.906 69.668C140.906 69.9453 140.815 70.1747 140.634 70.356C140.453 70.5373 140.223 70.628 139.946 70.628C139.669 70.628 139.439 70.5373 139.258 70.356C139.077 70.1747 138.986 69.9453 138.986 69.668C138.986 69.3907 139.077 69.1613 139.258 68.98C139.439 68.7987 139.669 68.708 139.946 68.708Z" fill="white"/>
<path d="M68.8813 159H67.0253V149.352H63.4253V147.688H72.4653V149.352H68.8813V159ZM78.4409 159.112C77.5555 159.112 76.7715 158.968 76.0889 158.68C75.4169 158.381 74.8515 157.976 74.3929 157.464C73.9342 156.952 73.5822 156.344 73.3369 155.64C73.1022 154.936 72.9849 154.168 72.9849 153.336C72.9849 152.493 73.1075 151.72 73.3529 151.016C73.5982 150.301 73.9502 149.688 74.4089 149.176C74.8782 148.664 75.4489 148.264 76.1209 147.976C76.8035 147.688 77.5822 147.544 78.4569 147.544C79.3315 147.544 80.1049 147.688 80.7769 147.976C81.4595 148.253 82.0302 148.648 82.4889 149.16C82.9582 149.672 83.3102 150.285 83.5449 151C83.7902 151.704 83.9129 152.477 83.9129 153.32C83.9129 154.152 83.7902 154.925 83.5449 155.64C83.3102 156.344 82.9582 156.952 82.4889 157.464C82.0302 157.976 81.4595 158.381 80.7769 158.68C80.0942 158.968 79.3155 159.112 78.4409 159.112ZM78.4569 149.208C77.8489 149.208 77.3209 149.32 76.8729 149.544C76.4355 149.768 76.0675 150.067 75.7689 150.44C75.4702 150.813 75.2462 151.251 75.0969 151.752C74.9582 152.253 74.8889 152.776 74.8889 153.32C74.8889 153.864 74.9582 154.387 75.0969 154.888C75.2462 155.379 75.4649 155.816 75.7529 156.2C76.0515 156.584 76.4249 156.888 76.8729 157.112C77.3209 157.336 77.8489 157.448 78.4569 157.448C79.0542 157.448 79.5769 157.341 80.0249 157.128C80.4729 156.904 80.8409 156.605 81.1289 156.232C81.4275 155.859 81.6462 155.427 81.7849 154.936C81.9342 154.435 82.0089 153.901 82.0089 153.336C82.0089 152.781 81.9342 152.259 81.7849 151.768C81.6462 151.267 81.4275 150.829 81.1289 150.456C80.8409 150.072 80.4729 149.768 80.0249 149.544C79.5875 149.32 79.0649 149.208 78.4569 149.208ZM95.0898 159H93.2338V149.352H87.7618V159H85.9058V147.688H95.0898V159ZM97.5103 152.632H102.614V154.2H97.5103V152.632ZM26.7197 171.568H28.7197L26.2877 178.656C25.9784 179.531 25.6957 180.304 25.4397 180.976C25.1944 181.648 24.901 182.208 24.5597 182.656C24.2184 183.104 23.797 183.44 23.2957 183.664C22.805 183.899 22.1597 184.016 21.3597 184.016H21.0877V182.384C21.1304 182.384 21.173 182.384 21.2157 182.384C21.5357 182.384 21.8184 182.347 22.0637 182.272C22.3197 182.197 22.549 182.085 22.7517 181.936C22.9544 181.787 23.1304 181.589 23.2797 181.344C23.429 181.109 23.5677 180.837 23.6957 180.528L19.8717 171.568H22.0157L24.6397 178.24L26.7197 171.568ZM29.8279 180V171.568H37.2199V180H35.3959V173.152H31.6519V180H29.8279ZM41.0269 183.28H39.2029V171.568H40.9309L41.0269 172.768C41.3363 172.331 41.7363 172 42.2269 171.776C42.7283 171.541 43.2509 171.424 43.7949 171.424C44.3709 171.424 44.8883 171.531 45.3469 171.744C45.8056 171.947 46.1949 172.235 46.5149 172.608C46.8456 172.981 47.0909 173.435 47.2509 173.968C47.4216 174.491 47.5069 175.088 47.5069 175.76C47.5069 176.389 47.4269 176.971 47.2669 177.504C47.1069 178.037 46.8669 178.501 46.5469 178.896C46.2376 179.28 45.8483 179.579 45.3789 179.792C44.9203 180.005 44.3603 180.112 43.6989 180.112C43.1869 180.112 42.6963 180.032 42.2269 179.872C41.7683 179.701 41.3683 179.424 41.0269 179.04V183.28ZM43.4109 178.528C43.8056 178.528 44.1469 178.459 44.4349 178.32C44.7229 178.171 44.9576 177.973 45.1389 177.728C45.3309 177.483 45.4696 177.195 45.5549 176.864C45.6509 176.533 45.6989 176.176 45.6989 175.792C45.6989 175.408 45.6509 175.051 45.5549 174.72C45.4696 174.379 45.3309 174.085 45.1389 173.84C44.9576 173.595 44.7176 173.403 44.4189 173.264C44.1309 173.125 43.7843 173.056 43.3789 173.056C43.0163 173.056 42.6803 173.131 42.3709 173.28C42.0723 173.429 41.8216 173.627 41.6189 173.872C41.4163 174.117 41.2616 174.411 41.1549 174.752C41.0589 175.083 41.0109 175.424 41.0109 175.776C41.0109 176.16 41.0589 176.523 41.1549 176.864C41.2509 177.195 41.3949 177.483 41.5869 177.728C41.7896 177.963 42.0403 178.155 42.3389 178.304C42.6376 178.453 42.9949 178.528 43.4109 178.528ZM54.5492 178.96C54.2719 179.355 53.9039 179.648 53.4452 179.84C52.9865 180.021 52.4745 180.112 51.9092 180.112C51.4612 180.112 51.0505 180.059 50.6772 179.952C50.3145 179.845 49.9945 179.685 49.7172 179.472C49.4399 179.248 49.2212 178.976 49.0612 178.656C48.9012 178.325 48.8212 177.952 48.8212 177.536C48.8212 177.077 48.9119 176.688 49.0932 176.368C49.2745 176.037 49.5199 175.771 49.8292 175.568C50.1492 175.365 50.5225 175.216 50.9492 175.12C51.3759 175.013 51.8239 174.96 52.2932 174.96H54.4532C54.4532 174.341 54.3145 173.861 54.0372 173.52C53.7599 173.179 53.2745 173.003 52.5812 172.992C52.1759 172.992 51.8239 173.061 51.5252 173.2C51.2372 173.339 51.0452 173.568 50.9492 173.888H49.0772C49.1412 173.44 49.2852 173.061 49.5092 172.752C49.7439 172.443 50.0212 172.187 50.3412 171.984C50.6719 171.781 51.0345 171.637 51.4292 171.552C51.8345 171.467 52.2399 171.424 52.6452 171.424C53.1679 171.424 53.6532 171.493 54.1012 171.632C54.5492 171.771 54.9385 172.005 55.2692 172.336C55.6425 172.72 55.8932 173.179 56.0212 173.712C56.1492 174.245 56.2132 174.827 56.2132 175.456V180H54.6292L54.5492 178.96ZM54.4532 176.256H52.6932C52.3839 176.256 52.0745 176.283 51.7652 176.336C51.4559 176.379 51.1892 176.491 50.9652 176.672C50.7519 176.843 50.6452 177.093 50.6452 177.424C50.6452 177.829 50.7892 178.139 51.0772 178.352C51.3759 178.555 51.7385 178.656 52.1652 178.656C52.4959 178.656 52.7999 178.613 53.0772 178.528C53.3652 178.443 53.6105 178.304 53.8132 178.112C54.0159 177.909 54.1705 177.659 54.2772 177.36C54.3945 177.051 54.4532 176.683 54.4532 176.256ZM58.1717 171.568H61.7717C62.145 171.568 62.5237 171.589 62.9077 171.632C63.2917 171.664 63.6384 171.755 63.9477 171.904C64.2677 172.053 64.5237 172.272 64.7157 172.56C64.9184 172.837 65.025 173.216 65.0357 173.696C65.0357 174.069 64.9504 174.416 64.7797 174.736C64.609 175.056 64.337 175.317 63.9637 175.52C64.4757 175.659 64.849 175.904 65.0837 176.256C65.329 176.597 65.4517 177.008 65.4517 177.488C65.4517 177.936 65.361 178.325 65.1797 178.656C64.9984 178.976 64.7584 179.237 64.4597 179.44C64.161 179.632 63.8144 179.776 63.4197 179.872C63.025 179.957 62.609 180 62.1717 180H58.1717V171.568ZM60.0117 173.088V175.024H61.1157C61.361 175.024 61.6117 175.024 61.8677 175.024C62.1344 175.013 62.369 174.976 62.5717 174.912C62.785 174.848 62.9557 174.747 63.0837 174.608C63.2224 174.469 63.2917 174.272 63.2917 174.016C63.2917 173.792 63.2384 173.621 63.1317 173.504C63.0357 173.376 62.913 173.28 62.7637 173.216C62.6144 173.152 62.4437 173.115 62.2517 173.104C62.0704 173.093 61.8997 173.088 61.7397 173.088H60.0117ZM61.8677 178.464C62.081 178.464 62.289 178.453 62.4917 178.432C62.705 178.411 62.8917 178.363 63.0517 178.288C63.2224 178.203 63.361 178.096 63.4677 177.968C63.5744 177.829 63.6277 177.648 63.6277 177.424C63.6277 177.019 63.4997 176.747 63.2437 176.608C62.9984 176.469 62.6944 176.4 62.3317 176.4H60.0117V178.464H61.8677ZM67.9244 175.984C67.9778 175.259 68.0098 174.539 68.0204 173.824C68.0418 173.099 68.0631 172.347 68.0844 171.568H74.3884V180H72.5484V173.152H69.7804C69.7591 173.675 69.7378 174.197 69.7164 174.72C69.7058 175.232 69.6844 175.744 69.6524 176.256C69.6418 176.448 69.6204 176.677 69.5884 176.944C69.5671 177.2 69.5351 177.461 69.4924 177.728C69.4498 177.984 69.3858 178.229 69.3004 178.464C69.2151 178.688 69.1084 178.896 68.9804 179.088C68.7564 179.408 68.4578 179.643 68.0844 179.792C67.7218 179.931 67.3004 180 66.8204 180H66.3724V178.432C66.6924 178.432 66.9484 178.357 67.1404 178.208C67.3431 178.048 67.4924 177.851 67.5884 177.616C67.6951 177.371 67.7698 177.109 67.8124 176.832C67.8658 176.544 67.9031 176.261 67.9244 175.984ZM77.8788 176.4C77.9001 176.709 77.9641 176.997 78.0708 177.264C78.1775 177.531 78.3215 177.765 78.5028 177.968C78.6841 178.16 78.9081 178.315 79.1748 178.432C79.4521 178.549 79.7721 178.608 80.1348 178.608C80.5188 178.608 80.8708 178.539 81.1908 178.4C81.5215 178.261 81.7615 178.021 81.9108 177.68H83.7828C83.6761 178.107 83.5001 178.475 83.2548 178.784C83.0201 179.093 82.7375 179.349 82.4068 179.552C82.0868 179.744 81.7295 179.888 81.3348 179.984C80.9508 180.069 80.5401 180.112 80.1028 180.112C79.4308 180.112 78.8388 180.011 78.3268 179.808C77.8255 179.605 77.4041 179.312 77.0628 178.928C76.7215 178.544 76.4655 178.091 76.2948 177.568C76.1348 177.035 76.0548 176.437 76.0548 175.776C76.0548 175.136 76.1455 174.555 76.3268 174.032C76.5081 173.499 76.7695 173.04 77.1108 172.656C77.4628 172.272 77.8841 171.973 78.3748 171.76C78.8655 171.536 79.4255 171.424 80.0548 171.424C80.7161 171.424 81.2868 171.536 81.7668 171.76C82.2468 171.973 82.6468 172.267 82.9668 172.64C83.2975 173.013 83.5428 173.451 83.7028 173.952C83.8628 174.453 83.9428 174.997 83.9428 175.584C83.9428 175.861 83.9268 176.133 83.8948 176.4H77.8788ZM82.1668 175.024C82.1348 174.363 81.9268 173.861 81.5428 173.52C81.1695 173.179 80.6788 173.008 80.0708 173.008C79.7295 173.008 79.4308 173.061 79.1748 173.168C78.9188 173.275 78.7001 173.419 78.5188 173.6C78.3481 173.781 78.2095 173.995 78.1028 174.24C77.9961 174.485 77.9268 174.747 77.8948 175.024H82.1668ZM85.5936 180V171.568H87.4176V175.04H91.1616V171.568H92.9856V180H91.1616V176.624H87.4176V180H85.5936ZM94.6006 171.568H96.4246V173.232C96.4246 173.659 96.4406 174.016 96.4726 174.304C96.5152 174.592 96.6006 174.832 96.7286 175.024C96.8566 175.205 97.0432 175.339 97.2886 175.424C97.5339 175.499 97.8646 175.536 98.2806 175.536C98.5472 175.536 98.8352 175.525 99.1446 175.504C99.4539 175.472 99.7099 175.44 99.9126 175.408V171.568H101.721V180H99.9126V176.992C99.6672 177.035 99.3792 177.067 99.0486 177.088C98.7179 177.109 98.4139 177.12 98.1366 177.12C98.0192 177.12 97.9019 177.12 97.7846 177.12C97.2726 177.109 96.8192 177.045 96.4246 176.928C96.0299 176.8 95.6939 176.608 95.4166 176.352C95.1499 176.085 94.9472 175.733 94.8086 175.296C94.6699 174.859 94.6006 174.32 94.6006 173.68V171.568ZM105.223 176.4C105.244 176.709 105.308 176.997 105.415 177.264C105.521 177.531 105.665 177.765 105.847 177.968C106.028 178.16 106.252 178.315 106.519 178.432C106.796 178.549 107.116 178.608 107.479 178.608C107.863 178.608 108.215 178.539 108.535 178.4C108.865 178.261 109.105 178.021 109.255 177.68H111.127C111.02 178.107 110.844 178.475 110.599 178.784C110.364 179.093 110.081 179.349 109.751 179.552C109.431 179.744 109.073 179.888 108.679 179.984C108.295 180.069 107.884 180.112 107.447 180.112C106.775 180.112 106.183 180.011 105.671 179.808C105.169 179.605 104.748 179.312 104.407 178.928C104.065 178.544 103.809 178.091 103.639 177.568C103.479 177.035 103.399 176.437 103.399 175.776C103.399 175.136 103.489 174.555 103.671 174.032C103.852 173.499 104.113 173.04 104.455 172.656C104.807 172.272 105.228 171.973 105.719 171.76C106.209 171.536 106.769 171.424 107.399 171.424C108.06 171.424 108.631 171.536 109.111 171.76C109.591 171.973 109.991 172.267 110.311 172.64C110.641 173.013 110.887 173.451 111.047 173.952C111.207 174.453 111.287 174.997 111.287 175.584C111.287 175.861 111.271 176.133 111.239 176.4H105.223ZM109.511 175.024C109.479 174.363 109.271 173.861 108.887 173.52C108.513 173.179 108.023 173.008 107.415 173.008C107.073 173.008 106.775 173.061 106.519 173.168C106.263 173.275 106.044 173.419 105.863 173.6C105.692 173.781 105.553 173.995 105.447 174.24C105.34 174.485 105.271 174.747 105.239 175.024H109.511ZM116.649 180.112C115.977 180.112 115.385 180.011 114.873 179.808C114.372 179.595 113.951 179.301 113.609 178.928C113.279 178.544 113.028 178.091 112.857 177.568C112.697 177.035 112.617 176.448 112.617 175.808C112.617 175.168 112.703 174.581 112.873 174.048C113.055 173.515 113.321 173.056 113.673 172.672C114.025 172.288 114.452 171.984 114.953 171.76C115.455 171.536 116.036 171.424 116.697 171.424C117.167 171.424 117.599 171.477 117.993 171.584C118.399 171.68 118.756 171.845 119.065 172.08C119.375 172.304 119.641 172.592 119.865 172.944C120.089 173.285 120.244 173.701 120.329 174.192H118.441C118.345 173.829 118.137 173.552 117.817 173.36C117.508 173.157 117.124 173.056 116.665 173.056C116.26 173.056 115.913 173.131 115.625 173.28C115.337 173.429 115.103 173.632 114.921 173.888C114.74 174.144 114.607 174.443 114.521 174.784C114.447 175.115 114.409 175.461 114.409 175.824C114.409 176.197 114.452 176.549 114.537 176.88C114.623 177.211 114.756 177.499 114.937 177.744C115.129 177.979 115.369 178.171 115.657 178.32C115.945 178.459 116.292 178.528 116.697 178.528C117.177 178.528 117.572 178.421 117.881 178.208C118.201 177.995 118.404 177.712 118.489 177.36H120.361C120.276 177.84 120.116 178.256 119.881 178.608C119.657 178.96 119.38 179.248 119.049 179.472C118.719 179.696 118.351 179.861 117.945 179.968C117.54 180.064 117.108 180.112 116.649 180.112ZM121.922 180V171.568H123.73V175.008H125.026L127.186 171.568H129.266L126.594 175.584L129.474 180H127.362L125.138 176.592H123.73V180H121.922ZM135.784 178.96C135.506 179.355 135.138 179.648 134.68 179.84C134.221 180.021 133.709 180.112 133.144 180.112C132.696 180.112 132.285 180.059 131.912 179.952C131.549 179.845 131.229 179.685 130.952 179.472C130.674 179.248 130.456 178.976 130.296 178.656C130.136 178.325 130.056 177.952 130.056 177.536C130.056 177.077 130.146 176.688 130.328 176.368C130.509 176.037 130.754 175.771 131.064 175.568C131.384 175.365 131.757 175.216 132.184 175.12C132.61 175.013 133.058 174.96 133.528 174.96H135.688C135.688 174.341 135.549 173.861 135.272 173.52C134.994 173.179 134.509 173.003 133.816 172.992C133.41 172.992 133.058 173.061 132.76 173.2C132.472 173.339 132.28 173.568 132.184 173.888H130.312C130.376 173.44 130.52 173.061 130.744 172.752C130.978 172.443 131.256 172.187 131.576 171.984C131.906 171.781 132.269 171.637 132.664 171.552C133.069 171.467 133.474 171.424 133.88 171.424C134.402 171.424 134.888 171.493 135.336 171.632C135.784 171.771 136.173 172.005 136.504 172.336C136.877 172.72 137.128 173.179 137.256 173.712C137.384 174.245 137.448 174.827 137.448 175.456V180H135.864L135.784 178.96ZM135.688 176.256H133.928C133.618 176.256 133.309 176.283 133 176.336C132.69 176.379 132.424 176.491 132.2 176.672C131.986 176.843 131.88 177.093 131.88 177.424C131.88 177.829 132.024 178.139 132.312 178.352C132.61 178.555 132.973 178.656 133.4 178.656C133.73 178.656 134.034 178.613 134.312 178.528C134.6 178.443 134.845 178.304 135.048 178.112C135.25 177.909 135.405 177.659 135.512 177.36C135.629 177.051 135.688 176.683 135.688 176.256ZM146.318 180H144.51V177.12H142.99L141.022 180H138.878L141.166 176.832C140.515 176.672 140.019 176.379 139.678 175.952C139.347 175.525 139.182 174.981 139.182 174.32C139.182 173.797 139.267 173.36 139.438 173.008C139.619 172.656 139.865 172.373 140.174 172.16C140.494 171.936 140.857 171.781 141.262 171.696C141.667 171.611 142.105 171.568 142.574 171.568H146.318V180ZM144.51 173.088H142.702C142.499 173.088 142.297 173.104 142.094 173.136C141.891 173.157 141.705 173.216 141.534 173.312C141.374 173.397 141.246 173.52 141.15 173.68C141.054 173.84 141.006 174.032 141.006 174.256C141.006 174.288 141.006 174.315 141.006 174.336C141.006 174.613 141.086 174.848 141.246 175.04C141.406 175.232 141.614 175.371 141.87 175.456C142.126 175.531 142.361 175.579 142.574 175.6C142.787 175.611 143.001 175.616 143.214 175.616H144.51V173.088ZM42.5134 195.576C42.5454 195.064 42.5667 194.568 42.5774 194.088C42.588 193.597 42.5934 193.091 42.5934 192.568H49.0894V199.448H50.1934V203.464H48.4174V201H42.6574V203.464H40.8814V199.448C41.1907 199.448 41.4467 199.352 41.6494 199.16C41.8627 198.957 42.0067 198.733 42.0814 198.488C42.156 198.317 42.22 198.088 42.2734 197.8C42.3267 197.501 42.3694 197.208 42.4014 196.92C42.4334 196.632 42.46 196.365 42.4814 196.12C42.5027 195.875 42.5134 195.693 42.5134 195.576ZM47.2654 194.152H44.2574C44.236 194.536 44.22 194.952 44.2094 195.4C44.1987 195.848 44.1827 196.28 44.1614 196.696C44.14 196.899 44.1187 197.117 44.0974 197.352C44.0867 197.587 44.06 197.827 44.0174 198.072C43.9747 198.307 43.916 198.541 43.8414 198.776C43.7667 199.011 43.6654 199.235 43.5374 199.448H47.2654V194.152ZM55.2528 192.424C55.9248 192.424 56.5168 192.531 57.0288 192.744C57.5408 192.957 57.9728 193.256 58.3248 193.64C58.6874 194.013 58.9594 194.467 59.1408 195C59.3221 195.533 59.4128 196.125 59.4128 196.776C59.4128 197.437 59.3221 198.035 59.1408 198.568C58.9701 199.091 58.7088 199.544 58.3568 199.928C58.0048 200.312 57.5674 200.605 57.0448 200.808C56.5328 201.011 55.9354 201.112 55.2528 201.112C54.5808 201.112 53.9888 201.011 53.4768 200.808C52.9648 200.595 52.5328 200.301 52.1808 199.928C51.8394 199.544 51.5781 199.085 51.3968 198.552C51.2261 198.019 51.1408 197.427 51.1408 196.776C51.1408 196.125 51.2261 195.533 51.3968 195C51.5781 194.467 51.8448 194.013 52.1968 193.64C52.5488 193.256 52.9808 192.957 53.4928 192.744C54.0048 192.531 54.5914 192.424 55.2528 192.424ZM55.2528 199.528C55.6688 199.528 56.0208 199.459 56.3088 199.32C56.6074 199.171 56.8474 198.973 57.0288 198.728C57.2208 198.483 57.3594 198.195 57.4448 197.864C57.5408 197.533 57.5888 197.176 57.5888 196.792C57.5888 196.408 57.5408 196.051 57.4448 195.72C57.3594 195.379 57.2208 195.085 57.0288 194.84C56.8474 194.595 56.6074 194.403 56.3088 194.264C56.0208 194.125 55.6688 194.056 55.2528 194.056C54.8474 194.056 54.4954 194.125 54.1968 194.264C53.9088 194.403 53.6688 194.595 53.4768 194.84C53.2954 195.085 53.1568 195.379 53.0608 195.72C52.9754 196.051 52.9328 196.408 52.9328 196.792C52.9328 197.176 52.9754 197.533 53.0608 197.864C53.1568 198.195 53.2954 198.483 53.4768 198.728C53.6688 198.973 53.9088 199.171 54.1968 199.32C54.4954 199.459 54.8474 199.528 55.2528 199.528ZM61.776 196.984C61.8293 196.259 61.8613 195.539 61.872 194.824C61.8933 194.099 61.9147 193.347 61.936 192.568H68.24V201H66.4V194.152H63.632C63.6107 194.675 63.5893 195.197 63.568 195.72C63.5573 196.232 63.536 196.744 63.504 197.256C63.4933 197.448 63.472 197.677 63.44 197.944C63.4187 198.2 63.3867 198.461 63.344 198.728C63.3013 198.984 63.2373 199.229 63.152 199.464C63.0667 199.688 62.96 199.896 62.832 200.088C62.608 200.408 62.3093 200.643 61.936 200.792C61.5733 200.931 61.152 201 60.672 201H60.224V199.432C60.544 199.432 60.8 199.357 60.992 199.208C61.1947 199.048 61.344 198.851 61.44 198.616C61.5467 198.371 61.6213 198.109 61.664 197.832C61.7173 197.544 61.7547 197.261 61.776 196.984ZM74.7864 201V197.592H73.4744L71.5224 201H69.3784L72.0504 196.584L69.6024 192.568H71.6344L73.6024 196.024H74.7864V192.568H76.5944V196.024H77.7784L79.7464 192.568H81.7784L79.3304 196.584L82.0024 201H79.8584L77.9064 197.592H76.5944V201H74.7864ZM83.1326 201V192.568H84.9566V196.04H88.7006V192.568H90.5246V201H88.7006V197.624H84.9566V201H83.1326ZM96.2996 192.424C96.9716 192.424 97.5636 192.531 98.0756 192.744C98.5876 192.957 99.0196 193.256 99.3716 193.64C99.7343 194.013 100.006 194.467 100.188 195C100.369 195.533 100.46 196.125 100.46 196.776C100.46 197.437 100.369 198.035 100.188 198.568C100.017 199.091 99.7556 199.544 99.4036 199.928C99.0516 200.312 98.6143 200.605 98.0916 200.808C97.5796 201.011 96.9823 201.112 96.2996 201.112C95.6276 201.112 95.0356 201.011 94.5236 200.808C94.0116 200.595 93.5796 200.301 93.2276 199.928C92.8863 199.544 92.625 199.085 92.4436 198.552C92.273 198.019 92.1876 197.427 92.1876 196.776C92.1876 196.125 92.273 195.533 92.4436 195C92.625 194.467 92.8916 194.013 93.2436 193.64C93.5956 193.256 94.0276 192.957 94.5396 192.744C95.0516 192.531 95.6383 192.424 96.2996 192.424ZM96.2996 199.528C96.7156 199.528 97.0676 199.459 97.3556 199.32C97.6543 199.171 97.8943 198.973 98.0756 198.728C98.2676 198.483 98.4063 198.195 98.4916 197.864C98.5876 197.533 98.6356 197.176 98.6356 196.792C98.6356 196.408 98.5876 196.051 98.4916 195.72C98.4063 195.379 98.2676 195.085 98.0756 194.84C97.8943 194.595 97.6543 194.403 97.3556 194.264C97.0676 194.125 96.7156 194.056 96.2996 194.056C95.8943 194.056 95.5423 194.125 95.2436 194.264C94.9556 194.403 94.7156 194.595 94.5236 194.84C94.3423 195.085 94.2036 195.379 94.1076 195.72C94.0223 196.051 93.9796 196.408 93.9796 196.792C93.9796 197.176 94.0223 197.533 94.1076 197.864C94.2036 198.195 94.3423 198.483 94.5236 198.728C94.7156 198.973 94.9556 199.171 95.2436 199.32C95.5423 199.459 95.8943 199.528 96.2996 199.528ZM105.829 201.112C105.157 201.112 104.565 201.011 104.053 200.808C103.552 200.595 103.13 200.301 102.789 199.928C102.458 199.544 102.208 199.091 102.037 198.568C101.877 198.035 101.797 197.448 101.797 196.808C101.797 196.168 101.882 195.581 102.053 195.048C102.234 194.515 102.501 194.056 102.853 193.672C103.205 193.288 103.632 192.984 104.133 192.76C104.634 192.536 105.216 192.424 105.877 192.424C106.346 192.424 106.778 192.477 107.173 192.584C107.578 192.68 107.936 192.845 108.245 193.08C108.554 193.304 108.821 193.592 109.045 193.944C109.269 194.285 109.424 194.701 109.509 195.192H107.621C107.525 194.829 107.317 194.552 106.997 194.36C106.688 194.157 106.304 194.056 105.845 194.056C105.44 194.056 105.093 194.131 104.805 194.28C104.517 194.429 104.282 194.632 104.101 194.888C103.92 195.144 103.786 195.443 103.701 195.784C103.626 196.115 103.589 196.461 103.589 196.824C103.589 197.197 103.632 197.549 103.717 197.88C103.802 198.211 103.936 198.499 104.117 198.744C104.309 198.979 104.549 199.171 104.837 199.32C105.125 199.459 105.472 199.528 105.877 199.528C106.357 199.528 106.752 199.421 107.061 199.208C107.381 198.995 107.584 198.712 107.669 198.36H109.541C109.456 198.84 109.296 199.256 109.061 199.608C108.837 199.96 108.56 200.248 108.229 200.472C107.898 200.696 107.53 200.861 107.125 200.968C106.72 201.064 106.288 201.112 105.829 201.112ZM117.677 192.568V194.152H114.829V201H113.021V194.152H110.173V192.568H117.677ZM118.726 192.568H120.55V195.416H122.438C122.929 195.416 123.372 195.459 123.766 195.544C124.172 195.619 124.518 195.763 124.806 195.976C125.105 196.189 125.334 196.467 125.494 196.808C125.665 197.149 125.75 197.571 125.75 198.072C125.75 198.637 125.644 199.112 125.43 199.496C125.228 199.869 124.956 200.168 124.614 200.392C124.284 200.616 123.905 200.776 123.478 200.872C123.052 200.957 122.62 201 122.182 201H118.726V192.568ZM121.974 199.48C122.22 199.48 122.46 199.464 122.694 199.432C122.94 199.389 123.148 199.325 123.318 199.24C123.5 199.144 123.644 199.011 123.75 198.84C123.868 198.669 123.932 198.445 123.942 198.168C123.942 197.869 123.878 197.64 123.75 197.48C123.622 197.32 123.462 197.203 123.27 197.128C123.078 197.053 122.865 197.011 122.63 197C122.406 196.989 122.198 196.984 122.006 196.984H120.55V199.464L121.974 199.48Z" fill="#0C54A0"/>
</svg>
