<svg width="18" height="10" viewBox="0 0 18 10" fill="none" xmlns="http://www.w3.org/2000/svg">
<path d="M0.373837 0.412368C0.493347 0.281703 0.63553 0.17799 0.792189 0.107215C0.948849 0.0364386 1.11688 0 1.28659 0C1.4563 0 1.62433 0.0364386 1.78099 0.107215C1.93765 0.17799 2.07983 0.281703 2.19934 0.412368L8.08725 6.79728C8.20676 6.92795 8.34894 7.03166 8.5056 7.10244C8.66226 7.17321 8.83029 7.20965 9 7.20965C9.16971 7.20965 9.33774 7.17321 9.4944 7.10244C9.65106 7.03166 9.79324 6.92795 9.91276 6.79728L15.8007 0.412368C15.9202 0.281703 16.0624 0.17799 16.219 0.107215C16.3757 0.0364386 16.5437 0 16.7134 0C16.8831 0 17.0512 0.0364386 17.2078 0.107215C17.3645 0.17799 17.5067 0.281703 17.6262 0.412368C17.8656 0.673568 18 1.0269 18 1.3952C18 1.7635 17.8656 2.11683 17.6262 2.37803L11.7254 8.77688C11.0023 9.56008 10.022 10 9 10C7.97797 10 6.99773 9.56008 6.2746 8.77688L0.373837 2.37803C0.134399 2.11683 0 1.7635 0 1.3952C0 1.0269 0.134399 0.673568 0.373837 0.412368Z" fill="#0260A2"/>
</svg>
