<svg width="666" height="636" viewBox="0 0 666 636" fill="none" xmlns="http://www.w3.org/2000/svg">
<path fill-rule="evenodd" clip-rule="evenodd" d="M194.887 0.616074C210.053 25.9853 231.08 46.5473 255.053 64.4422C271.553 76.9717 289.23 87.5474 307.497 96.8205C309.079 97.6268 310.723 97.8439 312.119 98.1541C311.87 98.6813 311.591 99.2085 311.343 99.7358L305.389 97.5338C258.31 80.3522 210.704 63.884 162.136 50.8582C139.931 44.6865 117.508 39.3832 94.1234 39.104C80.1983 39.042 66.4592 40.5617 53.4645 44.9036C47.1377 47.0435 41.028 49.8038 35.1354 53.4324C8.89782 69.5285 -1.61582 93.471 0.927301 123.74C3.03623 147.125 13.0226 167.594 26.1724 186.481C45.8041 214.703 71.0492 236.847 99.5508 255.579C149.483 289.074 201.958 317.762 255.736 344.744C303.931 369.152 353.057 391.667 402.896 412.385C404.043 412.757 405.004 413.222 405.935 414.494C404.911 414.556 403.578 414.494 402.244 414.432L257.441 404.352C224.412 402.615 191.506 404.228 158.911 409.935C144.242 412.447 129.851 415.672 115.988 420.324C101.07 425.348 86.7421 432.016 73.4373 441.227C41.8033 463.092 23.3812 493.082 22.2647 531.911C21.7065 556.722 29.5 574.5 47 588C81 620.5 145 629 240 631C335 633 546.084 658.5 619.5 559.5C692.916 460.5 666.795 217.991 622.503 135.712C578.212 53.4324 561.593 48.9044 525.71 0.616074H194.887Z" fill="#FCFBFB"/>
<path fill-rule="evenodd" clip-rule="evenodd" d="M439.957 546.178L462.07 631H356.964L353.863 620.486L348.839 631H240.694L280.764 477.792L439.957 546.178Z" fill="#231F20"/>
<path fill-rule="evenodd" clip-rule="evenodd" d="M288.548 308.582C336.868 307.465 379.201 305.294 427.427 330.726C433.94 368.655 406.462 525.709 399.081 556.35C399.081 556.35 336.061 565.716 291.215 546.612C291.215 546.612 285.757 336.525 288.548 308.582Z" fill="#F7F7F7"/>
<path fill-rule="evenodd" clip-rule="evenodd" d="M397.282 546.612L324.803 545.961C325.051 553.652 325.33 561.374 325.485 569.097L398.616 567.794C397.065 561.188 397.189 553.745 397.282 546.612Z" fill="#8F4B2D"/>
<path fill-rule="evenodd" clip-rule="evenodd" d="M335.441 572.229H373.588V539.696H335.441V572.229Z" fill="#BD874B"/>
<path fill-rule="evenodd" clip-rule="evenodd" d="M374.766 315.901C373.029 327.438 362.764 335.471 351.351 333.734C339.938 332.028 332.526 321.328 334.293 309.791L338.294 283.337C340.031 271.8 350.296 263.767 361.709 265.504C373.122 267.241 380.535 277.94 378.798 289.477L374.766 315.901Z" fill="#D27A6A"/>
<path fill-rule="evenodd" clip-rule="evenodd" d="M408.354 261.286C405.997 277.723 386.489 288.423 373.96 292.889C361.399 297.355 351.568 293.788 351.568 293.788C307.063 276.266 313.638 254.773 313.793 236.134C313.886 226.985 315.22 210.052 322.322 189.955C323.283 187.225 324.524 184.806 326.013 182.666C335.41 168.772 353.181 165.547 353.181 165.547C363.787 163.531 375.417 164.492 385.559 167.997C400.29 173.083 410.959 182.728 412.448 198.825C412.944 204.035 412.82 209.276 412.665 214.486C412.386 225.217 411.455 235.917 410.277 246.586C409.687 251.486 409.067 256.386 408.354 261.286Z" fill="#EEC3B4"/>
<path fill-rule="evenodd" clip-rule="evenodd" d="M353.956 245.19C355.104 248.943 358.422 252.478 361.958 253.75C368.253 255.983 374.921 247.981 373.774 246.648C358.391 257.378 351.94 238.553 353.956 245.19Z" fill="#D67E69"/>
<path fill-rule="evenodd" clip-rule="evenodd" d="M381.961 201.616C381.961 201.616 403.485 200.592 407.734 216.998C407.734 216.998 385.435 206.423 380.473 209.245L381.961 201.647V201.616Z" fill="#2D2929"/>
<path fill-rule="evenodd" clip-rule="evenodd" d="M356.592 199.569C356.592 199.569 336.836 190.947 327.036 204.779C327.036 204.779 351.63 202.794 355.258 207.229L356.592 199.569Z" fill="#2D2929"/>
<path fill-rule="evenodd" clip-rule="evenodd" d="M347.877 221.682C347.536 225.496 344.869 228.411 341.892 228.163C338.914 227.915 336.743 224.597 337.084 220.782C337.395 216.936 340.062 214.052 343.039 214.3C346.016 214.548 348.187 217.836 347.877 221.682Z" fill="#2D2929"/>
<path fill-rule="evenodd" clip-rule="evenodd" d="M394.46 227.45C394.15 231.296 391.452 234.18 388.474 233.932C385.497 233.684 383.357 230.365 383.667 226.551C383.977 222.705 386.676 219.821 389.622 220.069C392.63 220.317 394.77 223.604 394.429 227.45H394.46Z" fill="#2D2929"/>
<path fill-rule="evenodd" clip-rule="evenodd" d="M400.104 145.667C393.374 140.054 383.822 136.084 375.045 135.122C370.331 134.626 365.555 134.905 360.872 135.867C349.428 138.224 335.41 143.961 330.665 155.622C330.013 157.235 329.61 158.91 329.362 160.616C329.207 161.701 329.641 165.051 329.052 165.826C328.742 166.198 329.176 166.725 329.517 166.539L330.013 166.353L330.231 165.95C335.968 162.569 342.016 180.061 344.745 183.132C355.104 194.886 371.975 198.855 386.675 197.15C403.175 195.196 412.913 193.738 424.078 181.767C428.823 176.278 416.759 158.445 400.104 145.667Z" fill="#393434"/>
<path fill-rule="evenodd" clip-rule="evenodd" d="M411.672 229.993C411.672 229.993 425.194 208.625 430.777 227.915C435.243 243.236 422.062 255.642 413.316 253.284C404.539 250.958 411.672 229.993 411.672 229.993Z" fill="#EEC3B4"/>
<path fill-rule="evenodd" clip-rule="evenodd" d="M411.734 233.622C411.734 233.622 421.442 220.069 424.512 225.93C427.613 231.792 426.466 239.018 426.466 239.018C426.466 239.018 424.822 230.986 418.681 235.172C418.681 235.172 424.109 248.229 412.386 243.918C412.386 243.918 407.61 239.762 411.734 233.622Z" fill="#D27A6A"/>
<path fill-rule="evenodd" clip-rule="evenodd" d="M341.085 166.539C341.085 166.539 339.41 185.427 330.292 193.304C321.143 201.213 317.608 219.573 317.608 219.573C317.608 219.573 294.72 178.945 330.199 162.663C330.199 162.663 337.053 161.05 341.085 166.539Z" fill="#393434"/>
<path fill-rule="evenodd" clip-rule="evenodd" d="M402.399 183.318C402.399 183.318 412.882 202.856 411.859 228.474C411.859 228.474 434.561 203.663 420.449 177.673C420.449 177.673 402.306 166.508 402.399 183.318Z" fill="#393434"/>
<path fill-rule="evenodd" clip-rule="evenodd" d="M318.756 219.449C318.756 219.449 312.15 195.041 301.109 211.788C292.332 225.124 301.233 240.848 310.289 241.22C319.345 241.592 318.756 219.449 318.756 219.449Z" fill="#EEC3B4"/>
<path fill-rule="evenodd" clip-rule="evenodd" d="M317.608 222.922C317.608 222.922 312.367 207.105 307.684 211.788C303.001 216.471 301.946 223.697 301.946 223.697C301.946 223.697 305.885 216.502 310.537 222.333C310.537 222.333 301.481 233.188 313.979 232.536C313.979 232.536 319.748 229.993 317.608 222.922Z" fill="#D27A6A"/>
<path fill-rule="evenodd" clip-rule="evenodd" d="M340.248 256.045C340.248 256.045 358.329 288.826 383.667 261.689C383.667 261.689 364.408 270.931 340.248 256.045Z" fill="#CB463F"/>
<path fill-rule="evenodd" clip-rule="evenodd" d="M406.369 246.493C405.811 249.997 400.911 252.168 395.359 251.331C389.808 250.493 385.745 246.958 386.272 243.453C386.831 239.918 391.731 237.747 397.282 238.584C402.834 239.453 406.896 242.957 406.369 246.493Z" fill="#DC978C"/>
<path fill-rule="evenodd" clip-rule="evenodd" d="M340.186 236.475C339.659 239.98 334.759 242.151 329.207 241.313C323.656 240.476 319.593 236.94 320.151 233.436C320.647 229.9 325.579 227.729 331.13 228.567C336.682 229.404 340.744 232.94 340.186 236.475Z" fill="#DC978C"/>
<path fill-rule="evenodd" clip-rule="evenodd" d="M389.187 242.244C378.053 240.042 376.751 235.266 375.634 231.079L375.417 230.303C374.022 225.341 374.115 221.62 374.301 219.914C375.945 219.232 377.588 218.642 379.294 218.177C395.08 213.711 408.757 219.573 412.541 221.464C412.386 223.325 411.486 227.853 407.578 235.452C405.997 238.553 403.237 240.662 399.453 241.716C395.111 242.461 393.56 242.492 389.187 242.244ZM341.023 235.266C340.961 235.266 335.72 234.955 331.161 232.381C327.687 230.427 325.547 227.76 324.71 224.38C322.694 216.068 322.911 211.447 323.159 209.586C327.315 208.656 341.985 206.175 356.282 214.207C357.802 215.045 359.29 216.006 360.717 217.061C360.469 218.735 359.693 222.395 357.181 226.861L356.809 227.574C354.731 231.389 352.374 235.731 341.023 235.266ZM411.238 237.343C417.162 225.899 416.759 220.565 416.697 219.976L416.572 218.952L415.704 218.425C414.991 218.022 398.522 208.532 378.333 214.238C376.162 214.859 374.053 215.634 372.068 216.595L372.13 216.223L365.121 215.448L365.059 215.107L364.159 214.486C362.299 213.029 360.314 211.726 358.298 210.579C340.031 200.313 321.609 205.679 320.833 205.927L319.841 206.237L319.5 207.198C319.283 207.725 317.639 212.812 320.709 225.341C321.826 229.869 324.679 233.436 329.145 235.979C334.572 239.018 340.527 239.39 340.806 239.39C354.731 239.949 358.143 233.715 360.407 229.559L360.779 228.877C362.392 226.055 363.353 223.449 363.973 221.371C365.369 220.999 367.447 221.03 370.114 222.426C370.145 224.721 370.455 227.791 371.448 231.42L371.665 232.133C372.874 236.692 374.735 243.577 388.412 246.275C388.691 246.337 394.553 247.392 400.569 245.686C405.501 244.291 409.098 241.468 411.238 237.343Z" fill="#63392F"/>
<path fill-rule="evenodd" clip-rule="evenodd" d="M344.404 258.681C344.404 258.681 360.19 278.313 379.945 262.868C379.945 262.868 366.144 268.977 344.404 258.681Z" fill="white"/>
<path fill-rule="evenodd" clip-rule="evenodd" d="M159.283 204.686C147.374 200.778 141.977 207.26 137.79 215.944C137.356 210.175 137.015 204.376 137.015 198.514C137.015 194.421 137.542 190.327 134.348 187.318C130.161 183.349 126.408 187.629 124.268 192.374C122.904 188.869 120.64 186.109 116.143 186.264C112.204 186.419 110.84 191.071 109.816 195.258C108.11 190.637 105.195 185.923 100.233 186.946C95.4258 187.939 94.9916 193.304 94.6504 197.708C87.6413 193.304 82.8342 201.833 82.369 210.144C81.4386 228.039 93.4409 239.514 101.442 253.657L101.194 254.587C101.846 257.068 103.179 259.084 104.885 260.604L105.04 261.007L105.97 261.472C110.157 264.418 116.081 264.697 120.671 261.658C124.92 258.805 137.17 276.917 133.821 257.937C138.814 254.804 141.543 244.135 144.21 237.033C148.242 226.303 148.831 214.859 159.531 208.222C160.865 207.384 160.958 205.244 159.283 204.686Z" fill="#EEC3B4"/>
<path fill-rule="evenodd" clip-rule="evenodd" d="M122.78 237.623H123.028C123.865 237.499 124.424 236.723 124.3 235.855C121.787 219.045 136.209 216.223 136.798 216.13C137.201 216.037 137.977 215.975 137.791 215.51C137.573 215.014 138.38 209.679 135.62 213.153C132.425 213.99 118.624 218.673 121.26 236.289C121.384 237.064 122.005 237.623 122.78 237.623Z" fill="#D27A6A"/>
<path fill-rule="evenodd" clip-rule="evenodd" d="M102.621 19.5344L82.7103 98.4022L6.72681 126.532L75.298 170.044L78.5545 251.424L140.83 199.445L218.86 221.62L188.777 145.946L233.716 78.3053L152.863 83.5156L102.621 19.5344Z" fill="#E69B36"/>
<path fill-rule="evenodd" clip-rule="evenodd" d="M265.443 302.41C265.443 302.41 209.029 321.453 194.577 317.204C180.093 312.924 150.847 243.267 150.847 243.267L91.5492 250.679C91.5492 250.679 116.267 398.056 163.315 405.965C210.363 413.873 272.917 392.815 272.917 392.815L265.443 302.41Z" fill="#C52552"/>
<path fill-rule="evenodd" clip-rule="evenodd" d="M381.496 317.049C383.822 318.661 377.061 353.831 376.658 356.994C373.278 388.907 371.634 421.006 371.727 453.106C371.975 488.926 378.643 524.375 391.452 557.591C397.189 572.942 403.857 587.953 410.866 602.716C417.906 617.478 431.676 620.021 446.377 618.905C462.07 617.695 477.608 614.656 492.68 609.818C498.077 608.608 503.039 605.693 506.853 601.506C512.87 593.443 506.326 582.526 502.884 574.803C498.015 563.793 493.363 552.629 488.99 541.495C482.043 523.445 463.279 480.274 458.503 461.479C452.269 437.072 461.511 437.01 460.426 411.764C459.961 401.592 459.837 391.388 459.465 381.185C459.247 375.075 460.984 355.847 457.201 351.226C428.203 316.118 381.496 317.049 381.496 317.049Z" fill="#C52552"/>
<path fill-rule="evenodd" clip-rule="evenodd" d="M265.35 302.658C264.389 302.844 241.128 388.194 240.787 392.04C238.306 421.037 211.851 556.846 228.134 591.52C254.433 611.151 323.718 620.765 338.573 599.924C306.691 434.187 327.656 307.993 328.432 307.931C328.401 307.931 290.13 298.006 265.35 302.658Z" fill="#C52552"/>
<path fill-rule="evenodd" clip-rule="evenodd" d="M325.113 500.464L272.886 407.33L302.504 364.376L279.802 348.714L306.412 304.767L330.944 306.783C316.647 371.695 317.391 434.56 325.113 500.464Z" fill="#A51F45"/>
<path fill-rule="evenodd" clip-rule="evenodd" d="M401.004 318.785L416.759 362.205L392.289 374.734L415.983 421.162C402.182 443.584 391.855 443.988 374.58 488.43C369.99 439.584 372.347 381.278 382.737 313.947C388.815 314.878 394.894 317.824 401.004 318.785Z" fill="#A51F45"/>
<path fill-rule="evenodd" clip-rule="evenodd" d="M336.34 293.851L318.291 311.59L329.766 352.094L355.073 332.028C355.073 332.028 337.922 310.071 336.34 293.851Z" fill="white"/>
<path fill-rule="evenodd" clip-rule="evenodd" d="M378.054 296.704L393.561 316.708L376.751 355.289L354.359 332.028C354.359 332.028 374.332 312.552 378.054 296.704Z" fill="white"/>
<path fill-rule="evenodd" clip-rule="evenodd" d="M354.359 331.501L365.183 343.968L355.103 349.799C355.103 349.799 358.918 425.659 393.312 439.243C427.737 452.826 441.755 450.283 441.755 450.283L459.123 477.358C459.123 477.358 428.14 483.53 425.907 484.088C423.706 484.616 360.841 464.271 354.049 423.55C349.986 399.545 348.032 375.199 348.218 350.822L342.512 342.232L354.359 331.501Z" fill="#393434"/>
<path fill-rule="evenodd" clip-rule="evenodd" d="M566.369 357.584L559.173 321.236C559.173 321.236 543.605 309.636 539.79 300.27C535.944 290.935 530.827 273.009 535.107 272.513C539.418 272.017 541.651 280.173 550.924 290.253C550.924 290.253 549.373 241.778 555.452 239.577C561.53 237.375 563.05 242.182 562.988 245.779C562.988 245.779 565.965 237.095 570.028 239.452C572.478 240.972 574.029 243.608 574.184 246.493C574.184 246.493 575.611 239.204 579.084 241.592C581.224 243.67 582.341 246.617 582.124 249.625C582.124 249.625 584.295 241.872 587.303 245.872C590.311 249.842 600.732 356.312 600.732 356.312L566.369 357.584Z" fill="#FABFB1"/>
<path fill-rule="evenodd" clip-rule="evenodd" d="M576.665 301.666C576.107 301.914 575.394 301.728 574.835 301.17C566.183 292.145 553.312 292.052 553.188 292.021C552.288 292.052 551.389 291.183 551.203 290.129C551.017 289.074 551.575 288.175 552.475 288.175C553.064 288.175 566.865 288.268 576.696 298.502C577.41 299.216 577.596 300.363 577.099 301.046C577.099 301.077 577.068 301.108 577.037 301.139C576.975 301.356 576.851 301.542 576.665 301.666Z" fill="#D27A6A"/>
<path fill-rule="evenodd" clip-rule="evenodd" d="M566.276 277.723C566.058 277.816 565.81 277.847 565.562 277.847C564.663 277.692 563.95 276.7 563.887 275.707L562.771 244.353C562.771 243.36 563.453 242.678 564.353 242.802C565.221 242.988 565.965 243.918 566.027 244.911L567.144 276.266C567.113 276.948 566.803 277.506 566.276 277.723Z" fill="#D27A6A"/>
<path fill-rule="evenodd" clip-rule="evenodd" d="M586.341 282.809C586.186 282.933 585.969 283.027 585.783 283.089C584.915 282.996 584.108 282.127 584.015 281.104V281.073L581.193 251.889C581.1 250.865 581.751 250.09 582.62 250.152C583.488 250.214 584.295 251.113 584.419 252.168L587.179 281.321C587.21 282.003 586.869 282.592 586.341 282.809Z" fill="#D27A6A"/>
<path fill-rule="evenodd" clip-rule="evenodd" d="M576.479 279.522C576.293 279.646 576.107 279.739 575.89 279.739C575.021 279.646 574.277 278.716 574.246 277.692V277.661L573.005 248.353C572.974 247.33 573.626 246.586 574.494 246.71C575.394 246.834 576.138 247.764 576.2 248.788L577.378 278.065C577.378 278.778 577.037 279.367 576.479 279.522Z" fill="#D27A6A"/>
<path fill-rule="evenodd" clip-rule="evenodd" d="M446.129 340.247C456.829 350.543 535.882 430.807 541.806 416.013C547.73 401.22 551.947 333.331 551.947 333.331L606.066 341.394C606.066 341.394 637.266 494.261 582.992 511.101C528.718 527.973 446.129 447.709 446.129 447.709V340.247Z" fill="#C52552"/>
</svg>
