<svg width="27" height="22" viewBox="0 0 27 22" fill="none" xmlns="http://www.w3.org/2000/svg">
<path d="M0 10.9807C0 11.3975 0.165561 11.7972 0.460261 12.0919C0.754961 12.3866 1.15466 12.5521 1.57143 12.5521L22.2954 12.505L15.5021 19.2983C15.3521 19.4432 15.2323 19.6166 15.15 19.8083C15.0676 20.0001 15.0243 20.2063 15.0225 20.4149C15.0207 20.6236 15.0604 20.8305 15.1394 21.0236C15.2184 21.2167 15.3351 21.3922 15.4827 21.5397C15.6302 21.6873 15.8057 21.804 15.9988 21.883C16.1919 21.962 16.3988 22.0018 16.6075 21.9999C16.8161 21.9981 17.0223 21.9548 17.2141 21.8724C17.4058 21.7901 17.5792 21.6703 17.7241 21.5203L24.9307 14.3137C25.8145 13.4296 26.311 12.2307 26.311 10.9807C26.311 9.73063 25.8145 8.53175 24.9307 7.64769L17.7273 0.441119C17.4309 0.154871 17.034 -0.00352097 16.6219 5.94039e-05C16.2099 0.00363978 15.8158 0.168906 15.5244 0.460261C15.2331 0.751617 15.0678 1.14575 15.0642 1.55777C15.0606 1.9698 15.219 2.36674 15.5053 2.66312L22.2027 9.36212L1.57143 9.40926C1.15466 9.40926 0.754961 9.57482 0.460261 9.86952C0.165561 10.1642 0 10.5639 0 10.9807Z" fill="white"/>
</svg>
