<svg width="40" height="40" viewBox="0 0 40 40" fill="none" xmlns="http://www.w3.org/2000/svg">
<circle cx="20" cy="20" r="20" fill="#C52552"/>
<path d="M8 19.9837C8 20.3373 8.14048 20.6765 8.39052 20.9265C8.64057 21.1766 8.97971 21.317 9.33333 21.317L26.9173 21.277L21.1533 27.041C21.026 27.164 20.9244 27.3112 20.8545 27.4738C20.7847 27.6365 20.7479 27.8115 20.7463 27.9885C20.7448 28.1655 20.7785 28.3411 20.8456 28.505C20.9126 28.6688 21.0116 28.8177 21.1368 28.9429C21.262 29.0681 21.4109 29.1671 21.5747 29.2341C21.7386 29.3012 21.9142 29.3349 22.0912 29.3334C22.2682 29.3318 22.4432 29.295 22.6059 29.2252C22.7685 29.1553 22.9157 29.0537 23.0387 28.9264L29.1533 22.8117C29.9032 22.0616 30.3245 21.0444 30.3245 19.9837C30.3245 18.923 29.9032 17.9058 29.1533 17.1557L23.0413 11.041C22.7899 10.7982 22.4531 10.6638 22.1035 10.6668C21.7539 10.6698 21.4195 10.8101 21.1722 11.0573C20.925 11.3045 20.7848 11.6389 20.7818 11.9885C20.7787 12.3381 20.9131 12.6749 21.156 12.9264L26.8387 18.6104L9.33333 18.6504C8.97971 18.6504 8.64057 18.7908 8.39052 19.0409C8.14048 19.2909 8 19.6301 8 19.9837Z" fill="white"/>
</svg>
