<svg width="18" height="18" viewBox="0 0 18 18" fill="none" xmlns="http://www.w3.org/2000/svg">
<path d="M16.7144 1.28568C16.4733 1.04465 16.1464 0.909241 15.8054 0.909241C15.4645 0.909241 15.1375 1.04465 14.8964 1.28568L9.00015 7.18197L3.10386 1.28568C2.86276 1.04465 2.53579 0.909241 2.19486 0.909241C1.85394 0.909241 1.52697 1.04465 1.28586 1.28568C1.04483 1.52679 0.909424 1.85376 0.909424 2.19468C0.909424 2.53561 1.04483 2.86257 1.28586 3.10368L7.18215 8.99997L1.28586 14.8963C1.04483 15.1374 0.909424 15.4643 0.909424 15.8053C0.909424 16.1462 1.04483 16.4731 1.28586 16.7143C1.52697 16.9553 1.85394 17.0907 2.19486 17.0907C2.53579 17.0907 2.86276 16.9553 3.10386 16.7143L9.00015 10.818L14.8964 16.7143C15.1375 16.9553 15.4645 17.0907 15.8054 17.0907C16.1464 17.0907 16.4733 16.9553 16.7144 16.7143C16.9555 16.4731 17.0909 16.1462 17.0909 15.8053C17.0909 15.4643 16.9555 15.1374 16.7144 14.8963L10.8181 8.99997L16.7144 3.10368C16.9555 2.86257 17.0909 2.53561 17.0909 2.19468C17.0909 1.85376 16.9555 1.52679 16.7144 1.28568Z" fill="#0260A2"/>
</svg>
