<svg width="38" height="38" viewBox="0 0 38 38" fill="none" xmlns="http://www.w3.org/2000/svg">
<rect width="38" height="38" rx="19" fill="#F1F1F1"/>
<path d="M27.5813 10.4187C27.3131 10.1506 26.9493 10 26.5701 10C26.1909 10 25.8271 10.1506 25.5589 10.4187L19 16.9777L12.4411 10.4187C12.1729 10.1506 11.8091 10 11.4299 10C11.0507 10 10.6869 10.1506 10.4187 10.4187C10.1506 10.6869 10 11.0507 10 11.4299C10 11.8091 10.1506 12.1729 10.4187 12.4411L16.9777 19L10.4187 25.5589C10.1506 25.8271 10 26.1909 10 26.5701C10 26.9493 10.1506 27.3131 10.4187 27.5813C10.6869 27.8494 11.0507 28 11.4299 28C11.8091 28 12.1729 27.8494 12.4411 27.5813L19 21.0223L25.5589 27.5813C25.8271 27.8494 26.1909 28 26.5701 28C26.9493 28 27.3131 27.8494 27.5813 27.5813C27.8494 27.3131 28 26.9493 28 26.5701C28 26.1909 27.8494 25.8271 27.5813 25.5589L21.0223 19L27.5813 12.4411C27.8494 12.1729 28 11.8091 28 11.4299C28 11.0507 27.8494 10.6869 27.5813 10.4187Z" fill="#0C54A0"/>
</svg>
