<svg width="141" height="493" viewBox="0 0 141 493" fill="none" xmlns="http://www.w3.org/2000/svg">
<path d="M135 412.608C135 427.529 132.156 440.175 126.43 450.545C123.028 456.7 118.938 461.96 114.141 466.343L134.07 491H104.53L93.9892 478.354C86.7203 480.965 78.8936 482.271 70.4721 482.271C58.3325 482.271 47.4012 479.529 37.6783 474.12C27.9555 468.693 20.2404 460.803 14.5517 450.452C8.84436 440.1 6 427.491 6 412.608C6 397.705 8.84436 385.059 14.5517 374.689C20.2404 364.337 27.9555 356.448 37.6783 351.076C47.4012 345.667 58.3325 343 70.4721 343C82.5746 343 93.4872 345.667 103.229 351.076C112.989 356.448 120.704 364.337 126.43 374.689C132.156 385.059 135 397.705 135 412.608ZM59.1319 431.688H85.5119L93.8405 442.357C95.4207 440.193 96.7592 437.731 97.8746 434.989C100.384 428.89 101.63 421.43 101.63 412.608C101.63 403.785 100.384 396.325 97.8746 390.244C95.4021 384.164 91.8327 379.557 87.185 376.424C82.556 373.29 76.9788 371.705 70.4721 371.705C64.0026 371.705 58.4626 373.29 53.7778 376.424C49.1115 379.557 45.5422 384.164 43.0696 390.244C40.5971 396.325 39.3143 403.785 39.3143 412.608C39.3143 421.43 40.5971 428.89 43.0696 434.989C45.5422 441.07 49.1115 445.695 53.7778 448.829C58.4626 451.981 64.0026 453.529 70.4721 453.529C72.1639 453.529 73.7812 453.417 75.3428 453.212L59.1319 431.688Z" stroke="#0260A2" stroke-width="3.99987"/>
<path d="M38.1761 313H3L48.7084 177H92.2916L138 313H102.824L93.8948 284.449H47.0866L38.1761 313ZM86.0841 259.491L71.0033 211.276H69.9408L54.8786 259.491H86.0841Z" stroke="#0260A2" stroke-width="3.99987"/>
<path d="M25 138V2H116V28.6986H57.2288V56.5946H110.204V83.3306H57.2288V138H25Z" stroke="#0260A2" stroke-width="3.99987"/>
</svg>
