<svg width="552" height="565" viewBox="0 0 552 565" fill="none" xmlns="http://www.w3.org/2000/svg">
<path d="M192.387 357.727L0 542.33H61.9796L218.148 393.205L192.387 357.727Z" fill="#EBEBEB"/>
<path d="M551.795 542.76C551.21 543.05 431.733 543.281 283.046 543.281H275.897H268.781C119.671 543.281 0 543.05 0 542.76C0 542.471 123.506 542.24 275.897 542.24C427.899 542.24 551.177 542.471 551.795 542.76Z" fill="#C3CACD"/>
<path d="M440.796 464.17L519.824 542.24L540.744 542.181V464.17H440.796Z" fill="#E4E4E4"/>
<path d="M505.276 471.456L425.179 542.24L481.11 542.151L528.25 502.83L505.276 471.456Z" fill="#E4E4E4"/>
<path d="M294.638 290.303L385.703 373.608L387.298 287.211L294.638 290.303Z" fill="#E5E5E5"/>
<path d="M355.905 293.457L111.4 542.24H159.591L377.927 321.734L355.905 293.457Z" fill="#E5E5E5"/>
<path d="M118.012 350.779L225.131 457.044L230.711 350.779H118.012Z" fill="#EBEBEB"/>
<path d="M362.311 261.188L550.754 448.556V261.188H362.311Z" fill="#DDEBF2"/>
<path d="M486.645 265.351C482.351 268.769 210.307 542.24 210.307 542.24H327.505L541.384 327.655L486.645 265.351Z" fill="#DDEBF2"/>
<path d="M461.716 506.37C462.351 501.893 456.003 498.185 451.258 497.818C448.986 497.617 446.647 497.985 444.509 497.217C439.831 495.613 437.994 489.6 433.45 487.696C430.042 486.259 426.132 487.529 422.858 489.166C419.55 490.836 416.309 492.907 412.634 493.141C409.46 493.375 405.985 492.172 403.178 493.742C401.107 494.911 400.004 497.283 398.066 498.72C396.195 500.089 393.756 500.39 391.417 500.524C389.078 500.657 386.672 500.657 384.534 501.66C382.429 502.628 380.658 504.867 381.126 507.138L461.716 506.37Z" fill="#FEFEFE"/>
<path d="M502.056 188.046C503.481 178.062 489.232 169.791 478.583 168.972C473.483 168.525 468.234 169.344 463.434 167.631C452.935 164.054 448.81 150.642 438.611 146.395C430.962 143.191 422.187 146.023 414.838 149.674C407.413 153.399 400.139 158.019 391.889 158.54C384.765 159.062 376.966 156.38 370.666 159.882C366.016 162.489 363.542 167.78 359.192 170.984C354.992 174.038 349.518 174.709 344.268 175.007C339.018 175.305 333.619 175.305 328.819 177.54C324.095 179.701 320.12 184.693 321.17 189.76L502.056 188.046Z" fill="#FEFEFE"/>
<path d="M548.988 30.0324C549.995 23.0666 539.923 17.2964 532.395 16.7245C528.79 16.4126 525.079 16.9845 521.686 15.7888C514.264 13.2936 511.349 3.93653 504.139 0.973455C498.731 -1.26185 492.529 0.713536 487.334 3.26074C482.085 5.85993 476.943 9.08292 471.112 9.44681C466.075 9.81069 460.562 7.93928 456.109 10.3825C452.822 12.2019 451.072 15.8928 447.998 18.1281C445.029 20.2594 441.159 20.7273 437.448 20.9352C433.737 21.1432 429.92 21.1432 426.527 22.7027C423.188 24.2102 420.378 27.6931 421.12 31.228L548.988 30.0324Z" fill="#FEFEFE"/>
<path d="M182.302 499.855L183.336 526.765C183.336 526.765 156.322 536.835 156.021 541.803L208.249 541.737L208.383 499.755L182.302 499.855Z" fill="#29383E"/>
<path d="M208.249 541.736L208.116 537.502L158.089 539.169C158.089 539.169 155.754 540.169 156.021 541.803L208.249 541.736Z" fill="#3F5E69"/>
<path d="M182.469 526.498C182.502 526.765 183.769 526.865 185.004 527.699C186.304 528.466 186.938 529.566 187.171 529.466C187.405 529.433 187.038 527.899 185.504 526.932C183.97 525.964 182.435 526.264 182.469 526.498Z" fill="#FEFEFE"/>
<path d="M176.999 528.765C176.932 529.032 178.066 529.466 178.933 530.533C179.834 531.567 180.034 532.734 180.301 532.734C180.534 532.768 180.701 531.267 179.6 529.966C178.5 528.632 176.999 528.532 176.999 528.765Z" fill="#FEFEFE"/>
<path d="M173.898 535.334C174.131 535.401 174.498 534.1 173.831 532.7C173.197 531.333 171.963 530.766 171.863 530.966C171.73 531.2 172.497 531.933 173.03 533.1C173.564 534.234 173.664 535.301 173.898 535.334Z" fill="#FEFEFE"/>
<path d="M182.935 520.329C183.035 520.563 184.203 520.229 185.637 520.329C187.104 520.363 188.205 520.863 188.338 520.63C188.505 520.463 187.405 519.529 185.703 519.429C184.002 519.329 182.802 520.129 182.935 520.329Z" fill="#FEFEFE"/>
<path d="M256.203 501.827L257.671 534.338L251.401 560.414C250.934 562.281 252.168 564.149 254.069 564.482C255.136 564.682 256.237 564.315 256.97 563.549C261.84 558.68 279.182 540.44 279.249 538.706C279.382 535.939 280.183 503.861 280.183 503.861L256.203 501.827Z" fill="#29383E"/>
<path d="M254.069 564.482L279.382 536.106L279.416 537.473C279.316 538.873 279.049 539.84 278.282 540.774C276.281 543.241 270.544 549.944 257.07 563.549C256.303 564.349 255.169 564.716 254.069 564.482Z" fill="#3F5E69"/>
<path d="M261.206 550.111C261.04 550.178 260.239 548.51 258.305 547.643C256.37 546.709 254.569 547.176 254.536 546.976C254.502 546.909 254.903 546.643 255.67 546.542C256.437 546.409 257.538 546.476 258.605 546.976C259.672 547.476 260.439 548.277 260.84 548.944C261.24 549.578 261.273 550.078 261.206 550.111Z" fill="#FEFEFE"/>
<path d="M258.972 554.513C258.839 554.646 257.771 553.612 256.07 553.178C254.369 552.678 252.935 553.045 252.868 552.845C252.768 552.678 254.336 551.944 256.27 552.478C258.172 553.012 259.139 554.413 258.972 554.513Z" fill="#FEFEFE"/>
<path d="M265.407 544.409C265.241 544.576 263.607 542.975 261.039 542.041C258.471 541.074 256.204 541.241 256.204 541.041C256.137 540.84 258.538 540.34 261.306 541.374C264.04 542.375 265.574 544.309 265.407 544.409Z" fill="#FEFEFE"/>
<path d="M265.774 534.505C265.708 534.672 263.907 533.972 261.539 533.938C259.205 533.871 257.371 534.505 257.304 534.305C257.204 534.138 259.038 533.171 261.573 533.238C264.074 533.271 265.874 534.338 265.774 534.505Z" fill="#FEFEFE"/>
<path d="M265.608 524.935C265.508 525.102 263.673 524.068 261.206 524.235C258.738 524.335 257.037 525.602 256.904 525.402C256.871 525.335 257.204 524.935 257.938 524.468C258.671 524.035 259.838 523.601 261.172 523.534C262.506 523.434 263.707 523.734 264.474 524.101C265.274 524.468 265.641 524.868 265.608 524.935Z" fill="#FEFEFE"/>
<path d="M201.997 3.02649C202.063 2.95981 202.864 3.45994 204.131 4.32682C205.432 5.1937 207.166 6.394 209.066 7.79434C210.934 9.19469 212.601 10.5284 213.802 11.4953C214.969 12.4955 215.669 13.129 215.636 13.1957C215.603 13.229 214.802 12.6956 213.568 11.762C212.201 10.7617 210.567 9.52811 208.766 8.19444C206.932 6.86078 205.298 5.62714 203.931 4.62689C202.697 3.69333 201.963 3.05984 201.997 3.02649Z" fill="#E0E0E0"/>
<path d="M212.802 244.045C212.835 244.111 212.135 244.845 210.901 246.212C209.7 247.546 207.999 249.647 206.098 252.448C202.296 258.05 197.827 267.119 195.526 278.557C193.258 289.994 193.758 300.998 194.959 308.534C195.559 312.335 196.26 315.336 196.793 317.37C197.327 319.404 197.661 320.505 197.594 320.538C197.594 320.572 197.494 320.305 197.294 319.771C197.127 319.271 196.827 318.504 196.56 317.47C195.926 315.47 195.193 312.469 194.526 308.667C193.191 301.098 192.625 289.927 194.926 278.323C197.227 266.686 201.829 257.549 205.765 252.014C207.733 249.213 209.5 247.212 210.768 245.912C211.368 245.245 211.901 244.812 212.235 244.511C212.602 244.178 212.769 244.045 212.802 244.045Z" fill="#29383E"/>
<path d="M283.112 271.354C283.112 271.354 287.714 286.526 287.081 305.233C286.814 312.469 283.701 513.306 283.701 513.306L250.784 514.707L239.288 326.54L236.62 327.241C236.62 327.241 222.079 408.069 221.145 421.107C220.312 432.811 208.772 518.141 208.772 518.141L178.79 517.308L183.559 407.336L190.162 299.431L193.064 267.953L283.112 271.354Z" fill="#3F5E69"/>
<path d="M191.824 156.481L215.537 147.477L221.874 140.075L251.523 137.174L263.863 148.078C263.863 148.078 288.076 153.88 289.21 156.647C290.31 159.448 277.87 234.608 277.87 234.608C277.87 234.608 277.203 276.056 273.601 277.723C269.966 279.39 221.574 297.197 200.929 276.189C200.529 275.789 194.626 182.023 194.359 181.189C194.059 180.356 191.824 156.481 191.824 156.481Z" fill="#FEFEFE"/>
<path d="M224.008 281.358L214.97 266.819L222.774 277.49L234.481 265.752L234.747 248.113C234.948 248.146 235.114 248.179 235.314 248.246L235.948 266.819L224.008 281.358ZM234.948 237.809H234.914V237.042L234.948 237.809Z" fill="#B5B6B5"/>
<path d="M229.411 165.35L213.769 265.219L222.774 277.49L234.48 265.752L235.948 165.35H229.411Z" fill="#3F5E69"/>
<path d="M226.91 160.481L229.411 165.349H235.947L238.082 160.682L234.113 155.547H230.845L227.177 160.448L226.91 160.481Z" fill="#3F5E69"/>
<path d="M249.522 155.013C249.555 155.047 249.322 155.28 248.888 155.714C248.388 156.18 247.754 156.747 246.987 157.448C245.219 159.048 242.885 161.116 240.117 163.583L239.883 163.783L239.716 163.516C238.049 161.049 236.014 158.281 233.68 155.547C233.18 154.947 232.679 154.38 232.179 153.813L232.646 153.78C230.011 157.081 227.577 160.082 225.542 162.616L225.375 162.816L225.175 162.649C223.074 160.782 221.64 158.981 220.74 157.681C220.273 157.047 219.939 156.514 219.739 156.147C219.539 155.78 219.439 155.58 219.439 155.58C219.506 155.547 220.006 156.281 220.973 157.514C221.94 158.748 223.408 160.482 225.509 162.249L225.142 162.283C227.143 159.748 229.544 156.714 232.146 153.38L232.413 153.079L232.646 153.38C233.146 153.946 233.647 154.513 234.18 155.113C236.515 157.881 238.549 160.682 240.183 163.183L239.75 163.15C242.551 160.749 244.953 158.715 246.754 157.214C247.554 156.547 248.221 156.014 248.788 155.547C249.255 155.18 249.522 155.013 249.522 155.013Z" fill="#29383E"/>
<path d="M253.457 138.141C253.457 138.141 240.95 203.197 242.151 214.868C243.318 226.539 247.12 257.049 249.288 271.421C251.223 284.459 255.658 304.299 257.893 313.936C258.56 316.904 262.062 322.639 264.93 321.772C279.404 317.47 293.812 309.101 296.713 307.5C296.713 307.5 293.512 276.156 284.84 255.349C283.807 252.914 278.704 239.91 278.704 239.91L283.773 151.645L272.367 148.444L263.396 146.277L253.457 138.141Z" fill="#C52552"/>
<path d="M242.985 224.904C242.985 224.904 243.018 224.571 243.118 223.971C243.218 223.337 243.485 222.47 243.785 221.337C244.452 219.069 245.486 215.835 246.854 211.867C249.589 203.897 253.557 192.96 258.026 180.956C260.361 174.854 262.529 169.051 264.53 163.783C265.03 162.449 265.53 161.182 265.997 159.948C266.231 159.315 266.531 158.715 266.631 158.148C266.698 157.547 266.631 156.947 266.397 156.447C266.164 155.914 265.764 155.48 265.33 155.147C264.863 154.88 264.296 154.646 263.763 154.413C262.729 153.946 261.728 153.479 260.761 153.046L260.328 152.879L260.761 152.646C261.662 152.212 262.529 151.779 263.363 151.379C264.163 151.012 264.663 150.245 264.73 149.478C264.863 148.711 264.563 148.044 264.13 147.477C263.763 146.91 263.329 146.444 262.929 146.077C262.095 145.276 261.395 144.743 260.928 144.376C260.428 144.009 260.228 143.743 260.261 143.709C260.294 143.709 260.328 143.776 260.428 143.876C260.561 143.976 260.728 144.109 260.995 144.276C261.495 144.61 262.229 145.11 263.096 145.877C263.529 146.277 263.963 146.744 264.396 147.31C264.797 147.844 265.23 148.644 265.097 149.545C264.997 150.378 264.463 151.279 263.563 151.712C262.729 152.146 261.862 152.579 260.961 153.046L260.928 152.646C261.895 153.079 262.929 153.513 263.963 153.98C264.496 154.213 265.03 154.38 265.597 154.746C266.131 155.08 266.598 155.613 266.864 156.214C267.165 156.814 267.265 157.547 267.165 158.214C267.031 158.948 266.731 159.515 266.531 160.148C266.064 161.382 265.564 162.683 265.097 163.983C263.096 169.252 260.928 175.054 258.627 181.156C254.158 193.193 250.122 204.097 247.287 212C245.887 215.968 244.786 219.169 244.052 221.403C243.719 222.537 243.385 223.404 243.252 224.004C243.118 224.604 243.018 224.904 242.985 224.904Z" fill="#29383E"/>
<path d="M189.29 308.834C193.125 304.066 195.226 292.895 198.395 283.859C199.128 281.725 199.995 279.124 200.929 276.189C201.33 276.59 201.73 276.956 202.13 277.323C199.095 289.427 196.027 301.098 195.026 303.199C192.892 307.6 189.49 308.768 189.29 308.834Z" fill="#242C2F"/>
<path d="M214.436 148.078C214.436 148.111 214.236 148.378 213.836 148.878C213.469 149.378 212.869 150.112 212.169 151.079C211.835 151.545 211.435 152.112 211.035 152.712C210.701 153.313 210.201 154.046 210.067 154.78C210.034 155.547 210.668 156.314 211.268 157.014C211.868 157.748 212.636 158.448 213.436 159.115L214.236 159.748L213.236 159.515C212.335 159.281 211.301 159.181 210.301 159.348C209.801 159.448 209.334 159.648 208.934 159.948L208.667 160.215L208.6 160.282V160.449C208.567 160.715 208.567 160.982 208.567 161.282C208.633 163.55 208.967 165.984 209.267 168.518C209.901 173.586 210.701 179.155 211.602 184.957C213.469 197.028 215.17 207.932 216.404 215.901C217.005 219.803 217.505 223.004 217.872 225.271C218.005 226.338 218.138 227.205 218.239 227.839C218.305 228.439 218.339 228.739 218.305 228.739C218.305 228.739 218.239 228.439 218.105 227.872C217.972 227.239 217.805 226.372 217.605 225.338C217.205 223.037 216.638 219.869 215.971 215.968C214.603 208.099 212.769 197.161 210.968 185.057C210.067 179.255 209.267 173.687 208.667 168.585C208.367 166.017 208.066 163.616 208.033 161.282C208.033 160.982 208.033 160.682 208.066 160.382L208.1 160.148C208.166 160.015 208.233 159.915 208.267 159.882C208.4 159.748 208.467 159.648 208.6 159.548C209.067 159.148 209.667 158.948 210.201 158.848C211.335 158.681 212.369 158.815 213.369 159.048L213.169 159.482C212.335 158.748 211.568 158.048 210.935 157.281C210.634 156.914 210.334 156.547 210.101 156.114C209.867 155.714 209.667 155.247 209.701 154.747C209.901 153.813 210.401 153.179 210.768 152.546C211.201 151.946 211.602 151.379 211.969 150.912C212.702 149.978 213.336 149.245 213.736 148.778C214.17 148.311 214.403 148.078 214.436 148.078Z" fill="#29383E"/>
<path d="M202.13 277.323C201.73 276.956 201.329 276.59 200.929 276.189C203.531 268.053 206.667 257.483 209.268 248.146C209.202 248.48 205.666 263.185 202.13 277.323Z" fill="#B5B6B5"/>
<path d="M173.047 303.766C173.047 303.766 180.785 312.769 186.521 310.935C192.224 309.068 194.559 294.863 198.394 283.859C202.23 272.855 209.233 249.013 212.635 235.608C216.07 222.17 217.571 212.567 218.305 201.83C219.072 191.093 219.172 153.746 219.906 147.277C220.139 145.343 220.606 141.509 220.606 141.509L214.636 147.811L191.257 153.746L195.693 237.742L173.047 303.766Z" fill="#C52552"/>
<path d="M280.538 244.579C280.238 243.778 279.938 243.011 279.671 242.378L281.439 242.544C281.172 243.245 280.872 243.945 280.538 244.579Z" fill="#31444B"/>
<path d="M246.454 250.814C242.785 250.013 238.917 249.113 235.315 248.246L234.948 237.809L244.953 238.843C245.42 242.778 245.954 246.846 246.454 250.814ZM209.901 245.912C210.335 244.311 210.768 242.711 211.168 241.21L217.805 239.476L217.072 244.178C214.97 245.078 212.469 245.612 209.901 245.912Z" fill="#B5B6B5"/>
<path d="M235.314 248.245C235.114 248.178 234.947 248.145 234.747 248.112L234.914 237.809H234.947L235.314 248.245Z" fill="#7D7E7F"/>
<path d="M234.747 248.113C225.609 245.879 218.005 243.745 218.005 243.745C217.705 243.911 217.371 244.045 217.071 244.178L217.805 239.476L227.277 237.042L234.914 237.809L234.747 248.113Z" fill="#2E444B"/>
<path d="M262.762 253.281C259.261 253.281 253.124 252.214 246.454 250.814C245.953 246.846 245.42 242.778 244.953 238.843L279.671 242.377C279.938 243.011 280.238 243.778 280.539 244.578C277.87 249.98 272.968 253.281 262.762 253.281Z" fill="#9B2143"/>
<path d="M203.064 246.312C197.894 246.312 193.725 245.745 193.725 245.745L211.168 241.21C210.768 242.711 210.334 244.311 209.901 245.912C207.6 246.212 205.232 246.312 203.064 246.312Z" fill="#9B2143"/>
<path d="M270.533 182.156C269.9 183.39 259.194 222.337 259.194 222.337L211.402 215.735L202.264 234.341C203.031 234.775 249.989 249.046 268.766 249.113C283.307 249.18 290.644 232.507 294.079 214.167C297.648 195.361 298.381 186.891 298.582 180.389C299.449 153.746 295.013 154.947 283.774 151.645L270.533 182.156Z" fill="#C52552"/>
<path d="M283.773 151.645C283.773 151.645 284.04 151.679 284.507 151.812C285.041 151.946 285.741 152.146 286.708 152.379C287.642 152.646 288.843 152.946 290.21 153.413C291.577 153.88 293.178 154.513 294.612 155.814C296.013 157.114 297.014 159.048 297.614 161.282C298.248 163.483 298.515 165.984 298.715 168.651C298.848 171.319 298.915 174.187 298.848 177.221C298.815 180.222 298.715 183.457 298.448 186.791C297.881 193.494 296.747 200.796 295.38 208.565C294.045 216.335 292.478 224.738 288.876 232.941C287.075 237.009 284.707 241.044 281.272 244.311L280.638 244.912C280.405 245.112 280.171 245.278 279.938 245.445L278.504 246.546C277.47 247.079 276.469 247.813 275.302 248.179C274.735 248.346 274.202 248.646 273.601 248.78L271.834 249.18C271.233 249.313 270.6 249.28 269.999 249.346C269.399 249.38 268.765 249.48 268.165 249.413C263.296 249.313 258.427 248.546 253.491 247.679C248.588 246.846 243.619 245.745 238.616 244.611C232.246 243.144 226.043 241.51 219.939 239.843C216.904 239.043 213.903 238.176 210.935 237.309C207.966 236.442 205.098 235.642 202.13 234.608L201.863 234.508L201.996 234.208C205.131 227.806 208.2 221.603 211.135 215.601L211.201 215.401L211.435 215.435C229.578 217.969 245.786 220.236 259.227 222.104L258.993 222.27C262.462 209.766 265.297 199.729 267.265 192.827C268.265 189.359 269.066 186.691 269.599 184.89C269.899 183.99 270.099 183.323 270.266 182.823C270.433 182.356 270.533 182.156 270.533 182.156C270.533 182.156 270.466 182.39 270.299 182.856C270.166 183.323 269.966 184.024 269.733 184.924C269.199 186.758 268.465 189.425 267.498 192.893C265.597 199.829 262.829 209.899 259.427 222.37L259.36 222.57L259.16 222.537C245.72 220.703 229.511 218.502 211.335 216.035L211.668 215.868C208.733 221.837 205.698 228.072 202.563 234.475L202.33 234.241C202.463 234.041 202.43 234.074 202.43 234.074H202.463L202.497 234.108H202.563L202.663 234.174L202.93 234.241L203.431 234.408L204.531 234.741C205.231 234.975 205.965 235.208 206.699 235.408C208.166 235.842 209.634 236.275 211.101 236.709C214.07 237.576 217.071 238.409 220.106 239.243C226.209 240.877 232.413 242.511 238.783 243.978C243.752 245.112 248.688 246.212 253.624 247.046C258.527 247.913 263.396 248.68 268.198 248.78C268.799 248.846 269.366 248.746 269.966 248.713C270.566 248.646 271.167 248.713 271.734 248.546L273.435 248.179C274.001 248.046 274.535 247.779 275.102 247.579C276.203 247.246 277.17 246.546 278.17 246.012L279.571 244.978C279.771 244.812 280.038 244.645 280.238 244.445L280.872 243.845C284.207 240.677 286.541 236.709 288.342 232.707C291.911 224.571 293.479 216.235 294.846 208.465C296.247 200.696 297.381 193.427 297.981 186.758C298.281 183.423 298.381 180.222 298.448 177.188C298.515 174.187 298.481 171.319 298.348 168.685C298.181 166.017 297.948 163.55 297.314 161.349C296.747 159.181 295.813 157.247 294.412 156.014C293.078 154.713 291.477 154.08 290.143 153.613C288.776 153.113 287.609 152.813 286.675 152.512C285.741 152.246 285.007 152.012 284.507 151.879C284.007 151.712 283.773 151.645 283.773 151.645Z" fill="#29383E"/>
<path d="M264.931 229.972C264.764 230.072 263.797 228.172 262.229 226.071C260.695 223.971 259.194 222.504 259.294 222.337C259.394 222.237 261.162 223.537 262.763 225.705C264.364 227.838 265.097 229.906 264.931 229.972Z" fill="#29383E"/>
<path d="M277.738 157.281C277.905 157.381 276.203 160.782 274.836 165.217C273.435 169.685 272.901 173.453 272.701 173.42C272.634 173.42 272.668 172.453 272.868 170.919C273.101 169.385 273.501 167.284 274.202 165.05C274.936 162.783 275.77 160.815 276.437 159.415C277.137 158.048 277.671 157.247 277.738 157.281Z" fill="#29383E"/>
<path d="M257.492 208.265C253.957 207.198 243.852 210.5 243.852 210.5V211.233L245.586 224.905L252.556 222.037L258.993 222.004L262.128 211.033C262.128 211.033 261.028 209.299 257.492 208.265Z" fill="#F7BAA1"/>
<path d="M243.82 210.166L239.083 210.433L240.651 229.873L245.988 228.573L243.82 210.166Z" fill="#E0E0E0"/>
<path d="M191.258 153.746C188.356 154.646 186.689 157.614 182.52 172.553C180.318 180.556 175.249 193.827 173.181 200.296C171.947 204.097 163.509 227.472 165.677 233.941C167.812 240.377 177.584 248.379 196.894 245.045C215.971 241.777 240.951 232.607 240.951 232.607L239.15 210.166L193.792 214.167L194.259 204.597L191.258 153.746Z" fill="#C52552"/>
<path d="M194.66 214.167C194.46 214.167 193.926 204.331 193.392 192.193C192.892 180.055 192.625 170.219 192.792 170.219C192.958 170.185 193.526 180.022 194.026 192.16C194.56 204.297 194.826 214.134 194.66 214.167Z" fill="#29383E"/>
<path d="M192.225 214.168C192.359 214.301 190.424 216.001 188.156 218.169C185.855 220.336 184.087 222.17 183.954 222.036C183.82 221.936 185.421 219.902 187.722 217.702C190.024 215.501 192.125 214.034 192.225 214.168Z" fill="#29383E"/>
<path d="M190.357 245.745C190.357 245.745 190.457 245.712 190.624 245.679C190.824 245.645 191.091 245.612 191.391 245.579C192.058 245.479 193.058 245.412 194.359 245.178C196.894 244.778 200.629 244.145 205.165 243.044C214.303 240.91 226.877 237.242 240.851 232.307L240.651 232.641C240.417 229.906 240.184 227.005 239.95 224.071C239.55 219.269 239.183 214.601 238.816 210.199L239.15 210.5C225.743 211.567 214.036 212.534 205.599 213.234C201.463 213.534 198.128 213.801 195.793 213.967C194.659 214.034 193.792 214.101 193.159 214.134C192.558 214.168 192.225 214.168 192.225 214.168C192.225 214.134 192.525 214.101 193.125 214.034C193.792 213.967 194.659 213.867 195.76 213.734C198.128 213.534 201.43 213.2 205.565 212.834C213.97 212.067 225.676 211.033 239.116 209.866L239.417 209.833L239.45 210.166C239.817 214.568 240.184 219.236 240.584 224.004C240.817 226.939 241.051 229.84 241.284 232.607V232.841L241.051 232.907C227.077 237.809 214.437 241.41 205.265 243.478C200.696 244.512 196.961 245.078 194.393 245.412C193.092 245.579 192.091 245.645 191.391 245.712C191.091 245.712 190.857 245.745 190.624 245.745C190.457 245.745 190.357 245.745 190.357 245.745Z" fill="#29383E"/>
<path d="M205.598 204.631C205.598 204.631 204.598 199.829 203.697 198.629C202.764 197.428 194.459 189.192 194.459 189.192C194.459 189.192 192.291 190.026 193.192 192.06C194.126 194.127 194.826 195.394 194.826 195.394C194.826 195.394 187.622 190.159 186.722 190.559C185.788 190.959 185.488 192.793 186.055 193.56C186.622 194.327 186.755 194.894 186.755 194.894C186.755 194.894 184.821 194.16 183.753 194.261C182.953 194.327 182.219 196.195 182.986 196.895C183.753 197.628 186.422 199.596 186.422 199.596C186.422 199.596 184.687 198.629 184.187 200.029C183.687 201.43 184.054 202.43 184.387 203.097C184.754 203.764 191.024 209.266 191.658 210.233C192.291 211.233 192.792 214.168 192.792 214.168C194.492 214.067 206.599 212.7 206.599 212.7C206.599 212.5 205.598 204.631 205.598 204.631Z" fill="#F7BAA1"/>
<path d="M202.297 203.963C202.197 203.996 201.831 203.463 201.264 202.563C200.697 201.662 199.996 200.329 199.029 199.128C197.962 198.028 196.727 197.161 195.927 196.494C195.06 195.861 194.56 195.428 194.593 195.361C194.66 195.261 195.26 195.561 196.16 196.128C197.061 196.694 198.328 197.461 199.529 198.695C200.563 200.062 201.197 201.362 201.664 202.329C202.131 203.296 202.364 203.93 202.297 203.963Z" fill="#F29573"/>
<path d="M198.427 204.43C198.427 204.43 198.293 204.263 198.06 203.963C197.76 203.53 197.46 203.063 197.126 202.629C196.726 202.063 196.226 201.362 195.625 200.762C194.992 200.262 194.058 199.695 193.191 199.129C189.589 196.895 186.688 195.061 186.755 194.894C186.855 194.727 189.923 196.361 193.524 198.595C194.425 199.195 195.259 199.662 196.059 200.329C196.693 201.062 197.126 201.763 197.493 202.363C198.227 203.563 198.593 204.397 198.427 204.43Z" fill="#F29573"/>
<path d="M196.526 208.264C196.459 208.298 195.993 207.564 195.292 206.397C195.125 206.064 194.925 205.73 194.725 205.397L194.592 205.23L194.358 205.064C194.225 204.93 194.025 204.797 193.858 204.664C193.125 204.163 192.291 203.597 191.424 203.03C187.889 200.729 185.055 198.862 185.155 198.729C185.255 198.562 188.256 200.196 191.757 202.496C192.658 203.063 193.458 203.63 194.192 204.197C194.392 204.33 194.559 204.463 194.725 204.63L194.992 204.864L195.226 205.164C195.392 205.53 195.559 205.864 195.692 206.197C196.293 207.431 196.626 208.198 196.526 208.264Z" fill="#F29573"/>
<path d="M223.373 321.771C223.24 321.904 220.205 319.504 216.57 316.403C212.936 313.302 210.068 310.668 210.201 310.535C210.301 310.401 213.336 312.802 216.971 315.903C220.639 319.037 223.473 321.638 223.373 321.771Z" fill="#3F5E69"/>
<path d="M209.501 293.162C209.567 293.195 208.8 294.429 207.266 296.163C205.732 297.93 203.364 300.164 200.396 302.165C197.461 304.166 194.526 305.566 192.325 306.366C190.124 307.167 188.723 307.433 188.689 307.367C188.656 307.267 190.023 306.8 192.158 305.9C194.259 304.999 197.127 303.565 200.029 301.598C202.93 299.597 205.298 297.463 206.899 295.829C208.5 294.196 209.434 293.095 209.501 293.162Z" fill="#29383E"/>
<path d="M251.59 289.894C251.59 289.927 251.423 289.994 251.056 290.094C250.656 290.194 250.156 290.328 249.522 290.494C248.188 290.861 246.22 291.261 243.819 291.695C241.384 292.128 238.516 292.495 235.314 292.762C232.113 292.962 228.577 293.062 224.875 292.929C221.174 292.762 217.672 292.362 214.503 291.895C211.368 291.361 208.533 290.761 206.166 290.128C203.798 289.527 201.93 288.927 200.629 288.46C200.029 288.26 199.529 288.094 199.128 287.927C198.795 287.793 198.628 287.727 198.628 287.693C198.628 287.693 198.828 287.727 199.162 287.827C199.562 287.927 200.062 288.06 200.663 288.227C201.963 288.627 203.898 289.127 206.232 289.694C208.6 290.261 211.435 290.828 214.603 291.295C217.738 291.761 221.24 292.128 224.909 292.295C228.577 292.428 232.113 292.362 235.314 292.162C238.483 291.928 241.384 291.628 243.786 291.261C246.187 290.894 248.155 290.528 249.489 290.261C250.122 290.128 250.656 290.028 251.056 289.961C251.39 289.894 251.59 289.894 251.59 289.894Z" fill="#29383E"/>
<path d="M221.006 119.5C221.173 112.998 218.824 104.721 220.225 92.6505C221.726 79.6793 223.608 67.3697 236.748 67.8032L238.082 67.8699C252.156 69.1704 258.893 81.7415 257.192 95.6797L253.224 139.562L232.879 152.6L220.906 143.53L221.006 137.928C221.006 137.928 220.706 132.938 221.006 119.5Z" fill="#F7BAA1"/>
<path fill-rule="evenodd" clip-rule="evenodd" d="M260.305 117.366C260.41 125.651 251.495 132.363 245.622 135.509C239.749 138.656 234.611 137.607 234.611 137.607C211.328 132.258 213.006 121.141 211.643 112.017C211.014 107.508 210.384 99.0127 212.377 88.6301C212.692 87.1618 213.111 85.9033 213.636 84.7497C217.201 77.1987 225.801 74.2622 225.801 74.2622C230.94 72.4793 236.708 72.0598 241.952 73.0037C249.608 74.3671 255.586 78.3523 257.578 86.218C258.207 88.735 258.522 91.3568 258.837 93.8738C259.466 99.2225 259.885 104.571 260.095 109.92C260.2 112.437 260.305 114.849 260.305 117.366Z" fill="#F7BAA1"/>
<path fill-rule="evenodd" clip-rule="evenodd" d="M232.408 113.486C233.247 115.059 235.24 116.422 237.128 116.737C240.484 117.366 243.21 113.276 242.581 112.751C235.554 118.624 230.835 110.654 232.408 113.486Z" fill="#D77F6A"/>
<path fill-rule="evenodd" clip-rule="evenodd" d="M242.791 90.5178C242.791 90.5178 253.698 88.5252 257.159 95.8665C257.159 95.8665 244.993 92.5105 242.686 94.1885L242.791 90.5178Z" fill="#2D2929"/>
<path fill-rule="evenodd" clip-rule="evenodd" d="M230.416 90.7276C230.416 90.7276 219.823 87.7911 215.943 95.8665C215.943 95.8665 228.213 92.8251 230.416 94.9226V90.7276Z" fill="#2D2929"/>
<path fill-rule="evenodd" clip-rule="evenodd" d="M228.003 102.578C228.108 104.571 226.955 106.249 225.381 106.354C223.808 106.459 222.445 104.886 222.34 102.893C222.235 100.9 223.389 99.2225 224.962 99.1176C226.535 99.0127 227.898 100.586 228.003 102.578Z" fill="#2D2929"/>
<path fill-rule="evenodd" clip-rule="evenodd" d="M251.391 102.159C251.495 103.942 250.342 105.41 248.769 105.515C247.196 105.62 245.832 104.256 245.727 102.474C245.622 100.691 246.776 99.2225 248.349 99.1176C249.922 99.0127 251.286 100.376 251.391 102.159Z" fill="#2D2929"/>
<path fill-rule="evenodd" clip-rule="evenodd" d="M247.93 61.3626C244.259 59.0553 239.225 57.9017 234.82 58.0066C232.513 58.1114 230.101 58.6358 227.899 59.4748C222.445 61.4674 215.943 65.3478 214.58 71.4306C214.37 72.2696 214.265 73.1086 214.265 73.9476C214.265 74.4719 214.684 76.15 214.475 76.5695C214.37 76.7792 214.58 76.989 214.789 76.8841L214.999 76.7792L215.104 76.5695C217.621 74.4719 221.921 82.6522 223.494 83.9107C229.472 88.9447 238.072 89.574 245.098 87.6862C253.069 85.4838 257.788 84.0156 262.298 77.3036C264.395 74.2622 257.054 66.3966 247.93 61.3626Z" fill="#393434"/>
<path fill-rule="evenodd" clip-rule="evenodd" d="M259.151 100.376C259.151 100.376 264.5 88.5252 268.905 97.8591C272.471 105.305 266.598 112.542 261.773 112.017C257.054 111.493 259.151 100.376 259.151 100.376Z" fill="#EAA28E"/>
<path fill-rule="evenodd" clip-rule="evenodd" d="M259.99 102.054C259.99 102.054 263.766 94.7129 265.654 97.3348C267.541 99.9566 267.541 103.627 267.541 103.627C267.541 103.627 266.178 99.7469 263.451 102.264C263.451 102.264 267.017 108.242 261.039 106.983C261.039 106.983 258.417 105.305 259.99 102.054Z" fill="#D17A6A"/>
<path fill-rule="evenodd" clip-rule="evenodd" d="M219.928 76.3597C219.928 76.3597 220.452 85.6936 216.782 90.2033C213.006 94.7129 212.692 103.942 212.692 103.942C212.692 103.942 198.953 85.7985 214.579 75.2061C214.579 75.311 217.621 73.9476 219.928 76.3597Z" fill="#393434"/>
<path fill-rule="evenodd" clip-rule="evenodd" d="M251.6 80.0304C251.6 80.0304 258.522 88.8399 259.99 101.53C259.99 101.53 269.639 87.6862 260.41 75.9402C260.305 75.9402 250.237 71.8501 251.6 80.0304Z" fill="#393434"/>
<path fill-rule="evenodd" clip-rule="evenodd" d="M213.111 101.949C213.111 101.949 208.182 90.0983 203.987 99.4322C200.736 106.878 206.189 114.115 210.594 113.59C214.999 113.066 213.111 101.949 213.111 101.949Z" fill="#EAA28E"/>
<path fill-rule="evenodd" clip-rule="evenodd" d="M213.006 103.627C213.006 103.627 208.916 96.286 206.819 98.9079C204.721 101.53 204.721 105.2 204.721 105.2C204.721 105.2 206.294 101.32 209.231 103.837C209.231 103.837 205.246 109.815 211.853 108.556C211.853 108.661 214.684 106.983 213.006 103.627Z" fill="#D17A6A"/>
<path fill-rule="evenodd" clip-rule="evenodd" d="M225.591 118.1C225.591 118.1 239.12 131.943 247.405 117.68C247.405 117.68 239.54 123.134 225.591 118.1Z" fill="#CB4840"/>
<path fill-rule="evenodd" clip-rule="evenodd" d="M258.732 110.444C258.732 112.227 256.425 113.695 253.488 113.695C250.552 113.695 248.244 112.227 248.244 110.444C248.244 108.661 250.552 107.193 253.488 107.193C256.425 107.193 258.732 108.661 258.732 110.444Z" fill="#DC978C"/>
<path fill-rule="evenodd" clip-rule="evenodd" d="M224.857 110.444C224.857 112.227 222.655 113.695 220.033 113.695C217.411 113.695 215.209 112.227 215.209 110.444C215.209 108.661 217.411 107.193 220.033 107.193C222.655 107.193 224.857 108.661 224.857 110.444Z" fill="#DC978C"/>
<path fill-rule="evenodd" clip-rule="evenodd" d="M249.817 109.71C244.154 109.5 243.21 107.193 242.266 105.095L242.057 104.676C241.008 102.264 240.798 100.376 240.693 99.5371C241.427 99.1176 242.266 98.6981 243.001 98.2786C250.447 94.8177 257.683 96.7055 259.676 97.4396C259.676 98.3835 259.676 100.691 258.312 104.886C257.788 106.564 256.529 107.822 254.747 108.661C252.754 109.395 252.02 109.5 249.817 109.71ZM225.486 109.92C225.486 109.92 222.865 110.129 220.348 109.186C218.46 108.451 217.201 107.298 216.572 105.62C214.999 101.635 214.684 99.2225 214.684 98.2786C216.677 97.4396 223.704 95.1323 231.359 98.0689C232.198 98.3835 233.037 98.6981 233.772 99.1176C233.772 99.9566 233.667 101.844 232.723 104.361L232.618 104.781C231.989 106.878 231.15 109.29 225.486 109.92ZM260.41 105.62C262.507 99.4322 261.878 96.8103 261.773 96.4957L261.668 95.9713L261.144 95.7616C260.724 95.6567 251.915 92.091 242.371 96.4957C241.323 97.0201 240.379 97.5445 239.435 98.1737V97.964L235.869 98.0689L235.764 97.8591L235.24 97.6494C234.191 97.0201 233.142 96.6006 232.094 96.1811C222.235 92.4056 213.636 96.4957 213.216 96.7055L212.797 96.9152L212.692 97.4396C212.587 97.7542 212.167 100.376 214.684 106.459C215.523 108.661 217.201 110.234 219.613 111.178C222.55 112.332 225.486 112.017 225.591 112.017C232.513 111.283 233.772 107.822 234.506 105.62L234.611 105.2C235.135 103.627 235.45 102.264 235.659 101.215C236.289 100.9 237.337 100.796 238.806 101.32C239.015 102.474 239.33 104.047 240.169 105.725L240.274 106.039C241.218 108.242 242.686 111.598 249.608 111.912C249.713 111.912 252.754 112.017 255.586 110.654C258.103 109.5 259.676 107.822 260.41 105.62Z" fill="#643A30"/>
<path d="M221.484 132.91C221.484 132.91 230.683 137.542 240.941 135.956C240.941 135.956 233.383 142.549 221.484 136.315L221.484 132.91Z" fill="#F29573"/>
<path d="M239.383 317.337C239.416 317.37 239.016 317.604 238.282 317.971C237.515 318.337 236.448 318.871 234.947 319.138C234.213 319.271 233.346 319.304 232.479 319.171C231.579 319.004 230.645 318.637 229.878 317.904C229.111 317.204 228.644 316.203 228.31 315.17C228.01 314.136 227.81 313.035 227.61 311.935C226.743 307.534 226.176 303.499 225.809 300.564C225.642 299.097 225.542 297.897 225.475 297.063C225.409 296.263 225.409 295.796 225.442 295.796C225.475 295.796 225.575 296.23 225.709 297.063C225.842 297.997 226.009 299.131 226.209 300.498C226.676 303.399 227.31 307.434 228.144 311.835C228.577 314.002 228.877 316.237 230.245 317.537C231.612 318.804 233.513 318.938 234.88 318.737C236.315 318.537 237.415 318.071 238.182 317.77C238.949 317.47 239.383 317.304 239.383 317.337Z" fill="#29383E"/>
<path d="M231.312 296.563C231.312 296.53 231.479 296.43 231.879 296.396C232.246 296.363 232.813 296.496 233.38 296.896C233.914 297.297 234.481 297.997 234.481 298.964C234.548 299.931 233.781 300.897 232.78 301.264C231.779 301.664 230.579 301.431 229.978 300.664C229.345 299.897 229.311 298.997 229.445 298.363C229.611 297.697 229.978 297.23 230.278 296.996C230.579 296.763 230.779 296.73 230.779 296.763C230.879 296.83 230.045 297.197 229.845 298.43C229.778 298.997 229.845 299.764 230.345 300.297C230.845 300.864 231.746 301.031 232.58 300.731C233.414 300.431 233.981 299.697 233.981 298.964C233.981 298.23 233.547 297.563 233.114 297.197C232.18 296.396 231.312 296.663 231.312 296.563Z" fill="#29383E"/>
<path d="M413.083 289.986C413.083 289.986 408.349 300.092 407.51 302.979C406.704 305.867 408.215 311.272 408.517 315.268C408.819 319.23 408.316 324.971 409.39 326.18C410.666 327.59 412.278 325.407 413.184 318.961L413.453 320.707L414.762 324.803C414.762 324.803 412.848 326.885 413.184 328.228C413.654 330.108 415.165 329.671 415.165 329.671C415.165 329.671 412.479 333.331 416.34 333.432C416.34 333.432 415.87 337.091 418.455 336.722C418.455 336.722 420.671 336.991 419.53 329.638C419.53 329.638 423.861 322.184 424.096 320.539C424.331 318.894 422.283 313.891 422.283 313.891C422.283 313.891 424.129 311.877 423.827 310.232C423.29 307.176 420.94 299.488 420.94 299.488L423.894 295.559L413.083 289.986Z" fill="#F7BAA1"/>
<path d="M422.317 313.69C422.283 313.656 421.914 314.059 421.276 314.731C420.638 315.369 419.664 316.376 418.153 316.98C416.643 317.551 414.595 317.282 412.647 316.342C412.144 316.107 411.64 315.839 411.136 315.536C410.633 315.268 410.096 314.999 409.693 314.63C409.29 314.294 409.122 313.791 409.39 313.321C409.625 312.884 410.129 312.582 410.733 312.481C412.345 312.179 414.024 312.683 415.165 313.656L415.434 313.858L415.568 313.556C416.072 312.615 416.676 311.776 417.314 311.071L417.482 310.87L417.314 310.702C415.065 308.62 413.722 306.371 412.983 304.725C412.211 303.08 411.976 302.039 411.875 302.073C411.875 302.073 411.909 302.342 412.009 302.812C412.144 303.315 412.345 303.987 412.681 304.86C413.386 306.538 414.695 308.889 416.945 311.071V310.702C416.24 311.44 415.602 312.313 415.098 313.321L415.501 313.253C414.259 312.179 412.412 311.608 410.633 311.944C409.961 312.045 409.223 312.414 408.887 313.086C408.719 313.388 408.652 313.791 408.753 314.16C408.853 314.529 409.088 314.831 409.323 315.033C409.86 315.469 410.398 315.738 410.901 316.007C411.405 316.309 411.909 316.544 412.412 316.812C414.427 317.752 416.676 318.021 418.288 317.35C419.899 316.644 420.806 315.57 421.444 314.865C422.048 314.16 422.35 313.723 422.317 313.69Z" fill="#F29573"/>
<path d="M414.393 325.474C414.494 325.575 415.904 323.896 417.515 321.714C417.918 321.177 418.321 320.673 418.623 320.136C418.959 319.599 419.06 318.995 418.993 318.525C418.959 318.021 418.758 317.685 418.623 317.484C418.489 317.249 418.388 317.148 418.355 317.182C418.321 317.182 418.355 317.316 418.422 317.551C418.489 317.786 418.623 318.122 418.623 318.525C418.59 318.927 418.489 319.431 418.187 319.868C417.918 320.338 417.482 320.841 417.079 321.378C415.467 323.561 414.259 325.374 414.393 325.474Z" fill="#F29573"/>
<path d="M423.223 320.405C423.089 320.338 421.511 322.688 419.194 325.307C416.877 327.959 414.762 329.839 414.863 329.973C414.93 330.074 417.28 328.362 419.597 325.676C421.947 323.023 423.357 320.472 423.223 320.405Z" fill="#F29573"/>
<path d="M420.873 327.254C420.772 327.22 419.765 328.664 418.422 330.41C417.112 332.189 416.038 333.633 416.139 333.734C416.239 333.835 417.549 332.525 418.858 330.746C420.235 329 421.04 327.355 420.873 327.254Z" fill="#F29573"/>
<path d="M413.05 317.182C412.916 317.215 412.949 318.122 413.117 319.23C413.285 320.338 413.587 321.211 413.722 321.177C413.856 321.143 413.856 320.237 413.654 319.129C413.487 318.055 413.218 317.182 413.05 317.182Z" fill="#F29573"/>
<path d="M368.843 385.816C368.037 379.974 367.735 373.931 369.078 368.156C370.421 362.415 373.577 356.875 378.479 353.584C380.359 357.916 379.553 362.918 378.244 367.451C376.23 374.434 373.074 381.082 368.91 387.092L368.843 385.816Z" fill="#E0E0E0"/>
<path d="M381.635 407.673C376.498 395.016 378.345 379.773 386.403 368.693C390.029 381.653 388.686 396.258 381.635 407.673Z" fill="#E0E0E0"/>
<path d="M395.535 424.226C389.727 423.856 383.851 425.233 378.815 428.154C373.779 431.041 369.649 435.44 367.03 440.61C366.694 441.315 366.359 442.222 366.862 442.86C367.265 443.397 368.037 443.464 368.742 443.43C374.349 443.061 379.318 439.67 383.415 435.843C387.544 431.981 391.103 427.55 395.636 424.226H395.535Z" fill="#E0E0E0"/>
<path d="M395.099 423.319C392.111 413.75 391.909 403.342 394.562 393.673C395.602 389.879 397.348 385.85 400.874 384.07C401.176 383.902 401.545 383.768 401.847 383.902C402.149 384.003 402.317 384.305 402.452 384.608C403.727 387.226 404.063 390.215 403.963 393.102C403.828 396.023 403.224 398.877 402.62 401.731C401.512 406.968 400.907 412.642 398.02 417.175C397.348 418.249 396.744 419.391 396.207 420.566C395.636 421.708 395.636 422.111 395.132 423.051L395.099 423.319Z" fill="#E0E0E0"/>
<path d="M324.145 341.053C329.449 330.343 329.114 317.853 324.514 306.807C321.291 311.709 320.888 317.987 321.492 323.829C322.096 329.671 323.876 335.715 323.977 341.59L324.145 341.053Z" fill="#E0E0E0"/>
<path d="M345.33 330.376C358.592 330.108 371.854 335.748 380.852 345.485C374.238 346.526 367.422 344.814 361.412 341.893C355.402 338.938 350.03 334.842 344.759 330.746L345.33 330.376Z" fill="#E0E0E0"/>
<path d="M359.599 325.609C366.079 325.072 372.324 324.266 378.535 326.18C384.78 328.093 390.454 332.424 392.972 338.434C386.929 339.106 380.785 337.595 375.211 335.077C369.672 332.559 364.602 329.067 359.599 325.609Z" fill="#E0E0E0"/>
<path d="M338.481 325.81C344.323 321.983 350.299 318.122 357.115 316.51C363.897 314.932 371.753 316.107 376.487 321.244C370.981 324.467 364.333 324.837 357.954 324.837C351.575 324.837 343.786 324.736 337.776 326.885L338.481 325.81Z" fill="#E0E0E0"/>
<path d="M338.447 326.112C348.418 316.342 352.212 298.749 348.183 285.386C340.36 297.272 336.835 311.977 338.447 326.112Z" fill="#E0E0E0"/>
<path d="M316.019 304.155C319.108 299.891 322.701 294.082 326.931 290.893C331.161 287.669 336.634 285.756 341.805 286.964C336.567 296.332 326.662 302.946 316.019 304.155Z" fill="#E0E0E0"/>
<path d="M413.867 361.743C413.833 361.777 413.397 361.273 412.658 360.367C411.852 359.326 410.845 358.016 409.603 356.438C407.017 353.114 403.459 348.515 399.497 343.512C395.501 338.476 391.842 333.977 389.189 330.72C387.913 329.176 386.873 327.866 386.067 326.825C385.328 325.919 384.925 325.382 384.959 325.348C384.992 325.315 385.462 325.785 386.268 326.658C387.074 327.531 388.182 328.806 389.559 330.384C392.312 333.574 396.072 338.006 400.068 343.042C404.029 348.078 407.555 352.712 410.006 356.136C411.248 357.849 412.222 359.225 412.893 360.199C413.565 361.172 413.9 361.71 413.867 361.743Z" fill="#E0E0E0"/>
<path d="M404.298 349.488C404.198 349.623 401.646 346.601 400.303 342.001C399.329 338.778 399.296 335.79 399.396 334.447L399.732 334.48C399.564 335.051 399.464 335.353 399.43 335.353C399.363 335.353 399.363 335.018 399.396 334.413L399.732 334.447C399.833 335.79 400.034 338.644 401.008 341.8C402.284 346.232 404.5 349.388 404.298 349.488Z" fill="#E0E0E0"/>
<path d="M332.841 333.062C332.941 333.163 333.747 332.122 335.627 331.451C337.507 330.712 340.294 330.578 343.383 330.813C346.472 331.048 349.225 331.619 351.206 332.089C353.187 332.592 354.362 332.962 354.429 332.861C354.429 332.76 353.288 332.223 351.34 331.585C349.359 330.981 346.573 330.343 343.45 330.108C340.328 329.839 337.373 330.074 335.426 330.981C333.478 331.854 332.773 333.062 332.841 333.062Z" fill="#E0E0E0"/>
<path d="M335.761 329.302C335.828 329.436 337.373 328.664 340.025 327.758C342.677 326.851 346.471 325.877 350.735 325.542C354.966 325.239 358.86 325.609 361.614 326.112C364.367 326.582 366.045 327.12 366.079 326.985C366.079 326.952 365.676 326.784 364.937 326.515C364.199 326.247 363.091 325.911 361.714 325.609C358.961 324.971 354.999 324.501 350.668 324.837C346.337 325.172 342.51 326.213 339.857 327.254C338.548 327.791 337.507 328.261 336.802 328.664C336.097 329.033 335.727 329.268 335.761 329.302Z" fill="#E0E0E0"/>
<path d="M310.849 313.421C311.05 313.488 311.957 310.231 314.307 306.908C316.59 303.517 319.511 301.838 319.41 301.67C319.377 301.603 318.571 301.871 317.43 302.677C316.322 303.449 314.911 304.792 313.736 306.505C311.285 309.963 310.681 313.387 310.849 313.421Z" fill="#E0E0E0"/>
<path d="M415.164 496.311C415.5 496.277 422.215 508.028 422.215 508.028C421.678 508.901 417.783 511.99 418.287 513.501C418.79 515.045 440.647 534.754 443.401 535.425C446.187 536.097 449.041 535.526 449.041 535.526C449.041 535.526 443.3 521.324 441.017 515.717C438.734 510.144 431.784 493.188 431.784 493.188L415.164 496.311Z" fill="#F7BAA1"/>
<path d="M421.61 508.8C421.275 509.17 416.675 513.031 415.5 517.933C414.325 522.868 416.373 543.853 416.373 543.853L418.522 543.92C418.522 543.92 418.32 528.207 418.924 526.998C419.529 525.823 421.913 524.144 428.158 529.55C434.369 534.989 433.563 540.764 439.271 542.375C444.978 543.953 460.221 541.972 460.087 540.629C459.986 539.32 448.537 534.25 448.537 534.25C448.537 534.25 444.743 535.56 441.017 532.538C437.29 529.55 421.61 508.8 421.61 508.8Z" fill="#29383E"/>
<path d="M343.079 515.079L343.448 510.177L343.213 507.29L357.65 507.424C357.751 509.841 357.919 512.964 358.086 516.388C358.254 520.082 356.341 538.178 356.341 538.178H340.393L338.445 533.78L343.079 515.079Z" fill="#F7BAA1"/>
<path d="M343.079 515.079C343.079 515.079 339.587 526.83 338.446 533.78C338.177 535.425 338.043 536.835 338.11 537.708C338.546 542.308 340.595 545.968 349.257 545.397C357.953 544.793 359.598 542.711 359.799 537.339C360.001 531.967 358.96 521.022 358.557 517.765C358.154 514.24 357.852 512.192 357.852 512.192L357.818 511.117C357.818 511.117 357.281 515.113 357.382 517.866C357.617 524.245 356.341 533.814 356.005 534.452C354.965 536.399 341.904 537.809 340.393 534.653C338.882 531.497 343.079 515.079 343.079 515.079Z" fill="#29383E"/>
<path d="M327.299 257.46C325.822 257.46 314.238 289.927 311.72 313.395C309.236 336.898 333.745 514.475 333.745 514.475H361.209C361.209 514.475 360.639 436.413 361.277 414.355C362.015 390.114 363.291 340.457 363.291 340.457L419.294 510.043L452.701 502.455C452.701 502.455 433.227 415.832 425.236 378.866C417.246 341.9 404.219 298.858 401.902 283.447C399.887 270.084 397.739 257.46 397.739 257.46H327.299Z" fill="#29383E"/>
<path d="M413.89 332.223C414.293 332.122 414.528 332.089 414.528 332.089L413.084 326.616L412.177 325.709C412.748 327.858 413.319 330.041 413.89 332.223Z" fill="#B5B6B5"/>
<path d="M376.655 338.367C386.727 338.367 409.726 333.197 413.889 332.223C413.319 330.041 412.748 327.858 412.177 325.71L379.307 292.907L363.292 291.866L363.494 298.38L361.748 302.006C358.155 309.627 348.788 328.966 345.028 331.216C344.524 331.518 343.651 331.652 342.577 331.652C335.761 331.652 319.209 326.314 312.057 323.863L312.124 328.161C312.124 328.161 332.806 337.494 343.651 337.931C343.752 337.931 343.853 337.931 343.953 337.931C354.664 337.931 364.065 314.193 364.065 314.193C364.065 314.193 366.448 335.547 372.928 337.931C373.768 338.233 375.043 338.367 376.655 338.367Z" fill="#242C2F"/>
<path d="M345.228 514.475C345.228 514.475 345.228 514.307 345.228 514.005C345.194 513.703 345.194 513.233 345.161 512.695C345.094 511.487 344.993 509.774 344.859 507.558C344.59 503.093 344.187 496.68 343.683 488.79C342.743 472.909 341.4 450.951 340.762 426.71C340.091 402.469 340.36 380.478 340.695 364.597C340.93 356.673 341.098 350.227 341.199 345.762C341.266 343.546 341.333 341.833 341.367 340.625C341.367 340.088 341.367 339.617 341.367 339.315C341.367 339.013 341.367 338.845 341.367 338.845C341.333 338.845 341.333 339.013 341.3 339.315C341.3 339.617 341.266 340.088 341.232 340.625C341.165 341.833 341.098 343.546 340.964 345.762C340.762 350.194 340.527 356.606 340.259 364.564C339.789 380.478 339.487 402.469 340.125 426.744C340.796 450.985 342.206 472.943 343.247 488.79C343.851 496.714 344.288 503.127 344.624 507.592C344.791 509.774 344.926 511.487 345.026 512.695C345.094 513.266 345.127 513.703 345.161 514.038C345.194 514.307 345.228 514.475 345.228 514.475Z" fill="#3F5E69"/>
<path d="M392.803 344.821C392.635 344.855 402.674 380.646 415.231 424.729C427.788 468.813 438.096 504.536 438.264 504.469C438.431 504.436 428.393 468.645 415.836 424.561C403.279 380.478 392.971 344.754 392.803 344.821Z" fill="#3F5E69"/>
<path fill-rule="evenodd" clip-rule="evenodd" d="M360.052 135.142C360.052 141.542 354.852 146.642 348.552 146.642C342.152 146.642 337.052 141.442 337.052 135.142C337.052 128.742 342.252 123.642 348.552 123.642C354.952 123.642 360.052 128.742 360.052 135.142Z" fill="#643A30"/>
<path d="M362.5 134C363.104 125.774 343.642 99.6708 353.815 100.275L358.382 100.04L375.236 108.065C377.721 108.333 379.567 110.482 379.5 113L377.226 147.126L355.335 182.916L351.91 151.793L351 136.5C351 136.5 355.5 139 358 136.5C362 136 361.829 143.132 362.5 134Z" fill="#F7BAA1"/>
<path fill-rule="evenodd" clip-rule="evenodd" d="M390.052 106.242C390.052 123.842 379.852 137.442 361.152 137.442C342.452 137.442 330.052 120.242 330.052 102.642C330.052 85.0425 342.452 73.6425 361.152 73.6425C379.852 73.6425 390.052 88.6425 390.052 106.242Z" fill="#643A30"/>
<path fill-rule="evenodd" clip-rule="evenodd" d="M384.752 113.142C384.752 129.542 376.852 138.742 363.452 138.942C349.252 139.242 336.352 129.542 336.352 113.142C336.352 96.7425 341.752 79.7425 360.552 79.7425C378.852 79.7425 384.752 96.7425 384.752 113.142Z" fill="#F7BAA1"/>
<path fill-rule="evenodd" clip-rule="evenodd" d="M377.052 108.642C377.052 110.542 375.852 112.142 374.352 112.142C372.852 112.142 371.652 110.542 371.652 108.642C371.652 106.742 372.852 105.142 374.352 105.142C375.852 105.142 377.052 106.742 377.052 108.642Z" fill="#492926"/>
<path fill-rule="evenodd" clip-rule="evenodd" d="M360.052 119.842C360.052 119.842 363.352 124.842 366.952 119.742L360.052 119.842Z" fill="#D17A6A"/>
<path fill-rule="evenodd" clip-rule="evenodd" d="M347.752 116.742C347.752 118.442 346.052 119.842 343.952 119.842C341.852 119.842 340.152 118.442 340.152 116.742C340.152 115.042 341.852 113.642 343.952 113.642C346.052 113.642 347.752 115.042 347.752 116.742Z" fill="#DC978C"/>
<path fill-rule="evenodd" clip-rule="evenodd" d="M383.152 116.742C383.152 118.442 381.452 119.842 379.352 119.842C377.252 119.842 375.552 118.442 375.552 116.742C375.552 115.042 377.252 113.642 379.352 113.642C381.452 113.642 383.152 115.042 383.152 116.742Z" fill="#DC978C"/>
<path fill-rule="evenodd" clip-rule="evenodd" d="M384.851 109.842C384.851 109.842 391.652 101.342 393.652 109.542C395.252 116.042 388.851 120.842 384.851 119.642C380.951 118.342 384.851 109.842 384.851 109.842Z" fill="#F7BAA1"/>
<path fill-rule="evenodd" clip-rule="evenodd" d="M384.852 111.842C384.852 111.842 389.652 106.342 390.952 108.942C392.152 111.542 391.452 114.542 391.452 114.542C391.452 114.542 390.952 111.042 388.052 112.642C388.052 112.642 390.152 118.342 384.952 116.142C384.852 116.242 382.752 114.342 384.852 111.842Z" fill="#D17A6A"/>
<path fill-rule="evenodd" clip-rule="evenodd" d="M336.052 109.842C336.052 109.842 329.252 101.342 327.252 109.542C325.652 116.042 332.052 120.842 336.052 119.642C339.952 118.342 336.052 109.842 336.052 109.842Z" fill="#F7BAA1"/>
<path fill-rule="evenodd" clip-rule="evenodd" d="M336.052 111.842C336.052 111.842 331.252 106.342 329.952 108.942C328.752 111.542 329.452 114.542 329.452 114.542C329.452 114.542 329.952 111.042 332.852 112.642C332.852 112.642 330.752 118.342 335.952 116.142C336.152 116.242 338.152 114.342 336.052 111.842Z" fill="#D17A6A"/>
<path fill-rule="evenodd" clip-rule="evenodd" d="M343.152 102.042C343.152 102.042 349.152 94.2425 358.552 100.842C358.552 100.942 351.052 98.0425 343.152 102.042Z" fill="#432F2A"/>
<path fill-rule="evenodd" clip-rule="evenodd" d="M369.352 100.842C369.352 100.842 376.052 94.2424 383.152 102.042C383.152 102.042 376.952 98.1424 369.352 100.842Z" fill="#432F2A"/>
<path fill-rule="evenodd" clip-rule="evenodd" d="M352.452 77.7425C352.452 77.7425 359.852 64.0425 371.052 70.9425C382.252 77.7425 396.652 92.2425 400.152 81.7425C400.152 81.7425 394.752 109.442 372.652 96.1425C350.552 82.8425 352.452 77.7425 352.452 77.7425Z" fill="#643A30"/>
<path fill-rule="evenodd" clip-rule="evenodd" d="M361.652 81.0425C361.652 81.0425 352.852 97.1425 335.552 107.442C335.552 107.442 331.152 102.442 330.952 96.0425C330.452 83.2425 342.052 58.9425 361.652 81.0425Z" fill="#643A30"/>
<path fill-rule="evenodd" clip-rule="evenodd" d="M361.252 81.3425L356.252 82.0425C356.252 82.0425 355.452 96.8425 372.352 102.142C372.452 102.042 360.852 92.5425 361.252 81.3425Z" fill="#643A30"/>
<path fill-rule="evenodd" clip-rule="evenodd" d="M356.952 112.042C356.952 112.042 357.452 109.342 353.552 108.042C347.552 105.942 344.252 110.742 342.352 111.542C342.352 111.542 343.552 112.342 344.552 112.042C344.552 112.042 351.052 104.842 356.952 112.042Z" fill="#403536"/>
<path fill-rule="evenodd" clip-rule="evenodd" d="M368.552 110.442C368.552 110.442 368.052 106.842 371.952 105.042C377.952 102.242 381.252 108.642 383.152 109.742C383.152 109.742 381.852 110.842 380.952 110.442C381.052 110.442 374.452 100.942 368.552 110.442Z" fill="#403536"/>
<path fill-rule="evenodd" clip-rule="evenodd" d="M354.752 125.142C354.752 125.142 365.952 126.742 370.952 125.142C370.852 125.142 365.052 133.842 354.752 125.142Z" fill="white"/>
<path fill-rule="evenodd" clip-rule="evenodd" d="M338.552 119.342C338.552 120.442 337.652 121.242 336.652 121.242C335.552 121.242 334.752 120.342 334.752 119.342C334.752 118.242 335.652 117.442 336.652 117.442C337.652 117.442 338.552 118.342 338.552 119.342Z" fill="#C62753"/>
<path fill-rule="evenodd" clip-rule="evenodd" d="M387.752 120.142C387.752 121.242 386.852 122.042 385.852 122.042C384.752 122.042 383.952 121.142 383.952 120.142C383.952 119.042 384.852 118.242 385.852 118.242C386.952 118.242 387.752 119.042 387.752 120.142Z" fill="#C62753"/>
<path d="M350.5 136C350.5 136 359.64 140.43 370.184 138.8C370.184 138.8 363.549 146.408 351.318 140L350.5 136Z" fill="#F29573"/>
<path d="M377.965 144.473C377.495 144.809 362.184 158.575 362.184 158.575L351.508 144.003L343.047 167.203L352.582 213.939C352.582 213.939 361.748 229.887 362.084 228.981C362.386 228.041 380.785 203.699 379.173 204.337C377.595 204.975 381.322 162.066 381.322 162.066V147.529L377.965 144.473Z" fill="white"/>
<path d="M360.539 222.434C360.573 222.434 360.573 222.232 360.606 221.796C360.606 221.326 360.64 220.688 360.64 219.949C360.673 218.271 360.673 215.988 360.673 213.201C360.707 207.493 360.573 199.603 360.808 190.907C361.211 182.245 361.614 174.422 361.882 168.614C362.016 165.86 362.084 163.544 362.184 161.865C362.184 161.126 362.184 160.522 362.218 160.052C362.218 159.616 362.218 159.38 362.184 159.38C362.151 159.38 362.117 159.616 362.084 160.018C362.05 160.522 361.983 161.126 361.916 161.865C361.815 163.544 361.647 165.827 361.446 168.614C361.11 174.321 360.606 182.178 360.17 190.874C359.968 199.603 360.136 207.493 360.237 213.201C360.304 215.988 360.371 218.271 360.405 219.949C360.438 220.722 360.472 221.326 360.472 221.796C360.506 222.232 360.539 222.434 360.539 222.434Z" fill="#29383E"/>
<path d="M351.34 159.38C351.306 159.414 351.709 160.153 352.481 161.395C353.354 162.704 354.462 164.45 355.805 166.532L355.973 166.8L356.208 166.532C358.021 164.282 360.136 161.63 362.419 158.776H361.949C362.218 159.179 362.52 159.615 362.856 160.018C364.434 162.268 365.978 164.383 367.288 166.364C367.422 166.565 367.556 166.767 367.691 167.002L367.724 167.103L367.859 167.27L368.026 167.304L368.094 167.27H368.161L368.295 167.17L368.463 167.035L368.799 166.767C369.235 166.398 369.638 165.995 370.041 165.659C370.78 164.92 371.518 164.249 372.156 163.611C373.432 162.335 374.473 161.294 375.178 160.556C375.849 159.85 376.219 159.414 376.219 159.38C376.185 159.347 375.749 159.716 375.01 160.388C374.171 161.16 373.13 162.134 371.854 163.275C371.183 163.913 370.477 164.551 369.705 165.256C369.302 165.625 368.899 165.961 368.463 166.33L368.127 166.599L367.993 166.733L367.926 166.767L367.993 167.002H368.026C368.497 167.002 368.161 167.002 368.262 167.002V166.935C368.161 166.666 368.094 166.599 368.026 166.431L367.791 166.062C366.482 164.014 364.938 161.899 363.36 159.683C363.024 159.246 362.722 158.81 362.419 158.407L362.184 158.071L361.949 158.407C359.666 161.294 357.585 163.947 355.805 166.23H356.208C354.832 164.215 353.656 162.536 352.716 161.227C351.877 160.018 351.373 159.38 351.34 159.38Z" fill="#29383E"/>
<path d="M351.441 141.989L345.465 149.509L321.593 154.277C321.593 154.277 328.744 236.77 329.214 240.027C329.718 243.284 313.938 277.362 308.667 322.688C308.667 322.688 340.328 334.003 345.028 331.216C349.695 328.396 363.159 298.951 363.159 298.951L361.312 225.556C361.312 225.556 351.911 193.358 350.904 177.141C349.964 161.932 351.441 141.989 351.441 141.989Z" fill="#0260A2"/>
<path d="M362.083 256.546H362.251L361.412 228.376C361.412 228.343 361.378 228.343 361.378 228.343L362.083 256.546Z" fill="#B5B6B5"/>
<path d="M363.292 291.866L362.251 256.546H362.084L362.99 291.866H363.292Z" fill="#242C2F"/>
<path d="M361.748 302.006L363.494 298.38L363.292 291.866H362.99L363.158 298.95C363.158 298.95 362.621 300.126 361.748 302.006Z" fill="#202426"/>
<path d="M361.412 228.376L361.312 225.556L361.379 228.343C361.379 228.343 361.412 228.343 361.412 228.376Z" fill="#9D9E9E"/>
<path d="M357.853 310.03L361.748 302.006C362.621 300.126 363.158 298.951 363.158 298.951L362.99 291.866L362.084 256.546L361.378 228.343L361.311 225.556L358.659 217.565C358.659 217.565 356.074 223.676 353.287 231.23L355.033 232.607C355.973 233.782 351.709 242.511 350.433 242.511C350.4 242.511 350.366 242.478 350.332 242.478L349.359 242.579C347.277 249.193 345.867 255.203 346.538 257.855C348.284 264.973 355.469 298.581 357.853 310.03Z" fill="#064A7A"/>
<path d="M357.718 231.264C357.752 231.264 357.551 230.962 357.215 230.425C356.812 229.854 356.308 229.048 355.637 228.074C354.932 227.067 354.059 225.825 353.186 224.314C352.749 223.575 352.279 222.77 351.742 221.93C351.239 221.091 350.701 220.184 350.198 219.211C349.157 217.297 347.948 215.215 346.874 212.865C346.337 211.69 345.732 210.481 345.161 209.239C344.624 207.963 344.054 206.687 343.483 205.344C341.3 199.972 339.152 193.962 337.406 187.482C335.626 181.036 334.317 174.758 333.578 169.016C333.545 168.681 333.511 168.311 333.477 167.976C333.444 167.539 333.444 167.472 333.712 167.338C334.216 167.103 334.955 167.136 335.626 167.136C336.298 167.203 336.969 167.304 337.607 167.438C337.909 167.506 338.245 167.606 338.48 167.707L338.514 167.741H338.547L338.514 167.673C338.379 167.606 338.816 167.237 338.782 167.371H338.816L338.682 167.271L338.279 167.002C337.271 166.196 336.298 165.457 335.324 164.719C335.089 164.517 334.854 164.349 334.619 164.182L334.418 164.047L334.317 163.98L334.35 164.014C334.35 163.98 334.35 163.846 334.384 163.745C334.552 163.242 334.82 162.738 335.055 162.234C337.204 158.44 339.252 155.519 340.595 153.471C341.267 152.464 341.804 151.692 342.173 151.087C342.543 150.55 342.711 150.282 342.711 150.248C342.677 150.248 342.475 150.517 342.073 151.02C341.67 151.591 341.099 152.363 340.394 153.303C338.984 155.351 336.902 158.205 334.686 162.033C334.418 162.536 334.149 163.007 333.948 163.611C333.914 163.779 333.847 163.913 333.914 164.182L334.082 164.383L334.149 164.45L334.317 164.551C334.552 164.719 334.787 164.92 335.055 165.088C335.996 165.827 336.969 166.599 337.976 167.405L338.379 167.707C338.48 167.741 338.48 167.774 338.682 167.875H338.749C338.715 168.009 339.152 167.64 339.017 167.539L338.95 167.438L338.883 167.371L338.715 167.237C338.379 167.069 338.044 167.002 337.708 166.935C337.036 166.767 336.365 166.666 335.66 166.599C334.955 166.599 334.25 166.498 333.444 166.834C333.276 166.935 333.041 167.103 332.94 167.371C332.84 167.673 332.907 167.808 332.907 168.009C332.94 168.378 332.974 168.714 333.041 169.084C333.712 174.892 335.022 181.17 336.801 187.65C338.581 194.13 340.73 200.174 342.979 205.579C343.55 206.889 344.121 208.198 344.658 209.474C345.262 210.716 345.867 211.925 346.437 213.066C347.512 215.417 348.754 217.498 349.828 219.446C350.332 220.419 350.869 221.292 351.406 222.132C351.944 222.971 352.447 223.777 352.917 224.515C353.824 226.026 354.73 227.201 355.435 228.209C356.14 229.182 356.678 229.921 357.114 230.492C357.483 231.029 357.718 231.298 357.718 231.264Z" fill="#29383E"/>
<path d="M321.827 262.79C323.069 263.193 339.152 268.297 339.152 268.297C339.152 268.297 337.775 283.07 335.694 283.237C333.612 283.405 317.496 278.537 316.287 277.362C315.079 276.187 321.827 262.79 321.827 262.79Z" fill="#0260A2"/>
<path d="M321.827 262.79C321.794 262.79 321.66 262.992 321.458 263.395C321.223 263.798 320.887 264.436 320.485 265.208C319.712 266.786 318.571 269.102 317.362 272.023C317.06 272.762 316.758 273.534 316.456 274.34C316.321 274.777 316.187 275.18 316.086 275.616C315.985 276.086 315.851 276.523 315.918 277.093L315.952 277.295L316.12 277.53L316.456 277.765C316.691 277.933 316.892 278 317.127 278.101C317.564 278.302 318.034 278.503 318.47 278.671C319.41 279.041 320.384 279.376 321.357 279.712C325.353 281.022 329.718 282.432 334.485 283.405C334.888 283.472 335.291 283.54 335.694 283.54C336.332 283.405 336.533 282.935 336.735 282.633C337.104 281.894 337.339 281.189 337.54 280.451C337.91 279.007 338.178 277.597 338.413 276.187C338.883 273.4 339.186 270.781 339.421 268.33L339.454 268.095L339.219 268.028C334.049 266.45 329.718 265.107 326.562 264.167C325.118 263.731 323.909 263.361 323.036 263.126C322.23 262.891 321.794 262.757 321.827 262.79C321.827 262.824 322.264 262.992 323.103 263.26C323.976 263.563 325.151 263.966 326.629 264.469C329.718 265.476 333.982 266.887 339.085 268.565L338.883 268.263C338.615 270.714 338.313 273.333 337.843 276.086C337.608 277.496 337.305 278.906 336.936 280.283C336.735 280.988 336.533 281.693 336.197 282.331C336.03 282.633 335.795 282.902 335.66 282.902C335.325 282.902 334.989 282.868 334.586 282.801C329.919 281.861 325.521 280.451 321.559 279.175C320.552 278.873 319.612 278.537 318.671 278.168C318.235 278 317.765 277.832 317.328 277.63C317.127 277.53 316.892 277.429 316.724 277.328L316.489 277.16L316.456 277.127L316.422 276.993C316.355 276.22 316.691 275.28 316.926 274.508C317.194 273.702 317.463 272.93 317.765 272.191C318.906 269.237 319.981 266.92 320.72 265.309C321.055 264.57 321.324 263.932 321.559 263.462C321.727 263.025 321.827 262.79 321.827 262.79Z" fill="#29383E"/>
<path d="M377.964 144.473C379.979 145.783 387.667 152.33 387.667 152.33L408.417 159.414C408.417 159.414 396.766 244.291 397.673 248.991C399.519 258.997 419.228 298.548 420.94 325.676C420.94 325.676 378.199 335.144 375.211 331.585C372.189 328.026 351.339 266.081 351.339 256.042C351.339 246.037 368.026 202.759 371.014 191.78C374.002 180.801 377.964 144.473 377.964 144.473Z" fill="#0260A2"/>
<path d="M364.132 302.275C364.132 302.275 364.132 302.174 364.065 302.04C364.031 301.872 363.964 301.67 363.897 301.402C363.696 300.831 363.427 299.991 363.091 298.951C362.386 296.735 361.345 293.612 360.07 289.617C358.76 285.621 357.182 280.753 355.503 275.18C354.63 272.393 353.757 269.438 352.918 266.282C352.717 265.51 352.515 264.704 352.347 263.899C352.146 263.093 352.012 262.287 351.978 261.448C351.944 259.769 352.213 258.057 352.616 256.344V256.411C355.638 251.577 358.928 246.373 362.353 240.9C364.098 238.18 365.777 235.326 367.657 232.506C368.598 231.13 369.571 229.72 370.478 228.276C371.351 226.799 372.224 225.288 373.13 223.777C376.018 218.539 378.636 213.335 380.785 208.097C381.927 205.512 382.867 202.927 383.874 200.409C384.747 197.824 385.687 195.339 386.459 192.888C388.104 187.953 389.414 183.219 390.555 178.753C391.663 174.288 392.603 170.091 393.208 166.196C393.241 165.961 393.275 165.726 393.309 165.457C393.376 165.256 393.342 164.853 393.073 164.618C392.57 164.282 392.066 164.282 391.596 164.249C390.623 164.215 389.716 164.349 388.843 164.585C388.608 164.618 388.407 164.685 388.205 164.752C388.071 164.786 387.97 164.853 387.869 164.887L387.668 165.055L387.634 165.122C387.534 165.021 387.668 165.457 387.802 165.39H387.903L388.004 165.323C388.373 165.055 388.675 164.786 389.011 164.517C389.649 163.98 390.253 163.477 390.858 162.973C391.16 162.738 391.462 162.503 391.764 162.268L392.201 161.932L392.335 161.798L392.402 161.63C392.436 161.496 392.402 161.395 392.402 161.294C392.234 160.522 391.932 159.918 391.663 159.313C391.093 158.105 390.488 157.03 389.951 156.09C388.877 154.176 388.004 152.699 387.399 151.725C387.097 151.255 386.862 150.92 386.694 150.617C386.526 150.382 386.426 150.248 386.426 150.248C386.426 150.282 386.493 150.416 386.627 150.651C386.795 150.953 386.996 151.322 387.265 151.793C387.836 152.8 388.709 154.277 389.75 156.191C390.253 157.165 390.824 158.239 391.395 159.414C391.63 160.018 391.966 160.69 392.066 161.328L392.1 161.563L392.066 161.63L391.999 161.664L391.563 161.999C391.26 162.234 390.958 162.469 390.656 162.704C390.052 163.208 389.414 163.712 388.776 164.249C388.44 164.484 388.104 164.786 387.802 164.987L387.769 165.021L387.802 165.189L387.869 165.222L387.97 165.256L388.037 165.222L388.306 165.122C388.507 165.055 388.709 164.987 388.944 164.954C389.783 164.752 390.656 164.652 391.563 164.652C391.999 164.685 392.503 164.719 392.771 164.954C393.006 165.122 392.838 165.692 392.771 166.129C392.133 169.99 391.193 174.187 390.052 178.619C388.91 183.084 387.567 187.785 385.922 192.687C385.15 195.171 384.21 197.622 383.303 200.174C382.296 202.692 381.356 205.311 380.214 207.862C378.066 213.066 375.48 218.271 372.593 223.475C365.206 235.259 358.223 246.406 352.146 256.143L352.112 256.176V256.21C351.676 257.956 351.407 259.702 351.441 261.448C351.508 262.321 351.642 263.194 351.844 263.999C352.012 264.839 352.213 265.644 352.448 266.417C353.287 269.573 354.194 272.527 355.067 275.314C356.779 280.887 358.391 285.722 359.734 289.718C361.11 293.679 362.185 296.802 362.923 298.984C363.293 300.025 363.595 300.864 363.796 301.435C363.897 301.704 363.964 301.905 364.031 302.073C364.098 302.207 364.132 302.275 364.132 302.275Z" fill="#29383E"/>
<path d="M403.447 264.637L386.996 269.975C386.996 269.975 388.372 284.715 390.454 284.883C392.536 285.051 408.651 280.182 409.86 279.041C411.069 277.866 403.447 264.637 403.447 264.637Z" fill="#0260A2"/>
<path d="M403.447 264.637C403.447 264.637 403.548 264.872 403.75 265.275C403.985 265.745 404.32 266.316 404.69 267.054C405.495 268.599 406.671 270.848 408.014 273.669C408.618 275.079 409.424 276.657 409.726 278.403C409.759 278.571 409.726 278.839 409.692 278.839C409.491 278.94 409.357 279.074 409.122 279.141C408.719 279.343 408.282 279.544 407.812 279.712C406.906 280.048 405.966 280.384 404.992 280.719C401.064 281.995 396.699 283.372 392.066 284.379C391.696 284.48 391.327 284.513 390.924 284.58C390.79 284.58 390.555 284.614 390.454 284.58C390.387 284.58 390.286 284.446 390.185 284.345C389.782 283.775 389.547 283.036 389.312 282.331C388.91 280.887 388.607 279.41 388.372 278C387.869 275.146 387.533 272.426 387.264 269.942L387.096 270.21C391.931 268.599 395.96 267.222 398.915 266.249C400.291 265.779 401.399 265.376 402.239 265.074C403.045 264.805 403.447 264.637 403.447 264.637C403.481 264.603 403.078 264.704 402.306 264.939C401.466 265.174 400.359 265.51 398.948 265.946C395.96 266.887 391.831 268.162 386.929 269.707L386.727 269.774V269.975C386.962 272.494 387.298 275.213 387.768 278.101C388.037 279.544 388.305 281.022 388.742 282.499C388.977 283.237 389.178 284.01 389.682 284.715C389.85 284.883 389.984 285.084 390.32 285.185C390.588 285.218 390.756 285.185 390.991 285.185C391.394 285.118 391.797 285.084 392.2 284.983C396.9 283.943 401.231 282.6 405.16 281.257C406.167 280.921 407.107 280.585 408.014 280.216C408.484 280.014 408.92 279.846 409.357 279.611C409.592 279.544 409.827 279.376 410.028 279.208C410.33 278.873 410.229 278.604 410.229 278.336C410.095 277.362 409.726 276.556 409.424 275.75C409.088 274.944 408.752 274.206 408.383 273.501C407.006 270.68 405.764 268.465 404.891 266.954C404.455 266.181 404.119 265.611 403.85 265.208C403.615 264.805 403.481 264.603 403.447 264.637Z" fill="#29383E"/>
<path d="M354.697 259.97C354.697 261.649 356.107 263.026 357.853 263.026C359.599 263.026 361.009 261.649 361.009 259.97C361.009 258.291 359.599 256.915 357.853 256.915C356.107 256.915 354.697 258.291 354.697 259.97Z" fill="#29383E"/>
<path d="M369.974 259.131C369.974 260.843 371.384 262.186 373.13 262.186C374.876 262.186 376.286 260.843 376.286 259.131C376.286 257.452 374.876 256.076 373.13 256.076C371.384 256.076 369.974 257.452 369.974 259.131Z" fill="#29383E"/>
<path d="M372.056 236.367C372.056 238.046 373.466 239.422 375.212 239.422C376.958 239.422 378.368 238.046 378.368 236.367C378.368 234.688 376.958 233.312 375.212 233.312C373.466 233.312 372.056 234.688 372.056 236.367Z" fill="#29383E"/>
<path d="M408.014 159.28C408.014 159.28 416.24 160.052 418.053 181.54C419.463 198.596 419.698 223.777 419.698 223.777L424.734 301.939L411.942 304.423L404.119 262.086C393.744 235.629 396.968 217.532 396.968 217.532L403.145 172.307L408.014 159.28Z" fill="#0260A2"/>
<path d="M410.129 173.65C410.096 173.65 410.028 173.885 409.928 174.288C409.827 174.791 409.693 175.396 409.525 176.168C409.155 177.847 408.685 180.197 408.081 183.017C406.872 188.792 405.227 196.783 403.515 205.646C401.836 214.51 400.392 222.568 399.553 228.41C399.117 231.365 398.848 233.715 398.68 235.36C398.613 236.132 398.546 236.77 398.512 237.274C398.479 237.71 398.479 237.945 398.512 237.945C398.512 237.945 398.579 237.71 398.647 237.274C398.714 236.804 398.814 236.166 398.915 235.394C399.15 233.782 399.519 231.398 399.99 228.477C400.93 222.669 402.44 214.644 404.119 205.781C405.832 196.951 407.376 188.96 408.518 183.084C409.055 180.197 409.491 177.847 409.76 176.201C409.861 175.429 409.961 174.825 410.062 174.321C410.129 173.885 410.129 173.65 410.129 173.65Z" fill="#29383E"/>
<path d="M410.364 237.945C410.532 238.012 411.842 235.259 414.024 232.271C416.173 229.216 418.355 227.1 418.221 226.966C418.12 226.832 415.736 228.813 413.52 231.902C411.304 234.991 410.196 237.878 410.364 237.945Z" fill="#29383E"/>
<path d="M322.7 154.008C322.7 154.008 311.251 156.09 307.928 167.136C306.182 172.945 292.752 223.81 292.147 225.388C291.543 226.933 281.001 249.697 297.184 253.222C313.4 256.747 329.08 234.454 329.08 234.454C329.08 234.454 324.312 175.563 324.111 174.791C323.909 173.985 322.7 154.008 322.7 154.008Z" fill="#0260A2"/>
<path d="M324.01 173.65C323.977 173.65 323.943 174.187 323.943 175.194C323.943 176.168 323.977 177.578 324.01 179.324C324.144 182.816 324.413 187.65 324.85 192.955C325.252 198.294 325.79 203.095 326.293 206.553C326.562 208.299 326.797 209.709 327.032 210.649C327.133 211.119 327.233 211.488 327.368 211.723C327.468 211.992 327.502 212.093 327.535 212.093C327.603 212.059 327.401 211.556 327.267 210.615C327.099 209.642 326.931 208.232 326.73 206.519C326.327 203.028 325.89 198.226 325.454 192.922C325.017 187.617 324.682 182.782 324.447 179.29C324.346 177.645 324.245 176.268 324.178 175.161C324.111 174.187 324.044 173.65 324.01 173.65Z" fill="#29383E"/>
<path d="M302.959 192.619L270.391 200.14L267 207.627L301.078 206.351L302.959 192.619Z" fill="#3F5E69"/>
<path d="M355.033 232.607C355.973 233.816 351.441 243.082 350.333 242.478L298.594 201.651L302.959 192.619L355.033 232.607Z" fill="#3F5E69"/>
<path d="M267 207.627L298.594 201.651L350.333 242.478L316.791 246.07L267 207.627Z" fill="#3F5E69"/>
<path d="M316.791 246.07L349.359 242.579L350.333 242.478L298.594 201.651L267 207.627L316.791 246.07Z" fill="#31444B"/>
<path d="M323.405 241.236C323.405 241.236 326.696 234.823 320.283 228.914C313.87 223.004 309.573 223.575 307.86 224.247C306.182 224.952 298.862 229.686 298.862 229.686L291.979 227.336L292.55 236.367L298.862 250.569C298.862 250.569 312.964 253.255 323.405 241.236Z" fill="#0260A2"/>
<path d="M321.928 212.361C321.928 212.361 327.804 205.848 329.18 205.848C330.557 205.848 331.631 206.654 331.933 209.105C331.933 209.105 334.485 209.474 334.384 212.798C334.384 212.798 335.962 214.04 335.727 216.491C335.727 216.491 338.313 219.177 337.641 220.688C336.936 222.199 335.157 228.175 333.713 228.746C332.236 229.317 320.048 234.084 320.048 234.084L310.043 241.672C310.043 241.672 304.134 232.204 305.712 228.377C307.256 224.549 309.875 223.643 309.942 222.3C310.043 220.957 308.968 214.51 309.774 212.999C310.546 211.455 315.952 206.855 316.724 206.419C317.496 205.949 317.899 203.666 319.88 204.539C321.827 205.378 321.626 207.56 320.552 209.172C319.477 210.783 317.026 214.611 317.026 214.611L321.928 212.361Z" fill="#F7BAA1"/>
<path d="M269.988 200.98L302.455 193.66L298.594 200.946L267.269 206.989L269.988 200.98Z" fill="#FEFEFE"/>
<path d="M352.146 230.391C352.146 230.391 348.352 238.617 346.438 239.423L344.255 237.71C344.255 237.71 349.392 229.753 349.93 228.679L352.146 230.391Z" fill="#FEFEFE"/>
<path d="M312.594 200.073C312.594 200.073 308.8 207.627 307.357 208.635L305.006 206.721C305.006 206.721 309.808 199.469 310.378 198.361L312.594 200.073Z" fill="#FEFEFE"/>
</svg>
