<svg width="240" height="259" viewBox="0 0 240 259" fill="none" xmlns="http://www.w3.org/2000/svg">
<path fill-rule="evenodd" clip-rule="evenodd" d="M35.8087 177.927C36.352 183.652 37.3611 189.299 38.8358 194.869C44.2692 190.305 50.0908 184.889 54.0494 176.689C55.6794 173.363 56.3004 169.495 56.378 166.091C56.4556 160.599 56.6885 156.189 55.9123 151.702C55.2137 154.1 54.0494 156.808 52.3417 159.825C46.7531 169.418 40.5435 174.137 35.8087 177.927ZM59.9485 99.0977L54.4375 75.6577C49.9355 76.7407 45.4336 78.0559 41.1644 79.6804C41.9406 87.0296 42.1735 94.4561 41.7078 102.347C48.5384 100.645 55.1361 99.5618 59.9485 99.0977ZM183.986 166.091C184.063 169.495 184.684 173.363 186.314 176.689C190.35 184.967 196.172 190.305 201.528 194.869C203.002 189.222 204.012 183.574 204.555 177.927C199.742 174.059 193.533 169.34 188.022 159.825C186.314 156.808 185.072 154.1 184.451 151.702C183.675 156.189 183.908 160.599 183.986 166.091ZM185.848 75.5804L180.26 99.0203C185.15 99.4845 191.748 100.568 198.578 102.269C198.19 94.3787 198.345 86.9522 199.121 79.6031C194.852 77.9785 190.35 76.6634 185.848 75.5804ZM77.8011 83.3163H67.1672V190.924C67.1672 201.29 75.6278 209.645 85.9513 209.645H98.8362C111.876 209.645 119.017 215.214 119.017 222.022H121.268C121.268 215.137 128.409 209.645 141.45 209.645H154.335C164.736 209.645 173.119 201.212 173.119 190.924V83.3163H173.196H162.329C167.22 80.9182 170.092 76.7407 168.617 71.0161C168.384 69.5463 165.279 63.667 166.754 58.5612C161.786 62.5839 158.448 69.1595 154.8 78.1332C153.791 80.5314 153.093 81.7691 151.54 81.2276C142.924 78.4427 131.747 76.5087 120.104 76.5087C108.539 76.5087 97.2838 78.52 88.668 81.2276C87.1156 81.6918 86.417 80.454 85.4079 78.1332C81.6045 69.0821 78.2669 62.5839 73.4544 58.5612C74.9292 63.7443 71.8244 69.6237 71.4363 71.0161C70.0391 76.7407 72.9111 80.9182 77.8011 83.3163ZM119.871 200.516C114.826 200.516 110.712 196.416 110.712 191.388C110.712 191.31 110.712 191.156 110.712 191.078C111.721 192.78 113.584 193.941 115.757 193.941C119.017 193.941 121.657 191.31 121.657 188.061C121.657 185.586 120.104 183.42 117.853 182.569C118.552 182.414 119.173 182.337 119.871 182.337C124.917 182.337 128.953 186.359 129.03 191.388C128.953 196.493 124.917 200.516 119.871 200.516ZM159.535 200.516L122.277 171.352L126.081 168.335L162.407 196.88L159.535 200.516ZM163.106 139.479C162.097 141.568 159.225 141.955 157.672 140.253L155.421 142.187C161.01 153.172 159.535 153.249 165.434 164.544C159.38 168.102 146.573 177.463 146.573 177.463C140.673 166.942 142.071 166.555 136.792 156.731L80.8283 200.516L77.9564 196.88L116.378 166.71L103.649 156.653C98.3705 166.555 99.69 166.942 93.8685 177.386C93.8685 177.386 81.0612 167.948 75.0068 164.467C80.906 153.095 79.4312 153.095 85.0198 142.11L82.6136 140.176C81.0612 141.878 78.1893 141.568 77.1802 139.402L72.2901 129.113L83.4674 131.434C85.7184 131.898 86.8051 134.528 85.4855 136.462L120.104 163.616L154.723 136.462C153.403 134.606 154.412 131.898 156.741 131.434L167.918 129.113L163.106 139.479ZM128.798 135.534V139.866H122.433V144.895L126.391 145.978L125.77 148.221L122.433 147.293V151.238H117.776V145.978L113.817 144.895L114.438 142.651L117.776 143.579V139.866H111.411V135.534H117.776V129.577H122.433V135.534H128.798ZM167.996 123.311H72.2901V88.19H167.996V123.311ZM184.141 70.8614L188.022 54.2291C173.507 52.5272 170.557 56.6272 169.781 58.3292C168.306 61.3462 169.626 65.601 170.868 68.6954C173.119 68.5406 176.767 68.8501 184.141 70.8614ZM69.5734 68.5406C70.7377 65.5236 72.0573 61.2688 70.5825 58.2518C69.8063 56.5499 66.8567 52.5272 52.4194 54.0744L56.3004 70.7067C63.5967 68.7727 67.3224 68.4633 69.5734 68.5406ZM106.21 237.649C106.443 231.383 107.918 227.36 108.849 225.349C101.553 220.552 86.9603 216.762 75.5502 219.315C82.536 220.707 92.0056 227.36 101.475 234.245C103.338 235.56 105.046 236.798 106.21 237.649ZM165.124 232.002C168.85 231.073 170.712 229.217 170.635 226.122C170.635 223.105 169.315 222.564 168.85 222.409C165.046 220.862 156.12 225.735 149.677 231.46C155.188 232.543 160.855 233.007 165.124 232.002ZM71.2811 222.099C69.9615 222.718 69.1853 224.111 68.9524 226.432C68.7972 227.824 69.1853 228.907 70.1168 229.758C73.0663 232.311 81.0612 232.698 92.2385 230.918C85.5632 226.354 77.9564 221.713 73.2992 221.713C72.523 221.713 71.902 221.867 71.2811 222.099ZM131.67 225.194C133.765 226.664 139.742 229.062 146.417 230.764C149.91 227.437 154.179 224.266 158.216 222.177C160.389 221.016 163.106 219.856 165.745 219.547C154.335 216.607 139.276 220.32 131.67 225.194ZM120.415 66.1425C131.67 66.1425 142.226 67.9991 151.851 71.4029C154.8 66.9934 161.476 55.6989 161.476 44.2497C161.476 32.0269 144.943 25.2966 135.783 24.9872C135.783 24.9872 120.182 53.3781 120.182 53.4555L104.58 24.9872C95.4209 25.2966 78.8878 32.0269 78.8878 44.2497C78.8878 55.7763 85.7184 67.3029 88.668 71.5576C98.2929 68.0765 109.004 66.1425 120.415 66.1425ZM130.04 13.4606L120.182 0L110.246 13.4606L120.182 35.8175L130.04 13.4606ZM75.2397 104.281C75.2397 104.281 75.5502 104.358 75.8606 104.513C75.4725 105.364 75.4725 105.673 75.7054 105.905C75.9383 106.137 76.9473 105.983 78.2669 104.9C79.664 104.9 80.2074 104.358 81.5269 103.43C81.915 103.198 82.3031 102.888 82.8465 102.502C83.3122 102.192 84.0108 102.192 84.3989 102.656C85.0974 103.352 86.1065 104.513 87.1156 105.751C87.3484 106.06 87.5813 106.369 87.8918 106.756C88.3575 107.375 88.7456 107.994 89.2889 108.613C88.047 109.696 86.3394 111.088 84.3989 112.481C83.545 113.177 82.6912 113.564 81.0612 113.641C80.4402 113.641 79.664 114.338 79.5088 115.034C79.4312 115.421 79.5864 115.807 79.9745 115.962C80.3626 116.194 81.0612 116.272 81.6822 116.272C82.6136 116.272 83.7003 116.117 84.3989 116.039C84.9422 115.962 89.7546 113.951 93.4028 112.017C93.7909 112.171 94.179 112.404 94.6447 112.558C93.4028 113.564 91.7728 114.879 89.9875 116.272C89.1337 116.968 88.2799 117.355 86.6498 117.432C86.0289 117.432 85.2527 118.128 85.0974 118.824C85.0198 119.211 85.1751 119.598 85.5632 119.753C85.9513 119.985 86.6498 120.062 87.2708 120.062C88.2022 120.062 89.2889 119.907 89.9875 119.83C90.6861 119.675 100.233 115.73 102.407 113.409C103.028 113.332 103.649 113.254 104.27 113.177C109.936 112.326 114.127 110.856 117.776 109.619C121.501 108.381 124.684 107.22 128.332 107.143C133.455 106.988 135.939 109.928 138.112 112.481C138.888 113.409 139.587 114.26 140.363 114.956C140.751 115.266 141.217 115.575 141.605 115.73L141.915 115.885C142.692 116.349 143.08 116.736 143.235 117.122C143.157 117.2 143.08 117.277 142.924 117.355C142.071 117.741 141.527 118.824 141.76 119.675C141.915 120.294 142.381 120.604 143.002 120.604C143.313 120.604 145.02 120.604 146.107 120.526C146.65 120.526 147.038 120.217 147.349 119.753C147.892 118.824 147.815 117.355 147.426 116.194C148.513 116.117 149.445 116.194 150.066 116.581C150.842 117.045 151.23 117.432 151.385 117.819C151.307 117.896 151.23 117.973 151.075 118.051C150.221 118.438 149.677 119.521 149.91 120.372C150.066 120.99 150.531 121.3 151.152 121.3C151.463 121.3 153.17 121.3 154.257 121.223C154.8 121.223 155.188 120.913 155.499 120.449C156.12 119.443 155.965 117.741 155.499 116.581C154.8 114.879 153.326 112.636 152.006 111.862C151.152 111.398 150.764 111.398 150.143 111.553L149.91 111.63C148.979 111.785 148.358 108.922 148.125 107.917C147.97 107.375 147.737 106.679 147.426 105.905C148.358 106.447 149.677 107.143 151.307 107.917C153.947 109.154 157.439 110.16 160.467 110.16C161.631 110.16 162.718 110.005 163.649 109.696C164.736 109.309 165.512 108.613 165.9 107.685C166.599 105.673 165.434 103.275 165.357 103.043C165.279 102.811 165.046 102.656 164.813 102.656C164.58 102.579 164.348 102.656 164.192 102.811C164.192 102.811 162.329 104.126 157.595 103.971C154.412 103.817 151.075 102.811 147.194 101.573C144.322 100.645 141.062 99.6392 137.258 98.7882C127.789 96.3127 115.602 98.0146 106.598 99.2524C104.27 99.5618 102.174 99.8713 100.466 100.026C98.2152 100.258 96.0419 99.6392 94.2566 98.3241C93.0147 97.3958 92.0056 96.6222 91.1518 95.8486C89.677 94.6108 88.5127 93.6825 87.2708 93.0636C87.1156 92.6768 86.9603 92.29 86.8051 91.9032C86.4946 90.7428 85.7184 90.4334 85.3303 90.2787C84.7093 90.124 84.0884 90.2787 83.6227 90.7428C83.2346 91.1296 82.8465 91.7485 82.4584 92.29C81.9926 92.3674 81.6045 92.4448 81.0612 92.5995C80.9836 92.5221 80.8283 92.3674 80.7507 92.29C79.8969 91.4391 79.1207 91.4391 78.7326 91.5164C78.1116 91.6712 77.6459 92.058 77.413 92.6768C77.1026 93.5278 77.0249 94.8429 77.1026 95.7712C76.7145 96.6222 76.5592 97.4731 76.3264 98.4014C76.1711 99.175 76.0159 99.9486 75.7054 100.722C75.0844 102.192 74.6963 103.275 74.6963 103.352C74.6963 103.739 74.8516 104.126 75.2397 104.281ZM79.7417 97.9373C80.2074 97.4731 80.9836 97.6278 81.3717 97.7052C81.4493 98.1694 81.5269 98.8656 81.0612 99.3298C80.5955 99.7939 79.8193 99.6392 79.4312 99.5618C79.4312 99.2524 79.2759 98.4014 79.7417 97.9373ZM194.93 68.1538C195.706 68.5406 196.482 68.618 197.259 68.5406C198.811 71.1709 200.596 74.3426 202.382 77.437C199.898 97.0863 202.226 112.713 204.632 129.345C204.71 129.964 204.788 130.583 204.865 131.125C203.934 130.196 202.149 128.262 201.217 127.334C197.414 123.311 200.674 120.139 199.277 116.117C198.656 114.338 197.724 112.945 196.948 113.332C196.405 113.564 195.861 113.332 195.706 112.713C195.008 110.16 193.61 106.911 189.264 108.69C188.876 108.845 188.41 108.768 188.177 108.381C186.857 106.137 183.597 105.596 181.89 107.298C179.872 109.309 180.881 112.868 182.899 114.415C183.287 114.647 183.442 115.266 183.209 115.653C180.415 120.062 185.15 121.996 187.246 122.46C187.789 122.615 188.022 123.157 187.867 123.775C187.556 124.704 187.556 126.019 189.031 127.024C191.592 128.726 195.008 127.024 196.87 128.572C197.957 129.423 199.51 131.357 201.062 133.368C200.13 133.91 199.354 134.374 198.578 134.915C195.551 136.927 191.748 139.247 188.953 142.187C185.15 146.674 186.392 151.78 190.195 158.046C194.309 154.642 199.587 151.934 203.158 149.691C210.687 144.895 221.321 140.253 226.987 133.368C231.644 127.643 231.256 123.079 231.877 108.922C231.877 108.768 231.877 108.536 231.877 108.381C230.79 111.398 228.695 114.57 225.9 117.277C222.64 120.681 217.75 123.853 212.86 126.715C213.869 124.317 214.878 121.996 215.577 120.449C215.965 120.372 216.353 120.294 216.664 120.139C218.837 119.289 219.846 116.813 218.992 114.724C218.138 112.558 215.655 111.553 213.559 112.404C211.385 113.254 210.376 115.73 211.23 117.819C211.463 118.283 211.696 118.747 212.084 119.134C211.308 121.377 210.066 124.549 208.902 127.566C207.815 120.139 206.728 112.558 206.185 104.668C213.171 106.988 220.001 110.16 224.891 114.492C229.16 109.851 231.179 103.971 229.626 100.103C225.9 94.3787 219.07 89.1956 210.764 84.8635C217.362 79.7578 220.7 83.239 223.805 81.7691C225.823 80.7635 225.978 79.2936 225.668 78.2106C225.512 77.5143 225.9 76.8955 226.599 76.8181C229.316 76.4313 234.516 74.8841 232.498 69.3916C232.343 68.8501 232.576 68.3085 233.041 67.9991C235.758 66.4519 237.311 62.6613 235.137 60.1858C233.041 57.7103 228.928 58.6386 227.065 61.1141C226.754 61.5783 226.133 61.733 225.59 61.4235C220.467 58.716 217.906 63.1255 216.974 65.601C216.741 66.2198 215.965 66.5293 215.344 66.2198C214.413 65.7557 212.86 65.4462 211.696 67.3029C209.212 71.4803 211.385 77.5917 206.185 82.2333C206.651 77.1275 207.427 71.8671 208.669 66.4519L208.746 66.3746C209.212 64.8274 209.523 62.8934 210.299 61.8877C213.714 57.6329 219.613 58.4839 221.631 55.7763C223.106 53.7649 222.485 52.2951 221.709 51.3668C221.243 50.8253 221.321 49.9743 221.942 49.5102C224.348 47.8082 229.549 42.7799 224.038 39.2987C223.494 38.9893 223.494 38.2157 223.882 37.6741C225.745 34.8118 225.435 30.0155 222.019 29.0099C219.07 28.0815 215.189 30.5571 214.568 33.8835C214.413 34.5024 213.947 34.8892 213.326 34.8892C207.039 35.276 206.728 39.7628 206.961 43.244C207.039 44.0176 206.418 44.6365 205.642 44.6365C204.477 44.6365 202.77 45.1007 202.614 47.5762C202.381 51.7536 204.555 55.6216 204.865 60.7273C204.943 61.5009 204.788 62.5066 204.632 63.5122C203.934 66.4519 203.391 69.2369 202.925 72.0218C201.916 70.2425 200.907 68.3859 200.053 66.684C200.131 66.5293 200.286 66.2972 200.363 66.1425C201.372 64.0538 200.441 61.5009 198.268 60.4952C196.172 59.4896 193.61 60.4179 192.601 62.5839C191.825 64.5953 192.757 67.1481 194.93 68.1538ZM235.06 165.704C238.397 163.693 242.356 160.521 238.242 155.183C237.776 154.642 237.776 154.023 238.242 153.481C240.881 150.851 240.338 146.055 237.466 144.276C234.05 142.187 229.471 144.972 228.151 148.376C227.919 148.995 227.22 149.381 226.521 149.227C218.449 147.37 220.079 158.665 217.517 160.753C213.171 164.621 216.353 171.042 215.655 174.369C215.034 177.463 212.783 180.325 211.463 182.569C213.248 169.959 212.783 158.355 211.618 147.215C210.066 148.066 208.591 148.917 207.116 149.768C207.815 156.499 208.125 163.229 207.97 170.114C206.495 167.638 205.098 165.318 204.089 163.538C204.322 163.151 204.477 162.765 204.555 162.3C205.021 160.057 203.623 157.814 201.295 157.349C199.044 156.885 196.793 158.278 196.327 160.599C195.861 162.842 197.259 165.085 199.587 165.55C199.975 165.627 200.441 165.627 200.829 165.627C202.692 168.257 205.253 172.203 207.582 175.916C206.961 183.497 205.564 191.31 202.925 199.897C200.208 208.948 195.163 215.911 188.022 220.939C189.341 219.16 190.195 217.071 190.583 214.518C191.437 208.794 195.318 210.882 196.172 206.395C196.56 204.461 195.318 203.688 194.387 203.456C193.766 203.301 193.455 202.682 193.688 202.063C194.619 199.433 195.318 195.797 190.428 194.173C189.962 194.018 189.652 193.554 189.652 193.09C189.885 190.305 187.323 187.52 184.839 187.674C181.967 187.752 180.648 191.465 181.502 194.173C181.657 194.637 181.502 195.256 181.036 195.41C175.913 196.958 178.94 202.063 180.493 203.92C180.881 204.384 180.803 205.08 180.26 205.39C179.484 205.931 178.63 207.014 179.406 208.871C180.648 212.12 185.383 210.418 186.625 212.894C187.09 213.822 187.401 220.784 178.63 225.735C176.456 226.973 174.671 227.592 173.041 228.056V228.134C172.963 228.056 172.963 228.056 172.963 228.056C172.498 230.686 170.712 233.239 165.59 234.477C156.741 236.643 140.208 232.698 132.368 228.675C132.911 230.996 133.377 234.245 133.3 238.964C133.3 239.737 130.505 242.522 130.505 242.522C131.126 232.775 129.108 226.973 128.565 226.045C128.487 225.967 128.409 225.813 128.332 225.735C128.099 225.658 127.944 225.581 127.711 225.581C122.51 225.581 114.438 225.581 112.264 225.581C112.032 225.581 111.721 225.658 111.488 225.813C110.557 227.515 108.539 232.466 108.772 242.058C108.772 242.058 106.288 241.053 101.553 237.649C100.156 236.643 96.8181 234.168 95.1104 232.93C85.3303 234.709 72.9111 235.947 68.0986 231.537C66.8567 230.454 66.2357 229.062 66.0805 227.515C66.0805 227.36 66.0805 227.205 66.0805 227.128C64.4505 226.664 62.8981 226.2 61.3457 225.581C52.6522 220.475 52.8851 213.59 53.3508 212.739C54.5927 210.263 59.3276 211.965 60.5695 208.716C61.2681 206.782 60.4919 205.777 59.7157 205.235C59.2499 204.926 59.0947 204.229 59.4828 203.765C61.0352 201.909 64.0624 196.803 58.9395 195.256C58.4737 195.101 58.3185 194.482 58.4737 194.018C59.3276 191.31 58.0856 187.674 55.1361 187.52C52.6522 187.442 50.0908 190.227 50.3236 192.935C50.3236 193.476 50.0131 193.863 49.5474 194.018C44.6574 195.642 45.4336 199.278 46.2874 201.909C46.5202 202.527 46.2098 203.146 45.5888 203.301C44.6573 203.533 43.4154 204.307 43.8035 206.241C44.735 210.728 48.5384 208.639 49.3922 214.364C49.7803 216.916 50.6341 219.005 51.9536 220.784C44.735 215.833 39.8449 208.794 37.0506 199.743C34.4891 191.233 33.0919 183.342 32.3934 175.761C34.722 171.97 37.2834 168.102 39.1463 165.472C39.5344 165.472 40.0001 165.472 40.3882 165.395C42.6392 164.931 44.114 162.687 43.6483 160.444C43.1826 158.2 40.9316 156.731 38.6806 157.195C36.4296 157.659 34.9548 159.902 35.4206 162.146C35.4982 162.61 35.6534 162.997 35.8863 163.384C34.8772 165.24 33.48 167.561 32.0053 169.959C31.7724 163.229 32.1605 156.421 32.7815 149.768C31.3843 148.917 29.9095 148.144 28.4347 147.293C27.1928 158.51 26.7271 170.114 28.5124 182.801C27.1928 180.48 24.9418 177.695 24.3209 174.601C23.6223 171.197 26.8047 164.776 22.458 160.985C19.8965 158.742 21.5265 147.602 13.4541 149.459C12.7555 149.614 12.0569 149.149 11.824 148.608C10.5045 145.204 5.9249 142.419 2.50961 144.508C-0.439953 146.287 -0.905674 151.006 1.73341 153.714C2.19913 154.178 2.19913 154.874 1.81103 155.415C-2.30284 160.753 1.65579 163.925 4.99346 165.936C5.76966 166.401 5.9249 167.252 5.38156 167.87C4.52774 168.799 3.75153 170.501 5.9249 172.203C9.72829 175.22 15.3169 174.446 19.3532 177.308C22.3804 179.474 23.9328 183.11 26.2614 186.205C24.7866 187.829 23.5447 189.531 22.458 191.465C20.9832 195.256 22.3804 199.897 26.6495 205.622C28.1243 203.688 30.0648 201.909 32.2381 200.129C32.3158 200.516 32.471 200.903 32.5486 201.212C35.4982 211.114 41.0868 218.928 48.9265 224.42C38.6806 221.171 30.1424 216.065 24.9418 207.865C22.5356 204.694 20.828 201.754 19.8965 198.969C19.2756 203.456 19.586 208.871 21.3713 215.756C26.2614 235.251 44.5797 243.451 69.0301 244.534C73.9978 254.126 88.9008 250.336 99.69 247.319C103.959 251.573 107.452 259 107.452 259C111.876 256.834 115.292 253.275 117.853 249.872C121.191 252.657 126.857 256.215 135.628 258.613C135.628 258.613 135.628 252.424 137.491 246.313C148.668 249.794 163.416 253.74 168.772 244.534C194.076 243.76 213.171 235.637 218.216 215.679C220.001 208.716 220.312 203.378 219.691 198.892C218.759 201.677 217.052 204.616 214.645 207.788C209.445 215.988 200.751 221.171 190.428 224.343C198.345 218.773 204.089 210.96 207.039 201.212C207.194 200.826 207.272 200.361 207.427 199.975C209.523 201.754 211.463 203.533 213.015 205.467C217.285 199.665 218.682 195.024 217.207 191.31C216.198 189.376 214.878 187.597 213.404 186.05C215.655 182.956 217.207 179.397 220.234 177.308C224.348 174.446 229.937 175.22 233.662 172.203C235.836 170.501 235.06 168.876 234.206 167.87C234.128 167.097 234.283 166.168 235.06 165.704ZM7.24444 68.0765C7.71016 68.3859 7.94302 68.9274 7.78778 69.4689C5.84728 74.9615 11.0478 76.5087 13.6869 76.8955C14.3855 76.9728 14.7736 77.6691 14.6184 78.2879C14.3855 79.371 14.4631 80.8408 16.4812 81.8465C19.586 83.3937 22.9237 79.9125 29.4438 84.8635C21.2161 89.1183 14.3855 94.3787 10.6597 100.026C9.10733 103.971 11.1254 109.851 15.3946 114.415C20.2846 110.16 27.0376 106.911 34.101 104.59C33.5577 112.558 32.471 120.139 31.3843 127.643C30.22 124.626 28.9781 121.455 28.2019 119.211C28.5124 118.824 28.8228 118.438 29.0557 117.896C29.9095 115.73 28.9005 113.332 26.7271 112.481C24.5537 111.63 22.1475 112.636 21.2937 114.802C20.4399 116.968 21.4489 119.366 23.6223 120.217C24.0104 120.372 24.3985 120.449 24.709 120.526C25.4852 122.073 26.4166 124.317 27.4257 126.715C22.458 123.853 17.6455 120.681 14.3855 117.277C11.5912 114.57 9.57305 111.398 8.40874 108.381C8.40874 108.536 8.40874 108.768 8.40874 108.922C9.02971 123.079 8.6416 127.643 13.2988 133.368C18.9651 140.33 29.599 144.895 37.1282 149.691C40.7763 151.934 46.0545 154.642 50.0908 158.046C53.8941 151.702 55.1361 146.596 51.3327 142.187C48.5384 139.247 44.735 136.927 41.7078 134.915C40.9316 134.374 40.0001 133.832 39.0687 133.291C40.6211 131.202 42.2511 129.191 43.4154 128.262C45.2783 126.792 48.6936 128.417 51.2551 126.715C52.7298 125.709 52.7298 124.394 52.4194 123.466C52.2641 122.924 52.497 122.306 53.0403 122.151C55.1361 121.687 59.8709 119.675 57.0766 115.343C56.8437 114.956 56.999 114.338 57.3871 114.105C59.4052 112.636 60.4142 109 58.3961 107.066C56.6885 105.441 53.4284 105.905 52.1089 108.149C51.876 108.536 51.4103 108.69 51.0222 108.458C46.7531 106.602 45.3559 109.851 44.5797 112.481C44.4245 113.1 43.8811 113.332 43.3378 113.1C42.5616 112.713 41.5525 114.028 41.0092 115.885C39.612 119.907 42.9497 123.079 39.0687 127.102C38.1373 128.108 36.352 129.964 35.4206 130.892C35.4982 130.274 35.5758 129.732 35.6534 129.113C38.0596 112.636 40.3882 96.8542 37.9044 77.2049C39.612 74.1105 41.3973 70.9388 43.0273 68.3085C43.8035 68.3859 44.5797 68.3085 45.3559 67.9218C47.4517 66.9161 48.3831 64.4406 47.4517 62.2745C46.4426 60.1858 43.9588 59.2575 41.7854 60.1858C39.612 61.1141 38.7582 63.667 39.6897 65.833C39.7673 65.9878 39.9225 66.2198 40.0001 66.3746C39.1463 67.9991 38.0596 69.8557 37.1282 71.7124C36.6625 68.9274 36.1191 66.0651 35.4206 63.2028C35.2653 62.1971 35.1101 61.2688 35.1877 60.4179C35.4982 55.2348 37.6715 51.3668 37.4387 47.2667C37.2834 44.7912 35.5758 44.3271 34.4115 44.3271C33.6353 44.3271 33.0919 43.7082 33.0919 42.9346C33.3248 39.5308 33.0143 34.9665 26.7271 34.5798C26.1061 34.5798 25.5628 34.1156 25.4852 33.5741C24.8642 30.2476 20.9056 27.7721 18.0336 28.7004C14.6184 29.7835 14.3079 34.5024 16.1708 37.3647C16.4812 37.9062 16.4812 38.6798 16.0155 38.9893C10.5045 42.3931 15.705 47.4214 18.1113 49.2007C18.7322 49.6649 18.8098 50.5158 18.3441 51.0574C17.5679 51.9857 16.947 53.4555 18.4217 55.4669C20.4399 58.2518 26.339 57.3235 29.7543 61.5783C30.5305 62.5839 30.7633 64.5179 31.3067 66.0651C31.3067 66.1425 31.3843 66.1425 31.3843 66.1425C32.6262 71.635 33.4024 76.8955 33.8681 81.9238C28.6676 77.2049 30.841 71.0935 28.3571 66.9934C27.1928 65.0594 25.6404 65.3689 24.709 65.9104C24.1656 66.2198 23.3894 65.9878 23.1566 65.2915C22.1475 62.816 19.6637 58.4065 14.5407 61.1141C14.075 61.3462 13.4541 61.2688 13.066 60.8047C11.2807 58.716 7.24444 57.865 5.07108 60.2631C3.05295 62.7387 4.52774 66.5293 7.24444 68.0765ZM85.796 153.249C86.417 153.636 86.7275 154.255 86.8827 154.565C86.417 154.951 86.0289 155.415 85.6408 156.034C85.2527 156.653 85.0974 157.195 84.9422 157.814C84.6317 157.814 83.8555 157.814 83.2346 157.504C82.6136 157.117 82.7688 156.112 83.0017 155.57L84.9422 155.648L83.9331 153.946C84.3212 153.481 85.1751 152.863 85.796 153.249ZM83.2346 153.868L84.0884 155.029L82.6136 154.874L82.2255 153.946L83.2346 153.868ZM96.9733 162.765C93.8685 164.467 94.4119 164.776 93.0147 161.836C92.7818 161.914 92.4714 161.991 92.1609 162.068C92.3937 166.168 90.6085 167.87 82.536 164.467L88.1246 160.676C88.1246 160.676 89.0561 162.842 89.677 161.759C90.6861 160.057 85.9513 158.819 85.9513 161.295C85.9513 161.295 83.8555 160.599 84.8646 158.665C86.0289 156.499 88.9784 157.968 88.9784 157.968C88.9784 157.968 86.2617 156.112 87.6589 154.023C88.9008 152.166 90.5309 153.714 90.5309 153.714C88.2799 154.874 91.6175 158.432 92.7042 156.731C93.3252 155.648 90.9966 155.88 90.9966 155.88L91.6952 149.149C98.5257 154.642 97.8271 156.963 94.1014 158.742C94.179 159.051 94.2566 159.361 94.2566 159.67C97.5167 159.516 97.0509 159.283 96.9733 162.765ZM148.203 162.068C147.815 161.991 147.582 161.914 147.349 161.836C146.029 164.776 146.495 164.467 143.39 162.765C143.39 159.283 142.847 159.516 146.107 159.748C146.107 159.516 146.184 159.206 146.262 158.819C142.536 157.04 141.838 154.719 148.668 149.227L149.367 155.957C149.367 155.957 146.961 155.725 147.659 156.808C148.668 158.51 152.084 154.951 149.833 153.791C149.833 153.791 151.463 152.244 152.705 154.1C154.024 156.112 151.385 158.046 151.385 158.046C151.385 158.046 154.335 156.576 155.499 158.742C156.508 160.676 154.412 161.372 154.412 161.372C154.412 158.819 149.677 160.134 150.686 161.836C151.307 162.919 152.239 160.753 152.239 160.753L157.828 164.544C149.677 167.87 147.97 166.168 148.203 162.068ZM158.138 153.946L157.75 154.874L156.275 155.029L157.129 153.868L158.138 153.946ZM156.353 153.946L155.344 155.648L157.284 155.57C157.517 156.034 157.672 157.117 157.051 157.504C156.43 157.891 155.654 157.891 155.344 157.814C155.188 157.195 154.956 156.576 154.645 156.034C154.335 155.493 153.869 154.951 153.403 154.565C153.558 154.255 153.947 153.559 154.49 153.249C155.188 152.863 156.042 153.481 156.353 153.946Z" fill="#0CAAEE" fill-opacity="0.1"/>
</svg>
