<svg width="528" height="440" viewBox="0 0 528 440" fill="none" xmlns="http://www.w3.org/2000/svg">
<path d="M528 439.455C527.864 439.758 413.378 440 270.829 440H264.017H257.205C114.52 440 0 439.758 0 439.455C0 439.152 118.181 438.91 264.017 438.91C409.718 438.91 527.864 439.152 528 439.455Z" fill="#E0E0E0"/>
<path d="M412.4 430.921C411.07 429.847 408.145 426.429 410.42 422.446C411.247 421.005 412.991 420.27 414.586 419.649C416.182 418.999 417.866 418.434 419.166 417.361C421.678 415.355 422.358 411.993 424.013 409.281C425.904 406.202 429.42 403.857 433.173 404.026C437.457 404.224 441.003 407.558 442.628 411.372C444.254 415.185 444.313 419.395 444.342 423.519C444.372 425.807 444.254 428.35 442.51 429.904C440.885 431.316 438.462 431.316 436.275 431.26C428.504 431.034 420.703 430.808 412.902 430.582L412.4 430.921Z" fill="#F4F4F4"/>
<path d="M145.574 392.024C145.574 392.494 145.574 418.392 145.574 418.392H141.235V421.243H145.574V438.91H226.544V422.86H220.556V419.362H226.544V414.1H229.235V411.719H226.052V392.024H145.574Z" fill="#F4F4F4"/>
<path d="M205.333 392.113V438.91H226.55V422.758H220.639V419.534L226.55 419.623V414.357H229.234L229.206 411.636L226.065 411.547V392.024L205.333 392.113Z" fill="#E0E0E0"/>
<path d="M210.766 430.703C210.766 431.048 196.19 431.277 178.187 431.277C160.184 431.277 145.58 431.048 145.58 430.703C145.58 430.416 160.184 430.187 178.187 430.187C196.19 430.187 210.766 430.416 210.766 430.703Z" fill="#E0E0E0"/>
<path d="M206.42 420.947C206.42 421.234 191.572 421.464 173.299 421.464C154.996 421.464 140.148 421.234 140.148 420.947C140.148 420.603 154.996 420.373 173.299 420.373C191.572 420.373 206.42 420.603 206.42 420.947Z" fill="#E0E0E0"/>
<path d="M206.42 418.738C206.42 419.065 191.572 419.283 173.299 419.283C154.996 419.283 140.148 419.065 140.148 418.738C140.148 418.465 154.996 418.193 173.299 418.193C191.572 418.193 206.42 418.465 206.42 418.738Z" fill="#E0E0E0"/>
<path d="M210.766 411.105C210.766 411.432 195.947 411.65 177.644 411.65C159.341 411.65 144.494 411.432 144.494 411.105C144.494 410.833 159.341 410.56 177.644 410.56C195.947 410.56 210.766 410.833 210.766 411.105Z" fill="#E0E0E0"/>
<path d="M218.37 392.024H232.494V374.578H218.37V392.024Z" fill="#F4F4F4"/>
<path d="M154.272 393.114H219.457V373.488H154.272V393.114Z" fill="#E0E0E0"/>
<path d="M232.784 393.114H217.284V390.934H232.784C233.239 390.934 233.58 391.449 233.58 392.044C233.58 392.639 233.239 393.114 232.784 393.114Z" fill="#E0E0E0"/>
<path d="M173.827 385.482H202.074V382.211H173.827V385.482Z" fill="#EBECEC"/>
<path d="M160.79 393.114H168.395V374.578H160.79V393.114Z" fill="#EBECEC"/>
<path d="M232.784 375.669H217.284V373.488H232.784C233.239 373.488 233.58 373.964 233.58 374.558C233.58 375.153 233.239 375.669 232.784 375.669Z" fill="#E0E0E0"/>
<path d="M206.42 393.114H214.025V373.488H206.42V393.114Z" fill="#EBECEC"/>
<path d="M500.083 386.015H494.053L495.517 368.644H502.093L500.083 386.015ZM494.943 430.137H490.32L491.698 413.808H496.838L494.943 430.137ZM449.805 368.644C450.035 369.889 451.126 376.75 452.59 386.015H446.589L443.718 368.644H449.805ZM486.128 386.015L486.702 368.644H494.943L493.45 386.015H486.128ZM484.663 430.137L485.209 413.808H491.095L489.717 430.137H484.663ZM456.955 413.808C457.816 419.454 458.678 425.041 459.482 430.137H453.94L451.212 413.808H456.955ZM456.237 409.321H450.466L447.364 390.531H453.308C454.227 396.321 455.232 402.807 456.237 409.321ZM464.219 390.531L465.655 409.321H456.84C456.553 407.41 456.237 405.47 455.95 403.559C455.261 399.13 454.572 394.671 453.911 390.531H464.219ZM463.875 386.015H453.193C452.82 383.612 452.476 381.353 452.131 379.298C451.04 372.263 450.609 369.628 450.379 368.644H462.525L463.875 386.015ZM474.556 386.015H464.478L463.128 368.644H474.154L474.556 386.015ZM475.159 386.015L474.757 368.644H486.099L485.525 386.015H475.159ZM475.676 409.321L475.245 390.531H485.381L484.75 409.321H475.676ZM466.258 409.321L464.822 390.531H474.671L475.073 409.321H466.258ZM467.263 430.137H460.085C459.395 425.736 458.505 420.004 457.558 413.808H466.028L467.263 430.137ZM466.603 413.808H475.188L475.561 430.137H467.866L466.603 413.808ZM476.164 430.137L475.791 413.808H484.606L484.089 430.137H476.164ZM493.68 390.531H499.537L497.355 409.321H492.072L493.68 390.531ZM491.497 409.321H485.353L485.984 390.531H493.077L491.497 409.321ZM502.753 368.036H443L453.768 432.743C454.256 435.58 456.266 437.751 458.879 438.504L459.08 438.562C459.252 438.62 459.424 438.678 459.625 438.707C459.998 438.793 460.429 438.822 460.831 438.851V438.909L461.118 438.851H487.765C488.253 438.851 488.741 438.793 489.229 438.707C492.359 438.214 494.886 435.667 495.259 432.395L500.456 387.81L500.686 386.015H500.657L502.724 368.383L502.753 368.036Z" fill="#E0E0E0"/>
<path d="M404.494 377.849L402.309 369.447C404.334 363.671 409.503 359.049 415.551 357.605C416.91 357.29 418.322 357.133 419.734 357.133C424.53 357.133 429.327 358.944 432.79 362.226C434.522 363.881 435.961 366.165 435.988 368.449C435.988 368.975 435.908 369.5 435.748 369.999C434.842 372.782 431.645 374.252 428.66 374.252C428.474 374.252 428.287 374.252 428.101 374.252C424.983 374.042 422.079 372.624 419.122 371.574C417.256 370.918 415.258 370.392 413.313 370.392C412.167 370.392 410.995 370.576 409.929 371.049C407.131 372.23 405.346 374.987 404.494 377.849Z" fill="#427A92"/>
<path d="M379.906 390.444C375.313 385.988 375.526 378.265 377.836 372.27C380.119 366.275 385.11 361.657 390.686 358.605C401.518 352.718 415.059 352.286 426.21 357.444C420.741 357.633 415.431 360.793 412.59 365.6C410.067 369.839 409.51 374.997 407.439 379.48C405.129 384.476 400.881 388.527 395.81 390.525C390.739 392.55 384.924 392.523 379.906 390.444Z" fill="#ACDCF0"/>
<path d="M377.812 363.674C372.702 357.703 372.036 348.111 372.781 340.316C373.527 332.522 375.337 324.7 374.112 316.958C373.367 312.387 371.584 308.001 370.972 303.403C370.386 298.832 371.238 293.627 374.831 290.641C378.956 287.233 385.45 288.052 389.735 291.249C394.02 294.446 396.495 299.493 398.332 304.487C402.324 315.505 403.788 327.739 400.488 338.969C397.214 350.225 389.522 360.266 378.238 363.674H377.812Z" fill="#ACDCF0"/>
<path d="M375.176 413.831C375.148 413.831 375.148 413.59 375.148 413.134C375.148 412.678 375.148 412.007 375.176 411.121C375.258 409.377 375.423 406.881 375.835 403.768C376.22 400.682 376.851 397.032 377.84 393.033C378.829 389.008 380.505 384.741 382.867 380.582C385.257 376.395 388.142 372.799 391.081 369.847C394.021 366.895 397.015 364.587 399.679 362.87C400.998 361.957 402.262 361.286 403.361 360.669C404.487 360.106 405.476 359.622 406.272 359.247C407.069 358.925 407.701 358.656 408.168 358.469C408.607 358.308 408.827 358.2 408.827 358.227C408.827 358.227 408.607 358.361 408.195 358.549C407.728 358.764 407.124 359.032 406.327 359.408C405.558 359.784 404.597 360.293 403.47 360.884C402.399 361.528 401.163 362.199 399.872 363.111C397.235 364.856 394.268 367.163 391.356 370.115C388.471 373.067 385.615 376.637 383.252 380.769C378.417 389.035 377.099 397.73 376.137 403.822C375.698 406.908 375.478 409.404 375.368 411.121C375.313 411.98 375.258 412.624 375.231 413.134C375.203 413.59 375.176 413.831 375.176 413.831Z" fill="#29383E"/>
<path d="M333.033 361.668C329.041 361.668 325.049 358.661 323.788 354.661C323.315 353.239 323 351.762 323 350.259C323 346.635 324.917 342.85 331.483 338.77L353.124 347.092C352.861 347.065 352.625 347.038 352.362 347.038C350.708 347.038 348.948 347.682 347.582 348.702C345.245 350.42 343.695 352.97 342.041 355.359C340.386 357.748 338.443 360.138 335.764 361.184C334.871 361.507 333.952 361.668 333.033 361.668ZM355.593 348.031L353.124 347.092C353.991 347.199 354.831 347.494 355.593 348.031Z" fill="#427A92"/>
<path d="M325.173 344.303C327.623 340.961 333.656 339.995 337.449 341.64C341.269 343.311 344.035 346.627 346.538 349.917C349.04 353.232 351.464 356.705 354.915 359.002C358.393 361.3 363.214 362.135 366.665 359.812C368.904 358.297 370.221 355.66 370.643 352.971C371.038 350.308 370.643 347.567 370.089 344.93C369.273 341.04 367.929 336.993 364.794 334.539C361.29 331.771 356.469 331.641 351.991 331.797C346.88 331.954 341.717 332.346 336.896 334.095C332.101 335.844 327.228 339.656 325.173 344.303Z" fill="#ACDCF0"/>
<path d="M367.517 406.199C367.517 406.199 367.517 406.146 367.491 405.986C367.491 405.827 367.491 405.641 367.465 405.402C367.438 404.818 367.412 404.047 367.386 403.065C367.334 400.993 367.255 398.071 367.151 394.459C367.046 390.847 366.889 386.518 366.627 381.737C366.365 376.956 366.025 371.697 365.292 366.225C364.925 363.49 364.506 360.807 363.773 358.337C363.014 355.867 362.019 353.556 360.92 351.431C359.82 349.333 358.616 347.421 357.333 345.721C356.051 344.047 354.716 342.587 353.433 341.365C350.789 338.921 348.276 337.434 346.495 336.557C346.024 336.345 345.632 336.159 345.291 336C344.925 335.867 344.637 335.761 344.375 335.654C344.139 335.548 343.956 335.468 343.825 335.415C343.694 335.362 343.642 335.336 343.642 335.336C343.642 335.309 343.694 335.336 343.825 335.389C343.982 335.442 344.166 335.495 344.401 335.575C344.663 335.654 344.977 335.761 345.317 335.893C345.684 336.026 346.103 336.212 346.548 336.425C348.38 337.248 350.946 338.709 353.616 341.152C354.951 342.374 356.313 343.835 357.621 345.508C358.904 347.208 360.135 349.12 361.26 351.245C362.36 353.397 363.381 355.707 364.14 358.204C364.925 360.727 365.344 363.41 365.711 366.172C366.418 371.67 366.758 376.929 367.02 381.71C367.255 386.518 367.36 390.847 367.438 394.459C367.517 398.098 367.543 401.02 367.543 403.065C367.543 404.047 367.543 404.818 367.543 405.402C367.543 405.641 367.543 405.827 367.543 405.986C367.543 406.146 367.543 406.199 367.517 406.199Z" fill="#29383E"/>
<path d="M371.348 409.47C371.348 409.47 370.822 408.092 370.322 405.441C369.848 402.817 369.479 398.894 369.9 394.123C370.295 389.325 371.506 383.706 373.454 377.689C375.349 371.646 377.955 365.179 380.166 358.234C381.272 354.762 382.22 351.343 382.851 347.95C383.51 344.584 383.904 341.297 384.168 338.143C384.694 331.834 384.615 326.136 384.483 321.365C384.299 316.567 384.062 312.697 383.904 310.047C383.825 308.721 383.773 307.688 383.72 306.972C383.694 306.627 383.694 306.362 383.694 306.15C383.667 305.991 383.667 305.885 383.694 305.885C383.694 305.885 383.72 305.965 383.72 306.15C383.746 306.362 383.773 306.627 383.799 306.945C383.878 307.688 383.957 308.721 384.062 310.02C384.273 312.697 384.562 316.567 384.773 321.338C384.957 326.136 385.063 331.861 384.562 338.169C384.299 341.323 383.904 344.637 383.246 348.029C382.615 351.422 381.667 354.894 380.561 358.367C378.35 365.338 375.744 371.779 373.823 377.795C371.848 383.812 370.611 389.378 370.19 394.149C369.716 398.894 370.058 402.79 370.48 405.414C370.716 406.74 370.927 407.747 371.111 408.436C371.19 408.754 371.243 409.019 371.296 409.205C371.322 409.39 371.348 409.47 371.348 409.47Z" fill="#29383E"/>
<path d="M394.704 414.921H350.093L349.074 406.198H394.704V414.921Z" fill="#3F5E69"/>
<path d="M354.506 413.831L360.043 438.909H384.107L389.272 413.831H354.506Z" fill="#3F5E69"/>
<path d="M386.008 427.875C385.956 428.001 384.753 426.458 382.269 425.23C381.04 424.631 379.478 424.159 377.712 424.128C375.945 424.033 374.025 424.569 372.104 425.387C370.158 426.174 368.34 427.119 366.574 427.654C364.807 428.127 363.168 428.064 361.811 427.812C360.454 427.56 359.43 427.056 358.738 426.615C358.406 426.395 358.175 426.206 357.996 426.049C357.842 425.891 357.766 425.828 357.766 425.797C357.791 425.765 358.15 426.049 358.815 426.458C359.507 426.836 360.531 427.277 361.862 427.466C363.168 427.686 364.781 427.686 366.497 427.182C368.212 426.678 370.005 425.734 371.976 424.915C373.922 424.096 375.894 423.561 377.712 423.655C379.53 423.718 381.117 424.254 382.372 424.915C383.626 425.545 384.548 426.332 385.163 426.899C385.444 427.182 385.675 427.434 385.803 427.592C385.956 427.78 386.033 427.875 386.008 427.875Z" fill="#29383E"/>
<path d="M386.012 428.821C385.959 428.911 384.739 427.848 382.273 426.965C381.053 426.513 379.488 426.173 377.711 426.151C375.96 426.105 374.051 426.445 372.114 427.01C370.152 427.576 368.348 428.21 366.598 428.617C364.847 429.024 363.203 429.16 361.85 429.069C360.471 428.979 359.41 428.662 358.747 428.368C358.402 428.21 358.137 428.074 358.004 427.961C357.845 427.848 357.766 427.802 357.766 427.78C357.792 427.757 358.137 427.961 358.8 428.232C359.489 428.481 360.524 428.775 361.877 428.821C363.203 428.866 364.794 428.707 366.492 428.3C368.189 427.893 370.019 427.237 371.982 426.671C373.918 426.105 375.907 425.766 377.737 425.834C379.541 425.879 381.159 426.241 382.405 426.716C383.652 427.191 384.554 427.734 385.137 428.142C385.455 428.345 385.668 428.526 385.8 428.64C385.959 428.753 386.012 428.821 386.012 428.821Z" fill="#FEFEFE"/>
<path d="M387.099 425.821C387.045 425.91 385.735 424.469 383.086 423.204C381.749 422.586 380.09 422.027 378.191 421.91C376.292 421.763 374.232 422.292 372.146 423.086C370.059 423.851 368.106 424.792 366.18 425.233C364.254 425.616 362.489 425.498 361.018 425.233C359.573 424.969 358.45 424.498 357.727 424.086C357.353 423.88 357.085 423.704 356.925 423.527C356.738 423.41 356.657 423.321 356.684 423.292C356.684 423.263 357.059 423.557 357.808 423.91C358.53 424.292 359.653 424.674 361.071 424.91C362.489 425.116 364.228 425.204 366.1 424.792C367.946 424.38 369.899 423.41 372.012 422.645C374.098 421.851 376.238 421.321 378.218 421.498C380.171 421.645 381.856 422.233 383.193 422.91C384.531 423.557 385.521 424.321 386.163 424.88C386.484 425.145 386.724 425.38 386.885 425.557C387.019 425.704 387.099 425.792 387.099 425.821Z" fill="#FEFEFE"/>
<path d="M394.704 414.508C394.704 414.839 384.964 414.971 372.962 414.905C360.96 414.839 351.247 414.508 351.247 414.244C351.247 413.914 360.96 413.781 372.962 413.848C384.964 413.914 394.704 414.244 394.704 414.508Z" fill="#3F5E69"/>
<path d="M79.7355 350.124L82.1841 348.093L106.221 377.007C106.221 377.007 106.812 378.812 105.77 379.489L79.7355 350.124Z" fill="#FEFEFE"/>
<path d="M107.206 349.842C107.15 349.899 106.558 349.419 105.911 348.376C105.602 347.84 105.264 347.191 105.039 346.401C104.898 346.006 104.813 345.611 104.729 345.16C104.701 344.962 104.645 344.709 104.673 344.398C104.701 344.116 104.982 343.693 105.376 343.665C105.742 343.608 106.08 343.806 106.277 344.003C106.474 344.201 106.587 344.426 106.671 344.624C106.896 345.019 107.065 345.414 107.178 345.809C107.431 346.599 107.515 347.36 107.487 347.953C107.459 349.194 107.15 349.927 107.065 349.899C106.953 349.871 107.121 349.137 107.009 347.981C106.981 347.417 106.84 346.711 106.587 346.006C106.474 345.668 106.305 345.301 106.108 344.934C105.911 344.539 105.686 344.285 105.461 344.342C105.404 344.342 105.376 344.37 105.348 344.511C105.32 344.652 105.348 344.85 105.376 345.047C105.433 345.47 105.517 345.865 105.63 346.232C105.827 346.965 106.08 347.614 106.333 348.15C106.84 349.194 107.29 349.786 107.206 349.842Z" fill="#29383E"/>
<path d="M106.84 349.843C106.783 349.814 107.037 349.053 107.909 348.178C108.36 347.755 108.951 347.304 109.711 346.965C110.076 346.796 110.499 346.627 110.921 346.542C111.371 346.458 111.934 346.317 112.497 346.824C112.778 347.106 112.75 347.529 112.638 347.783C112.525 348.065 112.384 348.235 112.244 348.432C111.934 348.799 111.596 349.081 111.259 349.307C110.555 349.758 109.795 349.984 109.176 350.04C107.909 350.125 107.206 349.673 107.234 349.617C107.262 349.504 107.994 349.758 109.12 349.56C109.654 349.448 110.302 349.222 110.893 348.799C111.202 348.573 111.484 348.319 111.737 348.009C111.99 347.699 112.131 347.36 112.019 347.276C111.878 347.106 111.427 347.078 111.062 347.191C110.668 347.247 110.302 347.388 109.964 347.529C109.26 347.812 108.669 348.178 108.247 348.545C107.346 349.278 106.952 349.899 106.84 349.843Z" fill="#29383E"/>
<path d="M119.731 220.563C118.464 218.87 115.678 218.673 114.158 220.14L114.27 220.055C113.116 221.014 112.694 222.96 113.341 224.371C114.214 226.289 116.86 227.135 118.661 226.063C120.49 224.963 120.997 222.227 119.731 220.563Z" fill="#EA5563"/>
<path d="M116.888 226.543C115.424 226.543 113.961 225.725 113.341 224.371C113.144 223.919 113.032 223.412 113.032 222.904C113.032 221.804 113.482 220.704 114.27 220.055L114.158 220.139C114.833 219.462 115.762 219.152 116.719 219.152C117.873 219.152 119.027 219.632 119.731 220.563C120.209 221.183 120.434 221.973 120.434 222.735C120.434 224.06 119.787 225.386 118.661 226.063C118.126 226.373 117.507 226.543 116.888 226.543Z" fill="white"/>
<path d="M399.652 83.2997L422.647 78.8992L421.662 102.171L399.652 83.2997Z" fill="#DEDEDE"/>
<path d="M382.99 135.542L372.942 126.967L407.646 86.3181L417.694 94.8935L382.99 135.542Z" fill="#DEDEDE"/>
<path d="M400.806 137.065L442.518 128.123L441.702 170.549L400.806 137.065Z" fill="#DEDEDE"/>
<path d="M372.632 232.974L354 217.714L415.498 142.228L434.131 157.488L372.632 232.974Z" fill="#DEDEDE"/>
<path d="M460.081 56.3609L480.233 52.4963L479.389 72.8911L460.081 56.3609Z" fill="#DEDEDE"/>
<path d="M445.473 102.171L436.692 94.611L467.089 58.9836L475.899 66.5153L445.473 102.171Z" fill="#DEDEDE"/>
<path d="M8.87256 140.732H105.75V0H8.87256V140.732Z" fill="#E0E0E0"/>
<path d="M4.03149 140.732H100.909V0H4.03149V140.732Z" fill="#F4F4F4"/>
<path d="M89.2285 125.133C92.8593 130.888 97.1374 136.247 101.95 141.043L89.2285 125.133Z" fill="#FEFEFE"/>
<path d="M101.95 141.043C101.894 141.099 101.022 140.338 99.7268 139.04C98.4321 137.714 96.6871 135.824 94.942 133.624C93.1689 131.396 91.7053 129.308 90.7202 127.728C89.7351 126.177 89.1722 125.161 89.2285 125.133C89.3129 125.077 89.9603 126.036 91.0298 127.531C92.0993 129.026 93.591 131.085 95.3361 133.285C97.1093 135.486 98.7698 137.404 100.008 138.786C101.219 140.14 101.978 140.986 101.95 141.043Z" fill="#E0E0E0"/>
<path d="M16.0497 125.471H88.8625V15.2324H16.0497V125.471Z" fill="#FEFEFE"/>
<path d="M88.8625 125.472C88.8625 125.472 88.8625 125.302 88.8625 124.936C88.8625 124.569 88.8344 124.061 88.8344 123.384C88.8344 122.002 88.8344 119.971 88.8063 117.348C88.8063 112.044 88.7781 104.343 88.75 94.6115C88.7218 75.1758 88.6655 47.6443 88.6374 15.2326L88.8625 15.4865C66.6275 15.4865 41.9719 15.4865 16.0778 15.4865H16.0497L16.3312 15.2326C16.303 56.812 16.2749 95.1757 16.2749 125.472L16.0497 125.274C38.2285 125.331 56.4106 125.359 69.048 125.387C75.3808 125.415 80.3344 125.415 83.6837 125.443C85.3725 125.443 86.6672 125.443 87.5397 125.472C88.4122 125.472 88.8625 125.472 88.8625 125.472C88.8625 125.472 88.4404 125.5 87.596 125.5C86.7235 125.5 85.4288 125.528 83.7682 125.528C80.4188 125.556 75.4934 125.556 69.1887 125.584C56.495 125.613 38.2848 125.641 16.0497 125.697H15.8527V125.472C15.8245 95.1757 15.8245 56.812 15.7964 15.2326V14.9788H16.0778C41.9719 14.9788 66.6275 14.9788 88.8625 14.9788H89.1159V15.2326C89.0596 47.7289 89.0314 75.3169 89.0033 94.7808C88.9751 104.484 88.947 112.157 88.9188 117.432C88.9188 120.056 88.8907 122.058 88.8907 123.441C88.8907 124.118 88.8907 124.625 88.8907 124.964C88.8907 125.331 88.8625 125.472 88.8625 125.472Z" fill="#E0E0E0"/>
<path d="M4.0033 140.62C8.25329 135.373 12.4751 130.154 16.697 124.936L4.0033 140.62Z" fill="#FEFEFE"/>
<path d="M16.697 124.936C16.8096 125.02 14.0795 128.603 10.5613 132.947C7.04306 137.263 4.11591 140.704 4.00333 140.62C3.89074 140.535 6.64902 136.924 10.1391 132.608C13.6573 128.264 16.5844 124.823 16.697 124.936Z" fill="#E0E0E0"/>
<path d="M41.803 106.995H66.1771V37.6301H41.803V106.995Z" fill="#E0E0E0"/>
<path d="M227.725 288.023L196.54 292.649L202.085 331.548C205.772 330.787 210.331 309.602 210.331 309.602L230.427 307.458L227.725 288.023Z" fill="#3F5E69"/>
<path d="M204.984 317.556C204.928 317.387 205.828 316.964 206.926 317.331C208.052 317.641 208.586 318.487 208.446 318.6C208.305 318.713 207.658 318.233 206.729 317.951C205.828 317.669 205.04 317.726 204.984 317.556Z" fill="#29383E"/>
<path d="M209.515 314.539C209.346 314.595 208.896 313.833 208.023 313.297C207.151 312.733 206.25 312.705 206.222 312.508C206.166 312.338 207.263 312.056 208.361 312.733C209.459 313.382 209.712 314.51 209.515 314.539Z" fill="#29383E"/>
<path d="M210.641 310.223C210.444 310.223 210.219 309.292 209.487 308.446C208.755 307.571 207.855 307.205 207.911 307.035C207.939 306.838 209.093 306.979 209.994 308.023C210.866 309.038 210.81 310.223 210.641 310.223Z" fill="#29383E"/>
<path d="M215.144 309.207C214.976 309.151 215.116 308.248 214.891 307.176C214.666 306.132 214.187 305.342 214.356 305.201C214.469 305.089 215.285 305.794 215.538 307.063C215.792 308.304 215.313 309.292 215.144 309.207Z" fill="#29383E"/>
<path d="M219.62 307.628C219.563 307.656 219.338 306.923 219.366 305.682C219.366 305.061 219.479 304.328 219.704 303.566C219.817 303.171 219.957 302.748 220.126 302.353C220.211 302.156 220.295 301.93 220.492 301.704C220.661 301.451 221.168 301.253 221.505 301.451C221.815 301.62 222.012 301.958 222.04 302.24C222.096 302.522 222.068 302.748 222.04 302.974C222.012 303.425 221.927 303.848 221.815 304.243C221.59 305.033 221.224 305.71 220.886 306.218C220.182 307.233 219.507 307.656 219.479 307.6C219.394 307.515 219.929 306.979 220.492 305.964C220.773 305.456 221.027 304.836 221.224 304.102C221.308 303.735 221.365 303.341 221.393 302.917C221.449 302.494 221.393 302.156 221.196 302.071C221.139 302.043 221.111 302.043 220.999 302.128C220.886 302.24 220.802 302.438 220.717 302.607C220.548 303.002 220.408 303.369 220.295 303.735C220.042 304.469 219.901 305.146 219.817 305.71C219.676 306.867 219.732 307.628 219.62 307.628Z" fill="#29383E"/>
<path d="M219.31 307.43C219.282 307.345 219.901 306.894 221.139 306.64C221.73 306.527 222.462 306.471 223.278 306.612C223.701 306.668 224.123 306.781 224.545 306.922C224.967 307.092 225.502 307.317 225.699 308.022C225.755 308.417 225.502 308.784 225.277 308.925C225.023 309.094 224.798 309.151 224.601 309.235C224.151 309.348 223.701 309.405 223.278 309.405C222.434 309.405 221.702 309.179 221.167 308.869C220.042 308.248 219.704 307.486 219.76 307.458C219.845 307.374 220.323 307.994 221.365 308.446C221.871 308.671 222.547 308.812 223.278 308.784C223.644 308.784 224.01 308.728 224.404 308.587C224.798 308.474 225.108 308.276 225.052 308.135C225.023 307.938 224.658 307.656 224.32 307.543C223.926 307.374 223.56 307.289 223.194 307.204C222.462 307.063 221.759 307.063 221.196 307.092C220.042 307.204 219.366 307.515 219.31 307.43Z" fill="#29383E"/>
<path d="M210.303 297.331C209.994 296.626 209.093 296.203 208.333 296.485C207.601 296.795 207.207 297.726 207.489 298.431C207.798 299.165 208.896 299.673 209.572 299.334C210.275 298.967 210.697 297.839 210.247 297.19L210.303 297.331Z" fill="#FEFEFE"/>
<path d="M196.54 292.649L199.72 292.31L203.83 329.743C203.83 329.743 203.323 331.576 202.085 331.548L196.54 292.649Z" fill="#FEFEFE"/>
<path d="M132.593 292.874C131.524 289.574 132.79 286.02 134.085 282.804C138.729 271.52 155.138 248.051 161.611 237.727L156.686 230.533C148.214 242.889 117.451 279.701 102.843 282.889C97.1014 284.13 91.1627 283.678 85.3084 283.904C79.4541 284.158 73.3183 285.258 68.8713 289.066C64.3961 292.874 62.3978 300.068 65.8879 304.778C58.8233 304.75 51.7869 308.304 47.6213 314.031C43.4276 319.757 42.1892 327.514 44.3564 334.285C45.0319 336.316 45.9889 338.403 45.5948 340.49C45.0038 343.593 41.8233 345.342 39.4872 347.43C32.5915 353.551 32.3101 365.286 37.9955 372.564C43.7091 379.813 54.0948 382.493 63.0452 380.152C71.9673 377.839 79.3415 371.097 83.8167 363.029C85.3084 368.501 92.5981 369.94 98.1428 368.699C105.911 366.922 112.863 361.901 116.972 355.074C121.11 348.248 122.292 339.701 120.237 332C128.034 334.764 137.547 331.548 142.078 324.609C146.61 317.641 145.737 307.627 140.052 301.591C137.406 298.77 133.775 296.57 132.593 292.874Z" fill="#FBFBFB"/>
<path d="M137.181 328.022L113.735 349.122L139.77 378.488C142.416 375.836 134.563 355.639 134.563 355.639L150.156 342.719L137.181 328.022Z" fill="#3F5E69"/>
<path d="M127.78 345.398C127.133 344.975 126.148 345.144 125.669 345.793C125.219 346.442 125.388 347.458 126.035 347.881C126.711 348.332 127.893 348.163 128.259 347.458C128.653 346.781 128.399 345.596 127.639 345.342L127.78 345.398Z" fill="#FEFEFE"/>
<path d="M134.479 365.201C134.31 365.117 134.873 364.27 135.971 363.932C137.068 363.593 137.997 364.017 137.913 364.158C137.885 364.355 137.068 364.299 136.168 364.581C135.239 364.835 134.62 365.342 134.479 365.201Z" fill="#29383E"/>
<path d="M136.59 360.18C136.477 360.349 135.689 359.926 134.648 359.982C133.606 360.011 132.846 360.462 132.734 360.321C132.593 360.208 133.353 359.362 134.619 359.305C135.914 359.277 136.73 360.067 136.59 360.18Z" fill="#29383E"/>
<path d="M135.126 355.977C134.986 356.09 134.282 355.441 133.212 355.131C132.115 354.821 131.186 354.99 131.13 354.821C131.045 354.651 132.087 354.115 133.381 354.482C134.704 354.877 135.295 355.893 135.126 355.977Z" fill="#29383E"/>
<path d="M138.363 352.648C138.166 352.705 137.8 351.858 137.012 351.097C136.252 350.307 135.436 349.94 135.492 349.743C135.52 349.573 136.59 349.715 137.49 350.617C138.391 351.52 138.532 352.62 138.363 352.648Z" fill="#29383E"/>
<path d="M179.456 207.262L173.235 204.215C169.774 204.582 166.199 204.949 163.187 206.697C160.176 208.475 157.896 212.001 158.74 215.386C159.444 218.235 162.146 220.576 161.752 223.453C161.386 226.077 158.684 227.572 156.348 228.785C154.012 229.969 151.394 231.775 151.423 234.426C151.451 235.95 152.436 237.332 153.731 238.15C155.025 238.968 156.573 239.25 158.093 239.335C165.495 239.73 172.644 235.188 176.444 228.813C180.216 222.438 180.919 214.539 179.456 207.262Z" fill="#EA5563"/>
<path d="M157.558 239.307C156.207 239.165 154.885 238.855 153.731 238.15C152.436 237.332 151.451 235.95 151.423 234.426C151.423 234.398 151.423 234.37 151.423 234.37C151.423 231.747 154.012 229.969 156.348 228.785C158.684 227.572 161.386 226.077 161.752 223.453C161.78 223.256 161.78 223.058 161.78 222.861C161.78 220.238 159.416 218.037 158.74 215.386C158.628 214.906 158.572 214.427 158.572 213.919C158.572 211.013 160.598 208.221 163.187 206.697C166.199 204.949 169.774 204.582 173.236 204.215L179.456 207.262C179.934 209.547 180.159 211.916 180.159 214.286C180.159 219.363 179.034 224.441 176.444 228.813C175.459 230.449 174.249 231.972 172.87 233.326L159.726 230.28L157.558 239.307Z" fill="white"/>
<path d="M162.54 202.156L183.368 217.36C183.368 217.36 188.913 210.393 186.942 202.269L176.416 194.878C176.416 194.878 170.027 193.834 162.54 202.156Z" fill="#29383E"/>
<path d="M171.237 192.396L189.419 205.146L256.687 114.314C256.687 114.314 261.303 105.739 254.436 94.7658C254.436 94.7658 240.532 93.4964 232.848 102.664C225.192 111.832 171.237 192.396 171.237 192.396Z" fill="#E0E0E0"/>
<path d="M171.237 192.395C171.237 192.395 171.322 192.226 171.575 191.831C171.828 191.465 172.194 190.9 172.673 190.167C173.63 188.7 175.037 186.585 176.866 183.82C180.582 178.291 185.929 170.308 192.572 160.407C199.242 150.506 207.235 138.686 216.242 125.569C220.774 118.997 225.53 112.114 230.681 105.062C231.356 104.216 232.032 103.341 232.707 102.467C233.467 101.677 234.199 100.802 235.1 100.125C236.817 98.6867 238.759 97.5019 240.898 96.6557C243.009 95.8094 245.232 95.217 247.512 94.8503C249.792 94.5118 252.1 94.3708 254.464 94.5118H254.576L254.661 94.6246C256.575 97.7558 258.123 101.536 258.404 105.541C258.601 108.616 258.179 111.719 256.913 114.427L256.884 114.455C228.373 152.904 203.661 186.19 189.532 205.23L189.447 205.343L189.335 205.259C183.537 201.168 179.005 197.953 175.881 195.752C174.361 194.652 173.207 193.834 172.391 193.27C172.025 192.988 171.716 192.762 171.519 192.621C171.322 192.48 171.237 192.395 171.237 192.395C171.237 192.395 171.35 192.48 171.547 192.621C171.772 192.762 172.082 192.96 172.476 193.242C173.292 193.806 174.474 194.624 176.022 195.696C179.146 197.84 183.678 200.999 189.504 205.033L189.307 205.061C203.408 185.992 228.035 152.65 256.49 114.145L256.462 114.173C257.673 111.634 258.095 108.56 257.87 105.57C257.616 101.677 256.096 97.9815 254.211 94.9067L254.408 95.0196C249.82 94.7657 245.204 95.4709 241.067 97.1352C239.012 97.9533 237.098 99.1098 235.409 100.52C234.537 101.169 233.833 102.015 233.073 102.805C232.398 103.651 231.75 104.526 231.075 105.372C225.924 112.396 221.168 119.279 216.636 125.823C207.573 138.94 199.58 150.731 192.853 160.604C186.154 170.477 180.75 178.432 177.035 183.933C175.178 186.669 173.742 188.785 172.729 190.223C172.25 190.929 171.885 191.465 171.631 191.86C171.378 192.226 171.237 192.395 171.237 192.395Z" fill="#29383E"/>
<path d="M172.11 191.098L161.33 191.267L171.237 178.376L180.947 177.925L172.11 191.098Z" fill="#3F5E69"/>
<path d="M254.436 94.7659C254.436 94.7659 254.323 94.7941 254.126 94.8787C253.929 94.9069 253.648 94.9915 253.31 95.189C252.578 95.4993 251.565 96.1481 250.355 97.0508C247.906 98.8279 244.557 101.762 240.644 105.598L240.673 105.457C240.616 105.739 240.504 105.88 240.447 106.049L240.166 106.529C239.969 106.867 239.772 107.178 239.575 107.516C239.181 108.165 238.759 108.842 238.337 109.519C237.492 110.873 236.591 112.283 235.663 113.75C233.749 116.656 231.694 119.787 229.555 123.115C225.221 129.716 220.351 137.022 215.201 144.639C210.247 152.029 205.434 158.969 201.072 165.315C196.709 171.662 192.769 177.36 189.447 182.156C186.154 186.923 183.481 190.788 181.595 193.496C180.666 194.793 179.962 195.837 179.428 196.571C179.202 196.881 179.005 197.163 178.865 197.36C178.724 197.53 178.668 197.614 178.668 197.614C178.64 197.614 178.696 197.501 178.837 197.332C178.949 197.106 179.146 196.853 179.343 196.514C179.85 195.752 180.553 194.709 181.426 193.383C183.284 190.647 185.901 186.754 189.166 181.958C195.724 172.311 204.787 159.025 214.779 144.356C219.929 136.712 224.798 129.434 229.161 122.862C233.524 116.261 237.408 110.337 240.447 105.457L240.391 105.344C244.36 101.508 247.737 98.6304 250.242 96.8815C251.481 96.007 252.494 95.3865 253.254 95.1044C253.62 94.9069 253.929 94.8505 254.126 94.8223C254.323 94.7659 254.436 94.7659 254.436 94.7659Z" fill="#29383E"/>
<path d="M182.721 194.032C182.692 193.975 182.918 193.806 183.283 194.004C183.452 194.088 183.621 194.342 183.565 194.652C183.509 194.934 183.283 195.188 182.946 195.245C182.58 195.273 182.298 195.075 182.186 194.822C182.045 194.539 182.158 194.257 182.27 194.116C182.552 193.834 182.833 193.919 182.833 194.004C182.833 194.06 182.664 194.145 182.58 194.342C182.552 194.427 182.552 194.511 182.608 194.596L182.861 194.737C182.946 194.737 183.058 194.624 183.086 194.539L183.03 194.286C182.918 194.116 182.749 194.116 182.721 194.032Z" fill="#29383E"/>
<path d="M238.59 193.976C237.83 194.286 230.54 195.584 224.207 208.56C217.874 221.564 218.86 229.378 218.86 229.378L187.59 274.088L123.868 333.693L144.02 353.58L210.416 295.442C210.416 295.442 245.119 264.102 248.807 259.956C255.927 251.916 279.908 217.389 279.908 217.389L238.59 193.976Z" fill="#36484F"/>
<path d="M250.017 245.004L262.823 276.372L216.073 288.304L219.31 311.21C219.31 311.21 292.292 301.28 296.26 297.641C300.257 294.003 302.846 290.759 302.959 287.063C303.043 283.368 279.795 209.856 279.795 209.856L253.479 230.392L250.017 245.004Z" fill="#36484F"/>
<path d="M277.628 282.522C277.543 282.55 277.037 281.675 275.939 280.519C275.404 279.955 274.701 279.334 273.828 278.714C272.984 278.121 271.97 277.557 270.845 277.106C269.719 276.683 268.593 276.4 267.552 276.231C266.538 276.09 265.581 276.062 264.793 276.118C263.189 276.203 262.232 276.513 262.204 276.4C262.204 276.372 262.429 276.288 262.851 276.147C263.302 275.977 263.949 275.836 264.765 275.752C265.553 275.639 266.538 275.639 267.636 275.752C268.706 275.893 269.859 276.175 271.042 276.626C272.196 277.106 273.237 277.698 274.109 278.319C274.982 278.996 275.686 279.644 276.22 280.293C276.755 280.914 277.121 281.45 277.346 281.873C277.543 282.268 277.656 282.493 277.628 282.522Z" fill="#3F5E69"/>
<path d="M277.093 273.636C277.121 273.777 274.081 274.37 270.282 274.962C266.51 275.555 263.442 275.921 263.414 275.78C263.386 275.639 266.426 275.047 270.225 274.454C273.997 273.862 277.065 273.495 277.093 273.636Z" fill="#3F5E69"/>
<path d="M276.502 219.222C276.502 219.222 276.446 219.391 276.333 219.702C276.164 220.068 275.967 220.492 275.742 221.056C275.263 222.212 274.391 223.848 273.293 225.851C271.098 229.829 267.692 235.132 263.667 240.774C259.643 246.415 255.815 251.38 252.944 254.906C251.537 256.683 250.355 258.094 249.538 259.081C249.144 259.504 248.835 259.871 248.581 260.181C248.356 260.435 248.215 260.548 248.215 260.548C248.187 260.519 248.3 260.378 248.497 260.096C248.722 259.786 249.032 259.419 249.369 258.94C250.214 257.868 251.311 256.429 252.662 254.68C255.449 251.098 259.249 246.105 263.245 240.463C267.27 234.821 270.704 229.575 272.984 225.654C274.109 223.679 275.01 222.099 275.573 220.943C275.826 220.435 276.052 220.012 276.22 219.645C276.389 219.363 276.474 219.222 276.502 219.222Z" fill="#3F5E69"/>
<path d="M248.216 260.548C248.216 260.548 248.131 260.632 247.962 260.802C247.793 260.999 247.54 261.253 247.23 261.563C246.527 262.24 245.57 263.199 244.331 264.412C241.798 266.895 238.111 270.421 233.495 274.765C224.292 283.425 211.373 295.188 196.878 307.91C182.383 320.632 169.154 332 159.585 340.265C154.8 344.384 150.944 347.712 148.242 350.025C146.891 351.154 145.878 352.056 145.146 352.677C144.78 352.959 144.527 353.185 144.33 353.354C144.133 353.495 144.048 353.58 144.02 353.58C144.02 353.551 144.105 353.467 144.274 353.326C144.471 353.128 144.724 352.903 145.062 352.592C145.793 351.944 146.807 351.041 148.101 349.884C150.775 347.515 154.603 344.158 159.332 339.983C168.873 331.662 182.017 320.209 196.54 307.515C211.035 294.793 223.982 283.086 233.242 274.483C237.886 270.195 241.629 266.697 244.191 264.271C245.457 263.058 246.442 262.128 247.146 261.479C247.484 261.168 247.737 260.943 247.934 260.773C248.103 260.604 248.216 260.52 248.216 260.548Z" fill="#3F5E69"/>
<path d="M199.158 241.422C199.158 241.422 200.593 230.9 191.868 230.252C183.115 229.603 181.341 237.219 181.341 237.219L177.795 235.809C177.795 235.809 181.341 225.202 193.331 227.967C205.293 230.731 202.535 242.889 202.535 242.889L199.158 241.422Z" fill="#EA5563"/>
<path d="M202.817 240.294L199.242 239.448C199.186 236.373 198.201 230.703 191.868 230.252C191.502 230.224 191.164 230.195 190.827 230.195C185.563 230.195 183.086 233.383 182.045 235.47L178.33 234.596C179.484 232.283 182.749 227.516 189.504 227.516C190.686 227.516 191.952 227.657 193.331 227.967C201.522 229.857 202.817 236.176 202.817 239.956C202.817 240.068 202.817 240.181 202.817 240.294Z" fill="#7D243D"/>
<path d="M159.726 230.28L147.932 279.052L212.555 293.438L223.475 245.089L159.726 230.28Z" fill="#C52552"/>
<path d="M223.475 245.089C223.504 245.089 223.447 245.145 223.335 245.258C223.194 245.399 223.025 245.54 222.828 245.738C222.35 246.161 221.674 246.753 220.858 247.487C219.141 249.038 216.692 251.239 213.54 253.89C210.36 256.457 206.56 259.588 201.691 262.099C199.27 263.34 196.596 264.412 193.697 265.089C190.798 265.766 187.674 265.992 184.55 265.484C181.398 264.976 178.499 263.707 176.05 262.042C173.573 260.378 171.519 258.319 169.802 256.203C166.396 251.916 164.482 247.289 163.159 243.425C161.836 239.504 161.105 236.26 160.57 234.031C160.345 232.931 160.148 232.085 160.007 231.436C159.979 231.182 159.923 230.957 159.894 230.759C159.866 230.618 159.866 230.533 159.866 230.533C159.866 230.533 159.894 230.59 159.951 230.759C159.979 230.928 160.035 231.154 160.12 231.408C160.288 232.057 160.514 232.903 160.767 233.975C161.358 236.203 162.146 239.419 163.497 243.284C164.848 247.12 166.79 251.69 170.168 255.893C171.856 257.98 173.911 259.983 176.331 261.619C178.752 263.227 181.567 264.468 184.634 264.976C187.674 265.456 190.742 265.258 193.585 264.581C196.427 263.932 199.073 262.889 201.466 261.676C206.278 259.222 210.106 256.147 213.315 253.58C216.467 251.013 218.972 248.813 220.745 247.346C221.59 246.641 222.265 246.076 222.744 245.653C222.969 245.484 223.138 245.343 223.278 245.23C223.419 245.117 223.475 245.089 223.475 245.089Z" fill="#29383E"/>
<path d="M183.424 267.148L181.482 266.781L182.158 263.171L184.1 263.509L183.424 267.148Z" fill="#29383E"/>
<path d="M203.689 291.464C203.576 291.408 207.686 281.225 212.893 268.728C218.071 256.204 222.406 246.105 222.547 246.161C222.659 246.218 218.55 256.401 213.343 268.926C208.164 281.422 203.83 291.521 203.689 291.464Z" fill="#29383E"/>
<path d="M223.138 245.399C223.138 245.399 223.109 245.568 223.053 245.879C222.941 246.274 222.828 246.725 222.715 247.289C222.406 248.502 221.956 250.251 221.336 252.395C220.154 256.711 218.381 262.606 216.355 269.094C214.356 275.582 212.555 281.421 211.232 285.766C210.613 287.853 210.078 289.546 209.712 290.815C209.543 291.379 209.403 291.83 209.29 292.197C209.177 292.507 209.121 292.677 209.093 292.677C209.065 292.648 209.093 292.479 209.177 292.169C209.262 291.802 209.374 291.323 209.515 290.759C209.797 289.546 210.275 287.825 210.866 285.653C212.076 281.365 213.85 275.469 215.848 268.953C217.846 262.494 219.648 256.626 220.999 252.31C221.618 250.223 222.124 248.502 222.518 247.233C222.687 246.697 222.828 246.245 222.941 245.879C223.053 245.54 223.109 245.399 223.138 245.399Z" fill="#29383E"/>
<path d="M223.475 245.09C223.475 245.118 223.25 245.061 222.828 244.977C222.35 244.892 221.73 244.751 220.97 244.61C219.282 244.243 216.974 243.736 214.131 243.115C208.333 241.789 200.396 239.984 191.643 237.981C182.889 235.95 174.98 234.088 169.182 232.734C166.368 232.029 164.06 231.465 162.399 231.07C161.639 230.873 161.02 230.703 160.542 230.59C160.12 230.478 159.922 230.421 159.922 230.393C159.922 230.365 160.148 230.421 160.57 230.478C161.048 230.59 161.668 230.703 162.427 230.873C164.116 231.239 166.424 231.747 169.267 232.368C175.065 233.693 183.002 235.499 191.755 237.473C200.509 239.533 208.417 241.394 214.215 242.748C217.03 243.454 219.338 244.018 220.999 244.413C221.759 244.61 222.378 244.751 222.856 244.892C223.278 245.005 223.475 245.061 223.475 245.09Z" fill="#29383E"/>
<path d="M183.762 273.383C182.524 273.383 181.285 273.242 180.075 272.847C176.331 271.662 173.489 268.615 171.237 265.4C166.846 259.081 164.088 251.634 163.356 243.989C164.651 247.741 166.565 252.113 169.802 256.204C171.519 258.319 173.573 260.378 176.05 262.043C177.795 263.199 179.737 264.187 181.848 264.835L181.482 266.782L183.424 267.148L183.762 265.343C184.015 265.4 184.269 265.428 184.55 265.484C185.704 265.682 186.858 265.766 188.012 265.766C189.982 265.766 191.868 265.512 193.697 265.089C196.596 264.412 199.27 263.34 201.691 262.099C203.52 261.168 205.181 260.125 206.729 259.081C203.323 264.074 198.454 267.967 193.078 270.787C190.179 272.282 186.942 273.383 183.762 273.383ZM188.04 265.23C186.914 265.23 185.76 265.146 184.634 264.976C184.353 264.92 184.1 264.892 183.846 264.835V264.779C184.691 264.864 185.507 264.892 186.323 264.892C193.331 264.892 199.552 262.522 203.323 260.661C202.732 261.027 202.113 261.338 201.466 261.676C199.073 262.889 196.427 263.933 193.585 264.581C191.812 265.005 189.926 265.23 188.04 265.23ZM170.871 256.74C170.646 256.457 170.393 256.175 170.168 255.893C168.029 253.213 166.452 250.393 165.242 247.713C166.537 250.308 168.423 253.693 170.871 256.74Z" fill="#7D243D"/>
<path d="M188.012 265.766C186.858 265.766 185.704 265.681 184.55 265.484C184.269 265.427 184.015 265.399 183.762 265.343L183.846 264.835C184.1 264.891 184.353 264.92 184.634 264.976C185.76 265.145 186.914 265.23 188.04 265.23C189.926 265.23 191.812 265.004 193.585 264.581C196.427 263.932 199.073 262.889 201.466 261.676C202.113 261.337 202.732 261.027 203.323 260.66C205.687 259.532 207.067 258.573 207.067 258.573C206.954 258.742 206.841 258.911 206.729 259.08C205.181 260.124 203.52 261.168 201.691 262.099C199.27 263.34 196.596 264.412 193.697 265.089C191.868 265.512 189.982 265.766 188.012 265.766ZM181.848 264.835C179.737 264.186 177.795 263.199 176.05 262.042C173.573 260.378 171.519 258.319 169.802 256.203C166.565 252.113 164.651 247.741 163.356 243.989C163.328 243.735 163.3 243.481 163.272 243.227C163.272 243.227 163.947 245.089 165.242 247.712C166.452 250.392 168.028 253.213 170.168 255.893C170.393 256.175 170.646 256.457 170.871 256.739C173.798 260.378 177.485 263.566 181.904 264.525L181.848 264.835Z" fill="#242C2F"/>
<path d="M183.424 267.148L181.482 266.782L181.848 264.835L181.904 264.525C182.355 264.61 182.833 264.694 183.312 264.751C183.509 264.751 183.678 264.779 183.846 264.779V264.835L183.762 265.343L183.424 267.148Z" fill="#242C2F"/>
<path d="M193.472 210.533C193.472 210.533 186.83 221.478 186.295 223.312C185.76 225.145 183.283 227.769 185.282 228.897C185.282 228.897 184.634 230.308 186.83 231.295C186.83 231.295 186.323 233.749 189.391 234.116C189.391 234.116 191.024 236.542 192.909 235.837C192.909 235.837 195.274 237.67 196.709 235.978C198.173 234.285 199.889 231.492 199.889 231.492L201.297 233.185C201.297 233.185 202.732 231.323 202.704 228.925C202.648 226.528 200.34 223.03 201.578 220.294C202.648 217.868 203.07 217.445 203.07 217.445L193.472 210.533Z" fill="#F7B8A0"/>
<path d="M190.995 203.736L194.57 214.257L203.239 200.492L199.833 190.054L190.995 203.736Z" fill="#3F5E69"/>
<path d="M189.926 207.995L186.886 213.637L201.409 221.14L203.07 217.445L189.926 207.995Z" fill="#FAFAFA"/>
<path d="M189.926 207.995C189.926 207.966 190.264 208.192 190.911 208.643C191.615 209.123 192.543 209.772 193.669 210.533C196.033 212.169 199.383 214.511 203.211 217.247L203.379 217.36L203.295 217.557C202.76 218.742 202.197 219.983 201.634 221.224L201.522 221.478L201.297 221.365C200.931 221.168 200.537 220.97 200.171 220.773C194.936 218.093 190.235 215.611 186.802 213.806L186.661 213.721L186.802 213.495C187.702 211.859 188.462 210.505 189.053 209.461C189.588 208.502 189.898 207.995 189.926 207.995C189.982 208.023 189.701 208.587 189.222 209.574C188.969 210.082 188.659 210.674 188.321 211.38C188.124 211.718 187.927 212.085 187.73 212.48C187.618 212.677 187.505 212.875 187.421 213.1L187.252 213.411L187.139 213.58L187.111 213.664L186.999 213.777L186.97 213.467C190.432 215.216 195.189 217.614 200.396 220.322C200.79 220.519 201.156 220.717 201.522 220.914L201.156 221.027C201.747 219.758 202.282 218.545 202.817 217.36L202.901 217.67C199.186 214.962 195.977 212.593 193.669 210.844C192.543 210.026 191.643 209.32 190.939 208.813C190.292 208.305 189.954 208.023 189.926 207.995Z" fill="#29383E"/>
<path d="M192.571 179.137C192.543 179.081 192.768 178.883 193.134 179.109C193.275 179.194 193.472 179.448 193.416 179.758C193.359 180.012 193.134 180.294 192.797 180.35C192.431 180.378 192.149 180.181 192.037 179.927C191.896 179.645 192.008 179.363 192.121 179.222C192.403 178.94 192.684 179.024 192.684 179.109C192.684 179.165 192.515 179.222 192.431 179.419C192.403 179.532 192.403 179.617 192.459 179.701L192.712 179.842C192.797 179.842 192.909 179.73 192.937 179.645L192.881 179.391C192.768 179.222 192.6 179.194 192.571 179.137Z" fill="#29383E"/>
<path d="M273.575 207.205C287.028 207.121 301.749 212.142 311.374 221.535C315.202 214.652 313.626 206.472 311.29 199.081C308.926 191.719 304.591 185.259 300.229 178.997C299.131 177.417 297.977 175.809 296.317 174.935C293.108 173.299 289.083 174.991 286.24 177.417C281.962 181.084 279.204 186.331 277.6 191.775C275.967 197.219 275.432 202.889 274.87 208.531L273.575 207.205Z" fill="#841C39"/>
<path d="M203.211 163.284C203.154 163.228 203.408 163.03 203.745 163.256C203.914 163.341 204.083 163.595 204.027 163.905C203.999 164.159 203.774 164.441 203.408 164.497C203.042 164.525 202.76 164.328 202.648 164.074C202.535 163.792 202.62 163.51 202.76 163.369C203.042 163.087 203.323 163.171 203.295 163.256C203.295 163.312 203.126 163.397 203.07 163.566C203.014 163.679 203.014 163.764 203.098 163.848L203.351 163.989C203.436 163.989 203.548 163.877 203.577 163.792L203.52 163.538C203.408 163.369 203.211 163.341 203.211 163.284Z" fill="#29383E"/>
<path d="M213.737 147.798C213.709 147.742 213.934 147.573 214.3 147.77C214.469 147.855 214.638 148.109 214.581 148.419C214.525 148.673 214.328 148.955 213.962 149.011C213.596 149.04 213.315 148.842 213.202 148.588C213.09 148.306 213.174 148.024 213.315 147.883C213.568 147.601 213.85 147.686 213.85 147.77C213.85 147.827 213.681 147.911 213.596 148.109C213.568 148.193 213.568 148.278 213.624 148.363L213.906 148.504C213.99 148.504 214.075 148.391 214.103 148.306L214.075 148.052C213.934 147.883 213.765 147.883 213.737 147.798Z" fill="#29383E"/>
<path d="M222.969 134.709C222.941 134.653 223.166 134.455 223.532 134.681C223.701 134.765 223.869 135.019 223.813 135.33C223.757 135.584 223.56 135.866 223.194 135.922C222.828 135.95 222.547 135.753 222.434 135.499C222.321 135.217 222.406 134.935 222.547 134.794C222.8 134.512 223.081 134.596 223.081 134.681C223.081 134.737 222.912 134.822 222.828 134.991C222.8 135.104 222.8 135.189 222.856 135.273L223.138 135.414C223.222 135.414 223.307 135.301 223.335 135.217L223.307 134.963C223.166 134.794 222.997 134.765 222.969 134.709Z" fill="#29383E"/>
<path d="M231.778 121.818C231.75 121.762 231.975 121.564 232.341 121.79C232.51 121.875 232.679 122.128 232.623 122.411C232.567 122.693 232.37 122.975 232.004 123.031C231.638 123.059 231.356 122.834 231.244 122.58C231.131 122.326 231.216 122.044 231.356 121.903C231.61 121.593 231.891 121.705 231.891 121.762C231.891 121.846 231.722 121.903 231.638 122.1C231.61 122.213 231.61 122.298 231.666 122.382L231.947 122.523C232.032 122.523 232.116 122.411 232.144 122.326L232.116 122.072C231.975 121.903 231.807 121.875 231.778 121.818Z" fill="#29383E"/>
<path d="M241.207 107.855C241.151 107.798 241.404 107.601 241.742 107.826C241.911 107.911 242.08 108.165 242.023 108.447C241.967 108.729 241.77 109.011 241.404 109.068C241.038 109.096 240.757 108.87 240.644 108.616C240.532 108.362 240.616 108.08 240.757 107.939C241.038 107.629 241.32 107.742 241.292 107.798C241.292 107.883 241.123 107.939 241.067 108.137C241.01 108.249 241.01 108.334 241.067 108.419L241.348 108.56C241.432 108.532 241.545 108.447 241.573 108.362L241.517 108.108C241.404 107.939 241.207 107.911 241.207 107.855Z" fill="#29383E"/>
<path d="M255.139 116.261C255.083 116.317 254.126 115.189 252.268 113.666C250.439 112.142 247.793 110.168 244.697 108.221C241.629 106.275 238.73 104.724 236.535 103.793C235.972 103.567 235.465 103.398 235.043 103.228C234.621 103.116 234.227 103.003 233.861 102.89C233.214 102.777 232.848 102.692 232.848 102.664C232.848 102.636 233.242 102.636 233.917 102.692C234.283 102.777 234.677 102.862 235.128 102.946C235.578 103.087 236.085 103.257 236.648 103.454C238.927 104.3 241.883 105.824 244.979 107.798C248.075 109.745 250.72 111.776 252.522 113.384C253.394 114.202 254.07 114.907 254.52 115.415C254.942 115.951 255.167 116.233 255.139 116.261Z" fill="#29383E"/>
<path d="M290.181 12.6228V86.9523H194.401L190.939 13.1306L290.181 12.6228Z" fill="#E0E0E0"/>
<path d="M190.939 86.9516H286.747V13.0452H190.939V86.9516Z" fill="#F4F4F4"/>
<path d="M191.305 86.5851H286.381V13.4121H191.305V86.5851ZM287.085 87.3185H190.573V12.6787H287.085V87.3185Z" fill="#E0E0E0"/>
<path d="M190.939 86.9519C190.883 86.8673 193.106 84.7234 195.949 82.1564C198.792 79.5895 201.156 77.5867 201.212 77.6713C201.297 77.7559 199.045 79.8716 196.202 82.4385C193.36 85.0055 191.023 87.0365 190.939 86.9519Z" fill="#E0E0E0"/>
<path d="M201.325 77.22H276.361V20.6619H201.325V77.22Z" fill="#FEFEFE"/>
<path d="M276.361 20.6621C276.361 20.6621 276.22 20.6621 275.995 20.6621C275.742 20.6621 275.404 20.6621 274.926 20.6621C273.997 20.6621 272.618 20.6903 270.845 20.6903C267.27 20.6903 262.063 20.7185 255.449 20.7467C242.277 20.7467 223.532 20.7749 201.325 20.8313L201.494 20.6621C201.494 37.6154 201.494 56.8818 201.522 77.2202L201.325 77.0227C229.273 77.051 255.167 77.051 276.361 77.0792L276.192 77.2202C276.249 60.1258 276.277 45.9933 276.277 36.1486C276.305 31.2121 276.305 27.3475 276.333 24.6959C276.333 23.3983 276.333 22.3828 276.333 21.7058C276.361 21.0006 276.361 20.6621 276.361 20.6621C276.361 20.6621 276.361 21.0006 276.389 21.6494C276.389 22.3546 276.389 23.3419 276.389 24.6395C276.389 27.2911 276.417 31.1274 276.446 36.0357C276.446 45.9369 276.474 60.0976 276.502 77.2202V77.3895H276.361C255.167 77.3895 229.273 77.4177 201.325 77.4177H201.128V77.2202C201.128 56.8818 201.128 37.6154 201.156 20.6621V20.4646H201.325C223.588 20.521 242.361 20.5492 255.562 20.5492C262.148 20.5774 267.355 20.6056 270.929 20.6056C272.702 20.6056 274.053 20.6339 274.982 20.6339C275.432 20.6339 275.77 20.6339 276.023 20.6339C276.249 20.6339 276.361 20.6621 276.361 20.6621Z" fill="#E0E0E0"/>
<path d="M275.967 77.2202C276.051 77.1356 278.5 79.2512 281.484 81.9593C284.467 84.6391 286.803 86.8675 286.747 86.9522C286.662 87.0368 284.186 84.9212 281.23 82.2413C278.247 79.5333 275.911 77.3049 275.967 77.2202Z" fill="#E0E0E0"/>
<path d="M266.004 65.908C266.004 66.0205 262.514 66.105 258.207 66.105C253.901 66.105 250.411 66.0205 250.411 65.908C250.411 65.7954 253.901 65.7109 258.207 65.7109C262.514 65.7109 266.004 65.7954 266.004 65.908Z" fill="#E0E0E0"/>
<path d="M227.81 65.908C227.81 66.0205 224.686 66.105 220.858 66.105C217.002 66.105 213.878 66.0205 213.878 65.908C213.878 65.7954 217.002 65.7109 220.858 65.7109C224.686 65.7109 227.81 65.7954 227.81 65.908Z" fill="#E0E0E0"/>
<path d="M245.345 65.9086C245.345 69.0962 242.755 71.6914 239.575 71.6914C236.394 71.6914 233.805 69.0962 233.805 65.9086C233.805 62.6928 236.394 60.0977 239.575 60.0977C242.755 60.0977 245.345 62.6928 245.345 65.9086Z" fill="#E0E0E0"/>
<path d="M239.575 60.1259C236.394 60.1259 233.805 62.7211 233.805 65.9086C233.805 69.0962 236.394 71.6632 239.575 71.6632C242.755 71.6632 245.345 69.0962 245.345 65.9086C245.345 62.7211 242.755 60.1259 239.575 60.1259ZM239.575 71.7196C236.366 71.7196 233.777 69.0962 233.777 65.9086C233.777 62.6928 236.366 60.0977 239.575 60.0977C242.783 60.0977 245.373 62.6928 245.373 65.9086C245.373 69.0962 242.783 71.7196 239.575 71.7196Z" fill="#E0E0E0"/>
<path d="M224.207 64.8084C224.207 64.8084 224.151 64.6391 224.123 64.3288C224.095 64.0186 224.095 63.539 224.207 62.9466C224.348 62.3542 224.545 61.6208 225.08 60.8874C225.249 60.7182 225.418 60.5489 225.699 60.4925C225.952 60.4361 226.234 60.4925 226.459 60.6617C226.909 60.972 227.106 61.6208 226.937 62.1568C226.797 62.721 226.431 63.2005 226.093 63.68C225.727 64.1596 225.305 64.6109 224.798 65.0341C224.292 65.429 223.673 65.7675 222.969 65.8803C222.265 65.9649 221.505 65.8521 220.858 65.4008C220.211 64.9776 219.873 64.1314 219.957 63.3415C220.014 62.5517 220.239 61.8183 220.577 61.0849C220.745 60.7182 220.971 60.3514 221.336 60.0976C221.674 59.8437 222.125 59.6744 222.603 59.7873C223.082 59.8437 223.447 60.2668 223.56 60.7182C223.673 61.1695 223.588 61.6208 223.476 62.044C223.222 62.862 222.828 63.5672 222.35 64.2442C221.843 64.893 221.224 65.4854 220.492 65.8239C219.76 66.1624 218.944 66.2752 218.156 66.1342C217.396 65.9649 216.692 65.4572 216.327 64.8084C215.933 64.1596 215.792 63.4262 215.82 62.721C215.876 62.0157 216.073 61.3669 216.327 60.7746C216.58 60.2104 216.918 59.5616 217.621 59.3641C217.987 59.3077 218.353 59.5052 218.494 59.7873C218.663 60.0694 218.719 60.3514 218.747 60.6335C218.747 61.7619 218.466 62.721 218.043 63.4826C217.649 64.2724 217.115 64.8084 216.664 65.2033C216.186 65.5982 215.792 65.8239 215.482 65.9649C215.201 66.106 215.032 66.1624 215.032 66.1342C215.004 66.106 215.679 65.9085 216.552 65.0905C217.002 64.6956 217.481 64.1314 217.846 63.398C218.24 62.6645 218.494 61.7055 218.466 60.6617C218.437 60.4079 218.381 60.154 218.269 59.9283C218.128 59.7309 217.903 59.618 217.678 59.6744C217.452 59.7309 217.227 59.9001 217.058 60.1258C216.889 60.3514 216.749 60.6335 216.636 60.9156C216.13 62.0157 215.904 63.4544 216.636 64.6391C216.974 65.2033 217.565 65.6264 218.24 65.7675C218.916 65.9085 219.676 65.7957 220.323 65.4854C221.674 64.8366 222.575 63.398 223.11 61.9311C223.194 61.5644 223.25 61.1695 223.166 60.831C223.11 60.4925 222.856 60.2104 222.519 60.154C222.209 60.0976 221.843 60.2104 221.562 60.4079C221.28 60.6053 221.083 60.9156 220.914 61.2541C220.633 61.9311 220.38 62.6645 220.323 63.3698C220.267 64.0468 220.52 64.752 221.083 65.1187C221.618 65.4854 222.293 65.6264 222.913 65.5418C223.56 65.4572 224.123 65.1469 224.601 64.7802C225.08 64.3853 225.474 63.9339 225.84 63.4826C226.206 63.0313 226.543 62.5799 226.656 62.1004C226.825 61.6208 226.656 61.1131 226.29 60.8592C225.952 60.5771 225.502 60.7182 225.249 61.0567C224.742 61.6772 224.489 62.4107 224.348 62.9748C224.095 64.1314 224.264 64.8084 224.207 64.8084Z" fill="#EBECEC"/>
<path d="M264.174 63.8771C264.174 63.8771 264.146 63.9053 264.033 63.9617C263.921 64.0181 263.78 64.0745 263.583 64.1592C263.161 64.3566 262.542 64.5823 261.725 64.8079C260.909 65.0336 259.896 65.2593 258.686 65.3721C258.067 65.4285 257.419 65.4567 256.716 65.4567C256.04 65.4567 255.308 65.3157 254.576 65.4003C254.211 65.4285 253.873 65.5978 253.648 65.8799C253.394 66.1337 253.366 66.5287 253.535 66.8672C253.676 67.2057 253.985 67.5442 254.239 67.8827C254.52 68.2212 254.802 68.5597 255.083 68.8982C255.393 69.2085 255.702 69.547 256.04 69.8855C256.35 70.224 256.687 70.5625 257.081 70.7035C257.475 70.8446 257.926 70.6753 258.179 70.3086C258.461 69.9701 258.517 69.4906 258.517 68.9828C258.095 64.949 258.432 60.2946 259.952 55.7248L260.121 55.217L260.318 55.6966C260.769 56.7685 261.022 57.9533 261.106 59.1662C261.191 60.8305 260.937 62.4948 260.318 63.9899C260.009 64.7515 259.643 65.4567 259.192 66.1055C258.77 66.7261 258.207 67.4031 257.391 67.6288C256.969 67.7698 256.434 67.5724 256.181 67.2057C255.927 66.839 255.899 66.4158 255.871 66.0491C255.815 65.3157 255.843 64.5823 255.927 63.8489C256.124 62.4102 256.547 61.0844 257.138 59.8715L257.278 59.6176L257.447 59.8432C258.376 61.1408 257.954 63.059 256.687 63.7642C255.449 64.4694 253.817 64.0745 253.141 62.9744C252.437 61.9025 252.634 60.5202 253.366 59.7304C253.535 59.5047 253.76 59.3355 254.042 59.2509C254.295 59.1662 254.633 59.2509 254.802 59.4765C254.999 59.7022 254.999 59.9843 254.999 60.21C254.999 60.4356 254.914 60.6613 254.858 60.887C254.267 62.5231 253.366 63.595 252.719 64.2156C252.381 64.5541 252.1 64.7515 251.903 64.8926C251.706 65.0336 251.621 65.09 251.593 65.09C251.593 65.09 251.677 65.0054 251.874 64.8644C252.043 64.6951 252.325 64.4694 252.634 64.1592C253.254 63.5104 254.126 62.4384 254.661 60.8023C254.773 60.4356 254.886 59.9279 254.633 59.6176C254.379 59.2791 253.845 59.5047 253.535 59.8997C252.916 60.6049 252.747 61.8743 253.366 62.8333C253.957 63.7642 255.449 64.1309 256.547 63.4821C257.616 62.8898 257.982 61.1408 257.166 60.0689L257.447 60.0407C256.884 61.1973 256.462 62.4948 256.293 63.9053C256.209 64.5823 256.209 65.3157 256.237 66.0209C256.265 66.3876 256.321 66.7261 256.49 66.98C256.659 67.2339 256.969 67.3467 257.278 67.2621C257.616 67.1775 257.926 66.98 258.179 66.7543C258.432 66.5005 258.658 66.1902 258.883 65.8799C259.305 65.2593 259.671 64.5823 259.952 63.8489C260.543 62.4102 260.797 60.8023 260.712 59.1944C260.656 58.0097 260.374 56.8813 259.98 55.8658L260.346 55.8376C258.798 60.351 258.461 64.9208 258.855 68.9828C258.883 69.4906 258.798 70.0829 258.461 70.5343C258.292 70.7317 258.067 70.9292 257.813 71.0138C257.532 71.1267 257.222 71.0985 256.969 71.0138C256.462 70.8164 256.124 70.4497 255.787 70.1112C255.477 69.7727 255.168 69.4341 254.858 69.0956C254.548 68.7571 254.267 68.4186 254.014 68.0801C253.732 67.7134 253.451 67.4031 253.254 66.98C253.057 66.5851 253.113 66.0209 253.422 65.6824C253.732 65.3439 254.154 65.1747 254.548 65.1182C254.942 65.0618 255.336 65.1182 255.674 65.1465C256.04 65.1747 256.406 65.2029 256.744 65.2029C257.419 65.2311 258.067 65.2029 258.658 65.1747C259.84 65.0618 260.881 64.8644 261.697 64.6669C262.514 64.4694 263.133 64.2438 263.555 64.1027C263.949 63.9617 264.174 63.8771 264.174 63.8771Z" fill="#EBECEC"/>
<path d="M263.667 54.3989C263.667 54.5115 252.55 54.5959 238.843 54.5959C225.108 54.5959 213.99 54.5115 213.99 54.3989C213.99 54.2863 225.108 54.2019 238.843 54.2019C252.55 54.2019 263.667 54.2863 263.667 54.3989Z" fill="#E0E0E0"/>
<path d="M263.667 49.8013C263.667 49.8857 252.55 49.9983 238.843 49.9983C225.108 49.9983 213.99 49.8857 213.99 49.8013C213.99 49.6887 225.108 49.6042 238.843 49.6042C252.55 49.6042 263.667 49.6887 263.667 49.8013Z" fill="#E0E0E0"/>
<path d="M256.209 31.0701C256.209 31.1826 248.778 31.2671 239.631 31.2671C230.484 31.2671 223.053 31.1826 223.053 31.0701C223.053 30.9575 230.484 30.873 239.631 30.873C248.778 30.873 256.209 30.9575 256.209 31.0701Z" fill="#E0E0E0"/>
<path d="M369.692 46.5292L374.927 37.6153C374.927 37.6153 377.573 28.7014 378.305 27.9397C379.036 27.2063 379.853 27.0088 380.416 27.3756C380.95 27.7705 388.944 30.0272 389.479 30.4221C390.041 30.7888 389.479 35.7253 389.479 35.7253L389.394 36.8536C389.394 36.8536 392.49 35.8381 393.7 36.8536C394.263 37.3332 393.334 39.6181 391.392 40.4643C389.676 41.226 387.171 42.6928 384.187 45.5701C383.54 46.2189 382.639 46.6138 381.738 46.642C381.232 46.6702 380.81 46.642 380.95 46.5292C381.57 46.0496 376.025 53.5531 376.025 53.5531L369.692 46.5292Z" fill="#F7B8A0"/>
<path d="M369.692 43.8212L373.182 39.4207L381.035 48.3628L377.657 54.8507L369.692 43.8212Z" fill="#FAFAFA"/>
<path d="M369.692 43.8208C369.72 43.8208 369.945 44.1029 370.367 44.6389C370.818 45.2312 371.409 45.9929 372.084 46.8955C373.548 48.8419 375.546 51.5499 377.854 54.7093L377.432 54.7375C378.248 53.186 379.121 51.4935 380.021 49.7446C380.275 49.2368 380.556 48.7291 380.81 48.2495L380.838 48.5316C377.77 45.0338 375.04 41.9026 373.041 39.5331H373.323C372.281 40.8025 371.409 41.8462 370.733 42.6643C370.086 43.3977 369.72 43.8208 369.692 43.8208C369.664 43.8208 369.945 43.3977 370.536 42.6078C371.099 41.8462 371.944 40.6897 373.041 39.3074L373.154 39.1382L373.323 39.2792C375.377 41.5923 378.164 44.7235 381.232 48.1931L381.344 48.3342L381.26 48.4752C381.007 48.983 380.753 49.4907 380.472 49.9703C379.571 51.7192 378.699 53.4117 377.882 54.9632L377.685 55.3299L377.46 54.9914C375.124 51.7474 373.154 48.9266 371.775 46.952C371.156 46.0211 370.621 45.2594 370.199 44.6389C369.833 44.1029 369.664 43.8208 369.692 43.8208Z" fill="#29383E"/>
<path d="M300.341 110.986C300.341 110.986 300.51 105.682 303.043 105.682C305.323 105.682 307.321 106.416 307.321 106.416L368.989 42.5234L379.543 55.048L350.356 92.5372L314.358 129.378C314.358 129.378 311.177 135.301 310.586 138.404C310.023 141.507 309.01 171.126 309.32 176.655C309.657 182.184 314.696 203.961 314.639 214.285C314.583 224.581 311.374 221.535 311.374 221.535L300.595 191.408L295.556 177.981L293.446 175.047L295.191 167.036C295.191 167.036 301.889 144.3 301.861 139.843C301.833 135.386 302.846 130.506 302.846 127.008C302.846 123.679 299.666 117.304 299.666 117.304L300.341 110.986Z" fill="#C52552"/>
<path d="M278.191 99.1384L276.84 103.652L276.08 103.962L270.732 116.769L269.831 214.286L277.909 216.458C277.909 216.458 285.508 207.572 288.042 201.112C290.547 194.681 295.725 175.64 295.725 175.64L302.762 133.412L303.775 122.918C304.085 119.844 302.846 116.853 300.51 114.879L300.848 110.732L298.849 111.719L278.191 99.1384Z" fill="#FAFAFA"/>
<path d="M297.076 119.279C297.104 119.279 297.217 119.871 297.386 120.915C297.527 121.987 297.724 123.51 297.893 125.428C298.258 129.236 298.54 134.511 298.399 140.35C298.287 146.19 297.752 151.436 297.217 155.244C296.964 157.134 296.71 158.658 296.485 159.701C296.288 160.745 296.176 161.338 296.119 161.309C296.091 161.309 296.147 160.717 296.288 159.673C296.429 158.601 296.626 157.078 296.851 155.188C297.301 151.408 297.752 146.161 297.893 140.322C298.033 134.511 297.808 129.264 297.527 125.456C297.386 123.538 297.273 122.015 297.161 120.943C297.076 119.899 297.048 119.307 297.076 119.279Z" fill="#29383E"/>
<path d="M296.598 161.677C296.598 161.677 302.199 144.498 302.199 145.09C302.199 145.654 298.962 187.064 298.962 187.064L293.896 173.073L296.598 161.677Z" fill="#C52552"/>
<path d="M287.901 191.493C287.873 191.465 287.985 191.042 288.267 190.308C288.548 189.434 288.914 188.362 289.364 187.092C290.293 184.384 291.56 180.661 292.854 176.486C294.121 172.311 295.162 168.503 295.894 165.738C296.26 164.441 296.542 163.341 296.767 162.466C296.992 161.705 297.104 161.281 297.161 161.281C297.189 161.281 297.104 161.733 296.964 162.523C296.823 163.313 296.57 164.441 296.26 165.823C295.613 168.616 294.628 172.452 293.333 176.627C292.066 180.83 290.744 184.554 289.702 187.233C289.196 188.559 288.773 189.631 288.436 190.365C288.126 191.098 287.929 191.493 287.901 191.493Z" fill="#3F5E69"/>
<path d="M298.906 172.847C298.793 172.932 298.033 171.803 297.217 170.393C296.401 168.954 295.838 167.713 295.95 167.657C296.063 167.572 296.851 168.7 297.667 170.111C298.484 171.549 299.047 172.791 298.906 172.847Z" fill="#3F5E69"/>
<path d="M302.255 165.795C302.283 165.936 300.932 166.358 299.216 166.471C297.499 166.556 296.119 166.302 296.148 166.161C296.148 166.02 297.527 166.048 299.187 165.936C300.848 165.851 302.227 165.654 302.255 165.795Z" fill="#3F5E69"/>
<path d="M305.464 140.266C305.492 140.266 305.576 140.604 305.633 141.253C305.689 141.874 305.745 142.805 305.661 143.961C305.576 146.246 304.901 149.434 303.296 152.565C301.917 155.301 300.397 157.614 299.412 159.532C298.371 161.422 297.836 162.889 297.583 163.425L297.47 163.397C297.555 163.228 297.583 163.143 297.611 163.171C297.611 163.171 297.611 163.256 297.583 163.425L297.47 163.397C297.611 162.833 298.061 161.309 299.046 159.363C300.003 157.388 301.495 155.019 302.846 152.339C304.422 149.264 305.126 146.19 305.295 143.933C305.52 141.676 305.379 140.266 305.464 140.266Z" fill="#3F5E69"/>
<path d="M300.679 112.65C300.707 112.622 301.101 112.876 301.749 113.412C302.396 113.92 303.325 114.71 304.366 115.753C305.408 116.825 306.618 118.123 307.631 119.843C308.11 120.718 308.644 121.649 308.757 122.777C308.869 123.877 308.813 125.006 308.644 126.134C308.166 129.575 307.209 132.65 306.421 135.161C305.605 137.671 304.845 139.589 304.366 140.718L304.282 140.577C305.07 140.605 305.492 140.633 305.492 140.661C305.492 140.718 305.07 140.746 304.282 140.774H304.141L304.197 140.633C304.563 139.505 305.239 137.53 305.999 135.02C306.759 132.509 307.659 129.434 308.138 126.078C308.307 124.977 308.363 123.877 308.25 122.862C308.166 121.846 307.659 120.915 307.209 120.097C306.252 118.405 305.098 117.079 304.113 116.007C303.1 114.935 302.227 114.117 301.608 113.553C301.017 112.989 300.679 112.679 300.679 112.65Z" fill="#3F5E69"/>
<path d="M258.095 109.406C258.123 109.377 258.461 109.631 259.052 110.167C259.615 110.703 260.403 111.55 261.219 112.678C262.879 114.906 264.681 118.517 265.075 122.833C265.469 127.149 264.399 131.042 263.161 133.552C262.57 134.822 261.951 135.781 261.5 136.429C261.022 137.05 260.74 137.36 260.712 137.36C260.628 137.304 261.725 135.95 262.851 133.411C263.949 130.901 264.962 127.092 264.568 122.889C264.174 118.686 262.485 115.132 260.909 112.875C259.361 110.59 258.038 109.462 258.095 109.406Z" fill="#3F5E69"/>
<path d="M312.894 121.451C312.838 121.451 312.782 120.52 312.697 119.025C312.585 117.53 312.472 115.471 311.853 113.271C311.234 111.099 310.108 109.35 309.067 108.306C308.053 107.262 307.181 106.867 307.237 106.783C307.237 106.754 307.462 106.811 307.856 107.008C308.222 107.206 308.757 107.544 309.32 108.052C310.474 109.068 311.712 110.873 312.36 113.13C312.979 115.386 313.063 117.502 313.063 119.025C313.035 120.52 312.979 121.451 312.894 121.451Z" fill="#3F5E69"/>
<path d="M277.037 103.651C277.009 103.651 277.093 103.228 277.262 102.438C277.459 101.536 277.712 100.435 277.994 99.1096L278.05 98.8557L278.275 98.9968C280.696 100.407 283.989 102.382 287.619 104.582C292.461 107.544 296.682 110.167 298.934 111.606H298.793C300.088 111.014 300.82 110.675 300.848 110.732C300.876 110.788 300.172 111.183 298.906 111.86L298.85 111.888L298.793 111.832C296.457 110.534 292.207 107.995 287.338 105.033C283.735 102.833 280.442 100.802 278.078 99.307L278.36 99.1942C277.994 100.492 277.684 101.592 277.459 102.466C277.234 103.256 277.093 103.679 277.037 103.651Z" fill="#29383E"/>
<path d="M215.257 208.56C217.649 213.778 256.884 234.455 256.884 234.455C256.884 234.455 266.088 227.431 277.881 212.96C289.674 198.517 296.598 161.677 296.598 161.677C296.598 161.677 290.04 133.13 285.424 121.113C280.836 109.096 276.08 103.737 276.08 103.737L252.071 109.604L244.557 160.125L244.106 175.781C244.106 175.781 242.192 176.289 242.192 177.107C242.192 177.953 242.192 178.969 242.192 178.969L215.257 208.56Z" fill="#C52552"/>
<path d="M188.659 207.092C188.659 207.092 223.335 150.816 227.05 144.385C231.356 136.966 250.045 108.419 252.888 109.434C255.702 110.421 265.215 117.558 261.388 131.578C257.588 145.597 253.197 153.016 253.197 153.016L239.434 167.657L203.633 217.868L189.616 207.769L188.659 207.092Z" fill="#C52552"/>
<path d="M276.502 214.398C276.502 214.426 276.333 214.595 275.995 214.962C275.601 215.357 275.066 215.865 274.419 216.485C273.04 217.839 271.07 219.729 268.649 222.071C266.201 224.412 263.273 227.177 260.037 230.279C259.22 231.013 258.461 231.887 257.419 232.564C256.913 232.903 256.293 233.129 255.618 233.129C254.97 233.129 254.351 232.903 253.788 232.649C251.565 231.69 249.257 230.674 246.921 229.546C237.576 225.117 229.555 220.209 223.982 216.373C221.196 214.454 219 212.818 217.48 211.662C216.749 211.098 216.186 210.646 215.764 210.308C215.37 209.998 215.172 209.828 215.201 209.828C215.201 209.8 215.426 209.941 215.82 210.223C216.27 210.562 216.861 210.985 217.593 211.521C219.141 212.593 221.365 214.201 224.179 216.062C229.808 219.814 237.83 224.638 247.146 229.095C249.454 230.195 251.762 231.21 253.985 232.198C254.548 232.423 255.083 232.621 255.646 232.621C256.181 232.621 256.715 232.423 257.166 232.141C258.095 231.549 258.883 230.674 259.727 229.913C262.992 226.866 265.919 224.13 268.396 221.789C270.873 219.532 272.871 217.67 274.278 216.344C274.954 215.724 275.517 215.244 275.911 214.878C276.277 214.539 276.474 214.398 276.502 214.398Z" fill="#3F5E69"/>
<path d="M256.8 193.58C256.8 193.609 256.519 193.467 256.068 193.185C255.618 192.903 254.971 192.48 254.183 191.916C252.635 190.788 250.58 189.067 248.553 186.98C246.527 184.836 244.894 182.72 243.825 181.14C243.29 180.351 242.896 179.674 242.643 179.194C242.361 178.743 242.249 178.461 242.277 178.461C242.333 178.404 243.009 179.391 244.135 180.915C245.26 182.466 246.921 184.497 248.919 186.613C250.946 188.7 252.916 190.421 254.408 191.606C255.899 192.819 256.856 193.496 256.8 193.58Z" fill="#3F5E69"/>
<path d="M295.022 166.472C295.022 166.501 294.965 166.642 294.853 166.896C294.74 167.178 294.543 167.573 294.29 168.08C293.783 169.096 293.023 170.534 291.926 172.227C290.8 173.919 289.308 175.894 287.056 177.446C284.833 179.025 281.821 179.815 278.725 179.9C272.533 180.041 266.989 179.053 263.076 178.094C261.134 177.587 259.558 177.107 258.517 176.712C257.982 176.543 257.56 176.374 257.278 176.261C256.997 176.176 256.856 176.092 256.884 176.092C256.884 176.035 257.475 176.233 258.573 176.543C259.643 176.853 261.219 177.276 263.161 177.728C267.073 178.602 272.59 179.533 278.697 179.392C281.737 179.279 284.636 178.546 286.775 177.051C288.97 175.584 290.462 173.666 291.616 172.029C292.742 170.393 293.558 168.955 294.121 167.996C294.656 167.008 294.993 166.472 295.022 166.472Z" fill="#3F5E69"/>
<path d="M262.148 190.788C262.12 190.816 261.838 190.675 261.331 190.393C260.797 190.111 260.065 189.659 259.164 189.095C257.391 187.939 254.971 186.274 252.437 184.243C249.904 182.212 247.737 180.209 246.245 178.714C245.485 177.953 244.894 177.332 244.5 176.881C244.106 176.458 243.909 176.176 243.937 176.176C243.994 176.119 244.951 177.022 246.499 178.432C248.047 179.871 250.242 181.817 252.775 183.82C255.28 185.851 257.644 187.572 259.361 188.785C261.106 189.998 262.204 190.731 262.148 190.788Z" fill="#3F5E69"/>
<path d="M293.896 163.877C293.868 163.849 294.177 163.482 294.825 163.651C295.163 163.736 295.528 164.046 295.557 164.554C295.613 165.09 295.134 165.569 294.6 165.626C294.065 165.71 293.558 165.4 293.333 164.977C293.108 164.554 293.249 164.074 293.502 163.82C293.755 163.566 294.065 163.566 294.234 163.623C294.431 163.679 294.487 163.792 294.459 163.82C294.459 163.877 294.065 163.736 293.783 164.074C293.643 164.243 293.614 164.526 293.755 164.751C293.896 164.977 294.234 165.146 294.515 165.09C294.853 165.062 295.078 164.808 295.078 164.582C295.078 164.3 294.909 164.074 294.712 163.99C294.29 163.792 293.924 163.961 293.896 163.877Z" fill="#3F5E69"/>
<path d="M255.055 148.193C255.111 148.221 254.239 149.349 252.859 151.126C251.396 153.016 249.51 155.414 247.427 158.066C245.316 160.774 243.374 163.228 241.911 164.948C240.475 166.697 239.49 167.713 239.434 167.656C239.406 167.628 239.631 167.346 239.997 166.838C240.475 166.246 241.01 165.541 241.629 164.723C243.093 162.833 244.979 160.407 247.033 157.755C249.172 155.047 251.114 152.621 252.578 150.901C253.31 150.026 253.901 149.349 254.351 148.87C254.773 148.418 255.027 148.164 255.055 148.193Z" fill="#3F5E69"/>
<path d="M299.356 127.46C299.215 127.516 298.934 126.952 298.624 126.247C298.315 125.57 298.118 124.977 298.258 124.893C298.371 124.836 298.793 125.344 299.103 126.049C299.412 126.783 299.497 127.431 299.356 127.46Z" fill="#FEFEFE"/>
<path d="M299.947 121.818C299.835 121.903 299.581 121.79 299.272 121.705C298.962 121.592 298.681 121.536 298.653 121.367C298.624 121.254 298.99 121.056 299.441 121.197C299.863 121.338 300.06 121.705 299.947 121.818Z" fill="#FEFEFE"/>
<path d="M297.302 122.438C297.302 122.353 297.273 122.269 297.273 122.184C297.273 121.394 297.189 120.604 297.076 119.786C297.076 119.758 297.076 119.73 297.076 119.673C297.161 120.294 297.302 121.394 297.302 122.438Z" fill="#242C2F"/>
<path d="M299.469 118.489C299.328 118.489 299.272 117.305 298.624 116.035C298.005 114.794 297.105 113.976 297.217 113.863C297.273 113.75 298.371 114.427 299.103 115.81C299.807 117.192 299.61 118.518 299.469 118.489Z" fill="#29383E"/>
<path d="M254.323 109.068C254.323 109.068 267.242 112.538 264.484 127.714C261.726 142.918 244.444 163.736 244.444 163.736L242.896 163.426L236.338 172.001C236.338 172.001 241.714 173.976 245.908 171.945C250.13 169.914 260.825 153.384 265.976 140.267C272.139 124.639 270.169 117.728 268.171 114.117C263.752 106.05 259.305 107.545 259.305 107.545L254.323 109.068Z" fill="#3F5E69"/>
<path d="M296.204 162.946C296.204 162.946 296.007 162.805 295.697 162.523C295.359 162.213 294.881 161.789 294.318 161.282C293.164 160.182 291.447 158.574 289.477 156.458C287.535 154.342 285.283 151.691 283.341 148.362C281.371 145.034 280.048 140.972 278.951 136.712C277.853 132.453 276.896 128.362 275.967 124.639C275.095 120.943 274.138 117.615 273.828 114.709C273.518 111.804 274.138 109.406 274.954 107.996C275.348 107.262 275.742 106.783 276.052 106.472C276.192 106.303 276.333 106.219 276.389 106.134L276.53 106.049C276.586 106.078 275.854 106.642 275.123 108.08C274.391 109.491 273.856 111.832 274.194 114.681C274.532 117.53 275.545 120.831 276.446 124.526C277.374 128.249 278.388 132.311 279.457 136.571C280.555 140.83 281.85 144.836 283.763 148.108C285.649 151.409 287.845 154.06 289.758 156.204C291.672 158.348 293.333 159.984 294.459 161.141C294.994 161.677 295.444 162.128 295.782 162.466C296.063 162.777 296.204 162.918 296.204 162.946Z" fill="#3F5E69"/>
<path d="M293.671 131.804C293.53 131.776 293.586 131.07 293.783 130.28C293.98 129.462 294.262 128.842 294.402 128.87C294.543 128.898 294.487 129.575 294.29 130.393C294.093 131.211 293.811 131.86 293.671 131.804Z" fill="#FEFEFE"/>
<path d="M285.058 120.153C284.608 119.645 284.101 119.053 283.595 118.404C283.651 118.461 284.186 119.11 285.03 120.04C285.03 120.069 285.058 120.125 285.058 120.153Z" fill="#242C2F"/>
<path d="M299.525 118.404C299.638 118.461 299.272 119.222 298.315 119.533C297.865 119.674 297.386 119.646 297.105 119.533C296.823 119.392 296.682 119.251 296.711 119.194C296.795 119.053 297.414 119.307 298.174 119.025C298.906 118.799 299.384 118.291 299.525 118.404Z" fill="#29383E"/>
<path d="M298.343 115.386C298.455 115.471 298.061 116.12 297.498 116.825C296.936 117.53 296.373 118.038 296.26 117.953C296.147 117.869 296.513 117.22 297.104 116.515C297.667 115.809 298.23 115.302 298.343 115.386Z" fill="#FEFEFE"/>
<path d="M298.596 113.384C298.568 113.384 298.512 112.848 298.455 111.804L298.653 111.86C298.005 112.96 296.823 114.653 294.994 116.43C294.515 116.853 294.093 117.389 293.333 117.671C292.939 117.812 292.46 117.728 292.123 117.53C291.785 117.333 291.504 117.079 291.222 116.853C290.068 115.894 288.886 114.879 287.676 113.807C282.75 109.519 278.725 105.57 276.98 103.736L277.065 103.764C276.08 103.877 275.545 103.906 275.545 103.877C275.545 103.821 276.052 103.736 277.037 103.567L277.093 103.539L277.121 103.595C278.979 105.288 283.088 109.152 288.013 113.44C289.224 114.484 290.406 115.499 291.532 116.458C292.095 116.938 292.629 117.417 293.192 117.22C293.727 117.051 294.206 116.515 294.684 116.12C296.542 114.427 297.752 112.791 298.484 111.748L298.681 111.465V111.804C298.653 112.819 298.624 113.384 298.596 113.384Z" fill="#29383E"/>
<path d="M251.115 108.87C251.03 108.983 249.595 107.939 248.328 106.19C247.062 104.413 246.499 102.72 246.64 102.692C246.78 102.636 247.512 104.187 248.75 105.88C249.961 107.572 251.199 108.757 251.115 108.87Z" fill="#FEFEFE"/>
<path d="M267.664 100.605C267.777 100.69 267.129 101.959 266.369 103.539C265.638 105.119 265.047 106.416 264.906 106.36C264.793 106.303 265.159 104.921 265.919 103.313C266.679 101.705 267.523 100.549 267.664 100.605Z" fill="#FEFEFE"/>
<path d="M255.59 106.614C255.477 106.642 254.83 105.062 254.436 102.975C254.014 100.887 254.014 99.1665 254.154 99.1665C254.295 99.1665 254.548 100.831 254.942 102.89C255.336 104.921 255.73 106.557 255.59 106.614Z" fill="#FEFEFE"/>
<path d="M261.303 99.1385C261.444 99.1949 260.909 100.577 260.571 102.354C260.206 104.131 260.177 105.598 260.037 105.598C259.896 105.626 259.699 104.103 260.065 102.241C260.431 100.408 261.191 99.082 261.303 99.1385Z" fill="#FEFEFE"/>
<path d="M393.701 36.8536C393.644 36.91 393.194 36.5151 392.237 36.5715C391.28 36.5715 390.014 36.91 388.606 37.3896C387.199 37.8691 385.848 38.2076 384.835 38.1794C383.821 38.1512 383.259 37.8409 383.259 37.7845C383.287 37.7281 383.878 37.8691 384.835 37.8127C385.764 37.7563 387.03 37.3896 388.437 36.91C389.845 36.4305 391.224 36.1202 392.237 36.2048C392.744 36.233 393.166 36.3741 393.391 36.5433C393.644 36.6844 393.701 36.8536 393.701 36.8536Z" fill="#C06853"/>
<path d="M383.061 32.0865C383.118 32.0583 383.286 32.425 383.821 32.6789C384.384 32.961 385.285 32.9045 386.214 32.4532L386.664 32.2275L386.551 32.7353C386.354 33.4687 386.27 34.3714 386.411 35.2741L386.439 35.4433L386.467 35.7254L386.185 35.7536C385.651 35.7818 385.257 35.5561 384.891 35.4433C384.525 35.3023 384.215 35.2176 383.962 35.3305C383.709 35.4433 383.568 35.7536 383.54 36.0075C383.512 36.2614 383.596 36.5434 383.737 36.7409C383.99 37.1922 384.356 37.4461 384.609 37.6154C384.863 37.8128 385.003 37.9257 384.975 37.9539C384.947 37.9821 384.778 37.9257 384.497 37.7846C384.215 37.6436 383.793 37.4461 383.427 36.9384C383.258 36.7127 383.089 36.3742 383.118 35.9793C383.146 35.5844 383.315 35.1612 383.737 34.9356C384.187 34.6817 384.694 34.8227 385.06 34.9638C385.454 35.1048 385.82 35.2459 386.157 35.2176L385.904 35.5279L385.876 35.3305C385.763 34.3432 385.876 33.4123 386.101 32.5942L386.411 32.8763C385.904 33.102 385.369 33.243 384.891 33.243C384.412 33.243 383.99 33.102 383.709 32.9328C383.089 32.5378 383.033 32.0865 383.061 32.0865Z" fill="#C06853"/>
<path d="M382.076 37.2487C381.935 37.164 382.639 36.1203 383.033 34.6535C383.258 33.9201 383.343 33.2431 383.202 32.7917C383.089 32.3404 382.864 32.1429 382.892 32.0865C382.921 32.0019 383.315 32.1429 383.54 32.6789C383.821 33.2149 383.765 34.0329 383.54 34.7945C383.089 36.3742 382.161 37.3615 382.076 37.2487Z" fill="#C06853"/>
<path d="M286.747 13.0451C286.803 13.1298 284.523 14.9069 281.653 16.9943C278.782 19.11 276.417 20.7461 276.361 20.6614C276.305 20.5768 278.557 18.7997 281.427 16.684C284.298 14.5966 286.662 12.9605 286.747 13.0451Z" fill="#E0E0E0"/>
<path d="M190.939 12.8763C190.967 12.8481 191.586 13.2148 192.571 13.8918C193.528 14.5406 194.851 15.4715 196.315 16.5434C197.75 17.5871 199.017 18.6026 199.917 19.3642C200.818 20.1259 201.353 20.6054 201.325 20.6618C201.297 20.69 200.706 20.2669 199.749 19.5617C198.707 18.8001 197.469 17.8692 196.09 16.8255C194.711 15.81 193.444 14.8791 192.403 14.0892C191.474 13.384 190.911 12.9327 190.939 12.8763Z" fill="#E0E0E0"/>
<path d="M101.19 0C101.247 0.0282085 100.571 0.987299 99.4452 2.51056C98.3194 4.00561 96.7151 6.06484 94.9138 8.29331C93.0843 10.4936 91.3674 12.4682 90.129 13.8786C88.8625 15.2608 88.0462 16.0789 87.99 16.0507C87.9337 15.9942 88.6373 15.0916 89.8194 13.6247C91.1423 12.045 92.7184 10.0987 94.4916 7.95481C96.2648 5.81096 97.8691 3.86457 99.1638 2.28489C100.318 0.874465 101.05 0 101.162 0H101.19Z" fill="#E0E0E0"/>
<path d="M4.03141 0C4.25657 0.0282086 6.95855 3.27219 10.1953 7.36243C13.4602 11.5373 16.0496 14.9787 15.937 15.0916C15.8244 15.1762 13.0662 11.8758 9.77312 7.70094C6.48008 3.52607 3.91882 0.0846257 4.03141 0Z" fill="#E0E0E0"/>
<path d="M286.59 50.6735C287.332 49.1159 289.188 48.1395 290.904 48.3952C292.876 46.7215 296.03 46.675 298.048 48.279C299.555 47.3259 301.55 47.2096 303.151 48C304.728 48.7904 305.841 50.441 305.98 52.1845C307.743 51.8591 309.691 52.7425 310.573 54.3C311.454 55.8576 311.222 57.9498 309.993 59.2749C311.964 59.8329 313.31 61.9948 312.939 63.9708C312.591 65.9701 310.573 67.5044 308.532 67.3417L287.518 55.4624C286.219 54.3 285.824 52.2543 286.59 50.6735Z" fill="#29383E"/>
<path d="M311.222 90.1704C311.106 85.6372 310.132 76.3151 309.158 67.8996C308.114 58.8564 300.228 52.138 291.09 52.4402L290.162 52.4867C280.374 53.3934 275.689 62.1575 276.871 71.8749L279 100.228L298.5 112.255L300 111.754C300 111.754 300.627 108.62 301.5 107.745C302.373 106.87 302.5 106.242 302.5 106.242L302.037 101.329C302.037 101.329 311.431 99.539 311.222 90.1704Z" fill="#F7BAA1"/>
<path d="M302.13 101.306C302.13 101.306 296.123 101.887 289.628 98.1443C289.628 98.1443 292.783 104.793 302.176 103.631L302.13 101.306Z" fill="#F29573"/>
<path d="M306.723 76.0596C306.769 76.757 306.212 77.3847 305.47 77.4544C304.728 77.5242 304.078 76.9895 304.032 76.2921C303.986 75.5946 304.542 74.967 305.284 74.8972C306.027 74.8275 306.653 75.3389 306.723 76.0596Z" fill="#29383E"/>
<path d="M307.302 72.5722C307.14 72.7349 306.096 72.0375 304.635 72.084C303.197 72.1073 302.153 72.8977 301.991 72.7117C301.898 72.6419 302.061 72.3165 302.524 71.9678C302.965 71.6191 303.731 71.2704 304.635 71.2471C305.54 71.2239 306.305 71.5261 306.746 71.8515C307.21 72.177 307.372 72.4792 307.302 72.5722Z" fill="#29383E"/>
<path d="M293.641 76.7569C293.687 77.4775 293.131 78.0819 292.388 78.1517C291.646 78.2214 290.997 77.71 290.95 76.9893C290.904 76.2919 291.461 75.6642 292.203 75.5945C292.945 75.5248 293.571 76.0594 293.641 76.7569Z" fill="#29383E"/>
<path d="M293.061 73.316C292.899 73.502 291.855 72.7814 290.394 72.8511C288.956 72.8743 287.912 73.6647 287.75 73.4788C287.68 73.409 287.819 73.0836 288.283 72.7349C288.724 72.3862 289.489 72.0374 290.394 72.0142C291.298 71.991 292.064 72.2932 292.504 72.6186C292.968 72.9441 293.131 73.2463 293.061 73.316Z" fill="#29383E"/>
<path d="M298.697 83.824C298.674 83.7543 299.579 83.5683 301.04 83.3126C301.388 83.2661 301.759 83.1963 301.805 82.9406C301.875 82.6617 301.713 82.2665 301.504 81.848C301.133 80.9646 300.738 80.058 300.321 79.0816C298.674 75.1528 297.445 71.9215 297.607 71.8517C297.77 71.782 299.254 74.9204 300.901 78.8491C301.295 79.8255 301.689 80.7554 302.061 81.6388C302.2 82.0572 302.455 82.5222 302.292 83.0801C302.2 83.3591 301.945 83.5683 301.713 83.638C301.457 83.7078 301.249 83.731 301.086 83.731C299.602 83.8705 298.697 83.917 298.697 83.824Z" fill="#29383E"/>
<path d="M293.224 67.6674C293.108 68.0626 291.646 67.9231 289.953 68.1788C288.26 68.4113 286.915 68.9692 286.66 68.6205C286.567 68.4578 286.776 68.0858 287.332 67.6674C287.866 67.2722 288.724 66.9002 289.744 66.7375C290.765 66.598 291.693 66.7143 292.319 66.9467C292.968 67.1792 293.293 67.4814 293.224 67.6674Z" fill="#29383E"/>
<path d="M306.607 68.4112C306.375 68.7367 305.354 68.4345 304.171 68.4577C302.965 68.4577 301.945 68.7599 301.713 68.4345C301.597 68.2718 301.736 67.9463 302.176 67.6208C302.594 67.2954 303.336 67.0164 304.148 66.9932C304.983 66.9932 305.702 67.2721 306.143 67.5976C306.56 67.9231 306.723 68.2485 306.607 68.4112Z" fill="#29383E"/>
<path d="M308.683 63.7143C308.683 63.7143 305.949 57.983 303.052 56.717C299.499 55.1979 298.144 58.9727 294.802 58.1901C291.461 57.3845 288.095 55.9345 284.8 58.5354C281.178 61.4125 282.978 63.2539 282.908 67.397C282.58 84.1305 279.613 88.9411 278.444 81.1153C278.327 80.2636 275.85 79.6422 275.36 76.0285C274.729 71.3099 274.331 65.6017 275.289 62.1951C276.107 59.341 277.673 57.3385 280.547 55.0828C285.104 51.5382 291.507 51.2389 295.877 51.5382C300.247 51.8144 308.8 56.4178 308.683 63.7143Z" fill="#29383E"/>
<path d="M278.704 80.9411C278.588 79.4998 277.289 78.4072 275.851 78.5932C274.088 78.8024 272.186 79.8718 272.418 83.4751C272.859 89.8913 279.237 88.1245 279.237 87.9618C279.214 87.8223 278.913 83.6146 278.704 80.9411Z" fill="#F7BAA1"/>
<path d="M277.66 85.6372C277.637 85.614 277.544 85.7302 277.382 85.8232C277.196 85.9162 276.871 85.9859 276.524 85.893C275.828 85.6837 275.201 84.6609 275.085 83.4985C275.016 82.9173 275.109 82.3594 275.294 81.8944C275.457 81.4063 275.735 81.0575 276.083 80.9646C276.408 80.8716 276.663 81.0575 276.755 81.2435C276.848 81.4063 276.825 81.5457 276.848 81.5457C276.871 81.569 276.987 81.4295 276.918 81.1738C276.895 81.0343 276.802 80.8948 276.64 80.7786C276.477 80.6623 276.245 80.6159 276.013 80.6623C275.503 80.7321 275.109 81.2203 274.9 81.7317C274.691 82.2664 274.575 82.8941 274.645 83.545C274.761 84.8236 275.503 85.9859 276.454 86.1952C276.918 86.2882 277.289 86.1254 277.475 85.9627C277.66 85.8 277.683 85.6372 277.66 85.6372Z" fill="#F29573"/>
<path d="M278.402 68.5273C279.26 69.062 280.165 69.62 281.162 69.6897C282.183 69.7362 283.319 69.1318 283.459 68.1321C283.505 67.6672 283.389 67.1558 283.667 66.8071C284.015 66.3886 284.665 66.4816 285.198 66.5281C287.077 66.6676 288.956 65.2727 289.373 63.4595C289.883 64.1336 290.997 64.0639 291.693 63.5757C292.412 63.0875 292.852 62.3203 293.386 61.6694C293.919 60.9953 294.708 60.3908 295.566 60.4838C296.03 60.5303 296.494 60.8093 296.981 60.7395C297.816 60.6466 298.187 59.6237 298.303 58.7868C298.396 57.9499 298.465 56.9735 299.161 56.5086C299.811 56.0436 300.692 56.2761 301.457 56.3458C302.246 56.4388 303.243 56.2296 303.429 55.4624C303.522 55.0672 303.336 54.6488 303.081 54.3001C302.037 52.7658 299.811 52.1381 298.117 52.9052C297.398 50.813 295.357 49.2322 293.131 49.0695C290.904 48.93 288.654 50.2086 287.68 52.1846C286.265 50.999 284.27 50.5573 282.484 51.0222C280.699 51.4872 279.191 52.8587 278.565 54.579C276.964 54.2303 275.201 54.8813 274.251 56.2063C273.3 57.5082 273.23 59.3912 274.065 60.7628C272.928 61.4602 271.977 62.6458 272.001 63.9709C272.024 65.296 273.369 66.5746 274.645 66.1794C274.158 67.2255 274.645 68.6203 275.665 69.155C276.686 69.6897 278.124 69.3177 278.727 68.3181L278.402 68.5273Z" fill="#29383E"/>
<path d="M274.181 66.1794C274.158 66.1562 274.088 66.7141 274.622 67.3883C274.9 67.7138 275.341 68.0392 275.944 68.109C276.524 68.2019 277.243 68.0392 277.753 67.5278L277.498 67.4813C277.822 68.0392 278.263 68.5739 278.843 69.0388C279.191 69.3411 279.585 69.5968 280.026 69.7363C280.467 69.8757 280.954 69.8757 281.325 69.806C282.16 69.6898 282.856 69.2248 283.157 68.6901C283.482 68.1555 283.575 67.6673 283.644 67.3186C283.691 66.9931 283.691 66.8071 283.667 66.8071C283.644 66.8071 283.598 66.9931 283.482 67.2953C283.389 67.5975 283.273 68.0625 282.948 68.5274C282.368 69.4805 280.397 70.0152 279.075 68.7599C278.541 68.3182 278.124 67.8067 277.799 67.2953L277.66 67.1093L277.521 67.2721C277.08 67.6905 276.477 67.8765 275.967 67.83C275.457 67.7835 275.062 67.5278 274.784 67.2488C274.25 66.6909 274.227 66.1562 274.181 66.1794Z" fill="#3F5E69"/>
<path d="M292.273 85.986C292.388 85.986 292.388 85.3118 292.922 84.7306C293.432 84.1262 294.105 84.0332 294.105 83.917C294.105 83.8705 293.919 83.824 293.618 83.8937C293.339 83.9402 292.945 84.1494 292.644 84.4749C292.342 84.8236 292.203 85.2188 292.18 85.521C292.157 85.8232 292.226 85.986 292.273 85.986Z" fill="#F29573"/>
<path d="M291.646 84.2191C291.739 84.2888 291.971 84.0563 292.296 83.8936C292.62 83.7076 292.945 83.6611 292.968 83.5681C292.992 83.4752 292.574 83.3357 292.133 83.5681C291.693 83.7774 291.553 84.1958 291.646 84.2191Z" fill="#F29573"/>
<path d="M303.452 48.1627C303.475 48.0929 304.148 48.5114 304.658 49.5808C304.913 50.1154 305.169 50.7664 305.238 51.5568C305.331 52.3472 305.122 53.2771 304.566 54.021C304.009 54.7649 303.267 55.2531 302.571 55.5785C301.852 55.904 301.202 56.1132 300.669 56.2992C299.556 56.6247 298.883 56.8106 298.86 56.7409C298.837 56.6944 299.486 56.3922 300.553 55.9737C301.086 55.7645 301.713 55.532 302.362 55.1833C303.035 54.8579 303.707 54.4162 304.194 53.742C304.681 53.0911 304.867 52.3007 304.821 51.58C304.774 50.8594 304.589 50.2317 304.38 49.7202C303.939 48.6741 303.406 48.2092 303.452 48.1627Z" fill="#E0E0E0"/>
<path d="M307.534 52.3706C307.581 52.3706 307.627 52.7891 307.465 53.4167C307.279 54.0212 306.862 54.8581 306.12 55.5322C305.377 56.2064 304.519 56.5783 303.893 56.6946C303.243 56.8108 302.849 56.7411 302.849 56.6946C302.849 56.6248 303.243 56.5783 303.8 56.3691C304.38 56.1831 305.122 55.8112 305.818 55.1835C306.491 54.5791 306.908 53.8584 307.163 53.3005C307.395 52.7426 307.465 52.3706 307.534 52.3706Z" fill="#E0E0E0"/>
<path d="M295.265 86.1488C295.079 86.0559 294.847 85.9629 294.638 86.0559C294.476 86.1256 294.36 86.3116 294.29 86.4975C293.664 87.9621 293.873 89.7522 294.824 91.0307L294.847 91.0772C296.239 92.937 299.184 92.4953 300.159 90.3798L300.901 88.799C299.602 88.1946 296.564 86.7533 295.265 86.1488Z" fill="#F29573"/>
<path d="M299.648 91.1701C299.718 91.1933 299.022 92.1232 297.306 92.3325C296.911 92.379 296.378 92.3092 295.937 92.1232C295.497 91.9373 294.986 91.635 294.638 91.1701C293.943 90.217 293.664 88.9849 293.687 87.7295C293.711 87.4041 293.711 87.1251 293.757 86.7764C293.827 86.4509 293.943 86.079 294.337 85.8233C294.731 85.5908 295.172 85.7535 295.404 85.893C295.659 86.0092 295.891 86.1255 296.146 86.2417C297.004 86.7066 297.839 87.1483 298.605 87.5435C300.02 88.3107 300.855 88.7989 300.831 88.8919C300.785 88.9616 299.88 88.5897 298.419 87.9387C297.63 87.5668 296.772 87.1716 295.891 86.7531C295.427 86.5672 294.824 86.172 294.638 86.3579C294.36 86.4974 294.314 87.1716 294.314 87.7295C294.291 88.8919 294.546 90.031 295.079 90.8214C295.357 91.1933 295.729 91.4491 296.146 91.635C296.54 91.8443 296.911 91.914 297.283 91.8908C298.813 91.821 299.602 91.0771 299.648 91.1701Z" fill="#29383E"/>
</svg>
