<svg width="46" height="50" viewBox="0 0 46 50" fill="none" xmlns="http://www.w3.org/2000/svg">
<path fill-rule="evenodd" clip-rule="evenodd" d="M6.86333 34.3489C6.96747 35.454 7.16087 36.5442 7.44354 37.6195C8.48494 36.7383 9.60073 35.693 10.3595 34.1099C10.6719 33.4677 10.7909 32.721 10.8058 32.0639C10.8207 31.0036 10.8653 30.1523 10.7165 29.2861C10.5826 29.7491 10.3595 30.2718 10.0322 30.8542C8.96101 32.7061 7.77083 33.6171 6.86333 34.3489ZM11.4901 19.1308L10.4339 14.6057C9.57097 14.8148 8.7081 15.0687 7.88985 15.3823C8.03862 16.8011 8.08325 18.2348 7.99399 19.7581C9.30319 19.4295 10.5677 19.2204 11.4901 19.1308ZM35.2639 32.0639C35.2788 32.721 35.3978 33.4677 35.7102 34.1099C36.4838 35.7079 37.5996 36.7383 38.6261 37.6195C38.9088 36.5293 39.1022 35.4391 39.2063 34.3489C38.284 33.6021 37.0938 32.6912 36.0375 30.8542C35.7102 30.2718 35.4722 29.7491 35.3532 29.2861C35.2044 30.1523 35.249 31.0036 35.2639 32.0639ZM35.6209 14.5908L34.5498 19.1159C35.487 19.2055 36.7516 19.4146 38.0608 19.7431C37.9864 18.2198 38.0162 16.7861 38.1649 15.3674C37.3467 15.0538 36.4838 14.7999 35.6209 14.5908ZM14.9119 16.0842H12.8737V36.8578C12.8737 38.859 14.4953 40.4719 16.474 40.4719H18.9436C21.443 40.4719 22.8117 41.5472 22.8117 42.8614H23.2431C23.2431 41.5323 24.6118 40.4719 27.1112 40.4719H29.5808C31.5743 40.4719 33.1811 38.8441 33.1811 36.8578V16.0842H33.196H31.1132C32.0504 15.6213 32.6009 14.8148 32.3182 13.7097C32.2736 13.4259 31.6785 12.2909 31.9612 11.3053C31.009 12.0818 30.3693 13.3513 29.6701 15.0836C29.4767 15.5466 29.3428 15.7855 29.0452 15.681C27.3939 15.1434 25.2515 14.77 23.02 14.77C20.8033 14.77 18.6461 15.1583 16.9947 15.681C16.6971 15.7706 16.5633 15.5317 16.3699 15.0836C15.6409 13.3363 15.0012 12.0818 14.0788 11.3053C14.3614 12.3059 13.7663 13.4409 13.692 13.7097C13.4242 14.8148 13.9746 15.6213 14.9119 16.0842ZM22.9753 38.7097C22.0083 38.7097 21.2198 37.9182 21.2198 36.9474C21.2198 36.9325 21.2198 36.9026 21.2198 36.8877C21.4132 37.2162 21.7703 37.4403 22.1868 37.4403C22.8117 37.4403 23.3175 36.9325 23.3175 36.3053C23.3175 35.8274 23.02 35.4092 22.5885 35.2449C22.7224 35.2151 22.8414 35.2001 22.9753 35.2001C23.9423 35.2001 24.716 35.9767 24.7308 36.9474C24.716 37.9331 23.9423 38.7097 22.9753 38.7097ZM30.5776 38.7097L23.4365 33.0795L24.1655 32.497L31.128 38.0078L30.5776 38.7097ZM31.2619 26.9265C31.0685 27.3297 30.5181 27.4044 30.2205 27.0759L29.7891 27.4492C30.8602 29.5699 30.5776 29.5848 31.7082 31.7652C30.5478 32.4522 28.0931 34.2593 28.0931 34.2593C26.9624 32.2282 27.2302 32.1535 26.2186 30.2569L15.4921 38.7097L14.9416 38.0078L22.3059 32.1834L19.866 30.2419C18.8543 32.1535 19.1073 32.2282 17.9915 34.2443C17.9915 34.2443 15.5367 32.4223 14.3763 31.7503C15.507 29.555 15.2243 29.555 16.2955 27.4343L15.8343 27.0609C15.5367 27.3895 14.9863 27.3298 14.7929 26.9116L13.8556 24.9253L15.9979 25.3734C16.4294 25.463 16.6376 25.9707 16.3847 26.3441L23.02 31.586L29.6552 26.3441C29.4023 25.9857 29.5957 25.463 30.042 25.3734L32.1843 24.9253L31.2619 26.9265ZM24.6862 26.1649V27.0012H23.4663V27.9719L24.225 28.181L24.106 28.6141L23.4663 28.4349V29.1965H22.5736V28.181L21.8149 27.9719L21.9339 27.5388L22.5736 27.718V27.0012H21.3537V26.1649H22.5736V25.0149H23.4663V26.1649H24.6862ZM32.1992 23.8053H13.8556V17.0251H32.1992V23.8053ZM35.2936 13.6798L36.0375 10.4689C33.2555 10.1404 32.6901 10.9319 32.5414 11.2605C32.2587 11.8429 32.5116 12.6643 32.7496 13.2616C33.1811 13.2318 33.8803 13.2915 35.2936 13.6798ZM13.3349 13.2318C13.5581 12.6493 13.811 11.828 13.5283 11.2455C13.3795 10.917 12.8142 10.1404 10.047 10.4391L10.7909 13.6499C12.1894 13.2766 12.9035 13.2168 13.3349 13.2318ZM20.3569 45.8781C20.4016 44.6685 20.6842 43.8919 20.8628 43.5036C19.4643 42.5777 16.6674 41.8459 14.4804 42.3387C15.8194 42.6075 17.6344 43.8919 19.4494 45.221C19.8065 45.4749 20.1338 45.7139 20.3569 45.8781ZM31.6487 44.7879C32.3628 44.6087 32.7199 44.2503 32.705 43.6529C32.705 43.0705 32.4521 42.966 32.3628 42.9361C31.6339 42.6374 29.923 43.5783 28.6882 44.6834C29.7444 44.8925 30.8305 44.9821 31.6487 44.7879ZM13.6622 42.8763C13.4093 42.9958 13.2605 43.2646 13.2159 43.7127C13.1861 43.9815 13.2605 44.1906 13.439 44.3548C14.0044 44.8477 15.5367 44.9223 17.679 44.5789C16.3996 43.6977 14.9416 42.8017 14.049 42.8017C13.9002 42.8017 13.7812 42.8315 13.6622 42.8763ZM25.2367 43.4737C25.6383 43.7575 26.7839 44.2204 28.0633 44.549C28.7328 43.9068 29.551 43.2945 30.3247 42.8913C30.7412 42.6673 31.2619 42.4432 31.7677 42.3835C29.5808 41.816 26.6946 42.5329 25.2367 43.4737ZM23.0795 12.7688C25.2367 12.7688 27.26 13.1272 29.1047 13.7843C29.6701 12.9331 30.9495 10.7527 30.9495 8.54241C30.9495 6.1828 27.7807 4.88351 26.0252 4.82378C26.0252 4.82378 23.0348 10.3047 23.0348 10.3196L20.0445 4.82378C18.289 4.88351 15.1202 6.1828 15.1202 8.54241C15.1202 10.7676 16.4294 12.9928 16.9947 13.8142C18.8395 13.1422 20.8925 12.7688 23.0795 12.7688ZM24.9242 2.59857L23.0348 0L21.1306 2.59857L23.0348 6.91458L24.9242 2.59857ZM14.4209 20.1314C14.4209 20.1314 14.4804 20.1464 14.54 20.1762C14.4656 20.3405 14.4656 20.4002 14.5102 20.445C14.5548 20.4898 14.7482 20.46 15.0011 20.2509C15.2689 20.2509 15.3731 20.1464 15.626 19.9671C15.7004 19.9223 15.7748 19.8626 15.8789 19.7879C15.9682 19.7282 16.1021 19.7282 16.1764 19.8178C16.3103 19.9522 16.5037 20.1762 16.6971 20.4152C16.7418 20.4749 16.7864 20.5346 16.8459 20.6093C16.9352 20.7288 17.0096 20.8483 17.1137 20.9677C16.8757 21.1768 16.5484 21.4456 16.1764 21.7145C16.0128 21.8489 15.8492 21.9235 15.5367 21.9385C15.4177 21.9385 15.2689 22.0729 15.2392 22.2073C15.2243 22.282 15.2541 22.3566 15.3284 22.3865C15.4028 22.4313 15.5367 22.4462 15.6557 22.4462C15.8343 22.4462 16.0426 22.4164 16.1764 22.4014C16.2806 22.3865 17.203 21.9982 17.9022 21.6248C17.9766 21.6547 18.051 21.6995 18.1402 21.7294C17.9022 21.9235 17.5898 22.1774 17.2476 22.4462C17.084 22.5806 16.9203 22.6553 16.6079 22.6702C16.4889 22.6702 16.3401 22.8047 16.3103 22.9391C16.2955 23.0137 16.3252 23.0884 16.3996 23.1183C16.474 23.1631 16.6079 23.178 16.7269 23.178C16.9054 23.178 17.1137 23.1481 17.2476 23.1332C17.3815 23.1033 19.2114 22.3417 19.628 21.8937C19.747 21.8787 19.866 21.8638 19.985 21.8489C21.071 21.6846 21.8744 21.4008 22.5736 21.1619C23.2877 20.9229 23.8977 20.6989 24.5969 20.684C25.5788 20.6541 26.0549 21.2216 26.4715 21.7145C26.6202 21.8937 26.7541 22.0579 26.9029 22.1924C26.9773 22.2521 27.0666 22.3118 27.1409 22.3417L27.2004 22.3716C27.3492 22.4612 27.4236 22.5358 27.4534 22.6105C27.4385 22.6254 27.4236 22.6404 27.3939 22.6553C27.2302 22.73 27.1261 22.9391 27.1707 23.1033C27.2004 23.2228 27.2897 23.2826 27.4087 23.2826C27.4682 23.2826 27.7955 23.2826 28.0038 23.2676C28.108 23.2676 28.1823 23.2079 28.2419 23.1183C28.346 22.9391 28.3311 22.6553 28.2567 22.4313C28.465 22.4164 28.6435 22.4313 28.7626 22.506C28.9113 22.5956 28.9857 22.6702 29.0155 22.7449C29.0006 22.7599 28.9857 22.7748 28.956 22.7897C28.7923 22.8644 28.6882 23.0735 28.7328 23.2378C28.7626 23.3572 28.8518 23.417 28.9708 23.417C29.0303 23.417 29.3576 23.417 29.5659 23.402C29.6701 23.402 29.7444 23.3423 29.804 23.2527C29.923 23.0585 29.8932 22.73 29.804 22.506C29.6701 22.1774 29.3874 21.7443 29.1345 21.595C28.9708 21.5054 28.8965 21.5054 28.7774 21.5352L28.7328 21.5502C28.5543 21.58 28.4353 21.0275 28.3906 20.8333C28.3609 20.7288 28.3162 20.5944 28.2567 20.445C28.4353 20.5496 28.6882 20.684 29.0006 20.8333C29.5064 21.0723 30.1759 21.2664 30.7561 21.2664C30.9793 21.2664 31.1875 21.2366 31.3661 21.1768C31.5743 21.1021 31.7231 20.9677 31.7975 20.7885C31.9314 20.4002 31.7082 19.9373 31.6934 19.8925C31.6785 19.8477 31.6339 19.8178 31.5892 19.8178C31.5446 19.8029 31.5 19.8178 31.4702 19.8477C31.4702 19.8477 31.1131 20.1016 30.2056 20.0717C29.5957 20.0418 28.956 19.8477 28.2121 19.6087C27.6616 19.4295 27.0368 19.2354 26.3078 19.0711C24.4928 18.5932 22.1571 18.9217 20.4313 19.1607C19.985 19.2204 19.5833 19.2802 19.256 19.31C18.8246 19.3548 18.408 19.2354 18.0659 18.9815C17.8278 18.8023 17.6344 18.6529 17.4708 18.5036C17.1881 18.2646 16.9649 18.0854 16.7269 17.966C16.6972 17.8913 16.6674 17.8166 16.6376 17.7419C16.5781 17.5179 16.4294 17.4582 16.355 17.4283C16.236 17.3984 16.1169 17.4283 16.0277 17.5179C15.9533 17.5926 15.8789 17.7121 15.8045 17.8166C15.7153 17.8315 15.6409 17.8465 15.5367 17.8763C15.5219 17.8614 15.4921 17.8315 15.4772 17.8166C15.3136 17.6523 15.1648 17.6523 15.0904 17.6673C14.9714 17.6971 14.8821 17.7718 14.8375 17.8913C14.778 18.0556 14.7631 18.3094 14.778 18.4887C14.7036 18.6529 14.6739 18.8172 14.6292 18.9964C14.5995 19.1458 14.5697 19.2951 14.5102 19.4444C14.3912 19.7282 14.3168 19.9373 14.3168 19.9522C14.3168 20.0269 14.3466 20.1016 14.4209 20.1314ZM15.2838 18.9068C15.3731 18.8172 15.5219 18.8471 15.5962 18.862C15.6111 18.9516 15.626 19.086 15.5367 19.1756C15.4475 19.2652 15.2987 19.2354 15.2243 19.2204C15.2243 19.1607 15.1946 18.9964 15.2838 18.9068ZM37.3616 13.1571C37.5103 13.2318 37.6591 13.2467 37.8079 13.2318C38.1054 13.7395 38.4476 14.3519 38.7898 14.9492C38.3137 18.7425 38.76 21.7593 39.2212 24.9701C39.2361 25.0896 39.251 25.2091 39.2659 25.3136C39.0873 25.1344 38.7452 24.7611 38.5666 24.5818C37.8376 23.8053 38.4625 23.1929 38.1947 22.4164C38.0757 22.0729 37.8972 21.8041 37.7484 21.8787C37.6442 21.9235 37.5401 21.8787 37.5103 21.7593C37.3764 21.2664 37.1087 20.6392 36.2755 20.9827C36.2012 21.0125 36.1119 20.9976 36.0673 20.9229C35.8143 20.4898 35.1895 20.3853 34.8622 20.7139C34.4754 21.1021 34.6688 21.7891 35.0556 22.0878C35.13 22.1326 35.1597 22.2521 35.1151 22.3268C34.5795 23.178 35.487 23.5514 35.8887 23.641C35.9929 23.6708 36.0375 23.7754 36.0077 23.8949C35.9482 24.0741 35.9482 24.328 36.2309 24.5221C36.7219 24.8507 37.3764 24.5221 37.7335 24.8208C37.9418 24.9851 38.2393 25.3584 38.5369 25.7467C38.3583 25.8513 38.2096 25.9409 38.0608 26.0454C37.4806 26.4337 36.7516 26.8817 36.216 27.4492C35.487 28.3154 35.7251 29.3011 36.4541 30.5108C37.2426 29.8536 38.2542 29.3309 38.9386 28.8979C40.3816 27.9719 42.4198 27.0759 43.5059 25.7467C44.3985 24.6416 44.3241 23.7605 44.4431 21.0275C44.4431 20.9976 44.4431 20.9528 44.4431 20.9229C44.2348 21.5054 43.8332 22.1177 43.2976 22.6404C42.6727 23.2975 41.7355 23.9098 40.7982 24.4624C40.9916 23.9994 41.185 23.5514 41.3189 23.2527C41.3933 23.2378 41.4677 23.2228 41.5272 23.1929C41.9438 23.0287 42.1372 22.5508 41.9735 22.1475C41.8099 21.7294 41.3338 21.5352 40.9321 21.6995C40.5155 21.8638 40.3221 22.3417 40.4858 22.7449C40.5304 22.8345 40.5751 22.9241 40.6494 22.9988C40.5007 23.4319 40.2626 24.0442 40.0395 24.6266C39.8312 23.193 39.6229 21.7294 39.5188 20.2061C40.8577 20.6541 42.1669 21.2664 43.1042 22.1027C43.9224 21.2067 44.3092 20.0717 44.0117 19.325C43.2976 18.2198 41.9884 17.2192 40.3965 16.3829C41.6611 15.3973 42.3008 16.0693 42.8959 15.7855C43.2827 15.5914 43.3125 15.3076 43.2529 15.0986C43.2232 14.9642 43.2976 14.8447 43.4315 14.8298C43.9522 14.7551 44.9489 14.4564 44.5621 13.3961C44.5324 13.2915 44.577 13.187 44.6663 13.1272C45.187 12.8286 45.4845 12.0968 45.068 11.6189C44.6663 11.141 43.8778 11.3202 43.5207 11.7981C43.4612 11.8877 43.3422 11.9176 43.2381 11.8578C42.2562 11.3351 41.7652 12.1864 41.5867 12.6643C41.5421 12.7838 41.3933 12.8435 41.2743 12.7838C41.0957 12.6941 40.7982 12.6344 40.5751 12.9928C40.099 13.7993 40.5155 14.9791 39.5188 15.8751C39.608 14.8895 39.7568 13.874 39.9948 12.8286L40.0097 12.8136C40.099 12.5149 40.1585 12.1416 40.3073 11.9474C40.9619 11.126 42.0925 11.2903 42.4793 10.7676C42.762 10.3793 42.643 10.0956 42.4942 9.91637C42.4049 9.81183 42.4198 9.64755 42.5388 9.55795C43 9.22939 43.9968 8.25866 42.9405 7.58662C42.8364 7.52688 42.8364 7.37754 42.9108 7.273C43.2678 6.72043 43.2083 5.7945 42.5537 5.60036C41.9884 5.42115 41.2445 5.89904 41.1255 6.54122C41.0957 6.66069 41.0065 6.73536 40.8875 6.73536C39.6824 6.81004 39.6229 7.67623 39.6675 8.34827C39.6824 8.49761 39.5634 8.61709 39.4146 8.61709C39.1915 8.61709 38.8642 8.70669 38.8344 9.18459C38.7898 9.99104 39.2063 10.7378 39.2659 11.7234C39.2807 11.8728 39.251 12.0669 39.2212 12.2611C39.0873 12.8286 38.9832 13.3662 38.8939 13.9038C38.7005 13.5603 38.5071 13.2019 38.3435 12.8734C38.3583 12.8435 38.3881 12.7987 38.403 12.7688C38.5964 12.3656 38.4179 11.8728 38.0013 11.6786C37.5996 11.4845 37.1087 11.6637 36.9153 12.0818C36.7665 12.4701 36.945 12.963 37.3616 13.1571ZM45.0531 31.9892C45.6928 31.601 46.4515 30.9886 45.663 29.9582C45.5738 29.8536 45.5738 29.7342 45.663 29.6296C46.1689 29.1219 46.0647 28.1959 45.5143 27.8524C44.8597 27.4492 43.9819 27.9869 43.729 28.644C43.6844 28.7634 43.5505 28.8381 43.4166 28.8082C41.8694 28.4498 42.1818 30.6302 41.6908 31.0335C40.8577 31.7802 41.4677 33.0197 41.3338 33.6619C41.2148 34.2593 40.7833 34.8118 40.5304 35.2449C40.8726 32.8106 40.7833 30.5705 40.5602 28.42C40.2626 28.5842 39.98 28.7485 39.6973 28.9128C39.8312 30.2121 39.8907 31.5114 39.8609 32.8405C39.5783 32.3626 39.3105 31.9146 39.1171 31.5711C39.1617 31.4964 39.1915 31.4217 39.2063 31.3321C39.2956 30.899 39.0278 30.466 38.5815 30.3763C38.1501 30.2867 37.7186 30.5556 37.6294 31.0036C37.5401 31.4367 37.8079 31.8698 38.2542 31.9594C38.3286 31.9743 38.4179 31.9743 38.4922 31.9743C38.8493 32.4821 39.3402 33.2437 39.7866 33.9606C39.6675 35.4241 39.3997 36.9325 38.8939 38.5902C38.3732 40.3375 37.4062 41.6816 36.0375 42.6523C36.2904 42.3088 36.4541 41.9056 36.5285 41.4128C36.6921 40.3076 37.436 40.7109 37.5996 39.8447C37.674 39.4713 37.436 39.322 37.2574 39.2772C37.1384 39.2473 37.0789 39.1278 37.1235 39.0084C37.3021 38.5006 37.436 37.7987 36.4987 37.4851C36.4094 37.4552 36.3499 37.3656 36.3499 37.276C36.3946 36.7383 35.9036 36.2007 35.4275 36.2306C34.8771 36.2455 34.6242 36.9624 34.7878 37.4851C34.8176 37.5747 34.7878 37.6941 34.6986 37.724C33.7167 38.0227 34.2969 39.0084 34.5944 39.3668C34.6688 39.4564 34.6539 39.5908 34.5498 39.6505C34.401 39.7551 34.2374 39.9642 34.3861 40.3226C34.6242 40.9498 35.5317 40.6213 35.7697 41.0992C35.859 41.2784 35.9185 42.6225 34.2374 43.5783C33.8208 43.8172 33.4786 43.9367 33.1662 44.0263V44.0412C33.1513 44.0263 33.1513 44.0263 33.1513 44.0263C33.0621 44.534 32.7199 45.0269 31.738 45.2658C30.042 45.684 26.8731 44.9223 25.3706 44.1458C25.4747 44.5938 25.564 45.221 25.5491 46.132C25.5491 46.2814 25.0135 46.819 25.0135 46.819C25.1325 44.9373 24.7457 43.8172 24.6416 43.638C24.6267 43.6231 24.6118 43.5932 24.5969 43.5783C24.5523 43.5633 24.5226 43.5484 24.4779 43.5484C23.4811 43.5484 21.9339 43.5484 21.5174 43.5484C21.4727 43.5484 21.4132 43.5633 21.3686 43.5932C21.1901 43.9217 20.8033 44.8775 20.8479 46.7294C20.8479 46.7294 20.3718 46.5352 19.4643 45.8781C19.1965 45.684 18.5568 45.2061 18.2295 44.9671C16.355 45.3106 13.9746 45.5496 13.0522 44.6983C12.8142 44.4892 12.6952 44.2204 12.6654 43.9217C12.6654 43.8919 12.6654 43.862 12.6654 43.8471C12.353 43.7575 12.0555 43.6679 11.7579 43.5484C10.0917 42.5627 10.1363 41.2336 10.2256 41.0693C10.4636 40.5914 11.3711 40.92 11.6091 40.2927C11.743 39.9194 11.5943 39.7252 11.4455 39.6207C11.3562 39.5609 11.3265 39.4265 11.4009 39.3369C11.6984 38.9785 12.2786 37.9928 11.2967 37.6941C11.2075 37.6643 11.1777 37.5448 11.2075 37.4552C11.3711 36.9325 11.1331 36.2306 10.5677 36.2007C10.0917 36.1858 9.60073 36.7234 9.64536 37.2461C9.64536 37.3507 9.58585 37.4253 9.49659 37.4552C8.55933 37.7688 8.7081 38.4707 8.87175 38.9785C8.91638 39.098 8.85687 39.2174 8.73785 39.2473C8.55933 39.2921 8.32129 39.4415 8.39568 39.8148C8.5742 40.681 9.30319 40.2778 9.46683 41.3829C9.54122 41.8757 9.70487 42.279 9.95778 42.6225C8.5742 41.6667 7.63694 40.3076 7.10136 38.5603C6.61041 36.9176 6.34262 35.3943 6.20873 33.9307C6.65504 33.1989 7.14599 32.4522 7.50304 31.9444C7.57743 31.9444 7.66669 31.9444 7.74108 31.9295C8.17252 31.8399 8.45518 31.4068 8.36592 30.9737C8.27666 30.5406 7.84522 30.2569 7.41378 30.3465C6.98234 30.4361 6.69968 30.8692 6.78894 31.3023C6.80382 31.3919 6.83357 31.4665 6.8782 31.5412C6.6848 31.8996 6.41701 32.3477 6.13434 32.8106C6.08971 31.5114 6.1641 30.1971 6.28311 28.9128C6.01533 28.7485 5.73266 28.5992 5.44999 28.4349C5.21196 30.6004 5.12269 32.8405 5.46487 35.2897C5.21196 34.8417 4.78052 34.3041 4.6615 33.7067C4.52761 33.0496 5.13757 31.81 4.30445 31.0783C3.8135 30.6452 4.12592 28.4946 2.57869 28.853C2.4448 28.8829 2.3109 28.7933 2.26627 28.6888C2.01336 28.0317 1.13561 27.494 0.481009 27.8973C-0.0843243 28.2407 -0.173588 29.1517 0.332237 29.6744C0.4215 29.764 0.4215 29.8984 0.347114 30.003C-0.441377 31.0335 0.31736 31.6458 0.957079 32.034C1.10585 32.1237 1.13561 32.2879 1.03147 32.4074C0.867816 32.5866 0.719044 32.9152 1.13561 33.2437C1.86459 33.8262 2.93575 33.6768 3.70936 34.2294C4.28957 34.6476 4.58711 35.3495 5.03343 35.9468C4.75076 36.2605 4.51273 36.589 4.30445 36.9624C4.02178 37.6941 4.28957 38.5902 5.10782 39.6953C5.39048 39.322 5.76241 38.9785 6.17897 38.635C6.19385 38.7097 6.22361 38.7844 6.23848 38.8441C6.80382 40.7557 7.87497 42.264 9.37757 43.3244C7.41378 42.6971 5.77729 41.7115 4.78052 40.1284C4.31933 39.5161 3.99203 38.9486 3.8135 38.411C3.69448 39.2772 3.75399 40.3226 4.09617 41.6517C5.03343 45.4152 8.54445 46.9982 13.2308 47.2073C14.1829 49.0591 17.0393 48.3274 19.1073 47.7449C19.9255 48.5663 20.595 50 20.595 50C21.443 49.5818 22.0976 48.8949 22.5885 48.2378C23.2282 48.7754 24.3143 49.4624 25.9954 49.9253C25.9954 49.9253 25.9954 48.7306 26.3524 47.5508C28.4948 48.2228 31.3214 48.9845 32.348 47.2073C37.1979 47.0579 40.8577 45.4898 41.8247 41.6368C42.1669 40.2927 42.2264 39.2622 42.1074 38.3961C41.9289 38.9337 41.6016 39.5012 41.1404 40.1135C40.1436 41.6965 38.4774 42.6971 36.4987 43.3094C38.0162 42.2342 39.1171 40.7258 39.6824 38.8441C39.7122 38.7694 39.7271 38.6798 39.7568 38.6051C40.1585 38.9486 40.5304 39.2921 40.828 39.6655C41.6462 38.5454 41.914 37.6493 41.6313 36.9325C41.4379 36.5591 41.185 36.2157 40.9023 35.917C41.3338 35.3196 41.6313 34.6326 42.2115 34.2294C43 33.6768 44.0712 33.8262 44.7853 33.2437C45.2019 32.9152 45.0531 32.6016 44.8894 32.4074C44.8746 32.2581 44.9043 32.0789 45.0531 31.9892ZM1.38852 13.1422C1.47778 13.2019 1.52241 13.3065 1.49266 13.411C1.12073 14.4713 2.1175 14.77 2.62333 14.8447C2.75722 14.8596 2.83161 14.994 2.80185 15.1135C2.75722 15.3226 2.7721 15.6063 3.1589 15.8005C3.75399 16.0992 4.39371 15.4271 5.6434 16.3829C4.06641 17.2043 2.75722 18.2198 2.04311 19.31C1.74557 20.0717 2.13238 21.2067 2.95062 22.0878C3.88789 21.2664 5.1822 20.6392 6.53603 20.1912C6.43189 21.7294 6.22361 23.193 6.01533 24.6416C5.79217 24.0591 5.55413 23.4468 5.40536 23.0137C5.46487 22.9391 5.52438 22.8644 5.56901 22.7599C5.73266 22.3417 5.53926 21.8787 5.12269 21.7145C4.70613 21.5502 4.24494 21.7443 4.08129 22.1625C3.91764 22.5806 4.11104 23.0436 4.52761 23.2079C4.60199 23.2378 4.67638 23.2527 4.73589 23.2676C4.88466 23.5663 5.06319 23.9994 5.25659 24.4624C4.30445 23.9098 3.38206 23.2975 2.75722 22.6404C2.22164 22.1177 1.83483 21.5054 1.61168 20.9229C1.61168 20.9528 1.61168 20.9976 1.61168 21.0275C1.73069 23.7605 1.65631 24.6416 2.54894 25.7467C3.63497 27.0908 5.67315 27.9719 7.11624 28.8979C7.81547 29.3309 8.82712 29.8536 9.60073 30.5108C10.3297 29.2861 10.5677 28.3005 9.83876 27.4492C9.30318 26.8817 8.5742 26.4337 7.99399 26.0454C7.84522 25.9409 7.66669 25.8363 7.48817 25.7318C7.78571 25.3286 8.09813 24.9403 8.32129 24.761C8.67834 24.4773 9.33294 24.7909 9.82389 24.4624C10.1066 24.2682 10.1066 24.0143 10.047 23.8351C10.0173 23.7306 10.0619 23.6111 10.1661 23.5812C10.5677 23.4916 11.4753 23.1033 10.9397 22.267C10.895 22.1924 10.9248 22.0729 10.9992 22.0281C11.386 21.7443 11.5794 21.0424 11.1926 20.6691C10.8653 20.3554 10.2404 20.445 9.98754 20.8781C9.9429 20.9528 9.85364 20.9827 9.77925 20.9379C8.96101 20.5795 8.69322 21.2067 8.54445 21.7145C8.51469 21.8339 8.41055 21.8787 8.30641 21.8339C8.15764 21.7593 7.96424 22.0131 7.8601 22.3716C7.59231 23.1481 8.23203 23.7605 7.48817 24.537C7.30964 24.7312 6.96747 25.0896 6.78894 25.2688C6.80382 25.1493 6.81869 25.0448 6.83357 24.9253C7.29476 21.7443 7.74108 18.6977 7.26501 14.9044C7.59231 14.307 7.93448 13.6947 8.2469 13.187C8.39568 13.2019 8.54445 13.187 8.69322 13.1123C9.0949 12.9182 9.27343 12.4403 9.0949 12.0221C8.9015 11.6189 8.42543 11.4397 8.00887 11.6189C7.59231 11.7981 7.42866 12.2909 7.60718 12.7091C7.62206 12.7389 7.65182 12.7838 7.66669 12.8136C7.50305 13.1272 7.29476 13.4857 7.11624 13.8441C7.02697 13.3065 6.92283 12.7539 6.78894 12.2013C6.75918 12.0072 6.72943 11.828 6.74431 11.6637C6.80382 10.6631 7.22038 9.91637 7.17575 9.12485C7.14599 8.64695 6.81869 8.55735 6.59554 8.55735C6.44676 8.55735 6.34262 8.43787 6.34262 8.28853C6.38726 7.63142 6.32775 6.7503 5.12269 6.67563C5.00368 6.67563 4.89954 6.58602 4.88466 6.48148C4.76564 5.83931 4.0069 5.36141 3.45645 5.54062C2.80185 5.7497 2.74234 6.66069 3.0994 7.21326C3.1589 7.3178 3.1589 7.46714 3.06964 7.52688C2.01336 8.18399 3.01013 9.15472 3.47133 9.49821C3.59034 9.58781 3.60522 9.75209 3.51596 9.85663C3.36718 10.0358 3.24817 10.3196 3.53083 10.7079C3.91764 11.2455 5.04831 11.0663 5.7029 11.8877C5.85168 12.0818 5.89631 12.4552 6.00045 12.7539C6.00045 12.7688 6.01533 12.7688 6.01533 12.7688C6.25336 13.8292 6.40213 14.8447 6.4914 15.8154C5.49462 14.9044 5.91119 13.7246 5.43511 12.9331C5.21196 12.5597 4.91441 12.6195 4.73589 12.724C4.63175 12.7838 4.48297 12.7389 4.43834 12.6045C4.24494 12.1266 3.76887 11.2754 2.78697 11.7981C2.69771 11.8429 2.57869 11.828 2.50431 11.7384C2.16213 11.3351 1.38852 11.1708 0.971956 11.6338C0.585149 12.1117 0.867816 12.8435 1.38852 13.1422ZM16.4442 29.5848C16.5633 29.6595 16.6228 29.779 16.6525 29.8387C16.5633 29.9134 16.4889 30.003 16.4145 30.1225C16.3401 30.2419 16.3103 30.3465 16.2806 30.466C16.2211 30.466 16.0723 30.466 15.9533 30.4062C15.8343 30.3315 15.864 30.1374 15.9087 30.0329L16.2806 30.0478L16.0872 29.7192C16.1616 29.6296 16.3252 29.5102 16.4442 29.5848ZM15.9533 29.7043L16.1169 29.9283L15.8343 29.8984L15.7599 29.7192L15.9533 29.7043ZM18.5866 31.4217C17.9915 31.7503 18.0956 31.81 17.8278 31.2425C17.7832 31.2575 17.7237 31.2724 17.6642 31.2873C17.7088 32.0789 17.3666 32.4074 15.8194 31.7503L16.8906 31.0185C16.8906 31.0185 17.0691 31.4367 17.1881 31.2276C17.3815 30.899 16.474 30.6601 16.474 31.138C16.474 31.138 16.0723 31.0036 16.2657 30.6302C16.4889 30.2121 17.0542 30.4958 17.0542 30.4958C17.0542 30.4958 16.5335 30.1374 16.8013 29.7342C17.0393 29.3757 17.3517 29.6744 17.3517 29.6744C16.9203 29.8984 17.56 30.5854 17.7683 30.2569C17.8873 30.0478 17.441 30.0926 17.441 30.0926L17.5749 28.7933C18.8841 29.8536 18.7502 30.3017 18.0361 30.6452C18.051 30.7049 18.0659 30.7646 18.0659 30.8244C18.6907 30.7945 18.6014 30.7497 18.5866 31.4217ZM28.4055 31.2873C28.3311 31.2724 28.2865 31.2575 28.2419 31.2425C27.9889 31.81 28.0782 31.7503 27.4831 31.4217C27.4831 30.7497 27.379 30.7945 28.0038 30.8393C28.0038 30.7945 28.0187 30.7348 28.0336 30.6601C27.3195 30.3166 27.1856 29.8686 28.4948 28.8082L28.6287 30.1075C28.6287 30.1075 28.1675 30.0627 28.3014 30.2718C28.4948 30.6004 29.1494 29.9134 28.7179 29.6894C28.7179 29.6894 29.0303 29.3907 29.2684 29.7491C29.5213 30.1374 29.0155 30.5108 29.0155 30.5108C29.0155 30.5108 29.5808 30.227 29.804 30.6452C29.9974 31.0185 29.5957 31.1529 29.5957 31.1529C29.5957 30.6601 28.6882 30.914 28.8816 31.2425C29.0006 31.4516 29.1791 31.0335 29.1791 31.0335L30.2503 31.7652C28.6882 32.4074 28.3609 32.0789 28.4055 31.2873ZM30.3098 29.7192L30.2354 29.8984L29.9527 29.9283L30.1164 29.7043L30.3098 29.7192ZM29.9676 29.7192L29.7742 30.0478L30.1461 30.0329C30.1908 30.1225 30.2205 30.3315 30.1015 30.4062C29.9825 30.4809 29.8337 30.4809 29.7742 30.466C29.7444 30.3465 29.6998 30.227 29.6403 30.1225C29.5808 30.0179 29.4915 29.9134 29.4023 29.8387C29.432 29.779 29.5064 29.6446 29.6106 29.5848C29.7444 29.5102 29.9081 29.6296 29.9676 29.7192Z" fill="white"/>
</svg>
