<svg width="24" height="15" viewBox="0 0 24 15" fill="none" xmlns="http://www.w3.org/2000/svg">
<g id="Menu-button" clip-path="url(#clip0_110_922)">
<path id="Vector" d="M1 2.33335H23C23.2652 2.33335 23.5196 2.19989 23.7071 1.96235C23.8946 1.7248 24 1.40262 24 1.06668C24 0.730742 23.8946 0.408562 23.7071 0.171016C23.5196 -0.0665297 23.2652 -0.199982 23 -0.199982H1C0.734784 -0.199982 0.48043 -0.0665297 0.292893 0.171016C0.105357 0.408562 0 0.730742 0 1.06668C0 1.40262 0.105357 1.7248 0.292893 1.96235C0.48043 2.19989 0.734784 2.33335 1 2.33335Z" fill="#0260A2"/>
<path id="Vector_2" d="M23 6.13333H1C0.734784 6.13333 0.48043 6.26678 0.292893 6.50433C0.105357 6.74187 0 7.06406 0 7.4C0 7.73594 0.105357 8.05812 0.292893 8.29566C0.48043 8.53321 0.734784 8.66666 1 8.66666H23C23.2652 8.66666 23.5196 8.53321 23.7071 8.29566C23.8946 8.05812 24 7.73594 24 7.4C24 7.06406 23.8946 6.74187 23.7071 6.50433C23.5196 6.26678 23.2652 6.13333 23 6.13333Z" fill="#0260A2"/>
<path id="Vector_3" d="M23 12.4667H1C0.734784 12.4667 0.48043 12.6002 0.292893 12.8377C0.105357 13.0753 0 13.3974 0 13.7334C0 14.0693 0.105357 14.3915 0.292893 14.6291C0.48043 14.8666 0.734784 15.0001 1 15.0001H23C23.2652 15.0001 23.5196 14.8666 23.7071 14.6291C23.8946 14.3915 24 14.0693 24 13.7334C24 13.3974 23.8946 13.0753 23.7071 12.8377C23.5196 12.6002 23.2652 12.4667 23 12.4667Z" fill="#0260A2"/>
</g>
<defs>
<clipPath id="clip0_110_922">
<rect width="24" height="15" fill="white"/>
</clipPath>
</defs>
</svg>
