<svg width="170" height="36" viewBox="0 0 170 36" fill="none" xmlns="http://www.w3.org/2000/svg">
<path d="M5.9535 2.208C5.35617 2.208 4.83883 2.32 4.4015 2.544C3.97483 2.768 3.62283 3.06667 3.3455 3.44C3.06817 3.81333 2.86017 4.25067 2.7215 4.752C2.5935 5.24267 2.5295 5.76 2.5295 6.304C2.5295 6.85867 2.59883 7.38667 2.7375 7.888C2.87617 8.38933 3.08417 8.832 3.3615 9.216C3.6495 9.58933 4.01217 9.888 4.4495 10.112C4.88683 10.336 5.40417 10.448 6.0015 10.448C6.7375 10.448 7.35083 10.288 7.8415 9.968C8.34283 9.648 8.6575 9.216 8.7855 8.672H10.6415C10.5562 9.216 10.3748 9.70133 10.0975 10.128C9.83083 10.5547 9.49483 10.9173 9.0895 11.216C8.68417 11.504 8.21483 11.728 7.6815 11.888C7.14817 12.0373 6.5775 12.112 5.9695 12.112C5.08417 12.112 4.3055 11.968 3.6335 11.68C2.97217 11.392 2.4175 10.992 1.9695 10.48C1.5215 9.968 1.1855 9.36 0.9615 8.656C0.7375 7.952 0.6255 7.17867 0.6255 6.336C0.6255 5.51467 0.7375 4.752 0.9615 4.048C1.19617 3.33333 1.5375 2.72 1.9855 2.208C2.4335 1.68533 2.98817 1.28 3.6495 0.992C4.3215 0.693333 5.10017 0.544 5.9855 0.544C7.2335 0.544 8.26283 0.837333 9.0735 1.424C9.88417 2.01067 10.3748 2.87467 10.5455 4.016H8.7215C8.58283 3.46133 8.2735 3.024 7.7935 2.704C7.3135 2.37333 6.70017 2.208 5.9535 2.208ZM19.0524 3.568V5.152H16.2044V12H14.3964V5.152H11.5484V3.568H19.0524ZM25.5414 10.96C25.264 11.3547 24.896 11.648 24.4374 11.84C23.9787 12.0213 23.4667 12.112 22.9014 12.112C22.4534 12.112 22.0427 12.0587 21.6694 11.952C21.3067 11.8453 20.9867 11.6853 20.7094 11.472C20.432 11.248 20.2134 10.976 20.0534 10.656C19.8934 10.3253 19.8134 9.952 19.8134 9.536C19.8134 9.07733 19.904 8.688 20.0854 8.368C20.2667 8.03733 20.512 7.77067 20.8214 7.568C21.1414 7.36533 21.5147 7.216 21.9414 7.12C22.368 7.01333 22.816 6.96 23.2854 6.96H25.4454C25.4454 6.34133 25.3067 5.86133 25.0294 5.52C24.752 5.17867 24.2667 5.00267 23.5734 4.992C23.168 4.992 22.816 5.06133 22.5174 5.2C22.2294 5.33867 22.0374 5.568 21.9414 5.888H20.0694C20.1334 5.44 20.2774 5.06133 20.5014 4.752C20.736 4.44267 21.0134 4.18667 21.3334 3.984C21.664 3.78133 22.0267 3.63733 22.4214 3.552C22.8267 3.46667 23.232 3.424 23.6374 3.424C24.16 3.424 24.6454 3.49333 25.0934 3.632C25.5414 3.77067 25.9307 4.00533 26.2614 4.336C26.6347 4.72 26.8854 5.17867 27.0134 5.712C27.1414 6.24533 27.2054 6.82667 27.2054 7.456V12H25.6214L25.5414 10.96ZM25.4454 8.256H23.6854C23.376 8.256 23.0667 8.28267 22.7574 8.336C22.448 8.37867 22.1814 8.49067 21.9574 8.672C21.744 8.84267 21.6374 9.09333 21.6374 9.424C21.6374 9.82933 21.7814 10.1387 22.0694 10.352C22.368 10.5547 22.7307 10.656 23.1574 10.656C23.488 10.656 23.792 10.6133 24.0694 10.528C24.3574 10.4427 24.6027 10.304 24.8054 10.112C25.008 9.90933 25.1627 9.65867 25.2694 9.36C25.3867 9.05067 25.4454 8.68267 25.4454 8.256ZM30.9879 15.28H29.1639V3.568H30.8919L30.9879 4.768C31.2972 4.33067 31.6972 4 32.1879 3.776C32.6892 3.54133 33.2119 3.424 33.7559 3.424C34.3319 3.424 34.8492 3.53067 35.3079 3.744C35.7665 3.94667 36.1559 4.23467 36.4759 4.608C36.8065 4.98133 37.0519 5.43467 37.2119 5.968C37.3825 6.49067 37.4679 7.088 37.4679 7.76C37.4679 8.38933 37.3879 8.97067 37.2279 9.504C37.0679 10.0373 36.8279 10.5013 36.5079 10.896C36.1985 11.28 35.8092 11.5787 35.3399 11.792C34.8812 12.0053 34.3212 12.112 33.6599 12.112C33.1479 12.112 32.6572 12.032 32.1879 11.872C31.7292 11.7013 31.3292 11.424 30.9879 11.04V15.28ZM33.3719 10.528C33.7665 10.528 34.1079 10.4587 34.3959 10.32C34.6839 10.1707 34.9185 9.97333 35.0999 9.728C35.2919 9.48267 35.4305 9.19467 35.5159 8.864C35.6119 8.53333 35.6599 8.176 35.6599 7.792C35.6599 7.408 35.6119 7.05067 35.5159 6.72C35.4305 6.37867 35.2919 6.08533 35.0999 5.84C34.9185 5.59467 34.6785 5.40267 34.3799 5.264C34.0919 5.12533 33.7452 5.056 33.3399 5.056C32.9772 5.056 32.6412 5.13067 32.3319 5.28C32.0332 5.42933 31.7825 5.62667 31.5799 5.872C31.3772 6.11733 31.2225 6.41067 31.1159 6.752C31.0199 7.08267 30.9719 7.424 30.9719 7.776C30.9719 8.16 31.0199 8.52267 31.1159 8.864C31.2119 9.19467 31.3559 9.48267 31.5479 9.728C31.7505 9.96267 32.0012 10.1547 32.2999 10.304C32.5985 10.4533 32.9559 10.528 33.3719 10.528ZM45.6461 3.568V5.152H42.7981V12H40.9901V5.152H38.1421V3.568H45.6461ZM50.4871 3.424C51.1591 3.424 51.7511 3.53067 52.2631 3.744C52.7751 3.95733 53.2071 4.256 53.5591 4.64C53.9218 5.01333 54.1938 5.46667 54.3751 6C54.5565 6.53333 54.6471 7.12533 54.6471 7.776C54.6471 8.43733 54.5565 9.03467 54.3751 9.568C54.2045 10.0907 53.9431 10.544 53.5911 10.928C53.2391 11.312 52.8018 11.6053 52.2791 11.808C51.7671 12.0107 51.1698 12.112 50.4871 12.112C49.8151 12.112 49.2231 12.0107 48.7111 11.808C48.1991 11.5947 47.7671 11.3013 47.4151 10.928C47.0738 10.544 46.8125 10.0853 46.6311 9.552C46.4605 9.01867 46.3751 8.42667 46.3751 7.776C46.3751 7.12533 46.4605 6.53333 46.6311 6C46.8125 5.46667 47.0791 5.01333 47.4311 4.64C47.7831 4.256 48.2151 3.95733 48.7271 3.744C49.2391 3.53067 49.8258 3.424 50.4871 3.424ZM50.4871 10.528C50.9031 10.528 51.2551 10.4587 51.5431 10.32C51.8418 10.1707 52.0818 9.97333 52.2631 9.728C52.4551 9.48267 52.5938 9.19467 52.6791 8.864C52.7751 8.53333 52.8231 8.176 52.8231 7.792C52.8231 7.408 52.7751 7.05067 52.6791 6.72C52.5938 6.37867 52.4551 6.08533 52.2631 5.84C52.0818 5.59467 51.8418 5.40267 51.5431 5.264C51.2551 5.12533 50.9031 5.056 50.4871 5.056C50.0818 5.056 49.7298 5.12533 49.4311 5.264C49.1431 5.40267 48.9031 5.59467 48.7111 5.84C48.5298 6.08533 48.3911 6.37867 48.2951 6.72C48.2098 7.05067 48.1671 7.408 48.1671 7.792C48.1671 8.176 48.2098 8.53333 48.2951 8.864C48.3911 9.19467 48.5298 9.48267 48.7111 9.728C48.9031 9.97333 49.1431 10.1707 49.4311 10.32C49.7298 10.4587 50.0818 10.528 50.4871 10.528ZM56.3045 3.568H59.9045C60.2778 3.568 60.6565 3.58933 61.0405 3.632C61.4245 3.664 61.7712 3.75467 62.0805 3.904C62.4005 4.05333 62.6565 4.272 62.8485 4.56C63.0512 4.83733 63.1578 5.216 63.1685 5.696C63.1685 6.06933 63.0832 6.416 62.9125 6.736C62.7418 7.056 62.4698 7.31733 62.0965 7.52C62.6085 7.65867 62.9818 7.904 63.2165 8.256C63.4618 8.59733 63.5845 9.008 63.5845 9.488C63.5845 9.936 63.4938 10.3253 63.3125 10.656C63.1312 10.976 62.8912 11.2373 62.5925 11.44C62.2938 11.632 61.9472 11.776 61.5525 11.872C61.1578 11.9573 60.7418 12 60.3045 12H56.3045V3.568ZM58.1445 5.088V7.024H59.2485C59.4938 7.024 59.7445 7.024 60.0005 7.024C60.2672 7.01333 60.5018 6.976 60.7045 6.912C60.9178 6.848 61.0885 6.74667 61.2165 6.608C61.3552 6.46933 61.4245 6.272 61.4245 6.016C61.4245 5.792 61.3712 5.62133 61.2645 5.504C61.1685 5.376 61.0458 5.28 60.8965 5.216C60.7472 5.152 60.5765 5.11467 60.3845 5.104C60.2032 5.09333 60.0325 5.088 59.8725 5.088H58.1445ZM60.0005 10.464C60.2138 10.464 60.4218 10.4533 60.6245 10.432C60.8378 10.4107 61.0245 10.3627 61.1845 10.288C61.3552 10.2027 61.4938 10.096 61.6005 9.968C61.7072 9.82933 61.7605 9.648 61.7605 9.424C61.7605 9.01867 61.6325 8.74667 61.3765 8.608C61.1312 8.46933 60.8272 8.4 60.4645 8.4H58.1445V10.464H60.0005ZM70.7133 10.96C70.4359 11.3547 70.0679 11.648 69.6093 11.84C69.1506 12.0213 68.6386 12.112 68.0733 12.112C67.6253 12.112 67.2146 12.0587 66.8413 11.952C66.4786 11.8453 66.1586 11.6853 65.8813 11.472C65.6039 11.248 65.3853 10.976 65.2253 10.656C65.0653 10.3253 64.9853 9.952 64.9853 9.536C64.9853 9.07733 65.0759 8.688 65.2573 8.368C65.4386 8.03733 65.6839 7.77067 65.9933 7.568C66.3133 7.36533 66.6866 7.216 67.1133 7.12C67.5399 7.01333 67.9879 6.96 68.4573 6.96H70.6173C70.6173 6.34133 70.4786 5.86133 70.2013 5.52C69.9239 5.17867 69.4386 5.00267 68.7453 4.992C68.3399 4.992 67.9879 5.06133 67.6893 5.2C67.4013 5.33867 67.2093 5.568 67.1133 5.888H65.2413C65.3053 5.44 65.4493 5.06133 65.6733 4.752C65.9079 4.44267 66.1853 4.18667 66.5053 3.984C66.8359 3.78133 67.1986 3.63733 67.5933 3.552C67.9986 3.46667 68.4039 3.424 68.8093 3.424C69.3319 3.424 69.8173 3.49333 70.2653 3.632C70.7133 3.77067 71.1026 4.00533 71.4333 4.336C71.8066 4.72 72.0573 5.17867 72.1853 5.712C72.3133 6.24533 72.3773 6.82667 72.3773 7.456V12H70.7933L70.7133 10.96ZM70.6173 8.256H68.8573C68.5479 8.256 68.2386 8.28267 67.9293 8.336C67.6199 8.37867 67.3533 8.49067 67.1293 8.672C66.9159 8.84267 66.8093 9.09333 66.8093 9.424C66.8093 9.82933 66.9533 10.1387 67.2413 10.352C67.5399 10.5547 67.9026 10.656 68.3293 10.656C68.6599 10.656 68.9639 10.6133 69.2413 10.528C69.5293 10.4427 69.7746 10.304 69.9773 10.112C70.1799 9.90933 70.3346 9.65867 70.4413 9.36C70.5586 9.05067 70.6173 8.68267 70.6173 8.256ZM81.2478 12H79.4398V9.12H77.9198L75.9518 12H73.8078L76.0958 8.832C75.4451 8.672 74.9491 8.37867 74.6078 7.952C74.2771 7.52533 74.1118 6.98133 74.1118 6.32C74.1118 5.79733 74.1971 5.36 74.3678 5.008C74.5491 4.656 74.7944 4.37333 75.1038 4.16C75.4238 3.936 75.7864 3.78133 76.1918 3.696C76.5971 3.61067 77.0344 3.568 77.5038 3.568H81.2478V12ZM79.4398 5.088H77.6318C77.4291 5.088 77.2264 5.104 77.0238 5.136C76.8211 5.15733 76.6344 5.216 76.4638 5.312C76.3038 5.39733 76.1758 5.52 76.0798 5.68C75.9838 5.84 75.9358 6.032 75.9358 6.256C75.9358 6.288 75.9358 6.31467 75.9358 6.336C75.9358 6.61333 76.0158 6.848 76.1758 7.04C76.3358 7.232 76.5438 7.37067 76.7998 7.456C77.0558 7.53067 77.2904 7.57867 77.5038 7.6C77.7171 7.61067 77.9304 7.616 78.1438 7.616H79.4398V5.088ZM88.3385 7.984C88.3918 7.25867 88.4238 6.53867 88.4345 5.824C88.4558 5.09867 88.4772 4.34667 88.4985 3.568H94.8025V12H92.9625V5.152H90.1945C90.1732 5.67467 90.1518 6.19733 90.1305 6.72C90.1198 7.232 90.0985 7.744 90.0665 8.256C90.0558 8.448 90.0345 8.67733 90.0025 8.944C89.9812 9.2 89.9492 9.46133 89.9065 9.728C89.8638 9.984 89.7998 10.2293 89.7145 10.464C89.6292 10.688 89.5225 10.896 89.3945 11.088C89.1705 11.408 88.8718 11.6427 88.4985 11.792C88.1358 11.9307 87.7145 12 87.2345 12H86.7865V10.432C87.1065 10.432 87.3625 10.3573 87.5545 10.208C87.7572 10.048 87.9065 9.85067 88.0025 9.616C88.1092 9.37067 88.1838 9.10933 88.2265 8.832C88.2798 8.544 88.3172 8.26133 88.3385 7.984ZM98.4849 12H96.7889V3.568H98.6129V9.36L102.901 3.568H104.549V12H102.725V6.32C102.714 6.34133 101.301 8.23467 98.4849 12ZM107.451 6.576C107.483 6.064 107.504 5.568 107.515 5.088C107.526 4.59733 107.531 4.09067 107.531 3.568H114.027V10.448H115.131V14.464H113.355V12H107.595V14.464H105.819V10.448C106.128 10.448 106.384 10.352 106.587 10.16C106.8 9.95733 106.944 9.73333 107.019 9.488C107.094 9.31733 107.158 9.088 107.211 8.8C107.264 8.50133 107.307 8.208 107.339 7.92C107.371 7.632 107.398 7.36533 107.419 7.12C107.44 6.87467 107.451 6.69333 107.451 6.576ZM112.203 5.152H109.195C109.174 5.536 109.158 5.952 109.147 6.4C109.136 6.848 109.12 7.28 109.099 7.696C109.078 7.89867 109.056 8.11733 109.035 8.352C109.024 8.58667 108.998 8.82667 108.955 9.072C108.912 9.30667 108.854 9.54133 108.779 9.776C108.704 10.0107 108.603 10.2347 108.475 10.448H112.203V5.152ZM117.902 8.4C117.924 8.70933 117.988 8.99733 118.094 9.264C118.201 9.53067 118.345 9.76533 118.526 9.968C118.708 10.16 118.932 10.3147 119.198 10.432C119.476 10.5493 119.796 10.608 120.158 10.608C120.542 10.608 120.894 10.5387 121.214 10.4C121.545 10.2613 121.785 10.0213 121.934 9.68H123.806C123.7 10.1067 123.524 10.4747 123.278 10.784C123.044 11.0933 122.761 11.3493 122.43 11.552C122.11 11.744 121.753 11.888 121.358 11.984C120.974 12.0693 120.564 12.112 120.126 12.112C119.454 12.112 118.862 12.0107 118.35 11.808C117.849 11.6053 117.428 11.312 117.086 10.928C116.745 10.544 116.489 10.0907 116.318 9.568C116.158 9.03467 116.078 8.43733 116.078 7.776C116.078 7.136 116.169 6.55467 116.35 6.032C116.532 5.49867 116.793 5.04 117.134 4.656C117.486 4.272 117.908 3.97333 118.398 3.76C118.889 3.536 119.449 3.424 120.078 3.424C120.74 3.424 121.31 3.536 121.79 3.76C122.27 3.97333 122.67 4.26667 122.99 4.64C123.321 5.01333 123.566 5.45067 123.726 5.952C123.886 6.45333 123.966 6.99733 123.966 7.584C123.966 7.86133 123.95 8.13333 123.918 8.4H117.902ZM122.19 7.024C122.158 6.36267 121.95 5.86133 121.566 5.52C121.193 5.17867 120.702 5.008 120.094 5.008C119.753 5.008 119.454 5.06133 119.198 5.168C118.942 5.27467 118.724 5.41867 118.542 5.6C118.372 5.78133 118.233 5.99467 118.126 6.24C118.02 6.48533 117.95 6.74667 117.918 7.024H122.19ZM127.441 15.28H125.617V3.568H127.345L127.441 4.768C127.75 4.33067 128.15 4 128.641 3.776C129.142 3.54133 129.665 3.424 130.209 3.424C130.785 3.424 131.302 3.53067 131.761 3.744C132.22 3.94667 132.609 4.23467 132.929 4.608C133.26 4.98133 133.505 5.43467 133.665 5.968C133.836 6.49067 133.921 7.088 133.921 7.76C133.921 8.38933 133.841 8.97067 133.681 9.504C133.521 10.0373 133.281 10.5013 132.961 10.896C132.652 11.28 132.262 11.5787 131.793 11.792C131.334 12.0053 130.774 12.112 130.113 12.112C129.601 12.112 129.11 12.032 128.641 11.872C128.182 11.7013 127.782 11.424 127.441 11.04V15.28ZM129.825 10.528C130.22 10.528 130.561 10.4587 130.849 10.32C131.137 10.1707 131.372 9.97333 131.553 9.728C131.745 9.48267 131.884 9.19467 131.969 8.864C132.065 8.53333 132.113 8.176 132.113 7.792C132.113 7.408 132.065 7.05067 131.969 6.72C131.884 6.37867 131.745 6.08533 131.553 5.84C131.372 5.59467 131.132 5.40267 130.833 5.264C130.545 5.12533 130.198 5.056 129.793 5.056C129.43 5.056 129.094 5.13067 128.785 5.28C128.486 5.42933 128.236 5.62667 128.033 5.872C127.83 6.11733 127.676 6.41067 127.569 6.752C127.473 7.08267 127.425 7.424 127.425 7.776C127.425 8.16 127.473 8.52267 127.569 8.864C127.665 9.19467 127.809 9.48267 128.001 9.728C128.204 9.96267 128.454 10.1547 128.753 10.304C129.052 10.4533 129.409 10.528 129.825 10.528ZM139.391 12.112C138.72 12.112 138.128 12.0107 137.616 11.808C137.114 11.5947 136.693 11.3013 136.352 10.928C136.021 10.544 135.77 10.0907 135.6 9.568C135.44 9.03467 135.36 8.448 135.36 7.808C135.36 7.168 135.445 6.58133 135.616 6.048C135.797 5.51467 136.064 5.056 136.416 4.672C136.768 4.288 137.194 3.984 137.696 3.76C138.197 3.536 138.778 3.424 139.44 3.424C139.909 3.424 140.341 3.47733 140.736 3.584C141.141 3.68 141.498 3.84533 141.808 4.08C142.117 4.304 142.384 4.592 142.608 4.944C142.832 5.28533 142.986 5.70133 143.072 6.192H141.184C141.088 5.82933 140.88 5.552 140.56 5.36C140.25 5.15733 139.866 5.056 139.408 5.056C139.002 5.056 138.656 5.13067 138.368 5.28C138.08 5.42933 137.845 5.632 137.664 5.888C137.482 6.144 137.349 6.44267 137.264 6.784C137.189 7.11467 137.152 7.46133 137.152 7.824C137.152 8.19733 137.194 8.54933 137.28 8.88C137.365 9.21067 137.498 9.49867 137.68 9.744C137.872 9.97867 138.112 10.1707 138.4 10.32C138.688 10.4587 139.034 10.528 139.44 10.528C139.92 10.528 140.314 10.4213 140.624 10.208C140.944 9.99467 141.146 9.712 141.232 9.36H143.104C143.018 9.84 142.858 10.256 142.624 10.608C142.4 10.96 142.122 11.248 141.792 11.472C141.461 11.696 141.093 11.8613 140.688 11.968C140.282 12.064 139.85 12.112 139.391 12.112ZM144.664 12V3.568H146.472V7.008H147.768L149.928 3.568H152.008L149.336 7.584L152.216 12H150.104L147.88 8.592H146.472V12H144.664ZM158.526 10.96C158.248 11.3547 157.88 11.648 157.422 11.84C156.963 12.0213 156.451 12.112 155.886 12.112C155.438 12.112 155.027 12.0587 154.654 11.952C154.291 11.8453 153.971 11.6853 153.694 11.472C153.416 11.248 153.198 10.976 153.038 10.656C152.878 10.3253 152.798 9.952 152.798 9.536C152.798 9.07733 152.888 8.688 153.07 8.368C153.251 8.03733 153.496 7.77067 153.806 7.568C154.126 7.36533 154.499 7.216 154.926 7.12C155.352 7.01333 155.8 6.96 156.27 6.96H158.43C158.43 6.34133 158.291 5.86133 158.014 5.52C157.736 5.17867 157.251 5.00267 156.558 4.992C156.152 4.992 155.8 5.06133 155.502 5.2C155.214 5.33867 155.022 5.568 154.926 5.888H153.054C153.118 5.44 153.262 5.06133 153.486 4.752C153.72 4.44267 153.998 4.18667 154.318 3.984C154.648 3.78133 155.011 3.63733 155.406 3.552C155.811 3.46667 156.216 3.424 156.622 3.424C157.144 3.424 157.63 3.49333 158.078 3.632C158.526 3.77067 158.915 4.00533 159.246 4.336C159.619 4.72 159.87 5.17867 159.998 5.712C160.126 6.24533 160.19 6.82667 160.19 7.456V12H158.606L158.526 10.96ZM158.43 8.256H156.67C156.36 8.256 156.051 8.28267 155.742 8.336C155.432 8.37867 155.166 8.49067 154.942 8.672C154.728 8.84267 154.622 9.09333 154.622 9.424C154.622 9.82933 154.766 10.1387 155.054 10.352C155.352 10.5547 155.715 10.656 156.142 10.656C156.472 10.656 156.776 10.6133 157.054 10.528C157.342 10.4427 157.587 10.304 157.79 10.112C157.992 9.90933 158.147 9.65867 158.254 9.36C158.371 9.05067 158.43 8.68267 158.43 8.256ZM169.06 12H167.252V9.12H165.732L163.764 12H161.62L163.908 8.832C163.258 8.672 162.762 8.37867 162.42 7.952C162.09 7.52533 161.924 6.98133 161.924 6.32C161.924 5.79733 162.01 5.36 162.18 5.008C162.362 4.656 162.607 4.37333 162.916 4.16C163.236 3.936 163.599 3.78133 164.004 3.696C164.41 3.61067 164.847 3.568 165.316 3.568H169.06V12ZM167.252 5.088H165.444C165.242 5.088 165.039 5.104 164.836 5.136C164.634 5.15733 164.447 5.216 164.276 5.312C164.116 5.39733 163.988 5.52 163.892 5.68C163.796 5.84 163.748 6.032 163.748 6.256C163.748 6.288 163.748 6.31467 163.748 6.336C163.748 6.61333 163.828 6.848 163.988 7.04C164.148 7.232 164.356 7.37067 164.612 7.456C164.868 7.53067 165.103 7.57867 165.316 7.6C165.53 7.61067 165.743 7.616 165.956 7.616H167.252V5.088ZM53.2029 33V24.568H60.5949V33H58.7709V26.152H55.0269V33H53.2029ZM66.3699 24.424C67.0419 24.424 67.6339 24.5307 68.1459 24.744C68.6579 24.9573 69.0899 25.256 69.4419 25.64C69.8046 26.0133 70.0766 26.4667 70.2579 27C70.4393 27.5333 70.5299 28.1253 70.5299 28.776C70.5299 29.4373 70.4393 30.0347 70.2579 30.568C70.0873 31.0907 69.8259 31.544 69.4739 31.928C69.1219 32.312 68.6846 32.6053 68.1619 32.808C67.6499 33.0107 67.0526 33.112 66.3699 33.112C65.6979 33.112 65.1059 33.0107 64.5939 32.808C64.0819 32.5947 63.6499 32.3013 63.2979 31.928C62.9566 31.544 62.6953 31.0853 62.5139 30.552C62.3433 30.0187 62.2579 29.4267 62.2579 28.776C62.2579 28.1253 62.3433 27.5333 62.5139 27C62.6953 26.4667 62.9619 26.0133 63.3139 25.64C63.6659 25.256 64.0979 24.9573 64.6099 24.744C65.1219 24.5307 65.7086 24.424 66.3699 24.424ZM66.3699 31.528C66.7859 31.528 67.1379 31.4587 67.4259 31.32C67.7246 31.1707 67.9646 30.9733 68.1459 30.728C68.3379 30.4827 68.4766 30.1947 68.5619 29.864C68.6579 29.5333 68.7059 29.176 68.7059 28.792C68.7059 28.408 68.6579 28.0507 68.5619 27.72C68.4766 27.3787 68.3379 27.0853 68.1459 26.84C67.9646 26.5947 67.7246 26.4027 67.4259 26.264C67.1379 26.1253 66.7859 26.056 66.3699 26.056C65.9646 26.056 65.6126 26.1253 65.3139 26.264C65.0259 26.4027 64.7859 26.5947 64.5939 26.84C64.4126 27.0853 64.2739 27.3787 64.1779 27.72C64.0926 28.0507 64.0499 28.408 64.0499 28.792C64.0499 29.176 64.0926 29.5333 64.1779 29.864C64.2739 30.1947 64.4126 30.4827 64.5939 30.728C64.7859 30.9733 65.0259 31.1707 65.3139 31.32C65.6126 31.4587 65.9646 31.528 66.3699 31.528ZM77.7233 28.488C78.1713 28.6373 78.502 28.8827 78.7153 29.224C78.9286 29.5547 79.0353 29.928 79.0353 30.344C79.0353 30.3653 79.0353 30.3867 79.0353 30.408C79.0353 30.9413 78.9286 31.384 78.7153 31.736C78.502 32.088 78.214 32.3707 77.8513 32.584C77.4993 32.7867 77.1153 32.9253 76.6993 33C76.294 33.0747 75.878 33.112 75.4513 33.112C75.0353 33.112 74.6086 33.0747 74.1713 33C73.7446 32.9147 73.35 32.7707 72.9873 32.568C72.6353 32.3653 72.342 32.0987 72.1073 31.768C71.8726 31.4373 71.7393 31.0213 71.7073 30.52H73.4673C73.51 30.7333 73.6006 30.9093 73.7393 31.048C73.8886 31.1867 74.0593 31.2987 74.2513 31.384C74.4433 31.4693 74.646 31.528 74.8593 31.56C75.0726 31.592 75.27 31.608 75.4513 31.608C75.6433 31.608 75.8513 31.5973 76.0753 31.576C76.2993 31.544 76.4966 31.4907 76.6673 31.416C76.8486 31.3307 76.998 31.2187 77.1153 31.08C77.2326 30.9307 77.2913 30.7387 77.2913 30.504C77.2913 30.0987 77.1366 29.8267 76.8273 29.688C76.5286 29.5493 76.15 29.48 75.6913 29.48H74.2833V28.04H75.5473C75.942 28.04 76.278 27.96 76.5553 27.8C76.8326 27.64 76.9713 27.3627 76.9713 26.968C76.9713 26.7653 76.918 26.6 76.8113 26.472C76.7153 26.3333 76.5926 26.2267 76.4433 26.152C76.294 26.0773 76.1286 26.0293 75.9473 26.008C75.766 25.976 75.606 25.96 75.4673 25.96C75.286 25.96 75.0993 25.976 74.9073 26.008C74.7153 26.0293 74.534 26.0773 74.3633 26.152C74.1926 26.2267 74.0486 26.328 73.9313 26.456C73.814 26.584 73.7446 26.7493 73.7233 26.952H71.9793C72.022 26.4507 72.1553 26.04 72.3793 25.72C72.6033 25.3893 72.8806 25.128 73.2113 24.936C73.542 24.744 73.9046 24.6107 74.2993 24.536C74.7046 24.4613 75.1046 24.424 75.4993 24.424C75.894 24.424 76.278 24.4613 76.6513 24.536C77.0353 24.6107 77.3873 24.7493 77.7073 24.952C78.0273 25.1547 78.2726 25.4 78.4433 25.688C78.6246 25.9653 78.7153 26.328 78.7153 26.776C78.7153 27.1813 78.6193 27.528 78.4273 27.816C78.246 28.104 78.0113 28.328 77.7233 28.488ZM82.3521 33H80.6561V24.568H82.4801V30.36L86.7681 24.568H88.4161V33H86.5921V27.32C86.5814 27.3413 85.1681 29.2347 82.3521 33ZM95.8941 31.448V24.568H97.7181V31.448H98.8541V35.464H97.0621V33H90.4061V24.568H92.2141V31.448H95.8941ZM101.821 33H100.125V24.568H101.949V30.36L106.237 24.568H107.885V33H106.061V27.32C106.05 27.3413 104.637 29.2347 101.821 33ZM116.787 33H114.979V30.12H113.459L111.491 33H109.347L111.635 29.832C110.984 29.672 110.488 29.3787 110.147 28.952C109.816 28.5253 109.651 27.9813 109.651 27.32C109.651 26.7973 109.736 26.36 109.907 26.008C110.088 25.656 110.333 25.3733 110.643 25.16C110.963 24.936 111.325 24.7813 111.731 24.696C112.136 24.6107 112.573 24.568 113.043 24.568H116.787V33ZM114.979 26.088H113.171C112.968 26.088 112.765 26.104 112.563 26.136C112.36 26.1573 112.173 26.216 112.003 26.312C111.843 26.3973 111.715 26.52 111.619 26.68C111.523 26.84 111.475 27.032 111.475 27.256C111.475 27.288 111.475 27.3147 111.475 27.336C111.475 27.6133 111.555 27.848 111.715 28.04C111.875 28.232 112.083 28.3707 112.339 28.456C112.595 28.5307 112.829 28.5787 113.043 28.6C113.256 28.6107 113.469 28.616 113.683 28.616H114.979V26.088Z" fill="#0260A2"/>
</svg>
