<svg width="530" height="281" viewBox="0 0 530 281" fill="white" xmlns="http://www.w3.org/2000/svg">
    <path fill-rule="evenodd" clip-rule="evenodd"
        d="M529.089 96.5691C525.483 80.7802 511.12 67.704 487.787 64.6255C475.454 62.9795 463.03 64.3207 450.364 68.0698C431.546 73.5868 416.092 82.9138 402.334 93.9783C394.668 100.044 387.88 106.536 381.668 113.272C381.153 113.852 380.911 114.461 380.638 114.979C380.365 114.888 380.153 114.796 379.911 114.705L381.517 112.48C394.062 95.1365 406.334 77.6102 416.97 59.6876C421.91 51.5189 426.455 43.2281 428.546 34.6326C429.758 29.4814 430.152 24.3912 429.061 19.6057C428.516 17.2892 427.637 15.0032 426.334 12.839C420.455 3.14622 409.304 -0.785776 393.91 0.128641C382.001 0.860174 370.88 4.54832 360.305 9.36425C344.487 16.5577 331.245 25.8542 319.488 36.3395C298.488 54.7193 279.67 74.044 261.61 93.8563C245.308 111.627 229.884 129.701 215.308 148.081C215.005 148.508 214.702 148.843 214.005 149.209C214.036 148.813 214.187 148.325 214.339 147.837L231.55 94.405C235.187 82.2433 237.126 70.0815 237.005 58.0417C236.974 52.6466 236.58 47.3125 235.399 42.1918C234.156 36.7053 232.005 31.4017 228.49 26.4638C220.157 14.7898 206.672 7.93166 187.279 7.47445C174.885 7.23061 163.128 10.4006 151.795 15.3994C137.128 21.8308 124.856 30.152 113.432 39.3571C94.6746 54.384 79.4325 70.9959 65.948 88.2784C32.2821 131.225 11.0401 176.093 1.28279 222.484C-0.26263 229.83 -0.505049 237.054 1.07067 243.973C1.404 245.467 1.85853 246.991 2.37367 248.484C8.94928 266.955 24.3126 278.965 51.8877 280.794C75.6144 282.379 96.1897 274.758 113.583 260.615C121.098 254.489 126.613 247.631 130.977 240.315C131.28 239.889 131.674 239.34 132.159 238.487C132.219 241.687 132.189 244.43 132.431 247.204C132.613 249.124 132.916 251.014 133.34 252.873C134.492 257.994 136.5 264 140.764 267.016C146.5 272.5 161.643 273.762 176.461 273C194.218 272.086 209.702 271.192 224.247 262.444C239.52 253.453 252.035 242.784 261.58 230.501C261.671 230.318 261.792 230.287 262.337 229.8C262.125 230.592 262.095 231.049 261.944 231.537C260.913 235.652 260.489 239.706 261.398 243.638C261.58 244.4 262.095 245.924 262.095 245.924C262.46 246.683 264.974 259.792 307.639 241.809C350.305 223.795 478.969 163.443 518.059 137.962C525.725 127.324 529.937 116.381 529.998 105.134C530.028 102.208 529.725 99.3428 529.089 96.5691Z"
        fill="white" />
</svg>