<svg width="145" height="348" viewBox="0 0 145 348" fill="none" xmlns="http://www.w3.org/2000/svg">
<path d="M102.246 320.988C102.274 320.874 102.302 320.732 102.302 320.59C102.302 316.439 87.4571 302.961 87.4571 302.961L95.5596 284.535L77.513 277.228L66.0391 306.515L102.246 320.988Z" fill="#211112"/>
<path d="M66.039 306.515L67.3138 303.586L101.537 318.571C101.537 318.571 102.869 319.936 102.246 320.988L66.039 306.515Z" fill="#29383E"/>
<path d="M31.8156 310.666L21.6732 328.039C21.6732 328.039 35.8952 344.247 34.3087 347.659L0.000244141 329.12L14.7039 301.339L31.8156 310.666Z" fill="#EA5563"/>
<path d="M34.3086 347.659C34.3936 347.46 34.4503 347.261 34.4503 347.034C34.4503 342.626 21.6731 328.039 21.6731 328.039L27.8209 317.519L9.97256 310.296L0.000160217 329.12L34.3086 347.659Z" fill="#211112"/>
<path d="M1.14441e-05 329.12L1.58653 326.362L33.9118 345.157C33.9118 345.157 35.0734 346.664 34.3085 347.659L1.14441e-05 329.12Z" fill="#29383E"/>
<path d="M36.8017 239.779C36.66 239.807 37.2549 242.367 38.1332 245.466C39.0398 248.594 39.8614 251.096 39.9747 251.039C40.1163 251.011 39.5214 248.452 38.6431 245.352C37.7366 242.224 36.915 239.722 36.8017 239.779Z" fill="#3F5E69"/>
<path d="M33.2604 256.072C33.3171 256.1 33.8554 255.475 34.5353 254.309C35.2152 253.143 35.9518 251.38 36.4051 249.362C36.8301 247.314 36.8584 245.438 36.7168 244.073C36.5751 242.736 36.3201 241.94 36.2635 241.94C36.0935 241.94 36.7734 245.267 35.9235 249.248C35.1019 253.257 33.1188 255.987 33.2604 256.072Z" fill="#3F5E69"/>
<path d="M84.7372 168.068C85.5305 168.324 130.661 214.16 129.67 222.406C128.65 230.623 96.4944 291.587 96.4944 291.587L73.5749 280.241L95.0779 226.813L94.7946 223.486L68.5037 201.876L69.9203 167.101L84.7372 168.068Z" fill="#36484F"/>
<path d="M74.9916 177.11C74.4533 177.906 66.6341 249.902 64.5659 253.627C62.4695 257.351 31.0507 318.827 31.0507 318.827L7.73459 309.386L36.2069 241.826L32.9489 177.906L34.7054 159.85L69.9204 167.101L74.9916 177.11Z" fill="#36484F"/>
<path d="M68.334 287.663C68.334 289.681 66.6908 291.331 64.6793 291.331C62.6678 291.331 61.053 289.681 61.053 287.663C61.053 285.644 62.6678 284.023 64.6793 284.023C66.6908 284.023 68.334 285.644 68.334 287.663Z" fill="#EBECEC"/>
<path d="M102.614 219.05C102.557 218.937 100.659 219.704 98.8459 221.41C97.0044 223.088 96.0412 224.879 96.1545 224.936C96.2678 225.022 97.4011 223.401 99.1859 221.78C100.942 220.131 102.671 219.193 102.614 219.05Z" fill="#3F5E69"/>
<path d="M99.0727 216.918C98.9593 216.832 97.8261 217.856 96.8345 219.448C95.843 221.041 95.4463 222.548 95.588 222.576C95.7296 222.633 96.2963 221.268 97.2595 219.704C98.2227 218.169 99.1577 217.031 99.0727 216.918Z" fill="#3F5E69"/>
<path d="M64.9623 252.375C64.9907 252.375 65.019 252.119 65.104 251.636C65.189 251.124 65.3023 250.442 65.4439 249.56C65.7273 247.712 66.1239 245.096 66.6055 241.912C67.5404 235.372 68.8153 226.472 70.2318 216.605C71.5917 206.738 72.8099 197.81 73.7165 191.298C74.1415 188.085 74.4814 185.469 74.7081 183.621C74.8214 182.74 74.9064 182.057 74.9631 181.517C75.0197 181.034 75.0197 180.778 75.0197 180.778C74.9914 180.778 74.9347 181.034 74.8497 181.517C74.7647 182.029 74.6514 182.711 74.5098 183.593C74.2265 185.441 73.8582 188.057 73.3765 191.242C72.4416 197.753 71.1384 206.681 69.7502 216.548C68.3903 226.415 67.1438 235.343 66.2655 241.855C65.8406 245.068 65.5006 247.684 65.2456 249.532C65.1606 250.413 65.0756 251.096 65.019 251.636C64.9623 252.119 64.934 252.375 64.9623 252.375Z" fill="#3F5E69"/>
<path d="M40.5697 143.074C40.5414 143.074 40.3714 143.443 40.1447 144.183C39.8898 144.893 39.5215 145.917 39.0682 147.168C38.1333 149.727 36.6884 153.168 34.8186 156.807C32.9204 160.475 30.9656 163.66 29.4924 165.906C28.7558 167.044 28.1325 167.954 27.7076 168.579C27.2826 169.176 27.056 169.546 27.0843 169.574C27.1126 169.574 27.3959 169.262 27.8776 168.693C28.3308 168.096 29.0108 167.214 29.7757 166.105C31.3339 163.888 33.3454 160.731 35.2435 157.035C37.1417 153.367 38.5582 149.869 39.4081 147.31C39.8331 146.002 40.1447 144.95 40.3147 144.239C40.513 143.5 40.598 143.074 40.5697 143.074Z" fill="#29383E"/>
<path d="M33.6004 173.669C30.8523 173.413 28.2742 171.793 26.886 169.404C26.716 169.148 26.5744 168.779 26.7727 168.551C26.9143 168.38 27.1693 168.38 27.3676 168.38C29.5491 168.352 31.7022 168.722 33.742 169.461C33.9687 169.546 34.2237 169.66 34.3086 169.887C34.3936 170.058 34.337 170.257 34.2803 170.428C34.0253 171.48 33.742 172.532 33.4871 173.584L33.6004 173.669Z" fill="#EA5563"/>
<path d="M33.6004 173.669L33.4871 173.584C33.7137 172.617 33.9687 171.65 34.2237 170.684C34.252 170.598 34.2803 170.513 34.2803 170.428C34.3086 170.314 34.337 170.2 34.337 170.086C34.337 170.03 34.337 169.944 34.3086 169.887C34.2237 169.66 33.9687 169.546 33.742 169.461C31.7589 168.75 29.6341 168.352 27.5376 168.352C27.4809 168.352 27.4243 168.352 27.3676 168.38C27.1693 168.38 26.9143 168.38 26.7727 168.551C26.716 168.636 26.6877 168.722 26.6877 168.835C26.6877 169.034 26.7727 169.233 26.886 169.404C27.7076 170.854 28.9825 172.02 30.484 172.759C31.4472 173.243 32.5238 173.584 33.6004 173.669Z" fill="#A3353D"/>
<path d="M27.5377 167.812C27.6227 167.812 27.6794 167.812 27.7644 167.783C28.1893 167.698 28.501 167.328 28.756 166.987C28.9826 166.674 29.2376 166.305 29.4926 165.906C30.9658 163.66 32.9206 160.476 34.8187 156.807C36.5752 153.367 37.9634 150.125 38.8983 147.623C39.04 147.168 39.1816 146.685 39.3233 146.23L39.4933 145.547C36.9719 150.04 34.3938 154.618 30.5691 158.03C29.2376 159.253 27.7077 160.333 26.6878 161.812C25.6679 163.319 25.2146 165.395 26.1779 166.93C26.4895 167.413 26.9995 167.812 27.5377 167.812Z" fill="#BE3E45"/>
<path d="M28.7558 166.987C28.7842 166.987 28.7842 166.959 28.8125 166.959C33.2604 161.186 36.7168 154.618 38.8982 147.623C37.9633 150.126 36.5751 153.367 34.8186 156.808C32.9204 160.476 30.9656 163.66 29.4924 165.907C29.2375 166.305 28.9825 166.674 28.7558 166.987Z" fill="#242C2F"/>
<path d="M99.1009 63.5143L98.1093 98.4886L76.4364 51.6288L76.9746 47.2783L99.1009 63.5143Z" fill="#EBECEC"/>
<path d="M95.9562 111.881L90.1767 140.628L85.4738 180.721C85.4738 180.721 66.124 178.02 57.8514 175.404C48.2756 172.361 27.4526 169.774 27.4526 169.774L30.9656 173.243C23.5146 171.167 18.7834 164.001 18.7834 164.001C31.6172 152.059 42.5812 127.463 42.5812 127.463L52.3269 78.7837C52.3269 78.7837 53.8285 71.931 54.7067 68.8601C55.6133 65.8176 70.4302 55.9793 72.4984 54.7282L73.8016 54.1026L74.1982 50.2071L75.7281 49.2972L91.7916 63.9125C94.9079 66.7844 96.8911 70.6514 97.3727 74.8597C97.8543 79.2955 98.3076 85.6648 98.0526 93.1714C97.8827 98.8867 95.9562 111.881 95.9562 111.881Z" fill="#C52552"/>
<path d="M116.553 135.368C116.694 135.368 116.779 131.416 116.751 126.553C116.723 121.663 116.581 117.71 116.439 117.71C116.326 117.71 116.213 121.663 116.241 126.553C116.269 131.416 116.411 135.368 116.553 135.368Z" fill="#29383E"/>
<path d="M81.6208 141.937C84.5106 141.937 87.2586 141.567 90.1767 140.629L90.7433 137.7C90.7433 137.7 85.2188 138.098 80.8842 138.098C79.581 138.098 78.3911 138.069 77.4845 137.956C76.578 137.87 75.643 137.814 74.7931 137.529C73.3766 137.387 72.4983 137.16 72.2717 136.847C71.5351 135.852 70.7985 132.439 70.0902 128.089C68.872 122.146 68.1354 114.753 67.7671 110.175C67.6255 108.754 67.4838 107.417 67.3422 106.195C66.4072 108.981 65.0757 113.929 65.5007 116.658C65.9256 119.502 66.6339 122.317 66.8039 125.189C66.9739 128.487 66.4639 131.928 67.7105 134.999C69.3253 139.008 73.6882 141.368 77.9945 141.766C79.241 141.88 80.4309 141.937 81.6208 141.937Z" fill="#A51C43"/>
<path d="M74.7932 137.529C74.3116 137.387 73.8867 137.188 73.5184 136.875C72.5834 136.107 72.0452 134.97 71.6202 133.861C71.0253 132.269 70.5153 130.278 70.0903 128.089C70.7986 132.439 71.5352 135.851 72.2718 136.847C72.4985 137.159 73.3767 137.387 74.7932 137.529ZM67.7672 110.175C67.5689 107.559 67.4556 105.853 67.4556 105.853C67.4273 105.967 67.3989 106.081 67.3423 106.194C67.4839 107.417 67.6256 108.753 67.7672 110.175Z" fill="#BE3E45"/>
<path d="M84.9354 62.0927C84.9354 62.0927 93.4063 66.6707 94.8795 70.5377C96.3526 74.4048 91.9614 116.857 91.9614 116.857L122.417 117.426L122.53 135.652C122.53 135.652 74.1414 139.491 72.2716 136.847C69.7218 133.292 66.7754 100.138 66.7754 100.138L65.6705 76.253C65.6705 76.253 68.4753 58.055 84.9354 62.0927Z" fill="#C52552"/>
<path d="M119.782 120.468C119.839 120.44 119.527 120.099 118.961 120.298C118.677 120.383 118.366 120.696 118.337 121.122C118.309 121.521 118.507 121.975 118.961 122.203C119.414 122.402 119.896 122.26 120.179 121.975C120.491 121.691 120.547 121.293 120.462 121.009C120.349 120.44 119.924 120.326 119.924 120.383C119.867 120.44 120.122 120.639 120.122 121.066C120.122 121.265 120.066 121.492 119.867 121.634C119.697 121.776 119.386 121.833 119.159 121.748C118.932 121.634 118.791 121.378 118.791 121.122C118.791 120.895 118.932 120.724 119.102 120.611C119.442 120.412 119.754 120.554 119.782 120.468Z" fill="#29383E"/>
<path d="M52.2135 82.9634C52.2135 82.9634 36.3483 103.749 34.4219 109.407C32.4954 115.094 33.9969 123.226 37.2266 127.093C40.4563 130.989 43.0344 129.425 43.0344 129.425L52.2135 82.9634Z" fill="#C52552"/>
<path d="M43.601 127.748C43.601 127.89 45.3575 128.288 47.5957 128.686C49.8055 129.056 51.6186 129.255 51.647 129.113C51.6753 128.999 49.8905 128.572 47.6807 128.174C45.4425 127.805 43.6294 127.606 43.601 127.748Z" fill="#29383E"/>
<path d="M41.5896 129.34L43.0345 127.236L50.8821 86.0912L49.3239 91.8634C47.3124 100.138 45.0176 106.99 41.6179 114.582C40.5131 117.028 39.2948 119.473 38.9832 122.146C38.6432 124.79 39.4082 127.776 41.5896 129.34Z" fill="#A51C43"/>
<path d="M39.8614 133.463C39.8614 133.492 39.9464 133.349 40.1164 133.065C40.2864 132.752 40.4847 132.354 40.7396 131.871C41.3063 130.762 42.0712 129.255 43.0061 127.407L43.0344 127.378V127.35C44.026 122.8 45.4142 116.147 46.9441 108.782C48.3606 101.816 49.6355 95.5033 50.5704 90.8401C50.9954 88.6222 51.3353 86.7739 51.6186 85.4091C51.7036 84.812 51.7886 84.3286 51.8736 83.9305C51.9303 83.5893 51.9303 83.4187 51.9303 83.3903C51.9019 83.3903 51.8453 83.5609 51.7603 83.9021C51.6753 84.3002 51.562 84.7835 51.4203 85.3807C51.1087 86.7171 50.712 88.5369 50.2304 90.7832C49.2389 95.418 47.9073 101.702 46.4624 108.668C44.9326 116.061 43.601 122.715 42.6945 127.293L42.7228 127.264C41.8162 129.141 41.1079 130.677 40.5697 131.786C40.343 132.297 40.173 132.695 40.0314 133.037C39.8897 133.321 39.8331 133.463 39.8614 133.463Z" fill="#29383E"/>
<path d="M65.7274 78.8405C65.7274 78.8405 65.7274 78.9826 65.7274 79.267C65.7274 79.5797 65.7557 80.0063 65.7557 80.5465C65.8124 81.6839 65.8973 83.3331 66.0107 85.4088C66.124 87.5414 66.2373 90.1289 66.4073 93.1429C66.5773 96.1285 66.6906 99.5691 67.0589 103.351C67.3705 107.104 67.7672 111.256 68.2488 115.691C68.7304 120.099 69.2687 124.847 70.0903 129.795C70.3453 131.046 70.5436 132.269 70.9402 133.548C71.3652 134.771 72.0734 135.965 73.1217 136.847C74.1699 137.7 75.5298 138.297 76.918 138.211C78.2779 138.24 79.6094 138.183 80.9693 138.183C86.4088 138.041 92.0182 137.756 97.7694 137.444C106.41 136.96 114.768 136.42 122.53 135.88H122.757V135.652C122.729 129.169 122.672 123.084 122.644 117.454V117.255H122.445C110.292 116.971 100.149 116.772 93.0381 116.601C89.5251 116.544 86.7487 116.488 84.8222 116.459C83.8873 116.459 83.1791 116.459 82.6691 116.459C82.1592 116.459 81.9325 116.459 81.9325 116.459C81.9325 116.459 82.1592 116.488 82.6691 116.516C83.1791 116.544 83.8873 116.573 84.8222 116.601C86.7487 116.658 89.5251 116.743 93.0381 116.857C100.149 117.056 110.263 117.341 122.445 117.682L122.219 117.454C122.247 123.084 122.247 129.169 122.275 135.652L122.502 135.396C114.711 135.937 106.382 136.477 97.741 136.96C91.9899 137.273 86.3804 137.557 80.9693 137.7C79.6094 137.7 78.2495 137.728 76.9463 137.7C75.6431 137.813 74.4249 137.245 73.4333 136.477C72.4701 135.681 71.7901 134.572 71.3935 133.378C70.9969 132.212 70.7986 130.932 70.5719 129.71C69.722 124.79 69.1837 120.07 68.6738 115.635C68.1638 111.199 67.7672 107.076 67.3989 103.294C67.0306 99.5407 66.8889 96.1001 66.6906 93.1145C66.4923 90.1005 66.3223 87.5414 66.209 85.4088C66.0673 83.3046 65.954 81.6839 65.869 80.5465C65.8407 80.0063 65.784 79.5797 65.784 79.267C65.7557 78.9826 65.7274 78.8405 65.7274 78.8405Z" fill="#29383E"/>
<path d="M122.049 119.559C122.049 119.559 128.621 114.554 130.208 114.27C131.455 114.042 138.764 114.156 142.135 114.213C143.438 114.241 144.572 115.265 144.572 116.573L144.543 116.8C144.288 118.194 142.928 118.478 142.928 118.478C142.928 118.478 144.685 118.99 144.713 120.895C144.742 122.8 142.447 123.198 142.447 123.198C142.447 123.198 142.56 123.312 142.758 123.511C144.033 124.762 143.382 126.923 141.654 127.321L140.605 127.549C140.605 127.549 142.022 128.146 141.994 129.454C141.965 131.984 136.327 132.468 136.327 132.468C136.327 132.468 122.389 134.657 122.105 134.572C121.794 134.458 122.049 119.559 122.049 119.559Z" fill="#F7B8A0"/>
<path d="M134.798 128.373C134.826 128.515 136.157 128.458 137.801 128.259C139.472 128.032 140.775 127.776 140.775 127.634C140.747 127.492 139.387 127.548 137.744 127.748C136.101 127.947 134.769 128.231 134.798 128.373Z" fill="#F39772"/>
<path d="M130.463 125.928C130.406 125.9 130.293 126.07 130.321 126.383C130.321 126.667 130.463 127.094 130.718 127.435C131.285 128.117 131.936 128.373 132.021 128.288C132.106 128.174 131.596 127.719 131.115 127.122C130.661 126.554 130.605 125.928 130.463 125.928Z" fill="#F39772"/>
<path d="M135.959 123.539C135.987 123.682 137.489 123.738 139.302 123.682C141.143 123.625 142.645 123.454 142.645 123.312C142.645 123.17 141.143 123.113 139.302 123.17C137.46 123.227 135.959 123.397 135.959 123.539Z" fill="#F39772"/>
<path d="M131.539 121.464C131.483 121.435 131.341 121.606 131.313 121.89C131.284 122.203 131.341 122.658 131.653 123.028C131.964 123.426 132.361 123.596 132.673 123.625C132.984 123.682 133.154 123.596 133.154 123.539C133.154 123.397 132.474 123.312 132.049 122.743C131.596 122.175 131.653 121.492 131.539 121.464Z" fill="#F39772"/>
<path d="M136.809 118.62C136.809 118.734 138.169 118.99 139.869 118.933C141.597 118.848 142.929 118.535 142.9 118.393C142.9 118.251 141.54 118.364 139.869 118.421C138.197 118.478 136.838 118.45 136.809 118.62Z" fill="#F39772"/>
<path d="M132.871 118.052C132.758 118.137 132.899 118.535 133.353 118.819C133.778 119.104 134.231 119.075 134.259 118.933C134.259 118.791 133.947 118.62 133.608 118.421C133.268 118.194 132.984 117.966 132.871 118.052Z" fill="#F39772"/>
<path d="M140.86 111.256C140.775 112.08 140.605 113.843 139.189 114.639L131.426 114.326C131.426 114.326 137.206 112.336 138.027 111.341C138.311 111 138.707 110.573 139.132 110.26C139.869 109.72 140.917 110.346 140.86 111.256Z" fill="#F7B8A0"/>
<path d="M135.081 114.27C135.081 114.383 136.668 114.554 138.622 114.497C140.577 114.469 142.164 114.412 142.164 114.27C142.164 114.128 140.577 113.957 138.622 114.014C136.668 114.042 135.081 114.128 135.081 114.27Z" fill="#F39772"/>
<path d="M92.4997 116.829C92.528 116.857 92.613 116.317 92.7263 115.322C92.8397 114.27 93.0097 112.876 93.1796 111.199C93.5479 107.73 94.0012 102.896 94.4545 97.5787C94.9361 92.2614 95.3328 87.4276 95.6161 83.9302C95.7294 82.2525 95.8144 80.8593 95.8994 79.8072C95.956 78.812 95.956 78.2717 95.9277 78.2717C95.8994 78.2717 95.8144 78.812 95.7011 79.7787C95.5877 80.8593 95.4178 82.2241 95.2478 83.9017C94.9078 87.3992 94.4262 92.2046 93.9729 97.5502C93.4913 102.867 93.0946 107.673 92.8397 111.17C92.698 112.848 92.613 114.241 92.528 115.322C92.4714 116.288 92.4714 116.829 92.4997 116.829Z" fill="#29383E"/>
<path d="M82.414 63.7705C82.3857 63.8558 83.3206 64.1402 84.7088 64.8226C86.1253 65.5334 87.9668 66.6992 89.6383 68.4053C91.3098 70.1114 92.4714 71.9596 93.123 73.3813C93.8029 74.803 94.0863 75.7414 94.1712 75.7129C94.1996 75.7129 94.1429 75.457 94.0579 75.0305C93.9446 74.5756 93.7463 73.9784 93.463 73.2391C92.8397 71.7606 91.7065 69.7986 89.9783 68.0357C88.2785 66.3012 86.352 65.1354 84.8788 64.5098C84.1422 64.197 83.5189 63.998 83.0939 63.8842C82.6407 63.7705 82.414 63.7421 82.414 63.7705Z" fill="#29383E"/>
<path d="M99.1007 63.5145C99.1007 63.5145 102.302 74.2627 101.424 73.6656C100.546 73.04 98.6474 71.334 98.6474 71.334L99.1007 63.5145Z" fill="#EBECEC"/>
<path d="M98.931 68.462L100.687 72.6419C100.857 73.0968 100.971 73.5518 101.027 74.0067C101.169 75.1725 101.339 77.3336 100.631 77.4757C99.6676 77.6748 98.761 76.708 98.761 76.708L98.931 68.462Z" fill="#29383E"/>
<path d="M44.7626 69.1158C44.7626 69.1158 61.8461 62.4338 71.3085 68.3481C80.771 74.2625 82.4991 83.6742 88.1369 83.6742C99.1009 83.6742 98.7609 75.8832 98.7609 75.8832L101.084 76.5941C101.141 78.1864 103.634 89.6454 92.0749 91.0387C80.4876 92.4604 75.6148 76.6225 65.1891 76.5941C54.7917 76.5941 46.8875 82.2525 46.8875 82.2525L39.3798 77.504L44.7626 69.1158Z" fill="#29383E"/>
<path d="M88.5903 90.8683C88.5903 90.8683 84.3407 88.6788 82.0176 83.2763C79.3545 77.1345 73.66 70.1112 68.9005 68.3483C64.1409 66.5853 53.1203 65.3627 45.5277 70.3102L40.6548 76.9354L46.9725 81.03C46.9725 81.03 51.9871 78.2719 58.1348 76.5658C65.9824 74.3479 70.7703 76.8501 75.3315 81.2006C75.6148 81.4565 75.8698 81.7124 76.0965 81.9968C77.258 83.3047 80.4311 86.3472 83.3208 88.4229C85.5589 90.0152 87.5987 90.8683 88.5903 90.8683Z" fill="#3F5E69"/>
<path d="M80.7992 60.2444C80.8842 60.1307 79.4677 58.908 77.8528 57.2872C76.238 55.6665 75.0198 54.2448 74.9065 54.3301C74.7931 54.4154 75.8414 55.9793 77.4845 57.6569C79.1561 59.3061 80.7142 60.3582 80.7992 60.2444Z" fill="#29383E"/>
<path d="M90.1661 5.33832C91.0889 3.86461 93.0081 3.14824 94.697 3.60947C96.8122 2.20484 99.9323 2.57345 101.696 4.3882C103.293 3.6309 105.268 3.77188 106.728 4.75258C108.191 5.70628 109.085 7.49289 109.002 9.2377C110.765 9.10502 112.561 10.238 113.23 11.859C113.896 13.5069 113.419 15.5583 112.074 16.7041C113.913 17.4862 114.964 19.759 114.367 21.6854C113.773 23.5848 111.594 24.8442 109.623 24.4569L90.4877 10.1516C89.3712 8.8305 89.2199 6.78161 90.1661 5.33832Z" fill="#29383E"/>
<path d="M109.429 47.2249C109.883 42.7568 110.095 33.4857 110.173 25.0751C110.247 16.0333 103.37 8.44036 94.3548 7.62523L93.4379 7.53628C83.7337 7.20963 78.0507 15.2653 78.0052 24.9416L76.9259 47.2249L92.2157 58.9935L98.9263 63.1989L99.0468 57.0429C99.0468 57.0429 108.484 56.4579 109.429 47.2249Z" fill="#F7BAA1"/>
<path d="M99.1273 57.0532C99.1273 57.0532 93.1718 56.8733 87.2701 52.3665C87.2701 52.3665 89.5367 59.2918 98.8684 59.3243L99.1273 57.0532Z" fill="#F29573"/>
<path d="M106.744 32.7862C106.709 33.4949 106.097 34.0206 105.362 34.0095C104.629 33.9715 104.049 33.3767 104.084 32.6679C104.142 31.9896 104.758 31.4369 105.49 31.475C106.226 31.4861 106.806 32.0809 106.744 32.7862Z" fill="#29383E"/>
<path d="M107.767 29.4326C107.586 29.5741 106.653 28.7426 105.222 28.6158C103.795 28.4621 102.675 29.1154 102.538 28.9059C102.464 28.8417 102.666 28.5382 103.14 28.2418C103.641 27.9489 104.434 27.7204 105.324 27.8059C106.188 27.8881 106.929 28.2839 107.322 28.6355C107.738 29.0174 107.858 29.3618 107.767 29.4326Z" fill="#29383E"/>
<path d="M93.8394 31.8613C93.8081 32.543 93.1656 33.0923 92.4334 33.0543C91.6978 33.0432 91.1444 32.4518 91.1791 31.7431C91.2138 31.0343 91.8529 30.512 92.5886 30.5231C93.3208 30.5612 93.8741 31.1526 93.8394 31.8613Z" fill="#29383E"/>
<path d="M93.7039 28.3881C93.5188 28.5567 92.5863 27.7252 91.1555 27.5984C89.7281 27.4446 88.6119 28.0709 88.4711 27.8885C88.4007 27.7973 88.5993 27.5208 89.0734 27.2244C89.5744 26.9314 90.3709 26.676 91.261 26.7615C92.151 26.8471 92.8659 27.2395 93.255 27.618C93.6709 28 93.7947 28.3174 93.7039 28.3881Z" fill="#29383E"/>
<path d="M97.9356 39.4303C97.9189 39.3459 98.8294 39.2695 100.281 39.2342C100.637 39.2246 100.996 39.1879 101.084 38.9248C101.195 38.692 101.085 38.2666 100.948 37.8378C100.681 36.9262 100.393 35.9572 100.109 34.9611C98.9837 30.896 98.176 27.557 98.3474 27.4965C98.5154 27.4629 99.5785 30.7247 100.701 34.8168C100.985 35.8128 101.245 36.7784 101.486 37.6866C101.596 38.1121 101.78 38.6017 101.551 39.1212C101.433 39.4079 101.14 39.5627 100.915 39.6165C100.663 39.6667 100.448 39.6395 100.283 39.646C98.8154 39.5968 97.9254 39.5113 97.9356 39.4303Z" fill="#29383E"/>
<path d="M93.6286 40.0356C93.8738 40.0393 93.7336 41.5849 94.9478 42.7813C96.1854 44.0081 97.8515 44.0002 97.8512 44.2196C97.8679 44.304 97.4376 44.4688 96.7591 44.4375C96.0537 44.4028 95.0834 44.0877 94.3322 43.334C93.5809 42.5804 93.3136 41.6688 93.3147 41.0106C93.3123 40.3795 93.5245 39.995 93.6286 40.0356Z" fill="#29383E"/>
<path d="M94.5662 22.8474C94.4077 23.2387 93.0007 22.9229 91.3043 22.9544C89.6078 22.986 88.1998 23.3284 88.0257 22.9771C87.9386 22.8015 88.2012 22.4508 88.7862 22.1411C89.3477 21.801 90.2551 21.5321 91.2662 21.5233C92.2807 21.4876 93.1772 21.7385 93.768 22.0329C94.3553 22.3543 94.6437 22.6652 94.5662 22.8474Z" fill="#29383E"/>
<path d="M107.612 25.2439C107.326 25.5642 106.37 25.141 105.187 24.991C104.005 24.8409 103.001 25.0151 102.8 24.6605C102.713 24.4848 102.888 24.1779 103.358 23.9086C103.802 23.6358 104.562 23.4579 105.368 23.5602C106.174 23.6625 106.865 24.0245 107.227 24.3997C107.62 24.7512 107.74 25.0956 107.612 25.2439Z" fill="#29383E"/>
<path d="M109.655 20.7307C109.655 20.7307 107.736 14.7273 105.048 13.0969C101.799 11.1486 100.01 14.734 96.8576 13.5384C93.6784 12.3394 90.5842 10.4656 87.0603 12.6514C83.18 15.0662 84.722 17.1271 84.1243 21.2203C81.7064 37.8091 78.2294 42.2225 78.0538 34.3009C78.0552 33.4234 75.7119 32.5226 75.6807 28.8707C75.6512 24.1218 75.9929 18.3779 77.3585 15.1227C78.4948 12.387 80.278 10.5836 83.3513 8.72463C88.2301 5.75083 94.5009 6.2451 98.7389 7.05732C102.947 7.89313 110.701 13.5127 109.655 20.7307Z" fill="#29383E"/>
<path d="M78.6793 34.106C78.7521 32.6616 77.5985 31.418 76.1775 31.4297C74.4308 31.4274 72.4173 32.2415 72.1866 35.8053C71.8205 42.177 78.2985 41.2439 78.3223 41.0549C78.3359 40.9469 78.5374 36.7485 78.6793 34.106Z" fill="#F7BAA1"/>
<path d="M77.0765 38.5928C77.0531 38.5624 76.9588 38.6601 76.7606 38.7173C76.5857 38.8048 76.2531 38.8449 75.9443 38.6959C75.2696 38.4183 74.7809 37.314 74.8163 36.1665C74.834 35.5928 74.986 35.0361 75.205 34.5976C75.4241 34.1591 75.7639 33.8457 76.0965 33.8056C76.4325 33.7386 76.6774 33.9616 76.7376 34.1338C76.7944 34.3331 76.7539 34.4376 76.8042 34.4714C76.8042 34.4714 76.9253 34.3771 76.9056 34.1003C76.8688 33.9585 76.8053 33.8133 76.6845 33.6883C76.5369 33.5598 76.3019 33.4751 76.0533 33.4984C75.5629 33.491 75.0986 33.9258 74.8459 34.4149C74.5663 34.9005 74.3806 35.5078 74.3527 36.1625C74.3306 37.4214 74.9097 38.6743 75.8263 38.9827C76.2694 39.1486 76.6391 39.031 76.8476 38.8929C77.0595 38.7278 77.1034 38.5962 77.0765 38.5928Z" fill="#F29573"/>
<path d="M79.9246 21.8391C80.6895 22.4848 81.5081 23.1372 82.492 23.3444C83.4793 23.5246 84.6591 23.0435 84.9159 22.0887C85.0241 21.6636 84.9813 21.137 85.2942 20.8201C85.6676 20.4561 86.3022 20.619 86.8328 20.7412C88.6697 21.1115 90.6702 19.9666 91.2977 18.236C91.7232 18.9757 92.8081 19.0311 93.5645 18.6608C94.3243 18.2636 94.8495 17.5622 95.4719 16.9555C96.0909 16.3758 96.918 15.8774 97.7407 16.0641C98.2175 16.1795 98.6134 16.504 99.1038 16.5114C99.9504 16.5092 100.449 15.585 100.635 14.7584C100.845 13.9621 101.021 12.9971 101.781 12.5998C102.453 12.2463 103.286 12.5714 104.054 12.7513C104.797 12.9278 105.818 12.838 106.071 12.1296C106.229 11.7383 106.092 11.3095 105.891 10.9548C105.061 9.31342 102.963 8.41626 101.175 8.9573C100.765 6.79332 98.944 4.99874 96.7881 4.56052C94.6322 4.12229 92.2422 5.10806 91.0301 6.92902C89.8061 5.59424 87.8991 4.91334 86.0949 5.1506C84.2906 5.38786 82.6428 6.5501 81.8139 8.14543C80.2998 7.59668 78.4683 8.04991 77.3949 9.20278C76.2913 10.3792 75.9793 12.2048 76.6388 13.6873C75.4252 14.219 74.3655 15.2639 74.2022 16.5597C74.0624 17.8859 75.2224 19.2949 76.5328 19.0772C75.9199 20.0417 76.2301 21.4799 77.1562 22.146C78.1125 22.7885 79.5304 22.5845 80.2708 21.6911L79.9246 21.8391Z" fill="#29383E"/>
<path d="M76.0764 19.0193C76.0529 18.9889 75.9009 19.5456 76.3566 20.2617C76.5845 20.6198 76.9735 20.9983 77.5544 21.1543C78.1118 21.28 78.8308 21.2066 79.4294 20.7889L79.1373 20.7244C79.4185 21.3087 79.7804 21.9032 80.2902 22.4067C80.602 22.748 80.9476 23.0387 81.3605 23.2283C81.7699 23.4448 82.2536 23.5062 82.6399 23.473C83.4596 23.4673 84.1891 23.0936 84.5796 22.5946C84.9397 22.1192 85.1084 21.6469 85.203 21.3298C85.2976 21.0126 85.3214 20.8237 85.2945 20.8203C85.2676 20.8168 85.1935 20.972 85.0721 21.2857C84.9272 21.569 84.735 22.0109 84.3816 22.4324C83.6749 23.2752 81.6723 23.5696 80.5391 22.164C80.0831 21.6673 79.7144 21.1268 79.4566 20.5729L79.373 20.3703L79.1914 20.5118C78.7373 20.8656 78.1224 20.9796 77.6187 20.8608C77.1419 20.7454 76.7695 20.4513 76.5348 20.1472C76.0689 19.5121 76.1335 18.9992 76.0764 19.0193Z" fill="#3F5E69"/>
<path d="M91.3564 40.7346C91.4639 40.7483 91.5724 40.1038 92.1543 39.6016C92.7397 39.0725 93.3981 39.0464 93.4117 38.9384C93.4151 38.9114 93.2338 38.8335 92.9583 38.8534C92.656 38.8699 92.256 39.0111 91.9163 39.3246C91.5799 39.611 91.3945 39.9989 91.3336 40.2655C91.2693 40.559 91.3261 40.7582 91.3564 40.7346Z" fill="#F29573"/>
<path d="M90.9527 38.9553C91.0568 38.9959 91.2989 38.8073 91.6417 38.6862C91.9846 38.5652 92.3138 38.5521 92.3274 38.4441C92.3645 38.3665 91.9785 38.1804 91.5214 38.3418C91.0643 38.5032 90.8789 38.8911 90.9527 38.9553Z" fill="#F29573"/>
<path d="M107.003 4.95187C107.036 4.90129 107.657 5.39149 108.035 6.50915C108.212 7.05277 108.372 7.73138 108.354 8.52451C108.34 9.29063 108.009 10.1812 107.38 10.8419C106.751 11.5026 105.937 11.8931 105.225 12.1317C104.485 12.367 103.817 12.4742 103.255 12.5949C102.14 12.7825 101.444 12.8862 101.451 12.8322C101.434 12.7478 102.086 12.5563 103.185 12.2843C103.75 12.1366 104.398 11.972 105.084 11.7299C105.77 11.4878 106.499 11.1141 107.065 10.5276C107.603 9.93769 107.886 9.20566 107.921 8.49693C107.986 7.76462 107.876 7.11983 107.726 6.57962C107.425 5.49919 106.969 5.00245 107.003 4.95187Z" fill="#E0E0E0"/>
<path d="M110.513 9.59408C110.566 9.60091 110.542 10.0093 110.303 10.6097C110.063 11.2102 109.535 11.9385 108.724 12.5213C107.914 13.1041 107.037 13.3494 106.378 13.3755C105.743 13.4321 105.351 13.2999 105.357 13.2459C105.364 13.1919 105.747 13.1857 106.335 13.0683C106.923 12.951 107.723 12.6685 108.443 12.1564C109.193 11.6208 109.711 10.9734 110.021 10.4642C110.304 9.95157 110.432 9.58385 110.513 9.59408Z" fill="#E0E0E0"/>
</svg>
