<svg width="1080" height="434" viewBox="0 0 1080 434" fill="none" xmlns="http://www.w3.org/2000/svg">
<path d="M119.192 415.146L0.226662 434V415.146H119.192Z" fill="#D6D6D6"/>
<path d="M200 415H0V401H200V415Z" fill="#E6E6E6"/>
<path d="M-1.90735e-05 415H37.3737V401H-1.90735e-05V415Z" fill="#C7C6C6"/>
<path d="M559.192 301.146L440.227 320V301.146H559.192Z" fill="#D6D6D6"/>
<path d="M640 301H440V287H640V301Z" fill="#E6E6E6"/>
<path d="M440 301H477.374V287H440V301Z" fill="#C7C6C6"/>
<path d="M999.192 187.146L880.227 206V187.146H999.192Z" fill="#D6D6D6"/>
<path d="M1080 187H880V173H1080V187Z" fill="#E6E6E6"/>
<path d="M880 187H917.374V173H880V187Z" fill="#C7C6C6"/>
<path fill-rule="evenodd" clip-rule="evenodd" d="M749.089 96.5691C745.483 80.7802 731.12 67.704 707.787 64.6255C695.454 62.9795 683.03 64.3207 670.363 68.0698C651.546 73.5868 636.091 82.9138 622.334 93.9783C614.668 100.044 607.88 106.536 601.668 113.272C601.153 113.852 600.91 114.461 600.638 114.979C600.365 114.888 600.153 114.796 599.91 114.705L601.516 112.48C614.062 95.1365 626.334 77.6102 636.97 59.6876C641.909 51.5189 646.455 43.2281 648.546 34.6326C649.758 29.4814 650.152 24.3912 649.061 19.6057C648.515 17.2892 647.637 15.0032 646.334 12.839C640.455 3.14622 629.304 -0.785776 613.91 0.128641C602.001 0.860174 590.88 4.54832 580.305 9.36425C564.487 16.5577 551.245 25.8542 539.488 36.3395C518.488 54.7193 499.67 74.044 481.61 93.8563C465.307 111.627 449.884 129.701 435.308 148.081C435.005 148.508 434.702 148.843 434.005 149.209C434.035 148.813 434.187 148.325 434.338 147.837L451.55 94.405C455.186 82.2433 457.126 70.0815 457.005 58.0417C456.974 52.6466 456.58 47.3125 455.399 42.1918C454.156 36.7053 452.005 31.4017 448.49 26.4638C440.157 14.7898 426.672 7.93166 407.278 7.47445C394.885 7.23061 383.127 10.4006 371.794 15.3994C357.128 21.8308 344.856 30.152 333.432 39.3571C314.674 54.384 299.432 70.9959 285.948 88.2784C252.282 131.225 231.04 176.093 221.283 222.484C219.737 229.83 219.495 237.054 221.071 243.973C221.404 245.467 221.858 246.991 222.374 248.484C228.949 266.955 244.312 278.965 271.888 280.794C295.614 282.379 316.19 274.758 333.583 260.615C341.098 254.489 346.613 247.631 350.977 240.315C351.28 239.889 351.674 239.34 352.158 238.487C352.219 241.687 352.189 244.43 352.431 247.204C352.613 249.124 352.916 251.014 353.34 252.873C354.492 257.994 356.5 264 360.764 267.016C366.5 272.5 381.643 273.762 396.461 273C414.218 272.086 429.702 271.192 444.247 262.444C459.52 253.453 472.035 242.784 481.58 230.501C481.671 230.318 481.792 230.287 482.337 229.8C482.125 230.592 482.095 231.049 481.943 231.537C480.913 235.652 480.489 239.706 481.398 243.638C481.58 244.4 482.095 245.924 482.095 245.924C482.46 246.683 484.974 259.792 527.639 241.809C570.305 223.795 698.969 163.443 738.059 137.962C745.725 127.324 749.937 116.381 749.998 105.134C750.028 102.208 749.725 99.3428 749.089 96.5691Z" fill="white"/>
<path d="M779.192 244.146L660.227 263V244.146H779.192Z" fill="#D6D6D6"/>
<path d="M860 244H660V230H860V244Z" fill="#E6E6E6"/>
<path d="M660 244H697.374V230H660V244Z" fill="#C7C6C6"/>
<path d="M374.067 319.994C374.095 319.881 374.124 319.738 374.124 319.596C374.124 315.445 359.224 301.967 359.224 301.967L367.356 283.542L349.243 276.234L337.728 305.521L374.067 319.994Z" fill="#892E34"/>
<path d="M337.727 305.521L339.007 302.592L373.356 317.577C373.356 317.577 374.692 318.942 374.067 319.994L337.727 305.521Z" fill="#29383E"/>
<path d="M303.379 309.672L293.199 327.046C293.199 327.046 307.473 343.253 305.881 346.665L271.447 328.126L286.205 300.346L303.379 309.672Z" fill="#EA5563"/>
<path d="M305.881 346.666C305.966 346.467 306.023 346.268 306.023 346.04C306.023 341.633 293.199 327.046 293.199 327.046L299.37 316.525L281.456 309.303L271.447 328.127L305.881 346.666Z" fill="#892E34"/>
<path d="M271.447 328.127L273.039 325.368L305.483 344.164C305.483 344.164 306.649 345.671 305.881 346.666L271.447 328.127Z" fill="#29383E"/>
<path d="M308.383 238.785C308.241 238.814 308.838 241.373 309.72 244.472C310.629 247.6 311.454 250.102 311.568 250.045C311.71 250.017 311.113 247.458 310.231 244.359C309.322 241.231 308.497 238.729 308.383 238.785Z" fill="#3F5E69"/>
<path d="M304.829 255.079C304.886 255.107 305.426 254.481 306.109 253.316C306.791 252.15 307.53 250.387 307.985 248.368C308.412 246.321 308.44 244.444 308.298 243.079C308.156 241.743 307.9 240.947 307.843 240.947C307.672 240.947 308.355 244.273 307.502 248.254C306.677 252.264 304.687 254.993 304.829 255.079Z" fill="#3F5E69"/>
<path d="M356.494 167.074C357.29 167.33 402.586 213.166 401.591 221.412C400.567 229.63 368.294 290.593 368.294 290.593L345.291 279.248L366.873 225.82L366.588 222.493L340.201 200.883L341.623 166.108L356.494 167.074Z" fill="#36484F"/>
<path d="M346.713 176.116C346.173 176.912 338.325 248.908 336.249 252.633C334.145 256.358 302.611 317.833 302.611 317.833L279.21 308.393L307.786 240.833L304.516 176.912L306.279 158.857L341.623 166.107L346.713 176.116Z" fill="#36484F"/>
<path d="M340.031 286.669C340.031 288.688 338.382 290.337 336.363 290.337C334.344 290.337 332.723 288.688 332.723 286.669C332.723 284.65 334.344 283.03 336.363 283.03C338.382 283.03 340.031 284.65 340.031 286.669Z" fill="#EBECEC"/>
<path d="M374.436 218.057C374.379 217.943 372.474 218.711 370.654 220.417C368.806 222.095 367.839 223.886 367.953 223.943C368.067 224.028 369.204 222.407 370.996 220.787C372.759 219.137 374.493 218.199 374.436 218.057Z" fill="#3F5E69"/>
<path d="M370.882 215.924C370.768 215.839 369.631 216.862 368.636 218.455C367.641 220.047 367.242 221.554 367.385 221.583C367.527 221.639 368.095 220.275 369.062 218.711C370.029 217.175 370.967 216.038 370.882 215.924Z" fill="#3F5E69"/>
<path d="M336.647 251.382C336.675 251.382 336.704 251.126 336.789 250.643C336.874 250.131 336.988 249.448 337.13 248.567C337.415 246.719 337.813 244.103 338.296 240.918C339.234 234.378 340.514 225.478 341.936 215.611C343.301 205.745 344.523 196.816 345.433 190.305C345.86 187.092 346.201 184.476 346.428 182.628C346.542 181.746 346.627 181.064 346.684 180.523C346.741 180.04 346.741 179.784 346.741 179.784C346.713 179.784 346.656 180.04 346.57 180.523C346.485 181.035 346.371 181.718 346.229 182.599C345.945 184.447 345.575 187.063 345.092 190.248C344.154 196.759 342.846 205.688 341.452 215.555C340.087 225.421 338.836 234.35 337.955 240.861C337.528 244.074 337.187 246.69 336.931 248.538C336.846 249.42 336.761 250.102 336.704 250.643C336.647 251.126 336.618 251.382 336.647 251.382Z" fill="#3F5E69"/>
<path d="M312.165 142.08C312.137 142.08 311.966 142.45 311.739 143.189C311.483 143.9 311.113 144.924 310.658 146.175C309.72 148.734 308.27 152.174 306.393 155.814C304.488 159.482 302.526 162.667 301.047 164.913C300.308 166.05 299.682 166.96 299.256 167.586C298.829 168.183 298.602 168.552 298.63 168.581C298.659 168.581 298.943 168.268 299.426 167.699C299.881 167.102 300.564 166.221 301.332 165.112C302.895 162.894 304.914 159.738 306.819 156.041C308.724 152.373 310.146 148.876 310.999 146.317C311.426 145.009 311.739 143.957 311.909 143.246C312.108 142.507 312.193 142.08 312.165 142.08Z" fill="#29383E"/>
<path d="M305.17 172.676C302.412 172.42 299.825 170.799 298.431 168.411C298.261 168.155 298.118 167.785 298.318 167.558C298.46 167.387 298.716 167.387 298.915 167.387C301.104 167.358 303.265 167.728 305.312 168.467C305.54 168.553 305.796 168.666 305.881 168.894C305.966 169.065 305.909 169.264 305.853 169.434C305.597 170.486 305.312 171.538 305.056 172.59L305.17 172.676Z" fill="#EA5563"/>
<path d="M305.17 172.676L305.056 172.59C305.284 171.624 305.54 170.657 305.796 169.69C305.824 169.605 305.853 169.519 305.853 169.434C305.881 169.32 305.909 169.207 305.909 169.093C305.909 169.036 305.909 168.951 305.881 168.894C305.796 168.666 305.54 168.553 305.312 168.467C303.322 167.756 301.189 167.358 299.085 167.358C299.028 167.358 298.972 167.358 298.915 167.387C298.716 167.387 298.46 167.387 298.318 167.557C298.261 167.643 298.232 167.728 298.232 167.842C298.232 168.041 298.318 168.24 298.431 168.41C299.256 169.861 300.535 171.026 302.042 171.766C303.009 172.249 304.09 172.59 305.17 172.676Z" fill="#A3353D"/>
<path d="M299.085 166.818C299.171 166.818 299.228 166.818 299.313 166.79C299.739 166.704 300.052 166.335 300.308 165.993C300.536 165.681 300.791 165.311 301.047 164.913C302.526 162.667 304.488 159.482 306.393 155.814C308.156 152.373 309.549 149.132 310.488 146.63C310.63 146.175 310.772 145.691 310.914 145.236L311.085 144.554C308.554 149.047 305.966 153.625 302.128 157.037C300.791 158.259 299.256 159.34 298.232 160.818C297.209 162.325 296.754 164.401 297.721 165.937C298.033 166.42 298.545 166.818 299.085 166.818Z" fill="#BE3E45"/>
<path d="M300.308 165.994C300.336 165.994 300.336 165.965 300.365 165.965C304.829 160.193 308.298 153.625 310.487 146.63C309.549 149.132 308.156 152.373 306.393 155.814C304.488 159.482 302.526 162.667 301.047 164.913C300.791 165.311 300.535 165.681 300.308 165.994Z" fill="#242C2F"/>
<path d="M370.91 54.7301C370.91 54.7301 365.28 54.3889 359.906 49.8394C359.906 49.8394 361.84 56.7489 370.74 57.2039L370.91 54.7301Z" fill="#F39772"/>
<path d="M350.95 26.3241C350.807 26.2388 345.149 23.6797 344.495 29.7362C343.841 35.7927 350.04 35.1956 350.068 35.025C350.097 34.8544 350.95 26.3241 350.95 26.3241Z" fill="#F7B8A0"/>
<path d="M348.476 32.5228C348.447 32.4943 348.362 32.5796 348.163 32.6365C347.992 32.7218 347.68 32.7218 347.395 32.5796C346.77 32.2669 346.343 31.2148 346.428 30.1059C346.485 29.5656 346.656 29.0538 346.883 28.6273C347.111 28.2008 347.452 27.9448 347.765 27.9164C348.106 27.8595 348.305 28.087 348.362 28.2576C348.419 28.4567 348.362 28.5704 348.39 28.5704C348.419 28.5988 348.533 28.4851 348.533 28.2292C348.504 28.1155 348.447 27.9448 348.334 27.8311C348.191 27.6889 347.992 27.6036 347.765 27.6036C347.281 27.6036 346.827 27.9733 346.571 28.4282C346.258 28.8832 346.059 29.4519 346.002 30.0774C345.917 31.3001 346.428 32.4943 347.253 32.864C347.68 33.0062 348.049 32.9209 348.248 32.8071C348.447 32.665 348.504 32.5512 348.476 32.5228Z" fill="#F39772"/>
<path d="M347.822 65.6202L370.143 67.3547L370.882 54.8436C370.882 54.8436 379.896 54.7299 381.232 45.9152C382.597 37.129 383.905 16.6847 383.905 16.6847C374.322 10.8557 362.352 10.685 352.599 16.2297L351.148 17.0543L347.822 65.6202Z" fill="#F7B8A0"/>
<path d="M370.91 62.5208L369.915 97.4951L348.163 50.6352L348.703 46.2848L370.91 62.5208Z" fill="#EBECEC"/>
<path d="M367.754 110.888L361.954 139.635L357.233 179.727C357.233 179.727 337.813 177.026 329.51 174.41C319.899 171.368 299 168.78 299 168.78L302.526 172.249C295.048 170.173 290.299 163.008 290.299 163.008C303.18 151.065 314.184 126.47 314.184 126.47L323.965 77.7901C323.965 77.7901 325.472 70.9375 326.354 67.8665C327.264 64.8241 342.135 54.9858 344.211 53.7347L345.519 53.1091L345.917 49.2136L347.452 48.3037L363.574 62.919C366.702 65.7908 368.692 69.6579 369.176 73.8662C369.659 78.302 370.114 84.6712 369.858 92.1779C369.688 97.8932 367.754 110.888 367.754 110.888Z" fill="#EA5563"/>
<path d="M388.426 134.375C388.568 134.375 388.653 130.422 388.625 125.56C388.597 120.669 388.454 116.717 388.312 116.717C388.199 116.717 388.085 120.669 388.113 125.56C388.142 130.422 388.284 134.375 388.426 134.375Z" fill="#29383E"/>
<path d="M353.366 140.943C356.267 140.943 359.025 140.573 361.954 139.635L362.522 136.706C362.522 136.706 356.978 137.104 352.627 137.104C351.319 137.104 350.125 137.076 349.215 136.962C348.305 136.877 347.367 136.82 346.514 136.536C345.092 136.394 344.21 136.166 343.983 135.853C343.244 134.858 342.504 131.446 341.794 127.095C340.571 121.153 339.832 113.76 339.462 109.182C339.32 107.76 339.178 106.424 339.035 105.201C338.097 107.988 336.761 112.935 337.187 115.665C337.614 118.508 338.325 121.323 338.495 124.195C338.666 127.494 338.154 130.934 339.405 134.005C341.026 138.014 345.405 140.374 349.727 140.772C350.978 140.886 352.172 140.943 353.366 140.943Z" fill="#BE3E45"/>
<path d="M346.514 136.535C346.03 136.393 345.604 136.194 345.234 135.881C344.296 135.114 343.756 133.976 343.329 132.867C342.732 131.275 342.22 129.285 341.794 127.095C342.505 131.446 343.244 134.858 343.983 135.853C344.211 136.166 345.092 136.393 346.514 136.535ZM339.462 109.182C339.263 106.566 339.149 104.86 339.149 104.86C339.121 104.973 339.092 105.087 339.036 105.201C339.178 106.424 339.32 107.76 339.462 109.182Z" fill="#BE3E45"/>
<path d="M356.693 61.0992C356.693 61.0992 365.195 65.6771 366.673 69.5442C368.152 73.4113 363.745 115.864 363.745 115.864L394.312 116.432L394.425 134.659C394.425 134.659 345.86 138.497 343.983 135.853C341.424 132.299 338.467 99.1444 338.467 99.1444L337.358 75.2595C337.358 75.2595 340.173 57.0615 356.693 61.0992Z" fill="#EA5563"/>
<path d="M391.667 119.475C391.724 119.447 391.412 119.105 390.843 119.304C390.558 119.39 390.246 119.702 390.217 120.129C390.189 120.527 390.388 120.982 390.843 121.209C391.298 121.408 391.781 121.266 392.066 120.982C392.378 120.698 392.435 120.3 392.35 120.015C392.236 119.447 391.81 119.333 391.81 119.39C391.753 119.447 392.009 119.646 392.009 120.072C392.009 120.271 391.952 120.499 391.753 120.641C391.582 120.783 391.269 120.84 391.042 120.754C390.814 120.641 390.672 120.385 390.672 120.129C390.672 119.901 390.814 119.731 390.985 119.617C391.326 119.418 391.639 119.56 391.667 119.475Z" fill="#29383E"/>
<path d="M323.851 81.9698C323.851 81.9698 307.928 102.755 305.995 108.414C304.061 114.101 305.568 122.233 308.81 126.1C312.051 129.995 314.639 128.432 314.639 128.432L323.851 81.9698Z" fill="#EA5563"/>
<path d="M315.207 126.754C315.207 126.896 316.97 127.294 319.217 127.693C321.435 128.062 323.254 128.261 323.283 128.119C323.311 128.005 321.52 127.579 319.302 127.181C317.056 126.811 315.236 126.612 315.207 126.754Z" fill="#29383E"/>
<path d="M313.189 128.346L314.639 126.242L322.515 85.0977L320.951 90.8698C318.932 99.1442 316.629 105.997 313.217 113.589C312.108 116.034 310.885 118.48 310.573 121.152C310.231 123.797 310.999 126.782 313.189 128.346Z" fill="#BE3E45"/>
<path d="M311.454 132.47C311.454 132.498 311.539 132.356 311.71 132.072C311.881 131.759 312.08 131.361 312.336 130.877C312.904 129.768 313.672 128.261 314.61 126.413L314.639 126.385V126.356C315.634 121.807 317.027 115.153 318.563 107.789C319.984 100.822 321.264 94.5098 322.202 89.8465C322.629 87.6286 322.97 85.7804 323.254 84.4156C323.34 83.8184 323.425 83.3351 323.51 82.937C323.567 82.5958 323.567 82.4252 323.567 82.3967C323.539 82.3967 323.482 82.5673 323.397 82.9085C323.311 83.3066 323.197 83.79 323.055 84.3871C322.743 85.7235 322.344 87.5433 321.861 89.7897C320.866 94.4245 319.529 100.708 318.079 107.675C316.544 115.068 315.207 121.721 314.298 126.299L314.326 126.271C313.416 128.148 312.705 129.683 312.165 130.792C311.937 131.304 311.767 131.702 311.625 132.043C311.483 132.327 311.426 132.47 311.454 132.47Z" fill="#29383E"/>
<path d="M337.415 77.8469C337.415 77.8469 337.415 77.9891 337.415 78.2734C337.415 78.5862 337.443 79.0127 337.443 79.553C337.5 80.6904 337.585 82.3396 337.699 84.4153C337.813 86.5478 337.927 89.1354 338.097 92.1494C338.268 95.135 338.382 98.5756 338.751 102.357C339.064 106.111 339.462 110.262 339.945 114.698C340.429 119.105 340.969 123.854 341.794 128.801C342.05 130.052 342.249 131.275 342.647 132.555C343.073 133.777 343.784 134.972 344.836 135.853C345.888 136.706 347.253 137.303 348.646 137.218C350.011 137.246 351.348 137.189 352.712 137.189C358.172 137.047 363.802 136.763 369.574 136.45C378.246 135.967 386.635 135.426 394.426 134.886H394.653V134.659C394.625 128.176 394.568 122.091 394.539 116.461V116.262H394.34C382.142 115.977 371.962 115.778 364.825 115.608C361.3 115.551 358.513 115.494 356.579 115.466C355.641 115.466 354.93 115.466 354.418 115.466C353.907 115.466 353.679 115.466 353.679 115.466C353.679 115.466 353.907 115.494 354.418 115.522C354.93 115.551 355.641 115.579 356.579 115.608C358.513 115.665 361.3 115.75 364.825 115.864C371.962 116.063 382.114 116.347 394.34 116.688L394.113 116.461C394.141 122.091 394.141 128.176 394.17 134.659L394.397 134.403C386.578 134.943 378.218 135.483 369.546 135.967C363.773 136.28 358.143 136.564 352.712 136.706C351.348 136.706 349.983 136.734 348.675 136.706C347.367 136.82 346.144 136.251 345.149 135.483C344.182 134.687 343.5 133.578 343.102 132.384C342.704 131.218 342.504 129.939 342.277 128.716C341.424 123.797 340.884 119.077 340.372 114.641C339.86 110.205 339.462 106.082 339.092 102.3C338.723 98.5471 338.581 95.1066 338.382 92.121C338.182 89.1069 338.012 86.5478 337.898 84.4153C337.756 82.3111 337.642 80.6904 337.557 79.553C337.528 79.0127 337.472 78.5862 337.472 78.2734C337.443 77.9891 337.415 77.8469 337.415 77.8469Z" fill="#29383E"/>
<path d="M393.942 118.565C393.942 118.565 400.539 113.561 402.131 113.276C403.382 113.049 410.718 113.162 414.102 113.219C415.41 113.248 416.548 114.271 416.548 115.579L416.519 115.807C416.263 117.2 414.898 117.485 414.898 117.485C414.898 117.485 416.661 117.996 416.69 119.901C416.718 121.807 414.415 122.205 414.415 122.205C414.415 122.205 414.529 122.318 414.728 122.517C416.007 123.768 415.353 125.93 413.619 126.328L412.567 126.555C412.567 126.555 413.988 127.152 413.96 128.46C413.932 130.991 408.273 131.474 408.273 131.474C408.273 131.474 394.283 133.664 393.999 133.578C393.686 133.465 393.942 118.565 393.942 118.565Z" fill="#F7B8A0"/>
<path d="M406.738 127.38C406.766 127.522 408.103 127.465 409.752 127.266C411.429 127.038 412.737 126.782 412.737 126.64C412.709 126.498 411.344 126.555 409.695 126.754C408.046 126.953 406.709 127.237 406.738 127.38Z" fill="#F39772"/>
<path d="M402.387 124.934C402.33 124.906 402.217 125.077 402.245 125.389C402.245 125.674 402.387 126.1 402.643 126.441C403.212 127.124 403.866 127.38 403.951 127.295C404.036 127.181 403.525 126.726 403.041 126.129C402.586 125.56 402.529 124.934 402.387 124.934Z" fill="#F39772"/>
<path d="M407.903 122.546C407.932 122.688 409.439 122.745 411.259 122.688C413.107 122.631 414.614 122.461 414.614 122.318C414.614 122.176 413.107 122.119 411.259 122.176C409.41 122.233 407.903 122.404 407.903 122.546Z" fill="#F39772"/>
<path d="M403.468 120.47C403.411 120.442 403.269 120.612 403.24 120.897C403.212 121.21 403.269 121.664 403.581 122.034C403.894 122.432 404.292 122.603 404.605 122.631C404.918 122.688 405.088 122.603 405.088 122.546C405.088 122.404 404.406 122.318 403.979 121.75C403.524 121.181 403.581 120.499 403.468 120.47Z" fill="#F39772"/>
<path d="M408.757 117.627C408.757 117.741 410.122 117.996 411.828 117.94C413.562 117.854 414.898 117.542 414.87 117.399C414.87 117.257 413.505 117.371 411.828 117.428C410.15 117.485 408.785 117.456 408.757 117.627Z" fill="#F39772"/>
<path d="M404.804 117.058C404.69 117.143 404.832 117.542 405.287 117.826C405.714 118.11 406.169 118.082 406.197 117.94C406.197 117.797 405.884 117.627 405.543 117.428C405.202 117.2 404.918 116.973 404.804 117.058Z" fill="#F39772"/>
<path d="M412.823 110.262C412.737 111.087 412.567 112.85 411.145 113.646L403.354 113.333C403.354 113.333 409.155 111.342 409.979 110.347C410.264 110.006 410.662 109.58 411.088 109.267C411.827 108.727 412.879 109.352 412.823 110.262Z" fill="#F7B8A0"/>
<path d="M407.022 113.276C407.022 113.39 408.614 113.561 410.576 113.504C412.538 113.475 414.131 113.418 414.131 113.276C414.131 113.134 412.538 112.963 410.576 113.02C408.614 113.049 407.022 113.134 407.022 113.276Z" fill="#F39772"/>
<path d="M364.285 115.835C364.313 115.864 364.399 115.323 364.513 114.328C364.626 113.276 364.797 111.883 364.967 110.205C365.337 106.736 365.792 101.902 366.247 96.5851C366.73 91.2679 367.128 86.4341 367.413 82.9366C367.527 81.259 367.612 79.8657 367.697 78.8137C367.754 77.8185 367.754 77.2782 367.726 77.2782C367.697 77.2782 367.612 77.8185 367.498 78.7852C367.384 79.8657 367.214 81.2306 367.043 82.9082C366.702 86.4056 366.219 91.211 365.764 96.5567C365.28 101.874 364.882 106.679 364.626 110.177C364.484 111.854 364.399 113.248 364.313 114.328C364.257 115.295 364.257 115.835 364.285 115.835Z" fill="#29383E"/>
<path d="M354.162 62.777C354.134 62.8623 355.072 63.1466 356.466 63.8291C357.887 64.5399 359.736 65.7057 361.413 67.4118C363.091 69.1178 364.257 70.9661 364.911 72.3878C365.593 73.8095 365.877 74.7478 365.963 74.7194C365.991 74.7194 365.934 74.4635 365.849 74.037C365.735 73.582 365.536 72.9849 365.252 72.2456C364.626 70.767 363.489 68.8051 361.754 67.0421C360.048 65.3076 358.115 64.1418 356.636 63.5163C355.897 63.2035 355.271 63.0045 354.845 62.8907C354.39 62.777 354.162 62.7485 354.162 62.777Z" fill="#29383E"/>
<path d="M370.91 62.521C370.91 62.521 374.123 73.2692 373.242 72.6721C372.36 72.0465 370.455 70.3404 370.455 70.3404L370.91 62.521Z" fill="#EBECEC"/>
<path d="M370.74 67.4685L372.503 71.6484C372.673 72.1033 372.787 72.5583 372.844 73.0132C372.986 74.179 373.157 76.34 372.446 76.4822C371.479 76.6812 370.569 75.7145 370.569 75.7145L370.74 67.4685Z" fill="#29383E"/>
<path d="M316.373 68.1223C316.373 68.1223 333.519 61.4402 343.016 67.3546C352.513 73.2689 354.248 82.6807 359.906 82.6807C370.91 82.6807 370.569 74.8897 370.569 74.8897L372.901 75.6005C372.958 77.1929 375.46 88.6519 363.859 90.0452C352.229 91.4669 347.338 75.629 336.874 75.6005C326.439 75.6005 318.506 81.259 318.506 81.259L310.971 76.5104L316.373 68.1223Z" fill="#29383E"/>
<path d="M360.361 89.8747C360.361 89.8747 356.096 87.6853 353.765 82.2828C351.092 76.141 345.376 69.1177 340.599 67.3547C335.822 65.5918 324.762 64.3691 317.141 69.3167L312.25 75.9419L318.591 80.0365C318.591 80.0365 323.624 77.2783 329.794 75.5723C337.671 73.3544 342.476 75.8566 347.054 80.2071C347.338 80.463 347.594 80.7189 347.822 81.0032C348.988 82.3112 352.172 85.3537 355.073 87.4294C357.319 89.0217 359.366 89.8747 360.361 89.8747Z" fill="#3F5E69"/>
<path d="M352.542 59.2509C352.627 59.1371 351.205 57.9145 349.585 56.2937C347.964 54.673 346.741 53.2512 346.627 53.3365C346.514 53.4218 347.566 54.9857 349.215 56.6634C350.893 58.3125 352.456 59.3646 352.542 59.2509Z" fill="#29383E"/>
<path d="M380.55 24.8455C380.265 25.1298 379.384 24.6749 378.275 24.5043C377.138 24.2768 376.171 24.419 376 24.0493C375.915 23.9072 376.114 23.5944 376.569 23.3669C377.024 23.1394 377.735 22.9973 378.502 23.1394C379.27 23.2532 379.896 23.6513 380.237 24.0209C380.606 24.3906 380.692 24.7033 380.55 24.8455Z" fill="#29383E"/>
<path d="M368.238 21.9736C368.067 22.3148 366.731 21.9451 365.11 21.9167C363.517 21.8598 362.153 22.1442 361.982 21.7745C361.925 21.6039 362.181 21.2911 362.75 21.0068C363.318 20.7224 364.2 20.495 365.167 20.5234C366.133 20.5518 366.986 20.8362 367.527 21.149C368.067 21.4617 368.323 21.8029 368.238 21.9736Z" fill="#29383E"/>
<path d="M388.995 11.7088C389.222 10.6283 388.995 9.40557 388.199 8.63785C387.402 7.87012 386.009 7.72795 385.185 8.43881C385.782 7.04552 384.815 5.16886 383.308 4.85608C381.886 4.57173 380.521 5.48163 379.071 5.65224C377.678 5.85128 376.256 5.31103 375.034 4.60017C373.782 3.88931 372.673 3.00784 371.422 2.32542C368.806 0.932137 365.65 0.619359 362.807 1.47239C359.963 2.32542 357.49 4.31583 356.096 6.93179C354.248 6.05032 351.916 6.73275 350.495 8.1829C349.073 9.66148 348.476 11.7656 348.419 13.7845C348.391 15.1777 348.59 16.5426 348.874 17.879C348.874 17.9927 348.845 18.1065 348.817 18.2202C348.22 23.0825 347.964 28.8547 350.04 29.1674C353.622 29.7361 353.736 22.8266 353.736 22.8266C358.399 21.7461 357.689 14.8934 358.911 14.0404C360.162 13.1873 362.807 11.1685 371.394 17.1966C374.749 19.5566 379.526 20.1538 382.227 19.9263H382.455H382.512L382.597 19.8979C383.45 19.8125 384.303 19.5851 385.099 19.2154C386.038 18.8173 386.891 18.1918 387.374 17.3388C387.857 16.4573 387.886 15.2631 387.26 14.4953C388.056 13.7276 388.739 12.7893 388.995 11.7088Z" fill="#29383E"/>
<path d="M366.532 38.3232C366.759 38.3516 366.56 39.8302 367.669 41.0244C368.778 42.2471 370.37 42.304 370.342 42.5315C370.37 42.6168 369.972 42.7589 369.29 42.6736C368.636 42.6168 367.726 42.2756 367.043 41.5363C366.361 40.7685 366.162 39.8871 366.19 39.2615C366.219 38.636 366.446 38.2947 366.532 38.3232Z" fill="#29383E"/>
<path d="M380.095 30.5323C380.038 31.1863 379.412 31.6696 378.702 31.6128C378.019 31.5559 377.507 30.9872 377.564 30.3048C377.649 29.6508 378.275 29.139 378.957 29.1958C379.668 29.2527 380.18 29.8498 380.095 30.5323Z" fill="#29383E"/>
<path d="M366.93 28.9967C366.873 29.6792 366.247 30.1625 365.536 30.1057C364.854 30.0488 364.342 29.4517 364.399 28.7693C364.484 28.1153 365.11 27.6319 365.792 27.6887C366.503 27.7456 367.015 28.3427 366.93 28.9967Z" fill="#29383E"/>
<path d="M380.493 28.8264C380.322 28.9685 379.469 28.1439 378.104 27.9449C376.768 27.7459 375.659 28.3145 375.545 28.1155C375.488 28.0302 375.687 27.7743 376.171 27.5184C376.626 27.2625 377.393 27.0634 378.246 27.1772C379.1 27.2909 379.753 27.7174 380.123 28.0871C380.493 28.4567 380.578 28.7695 380.493 28.8264Z" fill="#29383E"/>
<path d="M370.655 37.9539C370.655 37.8686 371.536 37.8401 372.901 37.8686C373.27 37.8686 373.612 37.8686 373.697 37.6411C373.811 37.3852 373.725 36.9871 373.612 36.5606C373.384 35.6791 373.185 34.7692 372.958 33.8025C372.048 29.8501 371.451 26.6086 371.621 26.5801C371.792 26.5517 372.645 29.7364 373.526 33.6603C373.754 34.6555 373.953 35.5654 374.124 36.4469C374.209 36.8734 374.379 37.3568 374.124 37.8401C373.981 38.0961 373.725 38.2382 373.498 38.2667C373.242 38.2951 373.071 38.2667 372.872 38.2667C371.508 38.1529 370.655 38.0392 370.655 37.9539Z" fill="#29383E"/>
<path d="M367.157 27.2338C366.987 27.3476 366.105 26.523 364.769 26.3239C363.404 26.1249 362.323 26.6936 362.21 26.4945C362.124 26.4092 362.323 26.1533 362.807 25.8974C363.29 25.6415 364.058 25.4425 364.911 25.5562C365.735 25.6699 366.418 26.0965 366.759 26.4661C367.129 26.8357 367.243 27.1485 367.157 27.2338Z" fill="#29383E"/>
<path d="M339.192 358.146L220.227 377V358.146H339.192Z" fill="#D6D6D6"/>
<path d="M420 358H220V344H420V358Z" fill="#E6E6E6"/>
<path d="M220 358H257.374V344H220V358Z" fill="#C7C6C6"/>
<path d="M928.335 41.0269C936.989 42.3504 943.322 35.1314 945.353 28.6823C947.214 22.7386 948.108 16.5543 950.719 10.8994C954.393 3.00656 964.086 -0.651092 972.812 0.0948774C981.514 0.816783 990.289 5.17228 998 9.26308L995.873 56.8126C995.873 56.8126 979.097 39.0296 971.024 38.7168C957.584 38.1634 958.309 60.1815 945.256 63.4301C945.256 63.4301 926.933 68.3871 914.557 52.4571C906.677 42.3504 906 30.078 906 30.078C906 30.078 912.019 38.5243 928.335 41.0269Z" fill="#C52552"/>
<path d="M997.997 1.45813C997.875 1.45813 995.48 51.7353 992.669 113.725C989.858 175.739 990.315 172.957 990.412 172.981C990.535 172.981 990.298 175.763 993.109 113.749C995.919 51.7353 998.095 1.48208 997.997 1.45813Z" fill="#29383E"/>
<path d="M941.31 55.4104C942.179 55.4104 942.931 55.137 943.636 54.3416C944.623 53.1983 945.939 51.8313 946.691 50.4891C950.521 43.5545 952.425 33.6621 952.73 25.8576V24.7888C951.579 29.387 948.97 35.5263 946.55 39.5528C944.13 43.5545 940.464 46.9348 936.046 47.9041C935.247 48.0781 934.425 48.1776 933.696 48.5504C932.968 48.9232 932.31 49.644 932.286 50.4891C932.263 51.7816 933.508 52.6266 934.613 53.1983C936.163 53.9937 937.738 54.8139 939.43 55.1619C940.111 55.2861 940.722 55.4104 941.31 55.4104Z" fill="#D8434D"/>
<path d="M941.048 55.4061C941.071 55.4296 941.184 55.3593 941.41 55.1953C941.636 55.0547 941.975 54.7969 942.382 54.4689C943.195 53.7893 944.28 52.688 945.364 51.0946C946.449 49.5246 947.488 47.486 948.347 45.0959C949.205 42.6824 949.906 39.9877 950.561 37.129C951.849 31.4115 952.414 26.0924 952.617 22.2495C952.73 20.328 952.73 18.7815 952.73 17.7036C952.73 17.2115 952.708 16.7897 952.708 16.4617C952.708 16.1805 952.685 16.0399 952.662 16.0399C952.662 16.0399 952.64 16.1805 952.64 16.4617C952.617 16.7897 952.595 17.2115 952.572 17.7036C952.527 18.7815 952.482 20.328 952.346 22.2495C952.052 26.0689 951.442 31.3412 950.177 37.0352C949.522 39.8705 948.844 42.5887 948.008 44.9554C947.172 47.322 946.178 49.3606 945.138 50.9306C944.099 52.524 943.037 53.6253 942.269 54.3517C941.5 55.0547 941.026 55.3827 941.048 55.4061Z" fill="#29383E"/>
<path d="M979.889 35.7398L981.4 26.1066L990.203 21.862L981.483 17.4516L980.171 7.78516L973.278 14.6992L963.644 12.9583L968.112 21.6464L963.478 30.2351L973.128 28.6931L979.889 35.7398Z" fill="#E69B36"/>
</svg>
