<svg width="25" height="20" viewBox="0 0 25 20" fill="none" xmlns="http://www.w3.org/2000/svg">
<path fill-rule="evenodd" clip-rule="evenodd" d="M11.2487 4.66651L1.48043 8.70418C0.931213 8.92447 -0.0178508 9.35902 0.000255353 9.97312C0.00629074 10.1889 0.119454 10.3322 0.2296 10.4484C0.499683 10.7381 1.28579 10.9146 1.6796 11.0459C2.8565 11.4397 4.93569 12.2107 6.13372 12.1519C7.12804 12.1021 7.45999 11.7551 8.08314 11.3356C10.2167 9.89918 12.5659 8.27114 14.6904 6.88753C15.0812 6.63253 17.7322 4.64538 18.2166 5.05277C18.6089 5.44356 17.4486 6.52842 17.2464 6.72759C16.7756 7.19231 16.332 7.64195 15.8567 8.09159C15.6138 8.32093 15.389 8.55933 15.1385 8.79018L11.5656 12.1413C11.036 12.603 10.3751 13.1523 10.612 13.8795C10.7915 14.4303 11.5746 14.9176 11.9986 15.2435C13.5316 16.4219 15.3769 17.5189 16.9431 18.6007C17.6311 19.0775 19.7103 20.5622 20.851 19.7731C21.4108 19.3853 21.5375 18.6882 21.6748 17.8055C21.797 17.0179 21.9298 16.2197 22.052 15.4336C22.2512 14.1662 22.5771 11.8305 22.8095 10.6974C22.9317 9.63966 23.149 8.50048 23.3134 7.44882C23.4885 6.33982 24.2791 1.70313 24.1901 0.929094C24.0467 -0.332302 22.6858 -0.0667448 21.7774 0.322537C21.5571 0.417595 11.6712 4.55636 11.2487 4.66651Z" fill="white"/>
</svg>
