<svg width="35" height="20" viewBox="0 0 35 20" fill="none" xmlns="http://www.w3.org/2000/svg">
<path d="M34.644 18.5181C34.6083 18.6491 34.5726 18.78 34.5368 18.8991C34.2987 19.6136 33.7866 19.9947 33.0245 19.9947C31.3216 19.9947 29.6187 20.0066 27.9158 19.9947C26.6177 19.9828 25.5936 19.3755 24.7243 18.4585C24.0336 17.7202 23.3548 16.97 22.6522 16.2316C22.4736 16.0411 22.2712 15.8744 22.0568 15.7315C21.6281 15.4338 21.3066 15.4933 21.116 15.9816C20.9255 16.4817 20.8064 17.0057 20.6993 17.5297C20.6159 17.9226 20.6278 18.3394 20.5444 18.7324C20.4135 19.3517 20.0324 19.7923 19.4012 19.8637C18.6391 19.959 17.8531 20.0066 17.0791 19.9947C15.531 19.959 14.0305 19.6494 12.5896 19.0301C10.5176 18.1489 8.82655 16.7556 7.39754 15.0289C5.34929 12.54 3.70593 9.78919 2.2412 6.93117C1.56242 5.58551 0.93127 4.21605 0.276307 2.85849C0.192948 2.67986 0.121498 2.48932 0.0619558 2.28688C-0.176213 1.42947 0.288215 0.70306 1.18135 0.679243C2.9557 0.643518 4.74197 0.643518 6.51632 0.679243C7.24273 0.691152 7.71907 1.1794 8.01678 1.82245C8.48121 2.82276 8.8861 3.85879 9.42198 4.81147C10.1365 6.07376 10.9463 7.27651 11.7441 8.49117C11.8989 8.72934 12.1371 8.91987 12.3753 9.0985C12.673 9.32476 12.8159 9.28903 12.935 8.91987C13.0421 8.58644 13.1374 8.253 13.1612 7.90766C13.2803 6.46674 13.3041 5.02582 13.1136 3.59681C13.0064 2.81085 12.673 2.42978 11.887 2.22734C11.1368 2.0368 10.9701 1.48902 11.4821 0.905506C12.018 0.286268 12.6611 -0.011443 13.4947 0.000465382C15.1618 0.0242822 16.829 0.0242822 18.4962 0.000465382C20.0086 -0.0233515 20.5206 0.869781 20.5444 2.03681C20.5683 3.98979 20.5444 5.93086 20.5683 7.88384C20.5683 8.22918 20.6754 8.59835 20.7945 8.91987C20.9255 9.26522 21.1041 9.27712 21.378 9.01514C22.1997 8.20537 22.8666 7.2646 23.462 6.28811C24.2837 4.94246 24.9625 3.52536 25.546 2.06062C25.5817 1.96535 25.6293 1.87009 25.6651 1.77482C25.9747 1.00077 26.5463 0.63161 27.368 0.63161C29.1185 0.63161 30.8571 0.63161 32.6077 0.63161C32.8578 0.63161 33.1078 0.655427 33.346 0.691153C33.9176 0.78642 34.3582 1.07222 34.6083 1.62001C34.6083 1.87009 34.6083 2.12016 34.6083 2.35833C34.3225 3.28719 33.9295 4.16841 33.3698 4.96628C32.2028 6.65727 30.9762 8.32445 29.7497 9.99163C28.9161 11.1229 28.928 11.3849 29.9283 12.3614C30.7619 13.1831 31.6312 13.969 32.4291 14.8264C33.346 15.8148 34.2987 16.8152 34.644 18.1965C34.644 18.2918 34.644 18.4109 34.644 18.5181Z" fill="white"/>
</svg>
